ISO-10303-21;
HEADER;
FILE_DESCRIPTION (( 'STEP AP203' ),
    '1' );
FILE_NAME ('link3_forearm_默认_sldprt.STEP',
    '2026-06-19T13:47:33',
    ( '' ),
    ( '' ),
    'SwSTEP 2.0',
    'SolidWorks 2022',
    '' );
FILE_SCHEMA (( 'CONFIG_CONTROL_DESIGN' ));
ENDSEC;

DATA;
#1 = CARTESIAN_POINT ( 'NONE',  ( 7.500000000000000000, 300.0000000000000000, 50.00000000000000000 ) ) ;
#2 = ADVANCED_FACE ( 'NONE', ( #790, #787 ), #219, .F. ) ;
#3 = ORIENTED_EDGE ( 'NONE', *, *, #10, .T. ) ;
#4 = FACE_BOUND ( 'NONE', #61, .T. ) ;
#5 = PLANE ( 'NONE',  #284 ) ;
#6 = CARTESIAN_POINT ( 'NONE',  ( 0.000000000000000000, 300.0000000000000000, 50.00000000000000000 ) ) ;
#7 = VERTEX_POINT ( 'NONE', #233 ) ;
#8 = CARTESIAN_POINT ( 'NONE',  ( -7.500000000000000000, 300.0000000000000000, 12.49999999999999822 ) ) ;
#9 = DIRECTION ( 'NONE',  ( -0.000000000000000000, -0.000000000000000000, -1.000000000000000000 ) ) ;
#10 = EDGE_CURVE ( 'NONE', #152, #314, #291, .T. ) ;
#11 = LINE ( 'NONE', #253, #484 ) ;
#12 = ORIENTED_EDGE ( 'NONE', *, *, #532, .T. ) ;
#13 = VERTEX_POINT ( 'NONE', #409 ) ;
#14 = CARTESIAN_POINT ( 'NONE',  ( -7.500000000000000000, 277.4999999999999432, 37.49999999999999289 ) ) ;
#15 = EDGE_CURVE ( 'NONE', #770, #680, #802, .T. ) ;
#16 = CARTESIAN_POINT ( 'NONE',  ( -5.000000000000003553, 300.0000000000000000, 0.000000000000000000 ) ) ;
#17 = CARTESIAN_POINT ( 'NONE',  ( -7.500000000000000000, 0.000000000000000000, 37.49999999999999289 ) ) ;
#18 = CARTESIAN_POINT ( 'NONE',  ( -7.500000000000000000, 0.000000000000000000, 12.49999999999996270 ) ) ;
#19 = VERTEX_POINT ( 'NONE', #665 ) ;
#20 = EDGE_LOOP ( 'NONE', ( #635, #759, #765, #299 ) ) ;
#21 = CARTESIAN_POINT ( 'NONE',  ( -7.500000000000000000, 22.50000000000000000, 37.49999999999996447 ) ) ;
#22 = EDGE_CURVE ( 'NONE', #595, #583, #178, .T. ) ;
#23 = DIRECTION ( 'NONE',  ( 0.000000000000000000, 0.000000000000000000, -1.000000000000000000 ) ) ;
#24 = EDGE_LOOP ( 'NONE', ( #782, #227 ) ) ;
#25 = CARTESIAN_POINT ( 'NONE',  ( 0.000000000000000000, 300.0000000000000000, 37.49999999999999289 ) ) ;
#26 = ORIENTED_EDGE ( 'NONE', *, *, #97, .T. ) ;
#27 = EDGE_CURVE ( 'NONE', #13, #59, #355, .T. ) ;
#28 = AXIS2_PLACEMENT_3D ( 'NONE', #651, #349, #521 ) ;
#29 = AXIS2_PLACEMENT_3D ( 'NONE', #650, #518, #654 ) ;
#30 = CIRCLE ( 'NONE', #360, 5.000000000000004441 ) ;
#31 = LINE ( 'NONE', #85, #339 ) ;
#32 = DIRECTION ( 'NONE',  ( 0.000000000000000000, 0.000000000000000000, 1.000000000000000000 ) ) ;
#33 = EDGE_LOOP ( 'NONE', ( #405, #610, #269, #128 ) ) ;
#34 = ORIENTED_EDGE ( 'NONE', *, *, #265, .T. ) ;
#35 = AXIS2_PLACEMENT_3D ( 'NONE', #302, #183, #746 ) ;
#36 =( NAMED_UNIT ( * ) SI_UNIT ( $, .STERADIAN. ) SOLID_ANGLE_UNIT ( ) );
#37 = ORIENTED_EDGE ( 'NONE', *, *, #454, .F. ) ;
#38 = LINE ( 'NONE', #215, #663 ) ;
#39 = VECTOR ( 'NONE', #378, 1000.000000000000000 ) ;
#40 = CARTESIAN_POINT ( 'NONE',  ( 0.000000000000000000, 300.0000000000000000, 0.000000000000000000 ) ) ;
#41 = EDGE_CURVE ( 'NONE', #616, #655, #53, .T. ) ;
#42 = DIRECTION ( 'NONE',  ( 1.000000000000000000, 0.000000000000000000, 0.000000000000000000 ) ) ;
#43 = CIRCLE ( 'NONE', #103, 7.500000000000007105 ) ;
#44 = APPROVAL_PERSON_ORGANIZATION ( #421, #490, #185 ) ;
#45 = ORIENTED_EDGE ( 'NONE', *, *, #422, .T. ) ;
#46 = ADVANCED_FACE ( 'NONE', ( #480 ), #485, .T. ) ;
#47 = ORIENTED_EDGE ( 'NONE', *, *, #645, .T. ) ;
#48 = ORIENTED_EDGE ( 'NONE', *, *, #525, .T. ) ;
#49 = VECTOR ( 'NONE', #346, 1000.000000000000000 ) ;
#50 = VECTOR ( 'NONE', #660, 1000.000000000000000 ) ;
#51 = UNCERTAINTY_MEASURE_WITH_UNIT (LENGTH_MEASURE( 1.000000000000000082E-05 ), #274, 'distance_accuracy_value', 'NONE');
#52 = DIRECTION ( 'NONE',  ( 1.000000000000000000, 0.000000000000000000, -0.000000000000000000 ) ) ;
#53 = CIRCLE ( 'NONE', #527, 5.000000000000000000 ) ;
#54 = EDGE_LOOP ( 'NONE', ( #420, #531, #147, #486 ) ) ;
#55 = APPROVAL_STATUS ( 'not_yet_approved' ) ;
#56 = DIRECTION ( 'NONE',  ( 0.000000000000000000, 0.000000000000000000, 1.000000000000000000 ) ) ;
#57 = AXIS2_PLACEMENT_3D ( 'NONE', #544, #438, #762 ) ;
#58 = DIRECTION ( 'NONE',  ( -0.000000000000000000, -0.000000000000000000, 1.000000000000000000 ) ) ;
#59 = VERTEX_POINT ( 'NONE', #425 ) ;
#60 = EDGE_LOOP ( 'NONE', ( #652, #83 ) ) ;
#61 = EDGE_LOOP ( 'NONE', ( #388, #455 ) ) ;
#62 = ORIENTED_EDGE ( 'NONE', *, *, #124, .F. ) ;
#63 = CARTESIAN_POINT ( 'NONE',  ( 0.000000000000000000, 0.000000000000000000, 0.000000000000000000 ) ) ;
#64 = CARTESIAN_POINT ( 'NONE',  ( 7.500000000000000000, 300.0000000000000000, 0.000000000000000000 ) ) ;
#65 = AXIS2_PLACEMENT_3D ( 'NONE', #188, #439, #327 ) ;
#66 = EDGE_CURVE ( 'NONE', #296, #179, #362, .T. ) ;
#67 = VERTEX_POINT ( 'NONE', #609 ) ;
#68 = CARTESIAN_POINT ( 'NONE',  ( 5.000000000000003553, 300.0000000000000000, 0.000000000000000000 ) ) ;
#69 = DIRECTION ( 'NONE',  ( 0.000000000000000000, 0.000000000000000000, 1.000000000000000000 ) ) ;
#70 = CARTESIAN_POINT ( 'NONE',  ( 0.000000000000000000, 0.000000000000000000, 0.000000000000000000 ) ) ;
#71 = DIRECTION ( 'NONE',  ( 0.000000000000000000, -0.000000000000000000, 1.000000000000000000 ) ) ;
#72 = DIRECTION ( 'NONE',  ( 0.000000000000000000, 1.156482317317871478E-16, -1.000000000000000000 ) ) ;
#73 = DIRECTION ( 'NONE',  ( 1.000000000000000000, 0.000000000000000000, 0.000000000000000000 ) ) ;
#74 = CARTESIAN_POINT ( 'NONE',  ( -7.500000000000000000, 22.50000000000000000, 12.49999999999996447 ) ) ;
#75 = ADVANCED_FACE ( 'NONE', ( #539 ), #669, .F. ) ;
#76 = CARTESIAN_POINT ( 'NONE',  ( 0.000000000000000000, 0.000000000000000000, 12.49999999999996270 ) ) ;
#77 = EDGE_LOOP ( 'NONE', ( #727, #324, #423, #210 ) ) ;
#78 = ORIENTED_EDGE ( 'NONE', *, *, #66, .F. ) ;
#79 = DIRECTION ( 'NONE',  ( 1.000000000000000000, 0.000000000000000000, -0.000000000000000000 ) ) ;
#80 = DIRECTION ( 'NONE',  ( -0.000000000000000000, -0.000000000000000000, 1.000000000000000000 ) ) ;
#81 = CARTESIAN_POINT ( 'NONE',  ( 5.000000000000003553, 300.0000000000000000, 0.000000000000000000 ) ) ;
#82 = ORIENTED_EDGE ( 'NONE', *, *, #155, .T. ) ;
#83 = ORIENTED_EDGE ( 'NONE', *, *, #626, .T. ) ;
#84 = DIRECTION ( 'NONE',  ( 0.000000000000000000, 1.000000000000000000, 1.156482317317871478E-16 ) ) ;
#85 = CARTESIAN_POINT ( 'NONE',  ( -7.500000000000000000, 0.000000000000000000, 50.00000000000000000 ) ) ;
#86 = ORIENTED_EDGE ( 'NONE', *, *, #265, .F. ) ;
#87 = DIRECTION ( 'NONE',  ( 0.000000000000000000, 2.891205793294676847E-16, -1.000000000000000000 ) ) ;
#88 = EDGE_LOOP ( 'NONE', ( #12, #3 ) ) ;
#89 = CARTESIAN_POINT ( 'NONE',  ( -7.500000000000000000, 300.0000000000000000, 0.000000000000000000 ) ) ;
#90 = VERTEX_POINT ( 'NONE', #110 ) ;
#91 = FACE_OUTER_BOUND ( 'NONE', #333, .T. ) ;
#92 = ORIENTED_EDGE ( 'NONE', *, *, #555, .T. ) ;
#93 = CARTESIAN_POINT ( 'NONE',  ( 7.500000000000000000, -7.500000000000000000, 37.49999999999996447 ) ) ;
#94 = ORIENTED_EDGE ( 'NONE', *, *, #180, .F. ) ;
#95 = AXIS2_PLACEMENT_3D ( 'NONE', #246, #385, #79 ) ;
#96 = ADVANCED_BREP_SHAPE_REPRESENTATION ( 'link3_forearm_\X2\9ed88ba4\X0\_sldprt', ( #684, #459 ), #135 ) ;
#97 = EDGE_CURVE ( 'NONE', #123, #158, #596, .T. ) ;
#98 = CYLINDRICAL_SURFACE ( 'NONE', #28, 5.000000000000003553 ) ;
#99 = EDGE_CURVE ( 'NONE', #343, #642, #678, .T. ) ;
#100 = AXIS2_PLACEMENT_3D ( 'NONE', #387, #644, #771 ) ;
#101 = AXIS2_PLACEMENT_3D ( 'NONE', #244, #444, #624 ) ;
#102 = APPROVAL ( #668, '未指定' ) ;
#103 = AXIS2_PLACEMENT_3D ( 'NONE', #587, #87, #662 ) ;
#104 = PERSON ( '未指定', '未指定', '未指定', ('未指定'), ('未指定'), ('未指定') ) ;
#105 = EDGE_CURVE ( 'NONE', #616, #123, #118, .T. ) ;
#106 = AXIS2_PLACEMENT_3D ( 'NONE', #740, #240, #316 ) ;
#107 = CARTESIAN_POINT ( 'NONE',  ( -7.500000000000000000, 0.000000000000000000, 50.00000000000000000 ) ) ;
#108 = DIRECTION ( 'NONE',  ( -1.000000000000000000, 0.000000000000000000, 0.000000000000000000 ) ) ;
#109 = APPROVAL_ROLE ( '' ) ;
#110 = CARTESIAN_POINT ( 'NONE',  ( 7.500000000000000000, 0.000000000000000000, 0.000000000000000000 ) ) ;
#111 = ORIENTED_EDGE ( 'NONE', *, *, #713, .F. ) ;
#112 = AXIS2_PLACEMENT_3D ( 'NONE', #156, #573, #23 ) ;
#113 = DATE_TIME_ROLE ( 'creation_date' ) ;
#114 = PERSON_AND_ORGANIZATION ( #104, #345 ) ;
#115 = DIRECTION ( 'NONE',  ( -0.000000000000000000, -0.000000000000000000, -1.000000000000000000 ) ) ;
#116 = ORIENTED_EDGE ( 'NONE', *, *, #457, .T. ) ;
#117 = AXIS2_PLACEMENT_3D ( 'NONE', #482, #293, #794 ) ;
#118 = LINE ( 'NONE', #358, #136 ) ;
#119 = EDGE_LOOP ( 'NONE', ( #26, #625 ) ) ;
#120 = ADVANCED_FACE ( 'NONE', ( #615 ), #303, .T. ) ;
#121 = CARTESIAN_POINT ( 'NONE',  ( -7.500000000000000000, 0.000000000000000000, 50.00000000000000000 ) ) ;
#122 = AXIS2_PLACEMENT_3D ( 'NONE', #70, #319, #133 ) ;
#123 = VERTEX_POINT ( 'NONE', #242 ) ;
#124 = EDGE_CURVE ( 'NONE', #642, #363, #623, .T. ) ;
#125 = ORIENTED_EDGE ( 'NONE', *, *, #499, .F. ) ;
#126 = DIRECTION ( 'NONE',  ( 1.000000000000000000, 0.000000000000000000, 0.000000000000000000 ) ) ;
#127 = VECTOR ( 'NONE', #526, 1000.000000000000000 ) ;
#128 = ORIENTED_EDGE ( 'NONE', *, *, #287, .F. ) ;
#129 = DIRECTION ( 'NONE',  ( 1.000000000000000000, 0.000000000000000000, 0.000000000000000000 ) ) ;
#130 = CARTESIAN_POINT ( 'NONE',  ( -7.500000000000000000, 307.5000000000000000, 12.50000000000000000 ) ) ;
#131 = DIRECTION ( 'NONE',  ( 0.000000000000000000, 0.000000000000000000, 1.000000000000000000 ) ) ;
#132 = ORIENTED_EDGE ( 'NONE', *, *, #230, .T. ) ;
#133 = DIRECTION ( 'NONE',  ( 1.000000000000000000, 0.000000000000000000, 0.000000000000000000 ) ) ;
#134 = CARTESIAN_POINT ( 'NONE',  ( 7.500000000000000000, 0.000000000000000000, 50.00000000000000000 ) ) ;
#135 =( GEOMETRIC_REPRESENTATION_CONTEXT ( 3 ) GLOBAL_UNCERTAINTY_ASSIGNED_CONTEXT ( ( #51 ) ) GLOBAL_UNIT_ASSIGNED_CONTEXT ( ( #274, #657, #36 ) ) REPRESENTATION_CONTEXT ( 'NONE', 'WORKASPACE' ) );
#136 = VECTOR ( 'NONE', #365, 1000.000000000000000 ) ;
#137 = CARTESIAN_POINT ( 'NONE',  ( 7.500000000000000000, 277.4999999999999432, 12.49999999999999289 ) ) ;
#138 = VECTOR ( 'NONE', #338, 1000.000000000000000 ) ;
#139 = CARTESIAN_POINT ( 'NONE',  ( 5.000000000000003553, 300.0000000000000000, 37.49999999999999289 ) ) ;
#140 = CARTESIAN_POINT ( 'NONE',  ( 7.500000000000000000, -7.500000000000000000, 12.49999999999996270 ) ) ;
#141 = CARTESIAN_POINT ( 'NONE',  ( 0.000000000000000000, 0.000000000000000000, 50.00000000000000000 ) ) ;
#142 = EDGE_LOOP ( 'NONE', ( #703, #184, #348, #796 ) ) ;
#143 = VERTEX_POINT ( 'NONE', #377 ) ;
#144 = FACE_OUTER_BOUND ( 'NONE', #254, .T. ) ;
#145 = PLANE ( 'NONE',  #112 ) ;
#146 = ORIENTED_EDGE ( 'NONE', *, *, #614, .F. ) ;
#147 = ORIENTED_EDGE ( 'NONE', *, *, #313, .T. ) ;
#148 = DIRECTION ( 'NONE',  ( 0.000000000000000000, 1.000000000000000000, 1.156482317317871478E-16 ) ) ;
#149 = CC_DESIGN_SECURITY_CLASSIFICATION ( #374, ( #315 ) ) ;
#150 = EDGE_CURVE ( 'NONE', #143, #574, #683, .T. ) ;
#151 = AXIS2_PLACEMENT_3D ( 'NONE', #690, #131, #549 ) ;
#152 = VERTEX_POINT ( 'NONE', #201 ) ;
#153 = DIRECTION ( 'NONE',  ( 0.000000000000000000, 1.000000000000000000, 3.469446951953611231E-16 ) ) ;
#154 = ORIENTED_EDGE ( 'NONE', *, *, #352, .T. ) ;
#155 = EDGE_CURVE ( 'NONE', #152, #294, #694, .T. ) ;
#156 = CARTESIAN_POINT ( 'NONE',  ( -7.500000000000000000, 0.000000000000000000, 50.00000000000000000 ) ) ;
#157 = DIRECTION ( 'NONE',  ( 0.000000000000000000, 2.891205793294676847E-16, -1.000000000000000000 ) ) ;
#158 = VERTEX_POINT ( 'NONE', #429 ) ;
#159 = CARTESIAN_POINT ( 'NONE',  ( -7.500000000000000000, 22.50000000000000000, 12.49999999999996625 ) ) ;
#160 = EDGE_LOOP ( 'NONE', ( #267, #557, #510, #92 ) ) ;
#161 = AXIS2_PLACEMENT_3D ( 'NONE', #25, #584, #656 ) ;
#162 = VECTOR ( 'NONE', #741, 1000.000000000000000 ) ;
#163 = EDGE_CURVE ( 'NONE', #739, #546, #264, .T. ) ;
#164 = CYLINDRICAL_SURFACE ( 'NONE', #432, 5.000000000000003553 ) ;
#165 = ADVANCED_FACE ( 'NONE', ( #252, #187 ), #633, .F. ) ;
#166 = CARTESIAN_POINT ( 'NONE',  ( 7.500000000000000000, 307.5000000000000000, 37.49999999999999289 ) ) ;
#167 = AXIS2_PLACEMENT_3D ( 'NONE', #730, #238, #674 ) ;
#168 = VERTEX_POINT ( 'NONE', #21 ) ;
#169 = CC_DESIGN_PERSON_AND_ORGANIZATION_ASSIGNMENT ( #312, #410, ( #315 ) ) ;
#170 = ADVANCED_FACE ( 'NONE', ( #198, #559, #498 ), #5, .F. ) ;
#171 = CIRCLE ( 'NONE', #29, 5.000000000000000000 ) ;
#172 = ORIENTED_EDGE ( 'NONE', *, *, #313, .F. ) ;
#173 = CARTESIAN_POINT ( 'NONE',  ( -7.500000000000000000, 300.0000000000000000, 50.00000000000000000 ) ) ;
#174 = COORDINATED_UNIVERSAL_TIME_OFFSET ( 8, 0, .AHEAD. ) ;
#175 = VECTOR ( 'NONE', #548, 1000.000000000000000 ) ;
#176 = CARTESIAN_POINT ( 'NONE',  ( 7.500000000000000000, 307.5000000000000000, 12.50000000000000000 ) ) ;
#177 = CIRCLE ( 'NONE', #481, 5.000000000000004441 ) ;
#178 = LINE ( 'NONE', #107, #753 ) ;
#179 = VERTEX_POINT ( 'NONE', #74 ) ;
#180 = EDGE_CURVE ( 'NONE', #314, #449, #689, .T. ) ;
#181 = DIRECTION ( 'NONE',  ( 0.000000000000000000, 0.000000000000000000, 1.000000000000000000 ) ) ;
#182 = EDGE_LOOP ( 'NONE', ( #446, #697, #234, #249, #278, #479, #290, #726, #552, #536, #62, #505 ) ) ;
#183 = DIRECTION ( 'NONE',  ( 0.000000000000000000, 1.156482317317871478E-16, -1.000000000000000000 ) ) ;
#184 = ORIENTED_EDGE ( 'NONE', *, *, #150, .T. ) ;
#185 = APPROVAL_ROLE ( '' ) ;
#186 = DIRECTION ( 'NONE',  ( 0.000000000000000000, 0.000000000000000000, 1.000000000000000000 ) ) ;
#187 = FACE_OUTER_BOUND ( 'NONE', #515, .T. ) ;
#188 = CARTESIAN_POINT ( 'NONE',  ( 0.000000000000000000, 0.000000000000000000, 37.49999999999996447 ) ) ;
#189 = EDGE_CURVE ( 'NONE', #168, #7, #191, .T. ) ;
#190 = AXIS2_PLACEMENT_3D ( 'NONE', #757, #196, #764 ) ;
#191 = LINE ( 'NONE', #386, #389 ) ;
#192 = EDGE_LOOP ( 'NONE', ( #471, #250 ) ) ;
#193 = DIRECTION ( 'NONE',  ( 0.000000000000000000, 0.000000000000000000, -1.000000000000000000 ) ) ;
#194 = DIRECTION ( 'NONE',  ( -0.000000000000000000, -0.000000000000000000, 1.000000000000000000 ) ) ;
#195 = CC_DESIGN_APPROVAL ( #102, ( #562 ) ) ;
#196 = DIRECTION ( 'NONE',  ( -0.000000000000000000, -0.000000000000000000, 1.000000000000000000 ) ) ;
#197 = DIRECTION ( 'NONE',  ( -0.000000000000000000, -0.000000000000000000, 1.000000000000000000 ) ) ;
#198 = FACE_BOUND ( 'NONE', #88, .T. ) ;
#199 = DIRECTION ( 'NONE',  ( 0.000000000000000000, 1.156482317317871478E-16, -1.000000000000000000 ) ) ;
#200 = ORIENTED_EDGE ( 'NONE', *, *, #594, .T. ) ;
#201 = CARTESIAN_POINT ( 'NONE',  ( -5.000000000000003553, 300.0000000000000000, 0.000000000000000000 ) ) ;
#202 = CARTESIAN_POINT ( 'NONE',  ( -5.000000000000000000, 6.123233995736766282E-16, 0.000000000000000000 ) ) ;
#203 = EDGE_LOOP ( 'NONE', ( #48, #371, #379, #397 ) ) ;
#204 = CARTESIAN_POINT ( 'NONE',  ( -7.500000000000000000, 0.000000000000000000, 37.49999999999996447 ) ) ;
#205 = ORIENTED_EDGE ( 'NONE', *, *, #594, .F. ) ;
#206 = DIRECTION ( 'NONE',  ( 1.000000000000000000, 0.000000000000000000, 0.000000000000000000 ) ) ;
#207 = LOCAL_TIME ( 21, 47, 33.00000000000000000, #356 ) ;
#208 = VERTEX_POINT ( 'NONE', #441 ) ;
#209 = DIRECTION ( 'NONE',  ( 1.000000000000000000, -0.000000000000000000, -0.000000000000000000 ) ) ;
#210 = ORIENTED_EDGE ( 'NONE', *, *, #105, .F. ) ;
#211 = LINE ( 'NONE', #403, #50 ) ;
#212 = APPROVAL_DATE_TIME ( #778, #261 ) ;
#213 = LINE ( 'NONE', #159, #127 ) ;
#214 = ORIENTED_EDGE ( 'NONE', *, *, #457, .F. ) ;
#215 = CARTESIAN_POINT ( 'NONE',  ( -7.500000000000000000, 300.0000000000000000, 50.00000000000000000 ) ) ;
#216 = DIRECTION ( 'NONE',  ( 1.000000000000000000, 0.000000000000000000, 0.000000000000000000 ) ) ;
#217 = PRODUCT ( 'link3_forearm_\X2\9ed88ba4\X0\_sldprt', 'link3_forearm_\X2\9ed88ba4\X0\_sldprt', '', ( #361 ) ) ;
#218 = CIRCLE ( 'NONE', #780, 5.000000000000000000 ) ;
#219 = PLANE ( 'NONE',  #470 ) ;
#220 = PERSON_AND_ORGANIZATION ( #104, #345 ) ;
#221 = PERSON_AND_ORGANIZATION_ROLE ( 'creator' ) ;
#222 = CARTESIAN_POINT ( 'NONE',  ( 0.000000000000000000, 0.000000000000000000, 0.000000000000000000 ) ) ;
#223 = ORIENTED_EDGE ( 'NONE', *, *, #489, .T. ) ;
#224 = LOCAL_TIME ( 21, 47, 33.00000000000000000, #603 ) ;
#225 = DATE_AND_TIME ( #600, #207 ) ;
#226 = CARTESIAN_POINT ( 'NONE',  ( -7.500000000000000000, -7.500000000000000000, 37.49999999999996447 ) ) ;
#227 = ORIENTED_EDGE ( 'NONE', *, *, #682, .T. ) ;
#228 = APPROVAL_DATE_TIME ( #598, #490 ) ;
#229 = ORIENTED_EDGE ( 'NONE', *, *, #478, .T. ) ;
#230 = EDGE_CURVE ( 'NONE', #19, #696, #743, .T. ) ;
#231 = PERSON_AND_ORGANIZATION ( #104, #345 ) ;
#232 = EDGE_CURVE ( 'NONE', #799, #716, #494, .T. ) ;
#233 = CARTESIAN_POINT ( 'NONE',  ( 7.500000000000000000, 22.50000000000000000, 37.49999999999996447 ) ) ;
#234 = ORIENTED_EDGE ( 'NONE', *, *, #472, .F. ) ;
#235 = CYLINDRICAL_SURFACE ( 'NONE', #241, 7.500000000000000000 ) ;
#236 = ORIENTED_EDGE ( 'NONE', *, *, #775, .T. ) ;
#237 = FACE_OUTER_BOUND ( 'NONE', #160, .T. ) ;
#238 = DIRECTION ( 'NONE',  ( 0.000000000000000000, 1.156482317317871478E-16, -1.000000000000000000 ) ) ;
#239 = CIRCLE ( 'NONE', #35, 7.500000000000000000 ) ;
#240 = DIRECTION ( 'NONE',  ( -0.000000000000000000, -0.000000000000000000, -1.000000000000000000 ) ) ;
#241 = AXIS2_PLACEMENT_3D ( 'NONE', #487, #664, #108 ) ;
#242 = CARTESIAN_POINT ( 'NONE',  ( 5.000000000000000000, 0.000000000000000000, 12.49999999999996270 ) ) ;
#243 = ADVANCED_FACE ( 'NONE', ( #747 ), #627, .F. ) ;
#244 = CARTESIAN_POINT ( 'NONE',  ( 0.000000000000000000, 300.0000000000000000, 50.00000000000000000 ) ) ;
#245 = ADVANCED_FACE ( 'NONE', ( #144 ), #756, .F. ) ;
#246 = CARTESIAN_POINT ( 'NONE',  ( 0.000000000000000000, 0.000000000000000000, 50.00000000000000000 ) ) ;
#247 = DIRECTION ( 'NONE',  ( 0.000000000000000000, 1.000000000000000000, 0.000000000000000000 ) ) ;
#248 = LINE ( 'NONE', #752, #376 ) ;
#249 = ORIENTED_EDGE ( 'NONE', *, *, #382, .F. ) ;
#250 = ORIENTED_EDGE ( 'NONE', *, *, #576, .T. ) ;
#251 = CARTESIAN_POINT ( 'NONE',  ( -7.500000000000000000, 277.4999999999999432, 37.49999999999999289 ) ) ;
#252 = FACE_BOUND ( 'NONE', #192, .T. ) ;
#253 = CARTESIAN_POINT ( 'NONE',  ( -5.000000000000000000, 6.123233995736766282E-16, 0.000000000000000000 ) ) ;
#254 = EDGE_LOOP ( 'NONE', ( #383, #590, #417, #533 ) ) ;
#255 = EDGE_LOOP ( 'NONE', ( #735, #783, #431, #329 ) ) ;
#256 = CARTESIAN_POINT ( 'NONE',  ( 0.000000000000000000, 300.0000000000000000, 0.000000000000000000 ) ) ;
#257 = AXIS2_PLACEMENT_3D ( 'NONE', #256, #194, #369 ) ;
#258 = DIRECTION ( 'NONE',  ( 0.000000000000000000, -1.000000000000000000, 0.000000000000000000 ) ) ;
#259 = CARTESIAN_POINT ( 'NONE',  ( 0.000000000000000000, 300.0000000000000000, 37.49999999999999289 ) ) ;
#260 = EDGE_LOOP ( 'NONE', ( #86, #647, #641, #605 ) ) ;
#261 = APPROVAL ( #55, '未指定' ) ;
#262 = EDGE_CURVE ( 'NONE', #537, #524, #317, .T. ) ;
#263 = EDGE_LOOP ( 'NONE', ( #646, #462, #384, #116 ) ) ;
#264 = LINE ( 'NONE', #68, #175 ) ;
#265 = EDGE_CURVE ( 'NONE', #279, #517, #638, .T. ) ;
#266 = CARTESIAN_POINT ( 'NONE',  ( 7.500000000000000000, 300.0000000000000000, 12.49999999999999822 ) ) ;
#267 = ORIENTED_EDGE ( 'NONE', *, *, #791, .T. ) ;
#268 = AXIS2_PLACEMENT_3D ( 'NONE', #461, #781, #465 ) ;
#269 = ORIENTED_EDGE ( 'NONE', *, *, #232, .F. ) ;
#270 = PLANE ( 'NONE',  #561 ) ;
#271 = DIRECTION ( 'NONE',  ( 1.000000000000000000, 0.000000000000000000, -0.000000000000000000 ) ) ;
#272 = EDGE_LOOP ( 'NONE', ( #504, #82, #37, #94 ) ) ;
#273 = CARTESIAN_POINT ( 'NONE',  ( 0.000000000000000000, 300.0000000000000000, 0.000000000000000000 ) ) ;
#274 =( LENGTH_UNIT ( ) NAMED_UNIT ( * ) SI_UNIT ( .MILLI., .METRE. ) );
#275 = LOCAL_TIME ( 21, 47, 33.00000000000000000, #174 ) ;
#276 = FACE_OUTER_BOUND ( 'NONE', #777, .T. ) ;
#277 = CIRCLE ( 'NONE', #151, 7.500000000000000000 ) ;
#278 = ORIENTED_EDGE ( 'NONE', *, *, #232, .T. ) ;
#279 = VERTEX_POINT ( 'NONE', #572 ) ;
#280 = DIRECTION ( 'NONE',  ( 0.000000000000000000, -1.000000000000000000, 0.000000000000000000 ) ) ;
#281 = CIRCLE ( 'NONE', #65, 7.500000000000000000 ) ;
#282 = AXIS2_PLACEMENT_3D ( 'NONE', #259, #427, #563 ) ;
#283 = DIRECTION ( 'NONE',  ( -0.000000000000000000, -0.000000000000000000, 1.000000000000000000 ) ) ;
#284 = AXIS2_PLACEMENT_3D ( 'NONE', #766, #699, #751 ) ;
#285 = ADVANCED_FACE ( 'NONE', ( #512 ), #235, .T. ) ;
#286 = ORIENTED_EDGE ( 'NONE', *, *, #499, .T. ) ;
#287 = EDGE_CURVE ( 'NONE', #595, #799, #277, .T. ) ;
#288 = ORIENTED_EDGE ( 'NONE', *, *, #725, .F. ) ;
#289 = VECTOR ( 'NONE', #767, 1000.000000000000000 ) ;
#290 = ORIENTED_EDGE ( 'NONE', *, *, #763, .F. ) ;
#291 = CIRCLE ( 'NONE', #117, 5.000000000000003553 ) ;
#292 = DIRECTION ( 'NONE',  ( 1.000000000000000000, 0.000000000000000000, 0.000000000000000000 ) ) ;
#293 = DIRECTION ( 'NONE',  ( 0.000000000000000000, 0.000000000000000000, 1.000000000000000000 ) ) ;
#294 = VERTEX_POINT ( 'NONE', #370 ) ;
#295 = EDGE_CURVE ( 'NONE', #546, #574, #712, .T. ) ;
#296 = VERTEX_POINT ( 'NONE', #18 ) ;
#297 = AXIS2_PLACEMENT_3D ( 'NONE', #330, #450, #381 ) ;
#298 = CARTESIAN_POINT ( 'NONE',  ( -7.500000000000000000, 4.336808689942022469E-15, 12.49999999999996270 ) ) ;
#299 = ORIENTED_EDGE ( 'NONE', *, *, #592, .F. ) ;
#300 = DATE_AND_TIME ( #666, #275 ) ;
#301 = ORIENTED_EDGE ( 'NONE', *, *, #576, .F. ) ;
#302 = CARTESIAN_POINT ( 'NONE',  ( 0.000000000000000000, 0.000000000000000000, 12.49999999999996270 ) ) ;
#303 = CYLINDRICAL_SURFACE ( 'NONE', #57, 7.500000000000000000 ) ;
#304 = ORIENTED_EDGE ( 'NONE', *, *, #393, .T. ) ;
#305 = SHAPE_DEFINITION_REPRESENTATION ( #789, #96 ) ;
#306 = DIRECTION ( 'NONE',  ( -1.000000000000000000, 0.000000000000000000, 0.000000000000000000 ) ) ;
#307 = APPLICATION_CONTEXT ( 'configuration controlled 3d designs of mechanical parts and assemblies' ) ;
#308 = ORIENTED_EDGE ( 'NONE', *, *, #645, .F. ) ;
#309 = EDGE_CURVE ( 'NONE', #680, #67, #248, .T. ) ;
#310 = DIRECTION ( 'NONE',  ( 0.000000000000000000, -1.000000000000000000, -0.000000000000000000 ) ) ;
#311 = DIRECTION ( 'NONE',  ( -0.000000000000000000, -0.000000000000000000, 1.000000000000000000 ) ) ;
#312 = PERSON_AND_ORGANIZATION ( #104, #345 ) ;
#313 = EDGE_CURVE ( 'NONE', #466, #636, #560, .T. ) ;
#314 = VERTEX_POINT ( 'NONE', #81 ) ;
#315 = PRODUCT_DEFINITION_FORMATION_WITH_SPECIFIED_SOURCE ( '任何', '', #217, .NOT_KNOWN. ) ;
#316 = DIRECTION ( 'NONE',  ( -1.000000000000000000, 0.000000000000000000, 0.000000000000000000 ) ) ;
#317 = LINE ( 'NONE', #140, #474 ) ;
#318 = VECTOR ( 'NONE', #394, 1000.000000000000000 ) ;
#319 = DIRECTION ( 'NONE',  ( 0.000000000000000000, 0.000000000000000000, 1.000000000000000000 ) ) ;
#320 = CARTESIAN_POINT ( 'NONE',  ( -7.500000000000000000, 22.50000000000000000, 37.49999999999996447 ) ) ;
#321 = CARTESIAN_POINT ( 'NONE',  ( 7.500000000000000000, 0.000000000000000000, 50.00000000000000000 ) ) ;
#322 = AXIS2_PLACEMENT_3D ( 'NONE', #679, #430, #685 ) ;
#323 = VECTOR ( 'NONE', #681, 1000.000000000000000 ) ;
#324 = ORIENTED_EDGE ( 'NONE', *, *, #395, .T. ) ;
#325 = DIRECTION ( 'NONE',  ( 0.000000000000000000, 0.000000000000000000, -1.000000000000000000 ) ) ;
#326 = DIRECTION ( 'NONE',  ( 0.000000000000000000, 2.891205793294676847E-16, -1.000000000000000000 ) ) ;
#327 = DIRECTION ( 'NONE',  ( 1.000000000000000000, 0.000000000000000000, 0.000000000000000000 ) ) ;
#328 = VECTOR ( 'NONE', #734, 1000.000000000000000 ) ;
#329 = ORIENTED_EDGE ( 'NONE', *, *, #359, .F. ) ;
#330 = CARTESIAN_POINT ( 'NONE',  ( 0.000000000000000000, 300.0000000000000000, 37.49999999999999289 ) ) ;
#331 = VECTOR ( 'NONE', #80, 1000.000000000000000 ) ;
#332 = DIRECTION ( 'NONE',  ( 1.000000000000000000, 0.000000000000000000, 0.000000000000000000 ) ) ;
#333 = EDGE_LOOP ( 'NONE', ( #577, #200, #564, #286, #511, #711, #308, #392, #154, #45, #337, #146 ) ) ;
#334 = LINE ( 'NONE', #456, #464 ) ;
#335 = ORIENTED_EDGE ( 'NONE', *, *, #180, .T. ) ;
#336 = DIRECTION ( 'NONE',  ( 0.000000000000000000, 0.000000000000000000, 1.000000000000000000 ) ) ;
#337 = ORIENTED_EDGE ( 'NONE', *, *, #22, .F. ) ;
#338 = DIRECTION ( 'NONE',  ( -0.000000000000000000, -1.000000000000000000, -0.000000000000000000 ) ) ;
#339 = VECTOR ( 'NONE', #714, 1000.000000000000000 ) ;
#340 = EDGE_CURVE ( 'NONE', #363, #680, #670, .T. ) ;
#341 = CIRCLE ( 'NONE', #161, 5.000000000000003553 ) ;
#342 = FACE_OUTER_BOUND ( 'NONE', #722, .T. ) ;
#343 = VERTEX_POINT ( 'NONE', #137 ) ;
#344 = CYLINDRICAL_SURFACE ( 'NONE', #580, 5.000000000000003553 ) ;
#345 = ORGANIZATION ( '未指定', '未指定', '' ) ;
#346 = DIRECTION ( 'NONE',  ( -0.000000000000000000, -0.000000000000000000, -1.000000000000000000 ) ) ;
#347 = AXIS2_PLACEMENT_3D ( 'NONE', #130, #326, #502 ) ;
#348 = ORIENTED_EDGE ( 'NONE', *, *, #760, .T. ) ;
#349 = DIRECTION ( 'NONE',  ( -0.000000000000000000, -0.000000000000000000, 1.000000000000000000 ) ) ;
#350 = DIRECTION ( 'NONE',  ( 0.000000000000000000, 0.000000000000000000, 1.000000000000000000 ) ) ;
#351 = AXIS2_PLACEMENT_3D ( 'NONE', #618, #306, #545 ) ;
#352 = EDGE_CURVE ( 'NONE', #179, #168, #373, .T. ) ;
#353 = EDGE_CURVE ( 'NONE', #517, #59, #218, .T. ) ;
#354 = VECTOR ( 'NONE', #755, 1000.000000000000000 ) ;
#355 = LINE ( 'NONE', #597, #418 ) ;
#356 = COORDINATED_UNIVERSAL_TIME_OFFSET ( 8, 0, .AHEAD. ) ;
#357 = COORDINATED_UNIVERSAL_TIME_OFFSET ( 8, 0, .AHEAD. ) ;
#358 = CARTESIAN_POINT ( 'NONE',  ( 5.000000000000000000, 0.000000000000000000, 0.000000000000000000 ) ) ;
#359 = EDGE_CURVE ( 'NONE', #158, #123, #414, .T. ) ;
#360 = AXIS2_PLACEMENT_3D ( 'NONE', #715, #157, #719 ) ;
#361 = MECHANICAL_CONTEXT ( 'NONE', #307, 'mechanical' ) ;
#362 = LINE ( 'NONE', #298, #162 ) ;
#363 = VERTEX_POINT ( 'NONE', #64 ) ;
#364 = CC_DESIGN_PERSON_AND_ORGANIZATION_ASSIGNMENT ( #468, #704, ( #315 ) ) ;
#365 = DIRECTION ( 'NONE',  ( -0.000000000000000000, -0.000000000000000000, 1.000000000000000000 ) ) ;
#366 = ORIENTED_EDGE ( 'NONE', *, *, #230, .F. ) ;
#367 = FACE_OUTER_BOUND ( 'NONE', #260, .T. ) ;
#368 = EDGE_LOOP ( 'NONE', ( #288, #686, #613, #111 ) ) ;
#369 = DIRECTION ( 'NONE',  ( 1.000000000000000000, 0.000000000000000000, 0.000000000000000000 ) ) ;
#370 = CARTESIAN_POINT ( 'NONE',  ( -5.000000000000003553, 300.0000000000000000, 12.49999999999999822 ) ) ;
#371 = ORIENTED_EDGE ( 'NONE', *, *, #124, .T. ) ;
#372 = DIRECTION ( 'NONE',  ( -0.000000000000000000, -0.000000000000000000, -1.000000000000000000 ) ) ;
#373 = LINE ( 'NONE', #629, #39 ) ;
#374 = SECURITY_CLASSIFICATION ( '', '', #477 ) ;
#375 = COORDINATED_UNIVERSAL_TIME_OFFSET ( 8, 0, .AHEAD. ) ;
#376 = VECTOR ( 'NONE', #749, 1000.000000000000000 ) ;
#377 = CARTESIAN_POINT ( 'NONE',  ( -5.000000000000003553, 300.0000000000000000, 37.49999999999999289 ) ) ;
#378 = DIRECTION ( 'NONE',  ( -0.000000000000000000, -0.000000000000000000, 1.000000000000000000 ) ) ;
#379 = ORIENTED_EDGE ( 'NONE', *, *, #340, .T. ) ;
#380 = PLANE ( 'NONE',  #95 ) ;
#381 = DIRECTION ( 'NONE',  ( 1.000000000000000000, 0.000000000000000000, 0.000000000000000000 ) ) ;
#382 = EDGE_CURVE ( 'NONE', #799, #466, #634, .T. ) ;
#383 = ORIENTED_EDGE ( 'NONE', *, *, #150, .F. ) ;
#384 = ORIENTED_EDGE ( 'NONE', *, *, #352, .F. ) ;
#385 = DIRECTION ( 'NONE',  ( 0.000000000000000000, 0.000000000000000000, 1.000000000000000000 ) ) ;
#386 = CARTESIAN_POINT ( 'NONE',  ( -7.500000000000000000, 22.50000000000000000, 37.49999999999996447 ) ) ;
#387 = CARTESIAN_POINT ( 'NONE',  ( 0.000000000000000000, 0.000000000000000000, 37.49999999999996447 ) ) ;
#388 = ORIENTED_EDGE ( 'NONE', *, *, #295, .F. ) ;
#389 = VECTOR ( 'NONE', #643, 1000.000000000000000 ) ;
#390 = FACE_BOUND ( 'NONE', #119, .T. ) ;
#391 = DIRECTION ( 'NONE',  ( -0.000000000000000000, -1.000000000000000000, -0.000000000000000000 ) ) ;
#392 = ORIENTED_EDGE ( 'NONE', *, *, #66, .T. ) ;
#393 = EDGE_CURVE ( 'NONE', #739, #143, #788, .T. ) ;
#394 = DIRECTION ( 'NONE',  ( 1.000000000000000000, -0.000000000000000000, -0.000000000000000000 ) ) ;
#395 = EDGE_CURVE ( 'NONE', #655, #158, #11, .T. ) ;
#396 = CARTESIAN_POINT ( 'NONE',  ( 0.000000000000000000, 0.000000000000000000, 0.000000000000000000 ) ) ;
#397 = ORIENTED_EDGE ( 'NONE', *, *, #15, .F. ) ;
#398 = DIRECTION ( 'NONE',  ( 0.000000000000000000, 2.891205793294676847E-16, -1.000000000000000000 ) ) ;
#399 = CIRCLE ( 'NONE', #122, 7.500000000000000000 ) ;
#400 = LINE ( 'NONE', #658, #49 ) ;
#401 = CLOSED_SHELL ( 'NONE', ( #75, #404, #473, #589, #733, #285, #120, #406, #46, #628, #745, #170, #2, #671, #243, #412, #165, #731, #435, #245, #717, #604 ) ) ;
#402 = ORIENTED_EDGE ( 'NONE', *, *, #682, .F. ) ;
#403 = CARTESIAN_POINT ( 'NONE',  ( -7.500000000000000000, 307.5000000000000000, 12.50000000000000000 ) ) ;
#404 = ADVANCED_FACE ( 'NONE', ( #744 ), #503, .F. ) ;
#405 = ORIENTED_EDGE ( 'NONE', *, *, #22, .T. ) ;
#406 = ADVANCED_FACE ( 'NONE', ( #695 ), #701, .F. ) ;
#407 = CIRCLE ( 'NONE', #445, 5.000000000000000000 ) ;
#408 = VECTOR ( 'NONE', #209, 1000.000000000000000 ) ;
#409 = CARTESIAN_POINT ( 'NONE',  ( 5.000000000000000000, 0.000000000000000000, 37.49999999999996447 ) ) ;
#410 = PERSON_AND_ORGANIZATION_ROLE ( 'design_supplier' ) ;
#411 = LOCAL_TIME ( 21, 47, 33.00000000000000000, #375 ) ;
#412 = ADVANCED_FACE ( 'NONE', ( #803, #723 ), #514, .F. ) ;
#413 = DIRECTION ( 'NONE',  ( -0.000000000000000000, 1.000000000000000000, 2.891205793294676354E-16 ) ) ;
#414 = CIRCLE ( 'NONE', #599, 5.000000000000000000 ) ;
#415 = APPROVAL_DATE_TIME ( #793, #102 ) ;
#416 = DIRECTION ( 'NONE',  ( 1.000000000000000000, 0.000000000000000000, 0.000000000000000000 ) ) ;
#417 = ORIENTED_EDGE ( 'NONE', *, *, #163, .T. ) ;
#418 = VECTOR ( 'NONE', #58, 1000.000000000000000 ) ;
#419 = DIRECTION ( 'NONE',  ( 1.000000000000000000, 0.000000000000000000, 0.000000000000000000 ) ) ;
#420 = ORIENTED_EDGE ( 'NONE', *, *, #287, .T. ) ;
#421 = PERSON_AND_ORGANIZATION ( #104, #345 ) ;
#422 = EDGE_CURVE ( 'NONE', #168, #583, #707, .T. ) ;
#423 = ORIENTED_EDGE ( 'NONE', *, *, #97, .F. ) ;
#424 = LINE ( 'NONE', #801, #710 ) ;
#425 = CARTESIAN_POINT ( 'NONE',  ( 5.000000000000000000, 0.000000000000000000, 50.00000000000000000 ) ) ;
#426 = CALENDAR_DATE ( 2026, 19, 6 ) ;
#427 = DIRECTION ( 'NONE',  ( 0.000000000000000000, 0.000000000000000000, 1.000000000000000000 ) ) ;
#428 = PRODUCT_RELATED_PRODUCT_CATEGORY ( 'detail', '', ( #217 ) ) ;
#429 = CARTESIAN_POINT ( 'NONE',  ( -5.000000000000000000, 6.123233995736766282E-16, 12.49999999999996270 ) ) ;
#430 = DIRECTION ( 'NONE',  ( 0.000000000000000000, 0.000000000000000000, 1.000000000000000000 ) ) ;
#431 = ORIENTED_EDGE ( 'NONE', *, *, #105, .T. ) ;
#432 = AXIS2_PLACEMENT_3D ( 'NONE', #40, #283, #216 ) ;
#433 = FACE_BOUND ( 'NONE', #540, .T. ) ;
#434 = DIRECTION ( 'NONE',  ( -0.000000000000000000, -0.000000000000000000, 1.000000000000000000 ) ) ;
#435 = ADVANCED_FACE ( 'NONE', ( #276 ), #98, .F. ) ;
#436 = APPROVAL_PERSON_ORGANIZATION ( #231, #102, #109 ) ;
#437 = EDGE_LOOP ( 'NONE', ( #458, #132, #519, #172 ) ) ;
#438 = DIRECTION ( 'NONE',  ( -0.000000000000000000, -0.000000000000000000, -1.000000000000000000 ) ) ;
#439 = DIRECTION ( 'NONE',  ( 0.000000000000000000, -0.000000000000000000, 1.000000000000000000 ) ) ;
#440 = CARTESIAN_POINT ( 'NONE',  ( -7.500000000000000000, 277.4999999999999432, 37.49999999999999289 ) ) ;
#441 = CARTESIAN_POINT ( 'NONE',  ( -7.500000000000000000, 277.4999999999999432, 12.49999999999999645 ) ) ;
#442 = CIRCLE ( 'NONE', #100, 5.000000000000000000 ) ;
#443 = CARTESIAN_POINT ( 'NONE',  ( -7.500000000000000000, 300.0000000000000000, 37.49999999999999289 ) ) ;
#444 = DIRECTION ( 'NONE',  ( 0.000000000000000000, 0.000000000000000000, 1.000000000000000000 ) ) ;
#445 = AXIS2_PLACEMENT_3D ( 'NONE', #396, #336, #332 ) ;
#446 = ORIENTED_EDGE ( 'NONE', *, *, #791, .F. ) ;
#447 = EDGE_CURVE ( 'NONE', #208, #343, #593, .T. ) ;
#448 = VECTOR ( 'NONE', #280, 1000.000000000000000 ) ;
#449 = VERTEX_POINT ( 'NONE', #582 ) ;
#450 = DIRECTION ( 'NONE',  ( 0.000000000000000000, 0.000000000000000000, 1.000000000000000000 ) ) ;
#451 = EDGE_CURVE ( 'NONE', #59, #517, #622, .T. ) ;
#452 = CARTESIAN_POINT ( 'NONE',  ( -7.500000000000000000, 300.0000000000000000, 50.00000000000000000 ) ) ;
#453 = CARTESIAN_POINT ( 'NONE',  ( -7.500000000000000000, -7.500000000000000000, 37.49999999999996447 ) ) ;
#454 = EDGE_CURVE ( 'NONE', #449, #294, #30, .T. ) ;
#455 = ORIENTED_EDGE ( 'NONE', *, *, #760, .F. ) ;
#456 = CARTESIAN_POINT ( 'NONE',  ( 7.500000000000000000, 0.000000000000000000, 50.00000000000000000 ) ) ;
#457 = EDGE_CURVE ( 'NONE', #179, #524, #213, .T. ) ;
#458 = ORIENTED_EDGE ( 'NONE', *, *, #472, .T. ) ;
#459 = AXIS2_PLACEMENT_3D ( 'NONE', #672, #56, #292 ) ;
#460 = DIRECTION ( 'NONE',  ( -0.000000000000000000, -0.000000000000000000, 1.000000000000000000 ) ) ;
#461 = CARTESIAN_POINT ( 'NONE',  ( 0.000000000000000000, 0.000000000000000000, 50.00000000000000000 ) ) ;
#462 = ORIENTED_EDGE ( 'NONE', *, *, #189, .F. ) ;
#463 = DIRECTION ( 'NONE',  ( -0.000000000000000000, -0.000000000000000000, -1.000000000000000000 ) ) ;
#464 = VECTOR ( 'NONE', #709, 1000.000000000000000 ) ;
#465 = DIRECTION ( 'NONE',  ( 1.000000000000000000, 0.000000000000000000, 0.000000000000000000 ) ) ;
#466 = VERTEX_POINT ( 'NONE', #469 ) ;
#467 = CARTESIAN_POINT ( 'NONE',  ( 7.500000000000000000, 277.4999999999999432, 37.49999999999999289 ) ) ;
#468 = PERSON_AND_ORGANIZATION ( #104, #345 ) ;
#469 = CARTESIAN_POINT ( 'NONE',  ( 7.500000000000000000, 300.0000000000000000, 50.00000000000000000 ) ) ;
#470 = AXIS2_PLACEMENT_3D ( 'NONE', #226, #602, #52 ) ;
#471 = ORIENTED_EDGE ( 'NONE', *, *, #454, .T. ) ;
#472 = EDGE_CURVE ( 'NONE', #466, #19, #400, .T. ) ;
#473 = ADVANCED_FACE ( 'NONE', ( #721 ), #164, .F. ) ;
#474 = VECTOR ( 'NONE', #84, 1000.000000000000000 ) ;
#475 = AXIS2_PLACEMENT_3D ( 'NONE', #585, #32, #271 ) ;
#476 = DIRECTION ( 'NONE',  ( -0.000000000000000000, -0.000000000000000000, -1.000000000000000000 ) ) ;
#477 = SECURITY_CLASSIFICATION_LEVEL ( 'unclassified' ) ;
#478 = EDGE_CURVE ( 'NONE', #143, #739, #341, .T. ) ;
#479 = ORIENTED_EDGE ( 'NONE', *, *, #579, .F. ) ;
#480 = FACE_OUTER_BOUND ( 'NONE', #203, .T. ) ;
#481 = AXIS2_PLACEMENT_3D ( 'NONE', #653, #398, #153 ) ;
#482 = CARTESIAN_POINT ( 'NONE',  ( 0.000000000000000000, 300.0000000000000000, 0.000000000000000000 ) ) ;
#483 = ORIENTED_EDGE ( 'NONE', *, *, #555, .F. ) ;
#484 = VECTOR ( 'NONE', #509, 1000.000000000000000 ) ;
#485 = CYLINDRICAL_SURFACE ( 'NONE', #606, 7.500000000000000000 ) ;
#486 = ORIENTED_EDGE ( 'NONE', *, *, #614, .T. ) ;
#487 = CARTESIAN_POINT ( 'NONE',  ( 0.000000000000000000, 300.0000000000000000, 50.00000000000000000 ) ) ;
#488 = DIRECTION ( 'NONE',  ( -1.000000000000000000, 0.000000000000000000, 0.000000000000000000 ) ) ;
#489 = EDGE_CURVE ( 'NONE', #19, #586, #769, .T. ) ;
#490 = APPROVAL ( #541, '未指定' ) ;
#491 = DIRECTION ( 'NONE',  ( 0.000000000000000000, 1.000000000000000000, 0.000000000000000000 ) ) ;
#492 = CIRCLE ( 'NONE', #691, 5.000000000000003553 ) ;
#493 = CYLINDRICAL_SURFACE ( 'NONE', #738, 5.000000000000000000 ) ;
#494 = LINE ( 'NONE', #134, #507 ) ;
#495 = CARTESIAN_POINT ( 'NONE',  ( 0.000000000000000000, 300.0000000000000000, 0.000000000000000000 ) ) ;
#496 = ORIENTED_EDGE ( 'NONE', *, *, #99, .T. ) ;
#497 = CARTESIAN_POINT ( 'NONE',  ( 0.000000000000000000, 300.0000000000000000, 50.00000000000000000 ) ) ;
#498 = FACE_OUTER_BOUND ( 'NONE', #368, .T. ) ;
#499 = EDGE_CURVE ( 'NONE', #208, #770, #211, .T. ) ;
#500 = ORIENTED_EDGE ( 'NONE', *, *, #155, .F. ) ;
#501 = LINE ( 'NONE', #558, #792 ) ;
#502 = DIRECTION ( 'NONE',  ( 0.000000000000000000, 1.000000000000000000, 2.891205793294676847E-16 ) ) ;
#503 = CYLINDRICAL_SURFACE ( 'NONE', #190, 5.000000000000000000 ) ;
#504 = ORIENTED_EDGE ( 'NONE', *, *, #10, .F. ) ;
#505 = ORIENTED_EDGE ( 'NONE', *, *, #99, .F. ) ;
#506 = CARTESIAN_POINT ( 'NONE',  ( 7.500000000000000000, 0.000000000000000000, 37.49999999999996447 ) ) ;
#507 = VECTOR ( 'NONE', #372, 1000.000000000000000 ) ;
#508 = CARTESIAN_POINT ( 'NONE',  ( -5.000000000000000000, 6.123233995736766282E-16, 0.000000000000000000 ) ) ;
#509 = DIRECTION ( 'NONE',  ( -0.000000000000000000, -0.000000000000000000, 1.000000000000000000 ) ) ;
#510 = ORIENTED_EDGE ( 'NONE', *, *, #785, .F. ) ;
#511 = ORIENTED_EDGE ( 'NONE', *, *, #15, .T. ) ;
#512 = FACE_OUTER_BOUND ( 'NONE', #437, .T. ) ;
#513 = LINE ( 'NONE', #581, #289 ) ;
#514 = PLANE ( 'NONE',  #475 ) ;
#515 = EDGE_LOOP ( 'NONE', ( #659, #125, #754, #496 ) ) ;
#516 = LINE ( 'NONE', #93, #138 ) ;
#517 = VERTEX_POINT ( 'NONE', #724 ) ;
#518 = DIRECTION ( 'NONE',  ( 0.000000000000000000, -0.000000000000000000, 1.000000000000000000 ) ) ;
#519 = ORIENTED_EDGE ( 'NONE', *, *, #529, .F. ) ;
#520 = LINE ( 'NONE', #784, #318 ) ;
#521 = DIRECTION ( 'NONE',  ( 1.000000000000000000, 0.000000000000000000, 0.000000000000000000 ) ) ;
#522 = ORIENTED_EDGE ( 'NONE', *, *, #532, .F. ) ;
#523 = AXIS2_PLACEMENT_3D ( 'NONE', #273, #350, #42 ) ;
#524 = VERTEX_POINT ( 'NONE', #591 ) ;
#525 = EDGE_CURVE ( 'NONE', #770, #642, #43, .T. ) ;
#526 = DIRECTION ( 'NONE',  ( 1.000000000000000000, -0.000000000000000000, -0.000000000000000000 ) ) ;
#527 = AXIS2_PLACEMENT_3D ( 'NONE', #222, #181, #416 ) ;
#528 = CARTESIAN_POINT ( 'NONE',  ( 7.500000000000000000, 0.000000000000000000, 12.49999999999996270 ) ) ;
#529 = EDGE_CURVE ( 'NONE', #636, #696, #38, .T. ) ;
#530 = ORIENTED_EDGE ( 'NONE', *, *, #262, .T. ) ;
#531 = ORIENTED_EDGE ( 'NONE', *, *, #382, .T. ) ;
#532 = EDGE_CURVE ( 'NONE', #314, #152, #667, .T. ) ;
#533 = ORIENTED_EDGE ( 'NONE', *, *, #295, .T. ) ;
#534 = DESIGN_CONTEXT ( 'detailed design', #630, 'design' ) ;
#535 = PERSON_AND_ORGANIZATION ( #104, #345 ) ;
#536 = ORIENTED_EDGE ( 'NONE', *, *, #713, .T. ) ;
#537 = VERTEX_POINT ( 'NONE', #528 ) ;
#538 = VECTOR ( 'NONE', #311, 1000.000000000000000 ) ;
#539 = FACE_OUTER_BOUND ( 'NONE', #556, .T. ) ;
#540 = EDGE_LOOP ( 'NONE', ( #768, #677 ) ) ;
#541 = APPROVAL_STATUS ( 'not_yet_approved' ) ;
#542 = LINE ( 'NONE', #251, #354 ) ;
#543 = VECTOR ( 'NONE', #391, 1000.000000000000000 ) ;
#544 = CARTESIAN_POINT ( 'NONE',  ( 0.000000000000000000, 0.000000000000000000, 50.00000000000000000 ) ) ;
#545 = DIRECTION ( 'NONE',  ( 0.000000000000000000, 0.000000000000000000, 1.000000000000000000 ) ) ;
#546 = VERTEX_POINT ( 'NONE', #718 ) ;
#547 = FACE_OUTER_BOUND ( 'NONE', #620, .T. ) ;
#548 = DIRECTION ( 'NONE',  ( -0.000000000000000000, -0.000000000000000000, 1.000000000000000000 ) ) ;
#549 = DIRECTION ( 'NONE',  ( 1.000000000000000000, 0.000000000000000000, 0.000000000000000000 ) ) ;
#550 = EDGE_CURVE ( 'NONE', #537, #90, #334, .T. ) ;
#551 = CC_DESIGN_APPROVAL ( #261, ( #315 ) ) ;
#552 = ORIENTED_EDGE ( 'NONE', *, *, #550, .T. ) ;
#553 = FACE_OUTER_BOUND ( 'NONE', #255, .T. ) ;
#554 = DIRECTION ( 'NONE',  ( -0.000000000000000000, -0.000000000000000000, 1.000000000000000000 ) ) ;
#555 = EDGE_CURVE ( 'NONE', #772, #586, #520, .T. ) ;
#556 = EDGE_LOOP ( 'NONE', ( #402, #34, #571, #804 ) ) ;
#557 = ORIENTED_EDGE ( 'NONE', *, *, #447, .F. ) ;
#558 = CARTESIAN_POINT ( 'NONE',  ( 7.500000000000000000, 22.50000000000000000, 37.49999999999996447 ) ) ;
#559 = FACE_BOUND ( 'NONE', #60, .T. ) ;
#560 = CIRCLE ( 'NONE', #101, 7.500000000000000000 ) ;
#561 = AXIS2_PLACEMENT_3D ( 'NONE', #706, #199, #148 ) ;
#562 = PRODUCT_DEFINITION ( '未知', '', #315, #534 ) ;
#563 = DIRECTION ( 'NONE',  ( 1.000000000000000000, 0.000000000000000000, 0.000000000000000000 ) ) ;
#564 = ORIENTED_EDGE ( 'NONE', *, *, #785, .T. ) ;
#565 = CC_DESIGN_PERSON_AND_ORGANIZATION_ASSIGNMENT ( #220, #728, ( #374 ) ) ;
#566 = LINE ( 'NONE', #621, #323 ) ;
#567 = CARTESIAN_POINT ( 'NONE',  ( -5.000000000000003553, 300.0000000000000000, 0.000000000000000000 ) ) ;
#568 = LINE ( 'NONE', #17, #779 ) ;
#569 = DIRECTION ( 'NONE',  ( 0.000000000000000000, 1.000000000000000000, 0.000000000000000000 ) ) ;
#570 = ORIENTED_EDGE ( 'NONE', *, *, #775, .F. ) ;
#571 = ORIENTED_EDGE ( 'NONE', *, *, #353, .T. ) ;
#572 = CARTESIAN_POINT ( 'NONE',  ( -5.000000000000000000, 6.123233995736766282E-16, 37.49999999999996447 ) ) ;
#573 = DIRECTION ( 'NONE',  ( 1.000000000000000000, 0.000000000000000000, 0.000000000000000000 ) ) ;
#574 = VERTEX_POINT ( 'NONE', #575 ) ;
#575 = CARTESIAN_POINT ( 'NONE',  ( -5.000000000000003553, 300.0000000000000000, 50.00000000000000000 ) ) ;
#576 = EDGE_CURVE ( 'NONE', #294, #449, #177, .T. ) ;
#577 = ORIENTED_EDGE ( 'NONE', *, *, #529, .T. ) ;
#578 = CC_DESIGN_PERSON_AND_ORGANIZATION_ASSIGNMENT ( #114, #221, ( #562 ) ) ;
#579 = EDGE_CURVE ( 'NONE', #7, #716, #516, .T. ) ;
#580 = AXIS2_PLACEMENT_3D ( 'NONE', #495, #748, #676 ) ;
#581 = CARTESIAN_POINT ( 'NONE',  ( -7.500000000000000000, 0.000000000000000000, 50.00000000000000000 ) ) ;
#582 = CARTESIAN_POINT ( 'NONE',  ( 5.000000000000003553, 300.0000000000000000, 12.49999999999999822 ) ) ;
#583 = VERTEX_POINT ( 'NONE', #204 ) ;
#584 = DIRECTION ( 'NONE',  ( 0.000000000000000000, 0.000000000000000000, 1.000000000000000000 ) ) ;
#585 = CARTESIAN_POINT ( 'NONE',  ( -7.500000000000000000, 307.5000000000000000, 37.49999999999999289 ) ) ;
#586 = VERTEX_POINT ( 'NONE', #467 ) ;
#587 = CARTESIAN_POINT ( 'NONE',  ( 0.000000000000000000, 300.0000000000000000, 12.49999999999999645 ) ) ;
#588 = LOCAL_TIME ( 21, 47, 33.00000000000000000, #357 ) ;
#589 = ADVANCED_FACE ( 'NONE', ( #773 ), #344, .F. ) ;
#590 = ORIENTED_EDGE ( 'NONE', *, *, #393, .F. ) ;
#591 = CARTESIAN_POINT ( 'NONE',  ( 7.500000000000000000, 22.50000000000000000, 12.49999999999996625 ) ) ;
#592 = EDGE_CURVE ( 'NONE', #583, #716, #281, .T. ) ;
#593 = LINE ( 'NONE', #776, #408 ) ;
#594 = EDGE_CURVE ( 'NONE', #696, #772, #568, .T. ) ;
#595 = VERTEX_POINT ( 'NONE', #121 ) ;
#596 = CIRCLE ( 'NONE', #167, 5.000000000000000000 ) ;
#597 = CARTESIAN_POINT ( 'NONE',  ( 5.000000000000000000, 0.000000000000000000, 0.000000000000000000 ) ) ;
#598 = DATE_AND_TIME ( #426, #224 ) ;
#599 = AXIS2_PLACEMENT_3D ( 'NONE', #76, #72, #569 ) ;
#600 = CALENDAR_DATE ( 2026, 19, 6 ) ;
#601 = CALENDAR_DATE ( 2026, 19, 6 ) ;
#602 = DIRECTION ( 'NONE',  ( 0.000000000000000000, -0.000000000000000000, 1.000000000000000000 ) ) ;
#603 = COORDINATED_UNIVERSAL_TIME_OFFSET ( 8, 0, .AHEAD. ) ;
#604 = ADVANCED_FACE ( 'NONE', ( #367 ), #617, .F. ) ;
#605 = ORIENTED_EDGE ( 'NONE', *, *, #451, .T. ) ;
#606 = AXIS2_PLACEMENT_3D ( 'NONE', #673, #115, #488 ) ;
#607 = PERSON_AND_ORGANIZATION ( #104, #345 ) ;
#608 = PERSON_AND_ORGANIZATION_ROLE ( 'design_owner' ) ;
#609 = CARTESIAN_POINT ( 'NONE',  ( -7.500000000000000000, 0.000000000000000000, 0.000000000000000000 ) ) ;
#610 = ORIENTED_EDGE ( 'NONE', *, *, #592, .T. ) ;
#611 = EDGE_CURVE ( 'NONE', #13, #279, #442, .T. ) ;
#612 = VECTOR ( 'NONE', #9, 1000.000000000000000 ) ;
#613 = ORIENTED_EDGE ( 'NONE', *, *, #340, .F. ) ;
#614 = EDGE_CURVE ( 'NONE', #636, #595, #31, .T. ) ;
#615 = FACE_OUTER_BOUND ( 'NONE', #33, .T. ) ;
#616 = VERTEX_POINT ( 'NONE', #700 ) ;
#617 = CYLINDRICAL_SURFACE ( 'NONE', #736, 5.000000000000000000 ) ;
#618 = CARTESIAN_POINT ( 'NONE',  ( 7.500000000000000000, 0.000000000000000000, 50.00000000000000000 ) ) ;
#619 = CC_DESIGN_DATE_AND_TIME_ASSIGNMENT ( #225, #113, ( #562 ) ) ;
#620 = EDGE_LOOP ( 'NONE', ( #786, #236, #47, #702 ) ) ;
#621 = CARTESIAN_POINT ( 'NONE',  ( 7.500000000000000000, 0.000000000000000000, 0.000000000000000000 ) ) ;
#622 = CIRCLE ( 'NONE', #268, 5.000000000000000000 ) ;
#623 = LINE ( 'NONE', #1, #612 ) ;
#624 = DIRECTION ( 'NONE',  ( 1.000000000000000000, 0.000000000000000000, 0.000000000000000000 ) ) ;
#625 = ORIENTED_EDGE ( 'NONE', *, *, #359, .T. ) ;
#626 = EDGE_CURVE ( 'NONE', #655, #616, #407, .T. ) ;
#627 = PLANE ( 'NONE',  #758 ) ;
#628 = ADVANCED_FACE ( 'NONE', ( #91 ), #145, .F. ) ;
#629 = CARTESIAN_POINT ( 'NONE',  ( -7.500000000000000000, 22.50000000000000000, 37.49999999999996447 ) ) ;
#630 = APPLICATION_CONTEXT ( 'configuration controlled 3d designs of mechanical parts and assemblies' ) ;
#631 = VECTOR ( 'NONE', #554, 1000.000000000000000 ) ;
#632 = FACE_OUTER_BOUND ( 'NONE', #54, .T. ) ;
#633 = PLANE ( 'NONE',  #347 ) ;
#634 = LINE ( 'NONE', #321, #639 ) ;
#635 = ORIENTED_EDGE ( 'NONE', *, *, #422, .F. ) ;
#636 = VERTEX_POINT ( 'NONE', #452 ) ;
#637 = DIRECTION ( 'NONE',  ( -0.000000000000000000, -0.000000000000000000, 1.000000000000000000 ) ) ;
#638 = LINE ( 'NONE', #508, #331 ) ;
#639 = VECTOR ( 'NONE', #491, 1000.000000000000000 ) ;
#640 = DIRECTION ( 'NONE',  ( 1.000000000000000000, 0.000000000000000000, 0.000000000000000000 ) ) ;
#641 = ORIENTED_EDGE ( 'NONE', *, *, #27, .T. ) ;
#642 = VERTEX_POINT ( 'NONE', #266 ) ;
#643 = DIRECTION ( 'NONE',  ( 1.000000000000000000, -0.000000000000000000, -0.000000000000000000 ) ) ;
#644 = DIRECTION ( 'NONE',  ( 0.000000000000000000, -0.000000000000000000, 1.000000000000000000 ) ) ;
#645 = EDGE_CURVE ( 'NONE', #296, #67, #513, .T. ) ;
#646 = ORIENTED_EDGE ( 'NONE', *, *, #763, .T. ) ;
#647 = ORIENTED_EDGE ( 'NONE', *, *, #611, .F. ) ;
#648 = CALENDAR_DATE ( 2026, 19, 6 ) ;
#649 = VECTOR ( 'NONE', #413, 1000.000000000000000 ) ;
#650 = CARTESIAN_POINT ( 'NONE',  ( 0.000000000000000000, 0.000000000000000000, 37.49999999999996447 ) ) ;
#651 = CARTESIAN_POINT ( 'NONE',  ( 0.000000000000000000, 300.0000000000000000, 0.000000000000000000 ) ) ;
#652 = ORIENTED_EDGE ( 'NONE', *, *, #41, .T. ) ;
#653 = CARTESIAN_POINT ( 'NONE',  ( 0.000000000000000000, 300.0000000000000000, 12.49999999999999822 ) ) ;
#654 = DIRECTION ( 'NONE',  ( 1.000000000000000000, 0.000000000000000000, 0.000000000000000000 ) ) ;
#655 = VERTEX_POINT ( 'NONE', #202 ) ;
#656 = DIRECTION ( 'NONE',  ( 1.000000000000000000, 0.000000000000000000, 0.000000000000000000 ) ) ;
#657 =( NAMED_UNIT ( * ) PLANE_ANGLE_UNIT ( ) SI_UNIT ( $, .RADIAN. ) );
#658 = CARTESIAN_POINT ( 'NONE',  ( 7.500000000000000000, 300.0000000000000000, 50.00000000000000000 ) ) ;
#659 = ORIENTED_EDGE ( 'NONE', *, *, #525, .F. ) ;
#660 = DIRECTION ( 'NONE',  ( -0.000000000000000000, 1.000000000000000000, 2.891205793294676354E-16 ) ) ;
#661 = VECTOR ( 'NONE', #434, 1000.000000000000000 ) ;
#662 = DIRECTION ( 'NONE',  ( 0.000000000000000000, 1.000000000000000000, 2.312964634635740492E-16 ) ) ;
#663 = VECTOR ( 'NONE', #463, 1000.000000000000000 ) ;
#664 = DIRECTION ( 'NONE',  ( -0.000000000000000000, -0.000000000000000000, -1.000000000000000000 ) ) ;
#665 = CARTESIAN_POINT ( 'NONE',  ( 7.500000000000000000, 300.0000000000000000, 37.49999999999999289 ) ) ;
#666 = CALENDAR_DATE ( 2026, 19, 6 ) ;
#667 = CIRCLE ( 'NONE', #523, 5.000000000000003553 ) ;
#668 = APPROVAL_STATUS ( 'not_yet_approved' ) ;
#669 = CYLINDRICAL_SURFACE ( 'NONE', #692, 5.000000000000000000 ) ;
#670 = CIRCLE ( 'NONE', #322, 7.500000000000000000 ) ;
#671 = ADVANCED_FACE ( 'NONE', ( #390, #342 ), #270, .F. ) ;
#672 = CARTESIAN_POINT ( 'NONE',  ( 0.000000000000000000, 0.000000000000000000, 0.000000000000000000 ) ) ;
#673 = CARTESIAN_POINT ( 'NONE',  ( 0.000000000000000000, 300.0000000000000000, 50.00000000000000000 ) ) ;
#674 = DIRECTION ( 'NONE',  ( 0.000000000000000000, 1.000000000000000000, 0.000000000000000000 ) ) ;
#675 = CC_DESIGN_PERSON_AND_ORGANIZATION_ASSIGNMENT ( #535, #608, ( #217 ) ) ;
#676 = DIRECTION ( 'NONE',  ( 1.000000000000000000, 0.000000000000000000, 0.000000000000000000 ) ) ;
#677 = ORIENTED_EDGE ( 'NONE', *, *, #353, .F. ) ;
#678 = LINE ( 'NONE', #176, #649 ) ;
#679 = CARTESIAN_POINT ( 'NONE',  ( 0.000000000000000000, 300.0000000000000000, 0.000000000000000000 ) ) ;
#680 = VERTEX_POINT ( 'NONE', #89 ) ;
#681 = DIRECTION ( 'NONE',  ( 0.000000000000000000, 1.000000000000000000, 0.000000000000000000 ) ) ;
#682 = EDGE_CURVE ( 'NONE', #279, #13, #171, .T. ) ;
#683 = LINE ( 'NONE', #16, #538 ) ;
#684 = MANIFOLD_SOLID_BREP ( '切除-拉伸2', #401 ) ;
#685 = DIRECTION ( 'NONE',  ( 1.000000000000000000, 0.000000000000000000, 0.000000000000000000 ) ) ;
#686 = ORIENTED_EDGE ( 'NONE', *, *, #309, .F. ) ;
#687 = DIRECTION ( 'NONE',  ( 0.000000000000000000, 0.000000000000000000, 1.000000000000000000 ) ) ;
#688 = APPROVAL_ROLE ( '' ) ;
#689 = LINE ( 'NONE', #705, #661 ) ;
#690 = CARTESIAN_POINT ( 'NONE',  ( 0.000000000000000000, 0.000000000000000000, 50.00000000000000000 ) ) ;
#691 = AXIS2_PLACEMENT_3D ( 'NONE', #497, #687, #73 ) ;
#692 = AXIS2_PLACEMENT_3D ( 'NONE', #798, #737, #419 ) ;
#693 = CARTESIAN_POINT ( 'NONE',  ( 7.500000000000000000, 0.000000000000000000, 50.00000000000000000 ) ) ;
#694 = LINE ( 'NONE', #567, #631 ) ;
#695 = FACE_OUTER_BOUND ( 'NONE', #182, .T. ) ;
#696 = VERTEX_POINT ( 'NONE', #443 ) ;
#697 = ORIENTED_EDGE ( 'NONE', *, *, #489, .F. ) ;
#698 = CARTESIAN_POINT ( 'NONE',  ( 0.000000000000000000, 0.000000000000000000, 0.000000000000000000 ) ) ;
#699 = DIRECTION ( 'NONE',  ( 0.000000000000000000, 0.000000000000000000, 1.000000000000000000 ) ) ;
#700 = CARTESIAN_POINT ( 'NONE',  ( 5.000000000000000000, 0.000000000000000000, 0.000000000000000000 ) ) ;
#701 = PLANE ( 'NONE',  #351 ) ;
#702 = ORIENTED_EDGE ( 'NONE', *, *, #725, .T. ) ;
#703 = ORIENTED_EDGE ( 'NONE', *, *, #478, .F. ) ;
#704 = PERSON_AND_ORGANIZATION_ROLE ( 'creator' ) ;
#705 = CARTESIAN_POINT ( 'NONE',  ( 5.000000000000003553, 300.0000000000000000, 0.000000000000000000 ) ) ;
#706 = CARTESIAN_POINT ( 'NONE',  ( -7.500000000000000000, -7.500000000000000000, 12.49999999999996270 ) ) ;
#707 = LINE ( 'NONE', #453, #543 ) ;
#708 = EDGE_LOOP ( 'NONE', ( #223, #483, #205, #366 ) ) ;
#709 = DIRECTION ( 'NONE',  ( -0.000000000000000000, -0.000000000000000000, -1.000000000000000000 ) ) ;
#710 = VECTOR ( 'NONE', #193, 1000.000000000000000 ) ;
#711 = ORIENTED_EDGE ( 'NONE', *, *, #309, .T. ) ;
#712 = CIRCLE ( 'NONE', #729, 5.000000000000003553 ) ;
#713 = EDGE_CURVE ( 'NONE', #90, #363, #566, .T. ) ;
#714 = DIRECTION ( 'NONE',  ( -0.000000000000000000, -1.000000000000000000, -0.000000000000000000 ) ) ;
#715 = CARTESIAN_POINT ( 'NONE',  ( 0.000000000000000000, 300.0000000000000000, 12.49999999999999822 ) ) ;
#716 = VERTEX_POINT ( 'NONE', #506 ) ;
#717 = ADVANCED_FACE ( 'NONE', ( #553 ), #493, .F. ) ;
#718 = CARTESIAN_POINT ( 'NONE',  ( 5.000000000000003553, 300.0000000000000000, 50.00000000000000000 ) ) ;
#719 = DIRECTION ( 'NONE',  ( 0.000000000000000000, 1.000000000000000000, 3.469446951953611231E-16 ) ) ;
#720 = EDGE_LOOP ( 'NONE', ( #304, #229 ) ) ;
#721 = FACE_OUTER_BOUND ( 'NONE', #142, .T. ) ;
#722 = EDGE_LOOP ( 'NONE', ( #530, #214, #78, #570 ) ) ;
#723 = FACE_OUTER_BOUND ( 'NONE', #708, .T. ) ;
#724 = CARTESIAN_POINT ( 'NONE',  ( -5.000000000000000000, 6.123233995736766282E-16, 50.00000000000000000 ) ) ;
#725 = EDGE_CURVE ( 'NONE', #67, #90, #399, .T. ) ;
#726 = ORIENTED_EDGE ( 'NONE', *, *, #262, .F. ) ;
#727 = ORIENTED_EDGE ( 'NONE', *, *, #626, .F. ) ;
#728 = PERSON_AND_ORGANIZATION_ROLE ( 'classification_officer' ) ;
#729 = AXIS2_PLACEMENT_3D ( 'NONE', #6, #69, #640 ) ;
#730 = CARTESIAN_POINT ( 'NONE',  ( 0.000000000000000000, 0.000000000000000000, 12.49999999999996270 ) ) ;
#731 = ADVANCED_FACE ( 'NONE', ( #237 ), #805, .F. ) ;
#732 = APPLICATION_PROTOCOL_DEFINITION ( 'international standard', 'config_control_design', 1994, #307 ) ;
#733 = ADVANCED_FACE ( 'NONE', ( #547 ), #761, .T. ) ;
#734 = DIRECTION ( 'NONE',  ( -0.000000000000000000, -0.000000000000000000, -1.000000000000000000 ) ) ;
#735 = ORIENTED_EDGE ( 'NONE', *, *, #395, .F. ) ;
#736 = AXIS2_PLACEMENT_3D ( 'NONE', #63, #460, #206 ) ;
#737 = DIRECTION ( 'NONE',  ( -0.000000000000000000, -0.000000000000000000, 1.000000000000000000 ) ) ;
#738 = AXIS2_PLACEMENT_3D ( 'NONE', #698, #637, #129 ) ;
#739 = VERTEX_POINT ( 'NONE', #139 ) ;
#740 = CARTESIAN_POINT ( 'NONE',  ( 0.000000000000000000, 0.000000000000000000, 50.00000000000000000 ) ) ;
#741 = DIRECTION ( 'NONE',  ( -0.000000000000000000, 1.000000000000000000, 1.156482317317871478E-16 ) ) ;
#742 = APPROVAL_PERSON_ORGANIZATION ( #607, #261, #688 ) ;
#743 = CIRCLE ( 'NONE', #297, 7.500000000000000000 ) ;
#744 = FACE_OUTER_BOUND ( 'NONE', #77, .T. ) ;
#745 = ADVANCED_FACE ( 'NONE', ( #4, #433, #632 ), #380, .T. ) ;
#746 = DIRECTION ( 'NONE',  ( 0.000000000000000000, 1.000000000000000000, 0.000000000000000000 ) ) ;
#747 = FACE_OUTER_BOUND ( 'NONE', #263, .T. ) ;
#748 = DIRECTION ( 'NONE',  ( -0.000000000000000000, -0.000000000000000000, 1.000000000000000000 ) ) ;
#749 = DIRECTION ( 'NONE',  ( -0.000000000000000000, -1.000000000000000000, -0.000000000000000000 ) ) ;
#750 = CC_DESIGN_DATE_AND_TIME_ASSIGNMENT ( #300, #800, ( #374 ) ) ;
#751 = DIRECTION ( 'NONE',  ( 1.000000000000000000, 0.000000000000000000, -0.000000000000000000 ) ) ;
#752 = CARTESIAN_POINT ( 'NONE',  ( -7.500000000000000000, 0.000000000000000000, 0.000000000000000000 ) ) ;
#753 = VECTOR ( 'NONE', #476, 1000.000000000000000 ) ;
#754 = ORIENTED_EDGE ( 'NONE', *, *, #447, .T. ) ;
#755 = DIRECTION ( 'NONE',  ( 0.000000000000000000, 0.000000000000000000, -1.000000000000000000 ) ) ;
#756 = CYLINDRICAL_SURFACE ( 'NONE', #257, 5.000000000000003553 ) ;
#757 = CARTESIAN_POINT ( 'NONE',  ( 0.000000000000000000, 0.000000000000000000, 0.000000000000000000 ) ) ;
#758 = AXIS2_PLACEMENT_3D ( 'NONE', #320, #247, #71 ) ;
#759 = ORIENTED_EDGE ( 'NONE', *, *, #189, .T. ) ;
#760 = EDGE_CURVE ( 'NONE', #574, #546, #492, .T. ) ;
#761 = CYLINDRICAL_SURFACE ( 'NONE', #106, 7.500000000000000000 ) ;
#762 = DIRECTION ( 'NONE',  ( -1.000000000000000000, 0.000000000000000000, 0.000000000000000000 ) ) ;
#763 = EDGE_CURVE ( 'NONE', #524, #7, #501, .T. ) ;
#764 = DIRECTION ( 'NONE',  ( 1.000000000000000000, 0.000000000000000000, 0.000000000000000000 ) ) ;
#765 = ORIENTED_EDGE ( 'NONE', *, *, #579, .T. ) ;
#766 = CARTESIAN_POINT ( 'NONE',  ( 0.000000000000000000, 0.000000000000000000, 0.000000000000000000 ) ) ;
#767 = DIRECTION ( 'NONE',  ( -0.000000000000000000, -0.000000000000000000, -1.000000000000000000 ) ) ;
#768 = ORIENTED_EDGE ( 'NONE', *, *, #451, .F. ) ;
#769 = LINE ( 'NONE', #166, #448 ) ;
#770 = VERTEX_POINT ( 'NONE', #8 ) ;
#771 = DIRECTION ( 'NONE',  ( 1.000000000000000000, 0.000000000000000000, 0.000000000000000000 ) ) ;
#772 = VERTEX_POINT ( 'NONE', #440 ) ;
#773 = FACE_OUTER_BOUND ( 'NONE', #272, .T. ) ;
#774 = CC_DESIGN_APPROVAL ( #490, ( #374 ) ) ;
#775 = EDGE_CURVE ( 'NONE', #537, #296, #239, .T. ) ;
#776 = CARTESIAN_POINT ( 'NONE',  ( -7.500000000000000000, 277.4999999999999432, 12.49999999999999289 ) ) ;
#777 = EDGE_LOOP ( 'NONE', ( #500, #522, #335, #301 ) ) ;
#778 = DATE_AND_TIME ( #648, #411 ) ;
#779 = VECTOR ( 'NONE', #258, 1000.000000000000000 ) ;
#780 = AXIS2_PLACEMENT_3D ( 'NONE', #141, #186, #126 ) ;
#781 = DIRECTION ( 'NONE',  ( 0.000000000000000000, 0.000000000000000000, 1.000000000000000000 ) ) ;
#782 = ORIENTED_EDGE ( 'NONE', *, *, #611, .T. ) ;
#783 = ORIENTED_EDGE ( 'NONE', *, *, #41, .F. ) ;
#784 = CARTESIAN_POINT ( 'NONE',  ( -7.500000000000000000, 277.4999999999999432, 37.49999999999999289 ) ) ;
#785 = EDGE_CURVE ( 'NONE', #772, #208, #542, .T. ) ;
#786 = ORIENTED_EDGE ( 'NONE', *, *, #550, .F. ) ;
#787 = FACE_OUTER_BOUND ( 'NONE', #20, .T. ) ;
#788 = CIRCLE ( 'NONE', #282, 5.000000000000003553 ) ;
#789 = PRODUCT_DEFINITION_SHAPE ( 'NONE', 'NONE',  #562 ) ;
#790 = FACE_BOUND ( 'NONE', #24, .T. ) ;
#791 = EDGE_CURVE ( 'NONE', #586, #343, #424, .T. ) ;
#792 = VECTOR ( 'NONE', #197, 1000.000000000000000 ) ;
#793 = DATE_AND_TIME ( #601, #588 ) ;
#794 = DIRECTION ( 'NONE',  ( 1.000000000000000000, 0.000000000000000000, 0.000000000000000000 ) ) ;
#795 = AXIS2_PLACEMENT_3D ( 'NONE', #14, #310, #325 ) ;
#796 = ORIENTED_EDGE ( 'NONE', *, *, #163, .F. ) ;
#797 = APPLICATION_PROTOCOL_DEFINITION ( 'international standard', 'config_control_design', 1994, #630 ) ;
#798 = CARTESIAN_POINT ( 'NONE',  ( 0.000000000000000000, 0.000000000000000000, 0.000000000000000000 ) ) ;
#799 = VERTEX_POINT ( 'NONE', #693 ) ;
#800 = DATE_TIME_ROLE ( 'classification_date' ) ;
#801 = CARTESIAN_POINT ( 'NONE',  ( 7.500000000000000000, 277.4999999999999432, 37.49999999999999289 ) ) ;
#802 = LINE ( 'NONE', #173, #328 ) ;
#803 = FACE_BOUND ( 'NONE', #720, .T. ) ;
#804 = ORIENTED_EDGE ( 'NONE', *, *, #27, .F. ) ;
#805 = PLANE ( 'NONE',  #795 ) ;
ENDSEC;
END-ISO-10303-21;
