ISO-10303-21;
HEADER;
FILE_DESCRIPTION (( 'STEP AP203' ),
    '1' );
FILE_NAME ('link2_upper_arm_默认_sldprt.STEP',
    '2026-06-19T13:47:31',
    ( '' ),
    ( '' ),
    'SwSTEP 2.0',
    'SolidWorks 2022',
    '' );
FILE_SCHEMA (( 'CONFIG_CONTROL_DESIGN' ));
ENDSEC;

DATA;
#1 = CARTESIAN_POINT ( 'NONE',  ( -7.500000000000000000, 0.000000000000000000, 50.00000000000000000 ) ) ;
#2 = ORIENTED_EDGE ( 'NONE', *, *, #364, .F. ) ;
#3 = CARTESIAN_POINT ( 'NONE',  ( -7.500000000000000000, 57.50000000000000000, 37.50000000000000711 ) ) ;
#4 = DIRECTION ( 'NONE',  ( 1.000000000000000000, 0.000000000000000000, 0.000000000000000000 ) ) ;
#5 = ORIENTED_EDGE ( 'NONE', *, *, #264, .T. ) ;
#6 = APPROVAL_ROLE ( '' ) ;
#7 = DIRECTION ( 'NONE',  ( 1.000000000000000000, -0.000000000000000000, -0.000000000000000000 ) ) ;
#8 = VECTOR ( 'NONE', #383, 1000.000000000000000 ) ;
#9 = DIRECTION ( 'NONE',  ( 0.000000000000000000, 0.000000000000000000, -1.000000000000000000 ) ) ;
#10 = AXIS2_PLACEMENT_3D ( 'NONE', #560, #752, #315 ) ;
#11 = VERTEX_POINT ( 'NONE', #367 ) ;
#12 = PRODUCT_DEFINITION ( '未知', '', #588, #562 ) ;
#13 = CARTESIAN_POINT ( 'NONE',  ( 7.500000000000000000, 0.000000000000000000, 0.000000000000000000 ) ) ;
#14 = CARTESIAN_POINT ( 'NONE',  ( 0.000000000000000000, 0.000000000000000000, 12.50000000000000355 ) ) ;
#15 = ORIENTED_EDGE ( 'NONE', *, *, #126, .F. ) ;
#16 = DIRECTION ( 'NONE',  ( -0.000000000000000000, -1.000000000000000000, -0.000000000000000000 ) ) ;
#17 = DIRECTION ( 'NONE',  ( 0.000000000000000000, 0.000000000000000000, 1.000000000000000000 ) ) ;
#18 = ORIENTED_EDGE ( 'NONE', *, *, #594, .F. ) ;
#19 = CARTESIAN_POINT ( 'NONE',  ( 0.000000000000000000, 250.0000000000000000, 0.000000000000000000 ) ) ;
#20 = ADVANCED_FACE ( 'NONE', ( #671 ), #360, .F. ) ;
#21 = DIRECTION ( 'NONE',  ( 0.000000000000000000, -1.000000000000000000, 0.000000000000000000 ) ) ;
#22 = VECTOR ( 'NONE', #7, 1000.000000000000000 ) ;
#23 = CIRCLE ( 'NONE', #431, 5.000000000000001776 ) ;
#24 = EDGE_CURVE ( 'NONE', #743, #324, #798, .T. ) ;
#25 = ORIENTED_EDGE ( 'NONE', *, *, #199, .F. ) ;
#26 = LINE ( 'NONE', #772, #706 ) ;
#27 = DIRECTION ( 'NONE',  ( 1.000000000000000000, 0.000000000000000000, 0.000000000000000000 ) ) ;
#28 = EDGE_LOOP ( 'NONE', ( #411, #157 ) ) ;
#29 = DIRECTION ( 'NONE',  ( -0.000000000000000000, -0.000000000000000000, -1.000000000000000000 ) ) ;
#30 = CARTESIAN_POINT ( 'NONE',  ( 7.500000000000000000, 207.5000000000000284, 37.50000000000000711 ) ) ;
#31 = ORIENTED_EDGE ( 'NONE', *, *, #309, .T. ) ;
#32 = EDGE_CURVE ( 'NONE', #793, #54, #430, .T. ) ;
#33 = DIRECTION ( 'NONE',  ( -0.000000000000000000, 1.000000000000000000, 1.387778780781445922E-16 ) ) ;
#34 = VERTEX_POINT ( 'NONE', #40 ) ;
#35 = AXIS2_PLACEMENT_3D ( 'NONE', #677, #97, #109 ) ;
#36 = EDGE_CURVE ( 'NONE', #531, #187, #287, .T. ) ;
#37 = PERSON_AND_ORGANIZATION ( #303, #777 ) ;
#38 = CIRCLE ( 'NONE', #458, 5.000000000000001776 ) ;
#39 = DIRECTION ( 'NONE',  ( 0.000000000000000000, 1.387778780781445922E-16, -1.000000000000000000 ) ) ;
#40 = CARTESIAN_POINT ( 'NONE',  ( -5.000000000000000000, 6.123233995736766282E-16, 50.00000000000000000 ) ) ;
#41 = COORDINATED_UNIVERSAL_TIME_OFFSET ( 8, 0, .AHEAD. ) ;
#42 = CARTESIAN_POINT ( 'NONE',  ( -7.500000000000000000, 57.50000000000000000, 12.50000000000000355 ) ) ;
#43 = EDGE_LOOP ( 'NONE', ( #263, #15, #786, #275 ) ) ;
#44 = COORDINATED_UNIVERSAL_TIME_OFFSET ( 8, 0, .AHEAD. ) ;
#45 = DIRECTION ( 'NONE',  ( 1.000000000000000000, 0.000000000000000000, 0.000000000000000000 ) ) ;
#46 = EDGE_CURVE ( 'NONE', #47, #131, #590, .T. ) ;
#47 = VERTEX_POINT ( 'NONE', #370 ) ;
#48 = VECTOR ( 'NONE', #592, 1000.000000000000000 ) ;
#49 = VECTOR ( 'NONE', #516, 1000.000000000000000 ) ;
#50 = CARTESIAN_POINT ( 'NONE',  ( -7.500000000000000000, 207.5000000000000284, 37.50000000000000711 ) ) ;
#51 = VECTOR ( 'NONE', #265, 1000.000000000000000 ) ;
#52 = ORIENTED_EDGE ( 'NONE', *, *, #24, .F. ) ;
#53 = DIRECTION ( 'NONE',  ( 1.000000000000000000, 0.000000000000000000, 0.000000000000000000 ) ) ;
#54 = VERTEX_POINT ( 'NONE', #803 ) ;
#55 = VECTOR ( 'NONE', #577, 1000.000000000000000 ) ;
#56 = PLANE ( 'NONE',  #92 ) ;
#57 = DIRECTION ( 'NONE',  ( -0.000000000000000000, -0.000000000000000000, -1.000000000000000000 ) ) ;
#58 = VERTEX_POINT ( 'NONE', #254 ) ;
#59 = LOCAL_TIME ( 21, 47, 31.00000000000000000, #161 ) ;
#60 = CC_DESIGN_PERSON_AND_ORGANIZATION_ASSIGNMENT ( #347, #599, ( #210 ) ) ;
#61 = AXIS2_PLACEMENT_3D ( 'NONE', #14, #9, #626 ) ;
#62 = PLANE ( 'NONE',  #572 ) ;
#63 = LINE ( 'NONE', #747, #8 ) ;
#64 = ORIENTED_EDGE ( 'NONE', *, *, #783, .T. ) ;
#65 = DIRECTION ( 'NONE',  ( -1.000000000000000000, 0.000000000000000000, 0.000000000000000000 ) ) ;
#66 = PLANE ( 'NONE',  #203 ) ;
#67 = EDGE_CURVE ( 'NONE', #612, #579, #578, .T. ) ;
#68 = ORIENTED_EDGE ( 'NONE', *, *, #532, .T. ) ;
#69 = CARTESIAN_POINT ( 'NONE',  ( -5.000000000000000000, 6.123233995736766282E-16, 0.000000000000000000 ) ) ;
#70 = DIRECTION ( 'NONE',  ( 0.000000000000000000, 0.000000000000000000, 1.000000000000000000 ) ) ;
#71 = EDGE_CURVE ( 'NONE', #259, #153, #296, .T. ) ;
#72 = VERTEX_POINT ( 'NONE', #130 ) ;
#73 = DIRECTION ( 'NONE',  ( 0.000000000000000000, -0.000000000000000000, 1.000000000000000000 ) ) ;
#74 = CARTESIAN_POINT ( 'NONE',  ( 7.500000000000000000, 250.0000000000000000, 50.00000000000000000 ) ) ;
#75 = ORIENTED_EDGE ( 'NONE', *, *, #199, .T. ) ;
#76 = CARTESIAN_POINT ( 'NONE',  ( 0.000000000000000000, 0.000000000000000000, 0.000000000000000000 ) ) ;
#77 = CARTESIAN_POINT ( 'NONE',  ( 0.000000000000000000, 0.000000000000000000, 50.00000000000000000 ) ) ;
#78 = ORIENTED_EDGE ( 'NONE', *, *, #222, .T. ) ;
#79 = APPROVAL ( #169, '未指定' ) ;
#80 = LINE ( 'NONE', #580, #51 ) ;
#81 = EDGE_CURVE ( 'NONE', #47, #54, #510, .T. ) ;
#82 = CARTESIAN_POINT ( 'NONE',  ( -5.000000000000001776, 250.0000000000000000, 50.00000000000000000 ) ) ;
#83 = ORIENTED_EDGE ( 'NONE', *, *, #312, .T. ) ;
#84 = CARTESIAN_POINT ( 'NONE',  ( 0.000000000000000000, 250.0000000000000000, 0.000000000000000000 ) ) ;
#85 = DIRECTION ( 'NONE',  ( -0.000000000000000000, -1.000000000000000000, -0.000000000000000000 ) ) ;
#86 = VECTOR ( 'NONE', #459, 1000.000000000000000 ) ;
#87 = EDGE_LOOP ( 'NONE', ( #563, #778 ) ) ;
#88 = DIRECTION ( 'NONE',  ( -0.000000000000000000, 1.000000000000000000, 1.387778780781445922E-16 ) ) ;
#89 = CARTESIAN_POINT ( 'NONE',  ( 0.000000000000000000, 0.000000000000000000, 50.00000000000000000 ) ) ;
#90 = EDGE_LOOP ( 'NONE', ( #597, #540, #389, #785 ) ) ;
#91 = DATE_TIME_ROLE ( 'creation_date' ) ;
#92 = AXIS2_PLACEMENT_3D ( 'NONE', #3, #253, #559 ) ;
#93 = CARTESIAN_POINT ( 'NONE',  ( 7.500000000000000000, 250.0000000000000000, 0.000000000000000000 ) ) ;
#94 = VERTEX_POINT ( 'NONE', #318 ) ;
#95 = CC_DESIGN_PERSON_AND_ORGANIZATION_ASSIGNMENT ( #279, #796, ( #588 ) ) ;
#96 = DIRECTION ( 'NONE',  ( 1.000000000000000000, 0.000000000000000000, 0.000000000000000000 ) ) ;
#97 = DIRECTION ( 'NONE',  ( 0.000000000000000000, 0.000000000000000000, 1.000000000000000000 ) ) ;
#98 = CARTESIAN_POINT ( 'NONE',  ( 0.000000000000000000, 250.0000000000000000, 0.000000000000000000 ) ) ;
#99 = AXIS2_PLACEMENT_3D ( 'NONE', #545, #39, #719 ) ;
#100 = VECTOR ( 'NONE', #273, 1000.000000000000000 ) ;
#101 = CALENDAR_DATE ( 2026, 19, 6 ) ;
#102 = EDGE_CURVE ( 'NONE', #346, #72, #258, .T. ) ;
#103 = CARTESIAN_POINT ( 'NONE',  ( 0.000000000000000000, 250.0000000000000000, 0.000000000000000000 ) ) ;
#104 = ORIENTED_EDGE ( 'NONE', *, *, #368, .T. ) ;
#105 = EDGE_CURVE ( 'NONE', #135, #94, #681, .T. ) ;
#106 = DIRECTION ( 'NONE',  ( -0.000000000000000000, -0.000000000000000000, 1.000000000000000000 ) ) ;
#107 = ORIENTED_EDGE ( 'NONE', *, *, #794, .F. ) ;
#108 = APPROVAL_STATUS ( 'not_yet_approved' ) ;
#109 = DIRECTION ( 'NONE',  ( 1.000000000000000000, 0.000000000000000000, 0.000000000000000000 ) ) ;
#110 = VERTEX_POINT ( 'NONE', #245 ) ;
#111 = CIRCLE ( 'NONE', #550, 5.000000000000001776 ) ;
#112 = CC_DESIGN_APPROVAL ( #79, ( #202 ) ) ;
#113 = CIRCLE ( 'NONE', #432, 5.000000000000001776 ) ;
#114 = DIRECTION ( 'NONE',  ( 0.000000000000000000, 0.000000000000000000, 1.000000000000000000 ) ) ;
#115 = ORIENTED_EDGE ( 'NONE', *, *, #443, .F. ) ;
#116 = EDGE_CURVE ( 'NONE', #380, #11, #363, .T. ) ;
#117 = CARTESIAN_POINT ( 'NONE',  ( 0.000000000000000000, 250.0000000000000000, 50.00000000000000000 ) ) ;
#118 = CARTESIAN_POINT ( 'NONE',  ( 7.500000000000000000, 207.5000000000000284, 12.50000000000000355 ) ) ;
#119 = EDGE_CURVE ( 'NONE', #319, #793, #311, .T. ) ;
#120 = FACE_OUTER_BOUND ( 'NONE', #228, .T. ) ;
#121 = CARTESIAN_POINT ( 'NONE',  ( 7.500000000000000000, -7.500000000000000000, 37.50000000000000711 ) ) ;
#122 = ORIENTED_EDGE ( 'NONE', *, *, #664, .T. ) ;
#123 = CIRCLE ( 'NONE', #189, 7.500000000000000000 ) ;
#124 = VECTOR ( 'NONE', #683, 1000.000000000000000 ) ;
#125 = DIRECTION ( 'NONE',  ( 0.000000000000000000, 0.000000000000000000, -1.000000000000000000 ) ) ;
#126 = EDGE_CURVE ( 'NONE', #135, #487, #113, .T. ) ;
#127 = DIRECTION ( 'NONE',  ( 0.000000000000000000, 0.000000000000000000, 1.000000000000000000 ) ) ;
#128 = VERTEX_POINT ( 'NONE', #74 ) ;
#129 = CARTESIAN_POINT ( 'NONE',  ( 0.000000000000000000, 0.000000000000000000, 12.50000000000000355 ) ) ;
#130 = CARTESIAN_POINT ( 'NONE',  ( 7.500000000000000000, 0.000000000000000000, 37.50000000000000711 ) ) ;
#131 = VERTEX_POINT ( 'NONE', #630 ) ;
#132 = AXIS2_PLACEMENT_3D ( 'NONE', #409, #73, #405 ) ;
#133 = DIRECTION ( 'NONE',  ( 1.000000000000000000, 0.000000000000000000, 0.000000000000000000 ) ) ;
#134 = FACE_OUTER_BOUND ( 'NONE', #703, .T. ) ;
#135 = VERTEX_POINT ( 'NONE', #182 ) ;
#136 = DIRECTION ( 'NONE',  ( -1.000000000000000000, 0.000000000000000000, 0.000000000000000000 ) ) ;
#137 = CIRCLE ( 'NONE', #99, 5.000000000000004441 ) ;
#138 = DIRECTION ( 'NONE',  ( 1.000000000000000000, 0.000000000000000000, 0.000000000000000000 ) ) ;
#139 = ORIENTED_EDGE ( 'NONE', *, *, #105, .F. ) ;
#140 = EDGE_CURVE ( 'NONE', #218, #11, #374, .T. ) ;
#141 = CARTESIAN_POINT ( 'NONE',  ( -7.500000000000000000, 207.5000000000000284, 37.50000000000000711 ) ) ;
#142 = DIRECTION ( 'NONE',  ( 0.000000000000000000, 0.000000000000000000, 1.000000000000000000 ) ) ;
#143 = ORIENTED_EDGE ( 'NONE', *, *, #771, .T. ) ;
#144 = EDGE_CURVE ( 'NONE', #645, #765, #511, .T. ) ;
#145 = AXIS2_PLACEMENT_3D ( 'NONE', #19, #340, #201 ) ;
#146 = DIRECTION ( 'NONE',  ( -0.000000000000000000, -0.000000000000000000, -1.000000000000000000 ) ) ;
#147 = CARTESIAN_POINT ( 'NONE',  ( 0.000000000000000000, 250.0000000000000000, 0.000000000000000000 ) ) ;
#148 = ORIENTED_EDGE ( 'NONE', *, *, #140, .T. ) ;
#149 = CARTESIAN_POINT ( 'NONE',  ( -7.500000000000000000, 250.0000000000000000, 50.00000000000000000 ) ) ;
#150 = DIRECTION ( 'NONE',  ( 1.000000000000000000, 0.000000000000000000, 0.000000000000000000 ) ) ;
#151 = VECTOR ( 'NONE', #285, 1000.000000000000000 ) ;
#152 = EDGE_CURVE ( 'NONE', #128, #58, #63, .T. ) ;
#153 = VERTEX_POINT ( 'NONE', #444 ) ;
#154 = LINE ( 'NONE', #643, #398 ) ;
#155 = ADVANCED_FACE ( 'NONE', ( #186, #634, #134 ), #66, .F. ) ;
#156 = FACE_BOUND ( 'NONE', #278, .T. ) ;
#157 = ORIENTED_EDGE ( 'NONE', *, *, #443, .T. ) ;
#158 = AXIS2_PLACEMENT_3D ( 'NONE', #260, #518, #646 ) ;
#159 = PLANE ( 'NONE',  #714 ) ;
#160 = ORIENTED_EDGE ( 'NONE', *, *, #235, .T. ) ;
#161 = COORDINATED_UNIVERSAL_TIME_OFFSET ( 8, 0, .AHEAD. ) ;
#162 = CARTESIAN_POINT ( 'NONE',  ( 7.500000000000000000, 250.0000000000000000, 12.50000000000000888 ) ) ;
#163 = EDGE_LOOP ( 'NONE', ( #673, #542 ) ) ;
#164 = VECTOR ( 'NONE', #429, 1000.000000000000000 ) ;
#165 = APPROVAL_STATUS ( 'not_yet_approved' ) ;
#166 = CARTESIAN_POINT ( 'NONE',  ( -7.500000000000000000, 257.5000000000000000, 37.50000000000000711 ) ) ;
#167 = ORIENTED_EDGE ( 'NONE', *, *, #514, .T. ) ;
#168 = ORIENTED_EDGE ( 'NONE', *, *, #721, .F. ) ;
#169 = APPROVAL_STATUS ( 'not_yet_approved' ) ;
#170 = CIRCLE ( 'NONE', #132, 5.000000000000000000 ) ;
#171 = CARTESIAN_POINT ( 'NONE',  ( -7.500000000000000000, 249.9999999999999716, 12.50000000000000888 ) ) ;
#172 = EDGE_LOOP ( 'NONE', ( #789, #247, #635, #31 ) ) ;
#173 = ORIENTED_EDGE ( 'NONE', *, *, #46, .T. ) ;
#174 = CARTESIAN_POINT ( 'NONE',  ( 7.500000000000000000, 0.000000000000000000, 50.00000000000000000 ) ) ;
#175 = CARTESIAN_POINT ( 'NONE',  ( 7.500000000000000000, 0.000000000000000000, 0.000000000000000000 ) ) ;
#176 = AXIS2_PLACEMENT_3D ( 'NONE', #611, #114, #797 ) ;
#177 = CARTESIAN_POINT ( 'NONE',  ( -7.500000000000000000, 257.5000000000000000, 12.50000000000001066 ) ) ;
#178 = APPROVAL ( #165, '未指定' ) ;
#179 = CARTESIAN_POINT ( 'NONE',  ( -7.500000000000000000, 0.000000000000000000, 12.50000000000000355 ) ) ;
#180 = ORIENTED_EDGE ( 'NONE', *, *, #24, .T. ) ;
#181 = FACE_OUTER_BOUND ( 'NONE', #255, .T. ) ;
#182 = CARTESIAN_POINT ( 'NONE',  ( 5.000000000000001776, 250.0000000000000000, 37.50000000000000711 ) ) ;
#183 = VERTEX_POINT ( 'NONE', #179 ) ;
#184 = CALENDAR_DATE ( 2026, 19, 6 ) ;
#185 = FACE_OUTER_BOUND ( 'NONE', #196, .T. ) ;
#186 = FACE_BOUND ( 'NONE', #193, .T. ) ;
#187 = VERTEX_POINT ( 'NONE', #118 ) ;
#188 = ADVANCED_FACE ( 'NONE', ( #387, #323 ), #691, .F. ) ;
#189 = AXIS2_PLACEMENT_3D ( 'NONE', #129, #305, #694 ) ;
#190 = VECTOR ( 'NONE', #57, 1000.000000000000000 ) ;
#191 = CARTESIAN_POINT ( 'NONE',  ( 0.000000000000000000, 250.0000000000000000, 0.000000000000000000 ) ) ;
#192 = DIRECTION ( 'NONE',  ( -0.000000000000000000, -1.000000000000000000, -0.000000000000000000 ) ) ;
#193 = EDGE_LOOP ( 'NONE', ( #64, #657 ) ) ;
#194 = FACE_OUTER_BOUND ( 'NONE', #467, .T. ) ;
#195 = CARTESIAN_POINT ( 'NONE',  ( 0.000000000000000000, 0.000000000000000000, 50.00000000000000000 ) ) ;
#196 = EDGE_LOOP ( 'NONE', ( #547, #160, #422, #225, #122, #449, #601, #593, #343, #583, #753, #25 ) ) ;
#197 = CYLINDRICAL_SURFACE ( 'NONE', #730, 5.000000000000001776 ) ;
#198 = DIRECTION ( 'NONE',  ( -0.000000000000000000, 1.000000000000000000, 0.000000000000000000 ) ) ;
#199 = EDGE_CURVE ( 'NONE', #612, #47, #434, .T. ) ;
#200 = ORIENTED_EDGE ( 'NONE', *, *, #290, .F. ) ;
#201 = DIRECTION ( 'NONE',  ( 1.000000000000000000, 0.000000000000000000, 0.000000000000000000 ) ) ;
#202 = SECURITY_CLASSIFICATION ( '', '', #731 ) ;
#203 = AXIS2_PLACEMENT_3D ( 'NONE', #623, #70, #568 ) ;
#204 = CARTESIAN_POINT ( 'NONE',  ( 0.000000000000000000, 0.000000000000000000, 0.000000000000000000 ) ) ;
#205 = ORIENTED_EDGE ( 'NONE', *, *, #648, .T. ) ;
#206 = CARTESIAN_POINT ( 'NONE',  ( 7.500000000000000000, -7.500000000000000000, 12.50000000000000355 ) ) ;
#207 = FACE_OUTER_BOUND ( 'NONE', #354, .T. ) ;
#208 = VERTEX_POINT ( 'NONE', #463 ) ;
#209 = DIRECTION ( 'NONE',  ( -1.000000000000000000, 0.000000000000000000, 0.000000000000000000 ) ) ;
#210 = PRODUCT ( 'link2_upper_arm_\X2\9ed88ba4\X0\_sldprt', 'link2_upper_arm_\X2\9ed88ba4\X0\_sldprt', '', ( #474 ) ) ;
#211 = FACE_OUTER_BOUND ( 'NONE', #774, .T. ) ;
#212 = ORIENTED_EDGE ( 'NONE', *, *, #475, .T. ) ;
#213 = FACE_OUTER_BOUND ( 'NONE', #473, .T. ) ;
#214 = ADVANCED_FACE ( 'NONE', ( #156, #207 ), #582, .F. ) ;
#215 = CARTESIAN_POINT ( 'NONE',  ( -5.000000000000001776, 250.0000000000000000, 0.000000000000000000 ) ) ;
#216 = AXIS2_PLACEMENT_3D ( 'NONE', #77, #644, #392 ) ;
#217 = CLOSED_SHELL ( 'NONE', ( #766, #598, #749, #653, #261, #420, #584, #454, #670, #546, #501, #155, #214, #188, #576, #488, #795, #548, #604, #20, #581, #351 ) ) ;
#218 = VERTEX_POINT ( 'NONE', #215 ) ;
#219 = APPROVAL_DATE_TIME ( #416, #178 ) ;
#220 = CARTESIAN_POINT ( 'NONE',  ( -5.000000000000001776, 250.0000000000000000, 37.50000000000000711 ) ) ;
#221 = ORIENTED_EDGE ( 'NONE', *, *, #102, .F. ) ;
#222 = EDGE_CURVE ( 'NONE', #371, #743, #277, .T. ) ;
#223 = DIRECTION ( 'NONE',  ( 0.000000000000000000, 1.000000000000000000, 1.387778780781445922E-16 ) ) ;
#224 = PLANE ( 'NONE',  #349 ) ;
#225 = ORIENTED_EDGE ( 'NONE', *, *, #620, .T. ) ;
#226 = APPLICATION_PROTOCOL_DEFINITION ( 'international standard', 'config_control_design', 1994, #528 ) ;
#227 = CARTESIAN_POINT ( 'NONE',  ( 7.500000000000000000, 207.5000000000000284, 37.50000000000000711 ) ) ;
#228 = EDGE_LOOP ( 'NONE', ( #338, #587, #661, #727 ) ) ;
#229 = AXIS2_PLACEMENT_3D ( 'NONE', #776, #330, #707 ) ;
#230 = EDGE_LOOP ( 'NONE', ( #143, #642, #272, #104 ) ) ;
#231 = PERSON_AND_ORGANIZATION ( #303, #777 ) ;
#232 = DIRECTION ( 'NONE',  ( -0.000000000000000000, -0.000000000000000000, -1.000000000000000000 ) ) ;
#233 = ORIENTED_EDGE ( 'NONE', *, *, #335, .T. ) ;
#234 =( NAMED_UNIT ( * ) SI_UNIT ( $, .STERADIAN. ) SOLID_ANGLE_UNIT ( ) );
#235 = EDGE_CURVE ( 'NONE', #579, #654, #534, .T. ) ;
#236 = FACE_OUTER_BOUND ( 'NONE', #729, .T. ) ;
#237 = ORIENTED_EDGE ( 'NONE', *, *, #401, .F. ) ;
#238 = APPROVAL ( #108, '未指定' ) ;
#239 = DIRECTION ( 'NONE',  ( 0.000000000000000000, 0.000000000000000000, -1.000000000000000000 ) ) ;
#240 = ORIENTED_EDGE ( 'NONE', *, *, #312, .F. ) ;
#241 = ORIENTED_EDGE ( 'NONE', *, *, #554, .F. ) ;
#242 = AXIS2_PLACEMENT_3D ( 'NONE', #493, #618, #490 ) ;
#243 = LOCAL_TIME ( 21, 47, 31.00000000000000000, #41 ) ;
#244 = FACE_OUTER_BOUND ( 'NONE', #503, .T. ) ;
#245 = CARTESIAN_POINT ( 'NONE',  ( -7.500000000000000000, 0.000000000000000000, 0.000000000000000000 ) ) ;
#246 = EDGE_CURVE ( 'NONE', #497, #324, #647, .T. ) ;
#247 = ORIENTED_EDGE ( 'NONE', *, *, #36, .F. ) ;
#248 = PLANE ( 'NONE',  #790 ) ;
#249 = DIRECTION ( 'NONE',  ( 0.000000000000000000, 0.000000000000000000, 1.000000000000000000 ) ) ;
#250 = AXIS2_PLACEMENT_3D ( 'NONE', #395, #29, #209 ) ;
#251 = EDGE_CURVE ( 'NONE', #218, #307, #686, .T. ) ;
#252 = ORIENTED_EDGE ( 'NONE', *, *, #594, .T. ) ;
#253 = DIRECTION ( 'NONE',  ( 0.000000000000000000, 1.000000000000000000, 0.000000000000000000 ) ) ;
#254 = CARTESIAN_POINT ( 'NONE',  ( 7.500000000000000000, 250.0000000000000000, 37.50000000000000711 ) ) ;
#255 = EDGE_LOOP ( 'NONE', ( #173, #717, #393, #75 ) ) ;
#256 = CIRCLE ( 'NONE', #216, 5.000000000000000000 ) ;
#257 = CARTESIAN_POINT ( 'NONE',  ( -7.500000000000000000, 207.5000000000000284, 37.50000000000000711 ) ) ;
#258 = LINE ( 'NONE', #121, #513 ) ;
#259 = VERTEX_POINT ( 'NONE', #271 ) ;
#260 = CARTESIAN_POINT ( 'NONE',  ( 0.000000000000000000, 250.0000000000000000, 37.50000000000000711 ) ) ;
#261 = ADVANCED_FACE ( 'NONE', ( #211 ), #472, .T. ) ;
#262 = DIRECTION ( 'NONE',  ( 0.000000000000000000, 0.000000000000000000, -1.000000000000000000 ) ) ;
#263 = ORIENTED_EDGE ( 'NONE', *, *, #494, .F. ) ;
#264 = EDGE_CURVE ( 'NONE', #316, #94, #23, .T. ) ;
#265 = DIRECTION ( 'NONE',  ( -0.000000000000000000, -0.000000000000000000, 1.000000000000000000 ) ) ;
#266 = DIRECTION ( 'NONE',  ( -1.000000000000000000, 0.000000000000000000, 0.000000000000000000 ) ) ;
#267 = ORIENTED_EDGE ( 'NONE', *, *, #704, .F. ) ;
#268 = CC_DESIGN_APPROVAL ( #178, ( #12 ) ) ;
#269 = DIRECTION ( 'NONE',  ( -0.000000000000000000, -0.000000000000000000, 1.000000000000000000 ) ) ;
#270 = VECTOR ( 'NONE', #33, 1000.000000000000000 ) ;
#271 = CARTESIAN_POINT ( 'NONE',  ( 5.000000000000000000, 0.000000000000000000, 37.50000000000000711 ) ) ;
#272 = ORIENTED_EDGE ( 'NONE', *, *, #119, .F. ) ;
#273 = DIRECTION ( 'NONE',  ( -0.000000000000000000, -0.000000000000000000, 1.000000000000000000 ) ) ;
#274 = DIRECTION ( 'NONE',  ( 1.000000000000000000, 0.000000000000000000, 0.000000000000000000 ) ) ;
#275 = ORIENTED_EDGE ( 'NONE', *, *, #508, .T. ) ;
#276 = DIRECTION ( 'NONE',  ( -0.000000000000000000, -0.000000000000000000, 1.000000000000000000 ) ) ;
#277 = LINE ( 'NONE', #326, #650 ) ;
#278 = EDGE_LOOP ( 'NONE', ( #748, #688 ) ) ;
#279 = PERSON_AND_ORGANIZATION ( #303, #777 ) ;
#280 = AXIS2_PLACEMENT_3D ( 'NONE', #659, #668, #96 ) ;
#281 = DIRECTION ( 'NONE',  ( 1.000000000000000000, -0.000000000000000000, -0.000000000000000000 ) ) ;
#282 = AXIS2_PLACEMENT_3D ( 'NONE', #98, #734, #617 ) ;
#283 = ORIENTED_EDGE ( 'NONE', *, *, #461, .F. ) ;
#284 = COORDINATED_UNIVERSAL_TIME_OFFSET ( 8, 0, .AHEAD. ) ;
#285 = DIRECTION ( 'NONE',  ( 1.000000000000000000, -0.000000000000000000, -0.000000000000000000 ) ) ;
#286 = EDGE_CURVE ( 'NONE', #58, #350, #586, .T. ) ;
#287 = LINE ( 'NONE', #439, #124 ) ;
#288 = CALENDAR_DATE ( 2026, 19, 6 ) ;
#289 = VECTOR ( 'NONE', #334, 1000.000000000000000 ) ;
#290 = EDGE_CURVE ( 'NONE', #313, #34, #256, .T. ) ;
#291 = CARTESIAN_POINT ( 'NONE',  ( 0.000000000000000000, 0.000000000000000000, 50.00000000000000000 ) ) ;
#292 = ORIENTED_EDGE ( 'NONE', *, *, #67, .F. ) ;
#293 = CALENDAR_DATE ( 2026, 19, 6 ) ;
#294 = LINE ( 'NONE', #227, #164 ) ;
#295 = ORIENTED_EDGE ( 'NONE', *, *, #246, .T. ) ;
#296 = CIRCLE ( 'NONE', #406, 5.000000000000000000 ) ;
#297 = APPLICATION_PROTOCOL_DEFINITION ( 'international standard', 'config_control_design', 1994, #538 ) ;
#298 = DIRECTION ( 'NONE',  ( 0.000000000000000000, 0.000000000000000000, -1.000000000000000000 ) ) ;
#299 = VERTEX_POINT ( 'NONE', #763 ) ;
#300 = EDGE_CURVE ( 'NONE', #183, #319, #702, .T. ) ;
#301 = AXIS2_PLACEMENT_3D ( 'NONE', #741, #310, #557 ) ;
#302 = DIRECTION ( 'NONE',  ( 0.000000000000000000, 0.000000000000000000, 1.000000000000000000 ) ) ;
#303 = PERSON ( '未指定', '未指定', '未指定', ('未指定'), ('未指定'), ('未指定') ) ;
#304 = EDGE_LOOP ( 'NONE', ( #107, #696, #556, #481 ) ) ;
#305 = DIRECTION ( 'NONE',  ( 0.000000000000000000, 0.000000000000000000, -1.000000000000000000 ) ) ;
#306 = CARTESIAN_POINT ( 'NONE',  ( 0.000000000000000000, 0.000000000000000000, 37.50000000000000711 ) ) ;
#307 = VERTEX_POINT ( 'NONE', #716 ) ;
#308 = VECTOR ( 'NONE', #106, 1000.000000000000000 ) ;
#309 = EDGE_CURVE ( 'NONE', #654, #350, #530, .T. ) ;
#310 = DIRECTION ( 'NONE',  ( -0.000000000000000000, -0.000000000000000000, 1.000000000000000000 ) ) ;
#311 = LINE ( 'NONE', #637, #471 ) ;
#312 = EDGE_CURVE ( 'NONE', #512, #299, #676, .T. ) ;
#313 = VERTEX_POINT ( 'NONE', #396 ) ;
#314 = CARTESIAN_POINT ( 'NONE',  ( 0.000000000000000000, 0.000000000000000000, 0.000000000000000000 ) ) ;
#315 = DIRECTION ( 'NONE',  ( 0.000000000000000000, 1.000000000000000000, 0.000000000000000000 ) ) ;
#316 = VERTEX_POINT ( 'NONE', #82 ) ;
#317 = DIRECTION ( 'NONE',  ( 0.000000000000000000, 0.000000000000000000, 1.000000000000000000 ) ) ;
#318 = CARTESIAN_POINT ( 'NONE',  ( 5.000000000000001776, 250.0000000000000000, 50.00000000000000000 ) ) ;
#319 = VERTEX_POINT ( 'NONE', #711 ) ;
#320 = VECTOR ( 'NONE', #605, 1000.000000000000000 ) ;
#321 = VECTOR ( 'NONE', #606, 1000.000000000000000 ) ;
#322 = CARTESIAN_POINT ( 'NONE',  ( 7.500000000000000000, 0.000000000000000000, 50.00000000000000000 ) ) ;
#323 = FACE_OUTER_BOUND ( 'NONE', #403, .T. ) ;
#324 = VERTEX_POINT ( 'NONE', #93 ) ;
#325 = DIRECTION ( 'NONE',  ( 1.000000000000000000, 0.000000000000000000, 0.000000000000000000 ) ) ;
#326 = CARTESIAN_POINT ( 'NONE',  ( 7.500000000000000000, 0.000000000000000000, 50.00000000000000000 ) ) ;
#327 = ORIENTED_EDGE ( 'NONE', *, *, #532, .F. ) ;
#328 = AXIS2_PLACEMENT_3D ( 'NONE', #191, #386, #636 ) ;
#329 = DIRECTION ( 'NONE',  ( 0.000000000000000000, 0.000000000000000000, 1.000000000000000000 ) ) ;
#330 = DIRECTION ( 'NONE',  ( 0.000000000000000000, -0.000000000000000000, 1.000000000000000000 ) ) ;
#331 = ORIENTED_EDGE ( 'NONE', *, *, #399, .F. ) ;
#332 = APPROVAL_PERSON_ORGANIZATION ( #355, #178, #549 ) ;
#333 = AXIS2_PLACEMENT_3D ( 'NONE', #600, #526, #150 ) ;
#334 = DIRECTION ( 'NONE',  ( -0.000000000000000000, -0.000000000000000000, 1.000000000000000000 ) ) ;
#335 = EDGE_CURVE ( 'NONE', #58, #579, #440, .T. ) ;
#336 = CARTESIAN_POINT ( 'NONE',  ( -7.500000000000000000, 0.000000000000000000, 37.50000000000000711 ) ) ;
#337 = EDGE_CURVE ( 'NONE', #187, #497, #407, .T. ) ;
#338 = ORIENTED_EDGE ( 'NONE', *, *, #81, .T. ) ;
#339 = AXIS2_PLACEMENT_3D ( 'NONE', #424, #479, #223 ) ;
#340 = DIRECTION ( 'NONE',  ( -0.000000000000000000, -0.000000000000000000, 1.000000000000000000 ) ) ;
#341 = DIRECTION ( 'NONE',  ( 0.000000000000000000, 0.000000000000000000, 1.000000000000000000 ) ) ;
#342 = CC_DESIGN_PERSON_AND_ORGANIZATION_ASSIGNMENT ( #482, #419, ( #202 ) ) ;
#343 = ORIENTED_EDGE ( 'NONE', *, *, #119, .T. ) ;
#344 = VECTOR ( 'NONE', #146, 1000.000000000000000 ) ;
#345 = CARTESIAN_POINT ( 'NONE',  ( -7.500000000000000000, 0.000000000000000000, 50.00000000000000000 ) ) ;
#346 = VERTEX_POINT ( 'NONE', #596 ) ;
#347 = PERSON_AND_ORGANIZATION ( #303, #777 ) ;
#348 = CARTESIAN_POINT ( 'NONE',  ( -5.000000000000001776, 250.0000000000000000, 0.000000000000000000 ) ) ;
#349 = AXIS2_PLACEMENT_3D ( 'NONE', #166, #476, #555 ) ;
#350 = VERTEX_POINT ( 'NONE', #30 ) ;
#351 = ADVANCED_FACE ( 'NONE', ( #760 ), #451, .F. ) ;
#352 = APPROVAL_ROLE ( '' ) ;
#353 = DIRECTION ( 'NONE',  ( -1.000000000000000000, 0.000000000000000000, 0.000000000000000000 ) ) ;
#354 = EDGE_LOOP ( 'NONE', ( #757, #167, #397, #241 ) ) ;
#355 = PERSON_AND_ORGANIZATION ( #303, #777 ) ;
#356 = LINE ( 'NONE', #669, #308 ) ;
#357 = ORIENTED_EDGE ( 'NONE', *, *, #300, .F. ) ;
#358 = DATE_AND_TIME ( #101, #735 ) ;
#359 = CARTESIAN_POINT ( 'NONE',  ( 7.500000000000000000, 0.000000000000000000, 12.50000000000000355 ) ) ;
#360 = CYLINDRICAL_SURFACE ( 'NONE', #282, 5.000000000000001776 ) ;
#361 = AXIS2_PLACEMENT_3D ( 'NONE', #622, #690, #125 ) ;
#362 = CC_DESIGN_APPROVAL ( #238, ( #588 ) ) ;
#363 = CIRCLE ( 'NONE', #10, 5.000000000000004441 ) ;
#364 = EDGE_CURVE ( 'NONE', #259, #313, #356, .T. ) ;
#365 = VECTOR ( 'NONE', #722, 1000.000000000000000 ) ;
#366 = CYLINDRICAL_SURFACE ( 'NONE', #498, 7.500000000000000000 ) ;
#367 = CARTESIAN_POINT ( 'NONE',  ( -5.000000000000001776, 250.0000000000000000, 12.50000000000000888 ) ) ;
#368 = EDGE_CURVE ( 'NONE', #319, #507, #607, .T. ) ;
#369 = CARTESIAN_POINT ( 'NONE',  ( 0.000000000000000000, 0.000000000000000000, 50.00000000000000000 ) ) ;
#370 = CARTESIAN_POINT ( 'NONE',  ( -7.500000000000000000, 0.000000000000000000, 50.00000000000000000 ) ) ;
#371 = VERTEX_POINT ( 'NONE', #359 ) ;
#372 = DATE_AND_TIME ( #184, #484 ) ;
#373 = CARTESIAN_POINT ( 'NONE',  ( -7.500000000000000000, 57.50000000000000000, 37.50000000000000711 ) ) ;
#374 = LINE ( 'NONE', #448, #575 ) ;
#375 = VERTEX_POINT ( 'NONE', #171 ) ;
#376 = CIRCLE ( 'NONE', #483, 7.500000000000000000 ) ;
#377 = FACE_OUTER_BOUND ( 'NONE', #230, .T. ) ;
#378 = DIRECTION ( 'NONE',  ( 1.000000000000000000, 0.000000000000000000, 0.000000000000000000 ) ) ;
#379 = UNCERTAINTY_MEASURE_WITH_UNIT (LENGTH_MEASURE( 1.000000000000000082E-05 ), #718, 'distance_accuracy_value', 'NONE');
#380 = VERTEX_POINT ( 'NONE', #672 ) ;
#381 = CYLINDRICAL_SURFACE ( 'NONE', #301, 5.000000000000000000 ) ;
#382 = AXIS2_PLACEMENT_3D ( 'NONE', #400, #470, #136 ) ;
#383 = DIRECTION ( 'NONE',  ( -0.000000000000000000, -0.000000000000000000, -1.000000000000000000 ) ) ;
#384 = EDGE_CURVE ( 'NONE', #131, #128, #665, .T. ) ;
#385 = ORIENTED_EDGE ( 'NONE', *, *, #399, .T. ) ;
#386 = DIRECTION ( 'NONE',  ( -0.000000000000000000, -0.000000000000000000, 1.000000000000000000 ) ) ;
#387 = FACE_BOUND ( 'NONE', #87, .T. ) ;
#388 = CC_DESIGN_PERSON_AND_ORGANIZATION_ASSIGNMENT ( #37, #489, ( #12 ) ) ;
#389 = ORIENTED_EDGE ( 'NONE', *, *, #36, .T. ) ;
#390 = CIRCLE ( 'NONE', #35, 5.000000000000000000 ) ;
#391 = FACE_OUTER_BOUND ( 'NONE', #566, .T. ) ;
#392 = DIRECTION ( 'NONE',  ( 1.000000000000000000, 0.000000000000000000, 0.000000000000000000 ) ) ;
#393 = ORIENTED_EDGE ( 'NONE', *, *, #415, .T. ) ;
#394 = EDGE_CURVE ( 'NONE', #350, #187, #294, .T. ) ;
#395 = CARTESIAN_POINT ( 'NONE',  ( 0.000000000000000000, 250.0000000000000000, 50.00000000000000000 ) ) ;
#396 = CARTESIAN_POINT ( 'NONE',  ( 5.000000000000000000, 0.000000000000000000, 50.00000000000000000 ) ) ;
#397 = ORIENTED_EDGE ( 'NONE', *, *, #102, .T. ) ;
#398 = VECTOR ( 'NONE', #16, 1000.000000000000000 ) ;
#399 = EDGE_CURVE ( 'NONE', #110, #743, #404, .T. ) ;
#400 = CARTESIAN_POINT ( 'NONE',  ( 0.000000000000000000, 0.000000000000000000, 12.50000000000000355 ) ) ;
#401 = EDGE_CURVE ( 'NONE', #34, #313, #663, .T. ) ;
#402 = CARTESIAN_POINT ( 'NONE',  ( -7.500000000000000000, 207.5000000000000284, 37.50000000000000711 ) ) ;
#403 = EDGE_LOOP ( 'NONE', ( #205, #569, #357, #327 ) ) ;
#404 = CIRCLE ( 'NONE', #176, 7.500000000000000000 ) ;
#405 = DIRECTION ( 'NONE',  ( 1.000000000000000000, 0.000000000000000000, 0.000000000000000000 ) ) ;
#406 = AXIS2_PLACEMENT_3D ( 'NONE', #306, #502, #687 ) ;
#407 = LINE ( 'NONE', #768, #270 ) ;
#408 = ORIENTED_EDGE ( 'NONE', *, *, #394, .F. ) ;
#409 = CARTESIAN_POINT ( 'NONE',  ( 0.000000000000000000, 0.000000000000000000, 37.50000000000000711 ) ) ;
#410 = DIRECTION ( 'NONE',  ( -0.000000000000000000, -0.000000000000000000, -1.000000000000000000 ) ) ;
#411 = ORIENTED_EDGE ( 'NONE', *, *, #116, .T. ) ;
#412 = EDGE_CURVE ( 'NONE', #299, #512, #390, .T. ) ;
#413 = DIRECTION ( 'NONE',  ( -0.000000000000000000, -0.000000000000000000, -1.000000000000000000 ) ) ;
#414 = EDGE_LOOP ( 'NONE', ( #527, #418, #723, #761 ) ) ;
#415 = EDGE_CURVE ( 'NONE', #128, #612, #627, .T. ) ;
#416 = DATE_AND_TIME ( #603, #59 ) ;
#417 = FACE_OUTER_BOUND ( 'NONE', #464, .T. ) ;
#418 = ORIENTED_EDGE ( 'NONE', *, *, #309, .F. ) ;
#419 = PERSON_AND_ORGANIZATION_ROLE ( 'classification_officer' ) ;
#420 = ADVANCED_FACE ( 'NONE', ( #236 ), #366, .T. ) ;
#421 = FACE_BOUND ( 'NONE', #163, .T. ) ;
#422 = ORIENTED_EDGE ( 'NONE', *, *, #425, .T. ) ;
#423 = ORIENTED_EDGE ( 'NONE', *, *, #732, .T. ) ;
#424 = CARTESIAN_POINT ( 'NONE',  ( -7.500000000000000000, 257.5000000000000000, 12.50000000000001066 ) ) ;
#425 = EDGE_CURVE ( 'NONE', #654, #531, #792, .T. ) ;
#426 = DIRECTION ( 'NONE',  ( 1.000000000000000000, 0.000000000000000000, 0.000000000000000000 ) ) ;
#427 = ORIENTED_EDGE ( 'NONE', *, *, #116, .F. ) ;
#428 = ORIENTED_EDGE ( 'NONE', *, *, #251, .F. ) ;
#429 = DIRECTION ( 'NONE',  ( 0.000000000000000000, 0.000000000000000000, -1.000000000000000000 ) ) ;
#430 = LINE ( 'NONE', #740, #321 ) ;
#431 = AXIS2_PLACEMENT_3D ( 'NONE', #466, #142, #27 ) ;
#432 = AXIS2_PLACEMENT_3D ( 'NONE', #565, #127, #378 ) ;
#433 = CYLINDRICAL_SURFACE ( 'NONE', #693, 5.000000000000000000 ) ;
#434 = LINE ( 'NONE', #345, #751 ) ;
#435 = CARTESIAN_POINT ( 'NONE',  ( 0.000000000000000000, 0.000000000000000000, 37.50000000000000711 ) ) ;
#436 = DIRECTION ( 'NONE',  ( -0.000000000000000000, -0.000000000000000000, 1.000000000000000000 ) ) ;
#437 = EDGE_LOOP ( 'NONE', ( #535, #495 ) ) ;
#438 = CARTESIAN_POINT ( 'NONE',  ( 0.000000000000000000, 0.000000000000000000, 50.00000000000000000 ) ) ;
#439 = CARTESIAN_POINT ( 'NONE',  ( -7.500000000000000000, 207.5000000000000284, 12.50000000000000355 ) ) ;
#440 = CIRCLE ( 'NONE', #333, 7.500000000000000000 ) ;
#441 = ORIENTED_EDGE ( 'NONE', *, *, #771, .F. ) ;
#442 = CARTESIAN_POINT ( 'NONE',  ( 5.000000000000000000, 0.000000000000000000, 0.000000000000000000 ) ) ;
#443 = EDGE_CURVE ( 'NONE', #11, #380, #137, .T. ) ;
#444 = CARTESIAN_POINT ( 'NONE',  ( -5.000000000000000000, 6.123233995736766282E-16, 37.50000000000000711 ) ) ;
#445 = ORIENTED_EDGE ( 'NONE', *, *, #337, .F. ) ;
#446 = EDGE_CURVE ( 'NONE', #375, #497, #736, .T. ) ;
#447 = FACE_OUTER_BOUND ( 'NONE', #770, .T. ) ;
#448 = CARTESIAN_POINT ( 'NONE',  ( -5.000000000000001776, 250.0000000000000000, 0.000000000000000000 ) ) ;
#449 = ORIENTED_EDGE ( 'NONE', *, *, #709, .T. ) ;
#450 = DIRECTION ( 'NONE',  ( 1.000000000000000000, 0.000000000000000000, 0.000000000000000000 ) ) ;
#451 = CYLINDRICAL_SURFACE ( 'NONE', #725, 5.000000000000000000 ) ;
#452 = ORIENTED_EDGE ( 'NONE', *, *, #286, .F. ) ;
#453 =( GEOMETRIC_REPRESENTATION_CONTEXT ( 3 ) GLOBAL_UNCERTAINTY_ASSIGNED_CONTEXT ( ( #379 ) ) GLOBAL_UNIT_ASSIGNED_CONTEXT ( ( #718, #655, #234 ) ) REPRESENTATION_CONTEXT ( 'NONE', 'WORKASPACE' ) );
#454 = ADVANCED_FACE ( 'NONE', ( #417 ), #159, .F. ) ;
#455 = CC_DESIGN_SECURITY_CLASSIFICATION ( #202, ( #588 ) ) ;
#456 = VECTOR ( 'NONE', #21, 1000.000000000000000 ) ;
#457 = CARTESIAN_POINT ( 'NONE',  ( 0.000000000000000000, 250.0000000000000000, 0.000000000000000000 ) ) ;
#458 = AXIS2_PLACEMENT_3D ( 'NONE', #84, #329, #585 ) ;
#459 = DIRECTION ( 'NONE',  ( 0.000000000000000000, -1.000000000000000000, 0.000000000000000000 ) ) ;
#460 = ORIENTED_EDGE ( 'NONE', *, *, #494, .T. ) ;
#461 = EDGE_CURVE ( 'NONE', #324, #208, #376, .T. ) ;
#462 = FACE_OUTER_BOUND ( 'NONE', #692, .T. ) ;
#463 = CARTESIAN_POINT ( 'NONE',  ( -7.500000000000000000, 250.0000000000000000, 0.000000000000000000 ) ) ;
#464 = EDGE_LOOP ( 'NONE', ( #408, #452, #667, #477, #423, #221, #441, #684, #78, #180, #674, #445 ) ) ;
#465 = FACE_OUTER_BOUND ( 'NONE', #90, .T. ) ;
#466 = CARTESIAN_POINT ( 'NONE',  ( 0.000000000000000000, 250.0000000000000000, 50.00000000000000000 ) ) ;
#467 = EDGE_LOOP ( 'NONE', ( #240, #558, #631, #18 ) ) ;
#468 = PRODUCT_RELATED_PRODUCT_CATEGORY ( 'detail', '', ( #210 ) ) ;
#469 = AXIS2_PLACEMENT_3D ( 'NONE', #291, #480, #53 ) ;
#470 = DIRECTION ( 'NONE',  ( 0.000000000000000000, 0.000000000000000000, -1.000000000000000000 ) ) ;
#471 = VECTOR ( 'NONE', #742, 1000.000000000000000 ) ;
#472 = CYLINDRICAL_SURFACE ( 'NONE', #524, 7.500000000000000000 ) ;
#473 = EDGE_LOOP ( 'NONE', ( #428, #148, #427, #720 ) ) ;
#474 = MECHANICAL_CONTEXT ( 'NONE', #528, 'mechanical' ) ;
#475 = EDGE_CURVE ( 'NONE', #183, #110, #780, .T. ) ;
#476 = DIRECTION ( 'NONE',  ( 0.000000000000000000, 0.000000000000000000, 1.000000000000000000 ) ) ;
#477 = ORIENTED_EDGE ( 'NONE', *, *, #384, .F. ) ;
#478 = AXIS2_PLACEMENT_3D ( 'NONE', #438, #746, #65 ) ;
#479 = DIRECTION ( 'NONE',  ( 0.000000000000000000, 1.387778780781445922E-16, -1.000000000000000000 ) ) ;
#480 = DIRECTION ( 'NONE',  ( 0.000000000000000000, 0.000000000000000000, 1.000000000000000000 ) ) ;
#481 = ORIENTED_EDGE ( 'NONE', *, *, #290, .T. ) ;
#482 = PERSON_AND_ORGANIZATION ( #303, #777 ) ;
#483 = AXIS2_PLACEMENT_3D ( 'NONE', #103, #485, #726 ) ;
#484 = LOCAL_TIME ( 21, 47, 31.00000000000000000, #689 ) ;
#485 = DIRECTION ( 'NONE',  ( 0.000000000000000000, 0.000000000000000000, 1.000000000000000000 ) ) ;
#486 = CC_DESIGN_DATE_AND_TIME_ASSIGNMENT ( #537, #791, ( #202 ) ) ;
#487 = VERTEX_POINT ( 'NONE', #220 ) ;
#488 = ADVANCED_FACE ( 'NONE', ( #421, #788 ), #224, .F. ) ;
#489 = PERSON_AND_ORGANIZATION_ROLE ( 'creator' ) ;
#490 = DIRECTION ( 'NONE',  ( 0.000000000000000000, 1.000000000000000000, 2.312964634635740492E-16 ) ) ;
#491 = ORIENTED_EDGE ( 'NONE', *, *, #625, .F. ) ;
#492 = PERSON_AND_ORGANIZATION ( #303, #777 ) ;
#493 = CARTESIAN_POINT ( 'NONE',  ( 0.000000000000000000, 250.0000000000000000, 12.50000000000001066 ) ) ;
#494 = EDGE_CURVE ( 'NONE', #487, #316, #660, .T. ) ;
#495 = ORIENTED_EDGE ( 'NONE', *, *, #264, .F. ) ;
#496 = CYLINDRICAL_SURFACE ( 'NONE', #328, 5.000000000000001776 ) ;
#497 = VERTEX_POINT ( 'NONE', #162 ) ;
#498 = AXIS2_PLACEMENT_3D ( 'NONE', #551, #232, #541 ) ;
#499 = ORIENTED_EDGE ( 'NONE', *, *, #412, .F. ) ;
#500 = DIRECTION ( 'NONE',  ( 1.000000000000000000, 0.000000000000000000, -0.000000000000000000 ) ) ;
#501 = ADVANCED_FACE ( 'NONE', ( #680, #805, #181 ), #248, .T. ) ;
#502 = DIRECTION ( 'NONE',  ( 0.000000000000000000, -0.000000000000000000, 1.000000000000000000 ) ) ;
#503 = EDGE_LOOP ( 'NONE', ( #491, #499, #252, #267 ) ) ;
#504 = VECTOR ( 'NONE', #567, 1000.000000000000000 ) ;
#505 = LINE ( 'NONE', #373, #22 ) ;
#506 = DIRECTION ( 'NONE',  ( -0.000000000000000000, -0.000000000000000000, 1.000000000000000000 ) ) ;
#507 = VERTEX_POINT ( 'NONE', #570 ) ;
#508 = EDGE_CURVE ( 'NONE', #94, #316, #111, .T. ) ;
#509 = DIRECTION ( 'NONE',  ( -0.000000000000000000, -0.000000000000000000, 1.000000000000000000 ) ) ;
#510 = LINE ( 'NONE', #1, #49 ) ;
#511 = CIRCLE ( 'NONE', #61, 5.000000000000000000 ) ;
#512 = VERTEX_POINT ( 'NONE', #69 ) ;
#513 = VECTOR ( 'NONE', #192, 1000.000000000000000 ) ;
#514 = EDGE_CURVE ( 'NONE', #793, #346, #505, .T. ) ;
#515 = DIRECTION ( 'NONE',  ( 0.000000000000000000, -0.000000000000000000, 1.000000000000000000 ) ) ;
#516 = DIRECTION ( 'NONE',  ( -0.000000000000000000, -0.000000000000000000, -1.000000000000000000 ) ) ;
#517 = ORIENTED_EDGE ( 'NONE', *, *, #664, .F. ) ;
#518 = DIRECTION ( 'NONE',  ( 0.000000000000000000, 0.000000000000000000, 1.000000000000000000 ) ) ;
#519 = DIRECTION ( 'NONE',  ( -1.000000000000000000, 0.000000000000000000, -0.000000000000000000 ) ) ;
#520 = ORIENTED_EDGE ( 'NONE', *, *, #709, .F. ) ;
#521 = LINE ( 'NONE', #651, #289 ) ;
#522 = CARTESIAN_POINT ( 'NONE',  ( 7.500000000000000000, 257.5000000000000000, 37.50000000000000711 ) ) ;
#523 = ORIENTED_EDGE ( 'NONE', *, *, #401, .T. ) ;
#524 = AXIS2_PLACEMENT_3D ( 'NONE', #89, #656, #266 ) ;
#525 = LINE ( 'NONE', #767, #100 ) ;
#526 = DIRECTION ( 'NONE',  ( 0.000000000000000000, 0.000000000000000000, 1.000000000000000000 ) ) ;
#527 = ORIENTED_EDGE ( 'NONE', *, *, #286, .T. ) ;
#528 = APPLICATION_CONTEXT ( 'configuration controlled 3d designs of mechanical parts and assemblies' ) ;
#529 = FACE_BOUND ( 'NONE', #28, .T. ) ;
#530 = LINE ( 'NONE', #402, #779 ) ;
#531 = VERTEX_POINT ( 'NONE', #802 ) ;
#532 = EDGE_CURVE ( 'NONE', #371, #183, #123, .T. ) ;
#533 = CYLINDRICAL_SURFACE ( 'NONE', #145, 5.000000000000001776 ) ;
#534 = LINE ( 'NONE', #336, #86 ) ;
#535 = ORIENTED_EDGE ( 'NONE', *, *, #508, .F. ) ;
#536 = AXIS2_PLACEMENT_3D ( 'NONE', #204, #341, #274 ) ;
#537 = DATE_AND_TIME ( #293, #574 ) ;
#538 = APPLICATION_CONTEXT ( 'configuration controlled 3d designs of mechanical parts and assemblies' ) ;
#539 = CARTESIAN_POINT ( 'NONE',  ( 7.500000000000000000, 0.000000000000000000, 50.00000000000000000 ) ) ;
#540 = ORIENTED_EDGE ( 'NONE', *, *, #620, .F. ) ;
#541 = DIRECTION ( 'NONE',  ( -1.000000000000000000, 0.000000000000000000, 0.000000000000000000 ) ) ;
#542 = ORIENTED_EDGE ( 'NONE', *, *, #744, .T. ) ;
#543 = ORIENTED_EDGE ( 'NONE', *, *, #678, .T. ) ;
#544 = APPROVAL_DATE_TIME ( #613, #238 ) ;
#545 = CARTESIAN_POINT ( 'NONE',  ( 0.000000000000000000, 250.0000000000000000, 12.50000000000000888 ) ) ;
#546 = ADVANCED_FACE ( 'NONE', ( #185 ), #755, .F. ) ;
#547 = ORIENTED_EDGE ( 'NONE', *, *, #67, .T. ) ;
#548 = ADVANCED_FACE ( 'NONE', ( #624 ), #62, .F. ) ;
#549 = APPROVAL_ROLE ( '' ) ;
#550 = AXIS2_PLACEMENT_3D ( 'NONE', #117, #317, #682 ) ;
#551 = CARTESIAN_POINT ( 'NONE',  ( 0.000000000000000000, 250.0000000000000000, 50.00000000000000000 ) ) ;
#552 = AXIS2_PLACEMENT_3D ( 'NONE', #195, #249, #4 ) ;
#553 = EDGE_LOOP ( 'NONE', ( #573, #460, #5, #139 ) ) ;
#554 = EDGE_CURVE ( 'NONE', #54, #72, #561, .T. ) ;
#555 = DIRECTION ( 'NONE',  ( 1.000000000000000000, 0.000000000000000000, -0.000000000000000000 ) ) ;
#556 = ORIENTED_EDGE ( 'NONE', *, *, #364, .T. ) ;
#557 = DIRECTION ( 'NONE',  ( 1.000000000000000000, 0.000000000000000000, 0.000000000000000000 ) ) ;
#558 = ORIENTED_EDGE ( 'NONE', *, *, #625, .T. ) ;
#559 = DIRECTION ( 'NONE',  ( 0.000000000000000000, -0.000000000000000000, 1.000000000000000000 ) ) ;
#560 = CARTESIAN_POINT ( 'NONE',  ( 0.000000000000000000, 250.0000000000000000, 12.50000000000000888 ) ) ;
#561 = CIRCLE ( 'NONE', #801, 7.500000000000000000 ) ;
#562 = DESIGN_CONTEXT ( 'detailed design', #538, 'design' ) ;
#563 = ORIENTED_EDGE ( 'NONE', *, *, #144, .T. ) ;
#564 = CYLINDRICAL_SURFACE ( 'NONE', #478, 7.500000000000000000 ) ;
#565 = CARTESIAN_POINT ( 'NONE',  ( 0.000000000000000000, 250.0000000000000000, 37.50000000000000711 ) ) ;
#566 = EDGE_LOOP ( 'NONE', ( #168, #700, #523, #2 ) ) ;
#567 = DIRECTION ( 'NONE',  ( -0.000000000000000000, -0.000000000000000000, 1.000000000000000000 ) ) ;
#568 = DIRECTION ( 'NONE',  ( 1.000000000000000000, 0.000000000000000000, -0.000000000000000000 ) ) ;
#569 = ORIENTED_EDGE ( 'NONE', *, *, #368, .F. ) ;
#570 = CARTESIAN_POINT ( 'NONE',  ( 7.500000000000000000, 57.50000000000000000, 12.50000000000000355 ) ) ;
#571 = CARTESIAN_POINT ( 'NONE',  ( -7.500000000000000000, -7.500000000000000000, 12.50000000000000355 ) ) ;
#572 = AXIS2_PLACEMENT_3D ( 'NONE', #257, #629, #239 ) ;
#573 = ORIENTED_EDGE ( 'NONE', *, *, #744, .F. ) ;
#574 = LOCAL_TIME ( 21, 47, 31.00000000000000000, #44 ) ;
#575 = VECTOR ( 'NONE', #506, 1000.000000000000000 ) ;
#576 = ADVANCED_FACE ( 'NONE', ( #377 ), #56, .F. ) ;
#577 = DIRECTION ( 'NONE',  ( -0.000000000000000000, -0.000000000000000000, -1.000000000000000000 ) ) ;
#578 = LINE ( 'NONE', #695, #190 ) ;
#579 = VERTEX_POINT ( 'NONE', #685 ) ;
#580 = CARTESIAN_POINT ( 'NONE',  ( 7.500000000000000000, 57.50000000000000000, 37.50000000000000711 ) ) ;
#581 = ADVANCED_FACE ( 'NONE', ( #244 ), #381, .F. ) ;
#582 = PLANE ( 'NONE',  #229 ) ;
#583 = ORIENTED_EDGE ( 'NONE', *, *, #32, .T. ) ;
#584 = ADVANCED_FACE ( 'NONE', ( #120 ), #564, .T. ) ;
#585 = DIRECTION ( 'NONE',  ( 1.000000000000000000, 0.000000000000000000, 0.000000000000000000 ) ) ;
#586 = LINE ( 'NONE', #522, #456 ) ;
#587 = ORIENTED_EDGE ( 'NONE', *, *, #554, .T. ) ;
#588 = PRODUCT_DEFINITION_FORMATION_WITH_SPECIFIED_SOURCE ( '任何', '', #210, .NOT_KNOWN. ) ;
#589 = AXIS2_PLACEMENT_3D ( 'NONE', #571, #262, #519 ) ;
#590 = CIRCLE ( 'NONE', #552, 7.500000000000000000 ) ;
#591 = CARTESIAN_POINT ( 'NONE',  ( -7.500000000000000000, 57.50000000000000000, 37.50000000000000711 ) ) ;
#592 = DIRECTION ( 'NONE',  ( -0.000000000000000000, -0.000000000000000000, -1.000000000000000000 ) ) ;
#593 = ORIENTED_EDGE ( 'NONE', *, *, #300, .T. ) ;
#594 = EDGE_CURVE ( 'NONE', #299, #645, #633, .T. ) ;
#595 = LINE ( 'NONE', #149, #344 ) ;
#596 = CARTESIAN_POINT ( 'NONE',  ( 7.500000000000000000, 57.50000000000000000, 37.50000000000000711 ) ) ;
#597 = ORIENTED_EDGE ( 'NONE', *, *, #446, .F. ) ;
#598 = ADVANCED_FACE ( 'NONE', ( #194 ), #433, .F. ) ;
#599 = PERSON_AND_ORGANIZATION_ROLE ( 'design_owner' ) ;
#600 = CARTESIAN_POINT ( 'NONE',  ( 0.000000000000000000, 250.0000000000000000, 37.50000000000000711 ) ) ;
#601 = ORIENTED_EDGE ( 'NONE', *, *, #475, .F. ) ;
#602 = AXIS2_PLACEMENT_3D ( 'NONE', #615, #784, #45 ) ;
#603 = CALENDAR_DATE ( 2026, 19, 6 ) ;
#604 = ADVANCED_FACE ( 'NONE', ( #447 ), #496, .F. ) ;
#605 = DIRECTION ( 'NONE',  ( 0.000000000000000000, 1.000000000000000000, 0.000000000000000000 ) ) ;
#606 = DIRECTION ( 'NONE',  ( -0.000000000000000000, -1.000000000000000000, -0.000000000000000000 ) ) ;
#607 = LINE ( 'NONE', #42, #151 ) ;
#608 = ORIENTED_EDGE ( 'NONE', *, *, #412, .T. ) ;
#609 = VECTOR ( 'NONE', #775, 1000.000000000000000 ) ;
#610 = PERSON_AND_ORGANIZATION ( #303, #777 ) ;
#611 = CARTESIAN_POINT ( 'NONE',  ( 0.000000000000000000, 0.000000000000000000, 0.000000000000000000 ) ) ;
#612 = VERTEX_POINT ( 'NONE', #799 ) ;
#613 = DATE_AND_TIME ( #288, #243 ) ;
#614 = AXIS2_PLACEMENT_3D ( 'NONE', #147, #17, #138 ) ;
#615 = CARTESIAN_POINT ( 'NONE',  ( 0.000000000000000000, 250.0000000000000000, 50.00000000000000000 ) ) ;
#616 = VECTOR ( 'NONE', #436, 1000.000000000000000 ) ;
#617 = DIRECTION ( 'NONE',  ( 1.000000000000000000, 0.000000000000000000, 0.000000000000000000 ) ) ;
#618 = DIRECTION ( 'NONE',  ( 0.000000000000000000, 1.387778780781445922E-16, -1.000000000000000000 ) ) ;
#619 = DIRECTION ( 'NONE',  ( 0.000000000000000000, 1.000000000000000000, 0.000000000000000000 ) ) ;
#620 = EDGE_CURVE ( 'NONE', #531, #375, #737, .T. ) ;
#621 = CIRCLE ( 'NONE', #158, 5.000000000000001776 ) ;
#622 = CARTESIAN_POINT ( 'NONE',  ( -7.500000000000000000, 0.000000000000000000, 50.00000000000000000 ) ) ;
#623 = CARTESIAN_POINT ( 'NONE',  ( 0.000000000000000000, 0.000000000000000000, 0.000000000000000000 ) ) ;
#624 = FACE_OUTER_BOUND ( 'NONE', #172, .T. ) ;
#625 = EDGE_CURVE ( 'NONE', #512, #765, #521, .T. ) ;
#626 = DIRECTION ( 'NONE',  ( -1.000000000000000000, 0.000000000000000000, 0.000000000000000000 ) ) ;
#627 = CIRCLE ( 'NONE', #602, 7.500000000000000000 ) ;
#628 = ORIENTED_EDGE ( 'NONE', *, *, #222, .F. ) ;
#629 = DIRECTION ( 'NONE',  ( 0.000000000000000000, -1.000000000000000000, -0.000000000000000000 ) ) ;
#630 = CARTESIAN_POINT ( 'NONE',  ( 7.500000000000000000, 0.000000000000000000, 50.00000000000000000 ) ) ;
#631 = ORIENTED_EDGE ( 'NONE', *, *, #144, .F. ) ;
#632 = VECTOR ( 'NONE', #88, 1000.000000000000000 ) ;
#633 = LINE ( 'NONE', #442, #504 ) ;
#634 = FACE_BOUND ( 'NONE', #639, .T. ) ;
#635 = ORIENTED_EDGE ( 'NONE', *, *, #425, .F. ) ;
#636 = DIRECTION ( 'NONE',  ( 1.000000000000000000, 0.000000000000000000, 0.000000000000000000 ) ) ;
#637 = CARTESIAN_POINT ( 'NONE',  ( -7.500000000000000000, 57.50000000000000000, 37.50000000000000711 ) ) ;
#638 = VECTOR ( 'NONE', #298, 1000.000000000000000 ) ;
#639 = EDGE_LOOP ( 'NONE', ( #608, #83 ) ) ;
#640 = CYLINDRICAL_SURFACE ( 'NONE', #666, 5.000000000000000000 ) ;
#641 = DIRECTION ( 'NONE',  ( -0.000000000000000000, -0.000000000000000000, 1.000000000000000000 ) ) ;
#642 = ORIENTED_EDGE ( 'NONE', *, *, #514, .F. ) ;
#643 = CARTESIAN_POINT ( 'NONE',  ( -7.500000000000000000, 0.000000000000000000, 0.000000000000000000 ) ) ;
#644 = DIRECTION ( 'NONE',  ( 0.000000000000000000, 0.000000000000000000, 1.000000000000000000 ) ) ;
#645 = VERTEX_POINT ( 'NONE', #715 ) ;
#646 = DIRECTION ( 'NONE',  ( 1.000000000000000000, 0.000000000000000000, 0.000000000000000000 ) ) ;
#647 = LINE ( 'NONE', #773, #48 ) ;
#648 = EDGE_CURVE ( 'NONE', #371, #507, #705, .T. ) ;
#649 = ORIENTED_EDGE ( 'NONE', *, *, #461, .T. ) ;
#650 = VECTOR ( 'NONE', #410, 1000.000000000000000 ) ;
#651 = CARTESIAN_POINT ( 'NONE',  ( -5.000000000000000000, 6.123233995736766282E-16, 0.000000000000000000 ) ) ;
#652 = CARTESIAN_POINT ( 'NONE',  ( -7.500000000000000000, 0.000000000000000000, 12.50000000000000355 ) ) ;
#653 = ADVANCED_FACE ( 'NONE', ( #213 ), #533, .F. ) ;
#654 = VERTEX_POINT ( 'NONE', #141 ) ;
#655 =( NAMED_UNIT ( * ) PLANE_ANGLE_UNIT ( ) SI_UNIT ( $, .RADIAN. ) );
#656 = DIRECTION ( 'NONE',  ( -0.000000000000000000, -0.000000000000000000, -1.000000000000000000 ) ) ;
#657 = ORIENTED_EDGE ( 'NONE', *, *, #251, .T. ) ;
#658 = PRODUCT_DEFINITION_SHAPE ( 'NONE', 'NONE',  #12 ) ;
#659 = CARTESIAN_POINT ( 'NONE',  ( 0.000000000000000000, 0.000000000000000000, 0.000000000000000000 ) ) ;
#660 = LINE ( 'NONE', #348, #365 ) ;
#661 = ORIENTED_EDGE ( 'NONE', *, *, #732, .F. ) ;
#662 = APPROVAL_PERSON_ORGANIZATION ( #231, #79, #6 ) ;
#663 = CIRCLE ( 'NONE', #469, 5.000000000000000000 ) ;
#664 = EDGE_CURVE ( 'NONE', #375, #208, #595, .T. ) ;
#665 = LINE ( 'NONE', #174, #320 ) ;
#666 = AXIS2_PLACEMENT_3D ( 'NONE', #76, #269, #325 ) ;
#667 = ORIENTED_EDGE ( 'NONE', *, *, #152, .F. ) ;
#668 = DIRECTION ( 'NONE',  ( 0.000000000000000000, 0.000000000000000000, 1.000000000000000000 ) ) ;
#669 = CARTESIAN_POINT ( 'NONE',  ( 5.000000000000000000, 0.000000000000000000, 0.000000000000000000 ) ) ;
#670 = ADVANCED_FACE ( 'NONE', ( #462 ), #710, .T. ) ;
#671 = FACE_OUTER_BOUND ( 'NONE', #43, .T. ) ;
#672 = CARTESIAN_POINT ( 'NONE',  ( 5.000000000000001776, 250.0000000000000000, 12.50000000000000888 ) ) ;
#673 = ORIENTED_EDGE ( 'NONE', *, *, #126, .T. ) ;
#674 = ORIENTED_EDGE ( 'NONE', *, *, #246, .F. ) ;
#675 = SHAPE_DEFINITION_REPRESENTATION ( #658, #713 ) ;
#676 = CIRCLE ( 'NONE', #536, 5.000000000000000000 ) ;
#677 = CARTESIAN_POINT ( 'NONE',  ( 0.000000000000000000, 0.000000000000000000, 0.000000000000000000 ) ) ;
#678 = EDGE_CURVE ( 'NONE', #307, #380, #26, .T. ) ;
#679 = ORIENTED_EDGE ( 'NONE', *, *, #783, .F. ) ;
#680 = FACE_BOUND ( 'NONE', #437, .T. ) ;
#681 = LINE ( 'NONE', #756, #616 ) ;
#682 = DIRECTION ( 'NONE',  ( 1.000000000000000000, 0.000000000000000000, 0.000000000000000000 ) ) ;
#683 = DIRECTION ( 'NONE',  ( 1.000000000000000000, -0.000000000000000000, -0.000000000000000000 ) ) ;
#684 = ORIENTED_EDGE ( 'NONE', *, *, #648, .F. ) ;
#685 = CARTESIAN_POINT ( 'NONE',  ( -7.500000000000000000, 249.9999999999999716, 37.50000000000000711 ) ) ;
#686 = CIRCLE ( 'NONE', #614, 5.000000000000001776 ) ;
#687 = DIRECTION ( 'NONE',  ( 1.000000000000000000, 0.000000000000000000, 0.000000000000000000 ) ) ;
#688 = ORIENTED_EDGE ( 'NONE', *, *, #721, .T. ) ;
#689 = COORDINATED_UNIVERSAL_TIME_OFFSET ( 8, 0, .AHEAD. ) ;
#690 = DIRECTION ( 'NONE',  ( 1.000000000000000000, 0.000000000000000000, 0.000000000000000000 ) ) ;
#691 = PLANE ( 'NONE',  #589 ) ;
#692 = EDGE_LOOP ( 'NONE', ( #712, #295, #649, #517 ) ) ;
#693 = AXIS2_PLACEMENT_3D ( 'NONE', #314, #509, #750 ) ;
#694 = DIRECTION ( 'NONE',  ( -1.000000000000000000, 0.000000000000000000, 0.000000000000000000 ) ) ;
#695 = CARTESIAN_POINT ( 'NONE',  ( -7.500000000000000000, 250.0000000000000000, 50.00000000000000000 ) ) ;
#696 = ORIENTED_EDGE ( 'NONE', *, *, #71, .F. ) ;
#697 = CARTESIAN_POINT ( 'NONE',  ( -5.000000000000000000, 6.123233995736766282E-16, 12.50000000000000355 ) ) ;
#698 = CARTESIAN_POINT ( 'NONE',  ( 0.000000000000000000, 0.000000000000000000, 0.000000000000000000 ) ) ;
#699 = VECTOR ( 'NONE', #413, 1000.000000000000000 ) ;
#700 = ORIENTED_EDGE ( 'NONE', *, *, #794, .T. ) ;
#701 = DIRECTION ( 'NONE',  ( -0.000000000000000000, -0.000000000000000000, 1.000000000000000000 ) ) ;
#702 = LINE ( 'NONE', #652, #764 ) ;
#703 = EDGE_LOOP ( 'NONE', ( #331, #520, #283, #52 ) ) ;
#704 = EDGE_CURVE ( 'NONE', #765, #645, #745, .T. ) ;
#705 = LINE ( 'NONE', #206, #609 ) ;
#706 = VECTOR ( 'NONE', #276, 1000.000000000000000 ) ;
#707 = DIRECTION ( 'NONE',  ( 1.000000000000000000, 0.000000000000000000, -0.000000000000000000 ) ) ;
#708 = ORIENTED_EDGE ( 'NONE', *, *, #415, .F. ) ;
#709 = EDGE_CURVE ( 'NONE', #208, #110, #154, .T. ) ;
#710 = CYLINDRICAL_SURFACE ( 'NONE', #250, 7.500000000000000000 ) ;
#711 = CARTESIAN_POINT ( 'NONE',  ( -7.500000000000000000, 57.50000000000000000, 12.50000000000000355 ) ) ;
#712 = ORIENTED_EDGE ( 'NONE', *, *, #446, .T. ) ;
#713 = ADVANCED_BREP_SHAPE_REPRESENTATION ( 'link2_upper_arm_\X2\9ed88ba4\X0\_sldprt', ( #769, #280 ), #453 ) ;
#714 = AXIS2_PLACEMENT_3D ( 'NONE', #539, #353, #728 ) ;
#715 = CARTESIAN_POINT ( 'NONE',  ( 5.000000000000000000, 0.000000000000000000, 12.50000000000000355 ) ) ;
#716 = CARTESIAN_POINT ( 'NONE',  ( 5.000000000000001776, 250.0000000000000000, 0.000000000000000000 ) ) ;
#717 = ORIENTED_EDGE ( 'NONE', *, *, #384, .T. ) ;
#718 =( LENGTH_UNIT ( ) NAMED_UNIT ( * ) SI_UNIT ( .MILLI., .METRE. ) );
#719 = DIRECTION ( 'NONE',  ( 0.000000000000000000, 1.000000000000000000, 0.000000000000000000 ) ) ;
#720 = ORIENTED_EDGE ( 'NONE', *, *, #678, .F. ) ;
#721 = EDGE_CURVE ( 'NONE', #153, #259, #170, .T. ) ;
#722 = DIRECTION ( 'NONE',  ( -0.000000000000000000, -0.000000000000000000, 1.000000000000000000 ) ) ;
#723 = ORIENTED_EDGE ( 'NONE', *, *, #235, .F. ) ;
#724 = CC_DESIGN_DATE_AND_TIME_ASSIGNMENT ( #358, #91, ( #12 ) ) ;
#725 = AXIS2_PLACEMENT_3D ( 'NONE', #698, #641, #426 ) ;
#726 = DIRECTION ( 'NONE',  ( 1.000000000000000000, 0.000000000000000000, 0.000000000000000000 ) ) ;
#727 = ORIENTED_EDGE ( 'NONE', *, *, #46, .F. ) ;
#728 = DIRECTION ( 'NONE',  ( 0.000000000000000000, 0.000000000000000000, 1.000000000000000000 ) ) ;
#729 = EDGE_LOOP ( 'NONE', ( #800, #233, #292, #708 ) ) ;
#730 = AXIS2_PLACEMENT_3D ( 'NONE', #457, #701, #450 ) ;
#731 = SECURITY_CLASSIFICATION_LEVEL ( 'unclassified' ) ;
#732 = EDGE_CURVE ( 'NONE', #131, #72, #762, .T. ) ;
#733 = CARTESIAN_POINT ( 'NONE',  ( -7.500000000000000000, 0.000000000000000000, 50.00000000000000000 ) ) ;
#734 = DIRECTION ( 'NONE',  ( -0.000000000000000000, -0.000000000000000000, 1.000000000000000000 ) ) ;
#735 = LOCAL_TIME ( 21, 47, 31.00000000000000000, #284 ) ;
#736 = CIRCLE ( 'NONE', #242, 7.500000000000007105 ) ;
#737 = LINE ( 'NONE', #177, #632 ) ;
#738 = VECTOR ( 'NONE', #619, 1000.000000000000000 ) ;
#739 = APPROVAL_PERSON_ORGANIZATION ( #610, #238, #352 ) ;
#740 = CARTESIAN_POINT ( 'NONE',  ( -7.500000000000000000, -7.500000000000000000, 37.50000000000000711 ) ) ;
#741 = CARTESIAN_POINT ( 'NONE',  ( 0.000000000000000000, 0.000000000000000000, 0.000000000000000000 ) ) ;
#742 = DIRECTION ( 'NONE',  ( -0.000000000000000000, -0.000000000000000000, 1.000000000000000000 ) ) ;
#743 = VERTEX_POINT ( 'NONE', #13 ) ;
#744 = EDGE_CURVE ( 'NONE', #487, #135, #621, .T. ) ;
#745 = CIRCLE ( 'NONE', #382, 5.000000000000000000 ) ;
#746 = DIRECTION ( 'NONE',  ( -0.000000000000000000, -0.000000000000000000, -1.000000000000000000 ) ) ;
#747 = CARTESIAN_POINT ( 'NONE',  ( 7.500000000000000000, 250.0000000000000000, 50.00000000000000000 ) ) ;
#748 = ORIENTED_EDGE ( 'NONE', *, *, #71, .T. ) ;
#749 = ADVANCED_FACE ( 'NONE', ( #759 ), #197, .F. ) ;
#750 = DIRECTION ( 'NONE',  ( 1.000000000000000000, 0.000000000000000000, 0.000000000000000000 ) ) ;
#751 = VECTOR ( 'NONE', #85, 1000.000000000000000 ) ;
#752 = DIRECTION ( 'NONE',  ( 0.000000000000000000, 1.387778780781445922E-16, -1.000000000000000000 ) ) ;
#753 = ORIENTED_EDGE ( 'NONE', *, *, #81, .F. ) ;
#754 = APPROVAL_DATE_TIME ( #372, #79 ) ;
#755 = PLANE ( 'NONE',  #361 ) ;
#756 = CARTESIAN_POINT ( 'NONE',  ( 5.000000000000001776, 250.0000000000000000, 0.000000000000000000 ) ) ;
#757 = ORIENTED_EDGE ( 'NONE', *, *, #32, .F. ) ;
#758 = CC_DESIGN_PERSON_AND_ORGANIZATION_ASSIGNMENT ( #492, #787, ( #588 ) ) ;
#759 = FACE_OUTER_BOUND ( 'NONE', #553, .T. ) ;
#760 = FACE_OUTER_BOUND ( 'NONE', #304, .T. ) ;
#761 = ORIENTED_EDGE ( 'NONE', *, *, #335, .F. ) ;
#762 = LINE ( 'NONE', #322, #55 ) ;
#763 = CARTESIAN_POINT ( 'NONE',  ( 5.000000000000000000, 0.000000000000000000, 0.000000000000000000 ) ) ;
#764 = VECTOR ( 'NONE', #198, 1000.000000000000000 ) ;
#765 = VERTEX_POINT ( 'NONE', #697 ) ;
#766 = ADVANCED_FACE ( 'NONE', ( #391 ), #640, .F. ) ;
#767 = CARTESIAN_POINT ( 'NONE',  ( -5.000000000000000000, 6.123233995736766282E-16, 0.000000000000000000 ) ) ;
#768 = CARTESIAN_POINT ( 'NONE',  ( 7.500000000000000000, 257.5000000000000000, 12.50000000000001066 ) ) ;
#769 = MANIFOLD_SOLID_BREP ( '切除-拉伸2', #217 ) ;
#770 = EDGE_LOOP ( 'NONE', ( #804, #679, #543, #115 ) ) ;
#771 = EDGE_CURVE ( 'NONE', #507, #346, #80, .T. ) ;
#772 = CARTESIAN_POINT ( 'NONE',  ( 5.000000000000001776, 250.0000000000000000, 0.000000000000000000 ) ) ;
#773 = CARTESIAN_POINT ( 'NONE',  ( 7.500000000000000000, 250.0000000000000000, 50.00000000000000000 ) ) ;
#774 = EDGE_LOOP ( 'NONE', ( #628, #68, #212, #385 ) ) ;
#775 = DIRECTION ( 'NONE',  ( 0.000000000000000000, 1.000000000000000000, 0.000000000000000000 ) ) ;
#776 = CARTESIAN_POINT ( 'NONE',  ( -7.500000000000000000, -7.500000000000000000, 37.50000000000000711 ) ) ;
#777 = ORGANIZATION ( '未指定', '未指定', '' ) ;
#778 = ORIENTED_EDGE ( 'NONE', *, *, #704, .T. ) ;
#779 = VECTOR ( 'NONE', #281, 1000.000000000000000 ) ;
#780 = LINE ( 'NONE', #733, #699 ) ;
#781 = EDGE_LOOP ( 'NONE', ( #200, #237 ) ) ;
#782 = PLANE ( 'NONE',  #339 ) ;
#783 = EDGE_CURVE ( 'NONE', #307, #218, #38, .T. ) ;
#784 = DIRECTION ( 'NONE',  ( 0.000000000000000000, 0.000000000000000000, 1.000000000000000000 ) ) ;
#785 = ORIENTED_EDGE ( 'NONE', *, *, #337, .T. ) ;
#786 = ORIENTED_EDGE ( 'NONE', *, *, #105, .T. ) ;
#787 = PERSON_AND_ORGANIZATION_ROLE ( 'design_supplier' ) ;
#788 = FACE_OUTER_BOUND ( 'NONE', #414, .T. ) ;
#789 = ORIENTED_EDGE ( 'NONE', *, *, #394, .T. ) ;
#790 = AXIS2_PLACEMENT_3D ( 'NONE', #369, #302, #500 ) ;
#791 = DATE_TIME_ROLE ( 'classification_date' ) ;
#792 = LINE ( 'NONE', #50, #638 ) ;
#793 = VERTEX_POINT ( 'NONE', #591 ) ;
#794 = EDGE_CURVE ( 'NONE', #153, #34, #525, .T. ) ;
#795 = ADVANCED_FACE ( 'NONE', ( #529, #465 ), #782, .F. ) ;
#796 = PERSON_AND_ORGANIZATION_ROLE ( 'creator' ) ;
#797 = DIRECTION ( 'NONE',  ( 1.000000000000000000, 0.000000000000000000, 0.000000000000000000 ) ) ;
#798 = LINE ( 'NONE', #175, #738 ) ;
#799 = CARTESIAN_POINT ( 'NONE',  ( -7.500000000000000000, 250.0000000000000000, 50.00000000000000000 ) ) ;
#800 = ORIENTED_EDGE ( 'NONE', *, *, #152, .T. ) ;
#801 = AXIS2_PLACEMENT_3D ( 'NONE', #435, #515, #133 ) ;
#802 = CARTESIAN_POINT ( 'NONE',  ( -7.500000000000000000, 207.5000000000000284, 12.50000000000000355 ) ) ;
#803 = CARTESIAN_POINT ( 'NONE',  ( -7.500000000000000000, 0.000000000000000000, 37.50000000000000711 ) ) ;
#804 = ORIENTED_EDGE ( 'NONE', *, *, #140, .F. ) ;
#805 = FACE_BOUND ( 'NONE', #781, .T. ) ;
ENDSEC;
END-ISO-10303-21;
