ISO-10303-21;
HEADER;
FILE_DESCRIPTION (( 'STEP AP203' ),
    '1' );
FILE_NAME ('link1_column_默认_sldprt.STEP',
    '2026-06-19T13:47:29',
    ( '' ),
    ( '' ),
    'SwSTEP 2.0',
    'SolidWorks 2022',
    '' );
FILE_SCHEMA (( 'CONFIG_CONTROL_DESIGN' ));
ENDSEC;

DATA;
#1 = APPROVAL ( #78, '未指定' ) ;
#2 = PERSON_AND_ORGANIZATION ( #318, #169 ) ;
#3 = ORIENTED_EDGE ( 'NONE', *, *, #351, .F. ) ;
#4 = EDGE_CURVE ( 'NONE', #88, #396, #196, .T. ) ;
#5 = MANIFOLD_SOLID_BREP ( '切除-拉伸2', #39 ) ;
#6 = CIRCLE ( 'NONE', #311, 5.000000000000007994 ) ;
#7 = CARTESIAN_POINT ( 'NONE',  ( 17.50000000000000355, 60.00000000000000711, -12.50000000000000000 ) ) ;
#8 = VERTEX_POINT ( 'NONE', #28 ) ;
#9 = CYLINDRICAL_SURFACE ( 'NONE', #117, 25.00000000000000000 ) ;
#10 = CARTESIAN_POINT ( 'NONE',  ( 3.469446951953614189E-15, 90.00000000000000000, 12.50000000000000000 ) ) ;
#11 = VERTEX_POINT ( 'NONE', #102 ) ;
#12 = DIRECTION ( 'NONE',  ( 0.000000000000000000, 0.000000000000000000, 1.000000000000000000 ) ) ;
#13 = DATE_TIME_ROLE ( 'classification_date' ) ;
#14 = ORIENTED_EDGE ( 'NONE', *, *, #115, .T. ) ;
#15 = CYLINDRICAL_SURFACE ( 'NONE', #295, 5.000000000000004441 ) ;
#16 = CIRCLE ( 'NONE', #305, 9.999999999999998224 ) ;
#17 = CARTESIAN_POINT ( 'NONE',  ( 0.000000000000000000, 50.00000000000000000, 0.000000000000000000 ) ) ;
#18 = DIRECTION ( 'NONE',  ( 0.000000000000000000, 0.000000000000000000, 1.000000000000000000 ) ) ;
#19 = FACE_OUTER_BOUND ( 'NONE', #151, .T. ) ;
#20 = DIRECTION ( 'NONE',  ( 0.000000000000000000, 0.000000000000000000, -1.000000000000000000 ) ) ;
#21 = AXIS2_PLACEMENT_3D ( 'NONE', #354, #540, #132 ) ;
#22 = PLANE ( 'NONE',  #215 ) ;
#23 = DIRECTION ( 'NONE',  ( -0.000000000000000000, -1.000000000000000000, -0.000000000000000000 ) ) ;
#24 = CARTESIAN_POINT ( 'NONE',  ( -12.50000000000000000, 91.22498999199198977, -12.50000000000000000 ) ) ;
#25 = DIRECTION ( 'NONE',  ( 0.000000000000000000, 1.000000000000000000, 0.000000000000000000 ) ) ;
#26 = CARTESIAN_POINT ( 'NONE',  ( 7.499999999999995559, 60.00000000000000711, -12.50000000000000000 ) ) ;
#27 = ADVANCED_BREP_SHAPE_REPRESENTATION ( 'link1_column_\X2\9ed88ba4\X0\_sldprt', ( #5, #539 ), #270 ) ;
#28 = CARTESIAN_POINT ( 'NONE',  ( 25.00000000000000000, 90.00000000000000000, 0.000000000000000000 ) ) ;
#29 = DIRECTION ( 'NONE',  ( 0.000000000000000000, 0.000000000000000000, 1.000000000000000000 ) ) ;
#30 = ORIENTED_EDGE ( 'NONE', *, *, #128, .F. ) ;
#31 = ADVANCED_FACE ( 'NONE', ( #380, #466 ), #70, .F. ) ;
#32 = AXIS2_PLACEMENT_3D ( 'NONE', #366, #367, #543 ) ;
#33 = EDGE_LOOP ( 'NONE', ( #116, #515, #374 ) ) ;
#34 = CALENDAR_DATE ( 2026, 19, 6 ) ;
#35 = DIRECTION ( 'NONE',  ( 1.000000000000000000, 0.000000000000000000, 0.000000000000000000 ) ) ;
#36 = DIRECTION ( 'NONE',  ( 0.000000000000000000, 0.000000000000000000, -1.000000000000000000 ) ) ;
#37 = ORIENTED_EDGE ( 'NONE', *, *, #439, .T. ) ;
#38 = EDGE_CURVE ( 'NONE', #11, #553, #16, .T. ) ;
#39 = CLOSED_SHELL ( 'NONE', ( #48, #243, #497, #535, #218, #333, #212, #181, #346, #31, #145, #502, #487, #164, #233 ) ) ;
#40 = VECTOR ( 'NONE', #231, 1000.000000000000000 ) ;
#41 = CARTESIAN_POINT ( 'NONE',  ( 0.000000000000000000, 50.00000000000000000, 0.000000000000000000 ) ) ;
#42 = APPROVAL ( #378, '未指定' ) ;
#43 = COORDINATED_UNIVERSAL_TIME_OFFSET ( 8, 0, .AHEAD. ) ;
#44 = ORIENTED_EDGE ( 'NONE', *, *, #229, .T. ) ;
#45 = DIRECTION ( 'NONE',  ( -0.000000000000000000, -0.000000000000000000, -1.000000000000000000 ) ) ;
#46 = DIRECTION ( 'NONE',  ( -0.000000000000000000, -0.000000000000000000, 1.000000000000000000 ) ) ;
#47 = VERTEX_POINT ( 'NONE', #422 ) ;
#48 = ADVANCED_FACE ( 'NONE', ( #462 ), #79, .F. ) ;
#49 = LINE ( 'NONE', #257, #51 ) ;
#50 = DIRECTION ( 'NONE',  ( -1.000000000000000000, 0.000000000000000000, 0.000000000000000000 ) ) ;
#51 = VECTOR ( 'NONE', #349, 1000.000000000000000 ) ;
#52 = ORIENTED_EDGE ( 'NONE', *, *, #251, .F. ) ;
#53 = APPROVAL_DATE_TIME ( #481, #261 ) ;
#54 = CARTESIAN_POINT ( 'NONE',  ( 17.50000000000000355, 60.00000000000000711, 12.50000000000000000 ) ) ;
#55 = EDGE_LOOP ( 'NONE', ( #97, #437, #307, #510 ) ) ;
#56 = CARTESIAN_POINT ( 'NONE',  ( 21.65063509461096913, 50.00000000000000000, -12.50000000000000000 ) ) ;
#57 = VERTEX_POINT ( 'NONE', #193 ) ;
#58 = LINE ( 'NONE', #225, #141 ) ;
#59 = PRODUCT_RELATED_PRODUCT_CATEGORY ( 'detail', '', ( #177 ) ) ;
#60 = AXIS2_PLACEMENT_3D ( 'NONE', #504, #185, #187 ) ;
#61 = APPLICATION_CONTEXT ( 'configuration controlled 3d designs of mechanical parts and assemblies' ) ;
#62 = CARTESIAN_POINT ( 'NONE',  ( -25.00000000000000000, 90.00000000000000000, 0.000000000000000000 ) ) ;
#63 = EDGE_CURVE ( 'NONE', #211, #348, #149, .T. ) ;
#64 = LINE ( 'NONE', #282, #244 ) ;
#65 = EDGE_CURVE ( 'NONE', #348, #211, #68, .T. ) ;
#66 = CARTESIAN_POINT ( 'NONE',  ( -17.50000000000000711, 91.22498999199198977, -12.50000000000000000 ) ) ;
#67 = CARTESIAN_POINT ( 'NONE',  ( -24.99999999999999645, 94.41391782007330846, 4.413917820073316456 ) ) ;
#68 = CIRCLE ( 'NONE', #455, 5.000000000000007994 ) ;
#69 = AXIS2_PLACEMENT_3D ( 'NONE', #458, #103, #365 ) ;
#70 = PLANE ( 'NONE',  #508 ) ;
#71 = CARTESIAN_POINT ( 'NONE',  ( 0.000000000000000000, 50.00000000000000000, 0.000000000000000000 ) ) ;
#72 = DIRECTION ( 'NONE',  ( -0.000000000000000000, -0.000000000000000000, 1.000000000000000000 ) ) ;
#73 = ORIENTED_EDGE ( 'NONE', *, *, #544, .F. ) ;
#74 = DIRECTION ( 'NONE',  ( 1.000000000000000000, 0.000000000000000000, 0.000000000000000000 ) ) ;
#75 = EDGE_CURVE ( 'NONE', #250, #130, #342, .T. ) ;
#76 = CALENDAR_DATE ( 2026, 19, 6 ) ;
#77 = AXIS2_PLACEMENT_3D ( 'NONE', #459, #402, #18 ) ;
#78 = APPROVAL_STATUS ( 'not_yet_approved' ) ;
#79 = CYLINDRICAL_SURFACE ( 'NONE', #121, 5.000000000000007994 ) ;
#80 = EDGE_LOOP ( 'NONE', ( #208, #383 ) ) ;
#81 = DATE_AND_TIME ( #76, #159 ) ;
#82 = ORIENTED_EDGE ( 'NONE', *, *, #464, .T. ) ;
#83 = DIRECTION ( 'NONE',  ( 0.000000000000000000, 0.000000000000000000, 1.000000000000000000 ) ) ;
#84 = ORIENTED_EDGE ( 'NONE', *, *, #377, .F. ) ;
#85 = ORIENTED_EDGE ( 'NONE', *, *, #38, .T. ) ;
#86 = APPROVAL_ROLE ( '' ) ;
#87 = CARTESIAN_POINT ( 'NONE',  ( 25.00000000000000000, 90.00000000000000000, 0.000000000000000000 ) ) ;
#88 = VERTEX_POINT ( 'NONE', #108 ) ;
#89 = CIRCLE ( 'NONE', #438, 9.999999999999998224 ) ;
#90 = CARTESIAN_POINT ( 'NONE',  ( 0.000000000000000000, 50.00000000000000000, 0.000000000000000000 ) ) ;
#91 = ORIENTED_EDGE ( 'NONE', *, *, #326, .F. ) ;
#92 = EDGE_CURVE ( 'NONE', #335, #57, #281, .T. ) ;
#93 = DIRECTION ( 'NONE',  ( 0.000000000000000000, -0.000000000000000000, 1.000000000000000000 ) ) ;
#94 = ORIENTED_EDGE ( 'NONE', *, *, #192, .T. ) ;
#95 = DIRECTION ( 'NONE',  ( 0.000000000000000000, 1.000000000000000000, 0.000000000000000000 ) ) ;
#96 = DIRECTION ( 'NONE',  ( 0.000000000000000000, 0.000000000000000000, 1.000000000000000000 ) ) ;
#97 = ORIENTED_EDGE ( 'NONE', *, *, #92, .T. ) ;
#98 =( BOUNDED_CURVE ( )  B_SPLINE_CURVE ( 3, ( #129, #485, #268, #299 ),
 .UNSPECIFIED., .F., .F. ) 
 B_SPLINE_CURVE_WITH_KNOTS ( ( 4, 4 ),
 ( 4.712388980384689674, 5.235987755982987935 ),
 .UNSPECIFIED. ) 
 CURVE ( )  GEOMETRIC_REPRESENTATION_ITEM ( )  RATIONAL_B_SPLINE_CURVE ( ( 1.000000000000000000, 0.9772838841927120601, 0.9772838841927120601, 1.000000000000000000 ) ) 
 REPRESENTATION_ITEM ( '' )  );
#99 = COORDINATED_UNIVERSAL_TIME_OFFSET ( 8, 0, .AHEAD. ) ;
#100 = CARTESIAN_POINT ( 'NONE',  ( 23.85759400464762336, 98.67743503759967894, 8.677435037599687817 ) ) ;
#101 = CARTESIAN_POINT ( 'NONE',  ( -25.00000000000000000, 50.00000000000000000, 12.50000000000000000 ) ) ;
#102 = CARTESIAN_POINT ( 'NONE',  ( 0.000000000000000000, 50.00000000000000000, -9.999999999999998224 ) ) ;
#103 = DIRECTION ( 'NONE',  ( -0.000000000000000000, -0.000000000000000000, 1.000000000000000000 ) ) ;
#104 = DIRECTION ( 'NONE',  ( -0.000000000000000000, -0.000000000000000000, 1.000000000000000000 ) ) ;
#105 = CIRCLE ( 'NONE', #447, 25.00000000000000000 ) ;
#106 = PRODUCT_DEFINITION_FORMATION_WITH_SPECIFIED_SOURCE ( '任何', '', #177, .NOT_KNOWN. ) ;
#107 = EDGE_CURVE ( 'NONE', #489, #335, #499, .T. ) ;
#108 = CARTESIAN_POINT ( 'NONE',  ( -21.65063509461096913, 102.5000000000000000, -12.50000000000000000 ) ) ;
#109 = CARTESIAN_POINT ( 'NONE',  ( 21.65063509461096558, 50.00000000000000000, 12.50000000000000000 ) ) ;
#110 = CARTESIAN_POINT ( 'NONE',  ( -21.65063509461096913, 114.9999999999999858, -12.50000000000000000 ) ) ;
#111 = CARTESIAN_POINT ( 'NONE',  ( -12.50000000000000000, 91.22498999199198977, 12.50000000000000000 ) ) ;
#112 = EDGE_LOOP ( 'NONE', ( #44, #506 ) ) ;
#113 = CARTESIAN_POINT ( 'NONE',  ( 0.000000000000000000, 50.00000000000000000, 0.000000000000000000 ) ) ;
#114 = PERSON_AND_ORGANIZATION ( #318, #169 ) ;
#115 = EDGE_CURVE ( 'NONE', #195, #137, #6, .T. ) ;
#116 = ORIENTED_EDGE ( 'NONE', *, *, #452, .F. ) ;
#117 = AXIS2_PLACEMENT_3D ( 'NONE', #339, #345, #172 ) ;
#118 = CARTESIAN_POINT ( 'NONE',  ( 3.061616997868383043E-15, 50.00000000000000000, 25.00000000000000000 ) ) ;
#119 = PERSON_AND_ORGANIZATION_ROLE ( 'creator' ) ;
#120 = VERTEX_POINT ( 'NONE', #206 ) ;
#121 = AXIS2_PLACEMENT_3D ( 'NONE', #153, #238, #35 ) ;
#122 = EDGE_CURVE ( 'NONE', #265, #379, #542, .T. ) ;
#123 = AXIS2_PLACEMENT_3D ( 'NONE', #111, #29, #194 ) ;
#124 = LOCAL_TIME ( 21, 47, 29.00000000000000000, #43 ) ;
#125 = EDGE_LOOP ( 'NONE', ( #417, #267, #294, #223 ) ) ;
#126 = CARTESIAN_POINT ( 'NONE',  ( -12.50000000000000000, 91.22498999199198977, 12.50000000000000000 ) ) ;
#127 = COORDINATED_UNIVERSAL_TIME_OFFSET ( 8, 0, .AHEAD. ) ;
#128 = EDGE_CURVE ( 'NONE', #11, #393, #49, .T. ) ;
#129 = CARTESIAN_POINT ( 'NONE',  ( -25.00000000000000000, 90.00000000000000000, 0.000000000000000000 ) ) ;
#130 = VERTEX_POINT ( 'NONE', #214 ) ;
#131 = FACE_OUTER_BOUND ( 'NONE', #478, .T. ) ;
#132 = DIRECTION ( 'NONE',  ( 1.000000000000000000, 0.000000000000000000, 0.000000000000000000 ) ) ;
#133 = ORIENTED_EDGE ( 'NONE', *, *, #122, .F. ) ;
#134 = VECTOR ( 'NONE', #104, 1000.000000000000000 ) ;
#135 = DIRECTION ( 'NONE',  ( -1.000000000000000000, 0.000000000000000000, 0.000000000000000000 ) ) ;
#136 = LOCAL_TIME ( 21, 47, 29.00000000000000000, #99 ) ;
#137 = VERTEX_POINT ( 'NONE', #427 ) ;
#138 = DIRECTION ( 'NONE',  ( -0.000000000000000000, -0.000000000000000000, -1.000000000000000000 ) ) ;
#139 = DIRECTION ( 'NONE',  ( -0.000000000000000000, 0.000000000000000000, -1.000000000000000000 ) ) ;
#140 = DIRECTION ( 'NONE',  ( 0.000000000000000000, -0.000000000000000000, 1.000000000000000000 ) ) ;
#141 = VECTOR ( 'NONE', #401, 1000.000000000000000 ) ;
#142 = DIRECTION ( 'NONE',  ( 0.000000000000000000, 0.000000000000000000, 1.000000000000000000 ) ) ;
#143 = CARTESIAN_POINT ( 'NONE',  ( 24.99999999999999645, 94.41391782007332267, 4.413917820073322673 ) ) ;
#144 = CARTESIAN_POINT ( 'NONE',  ( -21.65063509461096913, 50.00000000000000000, -12.50000000000000000 ) ) ;
#145 = ADVANCED_FACE ( 'NONE', ( #131 ), #9, .T. ) ;
#146 = ORIENTED_EDGE ( 'NONE', *, *, #391, .F. ) ;
#147 = DIRECTION ( 'NONE',  ( 0.000000000000000000, 1.000000000000000000, 0.000000000000000000 ) ) ;
#148 = DIRECTION ( 'NONE',  ( -0.000000000000000000, -1.000000000000000000, -0.000000000000000000 ) ) ;
#149 = CIRCLE ( 'NONE', #269, 5.000000000000007994 ) ;
#150 = AXIS2_PLACEMENT_3D ( 'NONE', #178, #436, #310 ) ;
#151 = EDGE_LOOP ( 'NONE', ( #220, #217, #473 ) ) ;
#152 = DIRECTION ( 'NONE',  ( -0.000000000000000000, -0.000000000000000000, 1.000000000000000000 ) ) ;
#153 = CARTESIAN_POINT ( 'NONE',  ( -12.50000000000000000, 91.22498999199198977, -25.00000000000000355 ) ) ;
#154 = ORIENTED_EDGE ( 'NONE', *, *, #432, .T. ) ;
#155 = DIRECTION ( 'NONE',  ( 0.000000000000000000, 1.000000000000000000, 0.000000000000000000 ) ) ;
#156 = DIRECTION ( 'NONE',  ( -1.000000000000000000, 0.000000000000000000, 0.000000000000000000 ) ) ;
#157 = VERTEX_POINT ( 'NONE', #302 ) ;
#158 = AXIS2_PLACEMENT_3D ( 'NONE', #10, #138, #135 ) ;
#159 = LOCAL_TIME ( 21, 47, 29.00000000000000000, #293 ) ;
#160 = EDGE_LOOP ( 'NONE', ( #301, #457 ) ) ;
#161 = DIRECTION ( 'NONE',  ( -1.000000000000000000, 0.000000000000000000, 0.000000000000000000 ) ) ;
#162 =( NAMED_UNIT ( * ) SI_UNIT ( $, .STERADIAN. ) SOLID_ANGLE_UNIT ( ) );
#163 = ORIENTED_EDGE ( 'NONE', *, *, #415, .F. ) ;
#164 = ADVANCED_FACE ( 'NONE', ( #440 ), #363, .F. ) ;
#165 = MECHANICAL_CONTEXT ( 'NONE', #61, 'mechanical' ) ;
#166 = ORIENTED_EDGE ( 'NONE', *, *, #122, .T. ) ;
#167 = VECTOR ( 'NONE', #513, 1000.000000000000000 ) ;
#168 = CIRCLE ( 'NONE', #77, 25.00000000000000000 ) ;
#169 = ORGANIZATION ( '未指定', '未指定', '' ) ;
#170 = FACE_OUTER_BOUND ( 'NONE', #445, .T. ) ;
#171 = ORIENTED_EDGE ( 'NONE', *, *, #561, .T. ) ;
#172 = DIRECTION ( 'NONE',  ( 0.000000000000000000, 0.000000000000000000, -1.000000000000000000 ) ) ;
#173 = CARTESIAN_POINT ( 'NONE',  ( 23.85759400464763047, 98.67743503759966472, -8.677435037599678935 ) ) ;
#174 = VERTEX_POINT ( 'NONE', #274 ) ;
#175 = DIRECTION ( 'NONE',  ( -0.000000000000000000, -1.000000000000000000, -0.000000000000000000 ) ) ;
#176 = EDGE_LOOP ( 'NONE', ( #166, #465, #536, #146 ) ) ;
#177 = PRODUCT ( 'link1_column_\X2\9ed88ba4\X0\_sldprt', 'link1_column_\X2\9ed88ba4\X0\_sldprt', '', ( #165 ) ) ;
#178 = CARTESIAN_POINT ( 'NONE',  ( -12.50000000000000000, 91.22498999199198977, -25.00000000000000355 ) ) ;
#179 = APPROVAL_PERSON_ORGANIZATION ( #556, #1, #241 ) ;
#180 = CARTESIAN_POINT ( 'NONE',  ( 0.000000000000000000, 50.00000000000000000, 0.000000000000000000 ) ) ;
#181 = ADVANCED_FACE ( 'NONE', ( #19 ), #190, .T. ) ;
#182 = CARTESIAN_POINT ( 'NONE',  ( 21.65063509461096558, 102.5000000000000142, 12.50000000000000000 ) ) ;
#183 = PERSON_AND_ORGANIZATION ( #318, #169 ) ;
#184 = EDGE_CURVE ( 'NONE', #157, #393, #334, .T. ) ;
#185 = DIRECTION ( 'NONE',  ( 0.000000000000000000, 1.000000000000000000, 0.000000000000000000 ) ) ;
#186 = CYLINDRICAL_SURFACE ( 'NONE', #32, 9.999999999999998224 ) ;
#187 = DIRECTION ( 'NONE',  ( 0.000000000000000000, 0.000000000000000000, 1.000000000000000000 ) ) ;
#188 = DIRECTION ( 'NONE',  ( 0.000000000000000000, 1.000000000000000000, 0.000000000000000000 ) ) ;
#189 = DIRECTION ( 'NONE',  ( -1.000000000000000000, 0.000000000000000000, 0.000000000000000000 ) ) ;
#190 = PLANE ( 'NONE',  #522 ) ;
#191 = FACE_OUTER_BOUND ( 'NONE', #471, .T. ) ;
#192 = EDGE_CURVE ( 'NONE', #47, #174, #357, .T. ) ;
#193 = CARTESIAN_POINT ( 'NONE',  ( -21.65063509461096913, 50.00000000000000000, 12.50000000000000000 ) ) ;
#194 = DIRECTION ( 'NONE',  ( 1.000000000000000000, 0.000000000000000000, 0.000000000000000000 ) ) ;
#195 = VERTEX_POINT ( 'NONE', #315 ) ;
#196 = LINE ( 'NONE', #110, #213 ) ;
#197 = DATE_AND_TIME ( #34, #479 ) ;
#198 = EDGE_CURVE ( 'NONE', #489, #408, #545, .T. ) ;
#199 = CARTESIAN_POINT ( 'NONE',  ( 12.50000000000000000, 60.00000000000000711, 12.50000000000000000 ) ) ;
#200 = DATE_AND_TIME ( #527, #124 ) ;
#201 = DIRECTION ( 'NONE',  ( -0.000000000000000000, 0.000000000000000000, -1.000000000000000000 ) ) ;
#202 = ORIENTED_EDGE ( 'NONE', *, *, #75, .T. ) ;
#203 = ORIENTED_EDGE ( 'NONE', *, *, #475, .F. ) ;
#204 = VECTOR ( 'NONE', #148, 1000.000000000000000 ) ;
#205 = CARTESIAN_POINT ( 'NONE',  ( 1.224646799147353059E-15, 50.00000000000000000, 9.999999999999998224 ) ) ;
#206 = CARTESIAN_POINT ( 'NONE',  ( 21.65063509461096913, 102.5000000000000142, -12.50000000000000000 ) ) ;
#207 = APPROVAL_DATE_TIME ( #200, #42 ) ;
#208 = ORIENTED_EDGE ( 'NONE', *, *, #65, .F. ) ;
#209 = EDGE_CURVE ( 'NONE', #256, #396, #279, .T. ) ;
#210 = CYLINDRICAL_SURFACE ( 'NONE', #150, 5.000000000000007994 ) ;
#211 = VERTEX_POINT ( 'NONE', #66 ) ;
#212 = ADVANCED_FACE ( 'NONE', ( #548, #406, #403 ), #22, .F. ) ;
#213 = VECTOR ( 'NONE', #368, 1000.000000000000000 ) ;
#214 = CARTESIAN_POINT ( 'NONE',  ( 7.499999999999995559, 60.00000000000000711, 12.50000000000000000 ) ) ;
#215 = AXIS2_PLACEMENT_3D ( 'NONE', #319, #201, #156 ) ;
#216 = LINE ( 'NONE', #395, #373 ) ;
#217 = ORIENTED_EDGE ( 'NONE', *, *, #209, .T. ) ;
#218 = ADVANCED_FACE ( 'NONE', ( #413, #488, #534 ), #442, .T. ) ;
#219 = DIRECTION ( 'NONE',  ( 1.000000000000000000, 0.000000000000000000, 0.000000000000000000 ) ) ;
#220 = ORIENTED_EDGE ( 'NONE', *, *, #544, .T. ) ;
#221 = UNCERTAINTY_MEASURE_WITH_UNIT (LENGTH_MEASURE( 1.000000000000000082E-05 ), #423, 'distance_accuracy_value', 'NONE');
#222 = DIRECTION ( 'NONE',  ( 0.000000000000000000, 0.000000000000000000, 1.000000000000000000 ) ) ;
#223 = ORIENTED_EDGE ( 'NONE', *, *, #184, .F. ) ;
#224 = CIRCLE ( 'NONE', #21, 5.000000000000004441 ) ;
#225 = CARTESIAN_POINT ( 'NONE',  ( 7.499999999999995559, 60.00000000000000711, -25.00000000000000355 ) ) ;
#226 = LINE ( 'NONE', #278, #204 ) ;
#227 = CYLINDRICAL_SURFACE ( 'NONE', #312, 9.999999999999998224 ) ;
#228 = ORIENTED_EDGE ( 'NONE', *, *, #229, .F. ) ;
#229 = EDGE_CURVE ( 'NONE', #393, #157, #89, .T. ) ;
#230 = DIRECTION ( 'NONE',  ( 0.000000000000000000, -0.000000000000000000, 1.000000000000000000 ) ) ;
#231 = DIRECTION ( 'NONE',  ( 1.000000000000000000, 0.000000000000000000, 0.000000000000000000 ) ) ;
#232 = AXIS2_PLACEMENT_3D ( 'NONE', #360, #188, #323 ) ;
#233 = ADVANCED_FACE ( 'NONE', ( #170 ), #210, .F. ) ;
#234 = DIRECTION ( 'NONE',  ( 0.000000000000000000, -0.000000000000000000, 1.000000000000000000 ) ) ;
#235 = DESIGN_CONTEXT ( 'detailed design', #313, 'design' ) ;
#236 = DIRECTION ( 'NONE',  ( 0.000000000000000000, 0.000000000000000000, 1.000000000000000000 ) ) ;
#237 = DIRECTION ( 'NONE',  ( 0.000000000000000000, 1.000000000000000000, 0.000000000000000000 ) ) ;
#238 = DIRECTION ( 'NONE',  ( -0.000000000000000000, -0.000000000000000000, 1.000000000000000000 ) ) ;
#239 = CARTESIAN_POINT ( 'NONE',  ( -25.00000000000000000, 90.00000000000000000, 0.000000000000000000 ) ) ;
#240 = VERTEX_POINT ( 'NONE', #56 ) ;
#241 = APPROVAL_ROLE ( '' ) ;
#242 = AXIS2_PLACEMENT_3D ( 'NONE', #523, #12, #430 ) ;
#243 = ADVANCED_FACE ( 'NONE', ( #498 ), #15, .F. ) ;
#244 = VECTOR ( 'NONE', #152, 1000.000000000000000 ) ;
#245 = ORIENTED_EDGE ( 'NONE', *, *, #364, .F. ) ;
#246 = SECURITY_CLASSIFICATION_LEVEL ( 'unclassified' ) ;
#247 = ORIENTED_EDGE ( 'NONE', *, *, #285, .T. ) ;
#248 = DIRECTION ( 'NONE',  ( -1.000000000000000000, 0.000000000000000000, 0.000000000000000000 ) ) ;
#249 = CARTESIAN_POINT ( 'NONE',  ( 12.50000000000000000, 60.00000000000000711, -12.50000000000000000 ) ) ;
#250 = VERTEX_POINT ( 'NONE', #54 ) ;
#251 = EDGE_CURVE ( 'NONE', #256, #47, #216, .T. ) ;
#252 = EDGE_LOOP ( 'NONE', ( #529, #154, #14, #163 ) ) ;
#253 = VECTOR ( 'NONE', #23, 1000.000000000000000 ) ;
#254 = SECURITY_CLASSIFICATION ( '', '', #246 ) ;
#255 = APPLICATION_PROTOCOL_DEFINITION ( 'international standard', 'config_control_design', 1994, #61 ) ;
#256 = VERTEX_POINT ( 'NONE', #352 ) ;
#257 = CARTESIAN_POINT ( 'NONE',  ( 0.000000000000000000, 50.00000000000000000, -9.999999999999998224 ) ) ;
#258 = EDGE_LOOP ( 'NONE', ( #483, #84 ) ) ;
#259 = FACE_OUTER_BOUND ( 'NONE', #433, .T. ) ;
#260 = ORIENTED_EDGE ( 'NONE', *, *, #326, .T. ) ;
#261 = APPROVAL ( #350, '未指定' ) ;
#262 = AXIS2_PLACEMENT_3D ( 'NONE', #410, #322, #142 ) ;
#263 = CC_DESIGN_SECURITY_CLASSIFICATION ( #254, ( #106 ) ) ;
#264 = CARTESIAN_POINT ( 'NONE',  ( 1.224646799147353059E-15, 50.00000000000000000, 9.999999999999998224 ) ) ;
#265 = VERTEX_POINT ( 'NONE', #7 ) ;
#266 = CARTESIAN_POINT ( 'NONE',  ( -7.499999999999992895, 91.22498999199198977, -12.50000000000000000 ) ) ;
#267 = ORIENTED_EDGE ( 'NONE', *, *, #351, .T. ) ;
#268 = CARTESIAN_POINT ( 'NONE',  ( -23.85759400464763047, 98.67743503759965051, -8.677435037599661172 ) ) ;
#269 = AXIS2_PLACEMENT_3D ( 'NONE', #376, #519, #248 ) ;
#270 =( GEOMETRIC_REPRESENTATION_CONTEXT ( 3 ) GLOBAL_UNCERTAINTY_ASSIGNED_CONTEXT ( ( #221 ) ) GLOBAL_UNIT_ASSIGNED_CONTEXT ( ( #423, #426, #162 ) ) REPRESENTATION_CONTEXT ( 'NONE', 'WORKASPACE' ) );
#271 = CARTESIAN_POINT ( 'NONE',  ( 12.50000000000000000, 60.00000000000000711, -25.00000000000000355 ) ) ;
#272 = CALENDAR_DATE ( 2026, 19, 6 ) ;
#273 = CARTESIAN_POINT ( 'NONE',  ( 25.00000000000000000, 90.00000000000000000, 0.000000000000000000 ) ) ;
#274 = CARTESIAN_POINT ( 'NONE',  ( 3.061616997868383043E-15, 0.000000000000000000, 25.00000000000000000 ) ) ;
#275 = FACE_OUTER_BOUND ( 'NONE', #386, .T. ) ;
#276 = ORIENTED_EDGE ( 'NONE', *, *, #391, .T. ) ;
#277 = CARTESIAN_POINT ( 'NONE',  ( 0.000000000000000000, 50.00000000000000000, 0.000000000000000000 ) ) ;
#278 = CARTESIAN_POINT ( 'NONE',  ( 21.65063509461096913, 114.9999999999999858, -12.50000000000000000 ) ) ;
#279 = CIRCLE ( 'NONE', #520, 25.00000000000000000 ) ;
#280 = CC_DESIGN_APPROVAL ( #42, ( #482 ) ) ;
#281 = LINE ( 'NONE', #460, #167 ) ;
#282 = CARTESIAN_POINT ( 'NONE',  ( -7.499999999999992895, 91.22498999199198977, -25.00000000000000355 ) ) ;
#283 = CARTESIAN_POINT ( 'NONE',  ( 0.000000000000000000, 0.000000000000000000, 0.000000000000000000 ) ) ;
#284 = DATE_TIME_ROLE ( 'creation_date' ) ;
#285 = EDGE_CURVE ( 'NONE', #416, #88, #98, .T. ) ;
#286 = ORIENTED_EDGE ( 'NONE', *, *, #412, .F. ) ;
#287 = DIRECTION ( 'NONE',  ( 0.000000000000000000, 0.000000000000000000, 1.000000000000000000 ) ) ;
#288 = DIRECTION ( 'NONE',  ( 1.000000000000000000, 0.000000000000000000, 0.000000000000000000 ) ) ;
#289 = AXIS2_PLACEMENT_3D ( 'NONE', #384, #45, #480 ) ;
#290 = ORIENTED_EDGE ( 'NONE', *, *, #4, .T. ) ;
#291 = ORIENTED_EDGE ( 'NONE', *, *, #292, .T. ) ;
#292 = EDGE_CURVE ( 'NONE', #553, #157, #531, .T. ) ;
#293 = COORDINATED_UNIVERSAL_TIME_OFFSET ( 8, 0, .AHEAD. ) ;
#294 = ORIENTED_EDGE ( 'NONE', *, *, #128, .T. ) ;
#295 = AXIS2_PLACEMENT_3D ( 'NONE', #271, #46, #219 ) ;
#296 = SHAPE_DEFINITION_REPRESENTATION ( #494, #27 ) ;
#297 = ORIENTED_EDGE ( 'NONE', *, *, #439, .F. ) ;
#298 = PERSON_AND_ORGANIZATION ( #318, #169 ) ;
#299 = CARTESIAN_POINT ( 'NONE',  ( -21.65063509461096913, 102.5000000000000000, -12.50000000000000000 ) ) ;
#300 = CC_DESIGN_PERSON_AND_ORGANIZATION_ASSIGNMENT ( #114, #467, ( #106 ) ) ;
#301 = ORIENTED_EDGE ( 'NONE', *, *, #464, .F. ) ;
#302 = CARTESIAN_POINT ( 'NONE',  ( 1.224646799147353059E-15, 0.000000000000000000, 9.999999999999998224 ) ) ;
#303 = CARTESIAN_POINT ( 'NONE',  ( -21.65063509461096913, 102.5000000000000000, 12.50000000000000000 ) ) ;
#304 = ORIENTED_EDGE ( 'NONE', *, *, #432, .F. ) ;
#305 = AXIS2_PLACEMENT_3D ( 'NONE', #113, #409, #287 ) ;
#306 = CARTESIAN_POINT ( 'NONE',  ( 21.65063509461096913, 102.5000000000000142, -12.50000000000000000 ) ) ;
#307 = ORIENTED_EDGE ( 'NONE', *, *, #198, .F. ) ;
#308 = PLANE ( 'NONE',  #550 ) ;
#309 = CC_DESIGN_PERSON_AND_ORGANIZATION_ASSIGNMENT ( #330, #517, ( #106 ) ) ;
#310 = DIRECTION ( 'NONE',  ( 1.000000000000000000, 0.000000000000000000, 0.000000000000000000 ) ) ;
#311 = AXIS2_PLACEMENT_3D ( 'NONE', #126, #474, #435 ) ;
#312 = AXIS2_PLACEMENT_3D ( 'NONE', #407, #404, #20 ) ;
#313 = APPLICATION_CONTEXT ( 'configuration controlled 3d designs of mechanical parts and assemblies' ) ;
#314 = CARTESIAN_POINT ( 'NONE',  ( 21.65063509461096558, 102.5000000000000142, 12.50000000000000000 ) ) ;
#315 = CARTESIAN_POINT ( 'NONE',  ( -17.50000000000000711, 91.22498999199198977, 12.50000000000000000 ) ) ;
#316 = CARTESIAN_POINT ( 'NONE',  ( -25.00000000000000000, 50.00000000000000000, 12.50000000000000000 ) ) ;
#317 = EDGE_CURVE ( 'NONE', #130, #250, #224, .T. ) ;
#318 = PERSON ( '未指定', '未指定', '未指定', ('未指定'), ('未指定'), ('未指定') ) ;
#319 = CARTESIAN_POINT ( 'NONE',  ( 3.469446951953614189E-15, 90.00000000000000000, 12.50000000000000000 ) ) ;
#320 = CARTESIAN_POINT ( 'NONE',  ( 17.50000000000000355, 60.00000000000000711, -25.00000000000000355 ) ) ;
#321 = DIRECTION ( 'NONE',  ( 1.000000000000000000, 0.000000000000000000, 0.000000000000000000 ) ) ;
#322 = DIRECTION ( 'NONE',  ( 0.000000000000000000, 1.000000000000000000, 0.000000000000000000 ) ) ;
#323 = DIRECTION ( 'NONE',  ( 0.000000000000000000, 0.000000000000000000, 1.000000000000000000 ) ) ;
#324 = CIRCLE ( 'NONE', #232, 25.00000000000000000 ) ;
#325 = CC_DESIGN_APPROVAL ( #1, ( #106 ) ) ;
#326 = EDGE_CURVE ( 'NONE', #120, #8, #387, .T. ) ;
#327 = ORIENTED_EDGE ( 'NONE', *, *, #491, .F. ) ;
#328 = CARTESIAN_POINT ( 'NONE',  ( -25.00000000000000000, 50.00000000000000000, -12.50000000000000000 ) ) ;
#329 = ORIENTED_EDGE ( 'NONE', *, *, #63, .T. ) ;
#330 = PERSON_AND_ORGANIZATION ( #318, #169 ) ;
#331 = ORIENTED_EDGE ( 'NONE', *, *, #317, .F. ) ;
#332 = ORIENTED_EDGE ( 'NONE', *, *, #285, .F. ) ;
#333 = ADVANCED_FACE ( 'NONE', ( #259 ), #392, .T. ) ;
#334 = CIRCLE ( 'NONE', #60, 9.999999999999998224 ) ;
#335 = VERTEX_POINT ( 'NONE', #303 ) ;
#336 = APPROVAL_PERSON_ORGANIZATION ( #183, #261, #86 ) ;
#337 = CC_DESIGN_PERSON_AND_ORGANIZATION_ASSIGNMENT ( #340, #385, ( #177 ) ) ;
#338 = ORIENTED_EDGE ( 'NONE', *, *, #38, .F. ) ;
#339 = CARTESIAN_POINT ( 'NONE',  ( 0.000000000000000000, 50.00000000000000000, 0.000000000000000000 ) ) ;
#340 = PERSON_AND_ORGANIZATION ( #318, #169 ) ;
#341 = ORIENTED_EDGE ( 'NONE', *, *, #415, .T. ) ;
#342 = CIRCLE ( 'NONE', #418, 5.000000000000004441 ) ;
#343 = CIRCLE ( 'NONE', #123, 5.000000000000007994 ) ;
#344 = APPROVAL_PERSON_ORGANIZATION ( #476, #42, #431 ) ;
#345 = DIRECTION ( 'NONE',  ( -0.000000000000000000, -1.000000000000000000, -0.000000000000000000 ) ) ;
#346 = ADVANCED_FACE ( 'NONE', ( #492 ), #308, .T. ) ;
#347 = CARTESIAN_POINT ( 'NONE',  ( 3.469446951953614189E-15, 90.00000000000000000, -12.50000000000000000 ) ) ;
#348 = VERTEX_POINT ( 'NONE', #266 ) ;
#349 = DIRECTION ( 'NONE',  ( -0.000000000000000000, -1.000000000000000000, -0.000000000000000000 ) ) ;
#350 = APPROVAL_STATUS ( 'not_yet_approved' ) ;
#351 = EDGE_CURVE ( 'NONE', #553, #11, #490, .T. ) ;
#352 = CARTESIAN_POINT ( 'NONE',  ( 0.000000000000000000, 50.00000000000000000, -25.00000000000000000 ) ) ;
#353 = ORIENTED_EDGE ( 'NONE', *, *, #377, .T. ) ;
#354 = CARTESIAN_POINT ( 'NONE',  ( 12.50000000000000000, 60.00000000000000711, 12.50000000000000000 ) ) ;
#355 = EDGE_LOOP ( 'NONE', ( #486, #525, #353, #52, #73, #297, #260, #327, #503 ) ) ;
#356 = EDGE_CURVE ( 'NONE', #555, #408, #477, .T. ) ;
#357 = CIRCLE ( 'NONE', #262, 25.00000000000000000 ) ;
#358 = CARTESIAN_POINT ( 'NONE',  ( 24.99999999999999645, 94.41391782007332267, -4.413917820073319120 ) ) ;
#359 = CC_DESIGN_DATE_AND_TIME_ASSIGNMENT ( #441, #13, ( #254 ) ) ;
#360 = CARTESIAN_POINT ( 'NONE',  ( 0.000000000000000000, 0.000000000000000000, 0.000000000000000000 ) ) ;
#361 = CARTESIAN_POINT ( 'NONE',  ( 0.000000000000000000, 0.000000000000000000, -9.999999999999998224 ) ) ;
#362 = ORIENTED_EDGE ( 'NONE', *, *, #394, .F. ) ;
#363 = CYLINDRICAL_SURFACE ( 'NONE', #69, 5.000000000000004441 ) ;
#364 = EDGE_CURVE ( 'NONE', #379, #130, #58, .T. ) ;
#365 = DIRECTION ( 'NONE',  ( 1.000000000000000000, 0.000000000000000000, 0.000000000000000000 ) ) ;
#366 = CARTESIAN_POINT ( 'NONE',  ( 0.000000000000000000, 50.00000000000000000, 0.000000000000000000 ) ) ;
#367 = DIRECTION ( 'NONE',  ( -0.000000000000000000, -1.000000000000000000, -0.000000000000000000 ) ) ;
#368 = DIRECTION ( 'NONE',  ( -0.000000000000000000, -1.000000000000000000, -0.000000000000000000 ) ) ;
#369 = DIRECTION ( 'NONE',  ( -0.000000000000000000, -1.000000000000000000, -0.000000000000000000 ) ) ;
#370 = FACE_OUTER_BOUND ( 'NONE', #125, .T. ) ;
#371 = ORIENTED_EDGE ( 'NONE', *, *, #75, .F. ) ;
#372 = CARTESIAN_POINT ( 'NONE',  ( -21.65063509461096913, 102.5000000000000000, 12.50000000000000000 ) ) ;
#373 = VECTOR ( 'NONE', #388, 1000.000000000000000 ) ;
#374 = ORIENTED_EDGE ( 'NONE', *, *, #356, .T. ) ;
#375 = EDGE_LOOP ( 'NONE', ( #362, #37, #443, #434 ) ) ;
#376 = CARTESIAN_POINT ( 'NONE',  ( -12.50000000000000000, 91.22498999199198977, -12.50000000000000000 ) ) ;
#377 = EDGE_CURVE ( 'NONE', #174, #47, #324, .T. ) ;
#378 = APPROVAL_STATUS ( 'not_yet_approved' ) ;
#379 = VERTEX_POINT ( 'NONE', #26 ) ;
#380 = FACE_OUTER_BOUND ( 'NONE', #258, .T. ) ;
#381 = CARTESIAN_POINT ( 'NONE',  ( 0.000000000000000000, 0.000000000000000000, 0.000000000000000000 ) ) ;
#382 = VECTOR ( 'NONE', #369, 1000.000000000000000 ) ;
#383 = ORIENTED_EDGE ( 'NONE', *, *, #63, .F. ) ;
#384 = CARTESIAN_POINT ( 'NONE',  ( 12.50000000000000000, 60.00000000000000711, -12.50000000000000000 ) ) ;
#385 = PERSON_AND_ORGANIZATION_ROLE ( 'design_owner' ) ;
#386 = EDGE_LOOP ( 'NONE', ( #85, #291, #228, #30 ) ) ;
#387 =( BOUNDED_CURVE ( )  B_SPLINE_CURVE ( 3, ( #306, #173, #358, #87 ),
 .UNSPECIFIED., .F., .F. ) 
 B_SPLINE_CURVE_WITH_KNOTS ( ( 4, 4 ),
 ( 1.047197551196597631, 1.570796326794896558 ),
 .UNSPECIFIED. ) 
 CURVE ( )  GEOMETRIC_REPRESENTATION_ITEM ( )  RATIONAL_B_SPLINE_CURVE ( ( 1.000000000000000000, 0.9772838841927120601, 0.9772838841927120601, 1.000000000000000000 ) ) 
 REPRESENTATION_ITEM ( '' )  );
#388 = DIRECTION ( 'NONE',  ( -0.000000000000000000, -1.000000000000000000, -0.000000000000000000 ) ) ;
#389 = ORIENTED_EDGE ( 'NONE', *, *, #394, .T. ) ;
#390 = AXIS2_PLACEMENT_3D ( 'NONE', #316, #237, #140 ) ;
#391 = EDGE_CURVE ( 'NONE', #265, #250, #448, .T. ) ;
#392 = CYLINDRICAL_SURFACE ( 'NONE', #158, 25.00000000000000000 ) ;
#393 = VERTEX_POINT ( 'NONE', #361 ) ;
#394 = EDGE_CURVE ( 'NONE', #120, #88, #500, .T. ) ;
#395 = CARTESIAN_POINT ( 'NONE',  ( 0.000000000000000000, 50.00000000000000000, -25.00000000000000000 ) ) ;
#396 = VERTEX_POINT ( 'NONE', #144 ) ;
#397 = CARTESIAN_POINT ( 'NONE',  ( 0.000000000000000000, 0.000000000000000000, 0.000000000000000000 ) ) ;
#398 = CC_DESIGN_PERSON_AND_ORGANIZATION_ASSIGNMENT ( #298, #484, ( #254 ) ) ;
#399 = ORIENTED_EDGE ( 'NONE', *, *, #209, .F. ) ;
#400 = AXIS2_PLACEMENT_3D ( 'NONE', #347, #139, #50 ) ;
#401 = DIRECTION ( 'NONE',  ( -0.000000000000000000, -0.000000000000000000, 1.000000000000000000 ) ) ;
#402 = DIRECTION ( 'NONE',  ( 0.000000000000000000, 1.000000000000000000, 0.000000000000000000 ) ) ;
#403 = FACE_OUTER_BOUND ( 'NONE', #55, .T. ) ;
#404 = DIRECTION ( 'NONE',  ( -0.000000000000000000, -1.000000000000000000, -0.000000000000000000 ) ) ;
#405 = VECTOR ( 'NONE', #175, 1000.000000000000000 ) ;
#406 = FACE_BOUND ( 'NONE', #470, .T. ) ;
#407 = CARTESIAN_POINT ( 'NONE',  ( 0.000000000000000000, 50.00000000000000000, 0.000000000000000000 ) ) ;
#408 = VERTEX_POINT ( 'NONE', #109 ) ;
#409 = DIRECTION ( 'NONE',  ( 0.000000000000000000, 1.000000000000000000, 0.000000000000000000 ) ) ;
#410 = CARTESIAN_POINT ( 'NONE',  ( 0.000000000000000000, 0.000000000000000000, 0.000000000000000000 ) ) ;
#411 = CARTESIAN_POINT ( 'NONE',  ( -17.50000000000000711, 91.22498999199198977, -25.00000000000000355 ) ) ;
#412 = EDGE_CURVE ( 'NONE', #335, #416, #451, .T. ) ;
#413 = FACE_BOUND ( 'NONE', #80, .T. ) ;
#414 = LINE ( 'NONE', #328, #538 ) ;
#415 = EDGE_CURVE ( 'NONE', #348, #137, #64, .T. ) ;
#416 = VERTEX_POINT ( 'NONE', #62 ) ;
#417 = ORIENTED_EDGE ( 'NONE', *, *, #292, .F. ) ;
#418 = AXIS2_PLACEMENT_3D ( 'NONE', #199, #547, #321 ) ;
#419 = COORDINATED_UNIVERSAL_TIME_OFFSET ( 8, 0, .AHEAD. ) ;
#420 = AXIS2_PLACEMENT_3D ( 'NONE', #17, #444, #222 ) ;
#421 = LOCAL_TIME ( 21, 47, 29.00000000000000000, #127 ) ;
#422 = CARTESIAN_POINT ( 'NONE',  ( 0.000000000000000000, 0.000000000000000000, -25.00000000000000000 ) ) ;
#423 =( LENGTH_UNIT ( ) NAMED_UNIT ( * ) SI_UNIT ( .MILLI., .METRE. ) );
#424 = ORIENTED_EDGE ( 'NONE', *, *, #491, .T. ) ;
#425 = DIRECTION ( 'NONE',  ( -0.000000000000000000, -0.000000000000000000, -1.000000000000000000 ) ) ;
#426 =( NAMED_UNIT ( * ) PLANE_ANGLE_UNIT ( ) SI_UNIT ( $, .RADIAN. ) );
#427 = CARTESIAN_POINT ( 'NONE',  ( -7.499999999999992895, 91.22498999199198977, 12.50000000000000000 ) ) ;
#428 = DIRECTION ( 'NONE',  ( -0.000000000000000000, -1.000000000000000000, -0.000000000000000000 ) ) ;
#429 = AXIS2_PLACEMENT_3D ( 'NONE', #180, #95, #446 ) ;
#430 = DIRECTION ( 'NONE',  ( -1.000000000000000000, 0.000000000000000000, 0.000000000000000000 ) ) ;
#431 = APPROVAL_ROLE ( '' ) ;
#432 = EDGE_CURVE ( 'NONE', #211, #195, #461, .T. ) ;
#433 = EDGE_LOOP ( 'NONE', ( #91, #389, #332, #286, #496, #424 ) ) ;
#434 = ORIENTED_EDGE ( 'NONE', *, *, #4, .F. ) ;
#435 = DIRECTION ( 'NONE',  ( 1.000000000000000000, 0.000000000000000000, 0.000000000000000000 ) ) ;
#436 = DIRECTION ( 'NONE',  ( -0.000000000000000000, -0.000000000000000000, 1.000000000000000000 ) ) ;
#437 = ORIENTED_EDGE ( 'NONE', *, *, #452, .T. ) ;
#438 = AXIS2_PLACEMENT_3D ( 'NONE', #397, #541, #96 ) ;
#439 = EDGE_CURVE ( 'NONE', #120, #240, #226, .T. ) ;
#440 = FACE_OUTER_BOUND ( 'NONE', #557, .T. ) ;
#441 = DATE_AND_TIME ( #272, #421 ) ;
#442 = PLANE ( 'NONE',  #400 ) ;
#443 = ORIENTED_EDGE ( 'NONE', *, *, #449, .F. ) ;
#444 = DIRECTION ( 'NONE',  ( 0.000000000000000000, 1.000000000000000000, 0.000000000000000000 ) ) ;
#445 = EDGE_LOOP ( 'NONE', ( #304, #329, #341, #82 ) ) ;
#446 = DIRECTION ( 'NONE',  ( 0.000000000000000000, 0.000000000000000000, 1.000000000000000000 ) ) ;
#447 = AXIS2_PLACEMENT_3D ( 'NONE', #41, #155, #83 ) ;
#448 = LINE ( 'NONE', #320, #559 ) ;
#449 = EDGE_CURVE ( 'NONE', #396, #240, #414, .T. ) ;
#450 = PLANE ( 'NONE',  #390 ) ;
#451 =( BOUNDED_CURVE ( )  B_SPLINE_CURVE ( 3, ( #372, #514, #67, #239 ),
 .UNSPECIFIED., .F., .F. ) 
 B_SPLINE_CURVE_WITH_KNOTS ( ( 4, 4 ),
 ( 4.188790204786391413, 4.712388980384689674 ),
 .UNSPECIFIED. ) 
 CURVE ( )  GEOMETRIC_REPRESENTATION_ITEM ( )  RATIONAL_B_SPLINE_CURVE ( ( 1.000000000000000000, 0.9772838841927120601, 0.9772838841927120601, 1.000000000000000000 ) ) 
 REPRESENTATION_ITEM ( '' )  );
#452 = EDGE_CURVE ( 'NONE', #57, #408, #551, .T. ) ;
#453 = CARTESIAN_POINT ( 'NONE',  ( 3.061616997868383043E-15, 50.00000000000000000, 25.00000000000000000 ) ) ;
#454 =( BOUNDED_CURVE ( )  B_SPLINE_CURVE ( 3, ( #314, #100, #143, #273 ),
 .UNSPECIFIED., .F., .T. ) 
 B_SPLINE_CURVE_WITH_KNOTS ( ( 4, 4 ),
 ( 4.188790204786390525, 4.712388980384689674 ),
 .UNSPECIFIED. ) 
 CURVE ( )  GEOMETRIC_REPRESENTATION_ITEM ( )  RATIONAL_B_SPLINE_CURVE ( ( 1.000000000000000000, 0.9772838841927120601, 0.9772838841927120601, 1.000000000000000000 ) ) 
 REPRESENTATION_ITEM ( '' )  );
#455 = AXIS2_PLACEMENT_3D ( 'NONE', #24, #425, #189 ) ;
#456 = AXIS2_PLACEMENT_3D ( 'NONE', #512, #549, #505 ) ;
#457 = ORIENTED_EDGE ( 'NONE', *, *, #115, .F. ) ;
#458 = CARTESIAN_POINT ( 'NONE',  ( 12.50000000000000000, 60.00000000000000711, -25.00000000000000355 ) ) ;
#459 = CARTESIAN_POINT ( 'NONE',  ( 0.000000000000000000, 50.00000000000000000, 0.000000000000000000 ) ) ;
#460 = CARTESIAN_POINT ( 'NONE',  ( -21.65063509461096913, 114.9999999999999858, 12.50000000000000000 ) ) ;
#461 = LINE ( 'NONE', #411, #134 ) ;
#462 = FACE_OUTER_BOUND ( 'NONE', #252, .T. ) ;
#463 = CARTESIAN_POINT ( 'NONE',  ( 0.000000000000000000, 50.00000000000000000, 0.000000000000000000 ) ) ;
#464 = EDGE_CURVE ( 'NONE', #137, #195, #343, .T. ) ;
#465 = ORIENTED_EDGE ( 'NONE', *, *, #364, .T. ) ;
#466 = FACE_BOUND ( 'NONE', #112, .T. ) ;
#467 = PERSON_AND_ORGANIZATION_ROLE ( 'design_supplier' ) ;
#468 = AXIS2_PLACEMENT_3D ( 'NONE', #463, #428, #36 ) ;
#469 = CC_DESIGN_APPROVAL ( #261, ( #254 ) ) ;
#470 = EDGE_LOOP ( 'NONE', ( #371, #331 ) ) ;
#471 = EDGE_LOOP ( 'NONE', ( #338, #3 ) ) ;
#472 = DIRECTION ( 'NONE',  ( 0.000000000000000000, 0.000000000000000000, 1.000000000000000000 ) ) ;
#473 = ORIENTED_EDGE ( 'NONE', *, *, #449, .T. ) ;
#474 = DIRECTION ( 'NONE',  ( 0.000000000000000000, 0.000000000000000000, 1.000000000000000000 ) ) ;
#475 = EDGE_CURVE ( 'NONE', #57, #555, #168, .T. ) ;
#476 = PERSON_AND_ORGANIZATION ( #318, #169 ) ;
#477 = CIRCLE ( 'NONE', #429, 25.00000000000000000 ) ;
#478 = EDGE_LOOP ( 'NONE', ( #558, #203, #518, #552, #247, #290, #399, #532, #94 ) ) ;
#479 = LOCAL_TIME ( 21, 47, 29.00000000000000000, #419 ) ;
#480 = DIRECTION ( 'NONE',  ( -1.000000000000000000, 0.000000000000000000, 0.000000000000000000 ) ) ;
#481 = DATE_AND_TIME ( #533, #136 ) ;
#482 = PRODUCT_DEFINITION ( '未知', '', #106, #235 ) ;
#483 = ORIENTED_EDGE ( 'NONE', *, *, #192, .F. ) ;
#484 = PERSON_AND_ORGANIZATION_ROLE ( 'classification_officer' ) ;
#485 = CARTESIAN_POINT ( 'NONE',  ( -24.99999999999999645, 94.41391782007330846, -4.413917820073306686 ) ) ;
#486 = ORIENTED_EDGE ( 'NONE', *, *, #356, .F. ) ;
#487 = ADVANCED_FACE ( 'NONE', ( #191 ), #450, .F. ) ;
#488 = FACE_BOUND ( 'NONE', #537, .T. ) ;
#489 = VERTEX_POINT ( 'NONE', #182 ) ;
#490 = CIRCLE ( 'NONE', #420, 9.999999999999998224 ) ;
#491 = EDGE_CURVE ( 'NONE', #489, #8, #454, .T. ) ;
#492 = FACE_OUTER_BOUND ( 'NONE', #33, .T. ) ;
#493 = ORIENTED_EDGE ( 'NONE', *, *, #561, .F. ) ;
#494 = PRODUCT_DEFINITION_SHAPE ( 'NONE', 'NONE',  #482 ) ;
#495 = DIRECTION ( 'NONE',  ( 0.000000000000000000, 1.000000000000000000, 0.000000000000000000 ) ) ;
#496 = ORIENTED_EDGE ( 'NONE', *, *, #107, .F. ) ;
#497 = ADVANCED_FACE ( 'NONE', ( #275 ), #227, .F. ) ;
#498 = FACE_OUTER_BOUND ( 'NONE', #176, .T. ) ;
#499 = CIRCLE ( 'NONE', #242, 25.00000000000000000 ) ;
#500 = CIRCLE ( 'NONE', #456, 25.00000000000000000 ) ;
#501 = LINE ( 'NONE', #453, #253 ) ;
#502 = ADVANCED_FACE ( 'NONE', ( #370 ), #186, .F. ) ;
#503 = ORIENTED_EDGE ( 'NONE', *, *, #198, .T. ) ;
#504 = CARTESIAN_POINT ( 'NONE',  ( 0.000000000000000000, 0.000000000000000000, 0.000000000000000000 ) ) ;
#505 = DIRECTION ( 'NONE',  ( -1.000000000000000000, 0.000000000000000000, 0.000000000000000000 ) ) ;
#506 = ORIENTED_EDGE ( 'NONE', *, *, #184, .T. ) ;
#507 = CC_DESIGN_DATE_AND_TIME_ASSIGNMENT ( #81, #284, ( #482 ) ) ;
#508 = AXIS2_PLACEMENT_3D ( 'NONE', #283, #516, #234 ) ;
#509 = AXIS2_PLACEMENT_3D ( 'NONE', #249, #521, #161 ) ;
#510 = ORIENTED_EDGE ( 'NONE', *, *, #107, .T. ) ;
#511 = CARTESIAN_POINT ( 'NONE',  ( 21.65063509461096558, 114.9999999999999858, 12.50000000000000355 ) ) ;
#512 = CARTESIAN_POINT ( 'NONE',  ( 3.469446951953614189E-15, 90.00000000000000000, -12.50000000000000000 ) ) ;
#513 = DIRECTION ( 'NONE',  ( -0.000000000000000000, -1.000000000000000000, -0.000000000000000000 ) ) ;
#514 = CARTESIAN_POINT ( 'NONE',  ( -23.85759400464762336, 98.67743503759966472, 8.677435037599668277 ) ) ;
#515 = ORIENTED_EDGE ( 'NONE', *, *, #475, .T. ) ;
#516 = DIRECTION ( 'NONE',  ( 0.000000000000000000, 1.000000000000000000, 0.000000000000000000 ) ) ;
#517 = PERSON_AND_ORGANIZATION_ROLE ( 'creator' ) ;
#518 = ORIENTED_EDGE ( 'NONE', *, *, #92, .F. ) ;
#519 = DIRECTION ( 'NONE',  ( -0.000000000000000000, -0.000000000000000000, -1.000000000000000000 ) ) ;
#520 = AXIS2_PLACEMENT_3D ( 'NONE', #277, #147, #236 ) ;
#521 = DIRECTION ( 'NONE',  ( -0.000000000000000000, -0.000000000000000000, -1.000000000000000000 ) ) ;
#522 = AXIS2_PLACEMENT_3D ( 'NONE', #71, #25, #230 ) ;
#523 = CARTESIAN_POINT ( 'NONE',  ( 3.469446951953614189E-15, 90.00000000000000000, 12.50000000000000000 ) ) ;
#524 = APPLICATION_PROTOCOL_DEFINITION ( 'international standard', 'config_control_design', 1994, #313 ) ;
#525 = ORIENTED_EDGE ( 'NONE', *, *, #530, .T. ) ;
#526 = CC_DESIGN_PERSON_AND_ORGANIZATION_ASSIGNMENT ( #2, #119, ( #482 ) ) ;
#527 = CALENDAR_DATE ( 2026, 19, 6 ) ;
#528 = CIRCLE ( 'NONE', #509, 5.000000000000005329 ) ;
#529 = ORIENTED_EDGE ( 'NONE', *, *, #65, .T. ) ;
#530 = EDGE_CURVE ( 'NONE', #555, #174, #501, .T. ) ;
#531 = LINE ( 'NONE', #264, #405 ) ;
#532 = ORIENTED_EDGE ( 'NONE', *, *, #251, .T. ) ;
#533 = CALENDAR_DATE ( 2026, 19, 6 ) ;
#534 = FACE_OUTER_BOUND ( 'NONE', #375, .T. ) ;
#535 = ADVANCED_FACE ( 'NONE', ( #546 ), #560, .T. ) ;
#536 = ORIENTED_EDGE ( 'NONE', *, *, #317, .T. ) ;
#537 = EDGE_LOOP ( 'NONE', ( #133, #493 ) ) ;
#538 = VECTOR ( 'NONE', #74, 1000.000000000000000 ) ;
#539 = AXIS2_PLACEMENT_3D ( 'NONE', #381, #472, #288 ) ;
#540 = DIRECTION ( 'NONE',  ( 0.000000000000000000, 0.000000000000000000, 1.000000000000000000 ) ) ;
#541 = DIRECTION ( 'NONE',  ( 0.000000000000000000, 1.000000000000000000, 0.000000000000000000 ) ) ;
#542 = CIRCLE ( 'NONE', #289, 5.000000000000005329 ) ;
#543 = DIRECTION ( 'NONE',  ( 0.000000000000000000, 0.000000000000000000, -1.000000000000000000 ) ) ;
#544 = EDGE_CURVE ( 'NONE', #240, #256, #105, .T. ) ;
#545 = LINE ( 'NONE', #511, #382 ) ;
#546 = FACE_OUTER_BOUND ( 'NONE', #355, .T. ) ;
#547 = DIRECTION ( 'NONE',  ( 0.000000000000000000, 0.000000000000000000, 1.000000000000000000 ) ) ;
#548 = FACE_BOUND ( 'NONE', #160, .T. ) ;
#549 = DIRECTION ( 'NONE',  ( 0.000000000000000000, 0.000000000000000000, 1.000000000000000000 ) ) ;
#550 = AXIS2_PLACEMENT_3D ( 'NONE', #90, #495, #93 ) ;
#551 = LINE ( 'NONE', #101, #40 ) ;
#552 = ORIENTED_EDGE ( 'NONE', *, *, #412, .T. ) ;
#553 = VERTEX_POINT ( 'NONE', #205 ) ;
#554 = APPROVAL_DATE_TIME ( #197, #1 ) ;
#555 = VERTEX_POINT ( 'NONE', #118 ) ;
#556 = PERSON_AND_ORGANIZATION ( #318, #169 ) ;
#557 = EDGE_LOOP ( 'NONE', ( #245, #171, #276, #202 ) ) ;
#558 = ORIENTED_EDGE ( 'NONE', *, *, #530, .F. ) ;
#559 = VECTOR ( 'NONE', #72, 1000.000000000000000 ) ;
#560 = CYLINDRICAL_SURFACE ( 'NONE', #468, 25.00000000000000000 ) ;
#561 = EDGE_CURVE ( 'NONE', #379, #265, #528, .T. ) ;
ENDSEC;
END-ISO-10303-21;
