ISO-10303-21;
HEADER;
FILE_DESCRIPTION (( 'STEP AP203' ),
    '1' );
FILE_NAME ('stamp_head_默认_sldprt.STEP',
    '2026-06-19T13:47:35',
    ( '' ),
    ( '' ),
    'SwSTEP 2.0',
    'SolidWorks 2022',
    '' );
FILE_SCHEMA (( 'CONFIG_CONTROL_DESIGN' ));
ENDSEC;

DATA;
#1 = PERSON_AND_ORGANIZATION_ROLE ( 'classification_officer' ) ;
#2 = CARTESIAN_POINT ( 'NONE',  ( 2.143131898507868643E-15, -10.00000000000000000, -17.50000000000000355 ) ) ;
#3 = AXIS2_PLACEMENT_3D ( 'NONE', #99, #73, #27 ) ;
#4 = DATE_AND_TIME ( #169, #246 ) ;
#5 = DIRECTION ( 'NONE',  ( -0.000000000000000000, -1.000000000000000000, -0.000000000000000000 ) ) ;
#6 = DATE_AND_TIME ( #250, #235 ) ;
#7 = PLANE ( 'NONE',  #3 ) ;
#8 = DIRECTION ( 'NONE',  ( 0.000000000000000000, 0.000000000000000000, -1.000000000000000000 ) ) ;
#9 = ORIENTED_EDGE ( 'NONE', *, *, #138, .T. ) ;
#10 = DIRECTION ( 'NONE',  ( -0.000000000000000000, -1.000000000000000000, -0.000000000000000000 ) ) ;
#11 = EDGE_LOOP ( 'NONE', ( #227, #35, #18, #9 ) ) ;
#12 = ADVANCED_FACE ( 'NONE', ( #308 ), #81, .F. ) ;
#13 = DIRECTION ( 'NONE',  ( -1.000000000000000000, 0.000000000000000000, -0.000000000000000000 ) ) ;
#14 = ORIENTED_EDGE ( 'NONE', *, *, #187, .T. ) ;
#15 = VECTOR ( 'NONE', #190, 1000.000000000000000 ) ;
#16 = ORIENTED_EDGE ( 'NONE', *, *, #90, .T. ) ;
#17 = DIRECTION ( 'NONE',  ( 0.000000000000000000, 0.000000000000000000, 1.000000000000000000 ) ) ;
#18 = ORIENTED_EDGE ( 'NONE', *, *, #264, .F. ) ;
#19 = VECTOR ( 'NONE', #10, 1000.000000000000000 ) ;
#20 = DIRECTION ( 'NONE',  ( -0.000000000000000000, -0.000000000000000000, 1.000000000000000000 ) ) ;
#21 = AXIS2_PLACEMENT_3D ( 'NONE', #316, #224, #50 ) ;
#22 = PLANE ( 'NONE',  #21 ) ;
#23 = LOCAL_TIME ( 21, 47, 35.00000000000000000, #92 ) ;
#24 = CALENDAR_DATE ( 2026, 19, 6 ) ;
#25 = DATE_AND_TIME ( #188, #23 ) ;
#26 = SHAPE_DEFINITION_REPRESENTATION ( #228, #242 ) ;
#27 = DIRECTION ( 'NONE',  ( 0.000000000000000000, -0.000000000000000000, -1.000000000000000000 ) ) ;
#28 = EDGE_CURVE ( 'NONE', #313, #104, #94, .T. ) ;
#29 = PERSON_AND_ORGANIZATION ( #270, #135 ) ;
#30 = CARTESIAN_POINT ( 'NONE',  ( 0.000000000000000000, 0.000000000000000000, 0.000000000000000000 ) ) ;
#31 = DIRECTION ( 'NONE',  ( -0.000000000000000000, 1.000000000000000000, -0.000000000000000000 ) ) ;
#32 = DIRECTION ( 'NONE',  ( -1.000000000000000000, -0.000000000000000000, -0.000000000000000000 ) ) ;
#33 = CALENDAR_DATE ( 2026, 19, 6 ) ;
#34 = EDGE_LOOP ( 'NONE', ( #132, #233, #58, #263 ) ) ;
#35 = ORIENTED_EDGE ( 'NONE', *, *, #133, .F. ) ;
#36 = ORIENTED_EDGE ( 'NONE', *, *, #79, .T. ) ;
#37 = PRODUCT_DEFINITION_FORMATION_WITH_SPECIFIED_SOURCE ( '任何', '', #284, .NOT_KNOWN. ) ;
#38 = ADVANCED_FACE ( 'NONE', ( #88 ), #161, .F. ) ;
#39 = CARTESIAN_POINT ( 'NONE',  ( 4.999999999999999112, 80.00000000000000000, 5.000000000000000000 ) ) ;
#40 = ORIENTED_EDGE ( 'NONE', *, *, #59, .T. ) ;
#41 = AXIS2_PLACEMENT_3D ( 'NONE', #315, #91, #185 ) ;
#42 = AXIS2_PLACEMENT_3D ( 'NONE', #223, #8, #13 ) ;
#43 = LINE ( 'NONE', #142, #164 ) ;
#44 = CYLINDRICAL_SURFACE ( 'NONE', #41, 17.50000000000000355 ) ;
#45 = PERSON_AND_ORGANIZATION ( #270, #135 ) ;
#46 = DIRECTION ( 'NONE',  ( -0.000000000000000000, -1.000000000000000000, -0.000000000000000000 ) ) ;
#47 = FACE_OUTER_BOUND ( 'NONE', #109, .T. ) ;
#48 = VECTOR ( 'NONE', #68, 1000.000000000000000 ) ;
#49 = APPROVAL ( #149, '未指定' ) ;
#50 = DIRECTION ( 'NONE',  ( 1.000000000000000000, 0.000000000000000000, -0.000000000000000000 ) ) ;
#51 = APPROVAL_PERSON_ORGANIZATION ( #153, #49, #124 ) ;
#52 = COORDINATED_UNIVERSAL_TIME_OFFSET ( 8, 0, .AHEAD. ) ;
#53 = PLANE ( 'NONE',  #256 ) ;
#54 = CARTESIAN_POINT ( 'NONE',  ( -5.000000000000000888, 0.000000000000000000, 5.000000000000000000 ) ) ;
#55 = DIRECTION ( 'NONE',  ( 0.000000000000000000, 0.000000000000000000, 1.000000000000000000 ) ) ;
#56 = ORIENTED_EDGE ( 'NONE', *, *, #206, .F. ) ;
#57 = ORIENTED_EDGE ( 'NONE', *, *, #294, .T. ) ;
#58 = ORIENTED_EDGE ( 'NONE', *, *, #59, .F. ) ;
#59 = EDGE_CURVE ( 'NONE', #77, #197, #234, .T. ) ;
#60 = ORIENTED_EDGE ( 'NONE', *, *, #133, .T. ) ;
#61 = AXIS2_PLACEMENT_3D ( 'NONE', #251, #31, #55 ) ;
#62 = VERTEX_POINT ( 'NONE', #111 ) ;
#63 = VECTOR ( 'NONE', #293, 1000.000000000000000 ) ;
#64 = APPROVAL ( #69, '未指定' ) ;
#65 = CC_DESIGN_APPROVAL ( #64, ( #37 ) ) ;
#66 = CARTESIAN_POINT ( 'NONE',  ( 0.000000000000000000, 0.000000000000000000, 0.000000000000000000 ) ) ;
#67 = AXIS2_PLACEMENT_3D ( 'NONE', #105, #176, #248 ) ;
#68 = DIRECTION ( 'NONE',  ( -0.000000000000000000, -0.000000000000000000, 1.000000000000000000 ) ) ;
#69 = APPROVAL_STATUS ( 'not_yet_approved' ) ;
#70 = ORIENTED_EDGE ( 'NONE', *, *, #87, .F. ) ;
#71 = EDGE_CURVE ( 'NONE', #311, #160, #145, .T. ) ;
#72 = CARTESIAN_POINT ( 'NONE',  ( 4.999999999999999112, 0.000000000000000000, -5.000000000000000000 ) ) ;
#73 = DIRECTION ( 'NONE',  ( 0.000000000000000000, -1.000000000000000000, 0.000000000000000000 ) ) ;
#74 = DIRECTION ( 'NONE',  ( -1.000000000000000000, -0.000000000000000000, -0.000000000000000000 ) ) ;
#75 = PERSON_AND_ORGANIZATION_ROLE ( 'design_owner' ) ;
#76 = LINE ( 'NONE', #173, #204 ) ;
#77 = VERTEX_POINT ( 'NONE', #140 ) ;
#78 = LOCAL_TIME ( 21, 47, 35.00000000000000000, #172 ) ;
#79 = EDGE_CURVE ( 'NONE', #262, #288, #239, .T. ) ;
#80 = PLANE ( 'NONE',  #42 ) ;
#81 = PLANE ( 'NONE',  #201 ) ;
#82 = ORIENTED_EDGE ( 'NONE', *, *, #93, .T. ) ;
#83 = AXIS2_PLACEMENT_3D ( 'NONE', #306, #175, #222 ) ;
#84 = DIRECTION ( 'NONE',  ( 1.000000000000000000, 0.000000000000000000, 0.000000000000000000 ) ) ;
#85 = ORIENTED_EDGE ( 'NONE', *, *, #28, .F. ) ;
#86 = EDGE_LOOP ( 'NONE', ( #137, #108, #36, #182 ) ) ;
#87 = EDGE_CURVE ( 'NONE', #288, #62, #210, .T. ) ;
#88 = FACE_OUTER_BOUND ( 'NONE', #11, .T. ) ;
#89 = EDGE_LOOP ( 'NONE', ( #257, #203, #259, #276 ) ) ;
#90 = EDGE_CURVE ( 'NONE', #183, #231, #139, .T. ) ;
#91 = DIRECTION ( 'NONE',  ( -0.000000000000000000, 1.000000000000000000, -0.000000000000000000 ) ) ;
#92 = COORDINATED_UNIVERSAL_TIME_OFFSET ( 8, 0, .AHEAD. ) ;
#93 = EDGE_CURVE ( 'NONE', #288, #197, #43, .T. ) ;
#94 = CIRCLE ( 'NONE', #193, 17.50000000000000355 ) ;
#95 = ORIENTED_EDGE ( 'NONE', *, *, #260, .F. ) ;
#96 = CC_DESIGN_PERSON_AND_ORGANIZATION_ASSIGNMENT ( #295, #1, ( #110 ) ) ;
#97 = CARTESIAN_POINT ( 'NONE',  ( -5.000000000000000888, 80.00000000000000000, 5.000000000000000000 ) ) ;
#98 = CC_DESIGN_SECURITY_CLASSIFICATION ( #110, ( #37 ) ) ;
#99 = CARTESIAN_POINT ( 'NONE',  ( 0.000000000000000000, 80.00000000000000000, 0.000000000000000000 ) ) ;
#100 = ADVANCED_FACE ( 'NONE', ( #211 ), #44, .T. ) ;
#101 = CARTESIAN_POINT ( 'NONE',  ( 0.000000000000000000, -10.00000000000000000, 17.50000000000000355 ) ) ;
#102 = PLANE ( 'NONE',  #83 ) ;
#103 = CARTESIAN_POINT ( 'NONE',  ( 4.999999999999999112, 0.000000000000000000, 5.000000000000000000 ) ) ;
#104 = VERTEX_POINT ( 'NONE', #268 ) ;
#105 = CARTESIAN_POINT ( 'NONE',  ( 0.000000000000000000, -10.00000000000000000, 0.000000000000000000 ) ) ;
#106 = ADVANCED_FACE ( 'NONE', ( #237 ), #22, .F. ) ;
#107 = DIRECTION ( 'NONE',  ( 0.000000000000000000, -1.000000000000000000, 0.000000000000000000 ) ) ;
#108 = ORIENTED_EDGE ( 'NONE', *, *, #260, .T. ) ;
#109 = EDGE_LOOP ( 'NONE', ( #287, #261 ) ) ;
#110 = SECURITY_CLASSIFICATION ( '', '', #236 ) ;
#111 = CARTESIAN_POINT ( 'NONE',  ( 4.999999999999999112, 80.00000000000000000, 5.000000000000000000 ) ) ;
#112 = AXIS2_PLACEMENT_3D ( 'NONE', #66, #166, #266 ) ;
#113 = DIRECTION ( 'NONE',  ( -0.000000000000000000, -1.000000000000000000, -0.000000000000000000 ) ) ;
#114 = MANIFOLD_SOLID_BREP ( '凸台-拉伸2', #118 ) ;
#115 = VECTOR ( 'NONE', #74, 1000.000000000000000 ) ;
#116 = COORDINATED_UNIVERSAL_TIME_OFFSET ( 8, 0, .AHEAD. ) ;
#117 = DATE_TIME_ROLE ( 'classification_date' ) ;
#118 = CLOSED_SHELL ( 'NONE', ( #317, #38, #106, #12, #279, #253, #100, #122, #217 ) ) ;
#119 = APPROVAL_ROLE ( '' ) ;
#120 = VECTOR ( 'NONE', #46, 1000.000000000000000 ) ;
#121 = LINE ( 'NONE', #271, #309 ) ;
#122 = ADVANCED_FACE ( 'NONE', ( #47 ), #102, .T. ) ;
#123 = CARTESIAN_POINT ( 'NONE',  ( -5.000000000000000888, 80.00000000000000000, -5.000000000000000000 ) ) ;
#124 = APPROVAL_ROLE ( '' ) ;
#125 = FACE_OUTER_BOUND ( 'NONE', #86, .T. ) ;
#126 = EDGE_CURVE ( 'NONE', #104, #231, #249, .T. ) ;
#127 = CARTESIAN_POINT ( 'NONE',  ( -5.000000000000000888, 0.000000000000000000, -5.000000000000000000 ) ) ;
#128 = VECTOR ( 'NONE', #157, 1000.000000000000000 ) ;
#129 = DATE_AND_TIME ( #33, #78 ) ;
#130 = DIRECTION ( 'NONE',  ( 0.000000000000000000, 0.000000000000000000, -1.000000000000000000 ) ) ;
#131 = CARTESIAN_POINT ( 'NONE',  ( 4.999999999999999112, 80.00000000000000000, -5.000000000000000000 ) ) ;
#132 = ORIENTED_EDGE ( 'NONE', *, *, #71, .F. ) ;
#133 = EDGE_CURVE ( 'NONE', #286, #160, #280, .T. ) ;
#134 = EDGE_LOOP ( 'NONE', ( #180, #56 ) ) ;
#135 = ORGANIZATION ( '未指定', '未指定', '' ) ;
#136 = DIRECTION ( 'NONE',  ( 1.000000000000000000, -0.000000000000000000, 0.000000000000000000 ) ) ;
#137 = ORIENTED_EDGE ( 'NONE', *, *, #264, .T. ) ;
#138 = EDGE_CURVE ( 'NONE', #62, #311, #121, .T. ) ;
#139 = CIRCLE ( 'NONE', #112, 17.50000000000000355 ) ;
#140 = CARTESIAN_POINT ( 'NONE',  ( -5.000000000000000888, 0.000000000000000000, -5.000000000000000000 ) ) ;
#141 = CC_DESIGN_PERSON_AND_ORGANIZATION_ASSIGNMENT ( #186, #215, ( #37 ) ) ;
#142 = CARTESIAN_POINT ( 'NONE',  ( -5.000000000000000888, 80.00000000000000000, 5.000000000000000000 ) ) ;
#143 = PERSON_AND_ORGANIZATION_ROLE ( 'design_supplier' ) ;
#144 = DESIGN_CONTEXT ( 'detailed design', #267, 'design' ) ;
#145 = LINE ( 'NONE', #163, #63 ) ;
#146 = PRODUCT_DEFINITION ( '未知', '', #37, #144 ) ;
#147 = DIRECTION ( 'NONE',  ( 0.000000000000000000, -1.000000000000000000, 0.000000000000000000 ) ) ;
#148 = CARTESIAN_POINT ( 'NONE',  ( -5.000000000000000888, 80.00000000000000000, -5.000000000000000000 ) ) ;
#149 = APPROVAL_STATUS ( 'not_yet_approved' ) ;
#150 = LINE ( 'NONE', #304, #15 ) ;
#151 = CYLINDRICAL_SURFACE ( 'NONE', #61, 17.50000000000000355 ) ;
#152 = DIRECTION ( 'NONE',  ( 0.000000000000000000, -1.000000000000000000, 0.000000000000000000 ) ) ;
#153 = PERSON_AND_ORGANIZATION ( #270, #135 ) ;
#154 = CC_DESIGN_APPROVAL ( #171, ( #110 ) ) ;
#155 = ORIENTED_EDGE ( 'NONE', *, *, #247, .T. ) ;
#156 = AXIS2_PLACEMENT_3D ( 'NONE', #30, #147, #245 ) ;
#157 = DIRECTION ( 'NONE',  ( 0.000000000000000000, 0.000000000000000000, -1.000000000000000000 ) ) ;
#158 = ORIENTED_EDGE ( 'NONE', *, *, #126, .F. ) ;
#159 = CC_DESIGN_PERSON_AND_ORGANIZATION_ASSIGNMENT ( #45, #143, ( #37 ) ) ;
#160 = VERTEX_POINT ( 'NONE', #72 ) ;
#161 = PLANE ( 'NONE',  #281 ) ;
#162 = ORIENTED_EDGE ( 'NONE', *, *, #93, .F. ) ;
#163 = CARTESIAN_POINT ( 'NONE',  ( 4.999999999999999112, 0.000000000000000000, 5.000000000000000000 ) ) ;
#164 = VECTOR ( 'NONE', #113, 1000.000000000000000 ) ;
#165 = EDGE_CURVE ( 'NONE', #313, #183, #150, .T. ) ;
#166 = DIRECTION ( 'NONE',  ( 0.000000000000000000, -1.000000000000000000, 0.000000000000000000 ) ) ;
#167 = CARTESIAN_POINT ( 'NONE',  ( -5.000000000000000888, 80.00000000000000000, 5.000000000000000000 ) ) ;
#168 = APPROVAL_DATE_TIME ( #25, #64 ) ;
#169 = CALENDAR_DATE ( 2026, 19, 6 ) ;
#170 = LINE ( 'NONE', #302, #115 ) ;
#171 = APPROVAL ( #213, '未指定' ) ;
#172 = COORDINATED_UNIVERSAL_TIME_OFFSET ( 8, 0, .AHEAD. ) ;
#173 = CARTESIAN_POINT ( 'NONE',  ( -5.000000000000000888, 0.000000000000000000, 5.000000000000000000 ) ) ;
#174 = VECTOR ( 'NONE', #32, 1000.000000000000000 ) ;
#175 = DIRECTION ( 'NONE',  ( 0.000000000000000000, -1.000000000000000000, 0.000000000000000000 ) ) ;
#176 = DIRECTION ( 'NONE',  ( 0.000000000000000000, -1.000000000000000000, 0.000000000000000000 ) ) ;
#177 = ORIENTED_EDGE ( 'NONE', *, *, #294, .F. ) ;
#178 = VECTOR ( 'NONE', #20, 1000.000000000000000 ) ;
#179 = APPROVAL_DATE_TIME ( #129, #49 ) ;
#180 = ORIENTED_EDGE ( 'NONE', *, *, #90, .F. ) ;
#181 = DIRECTION ( 'NONE',  ( 0.000000000000000000, 0.000000000000000000, -1.000000000000000000 ) ) ;
#182 = ORIENTED_EDGE ( 'NONE', *, *, #87, .T. ) ;
#183 = VERTEX_POINT ( 'NONE', #275 ) ;
#184 = AXIS2_PLACEMENT_3D ( 'NONE', #303, #221, #84 ) ;
#185 = DIRECTION ( 'NONE',  ( 0.000000000000000000, 0.000000000000000000, 1.000000000000000000 ) ) ;
#186 = PERSON_AND_ORGANIZATION ( #270, #135 ) ;
#187 = EDGE_CURVE ( 'NONE', #197, #311, #76, .T. ) ;
#188 = CALENDAR_DATE ( 2026, 19, 6 ) ;
#189 = DATE_AND_TIME ( #24, #194 ) ;
#190 = DIRECTION ( 'NONE',  ( -0.000000000000000000, 1.000000000000000000, -0.000000000000000000 ) ) ;
#191 = CARTESIAN_POINT ( 'NONE',  ( 0.000000000000000000, 0.000000000000000000, 0.000000000000000000 ) ) ;
#192 =( NAMED_UNIT ( * ) PLANE_ANGLE_UNIT ( ) SI_UNIT ( $, .RADIAN. ) );
#193 = AXIS2_PLACEMENT_3D ( 'NONE', #229, #107, #181 ) ;
#194 = LOCAL_TIME ( 21, 47, 35.00000000000000000, #238 ) ;
#195 = LINE ( 'NONE', #127, #174 ) ;
#196 = FACE_OUTER_BOUND ( 'NONE', #89, .T. ) ;
#197 = VERTEX_POINT ( 'NONE', #54 ) ;
#198 = CC_DESIGN_PERSON_AND_ORGANIZATION_ASSIGNMENT ( #29, #75, ( #284 ) ) ;
#199 =( NAMED_UNIT ( * ) SI_UNIT ( $, .STERADIAN. ) SOLID_ANGLE_UNIT ( ) );
#200 = EDGE_LOOP ( 'NONE', ( #14, #289, #70, #82 ) ) ;
#201 = AXIS2_PLACEMENT_3D ( 'NONE', #283, #136, #130 ) ;
#202 =( LENGTH_UNIT ( ) NAMED_UNIT ( * ) SI_UNIT ( .MILLI., .METRE. ) );
#203 = ORIENTED_EDGE ( 'NONE', *, *, #126, .T. ) ;
#204 = VECTOR ( 'NONE', #216, 1000.000000000000000 ) ;
#205 = EDGE_LOOP ( 'NONE', ( #40, #162, #310, #57 ) ) ;
#206 = EDGE_CURVE ( 'NONE', #231, #183, #212, .T. ) ;
#207 = EDGE_LOOP ( 'NONE', ( #155, #177, #95, #60 ) ) ;
#208 = CARTESIAN_POINT ( 'NONE',  ( -5.000000000000000888, 80.00000000000000000, 5.000000000000000000 ) ) ;
#209 =( GEOMETRIC_REPRESENTATION_CONTEXT ( 3 ) GLOBAL_UNCERTAINTY_ASSIGNED_CONTEXT ( ( #240 ) ) GLOBAL_UNIT_ASSIGNED_CONTEXT ( ( #202, #192, #199 ) ) REPRESENTATION_CONTEXT ( 'NONE', 'WORKASPACE' ) );
#210 = LINE ( 'NONE', #167, #273 ) ;
#211 = FACE_OUTER_BOUND ( 'NONE', #312, .T. ) ;
#212 = CIRCLE ( 'NONE', #156, 17.50000000000000355 ) ;
#213 = APPROVAL_STATUS ( 'not_yet_approved' ) ;
#214 = APPLICATION_CONTEXT ( 'configuration controlled 3d designs of mechanical parts and assemblies' ) ;
#215 = PERSON_AND_ORGANIZATION_ROLE ( 'creator' ) ;
#216 = DIRECTION ( 'NONE',  ( 1.000000000000000000, 0.000000000000000000, 0.000000000000000000 ) ) ;
#217 = ADVANCED_FACE ( 'NONE', ( #301, #278 ), #53, .F. ) ;
#218 = LINE ( 'NONE', #307, #128 ) ;
#219 = DIRECTION ( 'NONE',  ( -0.000000000000000000, 1.000000000000000000, -0.000000000000000000 ) ) ;
#220 = ORIENTED_EDGE ( 'NONE', *, *, #165, .T. ) ;
#221 = DIRECTION ( 'NONE',  ( 0.000000000000000000, 0.000000000000000000, 1.000000000000000000 ) ) ;
#222 = DIRECTION ( 'NONE',  ( 0.000000000000000000, -0.000000000000000000, -1.000000000000000000 ) ) ;
#223 = CARTESIAN_POINT ( 'NONE',  ( -5.000000000000000888, 80.00000000000000000, 5.000000000000000000 ) ) ;
#224 = DIRECTION ( 'NONE',  ( 0.000000000000000000, 0.000000000000000000, 1.000000000000000000 ) ) ;
#225 = CIRCLE ( 'NONE', #67, 17.50000000000000355 ) ;
#226 = FACE_OUTER_BOUND ( 'NONE', #200, .T. ) ;
#227 = ORIENTED_EDGE ( 'NONE', *, *, #71, .T. ) ;
#228 = PRODUCT_DEFINITION_SHAPE ( 'NONE', 'NONE',  #146 ) ;
#229 = CARTESIAN_POINT ( 'NONE',  ( 0.000000000000000000, -10.00000000000000000, 0.000000000000000000 ) ) ;
#230 = CC_DESIGN_DATE_AND_TIME_ASSIGNMENT ( #189, #117, ( #110 ) ) ;
#231 = VERTEX_POINT ( 'NONE', #252 ) ;
#232 = DIRECTION ( 'NONE',  ( -1.000000000000000000, 0.000000000000000000, 0.000000000000000000 ) ) ;
#233 = ORIENTED_EDGE ( 'NONE', *, *, #187, .F. ) ;
#234 = LINE ( 'NONE', #292, #48 ) ;
#235 = LOCAL_TIME ( 21, 47, 35.00000000000000000, #52 ) ;
#236 = SECURITY_CLASSIFICATION_LEVEL ( 'unclassified' ) ;
#237 = FACE_OUTER_BOUND ( 'NONE', #207, .T. ) ;
#238 = COORDINATED_UNIVERSAL_TIME_OFFSET ( 8, 0, .AHEAD. ) ;
#239 = LINE ( 'NONE', #208, #178 ) ;
#240 = UNCERTAINTY_MEASURE_WITH_UNIT (LENGTH_MEASURE( 1.000000000000000082E-05 ), #202, 'distance_accuracy_value', 'NONE');
#241 = DATE_TIME_ROLE ( 'creation_date' ) ;
#242 = ADVANCED_BREP_SHAPE_REPRESENTATION ( 'stamp_head_\X2\9ed88ba4\X0\_sldprt', ( #114, #184 ), #209 ) ;
#243 = CARTESIAN_POINT ( 'NONE',  ( 4.999999999999999112, 80.00000000000000000, -5.000000000000000000 ) ) ;
#244 = APPROVAL_DATE_TIME ( #4, #171 ) ;
#245 = DIRECTION ( 'NONE',  ( 0.000000000000000000, 0.000000000000000000, -1.000000000000000000 ) ) ;
#246 = LOCAL_TIME ( 21, 47, 35.00000000000000000, #116 ) ;
#247 = EDGE_CURVE ( 'NONE', #160, #77, #195, .T. ) ;
#248 = DIRECTION ( 'NONE',  ( 0.000000000000000000, 0.000000000000000000, -1.000000000000000000 ) ) ;
#249 = LINE ( 'NONE', #2, #265 ) ;
#250 = CALENDAR_DATE ( 2026, 19, 6 ) ;
#251 = CARTESIAN_POINT ( 'NONE',  ( 0.000000000000000000, -10.00000000000000000, 0.000000000000000000 ) ) ;
#252 = CARTESIAN_POINT ( 'NONE',  ( 2.143131898507868643E-15, 0.000000000000000000, -17.50000000000000355 ) ) ;
#253 = ADVANCED_FACE ( 'NONE', ( #125 ), #7, .F. ) ;
#254 = APPROVAL_PERSON_ORGANIZATION ( #296, #64, #119 ) ;
#255 = MECHANICAL_CONTEXT ( 'NONE', #214, 'mechanical' ) ;
#256 = AXIS2_PLACEMENT_3D ( 'NONE', #191, #152, #297 ) ;
#257 = ORIENTED_EDGE ( 'NONE', *, *, #291, .F. ) ;
#258 = LINE ( 'NONE', #148, #19 ) ;
#259 = ORIENTED_EDGE ( 'NONE', *, *, #206, .T. ) ;
#260 = EDGE_CURVE ( 'NONE', #286, #262, #170, .T. ) ;
#261 = ORIENTED_EDGE ( 'NONE', *, *, #291, .T. ) ;
#262 = VERTEX_POINT ( 'NONE', #123 ) ;
#263 = ORIENTED_EDGE ( 'NONE', *, *, #247, .F. ) ;
#264 = EDGE_CURVE ( 'NONE', #62, #286, #218, .T. ) ;
#265 = VECTOR ( 'NONE', #219, 1000.000000000000000 ) ;
#266 = DIRECTION ( 'NONE',  ( 0.000000000000000000, 0.000000000000000000, -1.000000000000000000 ) ) ;
#267 = APPLICATION_CONTEXT ( 'configuration controlled 3d designs of mechanical parts and assemblies' ) ;
#268 = CARTESIAN_POINT ( 'NONE',  ( 2.143131898507868643E-15, -10.00000000000000000, -17.50000000000000355 ) ) ;
#269 = PERSON_AND_ORGANIZATION ( #270, #135 ) ;
#270 = PERSON ( '未指定', '未指定', '未指定', ('未指定'), ('未指定'), ('未指定') ) ;
#271 = CARTESIAN_POINT ( 'NONE',  ( 4.999999999999999112, 80.00000000000000000, 5.000000000000000000 ) ) ;
#272 = CC_DESIGN_DATE_AND_TIME_ASSIGNMENT ( #6, #241, ( #146 ) ) ;
#273 = VECTOR ( 'NONE', #314, 1000.000000000000000 ) ;
#274 = APPLICATION_PROTOCOL_DEFINITION ( 'international standard', 'config_control_design', 1994, #214 ) ;
#275 = CARTESIAN_POINT ( 'NONE',  ( 0.000000000000000000, 0.000000000000000000, 17.50000000000000355 ) ) ;
#276 = ORIENTED_EDGE ( 'NONE', *, *, #165, .F. ) ;
#277 = PERSON_AND_ORGANIZATION_ROLE ( 'creator' ) ;
#278 = FACE_OUTER_BOUND ( 'NONE', #134, .T. ) ;
#279 = ADVANCED_FACE ( 'NONE', ( #226 ), #80, .F. ) ;
#280 = LINE ( 'NONE', #243, #120 ) ;
#281 = AXIS2_PLACEMENT_3D ( 'NONE', #39, #232, #17 ) ;
#282 = APPLICATION_PROTOCOL_DEFINITION ( 'international standard', 'config_control_design', 1994, #267 ) ;
#283 = CARTESIAN_POINT ( 'NONE',  ( -5.000000000000000888, 80.00000000000000000, 5.000000000000000000 ) ) ;
#284 = PRODUCT ( 'stamp_head_\X2\9ed88ba4\X0\_sldprt', 'stamp_head_\X2\9ed88ba4\X0\_sldprt', '', ( #255 ) ) ;
#285 = PERSON_AND_ORGANIZATION ( #270, #135 ) ;
#286 = VERTEX_POINT ( 'NONE', #131 ) ;
#287 = ORIENTED_EDGE ( 'NONE', *, *, #28, .T. ) ;
#288 = VERTEX_POINT ( 'NONE', #97 ) ;
#289 = ORIENTED_EDGE ( 'NONE', *, *, #138, .F. ) ;
#290 = CC_DESIGN_APPROVAL ( #49, ( #146 ) ) ;
#291 = EDGE_CURVE ( 'NONE', #104, #313, #225, .T. ) ;
#292 = CARTESIAN_POINT ( 'NONE',  ( -5.000000000000000888, 0.000000000000000000, 5.000000000000000000 ) ) ;
#293 = DIRECTION ( 'NONE',  ( 0.000000000000000000, 0.000000000000000000, -1.000000000000000000 ) ) ;
#294 = EDGE_CURVE ( 'NONE', #262, #77, #258, .T. ) ;
#295 = PERSON_AND_ORGANIZATION ( #270, #135 ) ;
#296 = PERSON_AND_ORGANIZATION ( #270, #135 ) ;
#297 = DIRECTION ( 'NONE',  ( 0.000000000000000000, -0.000000000000000000, -1.000000000000000000 ) ) ;
#298 = APPROVAL_PERSON_ORGANIZATION ( #269, #171, #299 ) ;
#299 = APPROVAL_ROLE ( '' ) ;
#300 = CC_DESIGN_PERSON_AND_ORGANIZATION_ASSIGNMENT ( #285, #277, ( #146 ) ) ;
#301 = FACE_BOUND ( 'NONE', #34, .T. ) ;
#302 = CARTESIAN_POINT ( 'NONE',  ( -5.000000000000000888, 80.00000000000000000, -5.000000000000000000 ) ) ;
#303 = CARTESIAN_POINT ( 'NONE',  ( 0.000000000000000000, 0.000000000000000000, 0.000000000000000000 ) ) ;
#304 = CARTESIAN_POINT ( 'NONE',  ( 0.000000000000000000, -10.00000000000000000, 17.50000000000000355 ) ) ;
#305 = PRODUCT_RELATED_PRODUCT_CATEGORY ( 'detail', '', ( #284 ) ) ;
#306 = CARTESIAN_POINT ( 'NONE',  ( 0.000000000000000000, -10.00000000000000000, 0.000000000000000000 ) ) ;
#307 = CARTESIAN_POINT ( 'NONE',  ( 4.999999999999999112, 80.00000000000000000, 5.000000000000000000 ) ) ;
#308 = FACE_OUTER_BOUND ( 'NONE', #205, .T. ) ;
#309 = VECTOR ( 'NONE', #5, 1000.000000000000000 ) ;
#310 = ORIENTED_EDGE ( 'NONE', *, *, #79, .F. ) ;
#311 = VERTEX_POINT ( 'NONE', #103 ) ;
#312 = EDGE_LOOP ( 'NONE', ( #158, #85, #220, #16 ) ) ;
#313 = VERTEX_POINT ( 'NONE', #101 ) ;
#314 = DIRECTION ( 'NONE',  ( 1.000000000000000000, 0.000000000000000000, 0.000000000000000000 ) ) ;
#315 = CARTESIAN_POINT ( 'NONE',  ( 0.000000000000000000, -10.00000000000000000, 0.000000000000000000 ) ) ;
#316 = CARTESIAN_POINT ( 'NONE',  ( -5.000000000000000888, 80.00000000000000000, -5.000000000000000000 ) ) ;
#317 = ADVANCED_FACE ( 'NONE', ( #196 ), #151, .T. ) ;
ENDSEC;
END-ISO-10303-21;
