ISO-10303-21;
HEADER;
FILE_DESCRIPTION (( 'STEP AP203' ),
    '1' );
FILE_NAME ('table_默认_sldprt.STEP',
    '2026-06-19T13:47:37',
    ( '' ),
    ( '' ),
    'SwSTEP 2.0',
    'SolidWorks 2022',
    '' );
FILE_SCHEMA (( 'CONFIG_CONTROL_DESIGN' ));
ENDSEC;

DATA;
#1 = DATE_AND_TIME ( #530, #400 ) ;
#2 = CARTESIAN_POINT ( 'NONE',  ( -249.9999999999998863, 0.000000000000000000, 300.0000000000000568 ) ) ;
#3 = CARTESIAN_POINT ( 'NONE',  ( 300.0000000000001705, -800.0000000000000000, 299.9999999999997158 ) ) ;
#4 = CC_DESIGN_SECURITY_CLASSIFICATION ( #436, ( #47 ) ) ;
#5 = AXIS2_PLACEMENT_3D ( 'NONE', #404, #441, #149 ) ;
#6 = CARTESIAN_POINT ( 'NONE',  ( 249.9999999999998863, 0.000000000000000000, -300.0000000000000568 ) ) ;
#7 = EDGE_CURVE ( 'NONE', #324, #519, #131, .T. ) ;
#8 = LINE ( 'NONE', #434, #223 ) ;
#9 = DIRECTION ( 'NONE',  ( -0.000000000000000000, 1.000000000000000000, -0.000000000000000000 ) ) ;
#10 = CARTESIAN_POINT ( 'NONE',  ( 249.9999999999998295, 0.000000000000000000, 250.0000000000000568 ) ) ;
#11 = ADVANCED_FACE ( 'NONE', ( #472 ), #427, .F. ) ;
#12 = LOCAL_TIME ( 21, 47, 37.00000000000000000, #476 ) ;
#13 = AXIS2_PLACEMENT_3D ( 'NONE', #617, #383, #179 ) ;
#14 = CARTESIAN_POINT ( 'NONE',  ( -249.9999999999998295, -800.0000000000000000, 250.0000000000000568 ) ) ;
#15 = LINE ( 'NONE', #123, #613 ) ;
#16 = AXIS2_PLACEMENT_3D ( 'NONE', #606, #21, #495 ) ;
#17 = EDGE_CURVE ( 'NONE', #526, #479, #92, .T. ) ;
#18 = CARTESIAN_POINT ( 'NONE',  ( 249.9999999999998863, -800.0000000000000000, 299.9999999999998295 ) ) ;
#19 = ORIENTED_EDGE ( 'NONE', *, *, #407, .T. ) ;
#20 = VERTEX_POINT ( 'NONE', #54 ) ;
#21 = DIRECTION ( 'NONE',  ( 0.000000000000000000, -1.000000000000000000, 0.000000000000000000 ) ) ;
#22 =( NAMED_UNIT ( * ) SI_UNIT ( $, .STERADIAN. ) SOLID_ANGLE_UNIT ( ) );
#23 = ORIENTED_EDGE ( 'NONE', *, *, #209, .T. ) ;
#24 = VERTEX_POINT ( 'NONE', #238 ) ;
#25 = AXIS2_PLACEMENT_3D ( 'NONE', #265, #30, #384 ) ;
#26 = ORIENTED_EDGE ( 'NONE', *, *, #201, .T. ) ;
#27 = CARTESIAN_POINT ( 'NONE',  ( 299.9999999999998863, -800.0000000000000000, -249.9999999999999432 ) ) ;
#28 = ORIENTED_EDGE ( 'NONE', *, *, #419, .T. ) ;
#29 = ORIENTED_EDGE ( 'NONE', *, *, #268, .F. ) ;
#30 = DIRECTION ( 'NONE',  ( -0.000000000000000000, 0.000000000000000000, -1.000000000000000000 ) ) ;
#31 = CC_DESIGN_PERSON_AND_ORGANIZATION_ASSIGNMENT ( #193, #137, ( #47 ) ) ;
#32 = ORIENTED_EDGE ( 'NONE', *, *, #333, .T. ) ;
#33 = AXIS2_PLACEMENT_3D ( 'NONE', #207, #72, #458 ) ;
#34 = VECTOR ( 'NONE', #446, 1000.000000000000000 ) ;
#35 = VERTEX_POINT ( 'NONE', #346 ) ;
#36 = ADVANCED_FACE ( 'NONE', ( #450 ), #550, .T. ) ;
#37 = EDGE_LOOP ( 'NONE', ( #363, #28, #381, #615 ) ) ;
#38 = SHAPE_DEFINITION_REPRESENTATION ( #412, #391 ) ;
#39 = ORIENTED_EDGE ( 'NONE', *, *, #580, .F. ) ;
#40 = VECTOR ( 'NONE', #313, 1000.000000000000000 ) ;
#41 = CARTESIAN_POINT ( 'NONE',  ( -299.9999999999998295, 0.000000000000000000, 250.0000000000000568 ) ) ;
#42 = VERTEX_POINT ( 'NONE', #213 ) ;
#43 = APPROVAL_DATE_TIME ( #1, #70 ) ;
#44 = DIRECTION ( 'NONE',  ( -1.110223024625161668E-15, -0.000000000000000000, 1.000000000000000000 ) ) ;
#45 = EDGE_CURVE ( 'NONE', #554, #575, #603, .T. ) ;
#46 = DIRECTION ( 'NONE',  ( -1.110223024625161668E-15, 0.000000000000000000, -1.000000000000000000 ) ) ;
#47 = PRODUCT_DEFINITION_FORMATION_WITH_SPECIFIED_SOURCE ( '任何', '', #349, .NOT_KNOWN. ) ;
#48 = LINE ( 'NONE', #200, #112 ) ;
#49 = VECTOR ( 'NONE', #151, 1000.000000000000000 ) ;
#50 = AXIS2_PLACEMENT_3D ( 'NONE', #218, #514, #187 ) ;
#51 = ORIENTED_EDGE ( 'NONE', *, *, #103, .F. ) ;
#52 = COORDINATED_UNIVERSAL_TIME_OFFSET ( 8, 0, .AHEAD. ) ;
#53 = LINE ( 'NONE', #191, #339 ) ;
#54 = CARTESIAN_POINT ( 'NONE',  ( -299.9999999999998295, -800.0000000000000000, 300.0000000000000568 ) ) ;
#55 = CARTESIAN_POINT ( 'NONE',  ( 299.9999999999998295, -800.0000000000000000, 250.0000000000000568 ) ) ;
#56 = CARTESIAN_POINT ( 'NONE',  ( 299.9999999999998863, -800.0000000000000000, -249.9999999999999432 ) ) ;
#57 = VECTOR ( 'NONE', #389, 1000.000000000000000 ) ;
#58 = CARTESIAN_POINT ( 'NONE',  ( 300.0000000000001705, 30.00000000000000000, -300.0000000000000568 ) ) ;
#59 = CARTESIAN_POINT ( 'NONE',  ( 249.9999999999999716, -800.0000000000000000, -299.9999999999997158 ) ) ;
#60 = DIRECTION ( 'NONE',  ( -1.000000000000000000, 0.000000000000000000, 1.850371707708594316E-16 ) ) ;
#61 = DIRECTION ( 'NONE',  ( 0.000000000000000000, -0.000000000000000000, 1.000000000000000000 ) ) ;
#62 = DIRECTION ( 'NONE',  ( -1.000000000000000000, -0.000000000000000000, -0.000000000000000000 ) ) ;
#63 = LINE ( 'NONE', #264, #422 ) ;
#64 = EDGE_CURVE ( 'NONE', #259, #269, #411, .T. ) ;
#65 = AXIS2_PLACEMENT_3D ( 'NONE', #496, #117, #555 ) ;
#66 = AXIS2_PLACEMENT_3D ( 'NONE', #163, #364, #308 ) ;
#67 = CARTESIAN_POINT ( 'NONE',  ( 249.9999999999998863, -800.0000000000000000, 299.9999999999998295 ) ) ;
#68 = ORIENTED_EDGE ( 'NONE', *, *, #168, .F. ) ;
#69 = VECTOR ( 'NONE', #429, 1000.000000000000000 ) ;
#70 = APPROVAL ( #146, '未指定' ) ;
#71 = CARTESIAN_POINT ( 'NONE',  ( 0.000000000000000000, 0.000000000000000000, 0.000000000000000000 ) ) ;
#72 = DIRECTION ( 'NONE',  ( -0.000000000000000000, 0.000000000000000000, 1.000000000000000000 ) ) ;
#73 = EDGE_LOOP ( 'NONE', ( #130, #121, #127, #169, #51, #464, #619, #83 ) ) ;
#74 = FACE_OUTER_BOUND ( 'NONE', #503, .T. ) ;
#75 = ORIENTED_EDGE ( 'NONE', *, *, #7, .T. ) ;
#76 = VECTOR ( 'NONE', #277, 1000.000000000000000 ) ;
#77 = CC_DESIGN_PERSON_AND_ORGANIZATION_ASSIGNMENT ( #211, #304, ( #349 ) ) ;
#78 = CARTESIAN_POINT ( 'NONE',  ( 300.0000000000001705, 30.00000000000000000, 299.9999999999999432 ) ) ;
#79 = ORIENTED_EDGE ( 'NONE', *, *, #82, .F. ) ;
#80 = DIRECTION ( 'NONE',  ( -0.000000000000000000, 1.000000000000000000, -0.000000000000000000 ) ) ;
#81 = ORIENTED_EDGE ( 'NONE', *, *, #461, .F. ) ;
#82 = EDGE_CURVE ( 'NONE', #506, #424, #220, .T. ) ;
#83 = ORIENTED_EDGE ( 'NONE', *, *, #145, .F. ) ;
#84 = VECTOR ( 'NONE', #138, 1000.000000000000000 ) ;
#85 = ORIENTED_EDGE ( 'NONE', *, *, #438, .F. ) ;
#86 = VECTOR ( 'NONE', #44, 1000.000000000000000 ) ;
#87 = CARTESIAN_POINT ( 'NONE',  ( -249.9999999999998863, -800.0000000000000000, 299.9999999999998295 ) ) ;
#88 = CLOSED_SHELL ( 'NONE', ( #540, #99, #284, #298, #597, #247, #618, #306, #378, #523, #361, #36, #172, #189, #629, #11, #128, #274 ) ) ;
#89 = EDGE_LOOP ( 'NONE', ( #586, #162, #518, #178 ) ) ;
#90 = ORIENTED_EDGE ( 'NONE', *, *, #201, .F. ) ;
#91 = CARTESIAN_POINT ( 'NONE',  ( 249.9999999999999716, -800.0000000000000000, -299.9999999999997158 ) ) ;
#92 = LINE ( 'NONE', #278, #126 ) ;
#93 = DATE_AND_TIME ( #332, #229 ) ;
#94 = CARTESIAN_POINT ( 'NONE',  ( -249.9999999999998863, -800.0000000000000000, -249.9999999999999432 ) ) ;
#95 = ORIENTED_EDGE ( 'NONE', *, *, #387, .F. ) ;
#96 = VECTOR ( 'NONE', #198, 1000.000000000000000 ) ;
#97 = DIRECTION ( 'NONE',  ( -0.000000000000000000, 1.000000000000000000, -0.000000000000000000 ) ) ;
#98 = LINE ( 'NONE', #3, #157 ) ;
#99 = ADVANCED_FACE ( 'NONE', ( #335 ), #459, .F. ) ;
#100 = APPROVAL_STATUS ( 'not_yet_approved' ) ;
#101 = DIRECTION ( 'NONE',  ( 0.000000000000000000, -1.000000000000000000, 0.000000000000000000 ) ) ;
#102 = DIRECTION ( 'NONE',  ( 1.665334536937742502E-15, -0.000000000000000000, -1.000000000000000000 ) ) ;
#103 = EDGE_CURVE ( 'NONE', #181, #35, #380, .T. ) ;
#104 = CARTESIAN_POINT ( 'NONE',  ( 249.9999999999999716, -800.0000000000000000, -299.9999999999997158 ) ) ;
#105 = CARTESIAN_POINT ( 'NONE',  ( 249.9999999999999716, -800.0000000000000000, -299.9999999999997158 ) ) ;
#106 = LINE ( 'NONE', #58, #84 ) ;
#107 = DIRECTION ( 'NONE',  ( -0.000000000000000000, 1.000000000000000000, -0.000000000000000000 ) ) ;
#108 = DIRECTION ( 'NONE',  ( 0.000000000000000000, -0.000000000000000000, 1.000000000000000000 ) ) ;
#109 = VERTEX_POINT ( 'NONE', #267 ) ;
#110 = PLANE ( 'NONE',  #65 ) ;
#111 = EDGE_CURVE ( 'NONE', #42, #269, #457, .T. ) ;
#112 = VECTOR ( 'NONE', #531, 1000.000000000000000 ) ;
#113 = DIRECTION ( 'NONE',  ( -0.000000000000000000, -1.000000000000000000, -0.000000000000000000 ) ) ;
#114 = ORIENTED_EDGE ( 'NONE', *, *, #103, .T. ) ;
#115 = EDGE_CURVE ( 'NONE', #479, #212, #563, .T. ) ;
#116 = ORIENTED_EDGE ( 'NONE', *, *, #616, .T. ) ;
#117 = DIRECTION ( 'NONE',  ( 0.000000000000000000, -1.000000000000000000, 0.000000000000000000 ) ) ;
#118 = ORIENTED_EDGE ( 'NONE', *, *, #580, .T. ) ;
#119 = ORIENTED_EDGE ( 'NONE', *, *, #502, .F. ) ;
#120 = DIRECTION ( 'NONE',  ( 1.000000000000000000, -0.000000000000000000, -1.850371707708594316E-16 ) ) ;
#121 = ORIENTED_EDGE ( 'NONE', *, *, #209, .F. ) ;
#122 = EDGE_CURVE ( 'NONE', #212, #573, #164, .T. ) ;
#123 = CARTESIAN_POINT ( 'NONE',  ( 300.0000000000001705, 30.00000000000000000, -300.0000000000000568 ) ) ;
#124 = ORIENTED_EDGE ( 'NONE', *, *, #152, .F. ) ;
#125 = CARTESIAN_POINT ( 'NONE',  ( 300.0000000000001705, 30.00000000000000000, 299.9999999999999432 ) ) ;
#126 = VECTOR ( 'NONE', #473, 1000.000000000000000 ) ;
#127 = ORIENTED_EDGE ( 'NONE', *, *, #438, .T. ) ;
#128 = ADVANCED_FACE ( 'NONE', ( #263 ), #365, .F. ) ;
#129 = ORIENTED_EDGE ( 'NONE', *, *, #214, .T. ) ;
#130 = ORIENTED_EDGE ( 'NONE', *, *, #122, .T. ) ;
#131 = LINE ( 'NONE', #578, #442 ) ;
#132 = EDGE_LOOP ( 'NONE', ( #221, #230, #614, #32 ) ) ;
#133 = PERSON_AND_ORGANIZATION ( #158, #521 ) ;
#134 = FACE_OUTER_BOUND ( 'NONE', #73, .T. ) ;
#135 = DIRECTION ( 'NONE',  ( -1.000000000000000000, -0.000000000000000000, -0.000000000000000000 ) ) ;
#136 = ORIENTED_EDGE ( 'NONE', *, *, #599, .F. ) ;
#137 = PERSON_AND_ORGANIZATION_ROLE ( 'design_supplier' ) ;
#138 = DIRECTION ( 'NONE',  ( -1.000000000000000000, 0.000000000000000000, 1.850371707708594316E-16 ) ) ;
#139 = LINE ( 'NONE', #342, #350 ) ;
#140 = CC_DESIGN_DATE_AND_TIME_ASSIGNMENT ( #393, #236, ( #445 ) ) ;
#141 = VECTOR ( 'NONE', #341, 1000.000000000000000 ) ;
#142 = PERSON_AND_ORGANIZATION_ROLE ( 'classification_officer' ) ;
#143 = LINE ( 'NONE', #588, #282 ) ;
#144 = CARTESIAN_POINT ( 'NONE',  ( 249.9999999999998863, 0.000000000000000000, 299.9999999999998295 ) ) ;
#145 = EDGE_CURVE ( 'NONE', #212, #24, #582, .T. ) ;
#146 = APPROVAL_STATUS ( 'not_yet_approved' ) ;
#147 = DIRECTION ( 'NONE',  ( -0.000000000000000000, 1.000000000000000000, -0.000000000000000000 ) ) ;
#148 = DIRECTION ( 'NONE',  ( 0.000000000000000000, 1.000000000000000000, 0.000000000000000000 ) ) ;
#149 = DIRECTION ( 'NONE',  ( -1.000000000000000000, 0.000000000000000000, 1.850371707708594563E-16 ) ) ;
#150 = DIRECTION ( 'NONE',  ( 0.000000000000000000, 0.000000000000000000, 1.000000000000000000 ) ) ;
#151 = DIRECTION ( 'NONE',  ( -0.000000000000000000, -0.000000000000000000, 1.000000000000000000 ) ) ;
#152 = EDGE_CURVE ( 'NONE', #371, #424, #559, .T. ) ;
#153 = DIRECTION ( 'NONE',  ( -1.110223024625161668E-15, 0.000000000000000000, -1.000000000000000000 ) ) ;
#154 = FACE_OUTER_BOUND ( 'NONE', #315, .T. ) ;
#155 = CARTESIAN_POINT ( 'NONE',  ( -299.9999999999998863, -800.0000000000000000, -249.9999999999999432 ) ) ;
#156 = CARTESIAN_POINT ( 'NONE',  ( 0.000000000000000000, 0.000000000000000000, 0.000000000000000000 ) ) ;
#157 = VECTOR ( 'NONE', #392, 1000.000000000000000 ) ;
#158 = PERSON ( '未指定', '未指定', '未指定', ('未指定'), ('未指定'), ('未指定') ) ;
#159 = DIRECTION ( 'NONE',  ( 0.000000000000000000, 1.000000000000000000, 0.000000000000000000 ) ) ;
#160 = ORIENTED_EDGE ( 'NONE', *, *, #376, .T. ) ;
#161 = VECTOR ( 'NONE', #62, 1000.000000000000000 ) ;
#162 = ORIENTED_EDGE ( 'NONE', *, *, #180, .T. ) ;
#163 = CARTESIAN_POINT ( 'NONE',  ( 300.0000000000001705, 30.00000000000000000, -300.0000000000000568 ) ) ;
#164 = LINE ( 'NONE', #318, #319 ) ;
#165 = PERSON_AND_ORGANIZATION ( #158, #521 ) ;
#166 = ORIENTED_EDGE ( 'NONE', *, *, #64, .T. ) ;
#167 = CARTESIAN_POINT ( 'NONE',  ( -249.9999999999998863, -800.0000000000000000, 299.9999999999998295 ) ) ;
#168 = EDGE_CURVE ( 'NONE', #575, #465, #415, .T. ) ;
#169 = ORIENTED_EDGE ( 'NONE', *, *, #268, .T. ) ;
#170 =( NAMED_UNIT ( * ) PLANE_ANGLE_UNIT ( ) SI_UNIT ( $, .RADIAN. ) );
#171 = DIRECTION ( 'NONE',  ( 0.000000000000000000, 0.000000000000000000, -1.000000000000000000 ) ) ;
#172 = ADVANCED_FACE ( 'NONE', ( #74 ), #577, .F. ) ;
#173 = ORIENTED_EDGE ( 'NONE', *, *, #504, .T. ) ;
#174 = VECTOR ( 'NONE', #237, 1000.000000000000000 ) ;
#175 = EDGE_LOOP ( 'NONE', ( #408, #39, #227, #19, #612, #320, #421, #623 ) ) ;
#176 = EDGE_LOOP ( 'NONE', ( #305, #95, #569, #583 ) ) ;
#177 = CC_DESIGN_PERSON_AND_ORGANIZATION_ASSIGNMENT ( #625, #190, ( #47 ) ) ;
#178 = ORIENTED_EDGE ( 'NONE', *, *, #560, .T. ) ;
#179 = DIRECTION ( 'NONE',  ( 0.000000000000000000, 0.000000000000000000, 1.000000000000000000 ) ) ;
#180 = EDGE_CURVE ( 'NONE', #188, #373, #626, .T. ) ;
#181 = VERTEX_POINT ( 'NONE', #27 ) ;
#182 = AXIS2_PLACEMENT_3D ( 'NONE', #156, #358, #551 ) ;
#183 = CARTESIAN_POINT ( 'NONE',  ( -299.9999999999998295, 30.00000000000000000, 300.0000000000000568 ) ) ;
#184 = CARTESIAN_POINT ( 'NONE',  ( -249.9999999999999716, -800.0000000000000000, -299.9999999999997158 ) ) ;
#185 = APPROVAL_ROLE ( '' ) ;
#186 = CARTESIAN_POINT ( 'NONE',  ( -249.9999999999999716, -800.0000000000000000, -299.9999999999997158 ) ) ;
#187 = DIRECTION ( 'NONE',  ( -1.000000000000000000, 0.000000000000000000, -0.000000000000000000 ) ) ;
#188 = VERTEX_POINT ( 'NONE', #418 ) ;
#189 = ADVANCED_FACE ( 'NONE', ( #154 ), #288, .F. ) ;
#190 = PERSON_AND_ORGANIZATION_ROLE ( 'creator' ) ;
#191 = CARTESIAN_POINT ( 'NONE',  ( -299.9999999999998295, -800.0000000000000000, 250.0000000000000568 ) ) ;
#192 = ORIENTED_EDGE ( 'NONE', *, *, #564, .T. ) ;
#193 = PERSON_AND_ORGANIZATION ( #158, #521 ) ;
#194 = EDGE_CURVE ( 'NONE', #269, #316, #395, .T. ) ;
#195 = CARTESIAN_POINT ( 'NONE',  ( 300.0000000000001705, 0.000000000000000000, 299.9999999999999432 ) ) ;
#196 = VECTOR ( 'NONE', #477, 1000.000000000000000 ) ;
#197 = SECURITY_CLASSIFICATION_LEVEL ( 'unclassified' ) ;
#198 = DIRECTION ( 'NONE',  ( -0.000000000000000000, 1.000000000000000000, -0.000000000000000000 ) ) ;
#199 = DIRECTION ( 'NONE',  ( 1.665334536937742699E-15, 0.000000000000000000, -1.000000000000000000 ) ) ;
#200 = CARTESIAN_POINT ( 'NONE',  ( 300.0000000000001705, -800.0000000000000000, 299.9999999999997158 ) ) ;
#201 = EDGE_CURVE ( 'NONE', #406, #506, #139, .T. ) ;
#202 = CARTESIAN_POINT ( 'NONE',  ( 300.0000000000000568, -800.0000000000000000, -299.9999999999998295 ) ) ;
#203 = DIRECTION ( 'NONE',  ( -0.000000000000000000, 1.000000000000000000, -0.000000000000000000 ) ) ;
#204 = APPROVAL_PERSON_ORGANIZATION ( #165, #454, #561 ) ;
#205 = VECTOR ( 'NONE', #405, 1000.000000000000000 ) ;
#206 = LINE ( 'NONE', #299, #326 ) ;
#207 = CARTESIAN_POINT ( 'NONE',  ( -299.9999999999998295, -800.0000000000000000, 250.0000000000000568 ) ) ;
#208 = CARTESIAN_POINT ( 'NONE',  ( -299.9999999999999432, -800.0000000000000000, -299.9999999999999432 ) ) ;
#209 = EDGE_CURVE ( 'NONE', #388, #573, #98, .T. ) ;
#210 = ORIENTED_EDGE ( 'NONE', *, *, #82, .T. ) ;
#211 = PERSON_AND_ORGANIZATION ( #158, #521 ) ;
#212 = VERTEX_POINT ( 'NONE', #348 ) ;
#213 = CARTESIAN_POINT ( 'NONE',  ( -299.9999999999998863, -800.0000000000000000, -249.9999999999999432 ) ) ;
#214 = EDGE_CURVE ( 'NONE', #632, #259, #245, .T. ) ;
#215 = APPROVAL_STATUS ( 'not_yet_approved' ) ;
#216 = CARTESIAN_POINT ( 'NONE',  ( -249.9999999999999716, 0.000000000000000000, -299.9999999999997158 ) ) ;
#217 = VERTEX_POINT ( 'NONE', #144 ) ;
#218 = CARTESIAN_POINT ( 'NONE',  ( -299.9999999999998863, -800.0000000000000000, -249.9999999999999432 ) ) ;
#219 = VECTOR ( 'NONE', #120, 1000.000000000000000 ) ;
#220 = LINE ( 'NONE', #605, #525 ) ;
#221 = ORIENTED_EDGE ( 'NONE', *, *, #17, .T. ) ;
#222 = ORIENTED_EDGE ( 'NONE', *, *, #357, .F. ) ;
#223 = VECTOR ( 'NONE', #147, 1000.000000000000000 ) ;
#224 = ORIENTED_EDGE ( 'NONE', *, *, #599, .T. ) ;
#225 = EDGE_LOOP ( 'NONE', ( #235, #426, #570, #118 ) ) ;
#226 = EDGE_CURVE ( 'NONE', #373, #259, #539, .T. ) ;
#227 = ORIENTED_EDGE ( 'NONE', *, *, #152, .T. ) ;
#228 = COORDINATED_UNIVERSAL_TIME_OFFSET ( 8, 0, .AHEAD. ) ;
#229 = LOCAL_TIME ( 21, 47, 37.00000000000000000, #581 ) ;
#230 = ORIENTED_EDGE ( 'NONE', *, *, #115, .T. ) ;
#231 = EDGE_CURVE ( 'NONE', #406, #371, #543, .T. ) ;
#232 = DATE_AND_TIME ( #286, #12 ) ;
#233 = DIRECTION ( 'NONE',  ( 0.000000000000000000, -0.000000000000000000, -1.000000000000000000 ) ) ;
#234 = DIRECTION ( 'NONE',  ( 1.665334536937742502E-15, 0.000000000000000000, 1.000000000000000000 ) ) ;
#235 = ORIENTED_EDGE ( 'NONE', *, *, #401, .T. ) ;
#236 = DATE_TIME_ROLE ( 'creation_date' ) ;
#237 = DIRECTION ( 'NONE',  ( 1.000000000000000000, -0.000000000000000000, -0.000000000000000000 ) ) ;
#238 = CARTESIAN_POINT ( 'NONE',  ( 300.0000000000001705, 30.00000000000000000, -300.0000000000000568 ) ) ;
#239 = CALENDAR_DATE ( 2026, 19, 6 ) ;
#240 = LINE ( 'NONE', #334, #34 ) ;
#241 = APPROVAL ( #100, '未指定' ) ;
#242 = PLANE ( 'NONE',  #497 ) ;
#243 = AXIS2_PLACEMENT_3D ( 'NONE', #67, #449, #153 ) ;
#244 = LINE ( 'NONE', #631, #96 ) ;
#245 = LINE ( 'NONE', #589, #249 ) ;
#246 = VECTOR ( 'NONE', #611, 1000.000000000000000 ) ;
#247 = ADVANCED_FACE ( 'NONE', ( #488 ), #295, .T. ) ;
#248 = CARTESIAN_POINT ( 'NONE',  ( -299.9999999999998295, -800.0000000000000000, 300.0000000000000568 ) ) ;
#249 = VECTOR ( 'NONE', #234, 1000.000000000000000 ) ;
#250 = CARTESIAN_POINT ( 'NONE',  ( -249.9999999999998863, 0.000000000000000000, -249.9999999999999432 ) ) ;
#251 = CARTESIAN_POINT ( 'NONE',  ( 249.9999999999998295, -800.0000000000000000, 250.0000000000000568 ) ) ;
#252 = VECTOR ( 'NONE', #292, 1000.000000000000000 ) ;
#253 = LINE ( 'NONE', #18, #604 ) ;
#254 = FACE_OUTER_BOUND ( 'NONE', #175, .T. ) ;
#255 = VECTOR ( 'NONE', #135, 1000.000000000000000 ) ;
#256 = VERTEX_POINT ( 'NONE', #340 ) ;
#257 = EDGE_CURVE ( 'NONE', #181, #406, #545, .T. ) ;
#258 = DIRECTION ( 'NONE',  ( -1.110223024625156738E-15, -0.000000000000000000, -1.000000000000000000 ) ) ;
#259 = VERTEX_POINT ( 'NONE', #250 ) ;
#260 = LINE ( 'NONE', #558, #370 ) ;
#261 = EDGE_LOOP ( 'NONE', ( #501, #430, #79, #136, #29, #463, #222, #262, #309, #119, #628, #416 ) ) ;
#262 = ORIENTED_EDGE ( 'NONE', *, *, #470, .F. ) ;
#263 = FACE_OUTER_BOUND ( 'NONE', #367, .T. ) ;
#264 = CARTESIAN_POINT ( 'NONE',  ( 299.9999999999998863, 0.000000000000000000, -249.9999999999999432 ) ) ;
#265 = CARTESIAN_POINT ( 'NONE',  ( 299.9999999999998863, -800.0000000000000000, -249.9999999999999432 ) ) ;
#266 = VERTEX_POINT ( 'NONE', #482 ) ;
#267 = CARTESIAN_POINT ( 'NONE',  ( -249.9999999999998295, 0.000000000000000000, 250.0000000000000568 ) ) ;
#268 = EDGE_CURVE ( 'NONE', #303, #35, #435, .T. ) ;
#269 = VERTEX_POINT ( 'NONE', #397 ) ;
#270 = ORIENTED_EDGE ( 'NONE', *, *, #289, .T. ) ;
#271 = ORIENTED_EDGE ( 'NONE', *, *, #115, .F. ) ;
#272 = VECTOR ( 'NONE', #453, 1000.000000000000000 ) ;
#273 = DIRECTION ( 'NONE',  ( -1.000000000000000000, 0.000000000000000000, -1.110223024625161668E-15 ) ) ;
#274 = ADVANCED_FACE ( 'NONE', ( #485 ), #242, .T. ) ;
#275 = ORIENTED_EDGE ( 'NONE', *, *, #552, .F. ) ;
#276 = LINE ( 'NONE', #186, #452 ) ;
#277 = DIRECTION ( 'NONE',  ( 1.665334536937742502E-15, 0.000000000000000000, 1.000000000000000000 ) ) ;
#278 = CARTESIAN_POINT ( 'NONE',  ( -299.9999999999998295, 30.00000000000000000, 300.0000000000000568 ) ) ;
#279 = CC_DESIGN_APPROVAL ( #241, ( #436 ) ) ;
#280 = APPROVAL_DATE_TIME ( #93, #241 ) ;
#281 = CARTESIAN_POINT ( 'NONE',  ( 299.9999999999998295, -800.0000000000000000, 250.0000000000000568 ) ) ;
#282 = VECTOR ( 'NONE', #399, 1000.000000000000000 ) ;
#283 = DIRECTION ( 'NONE',  ( -1.000000000000000000, 0.000000000000000000, 0.000000000000000000 ) ) ;
#284 = ADVANCED_FACE ( 'NONE', ( #478 ), #508, .F. ) ;
#285 = ORIENTED_EDGE ( 'NONE', *, *, #111, .F. ) ;
#286 = CALENDAR_DATE ( 2026, 19, 6 ) ;
#287 = LINE ( 'NONE', #396, #301 ) ;
#288 = PLANE ( 'NONE',  #515 ) ;
#289 = EDGE_CURVE ( 'NONE', #188, #632, #276, .T. ) ;
#290 = PLANE ( 'NONE',  #536 ) ;
#291 = DIRECTION ( 'NONE',  ( 1.000000000000000000, 0.000000000000000000, 1.665334536937742699E-15 ) ) ;
#292 = DIRECTION ( 'NONE',  ( -0.000000000000000000, 1.000000000000000000, -0.000000000000000000 ) ) ;
#293 = DIRECTION ( 'NONE',  ( 0.000000000000000000, -1.000000000000000000, 0.000000000000000000 ) ) ;
#294 = CARTESIAN_POINT ( 'NONE',  ( 249.9999999999998295, -800.0000000000000000, 250.0000000000000568 ) ) ;
#295 = PLANE ( 'NONE',  #621 ) ;
#296 = LINE ( 'NONE', #356, #410 ) ;
#297 = EDGE_LOOP ( 'NONE', ( #385, #68, #322, #328 ) ) ;
#298 = ADVANCED_FACE ( 'NONE', ( #134 ), #425, .F. ) ;
#299 = CARTESIAN_POINT ( 'NONE',  ( -299.9999999999999432, -800.0000000000000000, -299.9999999999999432 ) ) ;
#300 = CARTESIAN_POINT ( 'NONE',  ( -299.9999999999998295, -800.0000000000000000, 300.0000000000000568 ) ) ;
#301 = VECTOR ( 'NONE', #595, 1000.000000000000000 ) ;
#302 = FACE_OUTER_BOUND ( 'NONE', #261, .T. ) ;
#303 = VERTEX_POINT ( 'NONE', #571 ) ;
#304 = PERSON_AND_ORGANIZATION_ROLE ( 'design_owner' ) ;
#305 = ORIENTED_EDGE ( 'NONE', *, *, #357, .T. ) ;
#306 = ADVANCED_FACE ( 'NONE', ( #327 ), #524, .F. ) ;
#307 = ORIENTED_EDGE ( 'NONE', *, *, #122, .F. ) ;
#308 = DIRECTION ( 'NONE',  ( 1.000000000000000000, 0.000000000000000000, -1.850371707708594563E-16 ) ) ;
#309 = ORIENTED_EDGE ( 'NONE', *, *, #513, .F. ) ;
#310 = CARTESIAN_POINT ( 'NONE',  ( -299.9999999999998863, -800.0000000000000000, -249.9999999999999432 ) ) ;
#311 = DIRECTION ( 'NONE',  ( -0.000000000000000000, -1.000000000000000000, -0.000000000000000000 ) ) ;
#312 = ORIENTED_EDGE ( 'NONE', *, *, #448, .F. ) ;
#313 = DIRECTION ( 'NONE',  ( -0.000000000000000000, 1.000000000000000000, -0.000000000000000000 ) ) ;
#314 =( GEOMETRIC_REPRESENTATION_CONTEXT ( 3 ) GLOBAL_UNCERTAINTY_ASSIGNED_CONTEXT ( ( #579 ) ) GLOBAL_UNIT_ASSIGNED_CONTEXT ( ( #403, #170, #22 ) ) REPRESENTATION_CONTEXT ( 'NONE', 'WORKASPACE' ) );
#315 = EDGE_LOOP ( 'NONE', ( #210, #124, #414, #26 ) ) ;
#316 = VERTEX_POINT ( 'NONE', #41 ) ;
#317 = ORIENTED_EDGE ( 'NONE', *, *, #533, .F. ) ;
#318 = CARTESIAN_POINT ( 'NONE',  ( 300.0000000000001705, 30.00000000000000000, 299.9999999999999432 ) ) ;
#319 = VECTOR ( 'NONE', #507, 1000.000000000000000 ) ;
#320 = ORIENTED_EDGE ( 'NONE', *, *, #572, .F. ) ;
#321 = ORIENTED_EDGE ( 'NONE', *, *, #376, .F. ) ;
#322 = ORIENTED_EDGE ( 'NONE', *, *, #45, .F. ) ;
#323 = EDGE_LOOP ( 'NONE', ( #576, #75, #160, #23 ) ) ;
#324 = VERTEX_POINT ( 'NONE', #527 ) ;
#325 = EDGE_CURVE ( 'NONE', #256, #316, #53, .T. ) ;
#326 = VECTOR ( 'NONE', #258, 1000.000000000000000 ) ;
#327 = FACE_OUTER_BOUND ( 'NONE', #297, .T. ) ;
#328 = ORIENTED_EDGE ( 'NONE', *, *, #352, .T. ) ;
#329 = VECTOR ( 'NONE', #368, 1000.000000000000000 ) ;
#330 = DIRECTION ( 'NONE',  ( -0.000000000000000000, 1.000000000000000000, -0.000000000000000000 ) ) ;
#331 = DIRECTION ( 'NONE',  ( -1.000000000000000000, 0.000000000000000000, 1.665334536937742699E-15 ) ) ;
#332 = CALENDAR_DATE ( 2026, 19, 6 ) ;
#333 = EDGE_CURVE ( 'NONE', #24, #526, #106, .T. ) ;
#334 = CARTESIAN_POINT ( 'NONE',  ( -299.9999999999998295, -800.0000000000000000, 250.0000000000000568 ) ) ;
#335 = FACE_OUTER_BOUND ( 'NONE', #511, .T. ) ;
#336 = ORIENTED_EDGE ( 'NONE', *, *, #168, .T. ) ;
#337 = APPROVAL_DATE_TIME ( #232, #454 ) ;
#338 = PLANE ( 'NONE',  #522 ) ;
#339 = VECTOR ( 'NONE', #97, 1000.000000000000000 ) ;
#340 = CARTESIAN_POINT ( 'NONE',  ( -299.9999999999998295, -800.0000000000000000, 250.0000000000000568 ) ) ;
#341 = DIRECTION ( 'NONE',  ( 0.000000000000000000, 0.000000000000000000, -1.000000000000000000 ) ) ;
#342 = CARTESIAN_POINT ( 'NONE',  ( 249.9999999999998863, -800.0000000000000000, -249.9999999999999432 ) ) ;
#343 = PERSON_AND_ORGANIZATION ( #158, #521 ) ;
#344 = CARTESIAN_POINT ( 'NONE',  ( -299.9999999999998295, 30.00000000000000000, 300.0000000000000568 ) ) ;
#345 = DIRECTION ( 'NONE',  ( 0.000000000000000000, -0.000000000000000000, -1.000000000000000000 ) ) ;
#346 = CARTESIAN_POINT ( 'NONE',  ( 299.9999999999998863, 0.000000000000000000, -249.9999999999999432 ) ) ;
#347 = CARTESIAN_POINT ( 'NONE',  ( 300.0000000000001705, 0.000000000000000000, -300.0000000000000568 ) ) ;
#348 = CARTESIAN_POINT ( 'NONE',  ( 300.0000000000001705, 30.00000000000000000, 299.9999999999999432 ) ) ;
#349 = PRODUCT ( 'table_\X2\9ed88ba4\X0\_sldprt', 'table_\X2\9ed88ba4\X0\_sldprt', '', ( #413 ) ) ;
#350 = VECTOR ( 'NONE', #9, 1000.000000000000000 ) ;
#351 = CARTESIAN_POINT ( 'NONE',  ( 249.9999999999998863, 0.000000000000000000, -249.9999999999999432 ) ) ;
#352 = EDGE_CURVE ( 'NONE', #554, #109, #244, .T. ) ;
#353 = AXIS2_PLACEMENT_3D ( 'NONE', #184, #331, #529 ) ;
#354 = CARTESIAN_POINT ( 'NONE',  ( 0.000000000000000000, 30.00000000000000000, 0.000000000000000000 ) ) ;
#355 = VECTOR ( 'NONE', #330, 1000.000000000000000 ) ;
#356 = CARTESIAN_POINT ( 'NONE',  ( -299.9999999999998295, 30.00000000000000000, 300.0000000000000568 ) ) ;
#357 = EDGE_CURVE ( 'NONE', #217, #455, #287, .T. ) ;
#358 = DIRECTION ( 'NONE',  ( 0.000000000000000000, 0.000000000000000000, 1.000000000000000000 ) ) ;
#359 = CARTESIAN_POINT ( 'NONE',  ( 300.0000000000001705, -800.0000000000000000, 299.9999999999997158 ) ) ;
#360 = DIRECTION ( 'NONE',  ( -1.000000000000000000, -0.000000000000000000, 4.440892098500632473E-15 ) ) ;
#361 = ADVANCED_FACE ( 'NONE', ( #484 ), #338, .F. ) ;
#362 = VECTOR ( 'NONE', #444, 1000.000000000000000 ) ;
#363 = ORIENTED_EDGE ( 'NONE', *, *, #448, .T. ) ;
#364 = DIRECTION ( 'NONE',  ( 1.850371707708594563E-16, -0.000000000000000000, 1.000000000000000000 ) ) ;
#365 = PLANE ( 'NONE',  #50 ) ;
#366 = ORIENTED_EDGE ( 'NONE', *, *, #17, .F. ) ;
#367 = EDGE_LOOP ( 'NONE', ( #166, #285, #317, #517 ) ) ;
#368 = DIRECTION ( 'NONE',  ( -0.000000000000000000, 1.000000000000000000, -0.000000000000000000 ) ) ;
#369 = LOCAL_TIME ( 21, 47, 37.00000000000000000, #537 ) ;
#370 = VECTOR ( 'NONE', #451, 1000.000000000000000 ) ;
#371 = VERTEX_POINT ( 'NONE', #104 ) ;
#372 = CC_DESIGN_PERSON_AND_ORGANIZATION_ASSIGNMENT ( #343, #142, ( #436 ) ) ;
#373 = VERTEX_POINT ( 'NONE', #94 ) ;
#374 = CARTESIAN_POINT ( 'NONE',  ( -249.9999999999998863, -800.0000000000000000, 299.9999999999998295 ) ) ;
#375 = ORIENTED_EDGE ( 'NONE', *, *, #620, .F. ) ;
#376 = EDGE_CURVE ( 'NONE', #519, #388, #443, .T. ) ;
#377 = ORIENTED_EDGE ( 'NONE', *, *, #352, .F. ) ;
#378 = ADVANCED_FACE ( 'NONE', ( #394 ), #290, .T. ) ;
#379 = VERTEX_POINT ( 'NONE', #594 ) ;
#380 = LINE ( 'NONE', #532, #246 ) ;
#381 = ORIENTED_EDGE ( 'NONE', *, *, #45, .T. ) ;
#382 = CALENDAR_DATE ( 2026, 19, 6 ) ;
#383 = DIRECTION ( 'NONE',  ( -1.000000000000000000, 0.000000000000000000, 0.000000000000000000 ) ) ;
#384 = DIRECTION ( 'NONE',  ( -1.000000000000000000, 0.000000000000000000, 0.000000000000000000 ) ) ;
#385 = ORIENTED_EDGE ( 'NONE', *, *, #513, .T. ) ;
#386 = CARTESIAN_POINT ( 'NONE',  ( -299.9999999999998295, 30.00000000000000000, -299.9999999999999432 ) ) ;
#387 = EDGE_CURVE ( 'NONE', #519, #455, #489, .T. ) ;
#388 = VERTEX_POINT ( 'NONE', #281 ) ;
#389 = DIRECTION ( 'NONE',  ( 1.000000000000000000, -0.000000000000000000, -1.850371707708594316E-16 ) ) ;
#390 = AXIS2_PLACEMENT_3D ( 'NONE', #71, #159, #108 ) ;
#391 = ADVANCED_BREP_SHAPE_REPRESENTATION ( 'table_\X2\9ed88ba4\X0\_sldprt', ( #516, #182 ), #314 ) ;
#392 = DIRECTION ( 'NONE',  ( 6.661338147750984996E-15, -0.000000000000000000, 1.000000000000000000 ) ) ;
#393 = DATE_AND_TIME ( #382, #369 ) ;
#394 = FACE_OUTER_BOUND ( 'NONE', #37, .T. ) ;
#395 = LINE ( 'NONE', #490, #49 ) ;
#396 = CARTESIAN_POINT ( 'NONE',  ( 249.9999999999998863, 0.000000000000000000, 299.9999999999998295 ) ) ;
#397 = CARTESIAN_POINT ( 'NONE',  ( -299.9999999999998863, 0.000000000000000000, -249.9999999999999432 ) ) ;
#398 = CC_DESIGN_PERSON_AND_ORGANIZATION_ASSIGNMENT ( #133, #480, ( #445 ) ) ;
#399 = DIRECTION ( 'NONE',  ( 1.000000000000000000, 0.000000000000000000, 0.000000000000000000 ) ) ;
#400 = LOCAL_TIME ( 21, 47, 37.00000000000000000, #52 ) ;
#401 = EDGE_CURVE ( 'NONE', #266, #181, #546, .T. ) ;
#402 = CARTESIAN_POINT ( 'NONE',  ( -249.9999999999998863, 0.000000000000000000, 299.9999999999998295 ) ) ;
#403 =( LENGTH_UNIT ( ) NAMED_UNIT ( * ) SI_UNIT ( .MILLI., .METRE. ) );
#404 = CARTESIAN_POINT ( 'NONE',  ( 300.0000000000001705, 30.00000000000000000, 299.9999999999999432 ) ) ;
#405 = DIRECTION ( 'NONE',  ( 1.000000000000000000, 0.000000000000000000, 4.440892098500630106E-15 ) ) ;
#406 = VERTEX_POINT ( 'NONE', #432 ) ;
#407 = EDGE_CURVE ( 'NONE', #424, #632, #481, .T. ) ;
#408 = ORIENTED_EDGE ( 'NONE', *, *, #584, .T. ) ;
#409 = PLANE ( 'NONE',  #66 ) ;
#410 = VECTOR ( 'NONE', #113, 1000.000000000000000 ) ;
#411 = LINE ( 'NONE', #622, #255 ) ;
#412 = PRODUCT_DEFINITION_SHAPE ( 'NONE', 'NONE',  #445 ) ;
#413 = MECHANICAL_CONTEXT ( 'NONE', #627, 'mechanical' ) ;
#414 = ORIENTED_EDGE ( 'NONE', *, *, #231, .F. ) ;
#415 = LINE ( 'NONE', #167, #40 ) ;
#416 = ORIENTED_EDGE ( 'NONE', *, *, #64, .F. ) ;
#417 = PLANE ( 'NONE',  #33 ) ;
#418 = CARTESIAN_POINT ( 'NONE',  ( -249.9999999999999716, -800.0000000000000000, -299.9999999999997158 ) ) ;
#419 = EDGE_CURVE ( 'NONE', #256, #554, #240, .T. ) ;
#420 = ORIENTED_EDGE ( 'NONE', *, *, #387, .T. ) ;
#421 = ORIENTED_EDGE ( 'NONE', *, *, #504, .F. ) ;
#422 = VECTOR ( 'NONE', #510, 1000.000000000000000 ) ;
#423 = ORIENTED_EDGE ( 'NONE', *, *, #325, .T. ) ;
#424 = VERTEX_POINT ( 'NONE', #6 ) ;
#425 = PLANE ( 'NONE',  #13 ) ;
#426 = ORIENTED_EDGE ( 'NONE', *, *, #257, .T. ) ;
#427 = PLANE ( 'NONE',  #353 ) ;
#428 = PERSON_AND_ORGANIZATION ( #158, #521 ) ;
#429 = DIRECTION ( 'NONE',  ( 0.000000000000000000, 0.000000000000000000, -1.000000000000000000 ) ) ;
#430 = ORIENTED_EDGE ( 'NONE', *, *, #407, .F. ) ;
#431 = VECTOR ( 'NONE', #203, 1000.000000000000000 ) ;
#432 = CARTESIAN_POINT ( 'NONE',  ( 249.9999999999998863, -800.0000000000000000, -249.9999999999999432 ) ) ;
#433 = EDGE_LOOP ( 'NONE', ( #492, #377, #601, #423 ) ) ;
#434 = CARTESIAN_POINT ( 'NONE',  ( 299.9999999999998295, -800.0000000000000000, 250.0000000000000568 ) ) ;
#435 = LINE ( 'NONE', #548, #362 ) ;
#436 = SECURITY_CLASSIFICATION ( '', '', #197 ) ;
#437 = DATE_AND_TIME ( #239, #624 ) ;
#438 = EDGE_CURVE ( 'NONE', #388, #303, #8, .T. ) ;
#439 = LINE ( 'NONE', #195, #57 ) ;
#440 = VECTOR ( 'NONE', #585, 1000.000000000000000 ) ;
#441 = DIRECTION ( 'NONE',  ( -1.850371707708594563E-16, 0.000000000000000000, -1.000000000000000000 ) ) ;
#442 = VECTOR ( 'NONE', #46, 1000.000000000000000 ) ;
#443 = LINE ( 'NONE', #55, #174 ) ;
#444 = DIRECTION ( 'NONE',  ( 0.000000000000000000, 0.000000000000000000, -1.000000000000000000 ) ) ;
#445 = PRODUCT_DEFINITION ( '未知', '', #47, #474 ) ;
#446 = DIRECTION ( 'NONE',  ( 1.000000000000000000, 0.000000000000000000, 0.000000000000000000 ) ) ;
#447 = CARTESIAN_POINT ( 'NONE',  ( 0.000000000000000000, -800.0000000000000000, 0.000000000000000000 ) ) ;
#448 = EDGE_CURVE ( 'NONE', #20, #256, #592, .T. ) ;
#449 = DIRECTION ( 'NONE',  ( 1.000000000000000000, 0.000000000000000000, -1.110223024625161668E-15 ) ) ;
#450 = FACE_OUTER_BOUND ( 'NONE', #323, .T. ) ;
#451 = DIRECTION ( 'NONE',  ( 1.000000000000000000, -0.000000000000000000, -2.220446049250309925E-15 ) ) ;
#452 = VECTOR ( 'NONE', #80, 1000.000000000000000 ) ;
#453 = DIRECTION ( 'NONE',  ( -1.110223024625161668E-15, -0.000000000000000000, 1.000000000000000000 ) ) ;
#454 = APPROVAL ( #215, '未指定' ) ;
#455 = VERTEX_POINT ( 'NONE', #10 ) ;
#456 = FACE_OUTER_BOUND ( 'NONE', #225, .T. ) ;
#457 = LINE ( 'NONE', #310, #329 ) ;
#458 = DIRECTION ( 'NONE',  ( 1.000000000000000000, 0.000000000000000000, 0.000000000000000000 ) ) ;
#459 = PLANE ( 'NONE',  #591 ) ;
#460 = LINE ( 'NONE', #500, #587 ) ;
#461 = EDGE_CURVE ( 'NONE', #573, #324, #48, .T. ) ;
#462 = DIRECTION ( 'NONE',  ( 1.000000000000000000, -0.000000000000000000, 0.000000000000000000 ) ) ;
#463 = ORIENTED_EDGE ( 'NONE', *, *, #616, .F. ) ;
#464 = ORIENTED_EDGE ( 'NONE', *, *, #401, .F. ) ;
#465 = VERTEX_POINT ( 'NONE', #2 ) ;
#466 = ORIENTED_EDGE ( 'NONE', *, *, #257, .F. ) ;
#467 = VECTOR ( 'NONE', #283, 1000.000000000000000 ) ;
#468 = ORIENTED_EDGE ( 'NONE', *, *, #564, .F. ) ;
#469 = ORIENTED_EDGE ( 'NONE', *, *, #111, .T. ) ;
#470 = EDGE_CURVE ( 'NONE', #465, #217, #439, .T. ) ;
#471 = DIRECTION ( 'NONE',  ( -1.110223024625161668E-15, 0.000000000000000000, 1.000000000000000000 ) ) ;
#472 = FACE_OUTER_BOUND ( 'NONE', #520, .T. ) ;
#473 = DIRECTION ( 'NONE',  ( -0.000000000000000000, -0.000000000000000000, 1.000000000000000000 ) ) ;
#474 = DESIGN_CONTEXT ( 'detailed design', #633, 'design' ) ;
#475 = APPROVAL_PERSON_ORGANIZATION ( #483, #70, #630 ) ;
#476 = COORDINATED_UNIVERSAL_TIME_OFFSET ( 8, 0, .AHEAD. ) ;
#477 = DIRECTION ( 'NONE',  ( -3.330669073875478299E-15, 0.000000000000000000, 1.000000000000000000 ) ) ;
#478 = FACE_OUTER_BOUND ( 'NONE', #565, .T. ) ;
#479 = VERTEX_POINT ( 'NONE', #344 ) ;
#480 = PERSON_AND_ORGANIZATION_ROLE ( 'creator' ) ;
#481 = LINE ( 'NONE', #347, #556 ) ;
#482 = CARTESIAN_POINT ( 'NONE',  ( 300.0000000000000568, -800.0000000000000000, -299.9999999999998295 ) ) ;
#483 = PERSON_AND_ORGANIZATION ( #158, #521 ) ;
#484 = FACE_OUTER_BOUND ( 'NONE', #609, .T. ) ;
#485 = FACE_OUTER_BOUND ( 'NONE', #89, .T. ) ;
#486 = APPROVAL_PERSON_ORGANIZATION ( #428, #241, #185 ) ;
#487 = LINE ( 'NONE', #386, #440 ) ;
#488 = FACE_OUTER_BOUND ( 'NONE', #132, .T. ) ;
#489 = LINE ( 'NONE', #294, #252 ) ;
#490 = CARTESIAN_POINT ( 'NONE',  ( -299.9999999999998295, 0.000000000000000000, 300.0000000000000568 ) ) ;
#491 = CARTESIAN_POINT ( 'NONE',  ( -299.9999999999998295, 30.00000000000000000, -299.9999999999999432 ) ) ;
#492 = ORIENTED_EDGE ( 'NONE', *, *, #502, .T. ) ;
#493 = LINE ( 'NONE', #208, #205 ) ;
#494 = ORIENTED_EDGE ( 'NONE', *, *, #226, .F. ) ;
#495 = DIRECTION ( 'NONE',  ( 0.000000000000000000, -0.000000000000000000, -1.000000000000000000 ) ) ;
#496 = CARTESIAN_POINT ( 'NONE',  ( 0.000000000000000000, -800.0000000000000000, 0.000000000000000000 ) ) ;
#497 = AXIS2_PLACEMENT_3D ( 'NONE', #447, #293, #345 ) ;
#498 = ORIENTED_EDGE ( 'NONE', *, *, #470, .T. ) ;
#499 = PLANE ( 'NONE',  #390 ) ;
#500 = CARTESIAN_POINT ( 'NONE',  ( 299.9999999999998295, 0.000000000000000000, 250.0000000000000568 ) ) ;
#501 = ORIENTED_EDGE ( 'NONE', *, *, #214, .F. ) ;
#502 = EDGE_CURVE ( 'NONE', #316, #109, #143, .T. ) ;
#503 = EDGE_LOOP ( 'NONE', ( #224, #90, #466, #114 ) ) ;
#504 = EDGE_CURVE ( 'NONE', #526, #379, #487, .T. ) ;
#505 = FACE_OUTER_BOUND ( 'NONE', #433, .T. ) ;
#506 = VERTEX_POINT ( 'NONE', #351 ) ;
#507 = DIRECTION ( 'NONE',  ( -0.000000000000000000, -1.000000000000000000, -0.000000000000000000 ) ) ;
#508 = PLANE ( 'NONE',  #5 ) ;
#509 = PRODUCT_RELATED_PRODUCT_CATEGORY ( 'detail', '', ( #349 ) ) ;
#510 = DIRECTION ( 'NONE',  ( -1.000000000000000000, 0.000000000000000000, 0.000000000000000000 ) ) ;
#511 = EDGE_LOOP ( 'NONE', ( #173, #557, #469, #574, #562, #312, #468, #366 ) ) ;
#512 = VECTOR ( 'NONE', #102, 1000.000000000000000 ) ;
#513 = EDGE_CURVE ( 'NONE', #109, #465, #549, .T. ) ;
#514 = DIRECTION ( 'NONE',  ( 0.000000000000000000, 0.000000000000000000, -1.000000000000000000 ) ) ;
#515 = AXIS2_PLACEMENT_3D ( 'NONE', #59, #291, #199 ) ;
#516 = MANIFOLD_SOLID_BREP ( '凸台-拉伸2', #88 ) ;
#517 = ORIENTED_EDGE ( 'NONE', *, *, #226, .T. ) ;
#518 = ORIENTED_EDGE ( 'NONE', *, *, #533, .T. ) ;
#519 = VERTEX_POINT ( 'NONE', #251 ) ;
#520 = EDGE_LOOP ( 'NONE', ( #129, #494, #534, #270 ) ) ;
#521 = ORGANIZATION ( '未指定', '未指定', '' ) ;
#522 = AXIS2_PLACEMENT_3D ( 'NONE', #544, #150, #538 ) ;
#523 = ADVANCED_FACE ( 'NONE', ( #547 ), #598, .F. ) ;
#524 = PLANE ( 'NONE',  #568 ) ;
#525 = VECTOR ( 'NONE', #608, 1000.000000000000000 ) ;
#526 = VERTEX_POINT ( 'NONE', #491 ) ;
#527 = CARTESIAN_POINT ( 'NONE',  ( 249.9999999999998863, -800.0000000000000000, 299.9999999999998295 ) ) ;
#528 = CARTESIAN_POINT ( 'NONE',  ( -249.9999999999999716, -800.0000000000000000, -299.9999999999997158 ) ) ;
#529 = DIRECTION ( 'NONE',  ( 1.665334536937742699E-15, 0.000000000000000000, 1.000000000000000000 ) ) ;
#530 = CALENDAR_DATE ( 2026, 19, 6 ) ;
#531 = DIRECTION ( 'NONE',  ( -1.000000000000000000, 0.000000000000000000, 2.220446049250301248E-15 ) ) ;
#532 = CARTESIAN_POINT ( 'NONE',  ( 299.9999999999998863, -800.0000000000000000, -249.9999999999999432 ) ) ;
#533 = EDGE_CURVE ( 'NONE', #373, #42, #596, .T. ) ;
#534 = ORIENTED_EDGE ( 'NONE', *, *, #180, .F. ) ;
#535 = CC_DESIGN_APPROVAL ( #70, ( #47 ) ) ;
#536 = AXIS2_PLACEMENT_3D ( 'NONE', #542, #101, #233 ) ;
#537 = COORDINATED_UNIVERSAL_TIME_OFFSET ( 8, 0, .AHEAD. ) ;
#538 = DIRECTION ( 'NONE',  ( 1.000000000000000000, 0.000000000000000000, -0.000000000000000000 ) ) ;
#539 = LINE ( 'NONE', #593, #431 ) ;
#540 = ADVANCED_FACE ( 'NONE', ( #302 ), #499, .F. ) ;
#541 = DATE_TIME_ROLE ( 'classification_date' ) ;
#542 = CARTESIAN_POINT ( 'NONE',  ( 0.000000000000000000, -800.0000000000000000, 0.000000000000000000 ) ) ;
#543 = LINE ( 'NONE', #105, #512 ) ;
#544 = CARTESIAN_POINT ( 'NONE',  ( 299.9999999999998295, -800.0000000000000000, 250.0000000000000568 ) ) ;
#545 = LINE ( 'NONE', #56, #467 ) ;
#546 = LINE ( 'NONE', #202, #196 ) ;
#547 = FACE_OUTER_BOUND ( 'NONE', #176, .T. ) ;
#548 = CARTESIAN_POINT ( 'NONE',  ( 300.0000000000001705, 0.000000000000000000, 299.9999999999999432 ) ) ;
#549 = LINE ( 'NONE', #402, #272 ) ;
#550 = PLANE ( 'NONE',  #16 ) ;
#551 = DIRECTION ( 'NONE',  ( 1.000000000000000000, 0.000000000000000000, 0.000000000000000000 ) ) ;
#552 = EDGE_CURVE ( 'NONE', #324, #217, #253, .T. ) ;
#553 = CARTESIAN_POINT ( 'NONE',  ( -249.9999999999998863, -800.0000000000000000, 299.9999999999998295 ) ) ;
#554 = VERTEX_POINT ( 'NONE', #14 ) ;
#555 = DIRECTION ( 'NONE',  ( 0.000000000000000000, -0.000000000000000000, -1.000000000000000000 ) ) ;
#556 = VECTOR ( 'NONE', #60, 1000.000000000000000 ) ;
#557 = ORIENTED_EDGE ( 'NONE', *, *, #560, .F. ) ;
#558 = CARTESIAN_POINT ( 'NONE',  ( 300.0000000000000568, -800.0000000000000000, -299.9999999999998295 ) ) ;
#559 = LINE ( 'NONE', #91, #355 ) ;
#560 = EDGE_CURVE ( 'NONE', #42, #379, #206, .T. ) ;
#561 = APPROVAL_ROLE ( '' ) ;
#562 = ORIENTED_EDGE ( 'NONE', *, *, #325, .F. ) ;
#563 = LINE ( 'NONE', #125, #219 ) ;
#564 = EDGE_CURVE ( 'NONE', #479, #20, #296, .T. ) ;
#565 = EDGE_LOOP ( 'NONE', ( #192, #375, #336, #498, #275, #81, #307, #271 ) ) ;
#566 = DIRECTION ( 'NONE',  ( 1.000000000000000000, -0.000000000000000000, -0.000000000000000000 ) ) ;
#567 = VECTOR ( 'NONE', #360, 1000.000000000000000 ) ;
#568 = AXIS2_PLACEMENT_3D ( 'NONE', #87, #273, #471 ) ;
#569 = ORIENTED_EDGE ( 'NONE', *, *, #7, .F. ) ;
#570 = ORIENTED_EDGE ( 'NONE', *, *, #231, .T. ) ;
#571 = CARTESIAN_POINT ( 'NONE',  ( 300.0000000000001705, 0.000000000000000000, 250.0000000000000568 ) ) ;
#572 = EDGE_CURVE ( 'NONE', #379, #188, #493, .T. ) ;
#573 = VERTEX_POINT ( 'NONE', #359 ) ;
#574 = ORIENTED_EDGE ( 'NONE', *, *, #194, .T. ) ;
#575 = VERTEX_POINT ( 'NONE', #553 ) ;
#576 = ORIENTED_EDGE ( 'NONE', *, *, #461, .T. ) ;
#577 = PLANE ( 'NONE',  #25 ) ;
#578 = CARTESIAN_POINT ( 'NONE',  ( 249.9999999999998863, -800.0000000000000000, 299.9999999999998295 ) ) ;
#579 = UNCERTAINTY_MEASURE_WITH_UNIT (LENGTH_MEASURE( 1.000000000000000082E-05 ), #403, 'distance_accuracy_value', 'NONE');
#580 = EDGE_CURVE ( 'NONE', #371, #266, #260, .T. ) ;
#581 = COORDINATED_UNIVERSAL_TIME_OFFSET ( 8, 0, .AHEAD. ) ;
#582 = LINE ( 'NONE', #78, #69 ) ;
#583 = ORIENTED_EDGE ( 'NONE', *, *, #552, .T. ) ;
#584 = EDGE_CURVE ( 'NONE', #24, #266, #15, .T. ) ;
#585 = DIRECTION ( 'NONE',  ( -0.000000000000000000, -1.000000000000000000, -0.000000000000000000 ) ) ;
#586 = ORIENTED_EDGE ( 'NONE', *, *, #572, .T. ) ;
#587 = VECTOR ( 'NONE', #566, 1000.000000000000000 ) ;
#588 = CARTESIAN_POINT ( 'NONE',  ( -299.9999999999998295, 0.000000000000000000, 250.0000000000000568 ) ) ;
#589 = CARTESIAN_POINT ( 'NONE',  ( -249.9999999999999716, 0.000000000000000000, -299.9999999999997158 ) ) ;
#590 = CC_DESIGN_DATE_AND_TIME_ASSIGNMENT ( #437, #541, ( #436 ) ) ;
#591 = AXIS2_PLACEMENT_3D ( 'NONE', #183, #462, #171 ) ;
#592 = LINE ( 'NONE', #248, #141 ) ;
#593 = CARTESIAN_POINT ( 'NONE',  ( -249.9999999999998863, -800.0000000000000000, -249.9999999999999432 ) ) ;
#594 = CARTESIAN_POINT ( 'NONE',  ( -299.9999999999999432, -800.0000000000000000, -299.9999999999999432 ) ) ;
#595 = DIRECTION ( 'NONE',  ( -1.110223024625161668E-15, 0.000000000000000000, -1.000000000000000000 ) ) ;
#596 = LINE ( 'NONE', #155, #161 ) ;
#597 = ADVANCED_FACE ( 'NONE', ( #254 ), #409, .F. ) ;
#598 = PLANE ( 'NONE',  #243 ) ;
#599 = EDGE_CURVE ( 'NONE', #35, #506, #63, .T. ) ;
#600 = LINE ( 'NONE', #300, #567 ) ;
#601 = ORIENTED_EDGE ( 'NONE', *, *, #419, .F. ) ;
#602 = CC_DESIGN_APPROVAL ( #454, ( #445 ) ) ;
#603 = LINE ( 'NONE', #374, #86 ) ;
#604 = VECTOR ( 'NONE', #107, 1000.000000000000000 ) ;
#605 = CARTESIAN_POINT ( 'NONE',  ( 249.9999999999999716, 0.000000000000000000, -299.9999999999997158 ) ) ;
#606 = CARTESIAN_POINT ( 'NONE',  ( 0.000000000000000000, -800.0000000000000000, 0.000000000000000000 ) ) ;
#607 = APPLICATION_PROTOCOL_DEFINITION ( 'international standard', 'config_control_design', 1994, #633 ) ;
#608 = DIRECTION ( 'NONE',  ( 1.665334536937742502E-15, -0.000000000000000000, -1.000000000000000000 ) ) ;
#609 = EDGE_LOOP ( 'NONE', ( #116, #85, #321, #420 ) ) ;
#610 = APPLICATION_PROTOCOL_DEFINITION ( 'international standard', 'config_control_design', 1994, #627 ) ;
#611 = DIRECTION ( 'NONE',  ( -0.000000000000000000, 1.000000000000000000, -0.000000000000000000 ) ) ;
#612 = ORIENTED_EDGE ( 'NONE', *, *, #289, .F. ) ;
#613 = VECTOR ( 'NONE', #311, 1000.000000000000000 ) ;
#614 = ORIENTED_EDGE ( 'NONE', *, *, #145, .T. ) ;
#615 = ORIENTED_EDGE ( 'NONE', *, *, #620, .T. ) ;
#616 = EDGE_CURVE ( 'NONE', #455, #303, #460, .T. ) ;
#617 = CARTESIAN_POINT ( 'NONE',  ( 300.0000000000001705, 30.00000000000000000, 299.9999999999999432 ) ) ;
#618 = ADVANCED_FACE ( 'NONE', ( #505 ), #417, .F. ) ;
#619 = ORIENTED_EDGE ( 'NONE', *, *, #584, .F. ) ;
#620 = EDGE_CURVE ( 'NONE', #575, #20, #600, .T. ) ;
#621 = AXIS2_PLACEMENT_3D ( 'NONE', #354, #148, #61 ) ;
#622 = CARTESIAN_POINT ( 'NONE',  ( -299.9999999999998863, 0.000000000000000000, -249.9999999999999432 ) ) ;
#623 = ORIENTED_EDGE ( 'NONE', *, *, #333, .F. ) ;
#624 = LOCAL_TIME ( 21, 47, 37.00000000000000000, #228 ) ;
#625 = PERSON_AND_ORGANIZATION ( #158, #521 ) ;
#626 = LINE ( 'NONE', #528, #76 ) ;
#627 = APPLICATION_CONTEXT ( 'configuration controlled 3d designs of mechanical parts and assemblies' ) ;
#628 = ORIENTED_EDGE ( 'NONE', *, *, #194, .F. ) ;
#629 = ADVANCED_FACE ( 'NONE', ( #456 ), #110, .T. ) ;
#630 = APPROVAL_ROLE ( '' ) ;
#631 = CARTESIAN_POINT ( 'NONE',  ( -249.9999999999998295, -800.0000000000000000, 250.0000000000000568 ) ) ;
#632 = VERTEX_POINT ( 'NONE', #216 ) ;
#633 = APPLICATION_CONTEXT ( 'configuration controlled 3d designs of mechanical parts and assemblies' ) ;
ENDSEC;
END-ISO-10303-21;
