ISO-10303-21;
HEADER;
FILE_DESCRIPTION (( 'STEP AP203' ),
    '1' );
FILE_NAME ('base_默认_sldprt.STEP',
    '2026-06-19T13:47:28',
    ( '' ),
    ( '' ),
    'SwSTEP 2.0',
    'SolidWorks 2022',
    '' );
FILE_SCHEMA (( 'CONFIG_CONTROL_DESIGN' ));
ENDSEC;

DATA;
#1 = ORIENTED_EDGE ( 'NONE', *, *, #78, .T. ) ;
#2 = DIRECTION ( 'NONE',  ( -0.000000000000000000, -1.000000000000000000, -0.000000000000000000 ) ) ;
#3 = VECTOR ( 'NONE', #2, 1000.000000000000000 ) ;
#4 = DIRECTION ( 'NONE',  ( 0.000000000000000000, -0.000000000000000000, 1.000000000000000000 ) ) ;
#5 = EDGE_CURVE ( 'NONE', #52, #76, #179, .T. ) ;
#6 = DIRECTION ( 'NONE',  ( 0.000000000000000000, -0.000000000000000000, 1.000000000000000000 ) ) ;
#7 = CARTESIAN_POINT ( 'NONE',  ( 4.898587196589413026E-15, 20.00000000000000000, 40.00000000000000000 ) ) ;
#8 = DIRECTION ( 'NONE',  ( 0.000000000000000000, 0.000000000000000000, -1.000000000000000000 ) ) ;
#9 = EDGE_LOOP ( 'NONE', ( #96, #23, #197, #220 ) ) ;
#10 = AXIS2_PLACEMENT_3D ( 'NONE', #115, #73, #160 ) ;
#11 = CARTESIAN_POINT ( 'NONE',  ( 0.000000000000000000, 0.000000000000000000, 0.000000000000000000 ) ) ;
#12 = EDGE_CURVE ( 'NONE', #128, #176, #108, .T. ) ;
#13 = PERSON_AND_ORGANIZATION ( #154, #87 ) ;
#14 = CIRCLE ( 'NONE', #10, 40.00000000000000000 ) ;
#15 = CALENDAR_DATE ( 2026, 19, 6 ) ;
#16 = COORDINATED_UNIVERSAL_TIME_OFFSET ( 8, 0, .AHEAD. ) ;
#17 = DIRECTION ( 'NONE',  ( -0.000000000000000000, -1.000000000000000000, -0.000000000000000000 ) ) ;
#18 = VERTEX_POINT ( 'NONE', #218 ) ;
#19 = CYLINDRICAL_SURFACE ( 'NONE', #72, 40.00000000000000000 ) ;
#20 = FACE_OUTER_BOUND ( 'NONE', #113, .T. ) ;
#21 = APPROVAL ( #83, '未指定' ) ;
#22 = DIRECTION ( 'NONE',  ( -0.000000000000000000, -1.000000000000000000, -0.000000000000000000 ) ) ;
#23 = ORIENTED_EDGE ( 'NONE', *, *, #223, .F. ) ;
#24 = FACE_OUTER_BOUND ( 'NONE', #216, .T. ) ;
#25 = CARTESIAN_POINT ( 'NONE',  ( 0.000000000000000000, 20.00000000000000000, -10.00000000000000000 ) ) ;
#26 = CARTESIAN_POINT ( 'NONE',  ( 0.000000000000000000, 75.00000000000000000, 0.000000000000000000 ) ) ;
#27 = CARTESIAN_POINT ( 'NONE',  ( 0.000000000000000000, 20.00000000000000000, -40.00000000000000000 ) ) ;
#28 = ADVANCED_FACE ( 'NONE', ( #20 ), #92, .T. ) ;
#29 = CALENDAR_DATE ( 2026, 19, 6 ) ;
#30 = PRODUCT_RELATED_PRODUCT_CATEGORY ( 'detail', '', ( #123 ) ) ;
#31 = APPROVAL_DATE_TIME ( #49, #100 ) ;
#32 = LOCAL_TIME ( 21, 47, 28.00000000000000000, #250 ) ;
#33 = PERSON_AND_ORGANIZATION_ROLE ( 'creator' ) ;
#34 = CC_DESIGN_APPROVAL ( #21, ( #84 ) ) ;
#35 = CC_DESIGN_PERSON_AND_ORGANIZATION_ASSIGNMENT ( #82, #102, ( #74 ) ) ;
#36 = EDGE_LOOP ( 'NONE', ( #192, #40, #180, #190 ) ) ;
#37 = CIRCLE ( 'NONE', #51, 40.00000000000000000 ) ;
#38 = ORIENTED_EDGE ( 'NONE', *, *, #232, .F. ) ;
#39 = CARTESIAN_POINT ( 'NONE',  ( 0.000000000000000000, 20.00000000000000000, 0.000000000000000000 ) ) ;
#40 = ORIENTED_EDGE ( 'NONE', *, *, #66, .T. ) ;
#41 = CYLINDRICAL_SURFACE ( 'NONE', #138, 10.00000000000000000 ) ;
#42 = ORIENTED_EDGE ( 'NONE', *, *, #148, .F. ) ;
#43 = VECTOR ( 'NONE', #17, 1000.000000000000000 ) ;
#44 = ORIENTED_EDGE ( 'NONE', *, *, #182, .T. ) ;
#45 = CARTESIAN_POINT ( 'NONE',  ( 0.000000000000000000, 20.00000000000000000, 0.000000000000000000 ) ) ;
#46 = EDGE_CURVE ( 'NONE', #136, #76, #14, .T. ) ;
#47 = DIRECTION ( 'NONE',  ( 0.000000000000000000, 1.000000000000000000, 0.000000000000000000 ) ) ;
#48 = CIRCLE ( 'NONE', #129, 40.00000000000000000 ) ;
#49 = DATE_AND_TIME ( #150, #32 ) ;
#50 = APPROVAL_ROLE ( '' ) ;
#51 = AXIS2_PLACEMENT_3D ( 'NONE', #62, #112, #202 ) ;
#52 = VERTEX_POINT ( 'NONE', #56 ) ;
#53 = DIRECTION ( 'NONE',  ( 0.000000000000000000, 1.000000000000000000, 0.000000000000000000 ) ) ;
#54 = VERTEX_POINT ( 'NONE', #25 ) ;
#55 = DIRECTION ( 'NONE',  ( 0.000000000000000000, 0.000000000000000000, -1.000000000000000000 ) ) ;
#56 = CARTESIAN_POINT ( 'NONE',  ( 4.898587196589413026E-15, 20.00000000000000000, 40.00000000000000000 ) ) ;
#57 = DIRECTION ( 'NONE',  ( 0.000000000000000000, 0.000000000000000000, -1.000000000000000000 ) ) ;
#58 = FACE_BOUND ( 'NONE', #69, .T. ) ;
#59 = CARTESIAN_POINT ( 'NONE',  ( 1.224646799147353256E-15, 75.00000000000000000, 10.00000000000000000 ) ) ;
#60 =( GEOMETRIC_REPRESENTATION_CONTEXT ( 3 ) GLOBAL_UNCERTAINTY_ASSIGNED_CONTEXT ( ( #155 ) ) GLOBAL_UNIT_ASSIGNED_CONTEXT ( ( #130, #77, #137 ) ) REPRESENTATION_CONTEXT ( 'NONE', 'WORKASPACE' ) );
#61 = DIRECTION ( 'NONE',  ( 0.000000000000000000, 1.000000000000000000, 0.000000000000000000 ) ) ;
#62 = CARTESIAN_POINT ( 'NONE',  ( 0.000000000000000000, 20.00000000000000000, 0.000000000000000000 ) ) ;
#63 = SECURITY_CLASSIFICATION_LEVEL ( 'unclassified' ) ;
#64 = DATE_TIME_ROLE ( 'classification_date' ) ;
#65 = APPROVAL_DATE_TIME ( #184, #187 ) ;
#66 = EDGE_CURVE ( 'NONE', #128, #18, #134, .T. ) ;
#67 = CIRCLE ( 'NONE', #224, 40.00000000000000000 ) ;
#68 = ADVANCED_FACE ( 'NONE', ( #58, #226 ), #245, .T. ) ;
#69 = EDGE_LOOP ( 'NONE', ( #42, #89 ) ) ;
#70 = ORIENTED_EDGE ( 'NONE', *, *, #78, .F. ) ;
#71 = CARTESIAN_POINT ( 'NONE',  ( 0.000000000000000000, 75.00000000000000000, -10.00000000000000000 ) ) ;
#72 = AXIS2_PLACEMENT_3D ( 'NONE', #39, #95, #238 ) ;
#73 = DIRECTION ( 'NONE',  ( 0.000000000000000000, 1.000000000000000000, 0.000000000000000000 ) ) ;
#74 = PRODUCT_DEFINITION_FORMATION_WITH_SPECIFIED_SOURCE ( '任何', '', #123, .NOT_KNOWN. ) ;
#75 = DIRECTION ( 'NONE',  ( -0.000000000000000000, -1.000000000000000000, -0.000000000000000000 ) ) ;
#76 = VERTEX_POINT ( 'NONE', #117 ) ;
#77 =( NAMED_UNIT ( * ) PLANE_ANGLE_UNIT ( ) SI_UNIT ( $, .RADIAN. ) );
#78 = EDGE_CURVE ( 'NONE', #90, #52, #37, .T. ) ;
#79 = DIRECTION ( 'NONE',  ( -0.000000000000000000, -1.000000000000000000, -0.000000000000000000 ) ) ;
#80 = CARTESIAN_POINT ( 'NONE',  ( 0.000000000000000000, 20.00000000000000000, 0.000000000000000000 ) ) ;
#81 = CARTESIAN_POINT ( 'NONE',  ( 0.000000000000000000, 0.000000000000000000, 0.000000000000000000 ) ) ;
#82 = PERSON_AND_ORGANIZATION ( #154, #87 ) ;
#83 = APPROVAL_STATUS ( 'not_yet_approved' ) ;
#84 = SECURITY_CLASSIFICATION ( '', '', #63 ) ;
#85 = CARTESIAN_POINT ( 'NONE',  ( 0.000000000000000000, 0.000000000000000000, 0.000000000000000000 ) ) ;
#86 = EDGE_CURVE ( 'NONE', #90, #136, #116, .T. ) ;
#87 = ORGANIZATION ( '未指定', '未指定', '' ) ;
#88 = ADVANCED_FACE ( 'NONE', ( #193 ), #19, .T. ) ;
#89 = ORIENTED_EDGE ( 'NONE', *, *, #233, .F. ) ;
#90 = VERTEX_POINT ( 'NONE', #27 ) ;
#91 = DIRECTION ( 'NONE',  ( 0.000000000000000000, 0.000000000000000000, 1.000000000000000000 ) ) ;
#92 = PLANE ( 'NONE',  #174 ) ;
#93 = CYLINDRICAL_SURFACE ( 'NONE', #114, 40.00000000000000000 ) ;
#94 = ORIENTED_EDGE ( 'NONE', *, *, #46, .F. ) ;
#95 = DIRECTION ( 'NONE',  ( -0.000000000000000000, -1.000000000000000000, -0.000000000000000000 ) ) ;
#96 = ORIENTED_EDGE ( 'NONE', *, *, #66, .F. ) ;
#97 = DIRECTION ( 'NONE',  ( 0.000000000000000000, 1.000000000000000000, 0.000000000000000000 ) ) ;
#98 = FACE_OUTER_BOUND ( 'NONE', #9, .T. ) ;
#99 = APPROVAL_ROLE ( '' ) ;
#100 = APPROVAL ( #149, '未指定' ) ;
#101 = PERSON_AND_ORGANIZATION ( #154, #87 ) ;
#102 = PERSON_AND_ORGANIZATION_ROLE ( 'design_supplier' ) ;
#103 = APPLICATION_CONTEXT ( 'configuration controlled 3d designs of mechanical parts and assemblies' ) ;
#104 = AXIS2_PLACEMENT_3D ( 'NONE', #26, #75, #8 ) ;
#105 = ADVANCED_FACE ( 'NONE', ( #178 ), #41, .T. ) ;
#106 = PERSON_AND_ORGANIZATION_ROLE ( 'classification_officer' ) ;
#107 = CC_DESIGN_DATE_AND_TIME_ASSIGNMENT ( #247, #64, ( #84 ) ) ;
#108 = CIRCLE ( 'NONE', #248, 10.00000000000000000 ) ;
#109 = EDGE_LOOP ( 'NONE', ( #94, #163 ) ) ;
#110 = DIRECTION ( 'NONE',  ( 0.000000000000000000, 1.000000000000000000, 0.000000000000000000 ) ) ;
#111 = ORIENTED_EDGE ( 'NONE', *, *, #232, .T. ) ;
#112 = DIRECTION ( 'NONE',  ( 0.000000000000000000, 1.000000000000000000, 0.000000000000000000 ) ) ;
#113 = EDGE_LOOP ( 'NONE', ( #213, #157 ) ) ;
#114 = AXIS2_PLACEMENT_3D ( 'NONE', #80, #243, #57 ) ;
#115 = CARTESIAN_POINT ( 'NONE',  ( 0.000000000000000000, 0.000000000000000000, 0.000000000000000000 ) ) ;
#116 = LINE ( 'NONE', #201, #3 ) ;
#117 = CARTESIAN_POINT ( 'NONE',  ( 4.898587196589413026E-15, 0.000000000000000000, 40.00000000000000000 ) ) ;
#118 = CYLINDRICAL_SURFACE ( 'NONE', #104, 10.00000000000000000 ) ;
#119 = DIRECTION ( 'NONE',  ( 0.000000000000000000, 0.000000000000000000, 1.000000000000000000 ) ) ;
#120 = PERSON_AND_ORGANIZATION ( #154, #87 ) ;
#121 = COORDINATED_UNIVERSAL_TIME_OFFSET ( 8, 0, .AHEAD. ) ;
#122 = APPROVAL_STATUS ( 'not_yet_approved' ) ;
#123 = PRODUCT ( 'base_\X2\9ed88ba4\X0\_sldprt', 'base_\X2\9ed88ba4\X0\_sldprt', '', ( #124 ) ) ;
#124 = MECHANICAL_CONTEXT ( 'NONE', #235, 'mechanical' ) ;
#125 = CC_DESIGN_APPROVAL ( #100, ( #253 ) ) ;
#126 = ADVANCED_FACE ( 'NONE', ( #98 ), #118, .T. ) ;
#127 = ORIENTED_EDGE ( 'NONE', *, *, #86, .T. ) ;
#128 = VERTEX_POINT ( 'NONE', #59 ) ;
#129 = AXIS2_PLACEMENT_3D ( 'NONE', #246, #47, #217 ) ;
#130 =( LENGTH_UNIT ( ) NAMED_UNIT ( * ) SI_UNIT ( .MILLI., .METRE. ) );
#131 = DIRECTION ( 'NONE',  ( 0.000000000000000000, 1.000000000000000000, 0.000000000000000000 ) ) ;
#132 = FACE_OUTER_BOUND ( 'NONE', #109, .T. ) ;
#133 = ADVANCED_FACE ( 'NONE', ( #24 ), #93, .T. ) ;
#134 = LINE ( 'NONE', #244, #151 ) ;
#135 = CARTESIAN_POINT ( 'NONE',  ( 0.000000000000000000, 20.00000000000000000, 0.000000000000000000 ) ) ;
#136 = VERTEX_POINT ( 'NONE', #159 ) ;
#137 =( NAMED_UNIT ( * ) SI_UNIT ( $, .STERADIAN. ) SOLID_ANGLE_UNIT ( ) );
#138 = AXIS2_PLACEMENT_3D ( 'NONE', #198, #22, #55 ) ;
#139 = DIRECTION ( 'NONE',  ( 0.000000000000000000, -0.000000000000000000, 1.000000000000000000 ) ) ;
#140 = APPROVAL_PERSON_ORGANIZATION ( #120, #100, #99 ) ;
#141 = CARTESIAN_POINT ( 'NONE',  ( 0.000000000000000000, 20.00000000000000000, 0.000000000000000000 ) ) ;
#142 = CC_DESIGN_PERSON_AND_ORGANIZATION_ASSIGNMENT ( #207, #106, ( #84 ) ) ;
#143 = DATE_TIME_ROLE ( 'creation_date' ) ;
#144 = APPROVAL_ROLE ( '' ) ;
#145 = CIRCLE ( 'NONE', #172, 10.00000000000000000 ) ;
#146 = CALENDAR_DATE ( 2026, 19, 6 ) ;
#147 = LOCAL_TIME ( 21, 47, 28.00000000000000000, #16 ) ;
#148 = EDGE_CURVE ( 'NONE', #54, #18, #145, .T. ) ;
#149 = APPROVAL_STATUS ( 'not_yet_approved' ) ;
#150 = CALENDAR_DATE ( 2026, 19, 6 ) ;
#151 = VECTOR ( 'NONE', #79, 1000.000000000000000 ) ;
#152 = LOCAL_TIME ( 21, 47, 28.00000000000000000, #206 ) ;
#153 = VECTOR ( 'NONE', #241, 1000.000000000000000 ) ;
#154 = PERSON ( '未指定', '未指定', '未指定', ('未指定'), ('未指定'), ('未指定') ) ;
#155 = UNCERTAINTY_MEASURE_WITH_UNIT (LENGTH_MEASURE( 1.000000000000000082E-05 ), #130, 'distance_accuracy_value', 'NONE');
#156 = EDGE_LOOP ( 'NONE', ( #38, #236, #44, #255 ) ) ;
#157 = ORIENTED_EDGE ( 'NONE', *, *, #12, .T. ) ;
#158 = CC_DESIGN_PERSON_AND_ORGANIZATION_ASSIGNMENT ( #101, #229, ( #74 ) ) ;
#159 = CARTESIAN_POINT ( 'NONE',  ( 0.000000000000000000, 0.000000000000000000, -40.00000000000000000 ) ) ;
#160 = DIRECTION ( 'NONE',  ( 0.000000000000000000, 0.000000000000000000, 1.000000000000000000 ) ) ;
#161 = LINE ( 'NONE', #71, #153 ) ;
#162 = DIRECTION ( 'NONE',  ( 0.000000000000000000, 0.000000000000000000, 1.000000000000000000 ) ) ;
#163 = ORIENTED_EDGE ( 'NONE', *, *, #182, .F. ) ;
#164 = CARTESIAN_POINT ( 'NONE',  ( 0.000000000000000000, 75.00000000000000000, 0.000000000000000000 ) ) ;
#165 = SHAPE_DEFINITION_REPRESENTATION ( #167, #194 ) ;
#166 = COORDINATED_UNIVERSAL_TIME_OFFSET ( 8, 0, .AHEAD. ) ;
#167 = PRODUCT_DEFINITION_SHAPE ( 'NONE', 'NONE',  #253 ) ;
#168 = PERSON_AND_ORGANIZATION ( #154, #87 ) ;
#169 = AXIS2_PLACEMENT_3D ( 'NONE', #45, #61, #139 ) ;
#170 = CALENDAR_DATE ( 2026, 19, 6 ) ;
#171 = DATE_AND_TIME ( #29, #152 ) ;
#172 = AXIS2_PLACEMENT_3D ( 'NONE', #141, #227, #91 ) ;
#173 = EDGE_CURVE ( 'NONE', #176, #54, #161, .T. ) ;
#174 = AXIS2_PLACEMENT_3D ( 'NONE', #177, #242, #4 ) ;
#175 = APPROVAL_PERSON_ORGANIZATION ( #231, #187, #50 ) ;
#176 = VERTEX_POINT ( 'NONE', #225 ) ;
#177 = CARTESIAN_POINT ( 'NONE',  ( 0.000000000000000000, 75.00000000000000000, 0.000000000000000000 ) ) ;
#178 = FACE_OUTER_BOUND ( 'NONE', #36, .T. ) ;
#179 = LINE ( 'NONE', #7, #43 ) ;
#180 = ORIENTED_EDGE ( 'NONE', *, *, #233, .T. ) ;
#181 = DIRECTION ( 'NONE',  ( 0.000000000000000000, 0.000000000000000000, 1.000000000000000000 ) ) ;
#182 = EDGE_CURVE ( 'NONE', #76, #136, #67, .T. ) ;
#183 = DIRECTION ( 'NONE',  ( 0.000000000000000000, 0.000000000000000000, 1.000000000000000000 ) ) ;
#184 = DATE_AND_TIME ( #170, #147 ) ;
#185 = DATE_AND_TIME ( #15, #234 ) ;
#186 = APPROVAL_DATE_TIME ( #185, #21 ) ;
#187 = APPROVAL ( #122, '未指定' ) ;
#188 = AXIS2_PLACEMENT_3D ( 'NONE', #85, #119, #208 ) ;
#189 = LOCAL_TIME ( 21, 47, 28.00000000000000000, #166 ) ;
#190 = ORIENTED_EDGE ( 'NONE', *, *, #173, .F. ) ;
#191 = APPROVAL_PERSON_ORGANIZATION ( #204, #21, #144 ) ;
#192 = ORIENTED_EDGE ( 'NONE', *, *, #12, .F. ) ;
#193 = FACE_OUTER_BOUND ( 'NONE', #156, .T. ) ;
#194 = ADVANCED_BREP_SHAPE_REPRESENTATION ( 'base_\X2\9ed88ba4\X0\_sldprt', ( #212, #188 ), #60 ) ;
#195 = ORIENTED_EDGE ( 'NONE', *, *, #46, .T. ) ;
#196 = DIRECTION ( 'NONE',  ( 0.000000000000000000, 1.000000000000000000, 0.000000000000000000 ) ) ;
#197 = ORIENTED_EDGE ( 'NONE', *, *, #173, .T. ) ;
#198 = CARTESIAN_POINT ( 'NONE',  ( 0.000000000000000000, 75.00000000000000000, 0.000000000000000000 ) ) ;
#199 = EDGE_LOOP ( 'NONE', ( #1, #111 ) ) ;
#200 = CC_DESIGN_APPROVAL ( #187, ( #74 ) ) ;
#201 = CARTESIAN_POINT ( 'NONE',  ( 0.000000000000000000, 20.00000000000000000, -40.00000000000000000 ) ) ;
#202 = DIRECTION ( 'NONE',  ( 0.000000000000000000, 0.000000000000000000, 1.000000000000000000 ) ) ;
#203 = AXIS2_PLACEMENT_3D ( 'NONE', #81, #53, #6 ) ;
#204 = PERSON_AND_ORGANIZATION ( #154, #87 ) ;
#205 = CC_DESIGN_DATE_AND_TIME_ASSIGNMENT ( #171, #143, ( #253 ) ) ;
#206 = COORDINATED_UNIVERSAL_TIME_OFFSET ( 8, 0, .AHEAD. ) ;
#207 = PERSON_AND_ORGANIZATION ( #154, #87 ) ;
#208 = DIRECTION ( 'NONE',  ( 1.000000000000000000, 0.000000000000000000, 0.000000000000000000 ) ) ;
#209 = CC_DESIGN_SECURITY_CLASSIFICATION ( #84, ( #74 ) ) ;
#210 = ADVANCED_FACE ( 'NONE', ( #132 ), #219, .F. ) ;
#211 = CC_DESIGN_PERSON_AND_ORGANIZATION_ASSIGNMENT ( #13, #251, ( #123 ) ) ;
#212 = MANIFOLD_SOLID_BREP ( '凸台-拉伸2', #215 ) ;
#213 = ORIENTED_EDGE ( 'NONE', *, *, #223, .T. ) ;
#214 = DESIGN_CONTEXT ( 'detailed design', #103, 'design' ) ;
#215 = CLOSED_SHELL ( 'NONE', ( #105, #88, #133, #68, #210, #126, #28 ) ) ;
#216 = EDGE_LOOP ( 'NONE', ( #222, #70, #127, #195 ) ) ;
#217 = DIRECTION ( 'NONE',  ( 0.000000000000000000, 0.000000000000000000, 1.000000000000000000 ) ) ;
#218 = CARTESIAN_POINT ( 'NONE',  ( 1.224646799147353256E-15, 20.00000000000000000, 10.00000000000000000 ) ) ;
#219 = PLANE ( 'NONE',  #203 ) ;
#220 = ORIENTED_EDGE ( 'NONE', *, *, #148, .T. ) ;
#221 = DIRECTION ( 'NONE',  ( 0.000000000000000000, 0.000000000000000000, 1.000000000000000000 ) ) ;
#222 = ORIENTED_EDGE ( 'NONE', *, *, #5, .F. ) ;
#223 = EDGE_CURVE ( 'NONE', #176, #128, #254, .T. ) ;
#224 = AXIS2_PLACEMENT_3D ( 'NONE', #11, #196, #183 ) ;
#225 = CARTESIAN_POINT ( 'NONE',  ( 0.000000000000000000, 75.00000000000000000, -10.00000000000000000 ) ) ;
#226 = FACE_OUTER_BOUND ( 'NONE', #199, .T. ) ;
#227 = DIRECTION ( 'NONE',  ( 0.000000000000000000, 1.000000000000000000, 0.000000000000000000 ) ) ;
#228 = CIRCLE ( 'NONE', #239, 10.00000000000000000 ) ;
#229 = PERSON_AND_ORGANIZATION_ROLE ( 'creator' ) ;
#230 = APPLICATION_PROTOCOL_DEFINITION ( 'international standard', 'config_control_design', 1994, #103 ) ;
#231 = PERSON_AND_ORGANIZATION ( #154, #87 ) ;
#232 = EDGE_CURVE ( 'NONE', #52, #90, #48, .T. ) ;
#233 = EDGE_CURVE ( 'NONE', #18, #54, #228, .T. ) ;
#234 = LOCAL_TIME ( 21, 47, 28.00000000000000000, #121 ) ;
#235 = APPLICATION_CONTEXT ( 'configuration controlled 3d designs of mechanical parts and assemblies' ) ;
#236 = ORIENTED_EDGE ( 'NONE', *, *, #5, .T. ) ;
#237 = CC_DESIGN_PERSON_AND_ORGANIZATION_ASSIGNMENT ( #168, #33, ( #253 ) ) ;
#238 = DIRECTION ( 'NONE',  ( 0.000000000000000000, 0.000000000000000000, -1.000000000000000000 ) ) ;
#239 = AXIS2_PLACEMENT_3D ( 'NONE', #135, #110, #221 ) ;
#240 = CARTESIAN_POINT ( 'NONE',  ( 0.000000000000000000, 75.00000000000000000, 0.000000000000000000 ) ) ;
#241 = DIRECTION ( 'NONE',  ( -0.000000000000000000, -1.000000000000000000, -0.000000000000000000 ) ) ;
#242 = DIRECTION ( 'NONE',  ( 0.000000000000000000, 1.000000000000000000, 0.000000000000000000 ) ) ;
#243 = DIRECTION ( 'NONE',  ( -0.000000000000000000, -1.000000000000000000, -0.000000000000000000 ) ) ;
#244 = CARTESIAN_POINT ( 'NONE',  ( 1.224646799147353256E-15, 75.00000000000000000, 10.00000000000000000 ) ) ;
#245 = PLANE ( 'NONE',  #169 ) ;
#246 = CARTESIAN_POINT ( 'NONE',  ( 0.000000000000000000, 20.00000000000000000, 0.000000000000000000 ) ) ;
#247 = DATE_AND_TIME ( #146, #189 ) ;
#248 = AXIS2_PLACEMENT_3D ( 'NONE', #240, #131, #162 ) ;
#249 = APPLICATION_PROTOCOL_DEFINITION ( 'international standard', 'config_control_design', 1994, #235 ) ;
#250 = COORDINATED_UNIVERSAL_TIME_OFFSET ( 8, 0, .AHEAD. ) ;
#251 = PERSON_AND_ORGANIZATION_ROLE ( 'design_owner' ) ;
#252 = AXIS2_PLACEMENT_3D ( 'NONE', #164, #97, #181 ) ;
#253 = PRODUCT_DEFINITION ( '未知', '', #74, #214 ) ;
#254 = CIRCLE ( 'NONE', #252, 10.00000000000000000 ) ;
#255 = ORIENTED_EDGE ( 'NONE', *, *, #86, .F. ) ;
ENDSEC;
END-ISO-10303-21;
