ISO-10303-21;
HEADER;
FILE_DESCRIPTION (( 'STEP AP203' ),
    '1' );
FILE_NAME ('link3_默认_sldprt.STEP',
    '2026-06-19T13:47:32',
    ( '' ),
    ( '' ),
    'SwSTEP 2.0',
    'SolidWorks 2022',
    '' );
FILE_SCHEMA (( 'CONFIG_CONTROL_DESIGN' ));
ENDSEC;

DATA;
#1 = CARTESIAN_POINT ( 'NONE',  ( 45.00000000000000000, 31.22498999199199332, 25.00000000000000000 ) ) ;
#2 = DIRECTION ( 'NONE',  ( 0.6249999999999998890, 0.7806247497997997886, -0.000000000000000000 ) ) ;
#3 = PERSON_AND_ORGANIZATION ( #582, #44 ) ;
#4 = ORIENTED_EDGE ( 'NONE', *, *, #304, .F. ) ;
#5 = CARTESIAN_POINT ( 'NONE',  ( 0.000000000000000000, -7.500000000000000000, 25.00000000000000000 ) ) ;
#6 = LINE ( 'NONE', #159, #636 ) ;
#7 = DIRECTION ( 'NONE',  ( 0.000000000000000000, 0.000000000000000000, 1.000000000000000000 ) ) ;
#8 = ORIENTED_EDGE ( 'NONE', *, *, #41, .T. ) ;
#9 = CARTESIAN_POINT ( 'NONE',  ( -30.00000000000000355, 31.22498999199198977, 25.00000000000000000 ) ) ;
#10 = EDGE_CURVE ( 'NONE', #154, #89, #546, .T. ) ;
#11 = CC_DESIGN_PERSON_AND_ORGANIZATION_ASSIGNMENT ( #360, #307, ( #107 ) ) ;
#12 = LINE ( 'NONE', #179, #117 ) ;
#13 = EDGE_LOOP ( 'NONE', ( #489, #16, #111, #432 ) ) ;
#14 = CARTESIAN_POINT ( 'NONE',  ( -25.00000000000000000, 31.22498999199198977, 15.00000000000000178 ) ) ;
#15 = DIRECTION ( 'NONE',  ( 0.000000000000000000, 0.000000000000000000, 1.000000000000000000 ) ) ;
#16 = ORIENTED_EDGE ( 'NONE', *, *, #676, .F. ) ;
#17 = DIRECTION ( 'NONE',  ( 1.000000000000000000, 0.000000000000000000, 0.000000000000000000 ) ) ;
#18 = SECURITY_CLASSIFICATION_LEVEL ( 'unclassified' ) ;
#19 = VERTEX_POINT ( 'NONE', #395 ) ;
#20 = EDGE_CURVE ( 'NONE', #403, #195, #6, .T. ) ;
#21 = CARTESIAN_POINT ( 'NONE',  ( 45.00000000000000000, 31.22498999199199332, 15.00000000000000178 ) ) ;
#22 = LOCAL_TIME ( 21, 47, 32.00000000000000000, #650 ) ;
#23 = COORDINATED_UNIVERSAL_TIME_OFFSET ( 8, 0, .AHEAD. ) ;
#24 = VERTEX_POINT ( 'NONE', #263 ) ;
#25 = CIRCLE ( 'NONE', #215, 5.000000000000004441 ) ;
#26 = FACE_OUTER_BOUND ( 'NONE', #555, .T. ) ;
#27 = EDGE_LOOP ( 'NONE', ( #255, #46, #399, #233 ) ) ;
#28 = DIRECTION ( 'NONE',  ( 1.000000000000000000, 0.000000000000000000, -0.000000000000000000 ) ) ;
#29 = APPROVAL_ROLE ( '' ) ;
#30 = DIRECTION ( 'NONE',  ( 1.000000000000000000, 0.000000000000000000, 0.000000000000000000 ) ) ;
#31 = ORIENTED_EDGE ( 'NONE', *, *, #416, .T. ) ;
#32 = EDGE_CURVE ( 'NONE', #610, #517, #59, .T. ) ;
#33 = AXIS2_PLACEMENT_3D ( 'NONE', #448, #569, #682 ) ;
#34 = EDGE_LOOP ( 'NONE', ( #686, #537 ) ) ;
#35 = CYLINDRICAL_SURFACE ( 'NONE', #359, 5.000000000000004441 ) ;
#36 = CARTESIAN_POINT ( 'NONE',  ( 20.00000000000000000, 0.000000000000000000, 25.00000000000000000 ) ) ;
#37 = AXIS2_PLACEMENT_3D ( 'NONE', #129, #571, #345 ) ;
#38 = DIRECTION ( 'NONE',  ( -1.000000000000000000, 0.000000000000000000, 0.000000000000000000 ) ) ;
#39 = DIRECTION ( 'NONE',  ( 0.000000000000000000, 0.000000000000000000, 1.000000000000000000 ) ) ;
#40 = ORIENTED_EDGE ( 'NONE', *, *, #724, .T. ) ;
#41 = EDGE_CURVE ( 'NONE', #195, #581, #105, .T. ) ;
#42 = DIRECTION ( 'NONE',  ( 1.982541115402065356E-16, -1.000000000000000000, 0.000000000000000000 ) ) ;
#43 = APPROVAL_PERSON_ORGANIZATION ( #536, #559, #29 ) ;
#44 = ORGANIZATION ( '未指定', '未指定', '' ) ;
#45 = CARTESIAN_POINT ( 'NONE',  ( 50.85468562349849719, 26.53748999199199332, 0.000000000000000000 ) ) ;
#46 = ORIENTED_EDGE ( 'NONE', *, *, #416, .F. ) ;
#47 = CARTESIAN_POINT ( 'NONE',  ( 39.99999999999999289, 31.22498999199199332, 15.00000000000000178 ) ) ;
#48 = CARTESIAN_POINT ( 'NONE',  ( 0.000000000000000000, 0.000000000000000000, 25.00000000000000000 ) ) ;
#49 = VECTOR ( 'NONE', #450, 1000.000000000000000 ) ;
#50 = CYLINDRICAL_SURFACE ( 'NONE', #521, 5.000000000000000888 ) ;
#51 = EDGE_LOOP ( 'NONE', ( #146, #210, #313, #604 ) ) ;
#52 = VECTOR ( 'NONE', #269, 1000.000000000000000 ) ;
#53 = DIRECTION ( 'NONE',  ( 0.000000000000000000, 0.000000000000000000, 1.000000000000000000 ) ) ;
#54 = ORIENTED_EDGE ( 'NONE', *, *, #414, .T. ) ;
#55 = PLANE ( 'NONE',  #467 ) ;
#56 = ORIENTED_EDGE ( 'NONE', *, *, #200, .F. ) ;
#57 = CIRCLE ( 'NONE', #296, 7.500000000000003553 ) ;
#58 = EDGE_CURVE ( 'NONE', #539, #123, #680, .T. ) ;
#59 = LINE ( 'NONE', #118, #306 ) ;
#60 = ORIENTED_EDGE ( 'NONE', *, *, #553, .T. ) ;
#61 = DIRECTION ( 'NONE',  ( 1.000000000000000000, 0.000000000000000000, 0.000000000000000000 ) ) ;
#62 = APPLICATION_PROTOCOL_DEFINITION ( 'international standard', 'config_control_design', 1994, #459 ) ;
#63 = VERTEX_POINT ( 'NONE', #390 ) ;
#64 = DIRECTION ( 'NONE',  ( -0.000000000000000000, -0.000000000000000000, -1.000000000000000000 ) ) ;
#65 = AXIS2_PLACEMENT_3D ( 'NONE', #508, #394, #222 ) ;
#66 = DIRECTION ( 'NONE',  ( 1.000000000000000000, 0.000000000000000000, 0.000000000000000000 ) ) ;
#67 = ORIENTED_EDGE ( 'NONE', *, *, #346, .T. ) ;
#68 = CARTESIAN_POINT ( 'NONE',  ( -5.000000000000000888, 6.123233995736767268E-16, 15.00000000000000178 ) ) ;
#69 = EDGE_CURVE ( 'NONE', #610, #602, #330, .T. ) ;
#70 = CARTESIAN_POINT ( 'NONE',  ( -20.00000000000000000, 31.22498999199198977, 15.00000000000000178 ) ) ;
#71 = ORIENTED_EDGE ( 'NONE', *, *, #525, .F. ) ;
#72 = CARTESIAN_POINT ( 'NONE',  ( 0.000000000000000000, 0.000000000000000000, 0.000000000000000000 ) ) ;
#73 = ADVANCED_FACE ( 'NONE', ( #205 ), #50, .F. ) ;
#74 = MECHANICAL_CONTEXT ( 'NONE', #342, 'mechanical' ) ;
#75 = ORIENTED_EDGE ( 'NONE', *, *, #535, .F. ) ;
#76 = CARTESIAN_POINT ( 'NONE',  ( 15.00000000000000000, 6.123233995736766282E-16, 15.00000000000000178 ) ) ;
#77 = AXIS2_PLACEMENT_3D ( 'NONE', #486, #42, #552 ) ;
#78 = VERTEX_POINT ( 'NONE', #549 ) ;
#79 = VECTOR ( 'NONE', #2, 1000.000000000000114 ) ;
#80 = DIRECTION ( 'NONE',  ( -0.000000000000000000, -0.000000000000000000, 1.000000000000000000 ) ) ;
#81 = VERTEX_POINT ( 'NONE', #439 ) ;
#82 = EDGE_CURVE ( 'NONE', #494, #78, #614, .T. ) ;
#83 = CARTESIAN_POINT ( 'NONE',  ( 20.00000000000000000, 0.000000000000000000, 0.000000000000000000 ) ) ;
#84 = PLANE ( 'NONE',  #292 ) ;
#85 = AXIS2_PLACEMENT_3D ( 'NONE', #632, #229, #583 ) ;
#86 = SHAPE_DEFINITION_REPRESENTATION ( #460, #419 ) ;
#87 = FACE_OUTER_BOUND ( 'NONE', #225, .T. ) ;
#88 = EDGE_CURVE ( 'NONE', #665, #235, #443, .T. ) ;
#89 = VERTEX_POINT ( 'NONE', #625 ) ;
#90 = ADVANCED_FACE ( 'NONE', ( #445 ), #55, .F. ) ;
#91 = CALENDAR_DATE ( 2026, 19, 6 ) ;
#92 = DIRECTION ( 'NONE',  ( 1.000000000000000000, 0.000000000000000000, 0.000000000000000000 ) ) ;
#93 = AXIS2_PLACEMENT_3D ( 'NONE', #283, #15, #685 ) ;
#94 = ADVANCED_FACE ( 'NONE', ( #730 ), #116, .T. ) ;
#95 = LOCAL_TIME ( 21, 47, 32.00000000000000000, #23 ) ;
#96 = CYLINDRICAL_SURFACE ( 'NONE', #643, 7.500000000000000000 ) ;
#97 = CIRCLE ( 'NONE', #503, 5.000000000000000888 ) ;
#98 = EDGE_CURVE ( 'NONE', #89, #78, #219, .T. ) ;
#99 = DIRECTION ( 'NONE',  ( -0.000000000000000000, -0.000000000000000000, -1.000000000000000000 ) ) ;
#100 = VERTEX_POINT ( 'NONE', #544 ) ;
#101 = CARTESIAN_POINT ( 'NONE',  ( 45.00000000000000000, 31.22498999199199332, 0.000000000000000000 ) ) ;
#102 = CARTESIAN_POINT ( 'NONE',  ( 20.00000000000000000, 0.000000000000000000, 15.00000000000000178 ) ) ;
#103 = ORIENTED_EDGE ( 'NONE', *, *, #98, .F. ) ;
#104 = CC_DESIGN_PERSON_AND_ORGANIZATION_ASSIGNMENT ( #601, #241, ( #223 ) ) ;
#105 = LINE ( 'NONE', #322, #79 ) ;
#106 = DIRECTION ( 'NONE',  ( -0.000000000000000000, -0.000000000000000000, 1.000000000000000000 ) ) ;
#107 = PRODUCT_DEFINITION_FORMATION_WITH_SPECIFIED_SOURCE ( '任何', '', #579, .NOT_KNOWN. ) ;
#108 = CARTESIAN_POINT ( 'NONE',  ( 5.000000000000000888, 0.000000000000000000, 15.00000000000000178 ) ) ;
#109 = DIRECTION ( 'NONE',  ( -0.000000000000000000, -0.000000000000000000, -1.000000000000000000 ) ) ;
#110 = FACE_OUTER_BOUND ( 'NONE', #120, .T. ) ;
#111 = ORIENTED_EDGE ( 'NONE', *, *, #522, .T. ) ;
#112 = DIRECTION ( 'NONE',  ( -0.000000000000000000, -0.000000000000000000, -1.000000000000000000 ) ) ;
#113 = ADVANCED_FACE ( 'NONE', ( #714 ), #722, .F. ) ;
#114 = VECTOR ( 'NONE', #169, 1000.000000000000000 ) ;
#115 = DIRECTION ( 'NONE',  ( -0.000000000000000000, -0.000000000000000000, -1.000000000000000000 ) ) ;
#116 = CYLINDRICAL_SURFACE ( 'NONE', #560, 7.500000000000000000 ) ;
#117 = VECTOR ( 'NONE', #335, 1000.000000000000000 ) ;
#118 = CARTESIAN_POINT ( 'NONE',  ( 45.00000000000000000, 38.72498999199200398, 25.00000000000000000 ) ) ;
#119 = PERSON_AND_ORGANIZATION_ROLE ( 'design_owner' ) ;
#120 = EDGE_LOOP ( 'NONE', ( #531, #238, #71, #131 ) ) ;
#121 = FACE_OUTER_BOUND ( 'NONE', #27, .T. ) ;
#122 = AXIS2_PLACEMENT_3D ( 'NONE', #499, #160, #376 ) ;
#123 = VERTEX_POINT ( 'NONE', #199 ) ;
#124 = ADVANCED_FACE ( 'NONE', ( #563 ), #214, .F. ) ;
#125 = CARTESIAN_POINT ( 'NONE',  ( 25.85468562349850075, -4.687500000000002665, 0.000000000000000000 ) ) ;
#126 = AXIS2_PLACEMENT_3D ( 'NONE', #458, #512, #586 ) ;
#127 = VERTEX_POINT ( 'NONE', #323 ) ;
#128 = ADVANCED_FACE ( 'NONE', ( #727 ), #166, .F. ) ;
#129 = CARTESIAN_POINT ( 'NONE',  ( 0.000000000000000000, 0.000000000000000000, 15.00000000000000178 ) ) ;
#130 =( LENGTH_UNIT ( ) NAMED_UNIT ( * ) SI_UNIT ( .MILLI., .METRE. ) );
#131 = ORIENTED_EDGE ( 'NONE', *, *, #82, .T. ) ;
#132 = DIRECTION ( 'NONE',  ( 1.000000000000000000, 0.000000000000000000, 0.000000000000000000 ) ) ;
#133 = ORIENTED_EDGE ( 'NONE', *, *, #135, .F. ) ;
#134 = DIRECTION ( 'NONE',  ( 0.000000000000000000, 0.000000000000000000, 1.000000000000000000 ) ) ;
#135 = EDGE_CURVE ( 'NONE', #425, #726, #435, .T. ) ;
#136 = CLOSED_SHELL ( 'NONE', ( #207, #218, #402, #375, #587, #327, #128, #485, #510, #94, #250, #649, #90, #421, #141, #440, #436, #73, #354, #124, #428, #113, #568 ) ) ;
#137 = FACE_OUTER_BOUND ( 'NONE', #34, .T. ) ;
#138 = ORIENTED_EDGE ( 'NONE', *, *, #213, .F. ) ;
#139 = CYLINDRICAL_SURFACE ( 'NONE', #633, 5.000000000000000888 ) ;
#140 = DATE_TIME_ROLE ( 'creation_date' ) ;
#141 = ADVANCED_FACE ( 'NONE', ( #373 ), #262, .F. ) ;
#142 = FACE_BOUND ( 'NONE', #638, .T. ) ;
#143 = AXIS2_PLACEMENT_3D ( 'NONE', #405, #518, #17 ) ;
#144 = DATE_AND_TIME ( #699, #565 ) ;
#145 = CARTESIAN_POINT ( 'NONE',  ( 45.00000000000000000, 31.22498999199199332, 15.00000000000000178 ) ) ;
#146 = ORIENTED_EDGE ( 'NONE', *, *, #213, .T. ) ;
#147 = ORIENTED_EDGE ( 'NONE', *, *, #693, .F. ) ;
#148 = CARTESIAN_POINT ( 'NONE',  ( 0.000000000000000000, -7.500000000000000000, 25.00000000000000000 ) ) ;
#149 = APPROVAL_PERSON_ORGANIZATION ( #523, #441, #243 ) ;
#150 = CARTESIAN_POINT ( 'NONE',  ( -25.00000000000000000, 38.72498999199198977, 25.00000000000000000 ) ) ;
#151 = ORIENTED_EDGE ( 'NONE', *, *, #58, .F. ) ;
#152 = AXIS2_PLACEMENT_3D ( 'NONE', #248, #418, #710 ) ;
#153 = DIRECTION ( 'NONE',  ( -0.000000000000000000, -0.000000000000000000, 1.000000000000000000 ) ) ;
#154 = VERTEX_POINT ( 'NONE', #326 ) ;
#155 = VECTOR ( 'NONE', #566, 1000.000000000000000 ) ;
#156 = LINE ( 'NONE', #543, #479 ) ;
#157 = ORIENTED_EDGE ( 'NONE', *, *, #693, .T. ) ;
#158 = DIRECTION ( 'NONE',  ( -0.000000000000000000, -0.000000000000000000, 1.000000000000000000 ) ) ;
#159 = CARTESIAN_POINT ( 'NONE',  ( 25.85468562349850075, -4.687500000000002665, 25.00000000000000000 ) ) ;
#160 = DIRECTION ( 'NONE',  ( 0.7806247497997997886, 0.6250000000000001110, -0.000000000000000000 ) ) ;
#161 = ORIENTED_EDGE ( 'NONE', *, *, #668, .T. ) ;
#162 = DIRECTION ( 'NONE',  ( 1.000000000000000000, 0.000000000000000000, 0.000000000000000000 ) ) ;
#163 = CARTESIAN_POINT ( 'NONE',  ( -32.50000000000000000, 31.22498999199198977, 25.00000000000000000 ) ) ;
#164 = ORIENTED_EDGE ( 'NONE', *, *, #481, .F. ) ;
#165 = EDGE_CURVE ( 'NONE', #726, #732, #170, .T. ) ;
#166 = PLANE ( 'NONE',  #77 ) ;
#167 =( NAMED_UNIT ( * ) SI_UNIT ( $, .STERADIAN. ) SOLID_ANGLE_UNIT ( ) );
#168 = ORIENTED_EDGE ( 'NONE', *, *, #608, .T. ) ;
#169 = DIRECTION ( 'NONE',  ( 1.000000000000000000, 0.000000000000000000, 0.000000000000000000 ) ) ;
#170 = CIRCLE ( 'NONE', #593, 5.000000000000004441 ) ;
#171 = ORIENTED_EDGE ( 'NONE', *, *, #346, .F. ) ;
#172 = CARTESIAN_POINT ( 'NONE',  ( -32.50000000000000000, 31.22498999199198977, 25.00000000000000000 ) ) ;
#173 = EDGE_CURVE ( 'NONE', #464, #24, #576, .T. ) ;
#174 = AXIS2_PLACEMENT_3D ( 'NONE', #331, #502, #227 ) ;
#175 = CARTESIAN_POINT ( 'NONE',  ( -5.854685623498499858, -4.687499999999997335, 25.00000000000000000 ) ) ;
#176 = ORIENTED_EDGE ( 'NONE', *, *, #522, .F. ) ;
#177 = CARTESIAN_POINT ( 'NONE',  ( -5.000000000000000888, 6.123233995736767268E-16, 15.00000000000000178 ) ) ;
#178 = CC_DESIGN_PERSON_AND_ORGANIZATION_ASSIGNMENT ( #237, #645, ( #107 ) ) ;
#179 = CARTESIAN_POINT ( 'NONE',  ( 25.00000000000000000, 0.000000000000000000, 15.00000000000000178 ) ) ;
#180 = ORIENTED_EDGE ( 'NONE', *, *, #193, .T. ) ;
#181 = DIRECTION ( 'NONE',  ( 1.000000000000000000, 0.000000000000000000, 0.000000000000000000 ) ) ;
#182 = ORIENTED_EDGE ( 'NONE', *, *, #668, .F. ) ;
#183 = FACE_OUTER_BOUND ( 'NONE', #51, .T. ) ;
#184 = ORIENTED_EDGE ( 'NONE', *, *, #275, .T. ) ;
#185 = CARTESIAN_POINT ( 'NONE',  ( 50.85468562349849719, 26.53748999199199332, 25.00000000000000000 ) ) ;
#186 = AXIS2_PLACEMENT_3D ( 'NONE', #36, #317, #659 ) ;
#187 = CARTESIAN_POINT ( 'NONE',  ( 20.00000000000000000, -7.500000000000001776, 25.00000000000000000 ) ) ;
#188 = AXIS2_PLACEMENT_3D ( 'NONE', #14, #291, #698 ) ;
#189 = ORIENTED_EDGE ( 'NONE', *, *, #275, .F. ) ;
#190 = DIRECTION ( 'NONE',  ( 0.000000000000000000, 0.000000000000000000, 1.000000000000000000 ) ) ;
#191 = PLANE ( 'NONE',  #370 ) ;
#192 = APPROVAL_DATE_TIME ( #144, #559 ) ;
#193 = EDGE_CURVE ( 'NONE', #221, #127, #520, .T. ) ;
#194 = FACE_OUTER_BOUND ( 'NONE', #393, .T. ) ;
#195 = VERTEX_POINT ( 'NONE', #125 ) ;
#196 = CARTESIAN_POINT ( 'NONE',  ( -20.00000000000000000, 31.22498999199198977, 15.00000000000000178 ) ) ;
#197 = AXIS2_PLACEMENT_3D ( 'NONE', #101, #383, #618 ) ;
#198 = PLANE ( 'NONE',  #384 ) ;
#199 = CARTESIAN_POINT ( 'NONE',  ( 20.00000000000000000, -7.500000000000001776, 0.000000000000000000 ) ) ;
#200 = EDGE_CURVE ( 'NONE', #665, #675, #420, .T. ) ;
#201 = DIRECTION ( 'NONE',  ( 0.000000000000000000, 0.000000000000000000, 1.000000000000000000 ) ) ;
#202 = EDGE_LOOP ( 'NONE', ( #683, #635, #483, #438 ) ) ;
#203 = DIRECTION ( 'NONE',  ( -0.000000000000000000, -0.000000000000000000, 1.000000000000000000 ) ) ;
#204 = DIRECTION ( 'NONE',  ( -0.000000000000000000, -0.000000000000000000, -1.000000000000000000 ) ) ;
#205 = FACE_OUTER_BOUND ( 'NONE', #497, .T. ) ;
#206 = MANIFOLD_SOLID_BREP ( '切除-拉伸1', #136 ) ;
#207 = ADVANCED_FACE ( 'NONE', ( #644 ), #408, .F. ) ;
#208 = CC_DESIGN_DATE_AND_TIME_ASSIGNMENT ( #652, #478, ( #410 ) ) ;
#209 = CARTESIAN_POINT ( 'NONE',  ( -25.00000000000000000, 31.22498999199198977, 25.00000000000000000 ) ) ;
#210 = ORIENTED_EDGE ( 'NONE', *, *, #32, .F. ) ;
#211 = DIRECTION ( 'NONE',  ( 0.000000000000000000, 0.000000000000000000, 1.000000000000000000 ) ) ;
#212 = LINE ( 'NONE', #108, #314 ) ;
#213 = EDGE_CURVE ( 'NONE', #581, #517, #282, .T. ) ;
#214 = CYLINDRICAL_SURFACE ( 'NONE', #507, 5.000000000000000888 ) ;
#215 = AXIS2_PLACEMENT_3D ( 'NONE', #619, #606, #442 ) ;
#216 = DIRECTION ( 'NONE',  ( 1.000000000000000000, 0.000000000000000000, 0.000000000000000000 ) ) ;
#217 = DIRECTION ( 'NONE',  ( -1.000000000000000000, 0.000000000000000000, 0.000000000000000000 ) ) ;
#218 = ADVANCED_FACE ( 'NONE', ( #348 ), #400, .F. ) ;
#219 = CIRCLE ( 'NONE', #231, 7.500000000000000000 ) ;
#220 = CARTESIAN_POINT ( 'NONE',  ( -25.00000000000000000, 31.22498999199198977, 25.00000000000000000 ) ) ;
#221 = VERTEX_POINT ( 'NONE', #68 ) ;
#222 = DIRECTION ( 'NONE',  ( 1.000000000000000000, 0.000000000000000000, 0.000000000000000000 ) ) ;
#223 = PRODUCT_DEFINITION ( '未知', '', #107, #293 ) ;
#224 = CARTESIAN_POINT ( 'NONE',  ( 20.00000000000000000, 0.000000000000000000, 25.00000000000000000 ) ) ;
#225 = EDGE_LOOP ( 'NONE', ( #391, #697 ) ) ;
#226 = DIRECTION ( 'NONE',  ( 0.6249999999999998890, 0.7806247497997997886, -0.000000000000000000 ) ) ;
#227 = DIRECTION ( 'NONE',  ( 1.000000000000000000, 0.000000000000000000, 0.000000000000000000 ) ) ;
#228 = ORIENTED_EDGE ( 'NONE', *, *, #724, .F. ) ;
#229 = DIRECTION ( 'NONE',  ( 0.000000000000000000, 0.000000000000000000, 1.000000000000000000 ) ) ;
#230 = VECTOR ( 'NONE', #281, 1000.000000000000000 ) ;
#231 = AXIS2_PLACEMENT_3D ( 'NONE', #253, #671, #611 ) ;
#232 = EDGE_CURVE ( 'NONE', #620, #464, #591, .T. ) ;
#233 = ORIENTED_EDGE ( 'NONE', *, *, #509, .T. ) ;
#234 = DIRECTION ( 'NONE',  ( 0.000000000000000000, 0.000000000000000000, 1.000000000000000000 ) ) ;
#235 = VERTEX_POINT ( 'NONE', #9 ) ;
#236 = CARTESIAN_POINT ( 'NONE',  ( -5.854685623498499858, -4.687499999999997335, 0.000000000000000000 ) ) ;
#237 = PERSON_AND_ORGANIZATION ( #582, #44 ) ;
#238 = ORIENTED_EDGE ( 'NONE', *, *, #578, .F. ) ;
#239 = DIRECTION ( 'NONE',  ( 0.000000000000000000, 0.000000000000000000, 1.000000000000000000 ) ) ;
#240 = VECTOR ( 'NONE', #477, 1000.000000000000114 ) ;
#241 = PERSON_AND_ORGANIZATION_ROLE ( 'creator' ) ;
#242 = DIRECTION ( 'NONE',  ( -0.000000000000000000, -0.000000000000000000, 1.000000000000000000 ) ) ;
#243 = APPROVAL_ROLE ( '' ) ;
#244 = ORIENTED_EDGE ( 'NONE', *, *, #455, .T. ) ;
#245 = CIRCLE ( 'NONE', #409, 5.000000000000000888 ) ;
#246 = PLANE ( 'NONE',  #152 ) ;
#247 = AXIS2_PLACEMENT_3D ( 'NONE', #338, #406, #388 ) ;
#248 = CARTESIAN_POINT ( 'NONE',  ( 0.000000000000000000, 0.000000000000000000, 15.00000000000000178 ) ) ;
#249 = CIRCLE ( 'NONE', #447, 5.000000000000004441 ) ;
#250 = ADVANCED_FACE ( 'NONE', ( #121 ), #285, .F. ) ;
#251 = VECTOR ( 'NONE', #61, 1000.000000000000000 ) ;
#252 = DIRECTION ( 'NONE',  ( -0.000000000000000000, -0.000000000000000000, 1.000000000000000000 ) ) ;
#253 = CARTESIAN_POINT ( 'NONE',  ( -25.00000000000000000, 31.22498999199198977, 0.000000000000000000 ) ) ;
#254 = CARTESIAN_POINT ( 'NONE',  ( 15.00000000000000000, 6.123233995736765296E-16, 25.00000000000000000 ) ) ;
#255 = ORIENTED_EDGE ( 'NONE', *, *, #58, .T. ) ;
#256 = LOCAL_TIME ( 21, 47, 32.00000000000000000, #302 ) ;
#257 = DIRECTION ( 'NONE',  ( -1.000000000000000000, -1.982541115402065110E-16, -0.000000000000000000 ) ) ;
#258 = CIRCLE ( 'NONE', #174, 5.000000000000000888 ) ;
#259 = FACE_OUTER_BOUND ( 'NONE', #339, .T. ) ;
#260 = ORIENTED_EDGE ( 'NONE', *, *, #10, .T. ) ;
#261 = AXIS2_PLACEMENT_3D ( 'NONE', #647, #271, #728 ) ;
#262 = PLANE ( 'NONE',  #197 ) ;
#263 = CARTESIAN_POINT ( 'NONE',  ( 20.00000000000000000, -7.500000000000001776, 25.00000000000000000 ) ) ;
#264 = EDGE_CURVE ( 'NONE', #19, #425, #249, .T. ) ;
#265 = EDGE_CURVE ( 'NONE', #403, #309, #337, .T. ) ;
#266 = AXIS2_PLACEMENT_3D ( 'NONE', #72, #234, #288 ) ;
#267 = DIRECTION ( 'NONE',  ( 0.000000000000000000, 0.000000000000000000, 1.000000000000000000 ) ) ;
#268 = ORIENTED_EDGE ( 'NONE', *, *, #365, .F. ) ;
#269 = DIRECTION ( 'NONE',  ( -0.000000000000000000, -0.000000000000000000, 1.000000000000000000 ) ) ;
#270 = VECTOR ( 'NONE', #257, 1000.000000000000000 ) ;
#271 = DIRECTION ( 'NONE',  ( 0.000000000000000000, 0.000000000000000000, 1.000000000000000000 ) ) ;
#272 = ORIENTED_EDGE ( 'NONE', *, *, #232, .T. ) ;
#273 = CARTESIAN_POINT ( 'NONE',  ( -30.00000000000000355, 31.22498999199198977, 15.00000000000000178 ) ) ;
#274 = EDGE_CURVE ( 'NONE', #602, #551, #430, .T. ) ;
#275 = EDGE_CURVE ( 'NONE', #321, #500, #637, .T. ) ;
#276 = ORIENTED_EDGE ( 'NONE', *, *, #719, .F. ) ;
#277 = DIRECTION ( 'NONE',  ( 0.000000000000000000, 1.000000000000000000, 0.000000000000000000 ) ) ;
#278 = DIRECTION ( 'NONE',  ( 0.000000000000000000, 0.000000000000000000, 1.000000000000000000 ) ) ;
#279 = VECTOR ( 'NONE', #204, 1000.000000000000000 ) ;
#280 = EDGE_LOOP ( 'NONE', ( #168, #147, #654, #585 ) ) ;
#281 = DIRECTION ( 'NONE',  ( -0.000000000000000000, -0.000000000000000000, -1.000000000000000000 ) ) ;
#282 = CIRCLE ( 'NONE', #476, 7.500000000000007105 ) ;
#283 = CARTESIAN_POINT ( 'NONE',  ( -25.00000000000000000, 31.22498999199198977, 25.00000000000000000 ) ) ;
#284 = EDGE_LOOP ( 'NONE', ( #276, #228 ) ) ;
#285 = PLANE ( 'NONE',  #495 ) ;
#286 = CIRCLE ( 'NONE', #716, 5.000000000000000888 ) ;
#287 = ORIENTED_EDGE ( 'NONE', *, *, #414, .F. ) ;
#288 = DIRECTION ( 'NONE',  ( 1.000000000000000000, 0.000000000000000000, 0.000000000000000000 ) ) ;
#289 = CARTESIAN_POINT ( 'NONE',  ( 39.99999999999999289, 31.22498999199199332, 25.00000000000000000 ) ) ;
#290 = ORIENTED_EDGE ( 'NONE', *, *, #173, .T. ) ;
#291 = DIRECTION ( 'NONE',  ( 0.000000000000000000, 0.000000000000000000, 1.000000000000000000 ) ) ;
#292 = AXIS2_PLACEMENT_3D ( 'NONE', #704, #190, #28 ) ;
#293 = DESIGN_CONTEXT ( 'detailed design', #459, 'design' ) ;
#294 = ORIENTED_EDGE ( 'NONE', *, *, #10, .F. ) ;
#295 = CARTESIAN_POINT ( 'NONE',  ( 45.00000000000000000, 31.22498999199199332, 15.00000000000000178 ) ) ;
#296 = AXIS2_PLACEMENT_3D ( 'NONE', #574, #694, #451 ) ;
#297 = PERSON_AND_ORGANIZATION ( #582, #44 ) ;
#298 = EDGE_LOOP ( 'NONE', ( #287, #407, #631, #325 ) ) ;
#299 = EDGE_CURVE ( 'NONE', #221, #703, #558, .T. ) ;
#300 = LINE ( 'NONE', #303, #465 ) ;
#301 = AXIS2_PLACEMENT_3D ( 'NONE', #433, #239, #30 ) ;
#302 = COORDINATED_UNIVERSAL_TIME_OFFSET ( 8, 0, .AHEAD. ) ;
#303 = CARTESIAN_POINT ( 'NONE',  ( 50.00000000000000000, 31.22498999199199332, 15.00000000000000178 ) ) ;
#304 = EDGE_CURVE ( 'NONE', #347, #539, #353, .T. ) ;
#305 = AXIS2_PLACEMENT_3D ( 'NONE', #83, #429, #427 ) ;
#306 = VECTOR ( 'NONE', #588, 1000.000000000000000 ) ;
#307 = PERSON_AND_ORGANIZATION_ROLE ( 'creator' ) ;
#308 = DIRECTION ( 'NONE',  ( -0.000000000000000000, -0.000000000000000000, 1.000000000000000000 ) ) ;
#309 = VERTEX_POINT ( 'NONE', #185 ) ;
#310 = PERSON_AND_ORGANIZATION_ROLE ( 'classification_officer' ) ;
#311 = DIRECTION ( 'NONE',  ( 0.000000000000000000, 0.000000000000000000, 1.000000000000000000 ) ) ;
#312 = EDGE_CURVE ( 'NONE', #309, #581, #469, .T. ) ;
#313 = ORIENTED_EDGE ( 'NONE', *, *, #553, .F. ) ;
#314 = VECTOR ( 'NONE', #252, 1000.000000000000000 ) ;
#315 = DIRECTION ( 'NONE',  ( 1.000000000000000000, 0.000000000000000000, -0.000000000000000000 ) ) ;
#316 = EDGE_LOOP ( 'NONE', ( #171, #595, #157, #260 ) ) ;
#317 = DIRECTION ( 'NONE',  ( 0.000000000000000000, 0.000000000000000000, 1.000000000000000000 ) ) ;
#318 = ORIENTED_EDGE ( 'NONE', *, *, #711, .F. ) ;
#319 = CARTESIAN_POINT ( 'NONE',  ( 45.00000000000000000, 31.22498999199199332, 25.00000000000000000 ) ) ;
#320 = CARTESIAN_POINT ( 'NONE',  ( 0.000000000000000000, -7.500000000000000000, 0.000000000000000000 ) ) ;
#321 = VERTEX_POINT ( 'NONE', #696 ) ;
#322 = CARTESIAN_POINT ( 'NONE',  ( 50.85468562349849719, 26.53748999199199332, 0.000000000000000000 ) ) ;
#323 = CARTESIAN_POINT ( 'NONE',  ( -5.000000000000000888, 6.123233995736767268E-16, 25.00000000000000000 ) ) ;
#324 = CARTESIAN_POINT ( 'NONE',  ( 45.00000000000000000, 31.22498999199199332, 25.00000000000000000 ) ) ;
#325 = ORIENTED_EDGE ( 'NONE', *, *, #349, .F. ) ;
#326 = CARTESIAN_POINT ( 'NONE',  ( -25.00000000000000000, 38.72498999199198977, 0.000000000000000000 ) ) ;
#327 = ADVANCED_FACE ( 'NONE', ( #183 ), #504, .T. ) ;
#328 = CARTESIAN_POINT ( 'NONE',  ( 0.000000000000000000, -7.500000000000000000, 25.00000000000000000 ) ) ;
#329 = ORIENTED_EDGE ( 'NONE', *, *, #88, .F. ) ;
#330 = LINE ( 'NONE', #718, #270 ) ;
#331 = CARTESIAN_POINT ( 'NONE',  ( 20.00000000000000000, 0.000000000000000000, 25.00000000000000000 ) ) ;
#332 = ORIENTED_EDGE ( 'NONE', *, *, #533, .F. ) ;
#333 = DIRECTION ( 'NONE',  ( 0.000000000000000000, -0.000000000000000000, 1.000000000000000000 ) ) ;
#334 = PRODUCT_RELATED_PRODUCT_CATEGORY ( 'detail', '', ( #579 ) ) ;
#335 = DIRECTION ( 'NONE',  ( -0.000000000000000000, -0.000000000000000000, 1.000000000000000000 ) ) ;
#336 = ORIENTED_EDGE ( 'NONE', *, *, #462, .T. ) ;
#337 = LINE ( 'NONE', #466, #681 ) ;
#338 = CARTESIAN_POINT ( 'NONE',  ( 0.000000000000000000, 0.000000000000000000, 25.00000000000000000 ) ) ;
#339 = EDGE_LOOP ( 'NONE', ( #705, #67, #506, #562 ) ) ;
#340 = CIRCLE ( 'NONE', #305, 7.500000000000003553 ) ;
#341 = DIRECTION ( 'NONE',  ( 0.000000000000000000, 0.000000000000000000, 1.000000000000000000 ) ) ;
#342 = APPLICATION_CONTEXT ( 'configuration controlled 3d designs of mechanical parts and assemblies' ) ;
#343 = CARTESIAN_POINT ( 'NONE',  ( 5.000000000000000888, 0.000000000000000000, 15.00000000000000178 ) ) ;
#344 = ORIENTED_EDGE ( 'NONE', *, *, #426, .F. ) ;
#345 = DIRECTION ( 'NONE',  ( 1.000000000000000000, 0.000000000000000000, 0.000000000000000000 ) ) ;
#346 = EDGE_CURVE ( 'NONE', #551, #89, #684, .T. ) ;
#347 = VERTEX_POINT ( 'NONE', #236 ) ;
#348 = FACE_OUTER_BOUND ( 'NONE', #452, .T. ) ;
#349 = EDGE_CURVE ( 'NONE', #19, #732, #300, .T. ) ;
#350 = APPROVAL_DATE_TIME ( #356, #640 ) ;
#351 = ORIENTED_EDGE ( 'NONE', *, *, #660, .F. ) ;
#352 = FACE_OUTER_BOUND ( 'NONE', #511, .T. ) ;
#353 = CIRCLE ( 'NONE', #266, 7.500000000000000000 ) ;
#354 = ADVANCED_FACE ( 'NONE', ( #137 ), #84, .T. ) ;
#355 = FACE_OUTER_BOUND ( 'NONE', #298, .T. ) ;
#356 = DATE_AND_TIME ( #598, #95 ) ;
#357 = ORIENTED_EDGE ( 'NONE', *, *, #41, .F. ) ;
#358 = CYLINDRICAL_SURFACE ( 'NONE', #666, 5.000000000000004441 ) ;
#359 = AXIS2_PLACEMENT_3D ( 'NONE', #295, #80, #526 ) ;
#360 = PERSON_AND_ORGANIZATION ( #582, #44 ) ;
#361 = DIRECTION ( 'NONE',  ( 1.000000000000000000, 0.000000000000000000, 0.000000000000000000 ) ) ;
#362 = VECTOR ( 'NONE', #109, 1000.000000000000000 ) ;
#363 = APPROVAL_STATUS ( 'not_yet_approved' ) ;
#364 = DIRECTION ( 'NONE',  ( 0.000000000000000000, 0.000000000000000000, 1.000000000000000000 ) ) ;
#365 = EDGE_CURVE ( 'NONE', #675, #63, #471, .T. ) ;
#366 = EDGE_LOOP ( 'NONE', ( #138, #357, #529, #151, #4, #646, #103, #294, #548 ) ) ;
#367 = ORIENTED_EDGE ( 'NONE', *, *, #617, .F. ) ;
#368 = CC_DESIGN_APPROVAL ( #441, ( #107 ) ) ;
#369 = DIRECTION ( 'NONE',  ( 0.000000000000000000, 0.000000000000000000, 1.000000000000000000 ) ) ;
#370 = AXIS2_PLACEMENT_3D ( 'NONE', #538, #311, #482 ) ;
#371 = LINE ( 'NONE', #609, #528 ) ;
#372 = EDGE_LOOP ( 'NONE', ( #336, #670 ) ) ;
#373 = FACE_OUTER_BOUND ( 'NONE', #366, .T. ) ;
#374 = ORIENTED_EDGE ( 'NONE', *, *, #20, .F. ) ;
#375 = ADVANCED_FACE ( 'NONE', ( #355 ), #358, .F. ) ;
#376 = DIRECTION ( 'NONE',  ( -0.6250000000000000000, 0.7806247497997996776, 0.000000000000000000 ) ) ;
#377 = ORIENTED_EDGE ( 'NONE', *, *, #274, .T. ) ;
#378 = CARTESIAN_POINT ( 'NONE',  ( -25.00000000000000000, 31.22498999199198977, 15.00000000000000178 ) ) ;
#379 = DIRECTION ( 'NONE',  ( -0.000000000000000000, -0.000000000000000000, -1.000000000000000000 ) ) ;
#380 = CC_DESIGN_SECURITY_CLASSIFICATION ( #410, ( #107 ) ) ;
#381 = CARTESIAN_POINT ( 'NONE',  ( 5.000000000000000888, 0.000000000000000000, 25.00000000000000000 ) ) ;
#382 = EDGE_CURVE ( 'NONE', #78, #347, #651, .T. ) ;
#383 = DIRECTION ( 'NONE',  ( 0.000000000000000000, 0.000000000000000000, 1.000000000000000000 ) ) ;
#384 = AXIS2_PLACEMENT_3D ( 'NONE', #434, #267, #315 ) ;
#385 = CARTESIAN_POINT ( 'NONE',  ( -30.85468562349850430, 26.53748999199199332, 25.00000000000000000 ) ) ;
#386 = ORIENTED_EDGE ( 'NONE', *, *, #20, .T. ) ;
#387 = CARTESIAN_POINT ( 'NONE',  ( 50.85468562349849719, 26.53748999199199332, 25.00000000000000000 ) ) ;
#388 = DIRECTION ( 'NONE',  ( 1.000000000000000000, 0.000000000000000000, 0.000000000000000000 ) ) ;
#389 = EDGE_LOOP ( 'NONE', ( #715, #367 ) ) ;
#390 = CARTESIAN_POINT ( 'NONE',  ( -20.00000000000000000, 31.22498999199198977, 25.00000000000000000 ) ) ;
#391 = ORIENTED_EDGE ( 'NONE', *, *, #676, .T. ) ;
#392 = PERSON_AND_ORGANIZATION ( #582, #44 ) ;
#393 = EDGE_LOOP ( 'NONE', ( #570, #54 ) ) ;
#394 = DIRECTION ( 'NONE',  ( -0.000000000000000000, -0.000000000000000000, 1.000000000000000000 ) ) ;
#395 = CARTESIAN_POINT ( 'NONE',  ( 50.00000000000000000, 31.22498999199199332, 15.00000000000000178 ) ) ;
#396 = CIRCLE ( 'NONE', #247, 5.000000000000000888 ) ;
#397 =( GEOMETRIC_REPRESENTATION_CONTEXT ( 3 ) GLOBAL_UNCERTAINTY_ASSIGNED_CONTEXT ( ( #470 ) ) GLOBAL_UNIT_ASSIGNED_CONTEXT ( ( #130, #634, #167 ) ) REPRESENTATION_CONTEXT ( 'NONE', 'WORKASPACE' ) );
#398 = CARTESIAN_POINT ( 'NONE',  ( 0.000000000000000000, 0.000000000000000000, 15.00000000000000178 ) ) ;
#399 = ORIENTED_EDGE ( 'NONE', *, *, #173, .F. ) ;
#400 = CYLINDRICAL_SURFACE ( 'NONE', #143, 5.000000000000000888 ) ;
#401 = AXIS2_PLACEMENT_3D ( 'NONE', #437, #39, #725 ) ;
#402 = ADVANCED_FACE ( 'NONE', ( #594 ), #139, .F. ) ;
#403 = VERTEX_POINT ( 'NONE', #707 ) ;
#404 = EDGE_CURVE ( 'NONE', #123, #195, #340, .T. ) ;
#405 = CARTESIAN_POINT ( 'NONE',  ( 0.000000000000000000, 0.000000000000000000, 15.00000000000000178 ) ) ;
#406 = DIRECTION ( 'NONE',  ( 0.000000000000000000, 0.000000000000000000, 1.000000000000000000 ) ) ;
#407 = ORIENTED_EDGE ( 'NONE', *, *, #135, .T. ) ;
#408 = CYLINDRICAL_SURFACE ( 'NONE', #65, 5.000000000000000888 ) ;
#409 = AXIS2_PLACEMENT_3D ( 'NONE', #220, #580, #66 ) ;
#410 = SECURITY_CLASSIFICATION ( '', '', #18 ) ;
#411 = APPROVAL_PERSON_ORGANIZATION ( #3, #640, #702 ) ;
#412 = ORIENTED_EDGE ( 'NONE', *, *, #404, .T. ) ;
#413 = CARTESIAN_POINT ( 'NONE',  ( 50.85468562349849719, 26.53748999199199332, 25.00000000000000000 ) ) ;
#414 = EDGE_CURVE ( 'NONE', #425, #19, #692, .T. ) ;
#415 = CIRCLE ( 'NONE', #401, 5.000000000000000888 ) ;
#416 = EDGE_CURVE ( 'NONE', #24, #123, #541, .T. ) ;
#417 = DATE_AND_TIME ( #424, #256 ) ;
#418 = DIRECTION ( 'NONE',  ( 0.000000000000000000, 0.000000000000000000, 1.000000000000000000 ) ) ;
#419 = ADVANCED_BREP_SHAPE_REPRESENTATION ( 'link3_\X2\9ed88ba4\X0\_sldprt', ( #206, #33 ), #397 ) ;
#420 = CIRCLE ( 'NONE', #188, 5.000000000000000888 ) ;
#421 = ADVANCED_FACE ( 'NONE', ( #480, #653, #142, #530, #26 ), #191, .T. ) ;
#422 = COORDINATED_UNIVERSAL_TIME_OFFSET ( 8, 0, .AHEAD. ) ;
#423 = DIRECTION ( 'NONE',  ( -0.000000000000000000, -0.000000000000000000, 1.000000000000000000 ) ) ;
#424 = CALENDAR_DATE ( 2026, 19, 6 ) ;
#425 = VERTEX_POINT ( 'NONE', #592 ) ;
#426 = EDGE_CURVE ( 'NONE', #321, #100, #461, .T. ) ;
#427 = DIRECTION ( 'NONE',  ( 1.000000000000000000, 0.000000000000000000, 0.000000000000000000 ) ) ;
#428 = ADVANCED_FACE ( 'NONE', ( #87 ), #246, .T. ) ;
#429 = DIRECTION ( 'NONE',  ( 0.000000000000000000, 0.000000000000000000, 1.000000000000000000 ) ) ;
#430 = CIRCLE ( 'NONE', #126, 7.500000000000000000 ) ;
#431 = AXIS2_PLACEMENT_3D ( 'NONE', #378, #106, #162 ) ;
#432 = ORIENTED_EDGE ( 'NONE', *, *, #557, .T. ) ;
#433 = CARTESIAN_POINT ( 'NONE',  ( 45.00000000000000000, 31.22498999199199332, 15.00000000000000178 ) ) ;
#434 = CARTESIAN_POINT ( 'NONE',  ( -25.00000000000000000, 31.22498999199198977, 15.00000000000000178 ) ) ;
#435 = LINE ( 'NONE', #47, #658 ) ;
#436 = ADVANCED_FACE ( 'NONE', ( #194 ), #657, .T. ) ;
#437 = CARTESIAN_POINT ( 'NONE',  ( -25.00000000000000000, 31.22498999199198977, 15.00000000000000178 ) ) ;
#438 = ORIENTED_EDGE ( 'NONE', *, *, #578, .T. ) ;
#439 = CARTESIAN_POINT ( 'NONE',  ( 25.00000000000000000, 0.000000000000000000, 25.00000000000000000 ) ) ;
#440 = ADVANCED_FACE ( 'NONE', ( #352 ), #35, .F. ) ;
#441 = APPROVAL ( #641, '未指定' ) ;
#442 = DIRECTION ( 'NONE',  ( 1.000000000000000000, 0.000000000000000000, 0.000000000000000000 ) ) ;
#443 = LINE ( 'NONE', #273, #52 ) ;
#444 = DIRECTION ( 'NONE',  ( -1.000000000000000000, 0.000000000000000000, 0.000000000000000000 ) ) ;
#445 = FACE_OUTER_BOUND ( 'NONE', #468, .T. ) ;
#446 = DIRECTION ( 'NONE',  ( 1.000000000000000000, 0.000000000000000000, 0.000000000000000000 ) ) ;
#447 = AXIS2_PLACEMENT_3D ( 'NONE', #629, #341, #181 ) ;
#448 = CARTESIAN_POINT ( 'NONE',  ( 0.000000000000000000, 0.000000000000000000, 0.000000000000000000 ) ) ;
#449 = ORIENTED_EDGE ( 'NONE', *, *, #481, .T. ) ;
#450 = DIRECTION ( 'NONE',  ( -0.000000000000000000, -0.000000000000000000, -1.000000000000000000 ) ) ;
#451 = DIRECTION ( 'NONE',  ( 1.000000000000000000, 0.000000000000000000, 0.000000000000000000 ) ) ;
#452 = EDGE_LOOP ( 'NONE', ( #656, #180, #626, #176 ) ) ;
#453 = CARTESIAN_POINT ( 'NONE',  ( 45.00000000000000000, 31.22498999199199332, 0.000000000000000000 ) ) ;
#454 = ORIENTED_EDGE ( 'NONE', *, *, #711, .T. ) ;
#455 = EDGE_CURVE ( 'NONE', #551, #494, #597, .T. ) ;
#456 = CARTESIAN_POINT ( 'NONE',  ( -25.00000000000000000, 38.72498999199198977, 25.00000000000000000 ) ) ;
#457 = ORIENTED_EDGE ( 'NONE', *, *, #719, .T. ) ;
#458 = CARTESIAN_POINT ( 'NONE',  ( -25.00000000000000000, 31.22498999199198977, 25.00000000000000000 ) ) ;
#459 = APPLICATION_CONTEXT ( 'configuration controlled 3d designs of mechanical parts and assemblies' ) ;
#460 = PRODUCT_DEFINITION_SHAPE ( 'NONE', 'NONE',  #223 ) ;
#461 = CIRCLE ( 'NONE', #690, 5.000000000000000888 ) ;
#462 = EDGE_CURVE ( 'NONE', #675, #665, #415, .T. ) ;
#463 = LINE ( 'NONE', #456, #708 ) ;
#464 = VERTEX_POINT ( 'NONE', #328 ) ;
#465 = VECTOR ( 'NONE', #308, 1000.000000000000000 ) ;
#466 = CARTESIAN_POINT ( 'NONE',  ( 50.85468562349849719, 26.53748999199199332, 25.00000000000000000 ) ) ;
#467 = AXIS2_PLACEMENT_3D ( 'NONE', #387, #490, #621 ) ;
#468 = EDGE_LOOP ( 'NONE', ( #8, #540, #695, #386 ) ) ;
#469 = LINE ( 'NONE', #413, #49 ) ;
#470 = UNCERTAINTY_MEASURE_WITH_UNIT (LENGTH_MEASURE( 1.000000000000000082E-05 ), #130, 'distance_accuracy_value', 'NONE');
#471 = LINE ( 'NONE', #196, #573 ) ;
#472 = CC_DESIGN_PERSON_AND_ORGANIZATION_ASSIGNMENT ( #392, #119, ( #579 ) ) ;
#473 = CALENDAR_DATE ( 2026, 19, 6 ) ;
#474 = VERTEX_POINT ( 'NONE', #381 ) ;
#475 = CARTESIAN_POINT ( 'NONE',  ( 20.00000000000000000, 0.000000000000000000, 15.00000000000000178 ) ) ;
#476 = AXIS2_PLACEMENT_3D ( 'NONE', #453, #687, #132 ) ;
#477 = DIRECTION ( 'NONE',  ( 0.6250000000000000000, -0.7806247497997996776, 0.000000000000000000 ) ) ;
#478 = DATE_TIME_ROLE ( 'classification_date' ) ;
#479 = VECTOR ( 'NONE', #496, 1000.000000000000000 ) ;
#480 = FACE_BOUND ( 'NONE', #284, .T. ) ;
#481 = EDGE_CURVE ( 'NONE', #732, #726, #25, .T. ) ;
#482 = DIRECTION ( 'NONE',  ( 1.000000000000000000, 0.000000000000000000, -0.000000000000000000 ) ) ;
#483 = ORIENTED_EDGE ( 'NONE', *, *, #232, .F. ) ;
#484 = FACE_OUTER_BOUND ( 'NONE', #372, .T. ) ;
#485 = ADVANCED_FACE ( 'NONE', ( #615 ), #96, .T. ) ;
#486 = CARTESIAN_POINT ( 'NONE',  ( -25.00000000000000000, 38.72498999199198977, 25.00000000000000000 ) ) ;
#487 = AXIS2_PLACEMENT_3D ( 'NONE', #224, #115, #516 ) ;
#488 = PLANE ( 'NONE',  #122 ) ;
#489 = ORIENTED_EDGE ( 'NONE', *, *, #193, .F. ) ;
#490 = DIRECTION ( 'NONE',  ( -0.7806247497997998996, 0.6250000000000000000, 0.000000000000000000 ) ) ;
#491 = CYLINDRICAL_SURFACE ( 'NONE', #673, 7.500000000000000000 ) ;
#492 = ORIENTED_EDGE ( 'NONE', *, *, #365, .T. ) ;
#493 = DIRECTION ( 'NONE',  ( 1.000000000000000000, 0.000000000000000000, 0.000000000000000000 ) ) ;
#494 = VERTEX_POINT ( 'NONE', #385 ) ;
#495 = AXIS2_PLACEMENT_3D ( 'NONE', #691, #277, #333 ) ;
#496 = DIRECTION ( 'NONE',  ( -0.000000000000000000, -0.000000000000000000, -1.000000000000000000 ) ) ;
#497 = EDGE_LOOP ( 'NONE', ( #189, #332, #590, #616 ) ) ;
#498 = CARTESIAN_POINT ( 'NONE',  ( 0.000000000000000000, 0.000000000000000000, 15.00000000000000178 ) ) ;
#499 = CARTESIAN_POINT ( 'NONE',  ( -30.85468562349850430, 26.53748999199199332, 25.00000000000000000 ) ) ;
#500 = VERTEX_POINT ( 'NONE', #254 ) ;
#501 = CARTESIAN_POINT ( 'NONE',  ( 20.00000000000000000, 0.000000000000000000, 15.00000000000000178 ) ) ;
#502 = DIRECTION ( 'NONE',  ( 0.000000000000000000, 0.000000000000000000, 1.000000000000000000 ) ) ;
#503 = AXIS2_PLACEMENT_3D ( 'NONE', #102, #53, #717 ) ;
#504 = CYLINDRICAL_SURFACE ( 'NONE', #545, 7.500000000000007105 ) ;
#505 = CARTESIAN_POINT ( 'NONE',  ( -30.00000000000000355, 31.22498999199198977, 15.00000000000000178 ) ) ;
#506 = ORIENTED_EDGE ( 'NONE', *, *, #98, .T. ) ;
#507 = AXIS2_PLACEMENT_3D ( 'NONE', #498, #158, #446 ) ;
#508 = CARTESIAN_POINT ( 'NONE',  ( -25.00000000000000000, 31.22498999199198977, 15.00000000000000178 ) ) ;
#509 = EDGE_CURVE ( 'NONE', #464, #539, #669, .T. ) ;
#510 = ADVANCED_FACE ( 'NONE', ( #110 ), #488, .F. ) ;
#511 = EDGE_LOOP ( 'NONE', ( #133, #721, #519, #449 ) ) ;
#512 = DIRECTION ( 'NONE',  ( 0.000000000000000000, 0.000000000000000000, 1.000000000000000000 ) ) ;
#513 = LOCAL_TIME ( 21, 47, 32.00000000000000000, #422 ) ;
#514 = CIRCLE ( 'NONE', #628, 7.500000000000007105 ) ;
#515 = CC_DESIGN_PERSON_AND_ORGANIZATION_ASSIGNMENT ( #297, #310, ( #410 ) ) ;
#516 = DIRECTION ( 'NONE',  ( -1.000000000000000000, 0.000000000000000000, 0.000000000000000000 ) ) ;
#517 = VERTEX_POINT ( 'NONE', #612 ) ;
#518 = DIRECTION ( 'NONE',  ( -0.000000000000000000, -0.000000000000000000, 1.000000000000000000 ) ) ;
#519 = ORIENTED_EDGE ( 'NONE', *, *, #349, .T. ) ;
#520 = LINE ( 'NONE', #177, #648 ) ;
#521 = AXIS2_PLACEMENT_3D ( 'NONE', #501, #203, #493 ) ;
#522 = EDGE_CURVE ( 'NONE', #703, #474, #212, .T. ) ;
#523 = PERSON_AND_ORGANIZATION ( #582, #44 ) ;
#524 = ORIENTED_EDGE ( 'NONE', *, *, #69, .T. ) ;
#525 = EDGE_CURVE ( 'NONE', #494, #620, #720, .T. ) ;
#526 = DIRECTION ( 'NONE',  ( 1.000000000000000000, 0.000000000000000000, 0.000000000000000000 ) ) ;
#527 = AXIS2_PLACEMENT_3D ( 'NONE', #398, #7, #216 ) ;
#528 = VECTOR ( 'NONE', #547, 1000.000000000000000 ) ;
#529 = ORIENTED_EDGE ( 'NONE', *, *, #404, .F. ) ;
#530 = FACE_BOUND ( 'NONE', #575, .T. ) ;
#531 = ORIENTED_EDGE ( 'NONE', *, *, #382, .T. ) ;
#532 = CARTESIAN_POINT ( 'NONE',  ( 20.00000000000000000, 0.000000000000000000, 15.00000000000000178 ) ) ;
#533 = EDGE_CURVE ( 'NONE', #100, #321, #97, .T. ) ;
#534 = ORIENTED_EDGE ( 'NONE', *, *, #165, .F. ) ;
#535 = EDGE_CURVE ( 'NONE', #81, #500, #607, .T. ) ;
#536 = PERSON_AND_ORGANIZATION ( #582, #44 ) ;
#537 = ORIENTED_EDGE ( 'NONE', *, *, #426, .T. ) ;
#538 = CARTESIAN_POINT ( 'NONE',  ( 45.00000000000000000, 31.22498999199199332, 25.00000000000000000 ) ) ;
#539 = VERTEX_POINT ( 'NONE', #320 ) ;
#540 = ORIENTED_EDGE ( 'NONE', *, *, #312, .F. ) ;
#541 = LINE ( 'NONE', #187, #700 ) ;
#542 = EDGE_LOOP ( 'NONE', ( #56, #622, #40, #268 ) ) ;
#543 = CARTESIAN_POINT ( 'NONE',  ( -5.854685623498499858, -4.687499999999997335, 25.00000000000000000 ) ) ;
#544 = CARTESIAN_POINT ( 'NONE',  ( 25.00000000000000000, 0.000000000000000000, 15.00000000000000178 ) ) ;
#545 = AXIS2_PLACEMENT_3D ( 'NONE', #1, #64, #217 ) ;
#546 = CIRCLE ( 'NONE', #600, 7.500000000000000000 ) ;
#547 = DIRECTION ( 'NONE',  ( -1.000000000000000000, -1.982541115402065110E-16, -0.000000000000000000 ) ) ;
#548 = ORIENTED_EDGE ( 'NONE', *, *, #608, .F. ) ;
#549 = CARTESIAN_POINT ( 'NONE',  ( -30.85468562349850430, 26.53748999199199332, 0.000000000000000000 ) ) ;
#550 = DIRECTION ( 'NONE',  ( 1.000000000000000000, 0.000000000000000000, 0.000000000000000000 ) ) ;
#551 = VERTEX_POINT ( 'NONE', #163 ) ;
#552 = DIRECTION ( 'NONE',  ( 1.000000000000000000, 1.982541115402065356E-16, 0.000000000000000000 ) ) ;
#553 = EDGE_CURVE ( 'NONE', #309, #610, #514, .T. ) ;
#554 = DIRECTION ( 'NONE',  ( 1.000000000000000000, 0.000000000000000000, 0.000000000000000000 ) ) ;
#555 = EDGE_LOOP ( 'NONE', ( #60, #524, #377, #244, #613, #272, #290, #454, #679 ) ) ;
#556 = CARTESIAN_POINT ( 'NONE',  ( 0.000000000000000000, -7.500000000000000000, 0.000000000000000000 ) ) ;
#557 = EDGE_CURVE ( 'NONE', #474, #127, #286, .T. ) ;
#558 = CIRCLE ( 'NONE', #37, 5.000000000000000888 ) ;
#559 = APPROVAL ( #655, '未指定' ) ;
#560 = AXIS2_PLACEMENT_3D ( 'NONE', #667, #112, #38 ) ;
#561 = DIRECTION ( 'NONE',  ( 0.6250000000000000000, -0.7806247497997996776, 0.000000000000000000 ) ) ;
#562 = ORIENTED_EDGE ( 'NONE', *, *, #82, .F. ) ;
#563 = FACE_OUTER_BOUND ( 'NONE', #13, .T. ) ;
#564 = CYLINDRICAL_SURFACE ( 'NONE', #487, 7.500000000000001776 ) ;
#565 = LOCAL_TIME ( 21, 47, 32.00000000000000000, #706 ) ;
#566 = DIRECTION ( 'NONE',  ( -0.000000000000000000, -0.000000000000000000, 1.000000000000000000 ) ) ;
#567 = CARTESIAN_POINT ( 'NONE',  ( -25.00000000000000000, 31.22498999199198977, 0.000000000000000000 ) ) ;
#568 = ADVANCED_FACE ( 'NONE', ( #484 ), #198, .T. ) ;
#569 = DIRECTION ( 'NONE',  ( 0.000000000000000000, 0.000000000000000000, 1.000000000000000000 ) ) ;
#570 = ORIENTED_EDGE ( 'NONE', *, *, #264, .T. ) ;
#571 = DIRECTION ( 'NONE',  ( 0.000000000000000000, 0.000000000000000000, 1.000000000000000000 ) ) ;
#572 = DIRECTION ( 'NONE',  ( 1.000000000000000000, 0.000000000000000000, 0.000000000000000000 ) ) ;
#573 = VECTOR ( 'NONE', #423, 1000.000000000000000 ) ;
#574 = CARTESIAN_POINT ( 'NONE',  ( 20.00000000000000000, 0.000000000000000000, 25.00000000000000000 ) ) ;
#575 = EDGE_LOOP ( 'NONE', ( #164, #534 ) ) ;
#576 = LINE ( 'NONE', #5, #251 ) ;
#577 = CC_DESIGN_DATE_AND_TIME_ASSIGNMENT ( #417, #140, ( #223 ) ) ;
#578 = EDGE_CURVE ( 'NONE', #620, #347, #156, .T. ) ;
#579 = PRODUCT ( 'link3_\X2\9ed88ba4\X0\_sldprt', 'link3_\X2\9ed88ba4\X0\_sldprt', '', ( #74 ) ) ;
#580 = DIRECTION ( 'NONE',  ( 0.000000000000000000, 0.000000000000000000, 1.000000000000000000 ) ) ;
#581 = VERTEX_POINT ( 'NONE', #45 ) ;
#582 = PERSON ( '未指定', '未指定', '未指定', ('未指定'), ('未指定'), ('未指定') ) ;
#583 = DIRECTION ( 'NONE',  ( 1.000000000000000000, 0.000000000000000000, 0.000000000000000000 ) ) ;
#584 = APPLICATION_PROTOCOL_DEFINITION ( 'international standard', 'config_control_design', 1994, #342 ) ;
#585 = ORIENTED_EDGE ( 'NONE', *, *, #32, .T. ) ;
#586 = DIRECTION ( 'NONE',  ( 1.000000000000000000, 0.000000000000000000, 0.000000000000000000 ) ) ;
#587 = ADVANCED_FACE ( 'NONE', ( #259 ), #491, .T. ) ;
#588 = DIRECTION ( 'NONE',  ( -0.000000000000000000, -0.000000000000000000, -1.000000000000000000 ) ) ;
#589 = APPROVAL_DATE_TIME ( #709, #441 ) ;
#590 = ORIENTED_EDGE ( 'NONE', *, *, #660, .T. ) ;
#591 = CIRCLE ( 'NONE', #85, 7.500000000000000000 ) ;
#592 = CARTESIAN_POINT ( 'NONE',  ( 39.99999999999999289, 31.22498999199199332, 15.00000000000000178 ) ) ;
#593 = AXIS2_PLACEMENT_3D ( 'NONE', #319, #211, #677 ) ;
#594 = FACE_OUTER_BOUND ( 'NONE', #642, .T. ) ;
#595 = ORIENTED_EDGE ( 'NONE', *, *, #274, .F. ) ;
#596 = DIRECTION ( 'NONE',  ( -0.000000000000000000, -0.000000000000000000, 1.000000000000000000 ) ) ;
#597 = CIRCLE ( 'NONE', #261, 7.500000000000000000 ) ;
#598 = CALENDAR_DATE ( 2026, 19, 6 ) ;
#599 = DIRECTION ( 'NONE',  ( -0.000000000000000000, -0.000000000000000000, -1.000000000000000000 ) ) ;
#600 = AXIS2_PLACEMENT_3D ( 'NONE', #567, #278, #572 ) ;
#601 = PERSON_AND_ORGANIZATION ( #582, #44 ) ;
#602 = VERTEX_POINT ( 'NONE', #150 ) ;
#603 = DIRECTION ( 'NONE',  ( 1.000000000000000000, 0.000000000000000000, -0.000000000000000000 ) ) ;
#604 = ORIENTED_EDGE ( 'NONE', *, *, #312, .T. ) ;
#605 = CC_DESIGN_APPROVAL ( #640, ( #223 ) ) ;
#606 = DIRECTION ( 'NONE',  ( 0.000000000000000000, 0.000000000000000000, 1.000000000000000000 ) ) ;
#607 = CIRCLE ( 'NONE', #186, 5.000000000000000888 ) ;
#608 = EDGE_CURVE ( 'NONE', #517, #154, #371, .T. ) ;
#609 = CARTESIAN_POINT ( 'NONE',  ( -25.00000000000000000, 38.72498999199198977, 0.000000000000000000 ) ) ;
#610 = VERTEX_POINT ( 'NONE', #678 ) ;
#611 = DIRECTION ( 'NONE',  ( 1.000000000000000000, 0.000000000000000000, 0.000000000000000000 ) ) ;
#612 = CARTESIAN_POINT ( 'NONE',  ( 45.00000000000000000, 38.72498999199200398, 0.000000000000000000 ) ) ;
#613 = ORIENTED_EDGE ( 'NONE', *, *, #525, .T. ) ;
#614 = LINE ( 'NONE', #662, #362 ) ;
#615 = FACE_OUTER_BOUND ( 'NONE', #316, .T. ) ;
#616 = ORIENTED_EDGE ( 'NONE', *, *, #535, .T. ) ;
#617 = EDGE_CURVE ( 'NONE', #127, #474, #396, .T. ) ;
#618 = DIRECTION ( 'NONE',  ( 1.000000000000000000, 0.000000000000000000, -0.000000000000000000 ) ) ;
#619 = CARTESIAN_POINT ( 'NONE',  ( 45.00000000000000000, 31.22498999199199332, 25.00000000000000000 ) ) ;
#620 = VERTEX_POINT ( 'NONE', #175 ) ;
#621 = DIRECTION ( 'NONE',  ( -0.6249999999999998890, -0.7806247497997997886, 0.000000000000000000 ) ) ;
#622 = ORIENTED_EDGE ( 'NONE', *, *, #88, .T. ) ;
#623 = FACE_OUTER_BOUND ( 'NONE', #624, .T. ) ;
#624 = EDGE_LOOP ( 'NONE', ( #412, #374, #318, #31 ) ) ;
#625 = CARTESIAN_POINT ( 'NONE',  ( -32.50000000000000000, 31.22498999199198977, 0.000000000000000000 ) ) ;
#626 = ORIENTED_EDGE ( 'NONE', *, *, #617, .T. ) ;
#627 = CIRCLE ( 'NONE', #527, 5.000000000000000888 ) ;
#628 = AXIS2_PLACEMENT_3D ( 'NONE', #324, #201, #554 ) ;
#629 = CARTESIAN_POINT ( 'NONE',  ( 45.00000000000000000, 31.22498999199199332, 15.00000000000000178 ) ) ;
#630 = CARTESIAN_POINT ( 'NONE',  ( 50.00000000000000000, 31.22498999199199332, 25.00000000000000000 ) ) ;
#631 = ORIENTED_EDGE ( 'NONE', *, *, #165, .T. ) ;
#632 = CARTESIAN_POINT ( 'NONE',  ( 0.000000000000000000, 0.000000000000000000, 25.00000000000000000 ) ) ;
#633 = AXIS2_PLACEMENT_3D ( 'NONE', #532, #596, #712 ) ;
#634 =( NAMED_UNIT ( * ) PLANE_ANGLE_UNIT ( ) SI_UNIT ( $, .RADIAN. ) );
#635 = ORIENTED_EDGE ( 'NONE', *, *, #509, .F. ) ;
#636 = VECTOR ( 'NONE', #379, 1000.000000000000000 ) ;
#637 = LINE ( 'NONE', #76, #155 ) ;
#638 = EDGE_LOOP ( 'NONE', ( #75, #182 ) ) ;
#639 = DIRECTION ( 'NONE',  ( -0.000000000000000000, -0.000000000000000000, 1.000000000000000000 ) ) ;
#640 = APPROVAL ( #363, '未指定' ) ;
#641 = APPROVAL_STATUS ( 'not_yet_approved' ) ;
#642 = EDGE_LOOP ( 'NONE', ( #344, #184, #161, #351 ) ) ;
#643 = AXIS2_PLACEMENT_3D ( 'NONE', #209, #99, #713 ) ;
#644 = FACE_OUTER_BOUND ( 'NONE', #542, .T. ) ;
#645 = PERSON_AND_ORGANIZATION_ROLE ( 'design_supplier' ) ;
#646 = ORIENTED_EDGE ( 'NONE', *, *, #382, .F. ) ;
#647 = CARTESIAN_POINT ( 'NONE',  ( -25.00000000000000000, 31.22498999199198977, 25.00000000000000000 ) ) ;
#648 = VECTOR ( 'NONE', #639, 1000.000000000000000 ) ;
#649 = ADVANCED_FACE ( 'NONE', ( #623 ), #564, .T. ) ;
#650 = COORDINATED_UNIVERSAL_TIME_OFFSET ( 8, 0, .AHEAD. ) ;
#651 = LINE ( 'NONE', #701, #240 ) ;
#652 = DATE_AND_TIME ( #473, #513 ) ;
#653 = FACE_BOUND ( 'NONE', #389, .T. ) ;
#654 = ORIENTED_EDGE ( 'NONE', *, *, #69, .F. ) ;
#655 = APPROVAL_STATUS ( 'not_yet_approved' ) ;
#656 = ORIENTED_EDGE ( 'NONE', *, *, #299, .F. ) ;
#657 = PLANE ( 'NONE',  #663 ) ;
#658 = VECTOR ( 'NONE', #153, 1000.000000000000000 ) ;
#659 = DIRECTION ( 'NONE',  ( 1.000000000000000000, 0.000000000000000000, 0.000000000000000000 ) ) ;
#660 = EDGE_CURVE ( 'NONE', #100, #81, #12, .T. ) ;
#661 = DIRECTION ( 'NONE',  ( -0.000000000000000000, -0.000000000000000000, -1.000000000000000000 ) ) ;
#662 = CARTESIAN_POINT ( 'NONE',  ( -30.85468562349850430, 26.53748999199199332, 25.00000000000000000 ) ) ;
#663 = AXIS2_PLACEMENT_3D ( 'NONE', #145, #364, #603 ) ;
#664 = CARTESIAN_POINT ( 'NONE',  ( -30.85468562349850430, 26.53748999199199332, 25.00000000000000000 ) ) ;
#665 = VERTEX_POINT ( 'NONE', #505 ) ;
#666 = AXIS2_PLACEMENT_3D ( 'NONE', #21, #242, #92 ) ;
#667 = CARTESIAN_POINT ( 'NONE',  ( 0.000000000000000000, 0.000000000000000000, 25.00000000000000000 ) ) ;
#668 = EDGE_CURVE ( 'NONE', #500, #81, #258, .T. ) ;
#669 = LINE ( 'NONE', #148, #279 ) ;
#670 = ORIENTED_EDGE ( 'NONE', *, *, #200, .T. ) ;
#671 = DIRECTION ( 'NONE',  ( 0.000000000000000000, 0.000000000000000000, 1.000000000000000000 ) ) ;
#672 = CIRCLE ( 'NONE', #93, 5.000000000000000888 ) ;
#673 = AXIS2_PLACEMENT_3D ( 'NONE', #674, #661, #444 ) ;
#674 = CARTESIAN_POINT ( 'NONE',  ( -25.00000000000000000, 31.22498999199198977, 25.00000000000000000 ) ) ;
#675 = VERTEX_POINT ( 'NONE', #70 ) ;
#676 = EDGE_CURVE ( 'NONE', #703, #221, #627, .T. ) ;
#677 = DIRECTION ( 'NONE',  ( 1.000000000000000000, 0.000000000000000000, 0.000000000000000000 ) ) ;
#678 = CARTESIAN_POINT ( 'NONE',  ( 45.00000000000000000, 38.72498999199200398, 25.00000000000000000 ) ) ;
#679 = ORIENTED_EDGE ( 'NONE', *, *, #265, .T. ) ;
#680 = LINE ( 'NONE', #556, #114 ) ;
#681 = VECTOR ( 'NONE', #226, 1000.000000000000114 ) ;
#682 = DIRECTION ( 'NONE',  ( 1.000000000000000000, 0.000000000000000000, 0.000000000000000000 ) ) ;
#683 = ORIENTED_EDGE ( 'NONE', *, *, #304, .T. ) ;
#684 = LINE ( 'NONE', #172, #230 ) ;
#685 = DIRECTION ( 'NONE',  ( 1.000000000000000000, 0.000000000000000000, 0.000000000000000000 ) ) ;
#686 = ORIENTED_EDGE ( 'NONE', *, *, #533, .T. ) ;
#687 = DIRECTION ( 'NONE',  ( 0.000000000000000000, 0.000000000000000000, 1.000000000000000000 ) ) ;
#688 = DIRECTION ( 'NONE',  ( -0.000000000000000000, -0.000000000000000000, -1.000000000000000000 ) ) ;
#689 = ORIENTED_EDGE ( 'NONE', *, *, #462, .F. ) ;
#690 = AXIS2_PLACEMENT_3D ( 'NONE', #475, #134, #361 ) ;
#691 = CARTESIAN_POINT ( 'NONE',  ( 0.000000000000000000, -7.500000000000000000, 25.00000000000000000 ) ) ;
#692 = CIRCLE ( 'NONE', #301, 5.000000000000004441 ) ;
#693 = EDGE_CURVE ( 'NONE', #602, #154, #463, .T. ) ;
#694 = DIRECTION ( 'NONE',  ( 0.000000000000000000, 0.000000000000000000, 1.000000000000000000 ) ) ;
#695 = ORIENTED_EDGE ( 'NONE', *, *, #265, .F. ) ;
#696 = CARTESIAN_POINT ( 'NONE',  ( 15.00000000000000000, 6.123233995736765296E-16, 15.00000000000000178 ) ) ;
#697 = ORIENTED_EDGE ( 'NONE', *, *, #299, .T. ) ;
#698 = DIRECTION ( 'NONE',  ( 1.000000000000000000, 0.000000000000000000, 0.000000000000000000 ) ) ;
#699 = CALENDAR_DATE ( 2026, 19, 6 ) ;
#700 = VECTOR ( 'NONE', #599, 1000.000000000000000 ) ;
#701 = CARTESIAN_POINT ( 'NONE',  ( -30.85468562349850430, 26.53748999199199332, 0.000000000000000000 ) ) ;
#702 = APPROVAL_ROLE ( '' ) ;
#703 = VERTEX_POINT ( 'NONE', #343 ) ;
#704 = CARTESIAN_POINT ( 'NONE',  ( 20.00000000000000000, 0.000000000000000000, 15.00000000000000178 ) ) ;
#705 = ORIENTED_EDGE ( 'NONE', *, *, #455, .F. ) ;
#706 = COORDINATED_UNIVERSAL_TIME_OFFSET ( 8, 0, .AHEAD. ) ;
#707 = CARTESIAN_POINT ( 'NONE',  ( 25.85468562349850075, -4.687500000000002665, 25.00000000000000000 ) ) ;
#708 = VECTOR ( 'NONE', #688, 1000.000000000000000 ) ;
#709 = DATE_AND_TIME ( #91, #22 ) ;
#710 = DIRECTION ( 'NONE',  ( 1.000000000000000000, 0.000000000000000000, -0.000000000000000000 ) ) ;
#711 = EDGE_CURVE ( 'NONE', #24, #403, #57, .T. ) ;
#712 = DIRECTION ( 'NONE',  ( 1.000000000000000000, 0.000000000000000000, 0.000000000000000000 ) ) ;
#713 = DIRECTION ( 'NONE',  ( -1.000000000000000000, 0.000000000000000000, 0.000000000000000000 ) ) ;
#714 = FACE_OUTER_BOUND ( 'NONE', #729, .T. ) ;
#715 = ORIENTED_EDGE ( 'NONE', *, *, #557, .F. ) ;
#716 = AXIS2_PLACEMENT_3D ( 'NONE', #48, #369, #550 ) ;
#717 = DIRECTION ( 'NONE',  ( 1.000000000000000000, 0.000000000000000000, 0.000000000000000000 ) ) ;
#718 = CARTESIAN_POINT ( 'NONE',  ( -25.00000000000000000, 38.72498999199198977, 25.00000000000000000 ) ) ;
#719 = EDGE_CURVE ( 'NONE', #63, #235, #245, .T. ) ;
#720 = LINE ( 'NONE', #664, #731 ) ;
#721 = ORIENTED_EDGE ( 'NONE', *, *, #264, .F. ) ;
#722 = CYLINDRICAL_SURFACE ( 'NONE', #431, 5.000000000000000888 ) ;
#723 = CC_DESIGN_APPROVAL ( #559, ( #410 ) ) ;
#724 = EDGE_CURVE ( 'NONE', #235, #63, #672, .T. ) ;
#725 = DIRECTION ( 'NONE',  ( 1.000000000000000000, 0.000000000000000000, 0.000000000000000000 ) ) ;
#726 = VERTEX_POINT ( 'NONE', #289 ) ;
#727 = FACE_OUTER_BOUND ( 'NONE', #280, .T. ) ;
#728 = DIRECTION ( 'NONE',  ( 1.000000000000000000, 0.000000000000000000, 0.000000000000000000 ) ) ;
#729 = EDGE_LOOP ( 'NONE', ( #329, #689, #492, #457 ) ) ;
#730 = FACE_OUTER_BOUND ( 'NONE', #202, .T. ) ;
#731 = VECTOR ( 'NONE', #561, 1000.000000000000114 ) ;
#732 = VERTEX_POINT ( 'NONE', #630 ) ;
ENDSEC;
END-ISO-10303-21;
