ISO-10303-21;
HEADER;
FILE_DESCRIPTION (( 'STEP AP203' ),
    '1' );
FILE_NAME ('stamp_slider_默认_sldprt.STEP',
    '2026-06-19T13:47:36',
    ( '' ),
    ( '' ),
    'SwSTEP 2.0',
    'SolidWorks 2022',
    '' );
FILE_SCHEMA (( 'CONFIG_CONTROL_DESIGN' ));
ENDSEC;

DATA;
#1 = EDGE_LOOP ( 'NONE', ( #300, #655, #267, #62, #271, #464, #663, #219, #186 ) ) ;
#2 = CARTESIAN_POINT ( 'NONE',  ( -25.00000000000000355, 31.22498999199200043, 25.00000000000000000 ) ) ;
#3 = EDGE_LOOP ( 'NONE', ( #16, #125, #473, #132 ) ) ;
#4 = PERSON_AND_ORGANIZATION ( #739, #334 ) ;
#5 = PLANE ( 'NONE',  #191 ) ;
#6 = ORIENTED_EDGE ( 'NONE', *, *, #30, .F. ) ;
#7 = DATE_TIME_ROLE ( 'creation_date' ) ;
#8 = DIRECTION ( 'NONE',  ( 0.000000000000000000, 0.000000000000000000, 1.000000000000000000 ) ) ;
#9 = ORIENTED_EDGE ( 'NONE', *, *, #500, .T. ) ;
#10 = FACE_OUTER_BOUND ( 'NONE', #683, .T. ) ;
#11 = VERTEX_POINT ( 'NONE', #144 ) ;
#12 = AXIS2_PLACEMENT_3D ( 'NONE', #99, #43, #269 ) ;
#13 = PRODUCT_DEFINITION_FORMATION_WITH_SPECIFIED_SOURCE ( '任何', '', #568, .NOT_KNOWN. ) ;
#14 = LINE ( 'NONE', #71, #302 ) ;
#15 = EDGE_CURVE ( 'NONE', #514, #46, #537, .T. ) ;
#16 = ORIENTED_EDGE ( 'NONE', *, *, #214, .F. ) ;
#17 = VECTOR ( 'NONE', #588, 1000.000000000000000 ) ;
#18 = DIRECTION ( 'NONE',  ( -1.000000000000000000, 0.000000000000000000, 0.000000000000000000 ) ) ;
#19 = CARTESIAN_POINT ( 'NONE',  ( 19.99999999999998934, 0.000000000000000000, 0.000000000000000000 ) ) ;
#20 = EDGE_CURVE ( 'NONE', #72, #364, #136, .T. ) ;
#21 = ADVANCED_FACE ( 'NONE', ( #438 ), #194, .F. ) ;
#22 = DIRECTION ( 'NONE',  ( -0.000000000000000000, -0.000000000000000000, 1.000000000000000000 ) ) ;
#23 = DIRECTION ( 'NONE',  ( 0.000000000000000000, 0.000000000000000000, 1.000000000000000000 ) ) ;
#24 = ORIENTED_EDGE ( 'NONE', *, *, #560, .T. ) ;
#25 = AXIS2_PLACEMENT_3D ( 'NONE', #328, #95, #273 ) ;
#26 = LINE ( 'NONE', #486, #37 ) ;
#27 = ADVANCED_FACE ( 'NONE', ( #247 ), #737, .T. ) ;
#28 = DIRECTION ( 'NONE',  ( 1.000000000000000000, 0.000000000000000000, 0.000000000000000000 ) ) ;
#29 = ORIENTED_EDGE ( 'NONE', *, *, #531, .F. ) ;
#30 = EDGE_CURVE ( 'NONE', #468, #679, #376, .T. ) ;
#31 = CARTESIAN_POINT ( 'NONE',  ( -36.70937124699698018, 21.84998999199201819, 25.00000000000000000 ) ) ;
#32 = VECTOR ( 'NONE', #383, 1000.000000000000000 ) ;
#33 = LINE ( 'NONE', #732, #51 ) ;
#34 = ORIENTED_EDGE ( 'NONE', *, *, #284, .T. ) ;
#35 = CARTESIAN_POINT ( 'NONE',  ( -35.85468562349849009, 26.53748999199201108, 0.000000000000000000 ) ) ;
#36 = DIRECTION ( 'NONE',  ( -1.000000000000000000, 0.000000000000000000, 0.000000000000000000 ) ) ;
#37 = VECTOR ( 'NONE', #254, 1000.000000000000000 ) ;
#38 = LINE ( 'NONE', #497, #439 ) ;
#39 = CC_DESIGN_APPROVAL ( #669, ( #605 ) ) ;
#40 = LINE ( 'NONE', #230, #400 ) ;
#41 = CC_DESIGN_PERSON_AND_ORGANIZATION_ASSIGNMENT ( #401, #121, ( #605 ) ) ;
#42 = ORIENTED_EDGE ( 'NONE', *, *, #573, .T. ) ;
#43 = DIRECTION ( 'NONE',  ( 0.000000000000000000, 0.000000000000000000, 1.000000000000000000 ) ) ;
#44 = CARTESIAN_POINT ( 'NONE',  ( 10.00000000000000355, -10.00000000000000000, 17.50000000000000000 ) ) ;
#45 = VECTOR ( 'NONE', #101, 1000.000000000000000 ) ;
#46 = VERTEX_POINT ( 'NONE', #19 ) ;
#47 = DIRECTION ( 'NONE',  ( -1.000000000000000000, 0.000000000000000000, 0.000000000000000000 ) ) ;
#48 = APPLICATION_CONTEXT ( 'configuration controlled 3d designs of mechanical parts and assemblies' ) ;
#49 = DIRECTION ( 'NONE',  ( 1.000000000000000000, 0.000000000000000000, 0.000000000000000000 ) ) ;
#50 = ORIENTED_EDGE ( 'NONE', *, *, #30, .T. ) ;
#51 = VECTOR ( 'NONE', #495, 1000.000000000000114 ) ;
#52 = DIRECTION ( 'NONE',  ( -0.000000000000000000, -0.000000000000000000, -1.000000000000000000 ) ) ;
#53 = LINE ( 'NONE', #459, #620 ) ;
#54 = EDGE_LOOP ( 'NONE', ( #240, #148, #428, #337 ) ) ;
#55 = AXIS2_PLACEMENT_3D ( 'NONE', #443, #23, #245 ) ;
#56 = DIRECTION ( 'NONE',  ( -0.000000000000000000, 1.000000000000000000, -0.000000000000000000 ) ) ;
#57 = EDGE_CURVE ( 'NONE', #717, #387, #543, .T. ) ;
#58 = PLANE ( 'NONE',  #349 ) ;
#59 = VERTEX_POINT ( 'NONE', #147 ) ;
#60 = APPROVAL_ROLE ( '' ) ;
#61 = CARTESIAN_POINT ( 'NONE',  ( -11.70937124699698906, -9.374999999999985789, 25.00000000000000000 ) ) ;
#62 = ORIENTED_EDGE ( 'NONE', *, *, #130, .F. ) ;
#63 = CARTESIAN_POINT ( 'NONE',  ( -5.854685623498494529, -4.687499999999992006, 0.000000000000000000 ) ) ;
#64 = VECTOR ( 'NONE', #481, 1000.000000000000000 ) ;
#65 = ORIENTED_EDGE ( 'NONE', *, *, #752, .T. ) ;
#66 = APPROVAL ( #527, '未指定' ) ;
#67 = PERSON_AND_ORGANIZATION ( #739, #334 ) ;
#68 = DIRECTION ( 'NONE',  ( 0.000000000000000000, 0.000000000000000000, -1.000000000000000000 ) ) ;
#69 = VERTEX_POINT ( 'NONE', #370 ) ;
#70 = PERSON_AND_ORGANIZATION_ROLE ( 'design_supplier' ) ;
#71 = CARTESIAN_POINT ( 'NONE',  ( 10.00000000000000355, 0.000000000000000000, 7.500000000000001776 ) ) ;
#72 = VERTEX_POINT ( 'NONE', #205 ) ;
#73 = DIRECTION ( 'NONE',  ( 1.000000000000000000, 0.000000000000000000, 0.000000000000000000 ) ) ;
#74 = ORIENTED_EDGE ( 'NONE', *, *, #272, .F. ) ;
#75 = AXIS2_PLACEMENT_3D ( 'NONE', #503, #516, #757 ) ;
#76 = EDGE_CURVE ( 'NONE', #72, #188, #686, .T. ) ;
#77 = LINE ( 'NONE', #305, #395 ) ;
#78 = CARTESIAN_POINT ( 'NONE',  ( 29.99999999999999645, -10.00000000000000000, 0.000000000000000000 ) ) ;
#79 = DIRECTION ( 'NONE',  ( 0.000000000000000000, 0.000000000000000000, 1.000000000000000000 ) ) ;
#80 = CARTESIAN_POINT ( 'NONE',  ( -5.854685623498494529, -4.687499999999992006, 25.00000000000000000 ) ) ;
#81 = ORIENTED_EDGE ( 'NONE', *, *, #483, .T. ) ;
#82 = DIRECTION ( 'NONE',  ( -1.000000000000000000, -0.000000000000000000, -0.000000000000000000 ) ) ;
#83 = VECTOR ( 'NONE', #306, 1000.000000000000000 ) ;
#84 = DIRECTION ( 'NONE',  ( 0.000000000000000000, 1.000000000000000000, 0.000000000000000000 ) ) ;
#85 = PRODUCT_DEFINITION ( '未知', '', #13, #461 ) ;
#86 = CIRCLE ( 'NONE', #667, 5.000000000000000888 ) ;
#87 = CARTESIAN_POINT ( 'NONE',  ( 20.00000000000000355, -10.00000000000000000, 17.50000000000000000 ) ) ;
#88 = DIRECTION ( 'NONE',  ( -0.000000000000000000, -0.000000000000000000, -1.000000000000000000 ) ) ;
#89 = AXIS2_PLACEMENT_3D ( 'NONE', #80, #309, #200 ) ;
#90 = ORIENTED_EDGE ( 'NONE', *, *, #318, .T. ) ;
#91 = AXIS2_PLACEMENT_3D ( 'NONE', #109, #208, #389 ) ;
#92 = DIRECTION ( 'NONE',  ( 1.000000000000000000, 0.000000000000000000, 0.000000000000000000 ) ) ;
#93 = PLANE ( 'NONE',  #241 ) ;
#94 = VERTEX_POINT ( 'NONE', #671 ) ;
#95 = DIRECTION ( 'NONE',  ( -0.000000000000000000, -0.000000000000000000, 1.000000000000000000 ) ) ;
#96 = DIRECTION ( 'NONE',  ( 0.000000000000000000, 1.000000000000000000, 0.000000000000000000 ) ) ;
#97 = ORIENTED_EDGE ( 'NONE', *, *, #448, .F. ) ;
#98 = CIRCLE ( 'NONE', #526, 7.499999999999993783 ) ;
#99 = CARTESIAN_POINT ( 'NONE',  ( -30.85468562349849364, 26.53748999199201108, 0.000000000000000000 ) ) ;
#100 = EDGE_CURVE ( 'NONE', #330, #142, #413, .T. ) ;
#101 = DIRECTION ( 'NONE',  ( -0.000000000000000000, -0.000000000000000000, 1.000000000000000000 ) ) ;
#102 = ADVANCED_FACE ( 'NONE', ( #747 ), #93, .F. ) ;
#103 = VERTEX_POINT ( 'NONE', #613 ) ;
#104 = AXIS2_PLACEMENT_3D ( 'NONE', #274, #513, #392 ) ;
#105 = DIRECTION ( 'NONE',  ( 0.000000000000000000, 0.000000000000000000, 1.000000000000000000 ) ) ;
#106 = CARTESIAN_POINT ( 'NONE',  ( 19.99999999999999645, -10.00000000000000000, 10.00000000000000000 ) ) ;
#107 = ORIENTED_EDGE ( 'NONE', *, *, #238, .F. ) ;
#108 = CARTESIAN_POINT ( 'NONE',  ( -30.85468562349849364, 26.53748999199201108, 25.00000000000000000 ) ) ;
#109 = CARTESIAN_POINT ( 'NONE',  ( -30.85468562349849364, 26.53748999199201108, 0.000000000000000000 ) ) ;
#110 = EDGE_LOOP ( 'NONE', ( #597, #262, #339, #201 ) ) ;
#111 = EDGE_CURVE ( 'NONE', #364, #243, #304, .T. ) ;
#112 = CYLINDRICAL_SURFACE ( 'NONE', #25, 5.000000000000001776 ) ;
#113 = VECTOR ( 'NONE', #731, 1000.000000000000000 ) ;
#114 = CYLINDRICAL_SURFACE ( 'NONE', #697, 10.00000000000000000 ) ;
#115 = ORIENTED_EDGE ( 'NONE', *, *, #140, .T. ) ;
#116 = DIRECTION ( 'NONE',  ( 0.000000000000000000, 0.000000000000000000, 1.000000000000000000 ) ) ;
#117 = ORIENTED_EDGE ( 'NONE', *, *, #716, .T. ) ;
#118 = PERSON_AND_ORGANIZATION ( #739, #334 ) ;
#119 = LINE ( 'NONE', #2, #744 ) ;
#120 = EDGE_LOOP ( 'NONE', ( #626, #90 ) ) ;
#121 = PERSON_AND_ORGANIZATION_ROLE ( 'classification_officer' ) ;
#122 = CYLINDRICAL_SURFACE ( 'NONE', #759, 10.00000000000000000 ) ;
#123 = ORIENTED_EDGE ( 'NONE', *, *, #15, .T. ) ;
#124 = CARTESIAN_POINT ( 'NONE',  ( 19.99999999999999289, -10.00000000000000000, 25.00000000000000000 ) ) ;
#125 = ORIENTED_EDGE ( 'NONE', *, *, #423, .T. ) ;
#126 = UNCERTAINTY_MEASURE_WITH_UNIT (LENGTH_MEASURE( 1.000000000000000082E-05 ), #340, 'distance_accuracy_value', 'NONE');
#127 = APPLICATION_PROTOCOL_DEFINITION ( 'international standard', 'config_control_design', 1994, #611 ) ;
#128 = LINE ( 'NONE', #299, #487 ) ;
#129 = EDGE_LOOP ( 'NONE', ( #602, #156, #738, #351 ) ) ;
#130 = EDGE_CURVE ( 'NONE', #565, #377, #33, .T. ) ;
#131 = CARTESIAN_POINT ( 'NONE',  ( -38.35468562349848298, 26.53748999199201108, 0.000000000000000000 ) ) ;
#132 = ORIENTED_EDGE ( 'NONE', *, *, #728, .F. ) ;
#133 = AXIS2_PLACEMENT_3D ( 'NONE', #424, #79, #315 ) ;
#134 = LOCAL_TIME ( 21, 47, 36.00000000000000000, #587 ) ;
#135 = FACE_OUTER_BOUND ( 'NONE', #234, .T. ) ;
#136 = LINE ( 'NONE', #435, #603 ) ;
#137 = ORIENTED_EDGE ( 'NONE', *, *, #553, .T. ) ;
#138 = VECTOR ( 'NONE', #215, 1000.000000000000000 ) ;
#139 = CARTESIAN_POINT ( 'NONE',  ( 29.99999999999999645, -10.00000000000000000, 9.999999999999998224 ) ) ;
#140 = EDGE_CURVE ( 'NONE', #69, #253, #675, .T. ) ;
#141 = CARTESIAN_POINT ( 'NONE',  ( -25.00000000000000355, 31.22498999199200043, 25.00000000000000000 ) ) ;
#142 = VERTEX_POINT ( 'NONE', #488 ) ;
#143 = DIRECTION ( 'NONE',  ( -0.6249999999999998890, 0.7806247497997997886, -0.000000000000000000 ) ) ;
#144 = CARTESIAN_POINT ( 'NONE',  ( -25.85468562349849009, 26.53748999199201108, 0.000000000000000000 ) ) ;
#145 = VECTOR ( 'NONE', #471, 1000.000000000000000 ) ;
#146 = LINE ( 'NONE', #31, #454 ) ;
#147 = CARTESIAN_POINT ( 'NONE',  ( -10.85468562349849542, -4.687499999999991118, 0.000000000000000000 ) ) ;
#148 = ORIENTED_EDGE ( 'NONE', *, *, #272, .T. ) ;
#149 = VECTOR ( 'NONE', #633, 1000.000000000000000 ) ;
#150 = CARTESIAN_POINT ( 'NONE',  ( 0.000000000000000000, 0.000000000000000000, 0.000000000000000000 ) ) ;
#151 = CARTESIAN_POINT ( 'NONE',  ( 30.00000000000000000, -10.00000000000000000, 15.00000000000000000 ) ) ;
#152 = ORIENTED_EDGE ( 'NONE', *, *, #517, .F. ) ;
#153 = DIRECTION ( 'NONE',  ( -0.000000000000000000, -0.000000000000000000, -1.000000000000000000 ) ) ;
#154 = ADVANCED_FACE ( 'NONE', ( #558 ), #312, .T. ) ;
#155 = DIRECTION ( 'NONE',  ( 0.000000000000000000, 0.000000000000000000, -1.000000000000000000 ) ) ;
#156 = ORIENTED_EDGE ( 'NONE', *, *, #419, .F. ) ;
#157 = AXIS2_PLACEMENT_3D ( 'NONE', #606, #375, #18 ) ;
#158 = DIRECTION ( 'NONE',  ( -0.000000000000000000, -0.000000000000000000, 1.000000000000000000 ) ) ;
#159 = DIRECTION ( 'NONE',  ( -0.000000000000000000, -1.000000000000000000, 0.000000000000000000 ) ) ;
#160 = VERTEX_POINT ( 'NONE', #151 ) ;
#161 = EDGE_CURVE ( 'NONE', #160, #460, #607, .T. ) ;
#162 = DIRECTION ( 'NONE',  ( 1.000000000000000000, 0.000000000000000000, 0.000000000000000000 ) ) ;
#163 = CARTESIAN_POINT ( 'NONE',  ( 30.00000000000000000, 0.000000000000000000, 9.999999999999998224 ) ) ;
#164 = EDGE_CURVE ( 'NONE', #453, #565, #476, .T. ) ;
#165 = EDGE_LOOP ( 'NONE', ( #750, #489, #34, #639 ) ) ;
#166 = LINE ( 'NONE', #391, #478 ) ;
#167 = FACE_OUTER_BOUND ( 'NONE', #440, .T. ) ;
#168 = EDGE_LOOP ( 'NONE', ( #97, #644, #107, #594 ) ) ;
#169 = CIRCLE ( 'NONE', #12, 5.000000000000000888 ) ;
#170 = FACE_OUTER_BOUND ( 'NONE', #723, .T. ) ;
#171 = AXIS2_PLACEMENT_3D ( 'NONE', #232, #294, #220 ) ;
#172 = VERTEX_POINT ( 'NONE', #427 ) ;
#173 = COORDINATED_UNIVERSAL_TIME_OFFSET ( 8, 0, .AHEAD. ) ;
#174 = AXIS2_PLACEMENT_3D ( 'NONE', #398, #181, #475 ) ;
#175 = CARTESIAN_POINT ( 'NONE',  ( 20.00000000000000355, -10.00000000000000000, 17.50000000000000000 ) ) ;
#176 = ORIENTED_EDGE ( 'NONE', *, *, #649, .T. ) ;
#177 = CALENDAR_DATE ( 2026, 19, 6 ) ;
#178 = CARTESIAN_POINT ( 'NONE',  ( 19.99999999999999645, -10.00000000000000000, 10.00000000000000000 ) ) ;
#179 = ORIENTED_EDGE ( 'NONE', *, *, #20, .F. ) ;
#180 = DATE_AND_TIME ( #348, #396 ) ;
#181 = DIRECTION ( 'NONE',  ( -0.000000000000000000, -0.000000000000000000, -1.000000000000000000 ) ) ;
#182 = VECTOR ( 'NONE', #566, 1000.000000000000000 ) ;
#183 = ORIENTED_EDGE ( 'NONE', *, *, #434, .T. ) ;
#184 = PERSON_AND_ORGANIZATION ( #739, #334 ) ;
#185 = DIRECTION ( 'NONE',  ( -0.000000000000000000, 1.000000000000000000, -0.000000000000000000 ) ) ;
#186 = ORIENTED_EDGE ( 'NONE', *, *, #228, .T. ) ;
#187 = CARTESIAN_POINT ( 'NONE',  ( 0.000000000000000000, -9.374999999999987566, 0.000000000000000000 ) ) ;
#188 = VERTEX_POINT ( 'NONE', #521 ) ;
#189 = CARTESIAN_POINT ( 'NONE',  ( -36.70937124699698018, 21.84998999199201819, 0.000000000000000000 ) ) ;
#190 = DIRECTION ( 'NONE',  ( 1.000000000000000000, 0.000000000000000000, 0.000000000000000000 ) ) ;
#191 = AXIS2_PLACEMENT_3D ( 'NONE', #715, #712, #535 ) ;
#192 = ORIENTED_EDGE ( 'NONE', *, *, #111, .T. ) ;
#193 = CARTESIAN_POINT ( 'NONE',  ( 10.00000000000000355, 0.000000000000000000, 17.50000000000000000 ) ) ;
#194 = CYLINDRICAL_SURFACE ( 'NONE', #666, 5.000000000000000888 ) ;
#195 = DIRECTION ( 'NONE',  ( 0.000000000000000000, 0.000000000000000000, 1.000000000000000000 ) ) ;
#196 = ADVANCED_FACE ( 'NONE', ( #221 ), #688, .F. ) ;
#197 = ORIENTED_EDGE ( 'NONE', *, *, #539, .F. ) ;
#198 = ORIENTED_EDGE ( 'NONE', *, *, #441, .T. ) ;
#199 = CARTESIAN_POINT ( 'NONE',  ( 20.00000000000000355, -10.00000000000000000, 7.500000000000001776 ) ) ;
#200 = DIRECTION ( 'NONE',  ( -1.000000000000000000, 0.000000000000000000, 0.000000000000000000 ) ) ;
#201 = ORIENTED_EDGE ( 'NONE', *, *, #258, .T. ) ;
#202 = VECTOR ( 'NONE', #584, 1000.000000000000000 ) ;
#203 = CC_DESIGN_APPROVAL ( #66, ( #85 ) ) ;
#204 = PLANE ( 'NONE',  #577 ) ;
#205 = CARTESIAN_POINT ( 'NONE',  ( 0.000000000000000000, 0.000000000000000000, 25.00000000000000000 ) ) ;
#206 = ORIENTED_EDGE ( 'NONE', *, *, #512, .T. ) ;
#207 = FACE_BOUND ( 'NONE', #168, .T. ) ;
#208 = DIRECTION ( 'NONE',  ( 0.000000000000000000, 0.000000000000000000, 1.000000000000000000 ) ) ;
#209 = ORIENTED_EDGE ( 'NONE', *, *, #531, .T. ) ;
#210 = FACE_OUTER_BOUND ( 'NONE', #293, .T. ) ;
#211 = LINE ( 'NONE', #386, #149 ) ;
#212 = ORIENTED_EDGE ( 'NONE', *, *, #713, .T. ) ;
#213 = CARTESIAN_POINT ( 'NONE',  ( -5.854685623498494529, -4.687499999999992006, 25.00000000000000000 ) ) ;
#214 = EDGE_CURVE ( 'NONE', #94, #477, #403, .T. ) ;
#215 = DIRECTION ( 'NONE',  ( -0.000000000000000000, -0.000000000000000000, 1.000000000000000000 ) ) ;
#216 = ORIENTED_EDGE ( 'NONE', *, *, #214, .T. ) ;
#217 = LINE ( 'NONE', #381, #615 ) ;
#218 = LINE ( 'NONE', #332, #417 ) ;
#219 = ORIENTED_EDGE ( 'NONE', *, *, #590, .F. ) ;
#220 = DIRECTION ( 'NONE',  ( 1.000000000000000000, 0.000000000000000000, 0.000000000000000000 ) ) ;
#221 = FACE_OUTER_BOUND ( 'NONE', #556, .T. ) ;
#222 = ORIENTED_EDGE ( 'NONE', *, *, #360, .T. ) ;
#223 = APPROVAL ( #708, '未指定' ) ;
#224 = APPROVAL_DATE_TIME ( #180, #66 ) ;
#225 = AXIS2_PLACEMENT_3D ( 'NONE', #690, #158, #761 ) ;
#226 = LINE ( 'NONE', #472, #17 ) ;
#227 = ORIENTED_EDGE ( 'NONE', *, *, #130, .T. ) ;
#228 = EDGE_CURVE ( 'NONE', #46, #631, #452, .T. ) ;
#229 = PERSON_AND_ORGANIZATION ( #739, #334 ) ;
#230 = CARTESIAN_POINT ( 'NONE',  ( 10.00000000000000355, -10.00000000000000000, 17.50000000000000000 ) ) ;
#231 = VERTEX_POINT ( 'NONE', #379 ) ;
#232 = CARTESIAN_POINT ( 'NONE',  ( 0.000000000000000000, 0.000000000000000000, 0.000000000000000000 ) ) ;
#233 = CARTESIAN_POINT ( 'NONE',  ( 19.99999999999999289, 0.000000000000000000, 25.00000000000000000 ) ) ;
#234 = EDGE_LOOP ( 'NONE', ( #404, #660, #65, #617 ) ) ;
#235 = AXIS2_PLACEMENT_3D ( 'NONE', #545, #485, #190 ) ;
#236 = SECURITY_CLASSIFICATION_LEVEL ( 'unclassified' ) ;
#237 = PLANE ( 'NONE',  #756 ) ;
#238 = EDGE_CURVE ( 'NONE', #578, #582, #575, .T. ) ;
#239 = CIRCLE ( 'NONE', #499, 7.499999999999989342 ) ;
#240 = ORIENTED_EDGE ( 'NONE', *, *, #161, .T. ) ;
#241 = AXIS2_PLACEMENT_3D ( 'NONE', #260, #726, #555 ) ;
#242 = PLANE ( 'NONE',  #629 ) ;
#243 = VERTEX_POINT ( 'NONE', #504 ) ;
#244 = FACE_OUTER_BOUND ( 'NONE', #129, .T. ) ;
#245 = DIRECTION ( 'NONE',  ( 1.000000000000000000, 0.000000000000000000, 0.000000000000000000 ) ) ;
#246 = DIRECTION ( 'NONE',  ( 1.040834085586084257E-15, 0.000000000000000000, 1.000000000000000000 ) ) ;
#247 = FACE_OUTER_BOUND ( 'NONE', #763, .T. ) ;
#248 = CIRCLE ( 'NONE', #465, 5.000000000000000888 ) ;
#249 = EDGE_LOOP ( 'NONE', ( #519, #707 ) ) ;
#250 = PLANE ( 'NONE',  #324 ) ;
#251 = VECTOR ( 'NONE', #88, 1000.000000000000000 ) ;
#252 = DIRECTION ( 'NONE',  ( -0.000000000000000000, -0.000000000000000000, -1.000000000000000000 ) ) ;
#253 = VERTEX_POINT ( 'NONE', #758 ) ;
#254 = DIRECTION ( 'NONE',  ( 0.000000000000000000, 0.000000000000000000, 1.000000000000000000 ) ) ;
#255 = DIRECTION ( 'NONE',  ( -0.000000000000000000, 1.000000000000000000, -0.000000000000000000 ) ) ;
#256 = DIRECTION ( 'NONE',  ( 1.000000000000000000, 0.000000000000000000, 0.000000000000000000 ) ) ;
#257 = VECTOR ( 'NONE', #255, 1000.000000000000000 ) ;
#258 = EDGE_CURVE ( 'NONE', #436, #548, #638, .T. ) ;
#259 = PRODUCT_RELATED_PRODUCT_CATEGORY ( 'detail', '', ( #568 ) ) ;
#260 = CARTESIAN_POINT ( 'NONE',  ( -36.70937124699698018, 21.84998999199201819, 25.00000000000000000 ) ) ;
#261 = EDGE_CURVE ( 'NONE', #582, #253, #218, .T. ) ;
#262 = ORIENTED_EDGE ( 'NONE', *, *, #517, .T. ) ;
#263 = VECTOR ( 'NONE', #82, 1000.000000000000000 ) ;
#264 = LOCAL_TIME ( 21, 47, 36.00000000000000000, #405 ) ;
#265 = DIRECTION ( 'NONE',  ( 0.000000000000000000, 0.000000000000000000, 1.000000000000000000 ) ) ;
#266 = DIRECTION ( 'NONE',  ( -0.000000000000000000, 0.000000000000000000, 1.000000000000000000 ) ) ;
#267 = ORIENTED_EDGE ( 'NONE', *, *, #441, .F. ) ;
#268 = AXIS2_PLACEMENT_3D ( 'NONE', #509, #155, #754 ) ;
#269 = DIRECTION ( 'NONE',  ( 1.000000000000000000, 0.000000000000000000, 0.000000000000000000 ) ) ;
#270 = CARTESIAN_POINT ( 'NONE',  ( 10.00000000000000355, -10.00000000000000000, 17.50000000000000000 ) ) ;
#271 = ORIENTED_EDGE ( 'NONE', *, *, #164, .F. ) ;
#272 = EDGE_CURVE ( 'NONE', #460, #514, #749, .T. ) ;
#273 = DIRECTION ( 'NONE',  ( 1.000000000000000000, 0.000000000000000000, 0.000000000000000000 ) ) ;
#274 = CARTESIAN_POINT ( 'NONE',  ( -30.85468562349849364, 26.53748999199201108, 0.000000000000000000 ) ) ;
#275 = EDGE_LOOP ( 'NONE', ( #721, #760, #676, #74 ) ) ;
#276 = ADVANCED_BREP_SHAPE_REPRESENTATION ( 'stamp_slider_\X2\9ed88ba4\X0\_sldprt', ( #724, #171 ), #746 ) ;
#277 = CIRCLE ( 'NONE', #343, 7.499999999999989342 ) ;
#278 = CYLINDRICAL_SURFACE ( 'NONE', #680, 7.499999999999989342 ) ;
#279 = DIRECTION ( 'NONE',  ( -1.000000000000000000, 0.000000000000000000, -0.000000000000000000 ) ) ;
#280 = ORIENTED_EDGE ( 'NONE', *, *, #656, .F. ) ;
#281 = APPROVAL_DATE_TIME ( #599, #223 ) ;
#282 = ADVANCED_FACE ( 'NONE', ( #625, #571, #764 ), #463, .F. ) ;
#283 = CARTESIAN_POINT ( 'NONE',  ( 0.000000000000000000, -9.374999999999987566, 25.00000000000000000 ) ) ;
#284 = EDGE_CURVE ( 'NONE', #231, #717, #53, .T. ) ;
#285 = ORIENTED_EDGE ( 'NONE', *, *, #674, .T. ) ;
#286 =( NAMED_UNIT ( * ) PLANE_ANGLE_UNIT ( ) SI_UNIT ( $, .RADIAN. ) );
#287 = DIRECTION ( 'NONE',  ( -0.000000000000000000, -0.000000000000000000, -1.000000000000000000 ) ) ;
#288 = EDGE_LOOP ( 'NONE', ( #569, #647 ) ) ;
#289 = ADVANCED_FACE ( 'NONE', ( #167 ), #446, .F. ) ;
#290 = CIRCLE ( 'NONE', #133, 5.000000000000001776 ) ;
#291 = FACE_OUTER_BOUND ( 'NONE', #502, .T. ) ;
#292 = LOCAL_TIME ( 21, 47, 36.00000000000000000, #462 ) ;
#293 = EDGE_LOOP ( 'NONE', ( #327, #24, #117, #536 ) ) ;
#294 = DIRECTION ( 'NONE',  ( 0.000000000000000000, 0.000000000000000000, 1.000000000000000000 ) ) ;
#295 = CIRCLE ( 'NONE', #174, 10.00000000000000000 ) ;
#296 = DIRECTION ( 'NONE',  ( 1.000000000000000000, 0.000000000000000000, -1.387778780781445676E-16 ) ) ;
#297 = ORIENTED_EDGE ( 'NONE', *, *, #483, .F. ) ;
#298 = CALENDAR_DATE ( 2026, 19, 6 ) ;
#299 = CARTESIAN_POINT ( 'NONE',  ( -38.35468562349848298, 26.53748999199201108, 25.00000000000000000 ) ) ;
#300 = ORIENTED_EDGE ( 'NONE', *, *, #656, .T. ) ;
#301 = LINE ( 'NONE', #350, #64 ) ;
#302 = VECTOR ( 'NONE', #523, 1000.000000000000000 ) ;
#303 = ORIENTED_EDGE ( 'NONE', *, *, #741, .F. ) ;
#304 = CIRCLE ( 'NONE', #601, 10.00000000000000000 ) ;
#305 = CARTESIAN_POINT ( 'NONE',  ( 0.000000000000000000, -10.00000000000000000, 25.00000000000000000 ) ) ;
#306 = DIRECTION ( 'NONE',  ( -1.387778780781445676E-16, -0.000000000000000000, -1.000000000000000000 ) ) ;
#307 = VECTOR ( 'NONE', #159, 1000.000000000000000 ) ;
#308 = DIRECTION ( 'NONE',  ( -0.000000000000000000, -0.000000000000000000, 1.000000000000000000 ) ) ;
#309 = DIRECTION ( 'NONE',  ( -0.000000000000000000, -0.000000000000000000, -1.000000000000000000 ) ) ;
#310 = EDGE_CURVE ( 'NONE', #243, #160, #518, .T. ) ;
#311 = LINE ( 'NONE', #87, #113 ) ;
#312 = CYLINDRICAL_SURFACE ( 'NONE', #653, 7.499999999999989342 ) ;
#313 = AXIS2_PLACEMENT_3D ( 'NONE', #484, #612, #246 ) ;
#314 = ORIENTED_EDGE ( 'NONE', *, *, #573, .F. ) ;
#315 = DIRECTION ( 'NONE',  ( 1.000000000000000000, 0.000000000000000000, 0.000000000000000000 ) ) ;
#316 = DIRECTION ( 'NONE',  ( 0.000000000000000000, 0.000000000000000000, 1.000000000000000000 ) ) ;
#317 = ORIENTED_EDGE ( 'NONE', *, *, #258, .F. ) ;
#318 = EDGE_CURVE ( 'NONE', #727, #11, #414, .T. ) ;
#319 = DIRECTION ( 'NONE',  ( 0.6249999999999996669, -0.7806247497997998996, 0.000000000000000000 ) ) ;
#320 = CARTESIAN_POINT ( 'NONE',  ( 19.99999999999999289, 0.000000000000000000, 15.00000000000000178 ) ) ;
#321 = LINE ( 'NONE', #150, #562 ) ;
#322 = FACE_OUTER_BOUND ( 'NONE', #380, .T. ) ;
#323 = ORIENTED_EDGE ( 'NONE', *, *, #741, .T. ) ;
#324 = AXIS2_PLACEMENT_3D ( 'NONE', #677, #722, #740 ) ;
#325 = FACE_OUTER_BOUND ( 'NONE', #572, .T. ) ;
#326 = DIRECTION ( 'NONE',  ( 0.000000000000000000, 0.000000000000000000, 1.000000000000000000 ) ) ;
#327 = ORIENTED_EDGE ( 'NONE', *, *, #470, .F. ) ;
#328 = CARTESIAN_POINT ( 'NONE',  ( -5.854685623498494529, -4.687499999999992006, 0.000000000000000000 ) ) ;
#329 = DIRECTION ( 'NONE',  ( 0.000000000000000000, 0.000000000000000000, -1.000000000000000000 ) ) ;
#330 = VERTEX_POINT ( 'NONE', #283 ) ;
#331 = DIRECTION ( 'NONE',  ( -1.387778780781445676E-16, -0.000000000000000000, -1.000000000000000000 ) ) ;
#332 = CARTESIAN_POINT ( 'NONE',  ( 10.00000000000000355, 0.000000000000000000, 17.50000000000000000 ) ) ;
#333 = EDGE_LOOP ( 'NONE', ( #359, #693, #482, #524 ) ) ;
#334 = ORGANIZATION ( '未指定', '未指定', '' ) ;
#335 = CARTESIAN_POINT ( 'NONE',  ( -25.85468562349849009, 26.53748999199201108, 25.00000000000000000 ) ) ;
#336 = DIRECTION ( 'NONE',  ( 0.000000000000000000, -1.000000000000000000, 0.000000000000000000 ) ) ;
#337 = ORIENTED_EDGE ( 'NONE', *, *, #310, .T. ) ;
#338 = DIRECTION ( 'NONE',  ( 0.000000000000000000, 0.000000000000000000, -1.000000000000000000 ) ) ;
#339 = ORIENTED_EDGE ( 'NONE', *, *, #539, .T. ) ;
#340 =( LENGTH_UNIT ( ) NAMED_UNIT ( * ) SI_UNIT ( .MILLI., .METRE. ) );
#341 = FACE_BOUND ( 'NONE', #636, .T. ) ;
#342 = ORIENTED_EDGE ( 'NONE', *, *, #451, .F. ) ;
#343 = AXIS2_PLACEMENT_3D ( 'NONE', #685, #105, #162 ) ;
#344 = CARTESIAN_POINT ( 'NONE',  ( 19.99999999999999289, 26.53748999199201108, 15.00000000000000178 ) ) ;
#345 = ORIENTED_EDGE ( 'NONE', *, *, #590, .T. ) ;
#346 = EDGE_CURVE ( 'NONE', #529, #172, #211, .T. ) ;
#347 = ADVANCED_FACE ( 'NONE', ( #641 ), #114, .T. ) ;
#348 = CALENDAR_DATE ( 2026, 19, 6 ) ;
#349 = AXIS2_PLACEMENT_3D ( 'NONE', #705, #96, #561 ) ;
#350 = CARTESIAN_POINT ( 'NONE',  ( 10.00000000000000355, -10.00000000000000000, 17.50000000000000000 ) ) ;
#351 = ORIENTED_EDGE ( 'NONE', *, *, #512, .F. ) ;
#352 = ADVANCED_FACE ( 'NONE', ( #581, #322 ), #58, .F. ) ;
#353 = CARTESIAN_POINT ( 'NONE',  ( 10.00000000000000355, -10.00000000000000000, 7.500000000000001776 ) ) ;
#354 = ORIENTED_EDGE ( 'NONE', *, *, #76, .T. ) ;
#355 = CC_DESIGN_PERSON_AND_ORGANIZATION_ASSIGNMENT ( #658, #711, ( #568 ) ) ;
#356 = DIRECTION ( 'NONE',  ( 1.000000000000000000, 0.000000000000000000, 0.000000000000000000 ) ) ;
#357 = VECTOR ( 'NONE', #608, 1000.000000000000000 ) ;
#358 = CC_DESIGN_APPROVAL ( #223, ( #13 ) ) ;
#359 = ORIENTED_EDGE ( 'NONE', *, *, #318, .F. ) ;
#360 = EDGE_CURVE ( 'NONE', #548, #582, #40, .T. ) ;
#361 = CARTESIAN_POINT ( 'NONE',  ( -36.70937124699698018, 21.84998999199201819, 25.00000000000000000 ) ) ;
#362 = EDGE_CURVE ( 'NONE', #408, #492, #295, .T. ) ;
#363 = CARTESIAN_POINT ( 'NONE',  ( -30.85468562349849364, 26.53748999199201108, 0.000000000000000000 ) ) ;
#364 = VERTEX_POINT ( 'NONE', #233 ) ;
#365 = CARTESIAN_POINT ( 'NONE',  ( 29.99999999999999645, 0.000000000000000000, 9.999999999999998224 ) ) ;
#366 = DIRECTION ( 'NONE',  ( 0.000000000000000000, 0.000000000000000000, 1.000000000000000000 ) ) ;
#367 = ORIENTED_EDGE ( 'NONE', *, *, #448, .T. ) ;
#368 = EDGE_CURVE ( 'NONE', #421, #377, #226, .T. ) ;
#369 = CARTESIAN_POINT ( 'NONE',  ( -25.00000000000000355, 31.22498999199200043, 25.00000000000000000 ) ) ;
#370 = CARTESIAN_POINT ( 'NONE',  ( 20.00000000000000355, -10.00000000000000000, 17.50000000000000000 ) ) ;
#371 = VECTOR ( 'NONE', #52, 1000.000000000000000 ) ;
#372 = ORIENTED_EDGE ( 'NONE', *, *, #674, .F. ) ;
#373 = ADVANCED_FACE ( 'NONE', ( #10 ), #237, .F. ) ;
#374 = ADVANCED_FACE ( 'NONE', ( #291, #341, #596 ), #5, .T. ) ;
#375 = DIRECTION ( 'NONE',  ( -0.000000000000000000, -0.000000000000000000, -1.000000000000000000 ) ) ;
#376 = LINE ( 'NONE', #141, #733 ) ;
#377 = VERTEX_POINT ( 'NONE', #411 ) ;
#378 = LINE ( 'NONE', #623, #145 ) ;
#379 = CARTESIAN_POINT ( 'NONE',  ( -0.8546856234984924194, -4.687499999999992006, 0.000000000000000000 ) ) ;
#380 = EDGE_LOOP ( 'NONE', ( #314, #734, #280, #183, #710, #209 ) ) ;
#381 = CARTESIAN_POINT ( 'NONE',  ( 29.99999999999999645, 0.000000000000000000, 0.000000000000000000 ) ) ;
#382 = EDGE_CURVE ( 'NONE', #231, #59, #551, .T. ) ;
#383 = DIRECTION ( 'NONE',  ( -0.000000000000000000, 1.000000000000000000, 0.000000000000000000 ) ) ;
#384 = EDGE_LOOP ( 'NONE', ( #457, #372, #50, #212 ) ) ;
#385 = DIRECTION ( 'NONE',  ( 1.000000000000000000, 0.000000000000000000, 0.000000000000000000 ) ) ;
#386 = CARTESIAN_POINT ( 'NONE',  ( 20.00000000000000355, -10.00000000000000000, 7.500000000000001776 ) ) ;
#387 = VERTEX_POINT ( 'NONE', #650 ) ;
#388 = LINE ( 'NONE', #580, #371 ) ;
#389 = DIRECTION ( 'NONE',  ( 1.000000000000000000, 0.000000000000000000, -0.000000000000000000 ) ) ;
#390 = ORIENTED_EDGE ( 'NONE', *, *, #433, .F. ) ;
#391 = CARTESIAN_POINT ( 'NONE',  ( 10.00000000000000355, -10.00000000000000000, 7.500000000000001776 ) ) ;
#392 = DIRECTION ( 'NONE',  ( 1.000000000000000000, 0.000000000000000000, 0.000000000000000000 ) ) ;
#393 = ORIENTED_EDGE ( 'NONE', *, *, #346, .F. ) ;
#394 = ADVANCED_FACE ( 'NONE', ( #659 ), #242, .T. ) ;
#395 = VECTOR ( 'NONE', #725, 1000.000000000000000 ) ;
#396 = LOCAL_TIME ( 21, 47, 36.00000000000000000, #583 ) ;
#397 =( NAMED_UNIT ( * ) SI_UNIT ( $, .STERADIAN. ) SOLID_ANGLE_UNIT ( ) );
#398 = CARTESIAN_POINT ( 'NONE',  ( 3.479852726768797755, 0.000000000000000000, 0.000000000000000000 ) ) ;
#399 = ORIENTED_EDGE ( 'NONE', *, *, #422, .T. ) ;
#400 = VECTOR ( 'NONE', #185, 1000.000000000000000 ) ;
#401 = PERSON_AND_ORGANIZATION ( #739, #334 ) ;
#402 = CARTESIAN_POINT ( 'NONE',  ( 20.00000000000000355, 0.000000000000000000, 17.50000000000000000 ) ) ;
#403 = CIRCLE ( 'NONE', #621, 7.499999999999989342 ) ;
#404 = ORIENTED_EDGE ( 'NONE', *, *, #506, .F. ) ;
#405 = COORDINATED_UNIVERSAL_TIME_OFFSET ( 8, 0, .AHEAD. ) ;
#406 = DIRECTION ( 'NONE',  ( -0.000000000000000000, -1.000000000000000000, -0.000000000000000000 ) ) ;
#407 = CC_DESIGN_DATE_AND_TIME_ASSIGNMENT ( #652, #534, ( #605 ) ) ;
#408 = VERTEX_POINT ( 'NONE', #416 ) ;
#409 = DATE_AND_TIME ( #595, #134 ) ;
#410 = VECTOR ( 'NONE', #143, 1000.000000000000114 ) ;
#411 = CARTESIAN_POINT ( 'NONE',  ( -11.70937124699698906, -9.374999999999985789, 0.000000000000000000 ) ) ;
#412 = ORIENTED_EDGE ( 'NONE', *, *, #261, .T. ) ;
#413 = CIRCLE ( 'NONE', #694, 10.00000000000000000 ) ;
#414 = CIRCLE ( 'NONE', #104, 5.000000000000000888 ) ;
#415 = APPROVAL_STATUS ( 'not_yet_approved' ) ;
#416 = CARTESIAN_POINT ( 'NONE',  ( 3.479852726768797755, -9.999999999999996447, 0.000000000000000000 ) ) ;
#417 = VECTOR ( 'NONE', #49, 1000.000000000000000 ) ;
#418 = VERTEX_POINT ( 'NONE', #124 ) ;
#419 = EDGE_CURVE ( 'NONE', #142, #408, #540, .T. ) ;
#420 = LINE ( 'NONE', #437, #263 ) ;
#421 = VERTEX_POINT ( 'NONE', #61 ) ;
#422 = EDGE_CURVE ( 'NONE', #172, #578, #14, .T. ) ;
#423 = EDGE_CURVE ( 'NONE', #94, #453, #128, .T. ) ;
#424 = CARTESIAN_POINT ( 'NONE',  ( -5.854685623498494529, -4.687499999999992006, 0.000000000000000000 ) ) ;
#425 = CIRCLE ( 'NONE', #643, 10.00000000000000000 ) ;
#426 = APPROVAL_PERSON_ORGANIZATION ( #67, #66, #648 ) ;
#427 = CARTESIAN_POINT ( 'NONE',  ( 20.00000000000000355, 0.000000000000000000, 7.500000000000001776 ) ) ;
#428 = ORIENTED_EDGE ( 'NONE', *, *, #649, .F. ) ;
#429 = CARTESIAN_POINT ( 'NONE',  ( -30.85468562349849364, 26.53748999199201108, 25.00000000000000000 ) ) ;
#430 = DIRECTION ( 'NONE',  ( 0.000000000000000000, 0.000000000000000000, 1.000000000000000000 ) ) ;
#431 = ORIENTED_EDGE ( 'NONE', *, *, #346, .T. ) ;
#432 = CYLINDRICAL_SURFACE ( 'NONE', #579, 5.000000000000000888 ) ;
#433 = EDGE_CURVE ( 'NONE', #548, #69, #301, .T. ) ;
#434 = EDGE_CURVE ( 'NONE', #631, #460, #425, .T. ) ;
#435 = CARTESIAN_POINT ( 'NONE',  ( 0.000000000000000000, 0.000000000000000000, 25.00000000000000000 ) ) ;
#436 = VERTEX_POINT ( 'NONE', #353 ) ;
#437 = CARTESIAN_POINT ( 'NONE',  ( 10.00000000000000355, -10.00000000000000000, 7.500000000000001776 ) ) ;
#438 = FACE_OUTER_BOUND ( 'NONE', #333, .T. ) ;
#439 = VECTOR ( 'NONE', #745, 1000.000000000000000 ) ;
#440 = EDGE_LOOP ( 'NONE', ( #399, #303, #197, #431 ) ) ;
#441 = EDGE_CURVE ( 'NONE', #377, #492, #98, .T. ) ;
#442 = CARTESIAN_POINT ( 'NONE',  ( 19.99999999999998934, -10.00000000000000000, 0.000000000000000000 ) ) ;
#443 = CARTESIAN_POINT ( 'NONE',  ( -5.854685623498494529, -4.687499999999992006, 25.00000000000000000 ) ) ;
#444 = ADVANCED_FACE ( 'NONE', ( #170 ), #122, .T. ) ;
#445 = DIRECTION ( 'NONE',  ( -1.000000000000000000, -0.000000000000000000, -0.000000000000000000 ) ) ;
#446 = PLANE ( 'NONE',  #268 ) ;
#447 = ORIENTED_EDGE ( 'NONE', *, *, #368, .F. ) ;
#448 = EDGE_CURVE ( 'NONE', #253, #172, #646, .T. ) ;
#449 = CYLINDRICAL_SURFACE ( 'NONE', #225, 5.000000000000001776 ) ;
#450 = PRODUCT_DEFINITION_SHAPE ( 'NONE', 'NONE',  #85 ) ;
#451 = EDGE_CURVE ( 'NONE', #72, #468, #119, .T. ) ;
#452 = LINE ( 'NONE', #567, #307 ) ;
#453 = VERTEX_POINT ( 'NONE', #131 ) ;
#454 = VECTOR ( 'NONE', #319, 1000.000000000000114 ) ;
#455 = DIRECTION ( 'NONE',  ( -0.7806247497997998996, -0.6250000000000000000, 0.000000000000000000 ) ) ;
#456 = DIRECTION ( 'NONE',  ( 1.000000000000000000, 0.000000000000000000, 0.000000000000000000 ) ) ;
#457 = ORIENTED_EDGE ( 'NONE', *, *, #423, .F. ) ;
#458 = CARTESIAN_POINT ( 'NONE',  ( 0.000000000000000000, -10.00000000000000000, 0.000000000000000000 ) ) ;
#459 = CARTESIAN_POINT ( 'NONE',  ( -0.8546856234984924194, -4.687499999999992006, 0.000000000000000000 ) ) ;
#460 = VERTEX_POINT ( 'NONE', #139 ) ;
#461 = DESIGN_CONTEXT ( 'detailed design', #611, 'design' ) ;
#462 = COORDINATED_UNIVERSAL_TIME_OFFSET ( 8, 0, .AHEAD. ) ;
#463 = PLANE ( 'NONE',  #91 ) ;
#464 = ORIENTED_EDGE ( 'NONE', *, *, #713, .F. ) ;
#465 = AXIS2_PLACEMENT_3D ( 'NONE', #429, #673, #385 ) ;
#466 = PERSON_AND_ORGANIZATION ( #739, #334 ) ;
#467 = DIRECTION ( 'NONE',  ( -0.000000000000000000, 1.000000000000000000, 0.000000000000000000 ) ) ;
#468 = VERTEX_POINT ( 'NONE', #369 ) ;
#469 = ADVANCED_FACE ( 'NONE', ( #244 ), #490, .T. ) ;
#470 = EDGE_CURVE ( 'NONE', #59, #231, #290, .T. ) ;
#471 = DIRECTION ( 'NONE',  ( -0.000000000000000000, -0.000000000000000000, 1.000000000000000000 ) ) ;
#472 = CARTESIAN_POINT ( 'NONE',  ( -11.70937124699698906, -9.374999999999985789, 25.00000000000000000 ) ) ;
#473 = ORIENTED_EDGE ( 'NONE', *, *, #164, .T. ) ;
#474 = PERSON_AND_ORGANIZATION_ROLE ( 'creator' ) ;
#475 = DIRECTION ( 'NONE',  ( 1.000000000000000000, 0.000000000000000000, 0.000000000000000000 ) ) ;
#476 = CIRCLE ( 'NONE', #235, 7.499999999999989342 ) ;
#477 = VERTEX_POINT ( 'NONE', #361 ) ;
#478 = VECTOR ( 'NONE', #56, 1000.000000000000000 ) ;
#479 = CARTESIAN_POINT ( 'NONE',  ( 29.99999999999999645, -10.00000000000000000, 0.000000000000000000 ) ) ;
#480 = ORIENTED_EDGE ( 'NONE', *, *, #111, .F. ) ;
#481 = DIRECTION ( 'NONE',  ( 1.000000000000000000, 0.000000000000000000, 0.000000000000000000 ) ) ;
#482 = ORIENTED_EDGE ( 'NONE', *, *, #585, .T. ) ;
#483 = EDGE_CURVE ( 'NONE', #421, #330, #604, .T. ) ;
#484 = CARTESIAN_POINT ( 'NONE',  ( 19.99999999999999289, -9.999999999999998224, 15.00000000000000178 ) ) ;
#485 = DIRECTION ( 'NONE',  ( 0.000000000000000000, 0.000000000000000000, 1.000000000000000000 ) ) ;
#486 = CARTESIAN_POINT ( 'NONE',  ( 0.000000000000000000, -9.374999999999987566, 25.00000000000000000 ) ) ;
#487 = VECTOR ( 'NONE', #287, 1000.000000000000000 ) ;
#488 = CARTESIAN_POINT ( 'NONE',  ( 3.479852726768797755, -10.00000000000000000, 25.00000000000000000 ) ) ;
#489 = ORIENTED_EDGE ( 'NONE', *, *, #382, .F. ) ;
#490 = CYLINDRICAL_SURFACE ( 'NONE', #157, 10.00000000000000000 ) ;
#491 = DIRECTION ( 'NONE',  ( 1.000000000000000000, 0.000000000000000000, 0.000000000000000000 ) ) ;
#492 = VERTEX_POINT ( 'NONE', #187 ) ;
#493 = SHAPE_DEFINITION_REPRESENTATION ( #450, #276 ) ;
#494 = FACE_OUTER_BOUND ( 'NONE', #610, .T. ) ;
#495 = DIRECTION ( 'NONE',  ( 0.6249999999999996669, -0.7806247497997998996, 0.000000000000000000 ) ) ;
#496 = EDGE_LOOP ( 'NONE', ( #137, #6, #342, #354 ) ) ;
#497 = CARTESIAN_POINT ( 'NONE',  ( 19.99999999999999289, 26.53748999199201108, 25.00000000000000000 ) ) ;
#498 = CARTESIAN_POINT ( 'NONE',  ( 3.479852726768797755, 0.000000000000000000, 25.00000000000000000 ) ) ;
#499 = AXIS2_PLACEMENT_3D ( 'NONE', #640, #748, #700 ) ;
#500 = EDGE_CURVE ( 'NONE', #477, #421, #146, .T. ) ;
#501 = LOCAL_TIME ( 21, 47, 36.00000000000000000, #173 ) ;
#502 = EDGE_LOOP ( 'NONE', ( #81, #702, #42, #522, #179, #542, #285, #216, #9 ) ) ;
#503 = CARTESIAN_POINT ( 'NONE',  ( 0.000000000000000000, 0.000000000000000000, 0.000000000000000000 ) ) ;
#504 = CARTESIAN_POINT ( 'NONE',  ( 30.00000000000000000, 0.000000000000000000, 15.00000000000000000 ) ) ;
#505 = EDGE_LOOP ( 'NONE', ( #227, #447, #622, #651 ) ) ;
#506 = EDGE_CURVE ( 'NONE', #727, #103, #546, .T. ) ;
#507 = ADVANCED_FACE ( 'NONE', ( #135 ), #432, .F. ) ;
#508 = DIRECTION ( 'NONE',  ( 1.000000000000000000, 0.000000000000000000, 0.000000000000000000 ) ) ;
#509 = CARTESIAN_POINT ( 'NONE',  ( 10.00000000000000355, -10.00000000000000000, 7.500000000000001776 ) ) ;
#510 = ORIENTED_EDGE ( 'NONE', *, *, #585, .F. ) ;
#511 = DIRECTION ( 'NONE',  ( 0.6249999999999998890, -0.7806247497997997886, 0.000000000000000000 ) ) ;
#512 = EDGE_CURVE ( 'NONE', #492, #330, #26, .T. ) ;
#513 = DIRECTION ( 'NONE',  ( 0.000000000000000000, 0.000000000000000000, 1.000000000000000000 ) ) ;
#514 = VERTEX_POINT ( 'NONE', #365 ) ;
#515 = AXIS2_PLACEMENT_3D ( 'NONE', #63, #8, #532 ) ;
#516 = DIRECTION ( 'NONE',  ( 0.000000000000000000, 1.000000000000000000, 0.000000000000000000 ) ) ;
#517 = EDGE_CURVE ( 'NONE', #69, #529, #311, .T. ) ;
#518 = LINE ( 'NONE', #762, #530 ) ;
#519 = ORIENTED_EDGE ( 'NONE', *, *, #57, .F. ) ;
#520 = APPROVAL_ROLE ( '' ) ;
#521 = CARTESIAN_POINT ( 'NONE',  ( 0.000000000000000000, 0.000000000000000000, 0.000000000000000000 ) ) ;
#522 = ORIENTED_EDGE ( 'NONE', *, *, #751, .T. ) ;
#523 = DIRECTION ( 'NONE',  ( -1.000000000000000000, -0.000000000000000000, -0.000000000000000000 ) ) ;
#524 = ORIENTED_EDGE ( 'NONE', *, *, #752, .F. ) ;
#525 = ADVANCED_FACE ( 'NONE', ( #494 ), #250, .F. ) ;
#526 = AXIS2_PLACEMENT_3D ( 'NONE', #654, #600, #528 ) ;
#527 = APPROVAL_STATUS ( 'not_yet_approved' ) ;
#528 = DIRECTION ( 'NONE',  ( 1.000000000000000000, 0.000000000000000000, 0.000000000000000000 ) ) ;
#529 = VERTEX_POINT ( 'NONE', #199 ) ;
#530 = VECTOR ( 'NONE', #628, 1000.000000000000000 ) ;
#531 = EDGE_CURVE ( 'NONE', #160, #418, #729, .T. ) ;
#532 = DIRECTION ( 'NONE',  ( 1.000000000000000000, 0.000000000000000000, 0.000000000000000000 ) ) ;
#533 = ORIENTED_EDGE ( 'NONE', *, *, #360, .F. ) ;
#534 = DATE_TIME_ROLE ( 'classification_date' ) ;
#535 = DIRECTION ( 'NONE',  ( 1.000000000000000000, 0.000000000000000000, -0.000000000000000000 ) ) ;
#536 = ORIENTED_EDGE ( 'NONE', *, *, #284, .F. ) ;
#537 = CIRCLE ( 'NONE', #642, 10.00000000000000000 ) ;
#538 = VECTOR ( 'NONE', #22, 1000.000000000000000 ) ;
#539 = EDGE_CURVE ( 'NONE', #529, #436, #420, .T. ) ;
#540 = LINE ( 'NONE', #662, #202 ) ;
#541 = CC_DESIGN_DATE_AND_TIME_ASSIGNMENT ( #409, #7, ( #85 ) ) ;
#542 = ORIENTED_EDGE ( 'NONE', *, *, #451, .T. ) ;
#543 = CIRCLE ( 'NONE', #55, 5.000000000000001776 ) ;
#544 = CARTESIAN_POINT ( 'NONE',  ( 10.00000000000000355, 0.000000000000000000, 7.500000000000001776 ) ) ;
#545 = CARTESIAN_POINT ( 'NONE',  ( -30.85468562349849364, 26.53748999199201108, 0.000000000000000000 ) ) ;
#546 = LINE ( 'NONE', #35, #357 ) ;
#547 = CARTESIAN_POINT ( 'NONE',  ( 20.00000000000000355, -10.00000000000000000, 17.50000000000000000 ) ) ;
#548 = VERTEX_POINT ( 'NONE', #664 ) ;
#549 = CC_DESIGN_PERSON_AND_ORGANIZATION_ASSIGNMENT ( #466, #70, ( #13 ) ) ;
#550 = CARTESIAN_POINT ( 'NONE',  ( -25.00000000000000355, 31.22498999199200043, 0.000000000000000000 ) ) ;
#551 = CIRCLE ( 'NONE', #515, 5.000000000000001776 ) ;
#552 = CARTESIAN_POINT ( 'NONE',  ( -30.85468562349849364, 26.53748999199201108, 25.00000000000000000 ) ) ;
#553 = EDGE_CURVE ( 'NONE', #188, #679, #681, .T. ) ;
#554 = DIRECTION ( 'NONE',  ( 0.000000000000000000, 0.000000000000000000, 1.000000000000000000 ) ) ;
#555 = DIRECTION ( 'NONE',  ( -0.6249999999999996669, 0.7806247497997998996, 0.000000000000000000 ) ) ;
#556 = EDGE_LOOP ( 'NONE', ( #665, #533, #317, #323 ) ) ;
#557 = CARTESIAN_POINT ( 'NONE',  ( -10.85468562349849542, -4.687499999999991118, 0.000000000000000000 ) ) ;
#558 = FACE_OUTER_BOUND ( 'NONE', #384, .T. ) ;
#559 = FACE_OUTER_BOUND ( 'NONE', #165, .T. ) ;
#560 = EDGE_CURVE ( 'NONE', #59, #387, #736, .T. ) ;
#561 = DIRECTION ( 'NONE',  ( 0.000000000000000000, -0.000000000000000000, 1.000000000000000000 ) ) ;
#562 = VECTOR ( 'NONE', #445, 1000.000000000000000 ) ;
#563 = EDGE_CURVE ( 'NONE', #589, #103, #86, .T. ) ;
#564 = APPROVAL_PERSON_ORGANIZATION ( #184, #669, #520 ) ;
#565 = VERTEX_POINT ( 'NONE', #189 ) ;
#566 = DIRECTION ( 'NONE',  ( -1.000000000000000000, -0.000000000000000000, -0.000000000000000000 ) ) ;
#567 = CARTESIAN_POINT ( 'NONE',  ( 19.99999999999999645, -10.00000000000000000, 0.000000000000000000 ) ) ;
#568 = PRODUCT ( 'stamp_slider_\X2\9ed88ba4\X0\_sldprt', 'stamp_slider_\X2\9ed88ba4\X0\_sldprt', '', ( #661 ) ) ;
#569 = ORIENTED_EDGE ( 'NONE', *, *, #382, .T. ) ;
#570 = FACE_OUTER_BOUND ( 'NONE', #3, .T. ) ;
#571 = FACE_BOUND ( 'NONE', #288, .T. ) ;
#572 = EDGE_LOOP ( 'NONE', ( #176, #123, #345, #699, #743, #192 ) ) ;
#573 = EDGE_CURVE ( 'NONE', #142, #418, #77, .T. ) ;
#574 = CARTESIAN_POINT ( 'NONE',  ( -35.85468562349849009, 26.53748999199201108, 0.000000000000000000 ) ) ;
#575 = LINE ( 'NONE', #696, #138 ) ;
#576 = CLOSED_SHELL ( 'NONE', ( #21, #730, #634, #154, #102, #27, #598, #374, #282, #624, #507, #394, #352, #635, #373, #525, #196, #289, #347, #444, #469 ) ) ;
#577 = AXIS2_PLACEMENT_3D ( 'NONE', #632, #455, #511 ) ;
#578 = VERTEX_POINT ( 'NONE', #544 ) ;
#579 = AXIS2_PLACEMENT_3D ( 'NONE', #614, #308, #92 ) ;
#580 = CARTESIAN_POINT ( 'NONE',  ( -36.70937124699698018, 21.84998999199201819, 25.00000000000000000 ) ) ;
#581 = FACE_BOUND ( 'NONE', #110, .T. ) ;
#582 = VERTEX_POINT ( 'NONE', #193 ) ;
#583 = COORDINATED_UNIVERSAL_TIME_OFFSET ( 8, 0, .AHEAD. ) ;
#584 = DIRECTION ( 'NONE',  ( 0.000000000000000000, 0.000000000000000000, -1.000000000000000000 ) ) ;
#585 = EDGE_CURVE ( 'NONE', #103, #589, #248, .T. ) ;
#586 = ORIENTED_EDGE ( 'NONE', *, *, #140, .F. ) ;
#587 = COORDINATED_UNIVERSAL_TIME_OFFSET ( 8, 0, .AHEAD. ) ;
#588 = DIRECTION ( 'NONE',  ( -0.000000000000000000, -0.000000000000000000, -1.000000000000000000 ) ) ;
#589 = VERTEX_POINT ( 'NONE', #335 ) ;
#590 = EDGE_CURVE ( 'NONE', #46, #188, #321, .T. ) ;
#591 = AXIS2_PLACEMENT_3D ( 'NONE', #618, #554, #256 ) ;
#592 = APPLICATION_PROTOCOL_DEFINITION ( 'international standard', 'config_control_design', 1994, #48 ) ;
#593 = DIRECTION ( 'NONE',  ( 0.000000000000000000, 0.000000000000000000, 1.000000000000000000 ) ) ;
#594 = ORIENTED_EDGE ( 'NONE', *, *, #422, .F. ) ;
#595 = CALENDAR_DATE ( 2026, 19, 6 ) ;
#596 = FACE_BOUND ( 'NONE', #249, .T. ) ;
#597 = ORIENTED_EDGE ( 'NONE', *, *, #433, .T. ) ;
#598 = ADVANCED_FACE ( 'NONE', ( #687 ), #204, .F. ) ;
#599 = DATE_AND_TIME ( #177, #501 ) ;
#600 = DIRECTION ( 'NONE',  ( 0.000000000000000000, 0.000000000000000000, 1.000000000000000000 ) ) ;
#601 = AXIS2_PLACEMENT_3D ( 'NONE', #320, #84, #430 ) ;
#602 = ORIENTED_EDGE ( 'NONE', *, *, #362, .F. ) ;
#603 = VECTOR ( 'NONE', #609, 1000.000000000000000 ) ;
#604 = CIRCLE ( 'NONE', #591, 7.499999999999993783 ) ;
#605 = SECURITY_CLASSIFICATION ( '', '', #236 ) ;
#606 = CARTESIAN_POINT ( 'NONE',  ( 3.479852726768797755, 0.000000000000000000, 25.00000000000000000 ) ) ;
#607 = LINE ( 'NONE', #78, #83 ) ;
#608 = DIRECTION ( 'NONE',  ( -0.000000000000000000, -0.000000000000000000, 1.000000000000000000 ) ) ;
#609 = DIRECTION ( 'NONE',  ( 1.000000000000000000, 0.000000000000000000, 0.000000000000000000 ) ) ;
#610 = EDGE_LOOP ( 'NONE', ( #412, #586, #390, #222 ) ) ;
#611 = APPLICATION_CONTEXT ( 'configuration controlled 3d designs of mechanical parts and assemblies' ) ;
#612 = DIRECTION ( 'NONE',  ( -0.000000000000000000, -1.000000000000000000, -0.000000000000000000 ) ) ;
#613 = CARTESIAN_POINT ( 'NONE',  ( -35.85468562349849009, 26.53748999199201108, 25.00000000000000000 ) ) ;
#614 = CARTESIAN_POINT ( 'NONE',  ( -30.85468562349849364, 26.53748999199201108, 0.000000000000000000 ) ) ;
#615 = VECTOR ( 'NONE', #331, 1000.000000000000000 ) ;
#616 = CARTESIAN_POINT ( 'NONE',  ( 0.000000000000000000, 0.000000000000000000, 25.00000000000000000 ) ) ;
#617 = ORIENTED_EDGE ( 'NONE', *, *, #563, .T. ) ;
#618 = CARTESIAN_POINT ( 'NONE',  ( -5.854685623498494529, -4.687499999999992006, 25.00000000000000000 ) ) ;
#619 = DIRECTION ( 'NONE',  ( 0.000000000000000000, 1.000000000000000000, 0.000000000000000000 ) ) ;
#620 = VECTOR ( 'NONE', #692, 1000.000000000000000 ) ;
#621 = AXIS2_PLACEMENT_3D ( 'NONE', #701, #326, #456 ) ;
#622 = ORIENTED_EDGE ( 'NONE', *, *, #500, .F. ) ;
#623 = CARTESIAN_POINT ( 'NONE',  ( -25.85468562349849009, 26.53748999199201108, 0.000000000000000000 ) ) ;
#624 = ADVANCED_FACE ( 'NONE', ( #559 ), #112, .F. ) ;
#625 = FACE_BOUND ( 'NONE', #120, .T. ) ;
#626 = ORIENTED_EDGE ( 'NONE', *, *, #698, .T. ) ;
#627 = LINE ( 'NONE', #458, #182 ) ;
#628 = DIRECTION ( 'NONE',  ( -0.000000000000000000, -1.000000000000000000, -0.000000000000000000 ) ) ;
#629 = AXIS2_PLACEMENT_3D ( 'NONE', #479, #296, #720 ) ;
#630 = APPROVAL_PERSON_ORGANIZATION ( #4, #223, #60 ) ;
#631 = VERTEX_POINT ( 'NONE', #442 ) ;
#632 = CARTESIAN_POINT ( 'NONE',  ( -25.00000000000000355, 31.22498999199200043, 25.00000000000000000 ) ) ;
#633 = DIRECTION ( 'NONE',  ( -0.000000000000000000, 1.000000000000000000, -0.000000000000000000 ) ) ;
#634 = ADVANCED_FACE ( 'NONE', ( #570 ), #278, .T. ) ;
#635 = ADVANCED_FACE ( 'NONE', ( #207, #325 ), #637, .T. ) ;
#636 = EDGE_LOOP ( 'NONE', ( #672, #510 ) ) ;
#637 = PLANE ( 'NONE',  #75 ) ;
#638 = LINE ( 'NONE', #270, #45 ) ;
#639 = ORIENTED_EDGE ( 'NONE', *, *, #57, .T. ) ;
#640 = CARTESIAN_POINT ( 'NONE',  ( -30.85468562349849364, 26.53748999199201108, 25.00000000000000000 ) ) ;
#641 = FACE_OUTER_BOUND ( 'NONE', #275, .T. ) ;
#642 = AXIS2_PLACEMENT_3D ( 'NONE', #742, #619, #366 ) ;
#643 = AXIS2_PLACEMENT_3D ( 'NONE', #178, #406, #116 ) ;
#644 = ORIENTED_EDGE ( 'NONE', *, *, #261, .F. ) ;
#645 = CC_DESIGN_SECURITY_CLASSIFICATION ( #605, ( #13 ) ) ;
#646 = LINE ( 'NONE', #402, #657 ) ;
#647 = ORIENTED_EDGE ( 'NONE', *, *, #470, .T. ) ;
#648 = APPROVAL_ROLE ( '' ) ;
#649 = EDGE_CURVE ( 'NONE', #243, #514, #217, .T. ) ;
#650 = CARTESIAN_POINT ( 'NONE',  ( -10.85468562349849542, -4.687499999999991118, 25.00000000000000000 ) ) ;
#651 = ORIENTED_EDGE ( 'NONE', *, *, #728, .T. ) ;
#652 = DATE_AND_TIME ( #298, #264 ) ;
#653 = AXIS2_PLACEMENT_3D ( 'NONE', #552, #252, #36 ) ;
#654 = CARTESIAN_POINT ( 'NONE',  ( -5.854685623498494529, -4.687499999999992006, 0.000000000000000000 ) ) ;
#655 = ORIENTED_EDGE ( 'NONE', *, *, #362, .T. ) ;
#656 = EDGE_CURVE ( 'NONE', #631, #408, #627, .T. ) ;
#657 = VECTOR ( 'NONE', #338, 1000.000000000000000 ) ;
#658 = PERSON_AND_ORGANIZATION ( #739, #334 ) ;
#659 = FACE_OUTER_BOUND ( 'NONE', #54, .T. ) ;
#660 = ORIENTED_EDGE ( 'NONE', *, *, #698, .F. ) ;
#661 = MECHANICAL_CONTEXT ( 'NONE', #48, 'mechanical' ) ;
#662 = CARTESIAN_POINT ( 'NONE',  ( 3.479852726768797755, -10.00000000000000000, 0.000000000000000000 ) ) ;
#663 = ORIENTED_EDGE ( 'NONE', *, *, #553, .F. ) ;
#664 = CARTESIAN_POINT ( 'NONE',  ( 10.00000000000000355, -10.00000000000000000, 17.50000000000000000 ) ) ;
#665 = ORIENTED_EDGE ( 'NONE', *, *, #238, .T. ) ;
#666 = AXIS2_PLACEMENT_3D ( 'NONE', #363, #682, #491 ) ;
#667 = AXIS2_PLACEMENT_3D ( 'NONE', #670, #195, #356 ) ;
#668 = APPROVAL_DATE_TIME ( #735, #669 ) ;
#669 = APPROVAL ( #415, '未指定' ) ;
#670 = CARTESIAN_POINT ( 'NONE',  ( -30.85468562349849364, 26.53748999199201108, 25.00000000000000000 ) ) ;
#671 = CARTESIAN_POINT ( 'NONE',  ( -38.35468562349848298, 26.53748999199201108, 25.00000000000000000 ) ) ;
#672 = ORIENTED_EDGE ( 'NONE', *, *, #563, .F. ) ;
#673 = DIRECTION ( 'NONE',  ( 0.000000000000000000, 0.000000000000000000, 1.000000000000000000 ) ) ;
#674 = EDGE_CURVE ( 'NONE', #468, #94, #239, .T. ) ;
#675 = LINE ( 'NONE', #547, #257 ) ;
#676 = ORIENTED_EDGE ( 'NONE', *, *, #15, .F. ) ;
#677 = CARTESIAN_POINT ( 'NONE',  ( 10.00000000000000355, -10.00000000000000000, 17.50000000000000000 ) ) ;
#678 = DIRECTION ( 'NONE',  ( -0.000000000000000000, -0.000000000000000000, -1.000000000000000000 ) ) ;
#679 = VERTEX_POINT ( 'NONE', #695 ) ;
#680 = AXIS2_PLACEMENT_3D ( 'NONE', #108, #153, #47 ) ;
#681 = LINE ( 'NONE', #550, #410 ) ;
#682 = DIRECTION ( 'NONE',  ( -0.000000000000000000, -0.000000000000000000, 1.000000000000000000 ) ) ;
#683 = EDGE_LOOP ( 'NONE', ( #367, #393, #152, #115 ) ) ;
#684 = CC_DESIGN_PERSON_AND_ORGANIZATION_ASSIGNMENT ( #118, #719, ( #85 ) ) ;
#685 = CARTESIAN_POINT ( 'NONE',  ( -30.85468562349849364, 26.53748999199201108, 0.000000000000000000 ) ) ;
#686 = LINE ( 'NONE', #616, #251 ) ;
#687 = FACE_OUTER_BOUND ( 'NONE', #496, .T. ) ;
#688 = PLANE ( 'NONE',  #703 ) ;
#689 = ORIENTED_EDGE ( 'NONE', *, *, #310, .F. ) ;
#690 = CARTESIAN_POINT ( 'NONE',  ( -5.854685623498494529, -4.687499999999992006, 0.000000000000000000 ) ) ;
#691 = CC_DESIGN_PERSON_AND_ORGANIZATION_ASSIGNMENT ( #229, #474, ( #13 ) ) ;
#692 = DIRECTION ( 'NONE',  ( -0.000000000000000000, -0.000000000000000000, 1.000000000000000000 ) ) ;
#693 = ORIENTED_EDGE ( 'NONE', *, *, #506, .T. ) ;
#694 = AXIS2_PLACEMENT_3D ( 'NONE', #498, #316, #28 ) ;
#695 = CARTESIAN_POINT ( 'NONE',  ( -25.00000000000000355, 31.22498999199200043, 0.000000000000000000 ) ) ;
#696 = CARTESIAN_POINT ( 'NONE',  ( 10.00000000000000355, 0.000000000000000000, 17.50000000000000000 ) ) ;
#697 = AXIS2_PLACEMENT_3D ( 'NONE', #106, #336, #329 ) ;
#698 = EDGE_CURVE ( 'NONE', #11, #727, #169, .T. ) ;
#699 = ORIENTED_EDGE ( 'NONE', *, *, #76, .F. ) ;
#700 = DIRECTION ( 'NONE',  ( 1.000000000000000000, 0.000000000000000000, 0.000000000000000000 ) ) ;
#701 = CARTESIAN_POINT ( 'NONE',  ( -30.85468562349849364, 26.53748999199201108, 25.00000000000000000 ) ) ;
#702 = ORIENTED_EDGE ( 'NONE', *, *, #100, .T. ) ;
#703 = AXIS2_PLACEMENT_3D ( 'NONE', #44, #279, #266 ) ;
#704 = CALENDAR_DATE ( 2026, 19, 6 ) ;
#705 = CARTESIAN_POINT ( 'NONE',  ( 0.000000000000000000, -10.00000000000000000, 0.000000000000000000 ) ) ;
#706 = AXIS2_PLACEMENT_3D ( 'NONE', #213, #265, #508 ) ;
#707 = ORIENTED_EDGE ( 'NONE', *, *, #716, .F. ) ;
#708 = APPROVAL_STATUS ( 'not_yet_approved' ) ;
#709 = DIRECTION ( 'NONE',  ( -0.6249999999999998890, 0.7806247497997997886, -0.000000000000000000 ) ) ;
#710 = ORIENTED_EDGE ( 'NONE', *, *, #161, .F. ) ;
#711 = PERSON_AND_ORGANIZATION_ROLE ( 'design_owner' ) ;
#712 = DIRECTION ( 'NONE',  ( 0.000000000000000000, 0.000000000000000000, 1.000000000000000000 ) ) ;
#713 = EDGE_CURVE ( 'NONE', #679, #453, #277, .T. ) ;
#714 = ORIENTED_EDGE ( 'NONE', *, *, #751, .F. ) ;
#715 = CARTESIAN_POINT ( 'NONE',  ( -30.85468562349849364, 26.53748999199201108, 25.00000000000000000 ) ) ;
#716 = EDGE_CURVE ( 'NONE', #387, #717, #718, .T. ) ;
#717 = VERTEX_POINT ( 'NONE', #753 ) ;
#718 = CIRCLE ( 'NONE', #706, 5.000000000000001776 ) ;
#719 = PERSON_AND_ORGANIZATION_ROLE ( 'creator' ) ;
#720 = DIRECTION ( 'NONE',  ( -1.387778780781445676E-16, 0.000000000000000000, -1.000000000000000000 ) ) ;
#721 = ORIENTED_EDGE ( 'NONE', *, *, #434, .F. ) ;
#722 = DIRECTION ( 'NONE',  ( -0.000000000000000000, 0.000000000000000000, 1.000000000000000000 ) ) ;
#723 = EDGE_LOOP ( 'NONE', ( #29, #689, #480, #714 ) ) ;
#724 = MANIFOLD_SOLID_BREP ( '圆角2', #576 ) ;
#725 = DIRECTION ( 'NONE',  ( 1.000000000000000000, 0.000000000000000000, 0.000000000000000000 ) ) ;
#726 = DIRECTION ( 'NONE',  ( 0.7806247497998000107, 0.6249999999999997780, -0.000000000000000000 ) ) ;
#727 = VERTEX_POINT ( 'NONE', #574 ) ;
#728 = EDGE_CURVE ( 'NONE', #477, #565, #388, .T. ) ;
#729 = CIRCLE ( 'NONE', #313, 10.00000000000000000 ) ;
#730 = ADVANCED_FACE ( 'NONE', ( #210 ), #449, .F. ) ;
#731 = DIRECTION ( 'NONE',  ( 0.000000000000000000, 0.000000000000000000, -1.000000000000000000 ) ) ;
#732 = CARTESIAN_POINT ( 'NONE',  ( -36.70937124699698018, 21.84998999199201819, 0.000000000000000000 ) ) ;
#733 = VECTOR ( 'NONE', #678, 1000.000000000000000 ) ;
#734 = ORIENTED_EDGE ( 'NONE', *, *, #419, .T. ) ;
#735 = DATE_AND_TIME ( #704, #292 ) ;
#736 = LINE ( 'NONE', #557, #538 ) ;
#737 = CYLINDRICAL_SURFACE ( 'NONE', #89, 7.499999999999992895 ) ;
#738 = ORIENTED_EDGE ( 'NONE', *, *, #100, .F. ) ;
#739 = PERSON ( '未指定', '未指定', '未指定', ('未指定'), ('未指定'), ('未指定') ) ;
#740 = DIRECTION ( 'NONE',  ( 1.000000000000000000, 0.000000000000000000, 0.000000000000000000 ) ) ;
#741 = EDGE_CURVE ( 'NONE', #436, #578, #166, .T. ) ;
#742 = CARTESIAN_POINT ( 'NONE',  ( 19.99999999999999645, 0.000000000000000000, 10.00000000000000000 ) ) ;
#743 = ORIENTED_EDGE ( 'NONE', *, *, #20, .T. ) ;
#744 = VECTOR ( 'NONE', #709, 1000.000000000000114 ) ;
#745 = DIRECTION ( 'NONE',  ( -0.000000000000000000, 1.000000000000000000, 0.000000000000000000 ) ) ;
#746 =( GEOMETRIC_REPRESENTATION_CONTEXT ( 3 ) GLOBAL_UNCERTAINTY_ASSIGNED_CONTEXT ( ( #126 ) ) GLOBAL_UNIT_ASSIGNED_CONTEXT ( ( #340, #286, #397 ) ) REPRESENTATION_CONTEXT ( 'NONE', 'WORKASPACE' ) );
#747 = FACE_OUTER_BOUND ( 'NONE', #505, .T. ) ;
#748 = DIRECTION ( 'NONE',  ( 0.000000000000000000, 0.000000000000000000, 1.000000000000000000 ) ) ;
#749 = LINE ( 'NONE', #163, #32 ) ;
#750 = ORIENTED_EDGE ( 'NONE', *, *, #560, .F. ) ;
#751 = EDGE_CURVE ( 'NONE', #418, #364, #38, .T. ) ;
#752 = EDGE_CURVE ( 'NONE', #11, #589, #378, .T. ) ;
#753 = CARTESIAN_POINT ( 'NONE',  ( -0.8546856234984924194, -4.687499999999992006, 25.00000000000000000 ) ) ;
#754 = DIRECTION ( 'NONE',  ( -1.000000000000000000, 0.000000000000000000, -0.000000000000000000 ) ) ;
#755 = ORIENTED_EDGE ( 'NONE', *, *, #368, .T. ) ;
#756 = AXIS2_PLACEMENT_3D ( 'NONE', #175, #73, #68 ) ;
#757 = DIRECTION ( 'NONE',  ( 0.000000000000000000, -0.000000000000000000, 1.000000000000000000 ) ) ;
#758 = CARTESIAN_POINT ( 'NONE',  ( 20.00000000000000355, 0.000000000000000000, 17.50000000000000000 ) ) ;
#759 = AXIS2_PLACEMENT_3D ( 'NONE', #344, #467, #593 ) ;
#760 = ORIENTED_EDGE ( 'NONE', *, *, #228, .F. ) ;
#761 = DIRECTION ( 'NONE',  ( 1.000000000000000000, 0.000000000000000000, 0.000000000000000000 ) ) ;
#762 = CARTESIAN_POINT ( 'NONE',  ( 30.00000000000000000, -10.00000000000000000, 15.00000000000000000 ) ) ;
#763 = EDGE_LOOP ( 'NONE', ( #198, #206, #297, #755 ) ) ;
#764 = FACE_OUTER_BOUND ( 'NONE', #1, .T. ) ;
ENDSEC;
END-ISO-10303-21;
