ISO-10303-21;
HEADER;
FILE_DESCRIPTION (( 'STEP AP203' ),
    '1' );
FILE_NAME ('base_默认_sldprt.STEP',
    '2026-06-12T01:16:22',
    ( '' ),
    ( '' ),
    'SwSTEP 2.0',
    'SolidWorks 2022',
    '' );
FILE_SCHEMA (( 'CONFIG_CONTROL_DESIGN' ));
ENDSEC;

DATA;
#1 = ORIENTED_EDGE ( 'NONE', *, *, #201, .T. ) ;
#2 = DIRECTION ( 'NONE',  ( -0.000000000000000000, -1.000000000000000000, -0.000000000000000000 ) ) ;
#3 = CARTESIAN_POINT ( 'NONE',  ( 1.224646799147353256E-15, 75.00000000000000000, 10.00000000000000000 ) ) ;
#4 = DIRECTION ( 'NONE',  ( -0.000000000000000000, -1.000000000000000000, -0.000000000000000000 ) ) ;
#5 = DIRECTION ( 'NONE',  ( -0.000000000000000000, -1.000000000000000000, -0.000000000000000000 ) ) ;
#6 = CIRCLE ( 'NONE', #49, 40.00000000000000000 ) ;
#7 = CARTESIAN_POINT ( 'NONE',  ( 0.000000000000000000, 20.00000000000000000, -40.00000000000000000 ) ) ;
#8 = ADVANCED_FACE ( 'NONE', ( #158 ), #79, .T. ) ;
#9 = CARTESIAN_POINT ( 'NONE',  ( 0.000000000000000000, 75.00000000000000000, 0.000000000000000000 ) ) ;
#10 = PERSON_AND_ORGANIZATION ( #211, #40 ) ;
#11 = ORIENTED_EDGE ( 'NONE', *, *, #201, .F. ) ;
#12 = DATE_TIME_ROLE ( 'classification_date' ) ;
#13 = CC_DESIGN_SECURITY_CLASSIFICATION ( #31, ( #164 ) ) ;
#14 = PERSON_AND_ORGANIZATION_ROLE ( 'creator' ) ;
#15 = PERSON_AND_ORGANIZATION ( #211, #40 ) ;
#16 = EDGE_CURVE ( 'NONE', #187, #36, #69, .T. ) ;
#17 = EDGE_LOOP ( 'NONE', ( #57, #169 ) ) ;
#18 = ORIENTED_EDGE ( 'NONE', *, *, #165, .F. ) ;
#19 = DIRECTION ( 'NONE',  ( 0.000000000000000000, 0.000000000000000000, 1.000000000000000000 ) ) ;
#20 = LOCAL_TIME ( 9, 16, 22.00000000000000000, #132 ) ;
#21 = DIRECTION ( 'NONE',  ( 0.000000000000000000, 1.000000000000000000, 0.000000000000000000 ) ) ;
#22 = ORIENTED_EDGE ( 'NONE', *, *, #147, .T. ) ;
#23 = DIRECTION ( 'NONE',  ( 0.000000000000000000, -0.000000000000000000, 1.000000000000000000 ) ) ;
#24 = AXIS2_PLACEMENT_3D ( 'NONE', #234, #60, #120 ) ;
#25 = CARTESIAN_POINT ( 'NONE',  ( 0.000000000000000000, 20.00000000000000000, 0.000000000000000000 ) ) ;
#26 = EDGE_CURVE ( 'NONE', #253, #119, #172, .T. ) ;
#27 = MANIFOLD_SOLID_BREP ( '凸台-拉伸2', #75 ) ;
#28 = CARTESIAN_POINT ( 'NONE',  ( 0.000000000000000000, 75.00000000000000000, 0.000000000000000000 ) ) ;
#29 = COORDINATED_UNIVERSAL_TIME_OFFSET ( 8, 0, .AHEAD. ) ;
#30 = COORDINATED_UNIVERSAL_TIME_OFFSET ( 8, 0, .AHEAD. ) ;
#31 = SECURITY_CLASSIFICATION ( '', '', #71 ) ;
#32 = APPROVAL ( #93, '未指定' ) ;
#33 = EDGE_LOOP ( 'NONE', ( #76, #18, #1, #239 ) ) ;
#34 = ORIENTED_EDGE ( 'NONE', *, *, #173, .T. ) ;
#35 = CARTESIAN_POINT ( 'NONE',  ( 0.000000000000000000, 20.00000000000000000, 0.000000000000000000 ) ) ;
#36 = VERTEX_POINT ( 'NONE', #55 ) ;
#37 = CC_DESIGN_PERSON_AND_ORGANIZATION_ASSIGNMENT ( #149, #46, ( #31 ) ) ;
#38 = CARTESIAN_POINT ( 'NONE',  ( 0.000000000000000000, 20.00000000000000000, -10.00000000000000000 ) ) ;
#39 = AXIS2_PLACEMENT_3D ( 'NONE', #25, #67, #162 ) ;
#40 = ORGANIZATION ( '未指定', '未指定', '' ) ;
#41 = DIRECTION ( 'NONE',  ( -0.000000000000000000, -1.000000000000000000, -0.000000000000000000 ) ) ;
#42 = EDGE_CURVE ( 'NONE', #255, #137, #6, .T. ) ;
#43 = DIRECTION ( 'NONE',  ( 0.000000000000000000, 1.000000000000000000, 0.000000000000000000 ) ) ;
#44 = APPLICATION_CONTEXT ( 'configuration controlled 3d designs of mechanical parts and assemblies' ) ;
#45 = CARTESIAN_POINT ( 'NONE',  ( 0.000000000000000000, 0.000000000000000000, 0.000000000000000000 ) ) ;
#46 = PERSON_AND_ORGANIZATION_ROLE ( 'classification_officer' ) ;
#47 = DATE_AND_TIME ( #171, #86 ) ;
#48 = APPROVAL_DATE_TIME ( #114, #151 ) ;
#49 = AXIS2_PLACEMENT_3D ( 'NONE', #199, #102, #215 ) ;
#50 = DATE_AND_TIME ( #112, #20 ) ;
#51 =( GEOMETRIC_REPRESENTATION_CONTEXT ( 3 ) GLOBAL_UNCERTAINTY_ASSIGNED_CONTEXT ( ( #109 ) ) GLOBAL_UNIT_ASSIGNED_CONTEXT ( ( #145, #127, #206 ) ) REPRESENTATION_CONTEXT ( 'NONE', 'WORKASPACE' ) );
#52 = PERSON_AND_ORGANIZATION ( #211, #40 ) ;
#53 = ORIENTED_EDGE ( 'NONE', *, *, #198, .T. ) ;
#54 = VECTOR ( 'NONE', #181, 1000.000000000000000 ) ;
#55 = CARTESIAN_POINT ( 'NONE',  ( 1.224646799147353256E-15, 20.00000000000000000, 10.00000000000000000 ) ) ;
#56 = EDGE_LOOP ( 'NONE', ( #97, #34, #123, #11 ) ) ;
#57 = ORIENTED_EDGE ( 'NONE', *, *, #16, .F. ) ;
#58 = APPLICATION_CONTEXT ( 'configuration controlled 3d designs of mechanical parts and assemblies' ) ;
#59 = AXIS2_PLACEMENT_3D ( 'NONE', #35, #194, #19 ) ;
#60 = DIRECTION ( 'NONE',  ( 0.000000000000000000, 1.000000000000000000, 0.000000000000000000 ) ) ;
#61 = CC_DESIGN_PERSON_AND_ORGANIZATION_ASSIGNMENT ( #52, #185, ( #197 ) ) ;
#62 = ORIENTED_EDGE ( 'NONE', *, *, #198, .F. ) ;
#63 = FACE_BOUND ( 'NONE', #17, .T. ) ;
#64 = CARTESIAN_POINT ( 'NONE',  ( 4.898587196589413026E-15, 0.000000000000000000, 40.00000000000000000 ) ) ;
#65 = LOCAL_TIME ( 9, 16, 22.00000000000000000, #29 ) ;
#66 = CARTESIAN_POINT ( 'NONE',  ( 0.000000000000000000, 75.00000000000000000, -10.00000000000000000 ) ) ;
#67 = DIRECTION ( 'NONE',  ( 0.000000000000000000, 1.000000000000000000, 0.000000000000000000 ) ) ;
#68 = DIRECTION ( 'NONE',  ( 0.000000000000000000, 0.000000000000000000, -1.000000000000000000 ) ) ;
#69 = CIRCLE ( 'NONE', #24, 10.00000000000000000 ) ;
#70 = COORDINATED_UNIVERSAL_TIME_OFFSET ( 8, 0, .AHEAD. ) ;
#71 = SECURITY_CLASSIFICATION_LEVEL ( 'unclassified' ) ;
#72 = CC_DESIGN_PERSON_AND_ORGANIZATION_ASSIGNMENT ( #152, #91, ( #164 ) ) ;
#73 = DATE_TIME_ROLE ( 'creation_date' ) ;
#74 = ADVANCED_FACE ( 'NONE', ( #193 ), #140, .F. ) ;
#75 = CLOSED_SHELL ( 'NONE', ( #110, #8, #238, #128, #74, #219, #94 ) ) ;
#76 = ORIENTED_EDGE ( 'NONE', *, *, #173, .F. ) ;
#77 = ORIENTED_EDGE ( 'NONE', *, *, #165, .T. ) ;
#78 = CC_DESIGN_APPROVAL ( #155, ( #164 ) ) ;
#79 = CYLINDRICAL_SURFACE ( 'NONE', #243, 40.00000000000000000 ) ;
#80 = DIRECTION ( 'NONE',  ( 0.000000000000000000, -0.000000000000000000, 1.000000000000000000 ) ) ;
#81 = EDGE_CURVE ( 'NONE', #240, #96, #107, .T. ) ;
#82 = DIRECTION ( 'NONE',  ( 0.000000000000000000, 0.000000000000000000, -1.000000000000000000 ) ) ;
#83 = DIRECTION ( 'NONE',  ( 0.000000000000000000, 1.000000000000000000, 0.000000000000000000 ) ) ;
#84 = FACE_OUTER_BOUND ( 'NONE', #33, .T. ) ;
#85 = CARTESIAN_POINT ( 'NONE',  ( 4.898587196589413026E-15, 20.00000000000000000, 40.00000000000000000 ) ) ;
#86 = LOCAL_TIME ( 9, 16, 22.00000000000000000, #70 ) ;
#87 = CARTESIAN_POINT ( 'NONE',  ( 0.000000000000000000, 0.000000000000000000, -40.00000000000000000 ) ) ;
#88 = PERSON_AND_ORGANIZATION ( #211, #40 ) ;
#89 = AXIS2_PLACEMENT_3D ( 'NONE', #138, #21, #216 ) ;
#90 = APPROVAL_PERSON_ORGANIZATION ( #15, #151, #170 ) ;
#91 = PERSON_AND_ORGANIZATION_ROLE ( 'design_supplier' ) ;
#92 = EDGE_LOOP ( 'NONE', ( #77, #174 ) ) ;
#93 = APPROVAL_STATUS ( 'not_yet_approved' ) ;
#94 = ADVANCED_FACE ( 'NONE', ( #99 ), #176, .T. ) ;
#95 = VECTOR ( 'NONE', #41, 1000.000000000000000 ) ;
#96 = VERTEX_POINT ( 'NONE', #160 ) ;
#97 = ORIENTED_EDGE ( 'NONE', *, *, #81, .F. ) ;
#98 = AXIS2_PLACEMENT_3D ( 'NONE', #180, #178, #236 ) ;
#99 = FACE_OUTER_BOUND ( 'NONE', #135, .T. ) ;
#100 = CC_DESIGN_APPROVAL ( #32, ( #226 ) ) ;
#101 = CARTESIAN_POINT ( 'NONE',  ( 0.000000000000000000, 75.00000000000000000, 0.000000000000000000 ) ) ;
#102 = DIRECTION ( 'NONE',  ( 0.000000000000000000, 1.000000000000000000, 0.000000000000000000 ) ) ;
#103 = AXIS2_PLACEMENT_3D ( 'NONE', #28, #43, #182 ) ;
#104 = DIRECTION ( 'NONE',  ( -0.000000000000000000, -1.000000000000000000, -0.000000000000000000 ) ) ;
#105 = FACE_OUTER_BOUND ( 'NONE', #92, .T. ) ;
#106 = DIRECTION ( 'NONE',  ( 0.000000000000000000, 0.000000000000000000, 1.000000000000000000 ) ) ;
#107 = CIRCLE ( 'NONE', #59, 40.00000000000000000 ) ;
#108 = LINE ( 'NONE', #66, #207 ) ;
#109 = UNCERTAINTY_MEASURE_WITH_UNIT (LENGTH_MEASURE( 1.000000000000000082E-05 ), #145, 'distance_accuracy_value', 'NONE');
#110 = ADVANCED_FACE ( 'NONE', ( #142 ), #124, .T. ) ;
#111 = EDGE_LOOP ( 'NONE', ( #62, #249, #217, #136 ) ) ;
#112 = CALENDAR_DATE ( 2026, 12, 6 ) ;
#113 = LOCAL_TIME ( 9, 16, 22.00000000000000000, #168 ) ;
#114 = DATE_AND_TIME ( #154, #235 ) ;
#115 = MECHANICAL_CONTEXT ( 'NONE', #44, 'mechanical' ) ;
#116 = ORIENTED_EDGE ( 'NONE', *, *, #26, .T. ) ;
#117 = DIRECTION ( 'NONE',  ( 0.000000000000000000, 1.000000000000000000, 0.000000000000000000 ) ) ;
#118 = ADVANCED_BREP_SHAPE_REPRESENTATION ( 'base_\X2\9ed88ba4\X0\_sldprt', ( #27, #196 ), #51 ) ;
#119 = VERTEX_POINT ( 'NONE', #161 ) ;
#120 = DIRECTION ( 'NONE',  ( 0.000000000000000000, 0.000000000000000000, 1.000000000000000000 ) ) ;
#121 = CIRCLE ( 'NONE', #103, 10.00000000000000000 ) ;
#122 = EDGE_CURVE ( 'NONE', #137, #255, #125, .T. ) ;
#123 = ORIENTED_EDGE ( 'NONE', *, *, #42, .T. ) ;
#124 = CYLINDRICAL_SURFACE ( 'NONE', #233, 10.00000000000000000 ) ;
#125 = CIRCLE ( 'NONE', #157, 40.00000000000000000 ) ;
#126 = FACE_OUTER_BOUND ( 'NONE', #111, .T. ) ;
#127 =( NAMED_UNIT ( * ) PLANE_ANGLE_UNIT ( ) SI_UNIT ( $, .RADIAN. ) );
#128 = ADVANCED_FACE ( 'NONE', ( #63, #105 ), #223, .T. ) ;
#129 = APPLICATION_PROTOCOL_DEFINITION ( 'international standard', 'config_control_design', 1994, #44 ) ;
#130 = SHAPE_DEFINITION_REPRESENTATION ( #179, #118 ) ;
#131 = AXIS2_PLACEMENT_3D ( 'NONE', #166, #5, #222 ) ;
#132 = COORDINATED_UNIVERSAL_TIME_OFFSET ( 8, 0, .AHEAD. ) ;
#133 = CALENDAR_DATE ( 2026, 12, 6 ) ;
#134 = DIRECTION ( 'NONE',  ( 1.000000000000000000, 0.000000000000000000, 0.000000000000000000 ) ) ;
#135 = EDGE_LOOP ( 'NONE', ( #22, #116 ) ) ;
#136 = ORIENTED_EDGE ( 'NONE', *, *, #16, .T. ) ;
#137 = VERTEX_POINT ( 'NONE', #87 ) ;
#138 = CARTESIAN_POINT ( 'NONE',  ( 0.000000000000000000, 0.000000000000000000, 0.000000000000000000 ) ) ;
#139 = CC_DESIGN_DATE_AND_TIME_ASSIGNMENT ( #189, #73, ( #226 ) ) ;
#140 = PLANE ( 'NONE',  #89 ) ;
#141 = VECTOR ( 'NONE', #104, 1000.000000000000000 ) ;
#142 = FACE_OUTER_BOUND ( 'NONE', #159, .T. ) ;
#143 = CARTESIAN_POINT ( 'NONE',  ( 0.000000000000000000, 0.000000000000000000, 0.000000000000000000 ) ) ;
#144 = LINE ( 'NONE', #202, #141 ) ;
#145 =( LENGTH_UNIT ( ) NAMED_UNIT ( * ) SI_UNIT ( .MILLI., .METRE. ) );
#146 = CARTESIAN_POINT ( 'NONE',  ( 0.000000000000000000, 20.00000000000000000, 0.000000000000000000 ) ) ;
#147 = EDGE_CURVE ( 'NONE', #119, #253, #121, .T. ) ;
#148 = DIRECTION ( 'NONE',  ( 0.000000000000000000, 1.000000000000000000, 0.000000000000000000 ) ) ;
#149 = PERSON_AND_ORGANIZATION ( #211, #40 ) ;
#150 = PRODUCT_RELATED_PRODUCT_CATEGORY ( 'detail', '', ( #197 ) ) ;
#151 = APPROVAL ( #252, '未指定' ) ;
#152 = PERSON_AND_ORGANIZATION ( #211, #40 ) ;
#153 = ORIENTED_EDGE ( 'NONE', *, *, #190, .F. ) ;
#154 = CALENDAR_DATE ( 2026, 12, 6 ) ;
#155 = APPROVAL ( #248, '未指定' ) ;
#156 = DIRECTION ( 'NONE',  ( -0.000000000000000000, -1.000000000000000000, -0.000000000000000000 ) ) ;
#157 = AXIS2_PLACEMENT_3D ( 'NONE', #143, #83, #245 ) ;
#158 = FACE_OUTER_BOUND ( 'NONE', #56, .T. ) ;
#159 = EDGE_LOOP ( 'NONE', ( #220, #53, #232, #153 ) ) ;
#160 = CARTESIAN_POINT ( 'NONE',  ( 0.000000000000000000, 20.00000000000000000, -40.00000000000000000 ) ) ;
#161 = CARTESIAN_POINT ( 'NONE',  ( 0.000000000000000000, 75.00000000000000000, -10.00000000000000000 ) ) ;
#162 = DIRECTION ( 'NONE',  ( 0.000000000000000000, 0.000000000000000000, 1.000000000000000000 ) ) ;
#163 = CARTESIAN_POINT ( 'NONE',  ( 1.224646799147353256E-15, 75.00000000000000000, 10.00000000000000000 ) ) ;
#164 = PRODUCT_DEFINITION_FORMATION_WITH_SPECIFIED_SOURCE ( '任何', '', #197, .NOT_KNOWN. ) ;
#165 = EDGE_CURVE ( 'NONE', #96, #240, #218, .T. ) ;
#166 = CARTESIAN_POINT ( 'NONE',  ( 0.000000000000000000, 20.00000000000000000, 0.000000000000000000 ) ) ;
#167 = DESIGN_CONTEXT ( 'detailed design', #58, 'design' ) ;
#168 = COORDINATED_UNIVERSAL_TIME_OFFSET ( 8, 0, .AHEAD. ) ;
#169 = ORIENTED_EDGE ( 'NONE', *, *, #212, .F. ) ;
#170 = APPROVAL_ROLE ( '' ) ;
#171 = CALENDAR_DATE ( 2026, 12, 6 ) ;
#172 = CIRCLE ( 'NONE', #98, 10.00000000000000000 ) ;
#173 = EDGE_CURVE ( 'NONE', #240, #255, #144, .T. ) ;
#174 = ORIENTED_EDGE ( 'NONE', *, *, #81, .T. ) ;
#175 = ORIENTED_EDGE ( 'NONE', *, *, #42, .F. ) ;
#176 = PLANE ( 'NONE',  #195 ) ;
#177 = CC_DESIGN_PERSON_AND_ORGANIZATION_ASSIGNMENT ( #186, #14, ( #164 ) ) ;
#178 = DIRECTION ( 'NONE',  ( 0.000000000000000000, 1.000000000000000000, 0.000000000000000000 ) ) ;
#179 = PRODUCT_DEFINITION_SHAPE ( 'NONE', 'NONE',  #226 ) ;
#180 = CARTESIAN_POINT ( 'NONE',  ( 0.000000000000000000, 75.00000000000000000, 0.000000000000000000 ) ) ;
#181 = DIRECTION ( 'NONE',  ( -0.000000000000000000, -1.000000000000000000, -0.000000000000000000 ) ) ;
#182 = DIRECTION ( 'NONE',  ( 0.000000000000000000, 0.000000000000000000, 1.000000000000000000 ) ) ;
#183 = DIRECTION ( 'NONE',  ( -0.000000000000000000, -1.000000000000000000, -0.000000000000000000 ) ) ;
#184 = LINE ( 'NONE', #7, #95 ) ;
#185 = PERSON_AND_ORGANIZATION_ROLE ( 'design_owner' ) ;
#186 = PERSON_AND_ORGANIZATION ( #211, #40 ) ;
#187 = VERTEX_POINT ( 'NONE', #38 ) ;
#188 = APPROVAL_PERSON_ORGANIZATION ( #10, #32, #250 ) ;
#189 = DATE_AND_TIME ( #133, #113 ) ;
#190 = EDGE_CURVE ( 'NONE', #119, #187, #108, .T. ) ;
#191 = DATE_AND_TIME ( #209, #65 ) ;
#192 = DIRECTION ( 'NONE',  ( 0.000000000000000000, 0.000000000000000000, -1.000000000000000000 ) ) ;
#193 = FACE_OUTER_BOUND ( 'NONE', #254, .T. ) ;
#194 = DIRECTION ( 'NONE',  ( 0.000000000000000000, 1.000000000000000000, 0.000000000000000000 ) ) ;
#195 = AXIS2_PLACEMENT_3D ( 'NONE', #101, #117, #80 ) ;
#196 = AXIS2_PLACEMENT_3D ( 'NONE', #45, #106, #134 ) ;
#197 = PRODUCT ( 'base_\X2\9ed88ba4\X0\_sldprt', 'base_\X2\9ed88ba4\X0\_sldprt', '', ( #115 ) ) ;
#198 = EDGE_CURVE ( 'NONE', #253, #36, #247, .T. ) ;
#199 = CARTESIAN_POINT ( 'NONE',  ( 0.000000000000000000, 0.000000000000000000, 0.000000000000000000 ) ) ;
#200 = CARTESIAN_POINT ( 'NONE',  ( 0.000000000000000000, 75.00000000000000000, 0.000000000000000000 ) ) ;
#201 = EDGE_CURVE ( 'NONE', #96, #137, #184, .T. ) ;
#202 = CARTESIAN_POINT ( 'NONE',  ( 4.898587196589413026E-15, 20.00000000000000000, 40.00000000000000000 ) ) ;
#203 = CIRCLE ( 'NONE', #39, 10.00000000000000000 ) ;
#204 = APPROVAL_PERSON_ORGANIZATION ( #228, #155, #227 ) ;
#205 = CYLINDRICAL_SURFACE ( 'NONE', #221, 10.00000000000000000 ) ;
#206 =( NAMED_UNIT ( * ) SI_UNIT ( $, .STERADIAN. ) SOLID_ANGLE_UNIT ( ) );
#207 = VECTOR ( 'NONE', #4, 1000.000000000000000 ) ;
#208 = DIRECTION ( 'NONE',  ( 0.000000000000000000, 1.000000000000000000, 0.000000000000000000 ) ) ;
#209 = CALENDAR_DATE ( 2026, 12, 6 ) ;
#210 = APPLICATION_PROTOCOL_DEFINITION ( 'international standard', 'config_control_design', 1994, #58 ) ;
#211 = PERSON ( '未指定', '未指定', '未指定', ('未指定'), ('未指定'), ('未指定') ) ;
#212 = EDGE_CURVE ( 'NONE', #36, #187, #203, .T. ) ;
#213 = PERSON_AND_ORGANIZATION_ROLE ( 'creator' ) ;
#214 = ORIENTED_EDGE ( 'NONE', *, *, #122, .F. ) ;
#215 = DIRECTION ( 'NONE',  ( 0.000000000000000000, 0.000000000000000000, 1.000000000000000000 ) ) ;
#216 = DIRECTION ( 'NONE',  ( 0.000000000000000000, -0.000000000000000000, 1.000000000000000000 ) ) ;
#217 = ORIENTED_EDGE ( 'NONE', *, *, #190, .T. ) ;
#218 = CIRCLE ( 'NONE', #251, 40.00000000000000000 ) ;
#219 = ADVANCED_FACE ( 'NONE', ( #126 ), #205, .T. ) ;
#220 = ORIENTED_EDGE ( 'NONE', *, *, #26, .F. ) ;
#221 = AXIS2_PLACEMENT_3D ( 'NONE', #9, #183, #68 ) ;
#222 = DIRECTION ( 'NONE',  ( 0.000000000000000000, 0.000000000000000000, -1.000000000000000000 ) ) ;
#223 = PLANE ( 'NONE',  #230 ) ;
#224 = CC_DESIGN_APPROVAL ( #151, ( #31 ) ) ;
#225 = CC_DESIGN_DATE_AND_TIME_ASSIGNMENT ( #50, #12, ( #31 ) ) ;
#226 = PRODUCT_DEFINITION ( '未知', '', #164, #167 ) ;
#227 = APPROVAL_ROLE ( '' ) ;
#228 = PERSON_AND_ORGANIZATION ( #211, #40 ) ;
#229 = APPROVAL_DATE_TIME ( #47, #155 ) ;
#230 = AXIS2_PLACEMENT_3D ( 'NONE', #244, #148, #23 ) ;
#231 = APPROVAL_DATE_TIME ( #191, #32 ) ;
#232 = ORIENTED_EDGE ( 'NONE', *, *, #212, .T. ) ;
#233 = AXIS2_PLACEMENT_3D ( 'NONE', #200, #2, #82 ) ;
#234 = CARTESIAN_POINT ( 'NONE',  ( 0.000000000000000000, 20.00000000000000000, 0.000000000000000000 ) ) ;
#235 = LOCAL_TIME ( 9, 16, 22.00000000000000000, #30 ) ;
#236 = DIRECTION ( 'NONE',  ( 0.000000000000000000, 0.000000000000000000, 1.000000000000000000 ) ) ;
#237 = CARTESIAN_POINT ( 'NONE',  ( 0.000000000000000000, 20.00000000000000000, 0.000000000000000000 ) ) ;
#238 = ADVANCED_FACE ( 'NONE', ( #84 ), #242, .T. ) ;
#239 = ORIENTED_EDGE ( 'NONE', *, *, #122, .T. ) ;
#240 = VERTEX_POINT ( 'NONE', #85 ) ;
#241 = DIRECTION ( 'NONE',  ( 0.000000000000000000, 0.000000000000000000, 1.000000000000000000 ) ) ;
#242 = CYLINDRICAL_SURFACE ( 'NONE', #131, 40.00000000000000000 ) ;
#243 = AXIS2_PLACEMENT_3D ( 'NONE', #237, #156, #192 ) ;
#244 = CARTESIAN_POINT ( 'NONE',  ( 0.000000000000000000, 20.00000000000000000, 0.000000000000000000 ) ) ;
#245 = DIRECTION ( 'NONE',  ( 0.000000000000000000, 0.000000000000000000, 1.000000000000000000 ) ) ;
#246 = CC_DESIGN_PERSON_AND_ORGANIZATION_ASSIGNMENT ( #88, #213, ( #226 ) ) ;
#247 = LINE ( 'NONE', #163, #54 ) ;
#248 = APPROVAL_STATUS ( 'not_yet_approved' ) ;
#249 = ORIENTED_EDGE ( 'NONE', *, *, #147, .F. ) ;
#250 = APPROVAL_ROLE ( '' ) ;
#251 = AXIS2_PLACEMENT_3D ( 'NONE', #146, #208, #241 ) ;
#252 = APPROVAL_STATUS ( 'not_yet_approved' ) ;
#253 = VERTEX_POINT ( 'NONE', #3 ) ;
#254 = EDGE_LOOP ( 'NONE', ( #214, #175 ) ) ;
#255 = VERTEX_POINT ( 'NONE', #64 ) ;
ENDSEC;
END-ISO-10303-21;
