ISO-10303-21;
HEADER;
FILE_DESCRIPTION (( 'STEP AP203' ),
    '1' );
FILE_NAME ('link2_upper_arm_默认_sldprt.STEP',
    '2026-06-12T01:16:26',
    ( '' ),
    ( '' ),
    'SwSTEP 2.0',
    'SolidWorks 2022',
    '' );
FILE_SCHEMA (( 'CONFIG_CONTROL_DESIGN' ));
ENDSEC;

DATA;
#1 = AXIS2_PLACEMENT_3D ( 'NONE', #259, #793, #738 ) ;
#2 = CARTESIAN_POINT ( 'NONE',  ( 7.500000000000000000, 0.000000000000000000, 12.50000000000000355 ) ) ;
#3 = CIRCLE ( 'NONE', #397, 5.000000000000001776 ) ;
#4 = ORIENTED_EDGE ( 'NONE', *, *, #631, .T. ) ;
#5 = AXIS2_PLACEMENT_3D ( 'NONE', #254, #607, #49 ) ;
#6 = EDGE_CURVE ( 'NONE', #257, #321, #34, .T. ) ;
#7 = FACE_OUTER_BOUND ( 'NONE', #765, .T. ) ;
#8 = CYLINDRICAL_SURFACE ( 'NONE', #679, 5.000000000000001776 ) ;
#9 = ORIENTED_EDGE ( 'NONE', *, *, #205, .F. ) ;
#10 = APPROVAL ( #436, '未指定' ) ;
#11 = DIRECTION ( 'NONE',  ( -0.000000000000000000, -0.000000000000000000, -1.000000000000000000 ) ) ;
#12 = VECTOR ( 'NONE', #73, 1000.000000000000000 ) ;
#13 = LINE ( 'NONE', #779, #311 ) ;
#14 = ORIENTED_EDGE ( 'NONE', *, *, #179, .T. ) ;
#15 = PERSON_AND_ORGANIZATION_ROLE ( 'classification_officer' ) ;
#16 = CARTESIAN_POINT ( 'NONE',  ( -7.500000000000000000, 257.5000000000000000, 12.50000000000001066 ) ) ;
#17 = ADVANCED_FACE ( 'NONE', ( #283 ), #163, .F. ) ;
#18 = DIRECTION ( 'NONE',  ( -0.000000000000000000, -0.000000000000000000, 1.000000000000000000 ) ) ;
#19 = ORIENTED_EDGE ( 'NONE', *, *, #29, .F. ) ;
#20 = EDGE_CURVE ( 'NONE', #604, #693, #789, .T. ) ;
#21 = AXIS2_PLACEMENT_3D ( 'NONE', #754, #11, #521 ) ;
#22 = CARTESIAN_POINT ( 'NONE',  ( 7.500000000000000000, 0.000000000000000000, 50.00000000000000000 ) ) ;
#23 = FACE_BOUND ( 'NONE', #603, .T. ) ;
#24 = ORIENTED_EDGE ( 'NONE', *, *, #316, .F. ) ;
#25 = CC_DESIGN_DATE_AND_TIME_ASSIGNMENT ( #192, #312, ( #594 ) ) ;
#26 = DIRECTION ( 'NONE',  ( 0.000000000000000000, 0.000000000000000000, 1.000000000000000000 ) ) ;
#27 = ORIENTED_EDGE ( 'NONE', *, *, #101, .T. ) ;
#28 = LOCAL_TIME ( 9, 16, 26.00000000000000000, #248 ) ;
#29 = EDGE_CURVE ( 'NONE', #486, #533, #482, .T. ) ;
#30 = CARTESIAN_POINT ( 'NONE',  ( -5.000000000000001776, 250.0000000000000000, 50.00000000000000000 ) ) ;
#31 = ORIENTED_EDGE ( 'NONE', *, *, #616, .F. ) ;
#32 = EDGE_CURVE ( 'NONE', #635, #182, #654, .T. ) ;
#33 = CARTESIAN_POINT ( 'NONE',  ( 0.000000000000000000, 0.000000000000000000, 0.000000000000000000 ) ) ;
#34 = LINE ( 'NONE', #599, #613 ) ;
#35 = DIRECTION ( 'NONE',  ( 0.000000000000000000, -0.000000000000000000, 1.000000000000000000 ) ) ;
#36 = DIRECTION ( 'NONE',  ( 1.000000000000000000, 0.000000000000000000, 0.000000000000000000 ) ) ;
#37 = ORIENTED_EDGE ( 'NONE', *, *, #6, .T. ) ;
#38 = LOCAL_TIME ( 9, 16, 26.00000000000000000, #212 ) ;
#39 = CARTESIAN_POINT ( 'NONE',  ( 7.500000000000000000, 207.5000000000000284, 12.50000000000000355 ) ) ;
#40 = CYLINDRICAL_SURFACE ( 'NONE', #154, 7.500000000000000000 ) ;
#41 = VECTOR ( 'NONE', #102, 1000.000000000000000 ) ;
#42 = CIRCLE ( 'NONE', #334, 5.000000000000004441 ) ;
#43 = CARTESIAN_POINT ( 'NONE',  ( -7.500000000000000000, 57.50000000000000000, 37.50000000000000711 ) ) ;
#44 = DIRECTION ( 'NONE',  ( 1.000000000000000000, 0.000000000000000000, 0.000000000000000000 ) ) ;
#45 = ORIENTED_EDGE ( 'NONE', *, *, #616, .T. ) ;
#46 = ORIENTED_EDGE ( 'NONE', *, *, #223, .T. ) ;
#47 = ADVANCED_FACE ( 'NONE', ( #347 ), #355, .F. ) ;
#48 = VECTOR ( 'NONE', #269, 1000.000000000000000 ) ;
#49 = DIRECTION ( 'NONE',  ( 1.000000000000000000, 0.000000000000000000, 0.000000000000000000 ) ) ;
#50 = CARTESIAN_POINT ( 'NONE',  ( -5.000000000000000000, 6.123233995736766282E-16, 50.00000000000000000 ) ) ;
#51 = CARTESIAN_POINT ( 'NONE',  ( 7.500000000000000000, 0.000000000000000000, 37.50000000000000711 ) ) ;
#52 = VECTOR ( 'NONE', #686, 1000.000000000000000 ) ;
#53 = CARTESIAN_POINT ( 'NONE',  ( 5.000000000000001776, 250.0000000000000000, 0.000000000000000000 ) ) ;
#54 = DIRECTION ( 'NONE',  ( 0.000000000000000000, 0.000000000000000000, 1.000000000000000000 ) ) ;
#55 = ORIENTED_EDGE ( 'NONE', *, *, #771, .T. ) ;
#56 = DATE_AND_TIME ( #615, #636 ) ;
#57 = APPROVAL_DATE_TIME ( #56, #454 ) ;
#58 = DIRECTION ( 'NONE',  ( 0.000000000000000000, 0.000000000000000000, 1.000000000000000000 ) ) ;
#59 = DIRECTION ( 'NONE',  ( 1.000000000000000000, 0.000000000000000000, 0.000000000000000000 ) ) ;
#60 = EDGE_LOOP ( 'NONE', ( #496, #563 ) ) ;
#61 = AXIS2_PLACEMENT_3D ( 'NONE', #97, #284, #470 ) ;
#62 = CARTESIAN_POINT ( 'NONE',  ( -7.500000000000000000, 57.50000000000000000, 12.50000000000000355 ) ) ;
#63 = LINE ( 'NONE', #668, #505 ) ;
#64 = VERTEX_POINT ( 'NONE', #351 ) ;
#65 = ADVANCED_FACE ( 'NONE', ( #225 ), #731, .F. ) ;
#66 = PLANE ( 'NONE',  #96 ) ;
#67 = LINE ( 'NONE', #485, #247 ) ;
#68 = VECTOR ( 'NONE', #194, 1000.000000000000000 ) ;
#69 = ORIENTED_EDGE ( 'NONE', *, *, #771, .F. ) ;
#70 = ADVANCED_FACE ( 'NONE', ( #410 ), #40, .T. ) ;
#71 = AXIS2_PLACEMENT_3D ( 'NONE', #460, #710, #456 ) ;
#72 = DIRECTION ( 'NONE',  ( 0.000000000000000000, -1.000000000000000000, 0.000000000000000000 ) ) ;
#73 = DIRECTION ( 'NONE',  ( -0.000000000000000000, -1.000000000000000000, -0.000000000000000000 ) ) ;
#74 = VERTEX_POINT ( 'NONE', #170 ) ;
#75 = EDGE_CURVE ( 'NONE', #776, #712, #420, .T. ) ;
#76 = PERSON_AND_ORGANIZATION_ROLE ( 'creator' ) ;
#77 = EDGE_CURVE ( 'NONE', #543, #387, #667, .T. ) ;
#78 = CYLINDRICAL_SURFACE ( 'NONE', #71, 5.000000000000000000 ) ;
#79 = AXIS2_PLACEMENT_3D ( 'NONE', #752, #683, #375 ) ;
#80 = CARTESIAN_POINT ( 'NONE',  ( -7.500000000000000000, -7.500000000000000000, 37.50000000000000711 ) ) ;
#81 = ORIENTED_EDGE ( 'NONE', *, *, #797, .T. ) ;
#82 = ADVANCED_FACE ( 'NONE', ( #429 ), #796, .F. ) ;
#83 = DIRECTION ( 'NONE',  ( -0.000000000000000000, -0.000000000000000000, 1.000000000000000000 ) ) ;
#84 = DIRECTION ( 'NONE',  ( -0.000000000000000000, -1.000000000000000000, -0.000000000000000000 ) ) ;
#85 = EDGE_LOOP ( 'NONE', ( #522, #750, #219, #787 ) ) ;
#86 = PERSON_AND_ORGANIZATION ( #564, #801 ) ;
#87 = CARTESIAN_POINT ( 'NONE',  ( 5.000000000000000000, 0.000000000000000000, 0.000000000000000000 ) ) ;
#88 = ORIENTED_EDGE ( 'NONE', *, *, #32, .F. ) ;
#89 = CARTESIAN_POINT ( 'NONE',  ( 0.000000000000000000, 0.000000000000000000, 37.50000000000000711 ) ) ;
#90 = ORIENTED_EDGE ( 'NONE', *, *, #747, .T. ) ;
#91 = VECTOR ( 'NONE', #529, 1000.000000000000000 ) ;
#92 = EDGE_CURVE ( 'NONE', #659, #321, #345, .T. ) ;
#93 = DIRECTION ( 'NONE',  ( 0.000000000000000000, 0.000000000000000000, 1.000000000000000000 ) ) ;
#94 = APPLICATION_CONTEXT ( 'configuration controlled 3d designs of mechanical parts and assemblies' ) ;
#95 = ORIENTED_EDGE ( 'NONE', *, *, #20, .F. ) ;
#96 = AXIS2_PLACEMENT_3D ( 'NONE', #672, #197, #120 ) ;
#97 = CARTESIAN_POINT ( 'NONE',  ( 0.000000000000000000, 0.000000000000000000, 0.000000000000000000 ) ) ;
#98 = CARTESIAN_POINT ( 'NONE',  ( -7.500000000000000000, 250.0000000000000000, 50.00000000000000000 ) ) ;
#99 = EDGE_CURVE ( 'NONE', #746, #111, #252, .T. ) ;
#100 = CARTESIAN_POINT ( 'NONE',  ( 5.000000000000000000, 0.000000000000000000, 50.00000000000000000 ) ) ;
#101 = EDGE_CURVE ( 'NONE', #669, #516, #497, .T. ) ;
#102 = DIRECTION ( 'NONE',  ( -0.000000000000000000, 1.000000000000000000, 1.387778780781445922E-16 ) ) ;
#103 = ORIENTED_EDGE ( 'NONE', *, *, #517, .T. ) ;
#104 = PRODUCT_DEFINITION_SHAPE ( 'NONE', 'NONE',  #594 ) ;
#105 = CC_DESIGN_APPROVAL ( #10, ( #480 ) ) ;
#106 = CC_DESIGN_DATE_AND_TIME_ASSIGNMENT ( #644, #266, ( #352 ) ) ;
#107 = EDGE_LOOP ( 'NONE', ( #141, #724, #528, #740 ) ) ;
#108 = ORIENTED_EDGE ( 'NONE', *, *, #20, .T. ) ;
#109 = VECTOR ( 'NONE', #424, 1000.000000000000000 ) ;
#110 = CIRCLE ( 'NONE', #560, 7.500000000000000000 ) ;
#111 = VERTEX_POINT ( 'NONE', #499 ) ;
#112 = EDGE_CURVE ( 'NONE', #604, #261, #711, .T. ) ;
#113 = ORIENTED_EDGE ( 'NONE', *, *, #741, .T. ) ;
#114 = DIRECTION ( 'NONE',  ( -1.000000000000000000, 0.000000000000000000, 0.000000000000000000 ) ) ;
#115 = ORIENTED_EDGE ( 'NONE', *, *, #158, .T. ) ;
#116 = DIRECTION ( 'NONE',  ( 1.000000000000000000, 0.000000000000000000, 0.000000000000000000 ) ) ;
#117 = ORIENTED_EDGE ( 'NONE', *, *, #777, .T. ) ;
#118 = VECTOR ( 'NONE', #475, 1000.000000000000000 ) ;
#119 = CARTESIAN_POINT ( 'NONE',  ( 0.000000000000000000, 0.000000000000000000, 50.00000000000000000 ) ) ;
#120 = DIRECTION ( 'NONE',  ( 1.000000000000000000, 0.000000000000000000, -0.000000000000000000 ) ) ;
#121 = DIRECTION ( 'NONE',  ( -0.000000000000000000, -0.000000000000000000, 1.000000000000000000 ) ) ;
#122 = ORIENTED_EDGE ( 'NONE', *, *, #316, .T. ) ;
#123 = APPROVAL_ROLE ( '' ) ;
#124 = VECTOR ( 'NONE', #83, 1000.000000000000000 ) ;
#125 = CARTESIAN_POINT ( 'NONE',  ( -7.500000000000000000, 250.0000000000000000, 50.00000000000000000 ) ) ;
#126 = CARTESIAN_POINT ( 'NONE',  ( 0.000000000000000000, 250.0000000000000000, 0.000000000000000000 ) ) ;
#127 = ORIENTED_EDGE ( 'NONE', *, *, #32, .T. ) ;
#128 = CALENDAR_DATE ( 2026, 12, 6 ) ;
#129 = LINE ( 'NONE', #193, #356 ) ;
#130 = EDGE_CURVE ( 'NONE', #469, #297, #751, .T. ) ;
#131 = PLANE ( 'NONE',  #79 ) ;
#132 = ORIENTED_EDGE ( 'NONE', *, *, #293, .F. ) ;
#133 = CIRCLE ( 'NONE', #518, 5.000000000000000000 ) ;
#134 = DATE_AND_TIME ( #128, #161 ) ;
#135 = LOCAL_TIME ( 9, 16, 26.00000000000000000, #271 ) ;
#136 = LINE ( 'NONE', #180, #109 ) ;
#137 = CYLINDRICAL_SURFACE ( 'NONE', #418, 5.000000000000001776 ) ;
#138 = ORIENTED_EDGE ( 'NONE', *, *, #229, .T. ) ;
#139 = CARTESIAN_POINT ( 'NONE',  ( 7.500000000000000000, 250.0000000000000000, 50.00000000000000000 ) ) ;
#140 = CARTESIAN_POINT ( 'NONE',  ( 7.500000000000000000, 250.0000000000000000, 50.00000000000000000 ) ) ;
#141 = ORIENTED_EDGE ( 'NONE', *, *, #293, .T. ) ;
#142 = DIRECTION ( 'NONE',  ( 0.000000000000000000, 1.387778780781445922E-16, -1.000000000000000000 ) ) ;
#143 = CARTESIAN_POINT ( 'NONE',  ( -7.500000000000000000, 207.5000000000000284, 37.50000000000000711 ) ) ;
#144 = ORIENTED_EDGE ( 'NONE', *, *, #380, .F. ) ;
#145 = CC_DESIGN_PERSON_AND_ORGANIZATION_ASSIGNMENT ( #428, #539, ( #291 ) ) ;
#146 = CALENDAR_DATE ( 2026, 12, 6 ) ;
#147 = DIRECTION ( 'NONE',  ( 0.000000000000000000, 0.000000000000000000, -1.000000000000000000 ) ) ;
#148 = VECTOR ( 'NONE', #566, 1000.000000000000000 ) ;
#149 = LINE ( 'NONE', #650, #606 ) ;
#150 = ORIENTED_EDGE ( 'NONE', *, *, #198, .T. ) ;
#151 = EDGE_CURVE ( 'NONE', #200, #339, #129, .T. ) ;
#152 = CARTESIAN_POINT ( 'NONE',  ( 7.500000000000000000, 207.5000000000000284, 37.50000000000000711 ) ) ;
#153 = ORIENTED_EDGE ( 'NONE', *, *, #390, .F. ) ;
#154 = AXIS2_PLACEMENT_3D ( 'NONE', #662, #358, #723 ) ;
#155 = VECTOR ( 'NONE', #262, 1000.000000000000000 ) ;
#156 = LINE ( 'NONE', #399, #773 ) ;
#157 = VERTEX_POINT ( 'NONE', #541 ) ;
#158 = EDGE_CURVE ( 'NONE', #543, #297, #677, .T. ) ;
#159 = DIRECTION ( 'NONE',  ( -0.000000000000000000, -0.000000000000000000, -1.000000000000000000 ) ) ;
#160 = VERTEX_POINT ( 'NONE', #243 ) ;
#161 = LOCAL_TIME ( 9, 16, 26.00000000000000000, #681 ) ;
#162 = LINE ( 'NONE', #143, #361 ) ;
#163 = PLANE ( 'NONE',  #255 ) ;
#164 = AXIS2_PLACEMENT_3D ( 'NONE', #189, #433, #682 ) ;
#165 = DIRECTION ( 'NONE',  ( -0.000000000000000000, 1.000000000000000000, 0.000000000000000000 ) ) ;
#166 = DIRECTION ( 'NONE',  ( 0.000000000000000000, -1.000000000000000000, -0.000000000000000000 ) ) ;
#167 = VERTEX_POINT ( 'NONE', #125 ) ;
#168 = CC_DESIGN_PERSON_AND_ORGANIZATION_ASSIGNMENT ( #554, #800, ( #594 ) ) ;
#169 = CARTESIAN_POINT ( 'NONE',  ( 7.500000000000000000, 250.0000000000000000, 0.000000000000000000 ) ) ;
#170 = CARTESIAN_POINT ( 'NONE',  ( 7.500000000000000000, 0.000000000000000000, 0.000000000000000000 ) ) ;
#171 = EDGE_LOOP ( 'NONE', ( #717, #245 ) ) ;
#172 = AXIS2_PLACEMENT_3D ( 'NONE', #226, #412, #736 ) ;
#173 = DIRECTION ( 'NONE',  ( -0.000000000000000000, -0.000000000000000000, -1.000000000000000000 ) ) ;
#174 = ORIENTED_EDGE ( 'NONE', *, *, #101, .F. ) ;
#175 = VECTOR ( 'NONE', #502, 1000.000000000000000 ) ;
#176 = DIRECTION ( 'NONE',  ( -0.000000000000000000, 1.000000000000000000, 1.387778780781445922E-16 ) ) ;
#177 = DIRECTION ( 'NONE',  ( -0.000000000000000000, -0.000000000000000000, 1.000000000000000000 ) ) ;
#178 = ORIENTED_EDGE ( 'NONE', *, *, #362, .T. ) ;
#179 = EDGE_CURVE ( 'NONE', #157, #228, #370, .T. ) ;
#180 = CARTESIAN_POINT ( 'NONE',  ( 7.500000000000000000, -7.500000000000000000, 37.50000000000000711 ) ) ;
#181 = CARTESIAN_POINT ( 'NONE',  ( 0.000000000000000000, 0.000000000000000000, 0.000000000000000000 ) ) ;
#182 = VERTEX_POINT ( 'NONE', #742 ) ;
#183 = DIRECTION ( 'NONE',  ( 0.000000000000000000, 0.000000000000000000, -1.000000000000000000 ) ) ;
#184 = CARTESIAN_POINT ( 'NONE',  ( 0.000000000000000000, 250.0000000000000000, 50.00000000000000000 ) ) ;
#185 = CARTESIAN_POINT ( 'NONE',  ( 7.500000000000000000, 0.000000000000000000, 50.00000000000000000 ) ) ;
#186 = ORIENTED_EDGE ( 'NONE', *, *, #158, .F. ) ;
#187 = EDGE_CURVE ( 'NONE', #669, #722, #313, .T. ) ;
#188 = AXIS2_PLACEMENT_3D ( 'NONE', #451, #382, #385 ) ;
#189 = CARTESIAN_POINT ( 'NONE',  ( 0.000000000000000000, 0.000000000000000000, 37.50000000000000711 ) ) ;
#190 = CARTESIAN_POINT ( 'NONE',  ( -5.000000000000000000, 6.123233995736766282E-16, 0.000000000000000000 ) ) ;
#191 = ORIENTED_EDGE ( 'NONE', *, *, #112, .F. ) ;
#192 = DATE_AND_TIME ( #498, #28 ) ;
#193 = CARTESIAN_POINT ( 'NONE',  ( -7.500000000000000000, 0.000000000000000000, 50.00000000000000000 ) ) ;
#194 = DIRECTION ( 'NONE',  ( -0.000000000000000000, -0.000000000000000000, -1.000000000000000000 ) ) ;
#195 = EDGE_LOOP ( 'NONE', ( #531, #690, #138, #127 ) ) ;
#196 =( GEOMETRIC_REPRESENTATION_CONTEXT ( 3 ) GLOBAL_UNCERTAINTY_ASSIGNED_CONTEXT ( ( #423 ) ) GLOBAL_UNIT_ASSIGNED_CONTEXT ( ( #478, #422, #602 ) ) REPRESENTATION_CONTEXT ( 'NONE', 'WORKASPACE' ) );
#197 = DIRECTION ( 'NONE',  ( 0.000000000000000000, 0.000000000000000000, 1.000000000000000000 ) ) ;
#198 = EDGE_CURVE ( 'NONE', #251, #728, #617, .T. ) ;
#199 = LINE ( 'NONE', #622, #441 ) ;
#200 = VERTEX_POINT ( 'NONE', #732 ) ;
#201 = LINE ( 'NONE', #573, #600 ) ;
#202 = VECTOR ( 'NONE', #587, 1000.000000000000000 ) ;
#203 = CARTESIAN_POINT ( 'NONE',  ( 5.000000000000000000, 0.000000000000000000, 37.50000000000000711 ) ) ;
#204 = ORIENTED_EDGE ( 'NONE', *, *, #130, .T. ) ;
#205 = EDGE_CURVE ( 'NONE', #547, #774, #136, .T. ) ;
#206 = DIRECTION ( 'NONE',  ( 0.000000000000000000, 0.000000000000000000, -1.000000000000000000 ) ) ;
#207 = LINE ( 'NONE', #634, #148 ) ;
#208 = EDGE_LOOP ( 'NONE', ( #698, #575, #627, #367 ) ) ;
#209 = CYLINDRICAL_SURFACE ( 'NONE', #21, 7.500000000000000000 ) ;
#210 = FACE_OUTER_BOUND ( 'NONE', #753, .T. ) ;
#211 = EDGE_LOOP ( 'NONE', ( #150, #780, #664, #153 ) ) ;
#212 = COORDINATED_UNIVERSAL_TIME_OFFSET ( 8, 0, .AHEAD. ) ;
#213 = ADVANCED_FACE ( 'NONE', ( #377, #625, #308 ), #66, .T. ) ;
#214 = DIRECTION ( 'NONE',  ( -1.000000000000000000, 0.000000000000000000, 0.000000000000000000 ) ) ;
#215 = EDGE_LOOP ( 'NONE', ( #571, #69, #735, #648 ) ) ;
#216 = AXIS2_PLACEMENT_3D ( 'NONE', #775, #93, #713 ) ;
#217 = EDGE_CURVE ( 'NONE', #511, #659, #561, .T. ) ;
#218 = LINE ( 'NONE', #514, #268 ) ;
#219 = ORIENTED_EDGE ( 'NONE', *, *, #390, .T. ) ;
#220 = CARTESIAN_POINT ( 'NONE',  ( -7.500000000000000000, 57.50000000000000000, 37.50000000000000711 ) ) ;
#221 = ORIENTED_EDGE ( 'NONE', *, *, #380, .T. ) ;
#222 = ADVANCED_FACE ( 'NONE', ( #304, #7 ), #545, .F. ) ;
#223 = EDGE_CURVE ( 'NONE', #516, #669, #238, .T. ) ;
#224 = CARTESIAN_POINT ( 'NONE',  ( 0.000000000000000000, 250.0000000000000000, 0.000000000000000000 ) ) ;
#225 = FACE_OUTER_BOUND ( 'NONE', #557, .T. ) ;
#226 = CARTESIAN_POINT ( 'NONE',  ( 0.000000000000000000, 250.0000000000000000, 37.50000000000000711 ) ) ;
#227 = CARTESIAN_POINT ( 'NONE',  ( -7.500000000000000000, 0.000000000000000000, 50.00000000000000000 ) ) ;
#228 = VERTEX_POINT ( 'NONE', #506 ) ;
#229 = EDGE_CURVE ( 'NONE', #479, #635, #156, .T. ) ;
#230 = DIRECTION ( 'NONE',  ( 1.000000000000000000, 0.000000000000000000, 0.000000000000000000 ) ) ;
#231 = ORIENTED_EDGE ( 'NONE', *, *, #303, .T. ) ;
#232 = ORIENTED_EDGE ( 'NONE', *, *, #246, .T. ) ;
#233 = CIRCLE ( 'NONE', #389, 7.500000000000000000 ) ;
#234 = DIRECTION ( 'NONE',  ( 0.000000000000000000, 0.000000000000000000, 1.000000000000000000 ) ) ;
#235 = ADVANCED_FACE ( 'NONE', ( #576 ), #78, .F. ) ;
#236 = DIRECTION ( 'NONE',  ( 1.000000000000000000, 0.000000000000000000, 0.000000000000000000 ) ) ;
#237 = ORIENTED_EDGE ( 'NONE', *, *, #605, .T. ) ;
#238 = CIRCLE ( 'NONE', #164, 5.000000000000000000 ) ;
#239 = CARTESIAN_POINT ( 'NONE',  ( 0.000000000000000000, 0.000000000000000000, 50.00000000000000000 ) ) ;
#240 = DIRECTION ( 'NONE',  ( -0.000000000000000000, -0.000000000000000000, 1.000000000000000000 ) ) ;
#241 = CARTESIAN_POINT ( 'NONE',  ( 7.500000000000000000, 0.000000000000000000, 50.00000000000000000 ) ) ;
#242 = EDGE_LOOP ( 'NONE', ( #348, #655 ) ) ;
#243 = CARTESIAN_POINT ( 'NONE',  ( 5.000000000000000000, 0.000000000000000000, 12.50000000000000355 ) ) ;
#244 = DIRECTION ( 'NONE',  ( 1.000000000000000000, 0.000000000000000000, 0.000000000000000000 ) ) ;
#245 = ORIENTED_EDGE ( 'NONE', *, *, #540, .T. ) ;
#246 = EDGE_CURVE ( 'NONE', #160, #64, #381, .T. ) ;
#247 = VECTOR ( 'NONE', #366, 1000.000000000000000 ) ;
#248 = COORDINATED_UNIVERSAL_TIME_OFFSET ( 8, 0, .AHEAD. ) ;
#249 = DIRECTION ( 'NONE',  ( -1.000000000000000000, 0.000000000000000000, -0.000000000000000000 ) ) ;
#250 = CARTESIAN_POINT ( 'NONE',  ( 5.000000000000001776, 250.0000000000000000, 37.50000000000000711 ) ) ;
#251 = VERTEX_POINT ( 'NONE', #139 ) ;
#252 = CIRCLE ( 'NONE', #280, 5.000000000000000000 ) ;
#253 = AXIS2_PLACEMENT_3D ( 'NONE', #185, #490, #739 ) ;
#254 = CARTESIAN_POINT ( 'NONE',  ( 0.000000000000000000, 0.000000000000000000, 37.50000000000000711 ) ) ;
#255 = AXIS2_PLACEMENT_3D ( 'NONE', #227, #236, #524 ) ;
#256 = DIRECTION ( 'NONE',  ( 0.000000000000000000, 0.000000000000000000, 1.000000000000000000 ) ) ;
#257 = VERTEX_POINT ( 'NONE', #329 ) ;
#258 = ADVANCED_FACE ( 'NONE', ( #509, #696 ), #569, .F. ) ;
#259 = CARTESIAN_POINT ( 'NONE',  ( -7.500000000000000000, 57.50000000000000000, 37.50000000000000711 ) ) ;
#260 = LINE ( 'NONE', #190, #414 ) ;
#261 = VERTEX_POINT ( 'NONE', #22 ) ;
#262 = DIRECTION ( 'NONE',  ( 0.000000000000000000, -1.000000000000000000, 0.000000000000000000 ) ) ;
#263 = EDGE_CURVE ( 'NONE', #693, #774, #694, .T. ) ;
#264 = LINE ( 'NONE', #392, #766 ) ;
#265 = EDGE_LOOP ( 'NONE', ( #117, #178, #103, #90, #393, #45, #444, #483, #462, #703, #95, #440 ) ) ;
#266 = DATE_TIME_ROLE ( 'classification_date' ) ;
#267 = CARTESIAN_POINT ( 'NONE',  ( -7.500000000000000000, 249.9999999999999716, 37.50000000000000711 ) ) ;
#268 = VECTOR ( 'NONE', #72, 1000.000000000000000 ) ;
#269 = DIRECTION ( 'NONE',  ( -0.000000000000000000, -0.000000000000000000, -1.000000000000000000 ) ) ;
#270 = ORIENTED_EDGE ( 'NONE', *, *, #665, .F. ) ;
#271 = COORDINATED_UNIVERSAL_TIME_OFFSET ( 8, 0, .AHEAD. ) ;
#272 = DIRECTION ( 'NONE',  ( 0.000000000000000000, 1.000000000000000000, 0.000000000000000000 ) ) ;
#273 = DIRECTION ( 'NONE',  ( 1.000000000000000000, 0.000000000000000000, -0.000000000000000000 ) ) ;
#274 = ORIENTED_EDGE ( 'NONE', *, *, #405, .T. ) ;
#275 = ADVANCED_FACE ( 'NONE', ( #464 ), #209, .T. ) ;
#276 = DIRECTION ( 'NONE',  ( 1.000000000000000000, 0.000000000000000000, 0.000000000000000000 ) ) ;
#277 = ORIENTED_EDGE ( 'NONE', *, *, #198, .F. ) ;
#278 = DIRECTION ( 'NONE',  ( 0.000000000000000000, 0.000000000000000000, 1.000000000000000000 ) ) ;
#279 = VERTEX_POINT ( 'NONE', #758 ) ;
#280 = AXIS2_PLACEMENT_3D ( 'NONE', #748, #58, #805 ) ;
#281 = EDGE_CURVE ( 'NONE', #257, #511, #290, .T. ) ;
#282 = DIRECTION ( 'NONE',  ( -0.000000000000000000, -0.000000000000000000, 1.000000000000000000 ) ) ;
#283 = FACE_OUTER_BOUND ( 'NONE', #265, .T. ) ;
#284 = DIRECTION ( 'NONE',  ( 0.000000000000000000, 0.000000000000000000, 1.000000000000000000 ) ) ;
#285 = DIRECTION ( 'NONE',  ( -0.000000000000000000, -0.000000000000000000, 1.000000000000000000 ) ) ;
#286 = CC_DESIGN_APPROVAL ( #454, ( #594 ) ) ;
#287 = ORIENTED_EDGE ( 'NONE', *, *, #322, .F. ) ;
#288 = CARTESIAN_POINT ( 'NONE',  ( -7.500000000000000000, 57.50000000000000000, 37.50000000000000711 ) ) ;
#289 = VERTEX_POINT ( 'NONE', #152 ) ;
#290 = CIRCLE ( 'NONE', #472, 5.000000000000001776 ) ;
#291 = PRODUCT ( 'link2_upper_arm_\X2\9ed88ba4\X0\_sldprt', 'link2_upper_arm_\X2\9ed88ba4\X0\_sldprt', '', ( #298 ) ) ;
#292 = VERTEX_POINT ( 'NONE', #267 ) ;
#293 = EDGE_CURVE ( 'NONE', #728, #289, #396, .T. ) ;
#294 = CARTESIAN_POINT ( 'NONE',  ( 0.000000000000000000, 0.000000000000000000, 12.50000000000000355 ) ) ;
#295 = DESIGN_CONTEXT ( 'detailed design', #332, 'design' ) ;
#296 = CARTESIAN_POINT ( 'NONE',  ( -7.500000000000000000, 0.000000000000000000, 50.00000000000000000 ) ) ;
#297 = VERTEX_POINT ( 'NONE', #642 ) ;
#298 = MECHANICAL_CONTEXT ( 'NONE', #94, 'mechanical' ) ;
#299 = DIRECTION ( 'NONE',  ( 1.000000000000000000, 0.000000000000000000, 0.000000000000000000 ) ) ;
#300 = CARTESIAN_POINT ( 'NONE',  ( 0.000000000000000000, 0.000000000000000000, 0.000000000000000000 ) ) ;
#301 = ORIENTED_EDGE ( 'NONE', *, *, #540, .F. ) ;
#302 = FACE_OUTER_BOUND ( 'NONE', #614, .T. ) ;
#303 = EDGE_CURVE ( 'NONE', #228, #712, #572, .T. ) ;
#304 = FACE_BOUND ( 'NONE', #784, .T. ) ;
#305 = DIRECTION ( 'NONE',  ( 0.000000000000000000, 1.000000000000000000, 0.000000000000000000 ) ) ;
#306 = ORIENTED_EDGE ( 'NONE', *, *, #665, .T. ) ;
#307 = CARTESIAN_POINT ( 'NONE',  ( 0.000000000000000000, 250.0000000000000000, 37.50000000000000711 ) ) ;
#308 = FACE_OUTER_BOUND ( 'NONE', #85, .T. ) ;
#309 = DIRECTION ( 'NONE',  ( 0.000000000000000000, 1.387778780781445922E-16, -1.000000000000000000 ) ) ;
#310 = ORIENTED_EDGE ( 'NONE', *, *, #263, .T. ) ;
#311 = VECTOR ( 'NONE', #165, 1000.000000000000000 ) ;
#312 = DATE_TIME_ROLE ( 'creation_date' ) ;
#313 = LINE ( 'NONE', #437, #459 ) ;
#314 = DIRECTION ( 'NONE',  ( 1.000000000000000000, 0.000000000000000000, 0.000000000000000000 ) ) ;
#315 = ORIENTED_EDGE ( 'NONE', *, *, #618, .F. ) ;
#316 = EDGE_CURVE ( 'NONE', #64, #160, #745, .T. ) ;
#317 = CIRCLE ( 'NONE', #782, 5.000000000000001776 ) ;
#318 = CARTESIAN_POINT ( 'NONE',  ( 0.000000000000000000, 0.000000000000000000, 50.00000000000000000 ) ) ;
#319 = VECTOR ( 'NONE', #365, 1000.000000000000000 ) ;
#320 = CARTESIAN_POINT ( 'NONE',  ( -7.500000000000000000, 57.50000000000000000, 12.50000000000000355 ) ) ;
#321 = VERTEX_POINT ( 'NONE', #30 ) ;
#322 = EDGE_CURVE ( 'NONE', #746, #160, #391, .T. ) ;
#323 = FACE_OUTER_BOUND ( 'NONE', #804, .T. ) ;
#324 = DIRECTION ( 'NONE',  ( -0.000000000000000000, -0.000000000000000000, -1.000000000000000000 ) ) ;
#325 = EDGE_LOOP ( 'NONE', ( #376, #174, #415, #113 ) ) ;
#326 = EDGE_CURVE ( 'NONE', #760, #533, #110, .T. ) ;
#327 = CC_DESIGN_SECURITY_CLASSIFICATION ( #352, ( #480 ) ) ;
#328 = PERSON_AND_ORGANIZATION ( #564, #801 ) ;
#329 = CARTESIAN_POINT ( 'NONE',  ( -5.000000000000001776, 250.0000000000000000, 37.50000000000000711 ) ) ;
#330 = CARTESIAN_POINT ( 'NONE',  ( 0.000000000000000000, 250.0000000000000000, 12.50000000000001066 ) ) ;
#331 = ORIENTED_EDGE ( 'NONE', *, *, #695, .F. ) ;
#332 = APPLICATION_CONTEXT ( 'configuration controlled 3d designs of mechanical parts and assemblies' ) ;
#333 = DIRECTION ( 'NONE',  ( 0.000000000000000000, -0.000000000000000000, 1.000000000000000000 ) ) ;
#334 = AXIS2_PLACEMENT_3D ( 'NONE', #612, #309, #305 ) ;
#335 = PLANE ( 'NONE',  #492 ) ;
#336 = ORIENTED_EDGE ( 'NONE', *, *, #322, .T. ) ;
#337 = EDGE_CURVE ( 'NONE', #74, #760, #201, .T. ) ;
#338 = CARTESIAN_POINT ( 'NONE',  ( 0.000000000000000000, 250.0000000000000000, 0.000000000000000000 ) ) ;
#339 = VERTEX_POINT ( 'NONE', #768 ) ;
#340 = EDGE_CURVE ( 'NONE', #321, #659, #3, .T. ) ;
#341 = CARTESIAN_POINT ( 'NONE',  ( 7.500000000000000000, 257.5000000000000000, 37.50000000000000711 ) ) ;
#342 = ORIENTED_EDGE ( 'NONE', *, *, #263, .F. ) ;
#343 = CYLINDRICAL_SURFACE ( 'NONE', #461, 5.000000000000000000 ) ;
#344 = ORIENTED_EDGE ( 'NONE', *, *, #401, .T. ) ;
#345 = CIRCLE ( 'NONE', #408, 5.000000000000001776 ) ;
#346 = CARTESIAN_POINT ( 'NONE',  ( 0.000000000000000000, 250.0000000000000000, 0.000000000000000000 ) ) ;
#347 = FACE_OUTER_BOUND ( 'NONE', #325, .T. ) ;
#348 = ORIENTED_EDGE ( 'NONE', *, *, #92, .F. ) ;
#349 = APPROVAL ( #402, '未指定' ) ;
#350 = LINE ( 'NONE', #288, #91 ) ;
#351 = CARTESIAN_POINT ( 'NONE',  ( -5.000000000000000000, 6.123233995736766282E-16, 12.50000000000000355 ) ) ;
#352 = SECURITY_CLASSIFICATION ( '', '', #767 ) ;
#353 = ORIENTED_EDGE ( 'NONE', *, *, #588, .F. ) ;
#354 = DIRECTION ( 'NONE',  ( -1.000000000000000000, 0.000000000000000000, 0.000000000000000000 ) ) ;
#355 = CYLINDRICAL_SURFACE ( 'NONE', #743, 5.000000000000000000 ) ;
#356 = VECTOR ( 'NONE', #373, 1000.000000000000000 ) ;
#357 = CARTESIAN_POINT ( 'NONE',  ( 0.000000000000000000, 0.000000000000000000, 0.000000000000000000 ) ) ;
#358 = DIRECTION ( 'NONE',  ( -0.000000000000000000, -0.000000000000000000, -1.000000000000000000 ) ) ;
#359 = DIRECTION ( 'NONE',  ( 1.000000000000000000, 0.000000000000000000, 0.000000000000000000 ) ) ;
#360 = DIRECTION ( 'NONE',  ( -0.000000000000000000, -0.000000000000000000, 1.000000000000000000 ) ) ;
#361 = VECTOR ( 'NONE', #783, 1000.000000000000000 ) ;
#362 = EDGE_CURVE ( 'NONE', #292, #279, #218, .T. ) ;
#363 = CARTESIAN_POINT ( 'NONE',  ( 5.000000000000000000, 0.000000000000000000, 0.000000000000000000 ) ) ;
#364 = ADVANCED_FACE ( 'NONE', ( #323 ), #565, .T. ) ;
#365 = DIRECTION ( 'NONE',  ( -0.000000000000000000, -0.000000000000000000, 1.000000000000000000 ) ) ;
#366 = DIRECTION ( 'NONE',  ( 0.000000000000000000, 0.000000000000000000, -1.000000000000000000 ) ) ;
#367 = ORIENTED_EDGE ( 'NONE', *, *, #187, .F. ) ;
#368 = AXIS2_PLACEMENT_3D ( 'NONE', #647, #159, #586 ) ;
#369 = COORDINATED_UNIVERSAL_TIME_OFFSET ( 8, 0, .AHEAD. ) ;
#370 = LINE ( 'NONE', #621, #319 ) ;
#371 = CARTESIAN_POINT ( 'NONE',  ( 0.000000000000000000, 0.000000000000000000, 50.00000000000000000 ) ) ;
#372 = EDGE_LOOP ( 'NONE', ( #108, #310, #453, #191 ) ) ;
#373 = DIRECTION ( 'NONE',  ( -0.000000000000000000, -0.000000000000000000, -1.000000000000000000 ) ) ;
#374 = ADVANCED_FACE ( 'NONE', ( #403 ), #343, .F. ) ;
#375 = DIRECTION ( 'NONE',  ( 1.000000000000000000, 0.000000000000000000, -0.000000000000000000 ) ) ;
#376 = ORIENTED_EDGE ( 'NONE', *, *, #553, .F. ) ;
#377 = FACE_BOUND ( 'NONE', #242, .T. ) ;
#378 = CARTESIAN_POINT ( 'NONE',  ( -7.500000000000000000, 207.5000000000000284, 12.50000000000000355 ) ) ;
#379 = ORIENTED_EDGE ( 'NONE', *, *, #217, .F. ) ;
#380 = EDGE_CURVE ( 'NONE', #339, #74, #719, .T. ) ;
#381 = CIRCLE ( 'NONE', #530, 5.000000000000000000 ) ;
#382 = DIRECTION ( 'NONE',  ( 0.000000000000000000, 1.387778780781445922E-16, -1.000000000000000000 ) ) ;
#383 = CARTESIAN_POINT ( 'NONE',  ( 0.000000000000000000, 250.0000000000000000, 0.000000000000000000 ) ) ;
#384 = ORIENTED_EDGE ( 'NONE', *, *, #99, .F. ) ;
#385 = DIRECTION ( 'NONE',  ( 0.000000000000000000, 1.000000000000000000, 0.000000000000000000 ) ) ;
#386 = CARTESIAN_POINT ( 'NONE',  ( -7.500000000000000000, -7.500000000000000000, 37.50000000000000711 ) ) ;
#387 = VERTEX_POINT ( 'NONE', #220 ) ;
#388 = ADVANCED_FACE ( 'NONE', ( #608 ), #8, .F. ) ;
#389 = AXIS2_PLACEMENT_3D ( 'NONE', #307, #548, #488 ) ;
#390 = EDGE_CURVE ( 'NONE', #251, #167, #532, .T. ) ;
#391 = LINE ( 'NONE', #87, #124 ) ;
#392 = CARTESIAN_POINT ( 'NONE',  ( 7.500000000000000000, 57.50000000000000000, 37.50000000000000711 ) ) ;
#393 = ORIENTED_EDGE ( 'NONE', *, *, #29, .T. ) ;
#394 = PRODUCT_RELATED_PRODUCT_CATEGORY ( 'detail', '', ( #291 ) ) ;
#395 = CLOSED_SHELL ( 'NONE', ( #235, #374, #388, #699, #733, #70, #275, #466, #364, #17, #213, #718, #601, #222, #82, #578, #258, #65, #675, #474, #438, #47 ) ) ;
#396 = LINE ( 'NONE', #341, #155 ) ;
#397 = AXIS2_PLACEMENT_3D ( 'NONE', #446, #278, #628 ) ;
#398 = ORIENTED_EDGE ( 'NONE', *, *, #77, .F. ) ;
#399 = CARTESIAN_POINT ( 'NONE',  ( -7.500000000000000000, 207.5000000000000284, 12.50000000000000355 ) ) ;
#400 = EDGE_LOOP ( 'NONE', ( #27, #46 ) ) ;
#401 = EDGE_CURVE ( 'NONE', #712, #228, #42, .T. ) ;
#402 = APPROVAL_STATUS ( 'not_yet_approved' ) ;
#403 = FACE_OUTER_BOUND ( 'NONE', #707, .T. ) ;
#404 = ORIENTED_EDGE ( 'NONE', *, *, #337, .T. ) ;
#405 = EDGE_CURVE ( 'NONE', #157, #776, #317, .T. ) ;
#406 = LINE ( 'NONE', #386, #12 ) ;
#407 = DIRECTION ( 'NONE',  ( -0.000000000000000000, -0.000000000000000000, -1.000000000000000000 ) ) ;
#408 = AXIS2_PLACEMENT_3D ( 'NONE', #184, #555, #359 ) ;
#409 = DIRECTION ( 'NONE',  ( 1.000000000000000000, 0.000000000000000000, 0.000000000000000000 ) ) ;
#410 = FACE_OUTER_BOUND ( 'NONE', #211, .T. ) ;
#411 = ORIENTED_EDGE ( 'NONE', *, *, #246, .F. ) ;
#412 = DIRECTION ( 'NONE',  ( 0.000000000000000000, 0.000000000000000000, 1.000000000000000000 ) ) ;
#413 = CARTESIAN_POINT ( 'NONE',  ( -5.000000000000001776, 250.0000000000000000, 0.000000000000000000 ) ) ;
#414 = VECTOR ( 'NONE', #434, 1000.000000000000000 ) ;
#415 = ORIENTED_EDGE ( 'NONE', *, *, #187, .T. ) ;
#416 = APPROVAL_DATE_TIME ( #134, #10 ) ;
#417 = ORIENTED_EDGE ( 'NONE', *, *, #281, .F. ) ;
#418 = AXIS2_PLACEMENT_3D ( 'NONE', #430, #803, #734 ) ;
#419 = CARTESIAN_POINT ( 'NONE',  ( -5.000000000000001776, 250.0000000000000000, 0.000000000000000000 ) ) ;
#420 = LINE ( 'NONE', #413, #598 ) ;
#421 = EDGE_LOOP ( 'NONE', ( #331, #501, #577, #342 ) ) ;
#422 =( NAMED_UNIT ( * ) PLANE_ANGLE_UNIT ( ) SI_UNIT ( $, .RADIAN. ) );
#423 = UNCERTAINTY_MEASURE_WITH_UNIT (LENGTH_MEASURE( 1.000000000000000082E-05 ), #478, 'distance_accuracy_value', 'NONE');
#424 = DIRECTION ( 'NONE',  ( -0.000000000000000000, -1.000000000000000000, -0.000000000000000000 ) ) ;
#425 = PLANE ( 'NONE',  #253 ) ;
#426 = ORIENTED_EDGE ( 'NONE', *, *, #588, .T. ) ;
#427 = VECTOR ( 'NONE', #176, 1000.000000000000000 ) ;
#428 = PERSON_AND_ORGANIZATION ( #564, #801 ) ;
#429 = FACE_OUTER_BOUND ( 'NONE', #465, .T. ) ;
#430 = CARTESIAN_POINT ( 'NONE',  ( 0.000000000000000000, 250.0000000000000000, 0.000000000000000000 ) ) ;
#431 = ORIENTED_EDGE ( 'NONE', *, *, #590, .F. ) ;
#432 = AXIS2_PLACEMENT_3D ( 'NONE', #581, #147, #632 ) ;
#433 = DIRECTION ( 'NONE',  ( 0.000000000000000000, -0.000000000000000000, 1.000000000000000000 ) ) ;
#434 = DIRECTION ( 'NONE',  ( -0.000000000000000000, -0.000000000000000000, 1.000000000000000000 ) ) ;
#435 = VERTEX_POINT ( 'NONE', #50 ) ;
#436 = APPROVAL_STATUS ( 'not_yet_approved' ) ;
#437 = CARTESIAN_POINT ( 'NONE',  ( 5.000000000000000000, 0.000000000000000000, 0.000000000000000000 ) ) ;
#438 = ADVANCED_FACE ( 'NONE', ( #556 ), #546, .F. ) ;
#439 = FACE_OUTER_BOUND ( 'NONE', #714, .T. ) ;
#440 = ORIENTED_EDGE ( 'NONE', *, *, #705, .F. ) ;
#441 = VECTOR ( 'NONE', #673, 1000.000000000000000 ) ;
#442 = DIRECTION ( 'NONE',  ( 0.000000000000000000, 0.000000000000000000, 1.000000000000000000 ) ) ;
#443 = DIRECTION ( 'NONE',  ( -0.000000000000000000, -0.000000000000000000, 1.000000000000000000 ) ) ;
#444 = ORIENTED_EDGE ( 'NONE', *, *, #151, .F. ) ;
#445 = AXIS2_PLACEMENT_3D ( 'NONE', #471, #166, #721 ) ;
#446 = CARTESIAN_POINT ( 'NONE',  ( 0.000000000000000000, 250.0000000000000000, 50.00000000000000000 ) ) ;
#447 = CYLINDRICAL_SURFACE ( 'NONE', #704, 5.000000000000001776 ) ;
#448 = ORIENTED_EDGE ( 'NONE', *, *, #303, .F. ) ;
#449 = EDGE_CURVE ( 'NONE', #261, #774, #798, .T. ) ;
#450 = APPROVAL_DATE_TIME ( #641, #349 ) ;
#451 = CARTESIAN_POINT ( 'NONE',  ( 0.000000000000000000, 250.0000000000000000, 12.50000000000000888 ) ) ;
#452 = CYLINDRICAL_SURFACE ( 'NONE', #726, 5.000000000000001776 ) ;
#453 = ORIENTED_EDGE ( 'NONE', *, *, #449, .F. ) ;
#454 = APPROVAL ( #676, '未指定' ) ;
#455 = APPROVAL_PERSON_ORGANIZATION ( #493, #10, #685 ) ;
#456 = DIRECTION ( 'NONE',  ( 1.000000000000000000, 0.000000000000000000, 0.000000000000000000 ) ) ;
#457 = ORIENTED_EDGE ( 'NONE', *, *, #405, .F. ) ;
#458 = SHAPE_DEFINITION_REPRESENTATION ( #104, #633 ) ;
#459 = VECTOR ( 'NONE', #240, 1000.000000000000000 ) ;
#460 = CARTESIAN_POINT ( 'NONE',  ( 0.000000000000000000, 0.000000000000000000, 0.000000000000000000 ) ) ;
#461 = AXIS2_PLACEMENT_3D ( 'NONE', #33, #282, #523 ) ;
#462 = ORIENTED_EDGE ( 'NONE', *, *, #77, .T. ) ;
#463 = AXIS2_PLACEMENT_3D ( 'NONE', #549, #802, #249 ) ;
#464 = FACE_OUTER_BOUND ( 'NONE', #372, .T. ) ;
#465 = EDGE_LOOP ( 'NONE', ( #630, #769, #398, #115 ) ) ;
#466 = ADVANCED_FACE ( 'NONE', ( #439 ), #425, .F. ) ;
#467 = FACE_OUTER_BOUND ( 'NONE', #421, .T. ) ;
#468 = CIRCLE ( 'NONE', #172, 5.000000000000001776 ) ;
#469 = VERTEX_POINT ( 'NONE', #2 ) ;
#470 = DIRECTION ( 'NONE',  ( 1.000000000000000000, 0.000000000000000000, -0.000000000000000000 ) ) ;
#471 = CARTESIAN_POINT ( 'NONE',  ( -7.500000000000000000, 207.5000000000000284, 37.50000000000000711 ) ) ;
#472 = AXIS2_PLACEMENT_3D ( 'NONE', #637, #706, #772 ) ;
#473 = EDGE_LOOP ( 'NONE', ( #781, #457, #14, #477 ) ) ;
#474 = ADVANCED_FACE ( 'NONE', ( #689 ), #137, .F. ) ;
#475 = DIRECTION ( 'NONE',  ( 0.000000000000000000, 1.000000000000000000, 0.000000000000000000 ) ) ;
#476 = CARTESIAN_POINT ( 'NONE',  ( 7.500000000000000000, 257.5000000000000000, 12.50000000000001066 ) ) ;
#477 = ORIENTED_EDGE ( 'NONE', *, *, #401, .F. ) ;
#478 =( LENGTH_UNIT ( ) NAMED_UNIT ( * ) SI_UNIT ( .MILLI., .METRE. ) );
#479 = VERTEX_POINT ( 'NONE', #378 ) ;
#480 = PRODUCT_DEFINITION_FORMATION_WITH_SPECIFIED_SOURCE ( '任何', '', #291, .NOT_KNOWN. ) ;
#481 = DIRECTION ( 'NONE',  ( -0.000000000000000000, -0.000000000000000000, -1.000000000000000000 ) ) ;
#482 = LINE ( 'NONE', #98, #202 ) ;
#483 = ORIENTED_EDGE ( 'NONE', *, *, #618, .T. ) ;
#484 = CARTESIAN_POINT ( 'NONE',  ( 7.500000000000000000, 250.0000000000000000, 50.00000000000000000 ) ) ;
#485 = CARTESIAN_POINT ( 'NONE',  ( -7.500000000000000000, 207.5000000000000284, 37.50000000000000711 ) ) ;
#486 = VERTEX_POINT ( 'NONE', #626 ) ;
#487 = EDGE_CURVE ( 'NONE', #435, #722, #770, .T. ) ;
#488 = DIRECTION ( 'NONE',  ( 1.000000000000000000, 0.000000000000000000, 0.000000000000000000 ) ) ;
#489 = CARTESIAN_POINT ( 'NONE',  ( 7.500000000000000000, -7.500000000000000000, 12.50000000000000355 ) ) ;
#490 = DIRECTION ( 'NONE',  ( -1.000000000000000000, 0.000000000000000000, 0.000000000000000000 ) ) ;
#491 = ORIENTED_EDGE ( 'NONE', *, *, #326, .F. ) ;
#492 = AXIS2_PLACEMENT_3D ( 'NONE', #80, #35, #273 ) ;
#493 = PERSON_AND_ORGANIZATION ( #564, #801 ) ;
#494 = DIRECTION ( 'NONE',  ( -0.000000000000000000, -0.000000000000000000, 1.000000000000000000 ) ) ;
#495 = DIRECTION ( 'NONE',  ( 0.000000000000000000, 0.000000000000000000, 1.000000000000000000 ) ) ;
#496 = ORIENTED_EDGE ( 'NONE', *, *, #741, .F. ) ;
#497 = CIRCLE ( 'NONE', #5, 5.000000000000000000 ) ;
#498 = CALENDAR_DATE ( 2026, 12, 6 ) ;
#499 = CARTESIAN_POINT ( 'NONE',  ( -5.000000000000000000, 6.123233995736766282E-16, 0.000000000000000000 ) ) ;
#500 = DIRECTION ( 'NONE',  ( 1.000000000000000000, 0.000000000000000000, 0.000000000000000000 ) ) ;
#501 = ORIENTED_EDGE ( 'NONE', *, *, #727, .T. ) ;
#502 = DIRECTION ( 'NONE',  ( 0.000000000000000000, 1.000000000000000000, 0.000000000000000000 ) ) ;
#503 = FACE_OUTER_BOUND ( 'NONE', #107, .T. ) ;
#504 = ORIENTED_EDGE ( 'NONE', *, *, #337, .F. ) ;
#505 = VECTOR ( 'NONE', #443, 1000.000000000000000 ) ;
#506 = CARTESIAN_POINT ( 'NONE',  ( 5.000000000000001776, 250.0000000000000000, 12.50000000000000888 ) ) ;
#507 = DIRECTION ( 'NONE',  ( 0.000000000000000000, 0.000000000000000000, 1.000000000000000000 ) ) ;
#508 = ORIENTED_EDGE ( 'NONE', *, *, #590, .T. ) ;
#509 = FACE_BOUND ( 'NONE', #680, .T. ) ;
#510 = CARTESIAN_POINT ( 'NONE',  ( -7.500000000000000000, 0.000000000000000000, 50.00000000000000000 ) ) ;
#511 = VERTEX_POINT ( 'NONE', #250 ) ;
#512 = CC_DESIGN_PERSON_AND_ORGANIZATION_ASSIGNMENT ( #86, #700, ( #480 ) ) ;
#513 = PERSON_AND_ORGANIZATION ( #564, #801 ) ;
#514 = CARTESIAN_POINT ( 'NONE',  ( -7.500000000000000000, 0.000000000000000000, 37.50000000000000711 ) ) ;
#515 = FACE_BOUND ( 'NONE', #171, .T. ) ;
#516 = VERTEX_POINT ( 'NONE', #619 ) ;
#517 = EDGE_CURVE ( 'NONE', #279, #479, #67, .T. ) ;
#518 = AXIS2_PLACEMENT_3D ( 'NONE', #119, #597, #44 ) ;
#519 = DIRECTION ( 'NONE',  ( 1.000000000000000000, 0.000000000000000000, 0.000000000000000000 ) ) ;
#520 = EDGE_LOOP ( 'NONE', ( #417, #37, #756, #379 ) ) ;
#521 = DIRECTION ( 'NONE',  ( -1.000000000000000000, 0.000000000000000000, 0.000000000000000000 ) ) ;
#522 = ORIENTED_EDGE ( 'NONE', *, *, #112, .T. ) ;
#523 = DIRECTION ( 'NONE',  ( 1.000000000000000000, 0.000000000000000000, 0.000000000000000000 ) ) ;
#524 = DIRECTION ( 'NONE',  ( 0.000000000000000000, 0.000000000000000000, -1.000000000000000000 ) ) ;
#525 = CARTESIAN_POINT ( 'NONE',  ( 7.500000000000000000, 0.000000000000000000, 50.00000000000000000 ) ) ;
#526 = APPROVAL_PERSON_ORGANIZATION ( #544, #454, #123 ) ;
#527 = ORIENTED_EDGE ( 'NONE', *, *, #517, .F. ) ;
#528 = ORIENTED_EDGE ( 'NONE', *, *, #362, .F. ) ;
#529 = DIRECTION ( 'NONE',  ( 1.000000000000000000, -0.000000000000000000, -0.000000000000000000 ) ) ;
#530 = AXIS2_PLACEMENT_3D ( 'NONE', #701, #206, #214 ) ;
#531 = ORIENTED_EDGE ( 'NONE', *, *, #652, .F. ) ;
#532 = CIRCLE ( 'NONE', #663, 7.500000000000000000 ) ;
#533 = VERTEX_POINT ( 'NONE', #678 ) ;
#534 = ORIENTED_EDGE ( 'NONE', *, *, #605, .F. ) ;
#535 = APPLICATION_PROTOCOL_DEFINITION ( 'international standard', 'config_control_design', 1994, #94 ) ;
#536 = CIRCLE ( 'NONE', #624, 7.500000000000000000 ) ;
#537 = ORIENTED_EDGE ( 'NONE', *, *, #130, .F. ) ;
#538 = ORIENTED_EDGE ( 'NONE', *, *, #151, .T. ) ;
#539 = PERSON_AND_ORGANIZATION_ROLE ( 'design_owner' ) ;
#540 = EDGE_CURVE ( 'NONE', #111, #746, #715, .T. ) ;
#541 = CARTESIAN_POINT ( 'NONE',  ( 5.000000000000001776, 250.0000000000000000, 0.000000000000000000 ) ) ;
#542 = CARTESIAN_POINT ( 'NONE',  ( 0.000000000000000000, 250.0000000000000000, 0.000000000000000000 ) ) ;
#543 = VERTEX_POINT ( 'NONE', #320 ) ;
#544 = PERSON_AND_ORGANIZATION ( #564, #801 ) ;
#545 = PLANE ( 'NONE',  #463 ) ;
#546 = CYLINDRICAL_SURFACE ( 'NONE', #708, 5.000000000000000000 ) ;
#547 = VERTEX_POINT ( 'NONE', #744 ) ;
#548 = DIRECTION ( 'NONE',  ( 0.000000000000000000, 0.000000000000000000, 1.000000000000000000 ) ) ;
#549 = CARTESIAN_POINT ( 'NONE',  ( -7.500000000000000000, -7.500000000000000000, 12.50000000000000355 ) ) ;
#550 = DIRECTION ( 'NONE',  ( 1.000000000000000000, 0.000000000000000000, 0.000000000000000000 ) ) ;
#551 = EDGE_LOOP ( 'NONE', ( #431, #384, #336, #24 ) ) ;
#552 = VECTOR ( 'NONE', #173, 1000.000000000000000 ) ;
#553 = EDGE_CURVE ( 'NONE', #516, #435, #260, .T. ) ;
#554 = PERSON_AND_ORGANIZATION ( #564, #801 ) ;
#555 = DIRECTION ( 'NONE',  ( 0.000000000000000000, 0.000000000000000000, 1.000000000000000000 ) ) ;
#556 = FACE_OUTER_BOUND ( 'NONE', #551, .T. ) ;
#557 = EDGE_LOOP ( 'NONE', ( #426, #643, #527, #4 ) ) ;
#558 = CC_DESIGN_PERSON_AND_ORGANIZATION_ASSIGNMENT ( #584, #76, ( #480 ) ) ;
#559 = VECTOR ( 'NONE', #494, 1000.000000000000000 ) ;
#560 = AXIS2_PLACEMENT_3D ( 'NONE', #338, #26, #519 ) ;
#561 = LINE ( 'NONE', #53, #559 ) ;
#562 = CARTESIAN_POINT ( 'NONE',  ( 0.000000000000000000, 250.0000000000000000, 50.00000000000000000 ) ) ;
#563 = ORIENTED_EDGE ( 'NONE', *, *, #487, .F. ) ;
#564 = PERSON ( '未指定', '未指定', '未指定', ('未指定'), ('未指定'), ('未指定') ) ;
#565 = CYLINDRICAL_SURFACE ( 'NONE', #368, 7.500000000000000000 ) ;
#566 = DIRECTION ( 'NONE',  ( -0.000000000000000000, -1.000000000000000000, -0.000000000000000000 ) ) ;
#567 = ORIENTED_EDGE ( 'NONE', *, *, #326, .T. ) ;
#568 = APPROVAL_PERSON_ORGANIZATION ( #328, #349, #762 ) ;
#569 = PLANE ( 'NONE',  #640 ) ;
#570 = FACE_OUTER_BOUND ( 'NONE', #595, .T. ) ;
#571 = ORIENTED_EDGE ( 'NONE', *, *, #6, .F. ) ;
#572 = CIRCLE ( 'NONE', #188, 5.000000000000004441 ) ;
#573 = CARTESIAN_POINT ( 'NONE',  ( 7.500000000000000000, 0.000000000000000000, 0.000000000000000000 ) ) ;
#574 = LINE ( 'NONE', #525, #48 ) ;
#575 = ORIENTED_EDGE ( 'NONE', *, *, #553, .T. ) ;
#576 = FACE_OUTER_BOUND ( 'NONE', #208, .T. ) ;
#577 = ORIENTED_EDGE ( 'NONE', *, *, #205, .T. ) ;
#578 = ADVANCED_FACE ( 'NONE', ( #749, #503 ), #131, .F. ) ;
#579 = AXIS2_PLACEMENT_3D ( 'NONE', #181, #495, #500 ) ;
#580 = AXIS2_PLACEMENT_3D ( 'NONE', #239, #481, #354 ) ;
#581 = CARTESIAN_POINT ( 'NONE',  ( 0.000000000000000000, 0.000000000000000000, 12.50000000000000355 ) ) ;
#582 = AXIS2_PLACEMENT_3D ( 'NONE', #371, #256, #550 ) ;
#583 = ORIENTED_EDGE ( 'NONE', *, *, #649, .F. ) ;
#584 = PERSON_AND_ORGANIZATION ( #564, #801 ) ;
#585 = AXIS2_PLACEMENT_3D ( 'NONE', #318, #442, #299 ) ;
#586 = DIRECTION ( 'NONE',  ( -1.000000000000000000, 0.000000000000000000, 0.000000000000000000 ) ) ;
#587 = DIRECTION ( 'NONE',  ( -0.000000000000000000, -0.000000000000000000, -1.000000000000000000 ) ) ;
#588 = EDGE_CURVE ( 'NONE', #289, #635, #199, .T. ) ;
#589 = FACE_BOUND ( 'NONE', #400, .T. ) ;
#590 = EDGE_CURVE ( 'NONE', #111, #64, #63, .T. ) ;
#591 = CARTESIAN_POINT ( 'NONE',  ( 0.000000000000000000, 0.000000000000000000, 0.000000000000000000 ) ) ;
#592 = CARTESIAN_POINT ( 'NONE',  ( 5.000000000000001776, 250.0000000000000000, 50.00000000000000000 ) ) ;
#593 = CIRCLE ( 'NONE', #688, 7.500000000000007105 ) ;
#594 = PRODUCT_DEFINITION ( '未知', '', #480, #295 ) ;
#595 = EDGE_LOOP ( 'NONE', ( #270, #684, #448, #620 ) ) ;
#596 = MANIFOLD_SOLID_BREP ( '切除-拉伸2', #395 ) ;
#597 = DIRECTION ( 'NONE',  ( 0.000000000000000000, 0.000000000000000000, 1.000000000000000000 ) ) ;
#598 = VECTOR ( 'NONE', #658, 1000.000000000000000 ) ;
#599 = CARTESIAN_POINT ( 'NONE',  ( -5.000000000000001776, 250.0000000000000000, 0.000000000000000000 ) ) ;
#600 = VECTOR ( 'NONE', #272, 1000.000000000000000 ) ;
#601 = ADVANCED_FACE ( 'NONE', ( #589, #467 ), #335, .F. ) ;
#602 =( NAMED_UNIT ( * ) SI_UNIT ( $, .STERADIAN. ) SOLID_ANGLE_UNIT ( ) );
#603 = EDGE_LOOP ( 'NONE', ( #274, #306 ) ) ;
#604 = VERTEX_POINT ( 'NONE', #510 ) ;
#605 = EDGE_CURVE ( 'NONE', #182, #760, #720, .T. ) ;
#606 = VECTOR ( 'NONE', #84, 1000.000000000000000 ) ;
#607 = DIRECTION ( 'NONE',  ( 0.000000000000000000, -0.000000000000000000, 1.000000000000000000 ) ) ;
#608 = FACE_OUTER_BOUND ( 'NONE', #520, .T. ) ;
#609 = CC_DESIGN_PERSON_AND_ORGANIZATION_ASSIGNMENT ( #513, #15, ( #352 ) ) ;
#610 = LINE ( 'NONE', #656, #427 ) ;
#611 = DIRECTION ( 'NONE',  ( 1.000000000000000000, -0.000000000000000000, -0.000000000000000000 ) ) ;
#612 = CARTESIAN_POINT ( 'NONE',  ( 0.000000000000000000, 250.0000000000000000, 12.50000000000000888 ) ) ;
#613 = VECTOR ( 'NONE', #177, 1000.000000000000000 ) ;
#614 = EDGE_LOOP ( 'NONE', ( #674, #81, #538, #221 ) ) ;
#615 = CALENDAR_DATE ( 2026, 12, 6 ) ;
#616 = EDGE_CURVE ( 'NONE', #533, #339, #207, .T. ) ;
#617 = LINE ( 'NONE', #484, #52 ) ;
#618 = EDGE_CURVE ( 'NONE', #200, #543, #13, .T. ) ;
#619 = CARTESIAN_POINT ( 'NONE',  ( -5.000000000000000000, 6.123233995736766282E-16, 37.50000000000000711 ) ) ;
#620 = ORIENTED_EDGE ( 'NONE', *, *, #179, .F. ) ;
#621 = CARTESIAN_POINT ( 'NONE',  ( 5.000000000000001776, 250.0000000000000000, 0.000000000000000000 ) ) ;
#622 = CARTESIAN_POINT ( 'NONE',  ( 7.500000000000000000, 207.5000000000000284, 37.50000000000000711 ) ) ;
#623 = ORIENTED_EDGE ( 'NONE', *, *, #794, .F. ) ;
#624 = AXIS2_PLACEMENT_3D ( 'NONE', #294, #183, #114 ) ;
#625 = FACE_BOUND ( 'NONE', #60, .T. ) ;
#626 = CARTESIAN_POINT ( 'NONE',  ( -7.500000000000000000, 249.9999999999999716, 12.50000000000000888 ) ) ;
#627 = ORIENTED_EDGE ( 'NONE', *, *, #487, .T. ) ;
#628 = DIRECTION ( 'NONE',  ( 1.000000000000000000, 0.000000000000000000, 0.000000000000000000 ) ) ;
#629 = DIRECTION ( 'NONE',  ( -0.000000000000000000, -0.000000000000000000, 1.000000000000000000 ) ) ;
#630 = ORIENTED_EDGE ( 'NONE', *, *, #649, .T. ) ;
#631 = EDGE_CURVE ( 'NONE', #279, #289, #162, .T. ) ;
#632 = DIRECTION ( 'NONE',  ( -1.000000000000000000, 0.000000000000000000, 0.000000000000000000 ) ) ;
#633 = ADVANCED_BREP_SHAPE_REPRESENTATION ( 'link2_upper_arm_\X2\9ed88ba4\X0\_sldprt', ( #596, #788 ), #196 ) ;
#634 = CARTESIAN_POINT ( 'NONE',  ( -7.500000000000000000, 0.000000000000000000, 0.000000000000000000 ) ) ;
#635 = VERTEX_POINT ( 'NONE', #39 ) ;
#636 = LOCAL_TIME ( 9, 16, 26.00000000000000000, #369 ) ;
#637 = CARTESIAN_POINT ( 'NONE',  ( 0.000000000000000000, 250.0000000000000000, 37.50000000000000711 ) ) ;
#638 = DIRECTION ( 'NONE',  ( -0.000000000000000000, -0.000000000000000000, 1.000000000000000000 ) ) ;
#639 = EDGE_LOOP ( 'NONE', ( #55, #799 ) ) ;
#640 = AXIS2_PLACEMENT_3D ( 'NONE', #16, #142, #645 ) ;
#641 = DATE_AND_TIME ( #146, #38 ) ;
#642 = CARTESIAN_POINT ( 'NONE',  ( 7.500000000000000000, 57.50000000000000000, 12.50000000000000355 ) ) ;
#643 = ORIENTED_EDGE ( 'NONE', *, *, #229, .F. ) ;
#644 = DATE_AND_TIME ( #709, #135 ) ;
#645 = DIRECTION ( 'NONE',  ( 0.000000000000000000, 1.000000000000000000, 1.387778780781445922E-16 ) ) ;
#646 = ORIENTED_EDGE ( 'NONE', *, *, #449, .T. ) ;
#647 = CARTESIAN_POINT ( 'NONE',  ( 0.000000000000000000, 250.0000000000000000, 50.00000000000000000 ) ) ;
#648 = ORIENTED_EDGE ( 'NONE', *, *, #92, .T. ) ;
#649 = EDGE_CURVE ( 'NONE', #297, #547, #264, .T. ) ;
#650 = CARTESIAN_POINT ( 'NONE',  ( -7.500000000000000000, 0.000000000000000000, 50.00000000000000000 ) ) ;
#651 = ORIENTED_EDGE ( 'NONE', *, *, #797, .F. ) ;
#652 = EDGE_CURVE ( 'NONE', #486, #182, #593, .T. ) ;
#653 = CARTESIAN_POINT ( 'NONE',  ( -7.500000000000000000, 0.000000000000000000, 37.50000000000000711 ) ) ;
#654 = LINE ( 'NONE', #476, #41 ) ;
#655 = ORIENTED_EDGE ( 'NONE', *, *, #340, .F. ) ;
#656 = CARTESIAN_POINT ( 'NONE',  ( -7.500000000000000000, 257.5000000000000000, 12.50000000000001066 ) ) ;
#657 = CIRCLE ( 'NONE', #778, 5.000000000000001776 ) ;
#658 = DIRECTION ( 'NONE',  ( -0.000000000000000000, -0.000000000000000000, 1.000000000000000000 ) ) ;
#659 = VERTEX_POINT ( 'NONE', #592 ) ;
#660 = CARTESIAN_POINT ( 'NONE',  ( -7.500000000000000000, 250.0000000000000000, 50.00000000000000000 ) ) ;
#661 = VECTOR ( 'NONE', #407, 1000.000000000000000 ) ;
#662 = CARTESIAN_POINT ( 'NONE',  ( 0.000000000000000000, 250.0000000000000000, 50.00000000000000000 ) ) ;
#663 = AXIS2_PLACEMENT_3D ( 'NONE', #562, #54, #116 ) ;
#664 = ORIENTED_EDGE ( 'NONE', *, *, #777, .F. ) ;
#665 = EDGE_CURVE ( 'NONE', #776, #157, #657, .T. ) ;
#666 = LINE ( 'NONE', #785, #118 ) ;
#667 = LINE ( 'NONE', #43, #757 ) ;
#668 = CARTESIAN_POINT ( 'NONE',  ( -5.000000000000000000, 6.123233995736766282E-16, 0.000000000000000000 ) ) ;
#669 = VERTEX_POINT ( 'NONE', #203 ) ;
#670 = APPLICATION_PROTOCOL_DEFINITION ( 'international standard', 'config_control_design', 1994, #332 ) ;
#671 = CC_DESIGN_APPROVAL ( #349, ( #352 ) ) ;
#672 = CARTESIAN_POINT ( 'NONE',  ( 0.000000000000000000, 0.000000000000000000, 50.00000000000000000 ) ) ;
#673 = DIRECTION ( 'NONE',  ( 0.000000000000000000, 0.000000000000000000, -1.000000000000000000 ) ) ;
#674 = ORIENTED_EDGE ( 'NONE', *, *, #687, .F. ) ;
#675 = ADVANCED_FACE ( 'NONE', ( #702 ), #447, .F. ) ;
#676 = APPROVAL_STATUS ( 'not_yet_approved' ) ;
#677 = LINE ( 'NONE', #62, #730 ) ;
#678 = CARTESIAN_POINT ( 'NONE',  ( -7.500000000000000000, 250.0000000000000000, 0.000000000000000000 ) ) ;
#679 = AXIS2_PLACEMENT_3D ( 'NONE', #542, #360, #59 ) ;
#680 = EDGE_LOOP ( 'NONE', ( #231, #344 ) ) ;
#681 = COORDINATED_UNIVERSAL_TIME_OFFSET ( 8, 0, .AHEAD. ) ;
#682 = DIRECTION ( 'NONE',  ( 1.000000000000000000, 0.000000000000000000, 0.000000000000000000 ) ) ;
#683 = DIRECTION ( 'NONE',  ( 0.000000000000000000, 0.000000000000000000, 1.000000000000000000 ) ) ;
#684 = ORIENTED_EDGE ( 'NONE', *, *, #75, .T. ) ;
#685 = APPROVAL_ROLE ( '' ) ;
#686 = DIRECTION ( 'NONE',  ( -0.000000000000000000, -0.000000000000000000, -1.000000000000000000 ) ) ;
#687 = EDGE_CURVE ( 'NONE', #469, #74, #574, .T. ) ;
#688 = AXIS2_PLACEMENT_3D ( 'NONE', #330, #764, #692 ) ;
#689 = FACE_OUTER_BOUND ( 'NONE', #215, .T. ) ;
#690 = ORIENTED_EDGE ( 'NONE', *, *, #747, .F. ) ;
#691 = DIRECTION ( 'NONE',  ( -0.000000000000000000, -0.000000000000000000, 1.000000000000000000 ) ) ;
#692 = DIRECTION ( 'NONE',  ( 0.000000000000000000, 1.000000000000000000, 2.312964634635740492E-16 ) ) ;
#693 = VERTEX_POINT ( 'NONE', #653 ) ;
#694 = CIRCLE ( 'NONE', #792, 7.500000000000000000 ) ;
#695 = EDGE_CURVE ( 'NONE', #387, #693, #406, .T. ) ;
#696 = FACE_OUTER_BOUND ( 'NONE', #195, .T. ) ;
#697 = CARTESIAN_POINT ( 'NONE',  ( -5.000000000000001776, 250.0000000000000000, 12.50000000000000888 ) ) ;
#698 = ORIENTED_EDGE ( 'NONE', *, *, #223, .F. ) ;
#699 = ADVANCED_FACE ( 'NONE', ( #570 ), #452, .F. ) ;
#700 = PERSON_AND_ORGANIZATION_ROLE ( 'design_supplier' ) ;
#701 = CARTESIAN_POINT ( 'NONE',  ( 0.000000000000000000, 0.000000000000000000, 12.50000000000000355 ) ) ;
#702 = FACE_OUTER_BOUND ( 'NONE', #473, .T. ) ;
#703 = ORIENTED_EDGE ( 'NONE', *, *, #695, .T. ) ;
#704 = AXIS2_PLACEMENT_3D ( 'NONE', #346, #629, #409 ) ;
#705 = EDGE_CURVE ( 'NONE', #167, #604, #149, .T. ) ;
#706 = DIRECTION ( 'NONE',  ( 0.000000000000000000, 0.000000000000000000, 1.000000000000000000 ) ) ;
#707 = EDGE_LOOP ( 'NONE', ( #301, #508, #411, #287 ) ) ;
#708 = AXIS2_PLACEMENT_3D ( 'NONE', #300, #121, #314 ) ;
#709 = CALENDAR_DATE ( 2026, 12, 6 ) ;
#710 = DIRECTION ( 'NONE',  ( -0.000000000000000000, -0.000000000000000000, 1.000000000000000000 ) ) ;
#711 = CIRCLE ( 'NONE', #585, 7.500000000000000000 ) ;
#712 = VERTEX_POINT ( 'NONE', #697 ) ;
#713 = DIRECTION ( 'NONE',  ( 1.000000000000000000, 0.000000000000000000, 0.000000000000000000 ) ) ;
#714 = EDGE_LOOP ( 'NONE', ( #353, #132, #277, #623, #646, #9, #583, #537, #790, #404, #534, #88 ) ) ;
#715 = CIRCLE ( 'NONE', #579, 5.000000000000000000 ) ;
#716 = PLANE ( 'NONE',  #61 ) ;
#717 = ORIENTED_EDGE ( 'NONE', *, *, #99, .T. ) ;
#718 = ADVANCED_FACE ( 'NONE', ( #23, #515, #210 ), #716, .F. ) ;
#719 = CIRCLE ( 'NONE', #216, 7.500000000000000000 ) ;
#720 = LINE ( 'NONE', #140, #737 ) ;
#721 = DIRECTION ( 'NONE',  ( 0.000000000000000000, 0.000000000000000000, -1.000000000000000000 ) ) ;
#722 = VERTEX_POINT ( 'NONE', #100 ) ;
#723 = DIRECTION ( 'NONE',  ( -1.000000000000000000, 0.000000000000000000, 0.000000000000000000 ) ) ;
#724 = ORIENTED_EDGE ( 'NONE', *, *, #631, .F. ) ;
#725 = CARTESIAN_POINT ( 'NONE',  ( 7.500000000000000000, 250.0000000000000000, 37.50000000000000711 ) ) ;
#726 = AXIS2_PLACEMENT_3D ( 'NONE', #224, #18, #759 ) ;
#727 = EDGE_CURVE ( 'NONE', #387, #547, #350, .T. ) ;
#728 = VERTEX_POINT ( 'NONE', #725 ) ;
#729 = CYLINDRICAL_SURFACE ( 'NONE', #580, 7.500000000000000000 ) ;
#730 = VECTOR ( 'NONE', #611, 1000.000000000000000 ) ;
#731 = PLANE ( 'NONE',  #445 ) ;
#732 = CARTESIAN_POINT ( 'NONE',  ( -7.500000000000000000, 0.000000000000000000, 12.50000000000000355 ) ) ;
#733 = ADVANCED_FACE ( 'NONE', ( #302 ), #729, .T. ) ;
#734 = DIRECTION ( 'NONE',  ( 1.000000000000000000, 0.000000000000000000, 0.000000000000000000 ) ) ;
#735 = ORIENTED_EDGE ( 'NONE', *, *, #217, .T. ) ;
#736 = DIRECTION ( 'NONE',  ( 1.000000000000000000, 0.000000000000000000, 0.000000000000000000 ) ) ;
#737 = VECTOR ( 'NONE', #324, 1000.000000000000000 ) ;
#738 = DIRECTION ( 'NONE',  ( 0.000000000000000000, -0.000000000000000000, 1.000000000000000000 ) ) ;
#739 = DIRECTION ( 'NONE',  ( 0.000000000000000000, 0.000000000000000000, 1.000000000000000000 ) ) ;
#740 = ORIENTED_EDGE ( 'NONE', *, *, #761, .F. ) ;
#741 = EDGE_CURVE ( 'NONE', #722, #435, #133, .T. ) ;
#742 = CARTESIAN_POINT ( 'NONE',  ( 7.500000000000000000, 250.0000000000000000, 12.50000000000000888 ) ) ;
#743 = AXIS2_PLACEMENT_3D ( 'NONE', #591, #285, #36 ) ;
#744 = CARTESIAN_POINT ( 'NONE',  ( 7.500000000000000000, 57.50000000000000000, 37.50000000000000711 ) ) ;
#745 = CIRCLE ( 'NONE', #432, 5.000000000000000000 ) ;
#746 = VERTEX_POINT ( 'NONE', #363 ) ;
#747 = EDGE_CURVE ( 'NONE', #479, #486, #610, .T. ) ;
#748 = CARTESIAN_POINT ( 'NONE',  ( 0.000000000000000000, 0.000000000000000000, 0.000000000000000000 ) ) ;
#749 = FACE_BOUND ( 'NONE', #639, .T. ) ;
#750 = ORIENTED_EDGE ( 'NONE', *, *, #794, .T. ) ;
#751 = LINE ( 'NONE', #489, #175 ) ;
#752 = CARTESIAN_POINT ( 'NONE',  ( -7.500000000000000000, 257.5000000000000000, 37.50000000000000711 ) ) ;
#753 = EDGE_LOOP ( 'NONE', ( #144, #31, #491, #504 ) ) ;
#754 = CARTESIAN_POINT ( 'NONE',  ( 0.000000000000000000, 0.000000000000000000, 50.00000000000000000 ) ) ;
#755 = DIRECTION ( 'NONE',  ( 1.000000000000000000, 0.000000000000000000, 0.000000000000000000 ) ) ;
#756 = ORIENTED_EDGE ( 'NONE', *, *, #340, .T. ) ;
#757 = VECTOR ( 'NONE', #691, 1000.000000000000000 ) ;
#758 = CARTESIAN_POINT ( 'NONE',  ( -7.500000000000000000, 207.5000000000000284, 37.50000000000000711 ) ) ;
#759 = DIRECTION ( 'NONE',  ( 1.000000000000000000, 0.000000000000000000, 0.000000000000000000 ) ) ;
#760 = VERTEX_POINT ( 'NONE', #169 ) ;
#761 = EDGE_CURVE ( 'NONE', #728, #292, #233, .T. ) ;
#762 = APPROVAL_ROLE ( '' ) ;
#763 = DIRECTION ( 'NONE',  ( 1.000000000000000000, -0.000000000000000000, -0.000000000000000000 ) ) ;
#764 = DIRECTION ( 'NONE',  ( 0.000000000000000000, 1.387778780781445922E-16, -1.000000000000000000 ) ) ;
#765 = EDGE_LOOP ( 'NONE', ( #204, #186, #315, #651 ) ) ;
#766 = VECTOR ( 'NONE', #638, 1000.000000000000000 ) ;
#767 = SECURITY_CLASSIFICATION_LEVEL ( 'unclassified' ) ;
#768 = CARTESIAN_POINT ( 'NONE',  ( -7.500000000000000000, 0.000000000000000000, 0.000000000000000000 ) ) ;
#769 = ORIENTED_EDGE ( 'NONE', *, *, #727, .F. ) ;
#770 = CIRCLE ( 'NONE', #582, 5.000000000000000000 ) ;
#771 = EDGE_CURVE ( 'NONE', #511, #257, #468, .T. ) ;
#772 = DIRECTION ( 'NONE',  ( 1.000000000000000000, 0.000000000000000000, 0.000000000000000000 ) ) ;
#773 = VECTOR ( 'NONE', #763, 1000.000000000000000 ) ;
#774 = VERTEX_POINT ( 'NONE', #51 ) ;
#775 = CARTESIAN_POINT ( 'NONE',  ( 0.000000000000000000, 0.000000000000000000, 0.000000000000000000 ) ) ;
#776 = VERTEX_POINT ( 'NONE', #419 ) ;
#777 = EDGE_CURVE ( 'NONE', #167, #292, #791, .T. ) ;
#778 = AXIS2_PLACEMENT_3D ( 'NONE', #383, #507, #755 ) ;
#779 = CARTESIAN_POINT ( 'NONE',  ( -7.500000000000000000, 0.000000000000000000, 12.50000000000000355 ) ) ;
#780 = ORIENTED_EDGE ( 'NONE', *, *, #761, .T. ) ;
#781 = ORIENTED_EDGE ( 'NONE', *, *, #75, .F. ) ;
#782 = AXIS2_PLACEMENT_3D ( 'NONE', #126, #795, #244 ) ;
#783 = DIRECTION ( 'NONE',  ( 1.000000000000000000, -0.000000000000000000, -0.000000000000000000 ) ) ;
#784 = EDGE_LOOP ( 'NONE', ( #232, #122 ) ) ;
#785 = CARTESIAN_POINT ( 'NONE',  ( 7.500000000000000000, 0.000000000000000000, 50.00000000000000000 ) ) ;
#786 = ORIENTED_EDGE ( 'NONE', *, *, #652, .T. ) ;
#787 = ORIENTED_EDGE ( 'NONE', *, *, #705, .T. ) ;
#788 = AXIS2_PLACEMENT_3D ( 'NONE', #357, #234, #230 ) ;
#789 = LINE ( 'NONE', #296, #661 ) ;
#790 = ORIENTED_EDGE ( 'NONE', *, *, #687, .T. ) ;
#791 = LINE ( 'NONE', #660, #552 ) ;
#792 = AXIS2_PLACEMENT_3D ( 'NONE', #89, #333, #276 ) ;
#793 = DIRECTION ( 'NONE',  ( 0.000000000000000000, 1.000000000000000000, 0.000000000000000000 ) ) ;
#794 = EDGE_CURVE ( 'NONE', #261, #251, #666, .T. ) ;
#795 = DIRECTION ( 'NONE',  ( 0.000000000000000000, 0.000000000000000000, 1.000000000000000000 ) ) ;
#796 = PLANE ( 'NONE',  #1 ) ;
#797 = EDGE_CURVE ( 'NONE', #469, #200, #536, .T. ) ;
#798 = LINE ( 'NONE', #241, #68 ) ;
#799 = ORIENTED_EDGE ( 'NONE', *, *, #281, .T. ) ;
#800 = PERSON_AND_ORGANIZATION_ROLE ( 'creator' ) ;
#801 = ORGANIZATION ( '未指定', '未指定', '' ) ;
#802 = DIRECTION ( 'NONE',  ( 0.000000000000000000, 0.000000000000000000, -1.000000000000000000 ) ) ;
#803 = DIRECTION ( 'NONE',  ( -0.000000000000000000, -0.000000000000000000, 1.000000000000000000 ) ) ;
#804 = EDGE_LOOP ( 'NONE', ( #786, #237, #567, #19 ) ) ;
#805 = DIRECTION ( 'NONE',  ( 1.000000000000000000, 0.000000000000000000, 0.000000000000000000 ) ) ;
ENDSEC;
END-ISO-10303-21;
