ISO-10303-21;
HEADER;
FILE_DESCRIPTION (( 'STEP AP203' ),
    '1' );
FILE_NAME ('link3_forearm_默认_sldprt.STEP',
    '2026-06-12T01:16:29',
    ( '' ),
    ( '' ),
    'SwSTEP 2.0',
    'SolidWorks 2022',
    '' );
FILE_SCHEMA (( 'CONFIG_CONTROL_DESIGN' ));
ENDSEC;

DATA;
#1 = FACE_OUTER_BOUND ( 'NONE', #577, .T. ) ;
#2 = CYLINDRICAL_SURFACE ( 'NONE', #435, 7.500000000000000000 ) ;
#3 = PLANE ( 'NONE',  #127 ) ;
#4 = ORIENTED_EDGE ( 'NONE', *, *, #464, .F. ) ;
#5 = VECTOR ( 'NONE', #566, 1000.000000000000000 ) ;
#6 = EDGE_CURVE ( 'NONE', #161, #702, #470, .T. ) ;
#7 = PLANE ( 'NONE',  #792 ) ;
#8 = AXIS2_PLACEMENT_3D ( 'NONE', #415, #658, #110 ) ;
#9 = ORIENTED_EDGE ( 'NONE', *, *, #151, .F. ) ;
#10 = ORIENTED_EDGE ( 'NONE', *, *, #627, .T. ) ;
#11 = ORIENTED_EDGE ( 'NONE', *, *, #504, .T. ) ;
#12 = ORIENTED_EDGE ( 'NONE', *, *, #699, .F. ) ;
#13 = VERTEX_POINT ( 'NONE', #159 ) ;
#14 = CARTESIAN_POINT ( 'NONE',  ( 7.500000000000000000, 307.5000000000000000, 37.49999999999999289 ) ) ;
#15 = ORIENTED_EDGE ( 'NONE', *, *, #186, .T. ) ;
#16 = APPROVAL_ROLE ( '' ) ;
#17 = EDGE_CURVE ( 'NONE', #236, #585, #89, .T. ) ;
#18 = CIRCLE ( 'NONE', #200, 5.000000000000003553 ) ;
#19 = AXIS2_PLACEMENT_3D ( 'NONE', #121, #603, #365 ) ;
#20 = EDGE_LOOP ( 'NONE', ( #625, #134, #522, #133 ) ) ;
#21 = PERSON_AND_ORGANIZATION ( #81, #293 ) ;
#22 = AXIS2_PLACEMENT_3D ( 'NONE', #505, #685, #561 ) ;
#23 = CARTESIAN_POINT ( 'NONE',  ( -5.000000000000003553, 300.0000000000000000, 12.49999999999999822 ) ) ;
#24 = CARTESIAN_POINT ( 'NONE',  ( -5.000000000000000000, 6.123233995736766282E-16, 37.49999999999996447 ) ) ;
#25 = CARTESIAN_POINT ( 'NONE',  ( -5.000000000000000000, 6.123233995736766282E-16, 0.000000000000000000 ) ) ;
#26 = DIRECTION ( 'NONE',  ( 0.000000000000000000, 1.000000000000000000, 0.000000000000000000 ) ) ;
#27 = ORIENTED_EDGE ( 'NONE', *, *, #240, .F. ) ;
#28 = PERSON_AND_ORGANIZATION_ROLE ( 'design_owner' ) ;
#29 = DIRECTION ( 'NONE',  ( 0.000000000000000000, 0.000000000000000000, 1.000000000000000000 ) ) ;
#30 = FACE_BOUND ( 'NONE', #649, .T. ) ;
#31 = CARTESIAN_POINT ( 'NONE',  ( -7.500000000000000000, 277.4999999999999432, 37.49999999999999289 ) ) ;
#32 = ORIENTED_EDGE ( 'NONE', *, *, #282, .F. ) ;
#33 = AXIS2_PLACEMENT_3D ( 'NONE', #63, #295, #739 ) ;
#34 = APPROVAL_STATUS ( 'not_yet_approved' ) ;
#35 = ORIENTED_EDGE ( 'NONE', *, *, #43, .F. ) ;
#36 = DIRECTION ( 'NONE',  ( -0.000000000000000000, -1.000000000000000000, -0.000000000000000000 ) ) ;
#37 = EDGE_CURVE ( 'NONE', #451, #48, #309, .T. ) ;
#38 = AXIS2_PLACEMENT_3D ( 'NONE', #229, #770, #524 ) ;
#39 = ORIENTED_EDGE ( 'NONE', *, *, #124, .F. ) ;
#40 = ORIENTED_EDGE ( 'NONE', *, *, #306, .F. ) ;
#41 = CARTESIAN_POINT ( 'NONE',  ( 0.000000000000000000, 300.0000000000000000, 50.00000000000000000 ) ) ;
#42 = LINE ( 'NONE', #405, #262 ) ;
#43 = EDGE_CURVE ( 'NONE', #205, #567, #84, .T. ) ;
#44 = LINE ( 'NONE', #55, #626 ) ;
#45 = VERTEX_POINT ( 'NONE', #322 ) ;
#46 = LINE ( 'NONE', #79, #5 ) ;
#47 = DIRECTION ( 'NONE',  ( 0.000000000000000000, 0.000000000000000000, 1.000000000000000000 ) ) ;
#48 = VERTEX_POINT ( 'NONE', #25 ) ;
#49 = CARTESIAN_POINT ( 'NONE',  ( -7.500000000000000000, 300.0000000000000000, 0.000000000000000000 ) ) ;
#50 = ADVANCED_FACE ( 'NONE', ( #152 ), #582, .F. ) ;
#51 = EDGE_CURVE ( 'NONE', #259, #730, #351, .T. ) ;
#52 = DIRECTION ( 'NONE',  ( 0.000000000000000000, 0.000000000000000000, 1.000000000000000000 ) ) ;
#53 = APPLICATION_CONTEXT ( 'configuration controlled 3d designs of mechanical parts and assemblies' ) ;
#54 = AXIS2_PLACEMENT_3D ( 'NONE', #183, #754, #308 ) ;
#55 = CARTESIAN_POINT ( 'NONE',  ( 7.500000000000000000, 300.0000000000000000, 50.00000000000000000 ) ) ;
#56 = AXIS2_PLACEMENT_3D ( 'NONE', #595, #47, #480 ) ;
#57 = LOCAL_TIME ( 9, 16, 29.00000000000000000, #278 ) ;
#58 = PRODUCT_DEFINITION_SHAPE ( 'NONE', 'NONE',  #453 ) ;
#59 = CARTESIAN_POINT ( 'NONE',  ( 7.500000000000000000, 0.000000000000000000, 0.000000000000000000 ) ) ;
#60 = CARTESIAN_POINT ( 'NONE',  ( 7.500000000000000000, 277.4999999999999432, 12.49999999999999289 ) ) ;
#61 = FACE_OUTER_BOUND ( 'NONE', #80, .T. ) ;
#62 = LINE ( 'NONE', #192, #475 ) ;
#63 = CARTESIAN_POINT ( 'NONE',  ( 0.000000000000000000, 0.000000000000000000, 37.49999999999996447 ) ) ;
#64 = DIRECTION ( 'NONE',  ( 0.000000000000000000, 1.000000000000000000, 3.469446951953611231E-16 ) ) ;
#65 = AXIS2_PLACEMENT_3D ( 'NONE', #330, #158, #634 ) ;
#66 = CIRCLE ( 'NONE', #104, 7.500000000000000000 ) ;
#67 = CC_DESIGN_APPROVAL ( #321, ( #397 ) ) ;
#68 = DIRECTION ( 'NONE',  ( -0.000000000000000000, -0.000000000000000000, -1.000000000000000000 ) ) ;
#69 = LINE ( 'NONE', #427, #86 ) ;
#70 = EDGE_CURVE ( 'NONE', #76, #236, #711, .T. ) ;
#71 = CARTESIAN_POINT ( 'NONE',  ( 0.000000000000000000, 300.0000000000000000, 0.000000000000000000 ) ) ;
#72 = ORIENTED_EDGE ( 'NONE', *, *, #282, .T. ) ;
#73 = ORIENTED_EDGE ( 'NONE', *, *, #373, .F. ) ;
#74 = VECTOR ( 'NONE', #689, 1000.000000000000000 ) ;
#75 = CARTESIAN_POINT ( 'NONE',  ( -7.500000000000000000, 300.0000000000000000, 12.49999999999999822 ) ) ;
#76 = VERTEX_POINT ( 'NONE', #114 ) ;
#77 = ORIENTED_EDGE ( 'NONE', *, *, #306, .T. ) ;
#78 = ORIENTED_EDGE ( 'NONE', *, *, #766, .F. ) ;
#79 = CARTESIAN_POINT ( 'NONE',  ( -5.000000000000003553, 300.0000000000000000, 0.000000000000000000 ) ) ;
#80 = EDGE_LOOP ( 'NONE', ( #197, #388, #688, #12 ) ) ;
#81 = PERSON ( '未指定', '未指定', '未指定', ('未指定'), ('未指定'), ('未指定') ) ;
#82 = CARTESIAN_POINT ( 'NONE',  ( 0.000000000000000000, 0.000000000000000000, 0.000000000000000000 ) ) ;
#83 = VECTOR ( 'NONE', #597, 1000.000000000000000 ) ;
#84 = LINE ( 'NONE', #776, #696 ) ;
#85 = ORIENTED_EDGE ( 'NONE', *, *, #700, .T. ) ;
#86 = VECTOR ( 'NONE', #123, 1000.000000000000000 ) ;
#87 = CIRCLE ( 'NONE', #233, 7.500000000000000000 ) ;
#88 = DIRECTION ( 'NONE',  ( 1.000000000000000000, 0.000000000000000000, 0.000000000000000000 ) ) ;
#89 = LINE ( 'NONE', #747, #344 ) ;
#90 = ORIENTED_EDGE ( 'NONE', *, *, #70, .T. ) ;
#91 = APPROVAL_DATE_TIME ( #523, #286 ) ;
#92 = CARTESIAN_POINT ( 'NONE',  ( -7.500000000000000000, 0.000000000000000000, 0.000000000000000000 ) ) ;
#93 = FACE_OUTER_BOUND ( 'NONE', #517, .T. ) ;
#94 = VERTEX_POINT ( 'NONE', #287 ) ;
#95 = PERSON_AND_ORGANIZATION ( #81, #293 ) ;
#96 = EDGE_CURVE ( 'NONE', #631, #297, #780, .T. ) ;
#97 = ADVANCED_FACE ( 'NONE', ( #302 ), #343, .T. ) ;
#98 = ORIENTED_EDGE ( 'NONE', *, *, #380, .T. ) ;
#99 = DIRECTION ( 'NONE',  ( 0.000000000000000000, 0.000000000000000000, 1.000000000000000000 ) ) ;
#100 = ORIENTED_EDGE ( 'NONE', *, *, #652, .F. ) ;
#101 = CALENDAR_DATE ( 2026, 12, 6 ) ;
#102 = ORIENTED_EDGE ( 'NONE', *, *, #512, .T. ) ;
#103 = DIRECTION ( 'NONE',  ( 0.000000000000000000, 0.000000000000000000, 1.000000000000000000 ) ) ;
#104 = AXIS2_PLACEMENT_3D ( 'NONE', #413, #109, #485 ) ;
#105 = LINE ( 'NONE', #469, #394 ) ;
#106 = CC_DESIGN_SECURITY_CLASSIFICATION ( #397, ( #119 ) ) ;
#107 = DIRECTION ( 'NONE',  ( 0.000000000000000000, 1.156482317317871478E-16, -1.000000000000000000 ) ) ;
#108 = DIRECTION ( 'NONE',  ( -0.000000000000000000, -0.000000000000000000, 1.000000000000000000 ) ) ;
#109 = DIRECTION ( 'NONE',  ( 0.000000000000000000, 0.000000000000000000, 1.000000000000000000 ) ) ;
#110 = DIRECTION ( 'NONE',  ( 1.000000000000000000, 0.000000000000000000, 0.000000000000000000 ) ) ;
#111 = EDGE_CURVE ( 'NONE', #567, #620, #548, .T. ) ;
#112 = CARTESIAN_POINT ( 'NONE',  ( -7.500000000000000000, 22.50000000000000000, 37.49999999999996447 ) ) ;
#113 = DIRECTION ( 'NONE',  ( -0.000000000000000000, -0.000000000000000000, 1.000000000000000000 ) ) ;
#114 = CARTESIAN_POINT ( 'NONE',  ( 7.500000000000000000, 0.000000000000000000, 12.49999999999996270 ) ) ;
#115 = CARTESIAN_POINT ( 'NONE',  ( 7.500000000000000000, 0.000000000000000000, 50.00000000000000000 ) ) ;
#116 = FACE_OUTER_BOUND ( 'NONE', #137, .T. ) ;
#117 = AXIS2_PLACEMENT_3D ( 'NONE', #749, #682, #495 ) ;
#118 = DIRECTION ( 'NONE',  ( 1.000000000000000000, 0.000000000000000000, 0.000000000000000000 ) ) ;
#119 = PRODUCT_DEFINITION_FORMATION_WITH_SPECIFIED_SOURCE ( '任何', '', #361, .NOT_KNOWN. ) ;
#120 = CARTESIAN_POINT ( 'NONE',  ( 5.000000000000003553, 300.0000000000000000, 12.49999999999999822 ) ) ;
#121 = CARTESIAN_POINT ( 'NONE',  ( 0.000000000000000000, 0.000000000000000000, 50.00000000000000000 ) ) ;
#122 = CARTESIAN_POINT ( 'NONE',  ( 7.500000000000000000, 277.4999999999999432, 37.49999999999999289 ) ) ;
#123 = DIRECTION ( 'NONE',  ( -0.000000000000000000, -0.000000000000000000, 1.000000000000000000 ) ) ;
#124 = EDGE_CURVE ( 'NONE', #621, #620, #791, .T. ) ;
#125 = FACE_BOUND ( 'NONE', #467, .T. ) ;
#126 = CYLINDRICAL_SURFACE ( 'NONE', #559, 5.000000000000003553 ) ;
#127 = AXIS2_PLACEMENT_3D ( 'NONE', #246, #253, #742 ) ;
#128 = VECTOR ( 'NONE', #744, 1000.000000000000000 ) ;
#129 = AXIS2_PLACEMENT_3D ( 'NONE', #179, #487, #359 ) ;
#130 = LINE ( 'NONE', #248, #457 ) ;
#131 = EDGE_CURVE ( 'NONE', #697, #199, #228, .T. ) ;
#132 = DIRECTION ( 'NONE',  ( 1.000000000000000000, 0.000000000000000000, 0.000000000000000000 ) ) ;
#133 = ORIENTED_EDGE ( 'NONE', *, *, #627, .F. ) ;
#134 = ORIENTED_EDGE ( 'NONE', *, *, #428, .T. ) ;
#135 = ORIENTED_EDGE ( 'NONE', *, *, #51, .F. ) ;
#136 = CARTESIAN_POINT ( 'NONE',  ( 0.000000000000000000, 300.0000000000000000, 0.000000000000000000 ) ) ;
#137 = EDGE_LOOP ( 'NONE', ( #40, #90, #486, #796 ) ) ;
#138 = AXIS2_PLACEMENT_3D ( 'NONE', #410, #586, #285 ) ;
#139 = EDGE_CURVE ( 'NONE', #320, #224, #425, .T. ) ;
#140 = ORIENTED_EDGE ( 'NONE', *, *, #607, .F. ) ;
#141 = CIRCLE ( 'NONE', #33, 5.000000000000000000 ) ;
#142 = ORIENTED_EDGE ( 'NONE', *, *, #690, .T. ) ;
#143 = DIRECTION ( 'NONE',  ( 0.000000000000000000, 0.000000000000000000, 1.000000000000000000 ) ) ;
#144 = ORIENTED_EDGE ( 'NONE', *, *, #699, .T. ) ;
#145 = APPROVAL_STATUS ( 'not_yet_approved' ) ;
#146 = EDGE_CURVE ( 'NONE', #730, #757, #44, .T. ) ;
#147 = ORIENTED_EDGE ( 'NONE', *, *, #269, .T. ) ;
#148 = PERSON_AND_ORGANIZATION_ROLE ( 'creator' ) ;
#149 = AXIS2_PLACEMENT_3D ( 'NONE', #193, #68, #250 ) ;
#150 = CYLINDRICAL_SURFACE ( 'NONE', #138, 5.000000000000003553 ) ;
#151 = EDGE_CURVE ( 'NONE', #760, #320, #141, .T. ) ;
#152 = FACE_OUTER_BOUND ( 'NONE', #785, .T. ) ;
#153 = EDGE_LOOP ( 'NONE', ( #442, #315, #78, #214 ) ) ;
#154 = DATE_AND_TIME ( #769, #476 ) ;
#155 = VERTEX_POINT ( 'NONE', #496 ) ;
#156 = LINE ( 'NONE', #326, #622 ) ;
#157 = CARTESIAN_POINT ( 'NONE',  ( -7.500000000000000000, 307.5000000000000000, 37.49999999999999289 ) ) ;
#158 = DIRECTION ( 'NONE',  ( -0.000000000000000000, -0.000000000000000000, 1.000000000000000000 ) ) ;
#159 = CARTESIAN_POINT ( 'NONE',  ( 7.500000000000000000, 0.000000000000000000, 37.49999999999996447 ) ) ;
#160 = COORDINATED_UNIVERSAL_TIME_OFFSET ( 8, 0, .AHEAD. ) ;
#161 = VERTEX_POINT ( 'NONE', #546 ) ;
#162 = LINE ( 'NONE', #226, #292 ) ;
#163 = ORIENTED_EDGE ( 'NONE', *, *, #186, .F. ) ;
#164 = EDGE_CURVE ( 'NONE', #320, #760, #335, .T. ) ;
#165 = CYLINDRICAL_SURFACE ( 'NONE', #447, 5.000000000000003553 ) ;
#166 = AXIS2_PLACEMENT_3D ( 'NONE', #288, #403, #646 ) ;
#167 = CARTESIAN_POINT ( 'NONE',  ( 5.000000000000003553, 300.0000000000000000, 37.49999999999999289 ) ) ;
#168 = AXIS2_PLACEMENT_3D ( 'NONE', #526, #271, #521 ) ;
#169 = EDGE_CURVE ( 'NONE', #710, #395, #234, .T. ) ;
#170 = CARTESIAN_POINT ( 'NONE',  ( 0.000000000000000000, 0.000000000000000000, 50.00000000000000000 ) ) ;
#171 = DIRECTION ( 'NONE',  ( 1.000000000000000000, -0.000000000000000000, -0.000000000000000000 ) ) ;
#172 = ORIENTED_EDGE ( 'NONE', *, *, #51, .T. ) ;
#173 = CARTESIAN_POINT ( 'NONE',  ( -7.500000000000000000, 277.4999999999999432, 37.49999999999999289 ) ) ;
#174 = DIRECTION ( 'NONE',  ( -0.000000000000000000, -1.000000000000000000, -0.000000000000000000 ) ) ;
#175 = DIRECTION ( 'NONE',  ( 0.000000000000000000, 0.000000000000000000, -1.000000000000000000 ) ) ;
#176 = VECTOR ( 'NONE', #175, 1000.000000000000000 ) ;
#177 = DIRECTION ( 'NONE',  ( 0.000000000000000000, 1.000000000000000000, 0.000000000000000000 ) ) ;
#178 = VERTEX_POINT ( 'NONE', #49 ) ;
#179 = CARTESIAN_POINT ( 'NONE',  ( 0.000000000000000000, 0.000000000000000000, 50.00000000000000000 ) ) ;
#180 = AXIS2_PLACEMENT_3D ( 'NONE', #181, #664, #118 ) ;
#181 = CARTESIAN_POINT ( 'NONE',  ( 0.000000000000000000, 0.000000000000000000, 0.000000000000000000 ) ) ;
#182 = EDGE_CURVE ( 'NONE', #395, #205, #795, .T. ) ;
#183 = CARTESIAN_POINT ( 'NONE',  ( 0.000000000000000000, 0.000000000000000000, 0.000000000000000000 ) ) ;
#184 = DIRECTION ( 'NONE',  ( -0.000000000000000000, 1.000000000000000000, 2.891205793294676354E-16 ) ) ;
#185 = CARTESIAN_POINT ( 'NONE',  ( 0.000000000000000000, 0.000000000000000000, 0.000000000000000000 ) ) ;
#186 = EDGE_CURVE ( 'NONE', #395, #695, #237, .T. ) ;
#187 = CARTESIAN_POINT ( 'NONE',  ( 0.000000000000000000, 300.0000000000000000, 12.49999999999999645 ) ) ;
#188 = PRODUCT_RELATED_PRODUCT_CATEGORY ( 'detail', '', ( #361 ) ) ;
#189 = ADVANCED_FACE ( 'NONE', ( #735 ), #422, .F. ) ;
#190 = CIRCLE ( 'NONE', #323, 5.000000000000003553 ) ;
#191 = APPROVAL_PERSON_ORGANIZATION ( #698, #502, #267 ) ;
#192 = CARTESIAN_POINT ( 'NONE',  ( -7.500000000000000000, 4.336808689942022469E-15, 12.49999999999996270 ) ) ;
#193 = CARTESIAN_POINT ( 'NONE',  ( 0.000000000000000000, 300.0000000000000000, 50.00000000000000000 ) ) ;
#194 = VERTEX_POINT ( 'NONE', #360 ) ;
#195 = DIRECTION ( 'NONE',  ( 1.000000000000000000, 0.000000000000000000, 0.000000000000000000 ) ) ;
#196 = ORIENTED_EDGE ( 'NONE', *, *, #464, .T. ) ;
#197 = ORIENTED_EDGE ( 'NONE', *, *, #616, .F. ) ;
#198 = MANIFOLD_SOLID_BREP ( '切除-拉伸2', #376 ) ;
#199 = VERTEX_POINT ( 'NONE', #604 ) ;
#200 = AXIS2_PLACEMENT_3D ( 'NONE', #41, #99, #88 ) ;
#201 = ORIENTED_EDGE ( 'NONE', *, *, #213, .T. ) ;
#202 = CIRCLE ( 'NONE', #56, 7.500000000000000000 ) ;
#203 = DIRECTION ( 'NONE',  ( 1.000000000000000000, 0.000000000000000000, 0.000000000000000000 ) ) ;
#204 = ORIENTED_EDGE ( 'NONE', *, *, #636, .T. ) ;
#205 = VERTEX_POINT ( 'NONE', #60 ) ;
#206 = CALENDAR_DATE ( 2026, 12, 6 ) ;
#207 = PLANE ( 'NONE',  #790 ) ;
#208 = EDGE_LOOP ( 'NONE', ( #349, #163, #647, #414 ) ) ;
#209 = MECHANICAL_CONTEXT ( 'NONE', #681, 'mechanical' ) ;
#210 = CYLINDRICAL_SURFACE ( 'NONE', #38, 5.000000000000000000 ) ;
#211 = EDGE_CURVE ( 'NONE', #45, #710, #241, .T. ) ;
#212 = DIRECTION ( 'NONE',  ( 0.000000000000000000, 1.156482317317871478E-16, -1.000000000000000000 ) ) ;
#213 = EDGE_CURVE ( 'NONE', #708, #205, #672, .T. ) ;
#214 = ORIENTED_EDGE ( 'NONE', *, *, #746, .F. ) ;
#215 = PERSON_AND_ORGANIZATION_ROLE ( 'creator' ) ;
#216 = VECTOR ( 'NONE', #174, 1000.000000000000000 ) ;
#217 = CARTESIAN_POINT ( 'NONE',  ( -7.500000000000000000, 277.4999999999999432, 12.49999999999999645 ) ) ;
#218 = PLANE ( 'NONE',  #516 ) ;
#219 = VERTEX_POINT ( 'NONE', #420 ) ;
#220 = CALENDAR_DATE ( 2026, 12, 6 ) ;
#221 = ORIENTED_EDGE ( 'NONE', *, *, #734, .F. ) ;
#222 = CARTESIAN_POINT ( 'NONE',  ( -5.000000000000000000, 6.123233995736766282E-16, 0.000000000000000000 ) ) ;
#223 = DIRECTION ( 'NONE',  ( -0.000000000000000000, -0.000000000000000000, -1.000000000000000000 ) ) ;
#224 = VERTEX_POINT ( 'NONE', #544 ) ;
#225 = EDGE_CURVE ( 'NONE', #702, #199, #659, .T. ) ;
#226 = CARTESIAN_POINT ( 'NONE',  ( -7.500000000000000000, 300.0000000000000000, 50.00000000000000000 ) ) ;
#227 = CARTESIAN_POINT ( 'NONE',  ( 0.000000000000000000, 300.0000000000000000, 37.49999999999999289 ) ) ;
#228 = LINE ( 'NONE', #482, #598 ) ;
#229 = CARTESIAN_POINT ( 'NONE',  ( 0.000000000000000000, 0.000000000000000000, 0.000000000000000000 ) ) ;
#230 = VECTOR ( 'NONE', #171, 1000.000000000000000 ) ;
#231 = CARTESIAN_POINT ( 'NONE',  ( 7.500000000000000000, 277.4999999999999432, 37.49999999999999289 ) ) ;
#232 = AXIS2_PLACEMENT_3D ( 'NONE', #170, #788, #800 ) ;
#233 = AXIS2_PLACEMENT_3D ( 'NONE', #316, #251, #132 ) ;
#234 = LINE ( 'NONE', #173, #176 ) ;
#235 = DIRECTION ( 'NONE',  ( 1.000000000000000000, 0.000000000000000000, 0.000000000000000000 ) ) ;
#236 = VERTEX_POINT ( 'NONE', #291 ) ;
#237 = LINE ( 'NONE', #488, #528 ) ;
#238 = ORIENTED_EDGE ( 'NONE', *, *, #441, .F. ) ;
#239 = CARTESIAN_POINT ( 'NONE',  ( 5.000000000000000000, 0.000000000000000000, 0.000000000000000000 ) ) ;
#240 = EDGE_CURVE ( 'NONE', #259, #13, #484, .T. ) ;
#241 = LINE ( 'NONE', #299, #434 ) ;
#242 = FACE_OUTER_BOUND ( 'NONE', #208, .T. ) ;
#243 = CARTESIAN_POINT ( 'NONE',  ( 0.000000000000000000, 300.0000000000000000, 0.000000000000000000 ) ) ;
#244 = CYLINDRICAL_SURFACE ( 'NONE', #129, 7.500000000000000000 ) ;
#245 = DIRECTION ( 'NONE',  ( 0.000000000000000000, 1.000000000000000000, 0.000000000000000000 ) ) ;
#246 = CARTESIAN_POINT ( 'NONE',  ( -7.500000000000000000, -7.500000000000000000, 37.49999999999996447 ) ) ;
#247 = VECTOR ( 'NONE', #714, 1000.000000000000000 ) ;
#248 = CARTESIAN_POINT ( 'NONE',  ( -7.500000000000000000, 0.000000000000000000, 50.00000000000000000 ) ) ;
#249 = EDGE_CURVE ( 'NONE', #638, #416, #384, .T. ) ;
#250 = DIRECTION ( 'NONE',  ( -1.000000000000000000, 0.000000000000000000, 0.000000000000000000 ) ) ;
#251 = DIRECTION ( 'NONE',  ( 0.000000000000000000, -0.000000000000000000, 1.000000000000000000 ) ) ;
#252 = CIRCLE ( 'NONE', #705, 7.500000000000007105 ) ;
#253 = DIRECTION ( 'NONE',  ( 0.000000000000000000, -0.000000000000000000, 1.000000000000000000 ) ) ;
#254 = ORIENTED_EDGE ( 'NONE', *, *, #111, .T. ) ;
#255 = CARTESIAN_POINT ( 'NONE',  ( 7.500000000000000000, 0.000000000000000000, 50.00000000000000000 ) ) ;
#256 = ORIENTED_EDGE ( 'NONE', *, *, #501, .F. ) ;
#257 = FACE_OUTER_BOUND ( 'NONE', #324, .T. ) ;
#258 = ORIENTED_EDGE ( 'NONE', *, *, #17, .F. ) ;
#259 = VERTEX_POINT ( 'NONE', #539 ) ;
#260 = ORIENTED_EDGE ( 'NONE', *, *, #429, .T. ) ;
#261 = VERTEX_POINT ( 'NONE', #632 ) ;
#262 = VECTOR ( 'NONE', #782, 1000.000000000000000 ) ;
#263 = EDGE_LOOP ( 'NONE', ( #779, #402, #102, #260 ) ) ;
#264 = CIRCLE ( 'NONE', #725, 7.500000000000000000 ) ;
#265 = PERSON_AND_ORGANIZATION ( #81, #293 ) ;
#266 = ORIENTED_EDGE ( 'NONE', *, *, #131, .T. ) ;
#267 = APPROVAL_ROLE ( '' ) ;
#268 = EDGE_CURVE ( 'NONE', #199, #13, #156, .T. ) ;
#269 = EDGE_CURVE ( 'NONE', #416, #638, #801, .T. ) ;
#270 = DIRECTION ( 'NONE',  ( -0.000000000000000000, -1.000000000000000000, -0.000000000000000000 ) ) ;
#271 = DIRECTION ( 'NONE',  ( 1.000000000000000000, 0.000000000000000000, 0.000000000000000000 ) ) ;
#272 = ORIENTED_EDGE ( 'NONE', *, *, #169, .T. ) ;
#273 = DIRECTION ( 'NONE',  ( 0.000000000000000000, 0.000000000000000000, 1.000000000000000000 ) ) ;
#274 = DIRECTION ( 'NONE',  ( 0.000000000000000000, 2.891205793294676847E-16, -1.000000000000000000 ) ) ;
#275 = FACE_OUTER_BOUND ( 'NONE', #389, .T. ) ;
#276 = DIRECTION ( 'NONE',  ( 0.000000000000000000, -1.000000000000000000, -0.000000000000000000 ) ) ;
#277 = ORIENTED_EDGE ( 'NONE', *, *, #497, .T. ) ;
#278 = COORDINATED_UNIVERSAL_TIME_OFFSET ( 8, 0, .AHEAD. ) ;
#279 = CIRCLE ( 'NONE', #763, 5.000000000000000000 ) ;
#280 = ORIENTED_EDGE ( 'NONE', *, *, #580, .T. ) ;
#281 = LINE ( 'NONE', #222, #411 ) ;
#282 = EDGE_CURVE ( 'NONE', #710, #708, #455, .T. ) ;
#283 = EDGE_LOOP ( 'NONE', ( #727, #144, #27, #140 ) ) ;
#284 = ORIENTED_EDGE ( 'NONE', *, *, #477, .F. ) ;
#285 = DIRECTION ( 'NONE',  ( 1.000000000000000000, 0.000000000000000000, 0.000000000000000000 ) ) ;
#286 = APPROVAL ( #630, '未指定' ) ;
#287 = CARTESIAN_POINT ( 'NONE',  ( -7.500000000000000000, 0.000000000000000000, 50.00000000000000000 ) ) ;
#288 = CARTESIAN_POINT ( 'NONE',  ( 0.000000000000000000, 0.000000000000000000, 12.49999999999996270 ) ) ;
#289 = CARTESIAN_POINT ( 'NONE',  ( 0.000000000000000000, 0.000000000000000000, 0.000000000000000000 ) ) ;
#290 = CARTESIAN_POINT ( 'NONE',  ( -7.500000000000000000, 277.4999999999999432, 12.49999999999999289 ) ) ;
#291 = CARTESIAN_POINT ( 'NONE',  ( -7.500000000000000000, 0.000000000000000000, 12.49999999999996270 ) ) ;
#292 = VECTOR ( 'NONE', #461, 1000.000000000000000 ) ;
#293 = ORGANIZATION ( '未指定', '未指定', '' ) ;
#294 = CC_DESIGN_APPROVAL ( #502, ( #119 ) ) ;
#295 = DIRECTION ( 'NONE',  ( 0.000000000000000000, -0.000000000000000000, 1.000000000000000000 ) ) ;
#296 = EDGE_CURVE ( 'NONE', #297, #568, #345, .T. ) ;
#297 = VERTEX_POINT ( 'NONE', #591 ) ;
#298 = DIRECTION ( 'NONE',  ( -0.000000000000000000, -0.000000000000000000, 1.000000000000000000 ) ) ;
#299 = CARTESIAN_POINT ( 'NONE',  ( -7.500000000000000000, 0.000000000000000000, 37.49999999999999289 ) ) ;
#300 = LINE ( 'NONE', #377, #474 ) ;
#301 = ORIENTED_EDGE ( 'NONE', *, *, #164, .F. ) ;
#302 = FACE_OUTER_BOUND ( 'NONE', #283, .T. ) ;
#303 = FACE_BOUND ( 'NONE', #460, .T. ) ;
#304 = VECTOR ( 'NONE', #789, 1000.000000000000000 ) ;
#305 = CIRCLE ( 'NONE', #339, 5.000000000000003553 ) ;
#306 = EDGE_CURVE ( 'NONE', #76, #621, #704, .T. ) ;
#307 = APPROVAL_PERSON_ORGANIZATION ( #578, #321, #709 ) ;
#308 = DIRECTION ( 'NONE',  ( 1.000000000000000000, 0.000000000000000000, -0.000000000000000000 ) ) ;
#309 = CIRCLE ( 'NONE', #22, 5.000000000000000000 ) ;
#310 = DIRECTION ( 'NONE',  ( 0.000000000000000000, 1.000000000000000000, 2.312964634635740492E-16 ) ) ;
#311 = DIRECTION ( 'NONE',  ( -0.000000000000000000, -0.000000000000000000, -1.000000000000000000 ) ) ;
#312 = DIRECTION ( 'NONE',  ( 0.000000000000000000, 0.000000000000000000, 1.000000000000000000 ) ) ;
#313 = ORIENTED_EDGE ( 'NONE', *, *, #131, .F. ) ;
#314 = VECTOR ( 'NONE', #36, 1000.000000000000000 ) ;
#315 = ORIENTED_EDGE ( 'NONE', *, *, #734, .T. ) ;
#316 = CARTESIAN_POINT ( 'NONE',  ( 0.000000000000000000, 0.000000000000000000, 37.49999999999996447 ) ) ;
#317 = ORIENTED_EDGE ( 'NONE', *, *, #616, .T. ) ;
#318 = ORIENTED_EDGE ( 'NONE', *, *, #441, .T. ) ;
#319 = ORIENTED_EDGE ( 'NONE', *, *, #139, .F. ) ;
#320 = VERTEX_POINT ( 'NONE', #655 ) ;
#321 = APPROVAL ( #34, '未指定' ) ;
#322 = CARTESIAN_POINT ( 'NONE',  ( -7.500000000000000000, 300.0000000000000000, 37.49999999999999289 ) ) ;
#323 = AXIS2_PLACEMENT_3D ( 'NONE', #651, #103, #535 ) ;
#324 = EDGE_LOOP ( 'NONE', ( #266, #333, #465, #204 ) ) ;
#325 = AXIS2_PLACEMENT_3D ( 'NONE', #787, #722, #657 ) ;
#326 = CARTESIAN_POINT ( 'NONE',  ( 7.500000000000000000, -7.500000000000000000, 37.49999999999996447 ) ) ;
#327 = ORIENTED_EDGE ( 'NONE', *, *, #650, .F. ) ;
#328 = DATE_AND_TIME ( #101, #726 ) ;
#329 = DIRECTION ( 'NONE',  ( 1.000000000000000000, 0.000000000000000000, 0.000000000000000000 ) ) ;
#330 = CARTESIAN_POINT ( 'NONE',  ( 0.000000000000000000, 0.000000000000000000, 0.000000000000000000 ) ) ;
#331 = ORIENTED_EDGE ( 'NONE', *, *, #428, .F. ) ;
#332 = DATE_TIME_ROLE ( 'classification_date' ) ;
#333 = ORIENTED_EDGE ( 'NONE', *, *, #225, .F. ) ;
#334 = DIRECTION ( 'NONE',  ( -0.000000000000000000, -0.000000000000000000, 1.000000000000000000 ) ) ;
#335 = CIRCLE ( 'NONE', #8, 5.000000000000000000 ) ;
#336 = ORIENTED_EDGE ( 'NONE', *, *, #504, .F. ) ;
#337 = CIRCLE ( 'NONE', #602, 5.000000000000004441 ) ;
#338 = VECTOR ( 'NONE', #430, 1000.000000000000000 ) ;
#339 = AXIS2_PLACEMENT_3D ( 'NONE', #382, #557, #195 ) ;
#340 = EDGE_LOOP ( 'NONE', ( #147, #784 ) ) ;
#341 = CARTESIAN_POINT ( 'NONE',  ( -7.500000000000000000, 277.4999999999999432, 37.49999999999999289 ) ) ;
#342 = ADVANCED_FACE ( 'NONE', ( #781 ), #210, .F. ) ;
#343 = CYLINDRICAL_SURFACE ( 'NONE', #232, 7.500000000000000000 ) ;
#344 = VECTOR ( 'NONE', #311, 1000.000000000000000 ) ;
#345 = LINE ( 'NONE', #398, #679 ) ;
#346 = CARTESIAN_POINT ( 'NONE',  ( 7.500000000000000000, 300.0000000000000000, 37.49999999999999289 ) ) ;
#347 =( LENGTH_UNIT ( ) NAMED_UNIT ( * ) SI_UNIT ( .MILLI., .METRE. ) );
#348 = DIRECTION ( 'NONE',  ( 0.000000000000000000, 0.000000000000000000, 1.000000000000000000 ) ) ;
#349 = ORIENTED_EDGE ( 'NONE', *, *, #592, .F. ) ;
#350 = CARTESIAN_POINT ( 'NONE',  ( -7.500000000000000000, 277.4999999999999432, 37.49999999999999289 ) ) ;
#351 = LINE ( 'NONE', #731, #605 ) ;
#352 = EDGE_CURVE ( 'NONE', #514, #513, #18, .T. ) ;
#353 = CC_DESIGN_DATE_AND_TIME_ASSIGNMENT ( #328, #332, ( #397 ) ) ;
#354 = ORIENTED_EDGE ( 'NONE', *, *, #579, .F. ) ;
#355 = ADVANCED_FACE ( 'NONE', ( #520 ), #150, .F. ) ;
#356 = CARTESIAN_POINT ( 'NONE',  ( 0.000000000000000000, 0.000000000000000000, 12.49999999999996270 ) ) ;
#357 = CIRCLE ( 'NONE', #117, 7.500000000000000000 ) ;
#358 = EDGE_LOOP ( 'NONE', ( #483, #318, #656, #510 ) ) ;
#359 = DIRECTION ( 'NONE',  ( -1.000000000000000000, 0.000000000000000000, 0.000000000000000000 ) ) ;
#360 = CARTESIAN_POINT ( 'NONE',  ( -7.500000000000000000, 0.000000000000000000, 37.49999999999996447 ) ) ;
#361 = PRODUCT ( 'link3_forearm_\X2\9ed88ba4\X0\_sldprt', 'link3_forearm_\X2\9ed88ba4\X0\_sldprt', '', ( #209 ) ) ;
#362 = DIRECTION ( 'NONE',  ( 1.000000000000000000, 0.000000000000000000, 0.000000000000000000 ) ) ;
#363 = DIRECTION ( 'NONE',  ( 0.000000000000000000, 2.891205793294676847E-16, -1.000000000000000000 ) ) ;
#364 = ORIENTED_EDGE ( 'NONE', *, *, #477, .T. ) ;
#365 = DIRECTION ( 'NONE',  ( 1.000000000000000000, 0.000000000000000000, 0.000000000000000000 ) ) ;
#366 = PLANE ( 'NONE',  #325 ) ;
#367 = DIRECTION ( 'NONE',  ( 0.000000000000000000, 0.000000000000000000, -1.000000000000000000 ) ) ;
#368 = PLANE ( 'NONE',  #54 ) ;
#369 = EDGE_LOOP ( 'NONE', ( #569, #280 ) ) ;
#370 = ADVANCED_FACE ( 'NONE', ( #581 ), #479, .F. ) ;
#371 = CARTESIAN_POINT ( 'NONE',  ( -5.000000000000000000, 6.123233995736766282E-16, 0.000000000000000000 ) ) ;
#372 = AXIS2_PLACEMENT_3D ( 'NONE', #356, #737, #177 ) ;
#373 = EDGE_CURVE ( 'NONE', #178, #585, #594, .T. ) ;
#374 = AXIS2_PLACEMENT_3D ( 'NONE', #71, #312, #235 ) ;
#375 = FACE_BOUND ( 'NONE', #424, .T. ) ;
#376 = CLOSED_SHELL ( 'NONE', ( #342, #189, #370, #439, #640, #678, #97, #665, #556, #783, #804, #563, #538, #758, #450, #793, #794, #50, #355, #525, #701, #494 ) ) ;
#377 = CARTESIAN_POINT ( 'NONE',  ( 5.000000000000003553, 300.0000000000000000, 0.000000000000000000 ) ) ;
#378 = DIRECTION ( 'NONE',  ( -0.000000000000000000, -0.000000000000000000, -1.000000000000000000 ) ) ;
#379 = VERTEX_POINT ( 'NONE', #23 ) ;
#380 = EDGE_CURVE ( 'NONE', #261, #224, #279, .T. ) ;
#381 = EDGE_LOOP ( 'NONE', ( #743, #254, #364, #583 ) ) ;
#382 = CARTESIAN_POINT ( 'NONE',  ( 0.000000000000000000, 300.0000000000000000, 37.49999999999999289 ) ) ;
#383 = ORIENTED_EDGE ( 'NONE', *, *, #146, .F. ) ;
#384 = CIRCLE ( 'NONE', #372, 5.000000000000000000 ) ;
#385 = FACE_OUTER_BOUND ( 'NONE', #406, .T. ) ;
#386 = APPROVAL_PERSON_ORGANIZATION ( #21, #286, #16 ) ;
#387 = EDGE_LOOP ( 'NONE', ( #331, #761, #10, #716 ) ) ;
#388 = ORIENTED_EDGE ( 'NONE', *, *, #225, .T. ) ;
#389 = EDGE_LOOP ( 'NONE', ( #438, #628, #272, #15, #560, #596, #258, #691, #644, #317, #256, #354 ) ) ;
#390 = EDGE_CURVE ( 'NONE', #568, #379, #543, .T. ) ;
#391 = DIRECTION ( 'NONE',  ( 1.000000000000000000, 0.000000000000000000, 0.000000000000000000 ) ) ;
#392 = ORIENTED_EDGE ( 'NONE', *, *, #537, .T. ) ;
#393 = COORDINATED_UNIVERSAL_TIME_OFFSET ( 8, 0, .AHEAD. ) ;
#394 = VECTOR ( 'NONE', #223, 1000.000000000000000 ) ;
#395 = VERTEX_POINT ( 'NONE', #217 ) ;
#396 = PERSON_AND_ORGANIZATION_ROLE ( 'design_supplier' ) ;
#397 = SECURITY_CLASSIFICATION ( '', '', #772 ) ;
#398 = CARTESIAN_POINT ( 'NONE',  ( 5.000000000000003553, 300.0000000000000000, 0.000000000000000000 ) ) ;
#399 = LINE ( 'NONE', #643, #553 ) ;
#400 = ORIENTED_EDGE ( 'NONE', *, *, #519, .T. ) ;
#401 =( NAMED_UNIT ( * ) SI_UNIT ( $, .STERADIAN. ) SOLID_ANGLE_UNIT ( ) );
#402 = ORIENTED_EDGE ( 'NONE', *, *, #690, .F. ) ;
#403 = DIRECTION ( 'NONE',  ( 0.000000000000000000, 1.156482317317871478E-16, -1.000000000000000000 ) ) ;
#404 = DIRECTION ( 'NONE',  ( 0.000000000000000000, 0.000000000000000000, 1.000000000000000000 ) ) ;
#405 = CARTESIAN_POINT ( 'NONE',  ( 7.500000000000000000, -7.500000000000000000, 12.49999999999996270 ) ) ;
#406 = EDGE_LOOP ( 'NONE', ( #518, #301, #645, #511 ) ) ;
#407 = APPROVAL_DATE_TIME ( #466, #321 ) ;
#408 = EDGE_CURVE ( 'NONE', #695, #178, #162, .T. ) ;
#409 = ORIENTED_EDGE ( 'NONE', *, *, #700, .F. ) ;
#410 = CARTESIAN_POINT ( 'NONE',  ( 0.000000000000000000, 300.0000000000000000, 0.000000000000000000 ) ) ;
#411 = VECTOR ( 'NONE', #728, 1000.000000000000000 ) ;
#412 = DIRECTION ( 'NONE',  ( 1.000000000000000000, 0.000000000000000000, 0.000000000000000000 ) ) ;
#413 = CARTESIAN_POINT ( 'NONE',  ( 0.000000000000000000, 300.0000000000000000, 50.00000000000000000 ) ) ;
#414 = ORIENTED_EDGE ( 'NONE', *, *, #43, .T. ) ;
#415 = CARTESIAN_POINT ( 'NONE',  ( 0.000000000000000000, 0.000000000000000000, 37.49999999999996447 ) ) ;
#416 = VERTEX_POINT ( 'NONE', #712 ) ;
#417 = CARTESIAN_POINT ( 'NONE',  ( 0.000000000000000000, 0.000000000000000000, 0.000000000000000000 ) ) ;
#418 = CC_DESIGN_PERSON_AND_ORGANIZATION_ASSIGNMENT ( #762, #215, ( #119 ) ) ;
#419 = DIRECTION ( 'NONE',  ( 0.000000000000000000, 0.000000000000000000, -1.000000000000000000 ) ) ;
#420 = CARTESIAN_POINT ( 'NONE',  ( -7.500000000000000000, 300.0000000000000000, 50.00000000000000000 ) ) ;
#421 = CARTESIAN_POINT ( 'NONE',  ( 7.500000000000000000, 300.0000000000000000, 0.000000000000000000 ) ) ;
#422 = CYLINDRICAL_SURFACE ( 'NONE', #180, 5.000000000000000000 ) ;
#423 = CIRCLE ( 'NONE', #750, 7.500000000000000000 ) ;
#424 = EDGE_LOOP ( 'NONE', ( #481, #541 ) ) ;
#425 = LINE ( 'NONE', #601, #83 ) ;
#426 = FACE_BOUND ( 'NONE', #369, .T. ) ;
#427 = CARTESIAN_POINT ( 'NONE',  ( -5.000000000000003553, 300.0000000000000000, 0.000000000000000000 ) ) ;
#428 = EDGE_CURVE ( 'NONE', #48, #638, #281, .T. ) ;
#429 = EDGE_CURVE ( 'NONE', #513, #514, #190, .T. ) ;
#430 = DIRECTION ( 'NONE',  ( 0.000000000000000000, 1.000000000000000000, 0.000000000000000000 ) ) ;
#431 = DIRECTION ( 'NONE',  ( -0.000000000000000000, -0.000000000000000000, 1.000000000000000000 ) ) ;
#432 = VECTOR ( 'NONE', #542, 1000.000000000000000 ) ;
#433 = DIRECTION ( 'NONE',  ( 0.000000000000000000, 2.891205793294676847E-16, -1.000000000000000000 ) ) ;
#434 = VECTOR ( 'NONE', #491, 1000.000000000000000 ) ;
#435 = AXIS2_PLACEMENT_3D ( 'NONE', #443, #378, #619 ) ;
#436 = DIRECTION ( 'NONE',  ( -0.000000000000000000, -0.000000000000000000, 1.000000000000000000 ) ) ;
#437 = DIRECTION ( 'NONE',  ( -1.000000000000000000, 0.000000000000000000, 0.000000000000000000 ) ) ;
#438 = ORIENTED_EDGE ( 'NONE', *, *, #766, .T. ) ;
#439 = ADVANCED_FACE ( 'NONE', ( #786 ), #165, .F. ) ;
#440 = DIRECTION ( 'NONE',  ( 0.000000000000000000, -0.000000000000000000, 1.000000000000000000 ) ) ;
#441 = EDGE_CURVE ( 'NONE', #631, #379, #46, .T. ) ;
#442 = ORIENTED_EDGE ( 'NONE', *, *, #146, .T. ) ;
#443 = CARTESIAN_POINT ( 'NONE',  ( 0.000000000000000000, 300.0000000000000000, 50.00000000000000000 ) ) ;
#444 = EDGE_LOOP ( 'NONE', ( #277, #684, #100, #445 ) ) ;
#445 = ORIENTED_EDGE ( 'NONE', *, *, #70, .F. ) ;
#446 = ORIENTED_EDGE ( 'NONE', *, *, #182, .F. ) ;
#447 = AXIS2_PLACEMENT_3D ( 'NONE', #471, #108, #412 ) ;
#448 = CARTESIAN_POINT ( 'NONE',  ( 5.000000000000000000, 0.000000000000000000, 0.000000000000000000 ) ) ;
#449 = ORIENTED_EDGE ( 'NONE', *, *, #746, .T. ) ;
#450 = ADVANCED_FACE ( 'NONE', ( #257 ), #207, .F. ) ;
#451 = VERTEX_POINT ( 'NONE', #448 ) ;
#452 = CALENDAR_DATE ( 2026, 12, 6 ) ;
#453 = PRODUCT_DEFINITION ( '未知', '', #119, #608 ) ;
#454 = APPROVAL_DATE_TIME ( #154, #502 ) ;
#455 = LINE ( 'NONE', #341, #230 ) ;
#456 = DIRECTION ( 'NONE',  ( 0.000000000000000000, 1.000000000000000000, 1.156482317317871478E-16 ) ) ;
#457 = VECTOR ( 'NONE', #552, 1000.000000000000000 ) ;
#458 = EDGE_LOOP ( 'NONE', ( #9, #392, #98, #319 ) ) ;
#459 = COORDINATED_UNIVERSAL_TIME_OFFSET ( 8, 0, .AHEAD. ) ;
#460 = EDGE_LOOP ( 'NONE', ( #669, #771 ) ) ;
#461 = DIRECTION ( 'NONE',  ( -0.000000000000000000, -0.000000000000000000, -1.000000000000000000 ) ) ;
#462 = DIRECTION ( 'NONE',  ( -0.000000000000000000, -0.000000000000000000, -1.000000000000000000 ) ) ;
#463 = AXIS2_PLACEMENT_3D ( 'NONE', #724, #348, #611 ) ;
#464 = EDGE_CURVE ( 'NONE', #757, #708, #767, .T. ) ;
#465 = ORIENTED_EDGE ( 'NONE', *, *, #6, .F. ) ;
#466 = DATE_AND_TIME ( #220, #57 ) ;
#467 = EDGE_LOOP ( 'NONE', ( #327, #764 ) ) ;
#468 = CARTESIAN_POINT ( 'NONE',  ( 0.000000000000000000, 0.000000000000000000, 50.00000000000000000 ) ) ;
#469 = CARTESIAN_POINT ( 'NONE',  ( -7.500000000000000000, 0.000000000000000000, 50.00000000000000000 ) ) ;
#470 = LINE ( 'NONE', #529, #247 ) ;
#471 = CARTESIAN_POINT ( 'NONE',  ( 0.000000000000000000, 300.0000000000000000, 0.000000000000000000 ) ) ;
#472 = DIRECTION ( 'NONE',  ( 0.000000000000000000, 0.000000000000000000, 1.000000000000000000 ) ) ;
#473 = DIRECTION ( 'NONE',  ( -0.000000000000000000, -0.000000000000000000, -1.000000000000000000 ) ) ;
#474 = VECTOR ( 'NONE', #436, 1000.000000000000000 ) ;
#475 = VECTOR ( 'NONE', #564, 1000.000000000000000 ) ;
#476 = LOCAL_TIME ( 9, 16, 29.00000000000000000, #160 ) ;
#477 = EDGE_CURVE ( 'NONE', #620, #178, #423, .T. ) ;
#478 = CC_DESIGN_PERSON_AND_ORGANIZATION_ASSIGNMENT ( #265, #148, ( #453 ) ) ;
#479 = CYLINDRICAL_SURFACE ( 'NONE', #723, 5.000000000000003553 ) ;
#480 = DIRECTION ( 'NONE',  ( 1.000000000000000000, 0.000000000000000000, 0.000000000000000000 ) ) ;
#481 = ORIENTED_EDGE ( 'NONE', *, *, #37, .T. ) ;
#482 = CARTESIAN_POINT ( 'NONE',  ( 7.500000000000000000, 22.50000000000000000, 37.49999999999996447 ) ) ;
#483 = ORIENTED_EDGE ( 'NONE', *, *, #96, .F. ) ;
#484 = LINE ( 'NONE', #115, #741 ) ;
#485 = DIRECTION ( 'NONE',  ( 1.000000000000000000, 0.000000000000000000, 0.000000000000000000 ) ) ;
#486 = ORIENTED_EDGE ( 'NONE', *, *, #17, .T. ) ;
#487 = DIRECTION ( 'NONE',  ( -0.000000000000000000, -0.000000000000000000, -1.000000000000000000 ) ) ;
#488 = CARTESIAN_POINT ( 'NONE',  ( -7.500000000000000000, 307.5000000000000000, 12.50000000000000000 ) ) ;
#489 = ORIENTED_EDGE ( 'NONE', *, *, #268, .F. ) ;
#490 = LINE ( 'NONE', #733, #774 ) ;
#491 = DIRECTION ( 'NONE',  ( 0.000000000000000000, -1.000000000000000000, 0.000000000000000000 ) ) ;
#492 = PLANE ( 'NONE',  #614 ) ;
#493 = FACE_OUTER_BOUND ( 'NONE', #263, .T. ) ;
#494 = ADVANCED_FACE ( 'NONE', ( #385 ), #624, .F. ) ;
#495 = DIRECTION ( 'NONE',  ( 1.000000000000000000, 0.000000000000000000, 0.000000000000000000 ) ) ;
#496 = CARTESIAN_POINT ( 'NONE',  ( -5.000000000000003553, 300.0000000000000000, 37.49999999999999289 ) ) ;
#497 = EDGE_CURVE ( 'NONE', #76, #697, #42, .T. ) ;
#498 = DIRECTION ( 'NONE',  ( 0.000000000000000000, 1.000000000000000000, 2.891205793294676847E-16 ) ) ;
#499 = CARTESIAN_POINT ( 'NONE',  ( 0.000000000000000000, 300.0000000000000000, 12.49999999999999822 ) ) ;
#500 = CARTESIAN_POINT ( 'NONE',  ( 5.000000000000003553, 300.0000000000000000, 50.00000000000000000 ) ) ;
#501 = EDGE_CURVE ( 'NONE', #94, #194, #105, .T. ) ;
#502 = APPROVAL ( #145, '未指定' ) ;
#503 = AXIS2_PLACEMENT_3D ( 'NONE', #82, #273, #203 ) ;
#504 = EDGE_CURVE ( 'NONE', #155, #718, #587, .T. ) ;
#505 = CARTESIAN_POINT ( 'NONE',  ( 0.000000000000000000, 0.000000000000000000, 0.000000000000000000 ) ) ;
#506 = CYLINDRICAL_SURFACE ( 'NONE', #149, 7.500000000000000000 ) ;
#507 = EDGE_LOOP ( 'NONE', ( #238, #409, #660, #759 ) ) ;
#508 = ORIENTED_EDGE ( 'NONE', *, *, #799, .F. ) ;
#509 = CARTESIAN_POINT ( 'NONE',  ( -7.500000000000000000, 22.50000000000000000, 37.49999999999996447 ) ) ;
#510 = ORIENTED_EDGE ( 'NONE', *, *, #296, .F. ) ;
#511 = ORIENTED_EDGE ( 'NONE', *, *, #650, .T. ) ;
#512 = EDGE_CURVE ( 'NONE', #718, #513, #300, .T. ) ;
#513 = VERTEX_POINT ( 'NONE', #500 ) ;
#514 = VERTEX_POINT ( 'NONE', #677 ) ;
#515 = AXIS2_PLACEMENT_3D ( 'NONE', #227, #472, #803 ) ;
#516 = AXIS2_PLACEMENT_3D ( 'NONE', #706, #212, #456 ) ;
#517 = EDGE_LOOP ( 'NONE', ( #196, #32, #768, #221 ) ) ;
#518 = ORIENTED_EDGE ( 'NONE', *, *, #537, .F. ) ;
#519 = EDGE_CURVE ( 'NONE', #155, #514, #69, .T. ) ;
#520 = FACE_OUTER_BOUND ( 'NONE', #507, .T. ) ;
#521 = DIRECTION ( 'NONE',  ( 0.000000000000000000, 0.000000000000000000, -1.000000000000000000 ) ) ;
#522 = ORIENTED_EDGE ( 'NONE', *, *, #269, .F. ) ;
#523 = DATE_AND_TIME ( #206, #805 ) ;
#524 = DIRECTION ( 'NONE',  ( 1.000000000000000000, 0.000000000000000000, 0.000000000000000000 ) ) ;
#525 = ADVANCED_FACE ( 'NONE', ( #493 ), #126, .F. ) ;
#526 = CARTESIAN_POINT ( 'NONE',  ( -7.500000000000000000, 0.000000000000000000, 50.00000000000000000 ) ) ;
#527 = ADVANCED_BREP_SHAPE_REPRESENTATION ( 'link3_forearm_\X2\9ed88ba4\X0\_sldprt', ( #198, #503 ), #635 ) ;
#528 = VECTOR ( 'NONE', #184, 1000.000000000000000 ) ;
#529 = CARTESIAN_POINT ( 'NONE',  ( -7.500000000000000000, 22.50000000000000000, 37.49999999999996447 ) ) ;
#530 = DATE_TIME_ROLE ( 'creation_date' ) ;
#531 = ORIENTED_EDGE ( 'NONE', *, *, #111, .F. ) ;
#532 = CARTESIAN_POINT ( 'NONE',  ( 7.500000000000000000, 0.000000000000000000, 50.00000000000000000 ) ) ;
#533 = ORIENTED_EDGE ( 'NONE', *, *, #213, .F. ) ;
#534 = EDGE_LOOP ( 'NONE', ( #85, #694 ) ) ;
#535 = DIRECTION ( 'NONE',  ( 1.000000000000000000, 0.000000000000000000, 0.000000000000000000 ) ) ;
#536 = CARTESIAN_POINT ( 'NONE',  ( 7.500000000000000000, 300.0000000000000000, 50.00000000000000000 ) ) ;
#537 = EDGE_CURVE ( 'NONE', #760, #261, #612, .T. ) ;
#538 = ADVANCED_FACE ( 'NONE', ( #303, #61 ), #3, .F. ) ;
#539 = CARTESIAN_POINT ( 'NONE',  ( 7.500000000000000000, 0.000000000000000000, 50.00000000000000000 ) ) ;
#540 = DIRECTION ( 'NONE',  ( 1.000000000000000000, 0.000000000000000000, 0.000000000000000000 ) ) ;
#541 = ORIENTED_EDGE ( 'NONE', *, *, #736, .T. ) ;
#542 = DIRECTION ( 'NONE',  ( 1.000000000000000000, -0.000000000000000000, -0.000000000000000000 ) ) ;
#543 = CIRCLE ( 'NONE', #588, 5.000000000000004441 ) ;
#544 = CARTESIAN_POINT ( 'NONE',  ( 5.000000000000000000, 0.000000000000000000, 50.00000000000000000 ) ) ;
#545 = CARTESIAN_POINT ( 'NONE',  ( -7.500000000000000000, 22.50000000000000000, 37.49999999999996447 ) ) ;
#546 = CARTESIAN_POINT ( 'NONE',  ( -7.500000000000000000, 22.50000000000000000, 12.49999999999996447 ) ) ;
#547 = CARTESIAN_POINT ( 'NONE',  ( -7.500000000000000000, -7.500000000000000000, 37.49999999999996447 ) ) ;
#548 = LINE ( 'NONE', #536, #128 ) ;
#549 = DIRECTION ( 'NONE',  ( 1.000000000000000000, 0.000000000000000000, -0.000000000000000000 ) ) ;
#550 = EDGE_LOOP ( 'NONE', ( #590, #172, #449, #686 ) ) ;
#551 = CARTESIAN_POINT ( 'NONE',  ( 0.000000000000000000, 0.000000000000000000, 12.49999999999996270 ) ) ;
#552 = DIRECTION ( 'NONE',  ( -0.000000000000000000, -1.000000000000000000, -0.000000000000000000 ) ) ;
#553 = VECTOR ( 'NONE', #462, 1000.000000000000000 ) ;
#554 = DIRECTION ( 'NONE',  ( 1.000000000000000000, 0.000000000000000000, 0.000000000000000000 ) ) ;
#555 = CC_DESIGN_DATE_AND_TIME_ASSIGNMENT ( #778, #530, ( #453 ) ) ;
#556 = ADVANCED_FACE ( 'NONE', ( #613 ), #506, .T. ) ;
#557 = DIRECTION ( 'NONE',  ( 0.000000000000000000, 0.000000000000000000, 1.000000000000000000 ) ) ;
#558 = DIRECTION ( 'NONE',  ( -0.000000000000000000, -0.000000000000000000, 1.000000000000000000 ) ) ;
#559 = AXIS2_PLACEMENT_3D ( 'NONE', #243, #558, #554 ) ;
#560 = ORIENTED_EDGE ( 'NONE', *, *, #408, .T. ) ;
#561 = DIRECTION ( 'NONE',  ( 1.000000000000000000, 0.000000000000000000, 0.000000000000000000 ) ) ;
#562 = ORIENTED_EDGE ( 'NONE', *, *, #497, .F. ) ;
#563 = ADVANCED_FACE ( 'NONE', ( #618, #375, #1 ), #368, .F. ) ;
#564 = DIRECTION ( 'NONE',  ( -0.000000000000000000, 1.000000000000000000, 1.156482317317871478E-16 ) ) ;
#565 = EDGE_LOOP ( 'NONE', ( #755, #629 ) ) ;
#566 = DIRECTION ( 'NONE',  ( -0.000000000000000000, -0.000000000000000000, 1.000000000000000000 ) ) ;
#567 = VERTEX_POINT ( 'NONE', #667 ) ;
#568 = VERTEX_POINT ( 'NONE', #120 ) ;
#569 = ORIENTED_EDGE ( 'NONE', *, *, #390, .T. ) ;
#570 = APPLICATION_PROTOCOL_DEFINITION ( 'international standard', 'config_control_design', 1994, #681 ) ;
#571 = VECTOR ( 'NONE', #367, 1000.000000000000000 ) ;
#572 = AXIS2_PLACEMENT_3D ( 'NONE', #289, #52, #729 ) ;
#573 = ORIENTED_EDGE ( 'NONE', *, *, #352, .T. ) ;
#574 = APPLICATION_PROTOCOL_DEFINITION ( 'international standard', 'config_control_design', 1994, #53 ) ;
#575 = CARTESIAN_POINT ( 'NONE',  ( 0.000000000000000000, 300.0000000000000000, 0.000000000000000000 ) ) ;
#576 = FACE_BOUND ( 'NONE', #340, .T. ) ;
#577 = EDGE_LOOP ( 'NONE', ( #508, #73, #284, #39 ) ) ;
#578 = PERSON_AND_ORGANIZATION ( #81, #293 ) ;
#579 = EDGE_CURVE ( 'NONE', #219, #94, #130, .T. ) ;
#580 = EDGE_CURVE ( 'NONE', #379, #568, #337, .T. ) ;
#581 = FACE_OUTER_BOUND ( 'NONE', #675, .T. ) ;
#582 = PLANE ( 'NONE',  #641 ) ;
#583 = ORIENTED_EDGE ( 'NONE', *, *, #408, .F. ) ;
#584 = COORDINATED_UNIVERSAL_TIME_OFFSET ( 8, 0, .AHEAD. ) ;
#585 = VERTEX_POINT ( 'NONE', #748 ) ;
#586 = DIRECTION ( 'NONE',  ( -0.000000000000000000, -0.000000000000000000, 1.000000000000000000 ) ) ;
#587 = CIRCLE ( 'NONE', #515, 5.000000000000003553 ) ;
#588 = AXIS2_PLACEMENT_3D ( 'NONE', #773, #274, #717 ) ;
#589 = ORIENTED_EDGE ( 'NONE', *, *, #512, .F. ) ;
#590 = ORIENTED_EDGE ( 'NONE', *, *, #607, .T. ) ;
#591 = CARTESIAN_POINT ( 'NONE',  ( 5.000000000000003553, 300.0000000000000000, 0.000000000000000000 ) ) ;
#592 = EDGE_CURVE ( 'NONE', #695, #567, #252, .T. ) ;
#593 = CARTESIAN_POINT ( 'NONE',  ( 7.500000000000000000, 0.000000000000000000, 0.000000000000000000 ) ) ;
#594 = LINE ( 'NONE', #92, #314 ) ;
#595 = CARTESIAN_POINT ( 'NONE',  ( 0.000000000000000000, 300.0000000000000000, 37.49999999999999289 ) ) ;
#596 = ORIENTED_EDGE ( 'NONE', *, *, #373, .T. ) ;
#597 = DIRECTION ( 'NONE',  ( -0.000000000000000000, -0.000000000000000000, 1.000000000000000000 ) ) ;
#598 = VECTOR ( 'NONE', #798, 1000.000000000000000 ) ;
#599 = DIRECTION ( 'NONE',  ( 1.000000000000000000, -0.000000000000000000, -0.000000000000000000 ) ) ;
#600 = CARTESIAN_POINT ( 'NONE',  ( 7.500000000000000000, 300.0000000000000000, 50.00000000000000000 ) ) ;
#601 = CARTESIAN_POINT ( 'NONE',  ( 5.000000000000000000, 0.000000000000000000, 0.000000000000000000 ) ) ;
#602 = AXIS2_PLACEMENT_3D ( 'NONE', #499, #363, #64 ) ;
#603 = DIRECTION ( 'NONE',  ( 0.000000000000000000, 0.000000000000000000, 1.000000000000000000 ) ) ;
#604 = CARTESIAN_POINT ( 'NONE',  ( 7.500000000000000000, 22.50000000000000000, 37.49999999999996447 ) ) ;
#605 = VECTOR ( 'NONE', #245, 1000.000000000000000 ) ;
#606 = FACE_OUTER_BOUND ( 'NONE', #550, .T. ) ;
#607 = EDGE_CURVE ( 'NONE', #94, #259, #357, .T. ) ;
#608 = DESIGN_CONTEXT ( 'detailed design', #53, 'design' ) ;
#609 = EDGE_LOOP ( 'NONE', ( #533, #4, #383, #135, #777, #489, #313, #562, #77, #765, #531, #35 ) ) ;
#610 = LINE ( 'NONE', #547, #216 ) ;
#611 = DIRECTION ( 'NONE',  ( 1.000000000000000000, 0.000000000000000000, 0.000000000000000000 ) ) ;
#612 = LINE ( 'NONE', #371, #692 ) ;
#613 = FACE_OUTER_BOUND ( 'NONE', #381, .T. ) ;
#614 = AXIS2_PLACEMENT_3D ( 'NONE', #740, #674, #498 ) ;
#615 = UNCERTAINTY_MEASURE_WITH_UNIT (LENGTH_MEASURE( 1.000000000000000082E-05 ), #347, 'distance_accuracy_value', 'NONE');
#616 = EDGE_CURVE ( 'NONE', #702, #194, #610, .T. ) ;
#617 = CC_DESIGN_PERSON_AND_ORGANIZATION_ASSIGNMENT ( #639, #715, ( #397 ) ) ;
#618 = FACE_BOUND ( 'NONE', #534, .T. ) ;
#619 = DIRECTION ( 'NONE',  ( -1.000000000000000000, 0.000000000000000000, 0.000000000000000000 ) ) ;
#620 = VERTEX_POINT ( 'NONE', #421 ) ;
#621 = VERTEX_POINT ( 'NONE', #59 ) ;
#622 = VECTOR ( 'NONE', #270, 1000.000000000000000 ) ;
#623 = ORIENTED_EDGE ( 'NONE', *, *, #169, .F. ) ;
#624 = CYLINDRICAL_SURFACE ( 'NONE', #65, 5.000000000000000000 ) ;
#625 = ORIENTED_EDGE ( 'NONE', *, *, #736, .F. ) ;
#626 = VECTOR ( 'NONE', #473, 1000.000000000000000 ) ;
#627 = EDGE_CURVE ( 'NONE', #451, #416, #670, .T. ) ;
#628 = ORIENTED_EDGE ( 'NONE', *, *, #211, .T. ) ;
#629 = ORIENTED_EDGE ( 'NONE', *, *, #352, .F. ) ;
#630 = APPROVAL_STATUS ( 'not_yet_approved' ) ;
#631 = VERTEX_POINT ( 'NONE', #663 ) ;
#632 = CARTESIAN_POINT ( 'NONE',  ( -5.000000000000000000, 6.123233995736766282E-16, 50.00000000000000000 ) ) ;
#633 = FACE_OUTER_BOUND ( 'NONE', #444, .T. ) ;
#634 = DIRECTION ( 'NONE',  ( 1.000000000000000000, 0.000000000000000000, 0.000000000000000000 ) ) ;
#635 =( GEOMETRIC_REPRESENTATION_CONTEXT ( 3 ) GLOBAL_UNCERTAINTY_ASSIGNED_CONTEXT ( ( #615 ) ) GLOBAL_UNIT_ASSIGNED_CONTEXT ( ( #347, #671, #401 ) ) REPRESENTATION_CONTEXT ( 'NONE', 'WORKASPACE' ) );
#636 = EDGE_CURVE ( 'NONE', #161, #697, #490, .T. ) ;
#637 = CC_DESIGN_PERSON_AND_ORGANIZATION_ASSIGNMENT ( #703, #396, ( #119 ) ) ;
#638 = VERTEX_POINT ( 'NONE', #738 ) ;
#639 = PERSON_AND_ORGANIZATION ( #81, #293 ) ;
#640 = ADVANCED_FACE ( 'NONE', ( #116 ), #244, .T. ) ;
#641 = AXIS2_PLACEMENT_3D ( 'NONE', #31, #276, #419 ) ;
#642 = DIRECTION ( 'NONE',  ( -0.000000000000000000, -0.000000000000000000, 1.000000000000000000 ) ) ;
#643 = CARTESIAN_POINT ( 'NONE',  ( -7.500000000000000000, 300.0000000000000000, 50.00000000000000000 ) ) ;
#644 = ORIENTED_EDGE ( 'NONE', *, *, #6, .T. ) ;
#645 = ORIENTED_EDGE ( 'NONE', *, *, #139, .T. ) ;
#646 = DIRECTION ( 'NONE',  ( 0.000000000000000000, 1.000000000000000000, 0.000000000000000000 ) ) ;
#647 = ORIENTED_EDGE ( 'NONE', *, *, #182, .T. ) ;
#648 = SHAPE_DEFINITION_REPRESENTATION ( #58, #527 ) ;
#649 = EDGE_LOOP ( 'NONE', ( #142, #11 ) ) ;
#650 = EDGE_CURVE ( 'NONE', #224, #261, #693, .T. ) ;
#651 = CARTESIAN_POINT ( 'NONE',  ( 0.000000000000000000, 300.0000000000000000, 50.00000000000000000 ) ) ;
#652 = EDGE_CURVE ( 'NONE', #236, #161, #62, .T. ) ;
#653 = VECTOR ( 'NONE', #599, 1000.000000000000000 ) ;
#654 = AXIS2_PLACEMENT_3D ( 'NONE', #157, #404, #549 ) ;
#655 = CARTESIAN_POINT ( 'NONE',  ( 5.000000000000000000, 0.000000000000000000, 37.49999999999996447 ) ) ;
#656 = ORIENTED_EDGE ( 'NONE', *, *, #390, .F. ) ;
#657 = DIRECTION ( 'NONE',  ( 1.000000000000000000, 0.000000000000000000, -0.000000000000000000 ) ) ;
#658 = DIRECTION ( 'NONE',  ( 0.000000000000000000, -0.000000000000000000, 1.000000000000000000 ) ) ;
#659 = LINE ( 'NONE', #112, #653 ) ;
#660 = ORIENTED_EDGE ( 'NONE', *, *, #296, .T. ) ;
#661 = DIRECTION ( 'NONE',  ( 0.000000000000000000, 1.000000000000000000, 0.000000000000000000 ) ) ;
#662 = DIRECTION ( 'NONE',  ( -0.000000000000000000, -0.000000000000000000, -1.000000000000000000 ) ) ;
#663 = CARTESIAN_POINT ( 'NONE',  ( -5.000000000000003553, 300.0000000000000000, 0.000000000000000000 ) ) ;
#664 = DIRECTION ( 'NONE',  ( -0.000000000000000000, -0.000000000000000000, 1.000000000000000000 ) ) ;
#665 = ADVANCED_FACE ( 'NONE', ( #753 ), #7, .F. ) ;
#666 = VECTOR ( 'NONE', #298, 1000.000000000000000 ) ;
#667 = CARTESIAN_POINT ( 'NONE',  ( 7.500000000000000000, 300.0000000000000000, 12.49999999999999822 ) ) ;
#668 = CC_DESIGN_APPROVAL ( #286, ( #453 ) ) ;
#669 = ORIENTED_EDGE ( 'NONE', *, *, #164, .T. ) ;
#670 = LINE ( 'NONE', #239, #666 ) ;
#671 =( NAMED_UNIT ( * ) PLANE_ANGLE_UNIT ( ) SI_UNIT ( $, .RADIAN. ) );
#672 = LINE ( 'NONE', #122, #571 ) ;
#673 = AXIS2_PLACEMENT_3D ( 'NONE', #551, #107, #661 ) ;
#674 = DIRECTION ( 'NONE',  ( 0.000000000000000000, 2.891205793294676847E-16, -1.000000000000000000 ) ) ;
#675 = EDGE_LOOP ( 'NONE', ( #336, #400, #573, #589 ) ) ;
#676 = FACE_BOUND ( 'NONE', #565, .T. ) ;
#677 = CARTESIAN_POINT ( 'NONE',  ( -5.000000000000003553, 300.0000000000000000, 50.00000000000000000 ) ) ;
#678 = ADVANCED_FACE ( 'NONE', ( #683 ), #2, .T. ) ;
#679 = VECTOR ( 'NONE', #642, 1000.000000000000000 ) ;
#680 = AXIS2_PLACEMENT_3D ( 'NONE', #417, #113, #540 ) ;
#681 = APPLICATION_CONTEXT ( 'configuration controlled 3d designs of mechanical parts and assemblies' ) ;
#682 = DIRECTION ( 'NONE',  ( 0.000000000000000000, 0.000000000000000000, 1.000000000000000000 ) ) ;
#683 = FACE_OUTER_BOUND ( 'NONE', #153, .T. ) ;
#684 = ORIENTED_EDGE ( 'NONE', *, *, #636, .F. ) ;
#685 = DIRECTION ( 'NONE',  ( 0.000000000000000000, 0.000000000000000000, 1.000000000000000000 ) ) ;
#686 = ORIENTED_EDGE ( 'NONE', *, *, #579, .T. ) ;
#687 = CARTESIAN_POINT ( 'NONE',  ( 7.500000000000000000, 22.50000000000000000, 12.49999999999996625 ) ) ;
#688 = ORIENTED_EDGE ( 'NONE', *, *, #268, .T. ) ;
#689 = DIRECTION ( 'NONE',  ( 0.000000000000000000, -1.000000000000000000, 0.000000000000000000 ) ) ;
#690 = EDGE_CURVE ( 'NONE', #718, #155, #305, .T. ) ;
#691 = ORIENTED_EDGE ( 'NONE', *, *, #652, .T. ) ;
#692 = VECTOR ( 'NONE', #431, 1000.000000000000000 ) ;
#693 = CIRCLE ( 'NONE', #19, 5.000000000000000000 ) ;
#694 = ORIENTED_EDGE ( 'NONE', *, *, #96, .T. ) ;
#695 = VERTEX_POINT ( 'NONE', #75 ) ;
#696 = VECTOR ( 'NONE', #707, 1000.000000000000000 ) ;
#697 = VERTEX_POINT ( 'NONE', #687 ) ;
#698 = PERSON_AND_ORGANIZATION ( #81, #293 ) ;
#699 = EDGE_CURVE ( 'NONE', #194, #13, #87, .T. ) ;
#700 = EDGE_CURVE ( 'NONE', #297, #631, #802, .T. ) ;
#701 = ADVANCED_FACE ( 'NONE', ( #732 ), #721, .F. ) ;
#702 = VERTEX_POINT ( 'NONE', #545 ) ;
#703 = PERSON_AND_ORGANIZATION ( #81, #293 ) ;
#704 = LINE ( 'NONE', #532, #304 ) ;
#705 = AXIS2_PLACEMENT_3D ( 'NONE', #187, #433, #310 ) ;
#706 = CARTESIAN_POINT ( 'NONE',  ( -7.500000000000000000, -7.500000000000000000, 12.49999999999996270 ) ) ;
#707 = DIRECTION ( 'NONE',  ( -0.000000000000000000, 1.000000000000000000, 2.891205793294676354E-16 ) ) ;
#708 = VERTEX_POINT ( 'NONE', #231 ) ;
#709 = APPROVAL_ROLE ( '' ) ;
#710 = VERTEX_POINT ( 'NONE', #350 ) ;
#711 = CIRCLE ( 'NONE', #673, 7.500000000000000000 ) ;
#712 = CARTESIAN_POINT ( 'NONE',  ( 5.000000000000000000, 0.000000000000000000, 12.49999999999996270 ) ) ;
#713 = PLANE ( 'NONE',  #654 ) ;
#714 = DIRECTION ( 'NONE',  ( -0.000000000000000000, -0.000000000000000000, 1.000000000000000000 ) ) ;
#715 = PERSON_AND_ORGANIZATION_ROLE ( 'classification_officer' ) ;
#716 = ORIENTED_EDGE ( 'NONE', *, *, #249, .F. ) ;
#717 = DIRECTION ( 'NONE',  ( 0.000000000000000000, 1.000000000000000000, 3.469446951953611231E-16 ) ) ;
#718 = VERTEX_POINT ( 'NONE', #167 ) ;
#719 = CC_DESIGN_PERSON_AND_ORGANIZATION_ASSIGNMENT ( #95, #28, ( #361 ) ) ;
#720 = DIRECTION ( 'NONE',  ( 1.000000000000000000, 0.000000000000000000, 0.000000000000000000 ) ) ;
#721 = CYLINDRICAL_SURFACE ( 'NONE', #680, 5.000000000000000000 ) ;
#722 = DIRECTION ( 'NONE',  ( 0.000000000000000000, 0.000000000000000000, 1.000000000000000000 ) ) ;
#723 = AXIS2_PLACEMENT_3D ( 'NONE', #575, #334, #329 ) ;
#724 = CARTESIAN_POINT ( 'NONE',  ( 0.000000000000000000, 300.0000000000000000, 0.000000000000000000 ) ) ;
#725 = AXIS2_PLACEMENT_3D ( 'NONE', #185, #745, #362 ) ;
#726 = LOCAL_TIME ( 9, 16, 29.00000000000000000, #459 ) ;
#727 = ORIENTED_EDGE ( 'NONE', *, *, #501, .T. ) ;
#728 = DIRECTION ( 'NONE',  ( -0.000000000000000000, -0.000000000000000000, 1.000000000000000000 ) ) ;
#729 = DIRECTION ( 'NONE',  ( 1.000000000000000000, 0.000000000000000000, 0.000000000000000000 ) ) ;
#730 = VERTEX_POINT ( 'NONE', #600 ) ;
#731 = CARTESIAN_POINT ( 'NONE',  ( 7.500000000000000000, 0.000000000000000000, 50.00000000000000000 ) ) ;
#732 = FACE_OUTER_BOUND ( 'NONE', #387, .T. ) ;
#733 = CARTESIAN_POINT ( 'NONE',  ( -7.500000000000000000, 22.50000000000000000, 12.49999999999996625 ) ) ;
#734 = EDGE_CURVE ( 'NONE', #757, #45, #202, .T. ) ;
#735 = FACE_OUTER_BOUND ( 'NONE', #20, .T. ) ;
#736 = EDGE_CURVE ( 'NONE', #48, #451, #751, .T. ) ;
#737 = DIRECTION ( 'NONE',  ( 0.000000000000000000, 1.156482317317871478E-16, -1.000000000000000000 ) ) ;
#738 = CARTESIAN_POINT ( 'NONE',  ( -5.000000000000000000, 6.123233995736766282E-16, 12.49999999999996270 ) ) ;
#739 = DIRECTION ( 'NONE',  ( 1.000000000000000000, 0.000000000000000000, 0.000000000000000000 ) ) ;
#740 = CARTESIAN_POINT ( 'NONE',  ( -7.500000000000000000, 307.5000000000000000, 12.50000000000000000 ) ) ;
#741 = VECTOR ( 'NONE', #662, 1000.000000000000000 ) ;
#742 = DIRECTION ( 'NONE',  ( 1.000000000000000000, 0.000000000000000000, -0.000000000000000000 ) ) ;
#743 = ORIENTED_EDGE ( 'NONE', *, *, #592, .T. ) ;
#744 = DIRECTION ( 'NONE',  ( -0.000000000000000000, -0.000000000000000000, -1.000000000000000000 ) ) ;
#745 = DIRECTION ( 'NONE',  ( 0.000000000000000000, 0.000000000000000000, 1.000000000000000000 ) ) ;
#746 = EDGE_CURVE ( 'NONE', #730, #219, #66, .T. ) ;
#747 = CARTESIAN_POINT ( 'NONE',  ( -7.500000000000000000, 0.000000000000000000, 50.00000000000000000 ) ) ;
#748 = CARTESIAN_POINT ( 'NONE',  ( -7.500000000000000000, 0.000000000000000000, 0.000000000000000000 ) ) ;
#749 = CARTESIAN_POINT ( 'NONE',  ( 0.000000000000000000, 0.000000000000000000, 50.00000000000000000 ) ) ;
#750 = AXIS2_PLACEMENT_3D ( 'NONE', #136, #143, #391 ) ;
#751 = CIRCLE ( 'NONE', #572, 5.000000000000000000 ) ;
#752 = LOCAL_TIME ( 9, 16, 29.00000000000000000, #584 ) ;
#753 = FACE_OUTER_BOUND ( 'NONE', #609, .T. ) ;
#754 = DIRECTION ( 'NONE',  ( 0.000000000000000000, 0.000000000000000000, 1.000000000000000000 ) ) ;
#755 = ORIENTED_EDGE ( 'NONE', *, *, #429, .F. ) ;
#756 = DIRECTION ( 'NONE',  ( 0.000000000000000000, 0.000000000000000000, 1.000000000000000000 ) ) ;
#757 = VERTEX_POINT ( 'NONE', #346 ) ;
#758 = ADVANCED_FACE ( 'NONE', ( #576, #633 ), #218, .F. ) ;
#759 = ORIENTED_EDGE ( 'NONE', *, *, #580, .F. ) ;
#760 = VERTEX_POINT ( 'NONE', #24 ) ;
#761 = ORIENTED_EDGE ( 'NONE', *, *, #37, .F. ) ;
#762 = PERSON_AND_ORGANIZATION ( #81, #293 ) ;
#763 = AXIS2_PLACEMENT_3D ( 'NONE', #468, #29, #720 ) ;
#764 = ORIENTED_EDGE ( 'NONE', *, *, #380, .F. ) ;
#765 = ORIENTED_EDGE ( 'NONE', *, *, #124, .T. ) ;
#766 = EDGE_CURVE ( 'NONE', #219, #45, #399, .T. ) ;
#767 = LINE ( 'NONE', #14, #74 ) ;
#768 = ORIENTED_EDGE ( 'NONE', *, *, #211, .F. ) ;
#769 = CALENDAR_DATE ( 2026, 12, 6 ) ;
#770 = DIRECTION ( 'NONE',  ( -0.000000000000000000, -0.000000000000000000, 1.000000000000000000 ) ) ;
#771 = ORIENTED_EDGE ( 'NONE', *, *, #151, .T. ) ;
#772 = SECURITY_CLASSIFICATION_LEVEL ( 'unclassified' ) ;
#773 = CARTESIAN_POINT ( 'NONE',  ( 0.000000000000000000, 300.0000000000000000, 12.49999999999999822 ) ) ;
#774 = VECTOR ( 'NONE', #797, 1000.000000000000000 ) ;
#775 = PLANE ( 'NONE',  #168 ) ;
#776 = CARTESIAN_POINT ( 'NONE',  ( 7.500000000000000000, 307.5000000000000000, 12.50000000000000000 ) ) ;
#777 = ORIENTED_EDGE ( 'NONE', *, *, #240, .T. ) ;
#778 = DATE_AND_TIME ( #452, #752 ) ;
#779 = ORIENTED_EDGE ( 'NONE', *, *, #519, .F. ) ;
#780 = CIRCLE ( 'NONE', #463, 5.000000000000003553 ) ;
#781 = FACE_OUTER_BOUND ( 'NONE', #458, .T. ) ;
#782 = DIRECTION ( 'NONE',  ( 0.000000000000000000, 1.000000000000000000, 1.156482317317871478E-16 ) ) ;
#783 = ADVANCED_FACE ( 'NONE', ( #275 ), #775, .F. ) ;
#784 = ORIENTED_EDGE ( 'NONE', *, *, #249, .T. ) ;
#785 = EDGE_LOOP ( 'NONE', ( #201, #446, #623, #72 ) ) ;
#786 = FACE_OUTER_BOUND ( 'NONE', #358, .T. ) ;
#787 = CARTESIAN_POINT ( 'NONE',  ( 0.000000000000000000, 0.000000000000000000, 50.00000000000000000 ) ) ;
#788 = DIRECTION ( 'NONE',  ( -0.000000000000000000, -0.000000000000000000, -1.000000000000000000 ) ) ;
#789 = DIRECTION ( 'NONE',  ( -0.000000000000000000, -0.000000000000000000, -1.000000000000000000 ) ) ;
#790 = AXIS2_PLACEMENT_3D ( 'NONE', #509, #26, #440 ) ;
#791 = LINE ( 'NONE', #593, #338 ) ;
#792 = AXIS2_PLACEMENT_3D ( 'NONE', #255, #437, #756 ) ;
#793 = ADVANCED_FACE ( 'NONE', ( #30, #93 ), #713, .F. ) ;
#794 = ADVANCED_FACE ( 'NONE', ( #426, #242 ), #492, .F. ) ;
#795 = LINE ( 'NONE', #290, #432 ) ;
#796 = ORIENTED_EDGE ( 'NONE', *, *, #799, .T. ) ;
#797 = DIRECTION ( 'NONE',  ( 1.000000000000000000, -0.000000000000000000, -0.000000000000000000 ) ) ;
#798 = DIRECTION ( 'NONE',  ( -0.000000000000000000, -0.000000000000000000, 1.000000000000000000 ) ) ;
#799 = EDGE_CURVE ( 'NONE', #585, #621, #264, .T. ) ;
#800 = DIRECTION ( 'NONE',  ( -1.000000000000000000, 0.000000000000000000, 0.000000000000000000 ) ) ;
#801 = CIRCLE ( 'NONE', #166, 5.000000000000000000 ) ;
#802 = CIRCLE ( 'NONE', #374, 5.000000000000003553 ) ;
#803 = DIRECTION ( 'NONE',  ( 1.000000000000000000, 0.000000000000000000, 0.000000000000000000 ) ) ;
#804 = ADVANCED_FACE ( 'NONE', ( #676, #125, #606 ), #366, .T. ) ;
#805 = LOCAL_TIME ( 9, 16, 29.00000000000000000, #393 ) ;
ENDSEC;
END-ISO-10303-21;
