ISO-10303-21;
HEADER;
FILE_DESCRIPTION (( 'STEP AP203' ),
    '1' );
FILE_NAME ('link3_默认_sldprt.STEP',
    '2026-06-12T01:16:27',
    ( '' ),
    ( '' ),
    'SwSTEP 2.0',
    'SolidWorks 2022',
    '' );
FILE_SCHEMA (( 'CONFIG_CONTROL_DESIGN' ));
ENDSEC;

DATA;
#1 = CARTESIAN_POINT ( 'NONE',  ( -30.00000000000000355, 31.22498999199198977, 15.00000000000000178 ) ) ;
#2 = EDGE_LOOP ( 'NONE', ( #642, #571, #528, #47, #294, #610, #561, #601, #274 ) ) ;
#3 = ORIENTED_EDGE ( 'NONE', *, *, #683, .F. ) ;
#4 = DIRECTION ( 'NONE',  ( 0.000000000000000000, 0.000000000000000000, 1.000000000000000000 ) ) ;
#5 = AXIS2_PLACEMENT_3D ( 'NONE', #50, #224, #497 ) ;
#6 = LOCAL_TIME ( 9, 16, 27.00000000000000000, #270 ) ;
#7 = ADVANCED_FACE ( 'NONE', ( #13 ), #74, .F. ) ;
#8 = FACE_OUTER_BOUND ( 'NONE', #107, .T. ) ;
#9 = CC_DESIGN_PERSON_AND_ORGANIZATION_ASSIGNMENT ( #537, #373, ( #401 ) ) ;
#10 = DIRECTION ( 'NONE',  ( 0.6250000000000000000, -0.7806247497997996776, 0.000000000000000000 ) ) ;
#11 = CARTESIAN_POINT ( 'NONE',  ( -30.85468562349850430, 26.53748999199199332, 25.00000000000000000 ) ) ;
#12 = EDGE_CURVE ( 'NONE', #59, #140, #248, .T. ) ;
#13 = FACE_OUTER_BOUND ( 'NONE', #487, .T. ) ;
#14 = VECTOR ( 'NONE', #372, 1000.000000000000000 ) ;
#15 = APPROVAL_ROLE ( '' ) ;
#16 = CARTESIAN_POINT ( 'NONE',  ( -5.000000000000000888, 6.123233995736767268E-16, 15.00000000000000178 ) ) ;
#17 = ADVANCED_FACE ( 'NONE', ( #701 ), #30, .F. ) ;
#18 = ORIENTED_EDGE ( 'NONE', *, *, #116, .F. ) ;
#19 = FACE_OUTER_BOUND ( 'NONE', #481, .T. ) ;
#20 = CIRCLE ( 'NONE', #640, 5.000000000000000888 ) ;
#21 = COORDINATED_UNIVERSAL_TIME_OFFSET ( 8, 0, .AHEAD. ) ;
#22 = LINE ( 'NONE', #466, #562 ) ;
#23 = AXIS2_PLACEMENT_3D ( 'NONE', #27, #558, #483 ) ;
#24 = CARTESIAN_POINT ( 'NONE',  ( 39.99999999999999289, 31.22498999199199332, 25.00000000000000000 ) ) ;
#25 = EDGE_CURVE ( 'NONE', #423, #545, #645, .T. ) ;
#26 = EDGE_LOOP ( 'NONE', ( #646, #330, #700, #284 ) ) ;
#27 = CARTESIAN_POINT ( 'NONE',  ( -25.00000000000000000, 31.22498999199198977, 25.00000000000000000 ) ) ;
#28 = CIRCLE ( 'NONE', #215, 5.000000000000000888 ) ;
#29 = ORIENTED_EDGE ( 'NONE', *, *, #694, .F. ) ;
#30 = PLANE ( 'NONE',  #440 ) ;
#31 = ORIENTED_EDGE ( 'NONE', *, *, #447, .T. ) ;
#32 = ADVANCED_FACE ( 'NONE', ( #304 ), #253, .F. ) ;
#33 = FACE_OUTER_BOUND ( 'NONE', #26, .T. ) ;
#34 = AXIS2_PLACEMENT_3D ( 'NONE', #321, #313, #258 ) ;
#35 = ORIENTED_EDGE ( 'NONE', *, *, #622, .T. ) ;
#36 = DIRECTION ( 'NONE',  ( 1.000000000000000000, 0.000000000000000000, 0.000000000000000000 ) ) ;
#37 = AXIS2_PLACEMENT_3D ( 'NONE', #555, #609, #486 ) ;
#38 = FACE_OUTER_BOUND ( 'NONE', #326, .T. ) ;
#39 = CIRCLE ( 'NONE', #722, 7.500000000000000000 ) ;
#40 = EDGE_LOOP ( 'NONE', ( #473, #18, #182, #614 ) ) ;
#41 = FACE_OUTER_BOUND ( 'NONE', #666, .T. ) ;
#42 = ADVANCED_FACE ( 'NONE', ( #405, #192, #630, #194, #128 ), #350, .T. ) ;
#43 = AXIS2_PLACEMENT_3D ( 'NONE', #661, #256, #382 ) ;
#44 = AXIS2_PLACEMENT_3D ( 'NONE', #508, #328, #677 ) ;
#45 = CARTESIAN_POINT ( 'NONE',  ( 0.000000000000000000, 0.000000000000000000, 0.000000000000000000 ) ) ;
#46 = DATE_AND_TIME ( #428, #177 ) ;
#47 = ORIENTED_EDGE ( 'NONE', *, *, #585, .T. ) ;
#48 = VERTEX_POINT ( 'NONE', #24 ) ;
#49 = FACE_OUTER_BOUND ( 'NONE', #156, .T. ) ;
#50 = CARTESIAN_POINT ( 'NONE',  ( 20.00000000000000000, 0.000000000000000000, 25.00000000000000000 ) ) ;
#51 = EDGE_CURVE ( 'NONE', #212, #650, #639, .T. ) ;
#52 = CARTESIAN_POINT ( 'NONE',  ( 45.00000000000000000, 38.72498999199200398, 25.00000000000000000 ) ) ;
#53 = ORIENTED_EDGE ( 'NONE', *, *, #683, .T. ) ;
#54 = LINE ( 'NONE', #151, #209 ) ;
#55 = CYLINDRICAL_SURFACE ( 'NONE', #568, 7.500000000000007105 ) ;
#56 = DIRECTION ( 'NONE',  ( -0.000000000000000000, -0.000000000000000000, -1.000000000000000000 ) ) ;
#57 = ORIENTED_EDGE ( 'NONE', *, *, #333, .F. ) ;
#58 = DIRECTION ( 'NONE',  ( 0.000000000000000000, 0.000000000000000000, 1.000000000000000000 ) ) ;
#59 = VERTEX_POINT ( 'NONE', #135 ) ;
#60 = ORIENTED_EDGE ( 'NONE', *, *, #145, .F. ) ;
#61 = CARTESIAN_POINT ( 'NONE',  ( 0.000000000000000000, -7.500000000000000000, 25.00000000000000000 ) ) ;
#62 = VERTEX_POINT ( 'NONE', #590 ) ;
#63 = DIRECTION ( 'NONE',  ( 1.000000000000000000, 0.000000000000000000, 0.000000000000000000 ) ) ;
#64 = AXIS2_PLACEMENT_3D ( 'NONE', #45, #542, #594 ) ;
#65 = ORIENTED_EDGE ( 'NONE', *, *, #686, .T. ) ;
#66 = LOCAL_TIME ( 9, 16, 27.00000000000000000, #690 ) ;
#67 = DIRECTION ( 'NONE',  ( 0.000000000000000000, 0.000000000000000000, 1.000000000000000000 ) ) ;
#68 = DIRECTION ( 'NONE',  ( -0.000000000000000000, -0.000000000000000000, 1.000000000000000000 ) ) ;
#69 = ADVANCED_FACE ( 'NONE', ( #520 ), #524, .T. ) ;
#70 = APPROVAL_STATUS ( 'not_yet_approved' ) ;
#71 = FACE_OUTER_BOUND ( 'NONE', #322, .T. ) ;
#72 = ADVANCED_FACE ( 'NONE', ( #19 ), #408, .F. ) ;
#73 = AXIS2_PLACEMENT_3D ( 'NONE', #559, #344, #63 ) ;
#74 = CYLINDRICAL_SURFACE ( 'NONE', #123, 5.000000000000000888 ) ;
#75 = AXIS2_PLACEMENT_3D ( 'NONE', #491, #153, #378 ) ;
#76 = CARTESIAN_POINT ( 'NONE',  ( -5.854685623498499858, -4.687499999999997335, 0.000000000000000000 ) ) ;
#77 = PLANE ( 'NONE',  #223 ) ;
#78 = ORIENTED_EDGE ( 'NONE', *, *, #25, .F. ) ;
#79 = DIRECTION ( 'NONE',  ( -0.6249999999999998890, -0.7806247497997997886, 0.000000000000000000 ) ) ;
#80 = CC_DESIGN_PERSON_AND_ORGANIZATION_ASSIGNMENT ( #549, #319, ( #453 ) ) ;
#81 = ORIENTED_EDGE ( 'NONE', *, *, #484, .T. ) ;
#82 = CARTESIAN_POINT ( 'NONE',  ( -25.00000000000000000, 38.72498999199198977, 25.00000000000000000 ) ) ;
#83 = LOCAL_TIME ( 9, 16, 27.00000000000000000, #121 ) ;
#84 = ORIENTED_EDGE ( 'NONE', *, *, #591, .F. ) ;
#85 = CARTESIAN_POINT ( 'NONE',  ( -5.000000000000000888, 6.123233995736767268E-16, 25.00000000000000000 ) ) ;
#86 = VECTOR ( 'NONE', #363, 1000.000000000000000 ) ;
#87 = ADVANCED_FACE ( 'NONE', ( #354 ), #77, .F. ) ;
#88 = CIRCLE ( 'NONE', #34, 7.500000000000003553 ) ;
#89 = DIRECTION ( 'NONE',  ( 1.000000000000000000, 0.000000000000000000, 0.000000000000000000 ) ) ;
#90 = CARTESIAN_POINT ( 'NONE',  ( -25.00000000000000000, 31.22498999199198977, 25.00000000000000000 ) ) ;
#91 = EDGE_CURVE ( 'NONE', #709, #188, #337, .T. ) ;
#92 = ORIENTED_EDGE ( 'NONE', *, *, #198, .F. ) ;
#93 = LINE ( 'NONE', #456, #454 ) ;
#94 = DIRECTION ( 'NONE',  ( 1.000000000000000000, 0.000000000000000000, 0.000000000000000000 ) ) ;
#95 = CALENDAR_DATE ( 2026, 12, 6 ) ;
#96 = CARTESIAN_POINT ( 'NONE',  ( 15.00000000000000000, 6.123233995736765296E-16, 25.00000000000000000 ) ) ;
#97 = ORIENTED_EDGE ( 'NONE', *, *, #591, .T. ) ;
#98 = CARTESIAN_POINT ( 'NONE',  ( 0.000000000000000000, 0.000000000000000000, 15.00000000000000178 ) ) ;
#99 = ADVANCED_FACE ( 'NONE', ( #49 ), #710, .T. ) ;
#100 = CYLINDRICAL_SURFACE ( 'NONE', #530, 7.500000000000000000 ) ;
#101 = APPROVAL_DATE_TIME ( #433, #134 ) ;
#102 = ORIENTED_EDGE ( 'NONE', *, *, #585, .F. ) ;
#103 = DIRECTION ( 'NONE',  ( 0.000000000000000000, 0.000000000000000000, 1.000000000000000000 ) ) ;
#104 = CARTESIAN_POINT ( 'NONE',  ( 0.000000000000000000, -7.500000000000000000, 25.00000000000000000 ) ) ;
#105 = COORDINATED_UNIVERSAL_TIME_OFFSET ( 8, 0, .AHEAD. ) ;
#106 = CARTESIAN_POINT ( 'NONE',  ( -25.00000000000000000, 31.22498999199198977, 15.00000000000000178 ) ) ;
#107 = EDGE_LOOP ( 'NONE', ( #449, #475, #60, #115 ) ) ;
#108 = CARTESIAN_POINT ( 'NONE',  ( 45.00000000000000000, 31.22498999199199332, 25.00000000000000000 ) ) ;
#109 = CIRCLE ( 'NONE', #702, 5.000000000000004441 ) ;
#110 = CIRCLE ( 'NONE', #5, 5.000000000000000888 ) ;
#111 = ORIENTED_EDGE ( 'NONE', *, *, #398, .F. ) ;
#112 = FACE_OUTER_BOUND ( 'NONE', #367, .T. ) ;
#113 = EDGE_LOOP ( 'NONE', ( #165, #311, #207, #339 ) ) ;
#114 = CYLINDRICAL_SURFACE ( 'NONE', #501, 5.000000000000000888 ) ;
#115 = ORIENTED_EDGE ( 'NONE', *, *, #172, .T. ) ;
#116 = EDGE_CURVE ( 'NONE', #385, #532, #629, .T. ) ;
#117 = APPROVAL_ROLE ( '' ) ;
#118 = DIRECTION ( 'NONE',  ( -0.000000000000000000, -0.000000000000000000, 1.000000000000000000 ) ) ;
#119 = VECTOR ( 'NONE', #668, 1000.000000000000000 ) ;
#120 = AXIS2_PLACEMENT_3D ( 'NONE', #394, #618, #379 ) ;
#121 = COORDINATED_UNIVERSAL_TIME_OFFSET ( 8, 0, .AHEAD. ) ;
#122 = CARTESIAN_POINT ( 'NONE',  ( -32.50000000000000000, 31.22498999199198977, 0.000000000000000000 ) ) ;
#123 = AXIS2_PLACEMENT_3D ( 'NONE', #463, #138, #477 ) ;
#124 = VECTOR ( 'NONE', #227, 1000.000000000000000 ) ;
#125 = DIRECTION ( 'NONE',  ( -0.6250000000000000000, 0.7806247497997996776, 0.000000000000000000 ) ) ;
#126 = ADVANCED_FACE ( 'NONE', ( #41 ), #480, .F. ) ;
#127 = ORIENTED_EDGE ( 'NONE', *, *, #538, .T. ) ;
#128 = FACE_OUTER_BOUND ( 'NONE', #2, .T. ) ;
#129 = DIRECTION ( 'NONE',  ( -1.000000000000000000, 0.000000000000000000, 0.000000000000000000 ) ) ;
#130 = AXIS2_PLACEMENT_3D ( 'NONE', #522, #185, #129 ) ;
#131 = DIRECTION ( 'NONE',  ( 1.000000000000000000, 0.000000000000000000, 0.000000000000000000 ) ) ;
#132 = DIRECTION ( 'NONE',  ( -0.000000000000000000, -0.000000000000000000, 1.000000000000000000 ) ) ;
#133 = ORIENTED_EDGE ( 'NONE', *, *, #12, .F. ) ;
#134 = APPROVAL ( #70, '未指定' ) ;
#135 = CARTESIAN_POINT ( 'NONE',  ( 25.00000000000000000, 0.000000000000000000, 15.00000000000000178 ) ) ;
#136 = AXIS2_PLACEMENT_3D ( 'NONE', #572, #437, #388 ) ;
#137 = VERTEX_POINT ( 'NONE', #716 ) ;
#138 = DIRECTION ( 'NONE',  ( -0.000000000000000000, -0.000000000000000000, 1.000000000000000000 ) ) ;
#139 = CC_DESIGN_PERSON_AND_ORGANIZATION_ASSIGNMENT ( #325, #292, ( #221 ) ) ;
#140 = VERTEX_POINT ( 'NONE', #489 ) ;
#141 = DIRECTION ( 'NONE',  ( -1.000000000000000000, -1.982541115402065110E-16, -0.000000000000000000 ) ) ;
#142 = EDGE_CURVE ( 'NONE', #589, #150, #494, .T. ) ;
#143 = AXIS2_PLACEMENT_3D ( 'NONE', #370, #717, #324 ) ;
#144 = CARTESIAN_POINT ( 'NONE',  ( -30.85468562349850430, 26.53748999199199332, 0.000000000000000000 ) ) ;
#145 = EDGE_CURVE ( 'NONE', #62, #423, #88, .T. ) ;
#146 = LINE ( 'NONE', #275, #527 ) ;
#147 = CARTESIAN_POINT ( 'NONE',  ( 45.00000000000000000, 38.72498999199200398, 25.00000000000000000 ) ) ;
#148 = CYLINDRICAL_SURFACE ( 'NONE', #189, 7.500000000000000000 ) ;
#149 = VERTEX_POINT ( 'NONE', #435 ) ;
#150 = VERTEX_POINT ( 'NONE', #603 ) ;
#151 = CARTESIAN_POINT ( 'NONE',  ( 0.000000000000000000, -7.500000000000000000, 0.000000000000000000 ) ) ;
#152 = VECTOR ( 'NONE', #570, 1000.000000000000000 ) ;
#153 = DIRECTION ( 'NONE',  ( -0.000000000000000000, -0.000000000000000000, 1.000000000000000000 ) ) ;
#154 = APPROVAL_PERSON_ORGANIZATION ( #521, #707, #117 ) ;
#155 = MECHANICAL_CONTEXT ( 'NONE', #163, 'mechanical' ) ;
#156 = EDGE_LOOP ( 'NONE', ( #719, #35 ) ) ;
#157 = CARTESIAN_POINT ( 'NONE',  ( 20.00000000000000000, -7.500000000000001776, 0.000000000000000000 ) ) ;
#158 = DIRECTION ( 'NONE',  ( 1.000000000000000000, 0.000000000000000000, 0.000000000000000000 ) ) ;
#159 = DESIGN_CONTEXT ( 'detailed design', #238, 'design' ) ;
#160 = DIRECTION ( 'NONE',  ( 0.000000000000000000, 0.000000000000000000, 1.000000000000000000 ) ) ;
#161 = ORIENTED_EDGE ( 'NONE', *, *, #342, .F. ) ;
#162 = DIRECTION ( 'NONE',  ( 0.000000000000000000, 0.000000000000000000, 1.000000000000000000 ) ) ;
#163 = APPLICATION_CONTEXT ( 'configuration controlled 3d designs of mechanical parts and assemblies' ) ;
#164 = LINE ( 'NONE', #721, #711 ) ;
#165 = ORIENTED_EDGE ( 'NONE', *, *, #51, .T. ) ;
#166 = CARTESIAN_POINT ( 'NONE',  ( 50.00000000000000000, 31.22498999199199332, 15.00000000000000178 ) ) ;
#167 = CC_DESIGN_DATE_AND_TIME_ASSIGNMENT ( #178, #627, ( #476 ) ) ;
#168 = CIRCLE ( 'NONE', #580, 5.000000000000000888 ) ;
#169 = CARTESIAN_POINT ( 'NONE',  ( -32.50000000000000000, 31.22498999199198977, 25.00000000000000000 ) ) ;
#170 = ORIENTED_EDGE ( 'NONE', *, *, #174, .T. ) ;
#171 = CARTESIAN_POINT ( 'NONE',  ( 45.00000000000000000, 31.22498999199199332, 25.00000000000000000 ) ) ;
#172 = EDGE_CURVE ( 'NONE', #62, #249, #146, .T. ) ;
#173 = DIRECTION ( 'NONE',  ( -0.000000000000000000, -0.000000000000000000, 1.000000000000000000 ) ) ;
#174 = EDGE_CURVE ( 'NONE', #202, #249, #54, .T. ) ;
#175 = LINE ( 'NONE', #291, #362 ) ;
#176 = VECTOR ( 'NONE', #626, 1000.000000000000114 ) ;
#177 = LOCAL_TIME ( 9, 16, 27.00000000000000000, #105 ) ;
#178 = DATE_AND_TIME ( #684, #83 ) ;
#179 = CARTESIAN_POINT ( 'NONE',  ( -30.85468562349850430, 26.53748999199199332, 25.00000000000000000 ) ) ;
#180 = EDGE_CURVE ( 'NONE', #725, #488, #706, .T. ) ;
#181 = EDGE_LOOP ( 'NONE', ( #535, #586, #623, #315, #84, #92, #619, #434, #505 ) ) ;
#182 = ORIENTED_EDGE ( 'NONE', *, *, #272, .T. ) ;
#183 = AXIS2_PLACEMENT_3D ( 'NONE', #186, #419, #582 ) ;
#184 = CALENDAR_DATE ( 2026, 12, 6 ) ;
#185 = DIRECTION ( 'NONE',  ( -0.000000000000000000, -0.000000000000000000, -1.000000000000000000 ) ) ;
#186 = CARTESIAN_POINT ( 'NONE',  ( 45.00000000000000000, 31.22498999199199332, 25.00000000000000000 ) ) ;
#187 = CARTESIAN_POINT ( 'NONE',  ( -5.854685623498499858, -4.687499999999997335, 25.00000000000000000 ) ) ;
#188 = VERTEX_POINT ( 'NONE', #197 ) ;
#189 = AXIS2_PLACEMENT_3D ( 'NONE', #670, #56, #504 ) ;
#190 = CARTESIAN_POINT ( 'NONE',  ( 0.000000000000000000, -7.500000000000000000, 25.00000000000000000 ) ) ;
#191 = CARTESIAN_POINT ( 'NONE',  ( 50.85468562349849719, 26.53748999199199332, 25.00000000000000000 ) ) ;
#192 = FACE_BOUND ( 'NONE', #715, .T. ) ;
#193 = ORIENTED_EDGE ( 'NONE', *, *, #172, .F. ) ;
#194 = FACE_BOUND ( 'NONE', #587, .T. ) ;
#195 = CC_DESIGN_PERSON_AND_ORGANIZATION_ASSIGNMENT ( #200, #554, ( #401 ) ) ;
#196 = EDGE_LOOP ( 'NONE', ( #583, #660 ) ) ;
#197 = CARTESIAN_POINT ( 'NONE',  ( -20.00000000000000000, 31.22498999199198977, 25.00000000000000000 ) ) ;
#198 = EDGE_CURVE ( 'NONE', #150, #424, #431, .T. ) ;
#199 = AXIS2_PLACEMENT_3D ( 'NONE', #179, #402, #125 ) ;
#200 = PERSON_AND_ORGANIZATION ( #441, #502 ) ;
#201 = AXIS2_PLACEMENT_3D ( 'NONE', #616, #512, #158 ) ;
#202 = VERTEX_POINT ( 'NONE', #720 ) ;
#203 = CARTESIAN_POINT ( 'NONE',  ( 20.00000000000000000, 0.000000000000000000, 0.000000000000000000 ) ) ;
#204 = FACE_OUTER_BOUND ( 'NONE', #510, .T. ) ;
#205 = DIRECTION ( 'NONE',  ( 0.000000000000000000, 0.000000000000000000, 1.000000000000000000 ) ) ;
#206 = ORIENTED_EDGE ( 'NONE', *, *, #305, .T. ) ;
#207 = ORIENTED_EDGE ( 'NONE', *, *, #511, .F. ) ;
#208 = DIRECTION ( 'NONE',  ( -0.000000000000000000, -0.000000000000000000, -1.000000000000000000 ) ) ;
#209 = VECTOR ( 'NONE', #500, 1000.000000000000000 ) ;
#210 = EDGE_CURVE ( 'NONE', #137, #212, #695, .T. ) ;
#211 = CARTESIAN_POINT ( 'NONE',  ( -25.00000000000000000, 31.22498999199198977, 25.00000000000000000 ) ) ;
#212 = VERTEX_POINT ( 'NONE', #606 ) ;
#213 = FACE_OUTER_BOUND ( 'NONE', #430, .T. ) ;
#214 = FACE_OUTER_BOUND ( 'NONE', #438, .T. ) ;
#215 = AXIS2_PLACEMENT_3D ( 'NONE', #485, #657, #94 ) ;
#216 = CC_DESIGN_APPROVAL ( #707, ( #476 ) ) ;
#217 = DIRECTION ( 'NONE',  ( 0.000000000000000000, 0.000000000000000000, 1.000000000000000000 ) ) ;
#218 = ORIENTED_EDGE ( 'NONE', *, *, #426, .T. ) ;
#219 = ORIENTED_EDGE ( 'NONE', *, *, #652, .T. ) ;
#220 = CARTESIAN_POINT ( 'NONE',  ( 45.00000000000000000, 31.22498999199199332, 0.000000000000000000 ) ) ;
#221 = PRODUCT ( 'link3_\X2\9ed88ba4\X0\_sldprt', 'link3_\X2\9ed88ba4\X0\_sldprt', '', ( #155 ) ) ;
#222 = CARTESIAN_POINT ( 'NONE',  ( 0.000000000000000000, 0.000000000000000000, 15.00000000000000178 ) ) ;
#223 = AXIS2_PLACEMENT_3D ( 'NONE', #358, #584, #79 ) ;
#224 = DIRECTION ( 'NONE',  ( 0.000000000000000000, 0.000000000000000000, 1.000000000000000000 ) ) ;
#225 = VERTEX_POINT ( 'NONE', #368 ) ;
#226 = ADVANCED_FACE ( 'NONE', ( #213 ), #371, .T. ) ;
#227 = DIRECTION ( 'NONE',  ( -0.000000000000000000, -0.000000000000000000, -1.000000000000000000 ) ) ;
#228 = VERTEX_POINT ( 'NONE', #85 ) ;
#229 = ADVANCED_FACE ( 'NONE', ( #33 ), #647, .F. ) ;
#230 = LINE ( 'NONE', #569, #323 ) ;
#231 = CIRCLE ( 'NONE', #412, 5.000000000000000888 ) ;
#232 = CARTESIAN_POINT ( 'NONE',  ( 5.000000000000000888, 0.000000000000000000, 25.00000000000000000 ) ) ;
#233 = ADVANCED_BREP_SHAPE_REPRESENTATION ( 'link3_\X2\9ed88ba4\X0\_sldprt', ( #340, #120 ), #698 ) ;
#234 = PERSON_AND_ORGANIZATION ( #441, #502 ) ;
#235 = CARTESIAN_POINT ( 'NONE',  ( 50.85468562349849719, 26.53748999199199332, 0.000000000000000000 ) ) ;
#236 = PERSON_AND_ORGANIZATION_ROLE ( 'creator' ) ;
#237 = DIRECTION ( 'NONE',  ( 0.000000000000000000, 0.000000000000000000, 1.000000000000000000 ) ) ;
#238 = APPLICATION_CONTEXT ( 'configuration controlled 3d designs of mechanical parts and assemblies' ) ;
#239 = VECTOR ( 'NONE', #628, 1000.000000000000000 ) ;
#240 = EDGE_LOOP ( 'NONE', ( #479, #655 ) ) ;
#241 = ORIENTED_EDGE ( 'NONE', *, *, #349, .T. ) ;
#242 = DIRECTION ( 'NONE',  ( 0.000000000000000000, 0.000000000000000000, 1.000000000000000000 ) ) ;
#243 = AXIS2_PLACEMENT_3D ( 'NONE', #203, #103, #327 ) ;
#244 = EDGE_CURVE ( 'NONE', #301, #228, #689, .T. ) ;
#245 = VECTOR ( 'NONE', #141, 1000.000000000000000 ) ;
#246 = LINE ( 'NONE', #187, #400 ) ;
#247 = ORIENTED_EDGE ( 'NONE', *, *, #381, .F. ) ;
#248 = LINE ( 'NONE', #469, #86 ) ;
#249 = VERTEX_POINT ( 'NONE', #157 ) ;
#250 = ORIENTED_EDGE ( 'NONE', *, *, #648, .F. ) ;
#251 = CARTESIAN_POINT ( 'NONE',  ( -20.00000000000000000, 31.22498999199198977, 15.00000000000000178 ) ) ;
#252 = ORIENTED_EDGE ( 'NONE', *, *, #686, .F. ) ;
#253 = PLANE ( 'NONE',  #310 ) ;
#254 = EDGE_CURVE ( 'NONE', #249, #285, #366, .T. ) ;
#255 = ORIENTED_EDGE ( 'NONE', *, *, #342, .T. ) ;
#256 = DIRECTION ( 'NONE',  ( -0.000000000000000000, -0.000000000000000000, 1.000000000000000000 ) ) ;
#257 = ORIENTED_EDGE ( 'NONE', *, *, #467, .F. ) ;
#258 = DIRECTION ( 'NONE',  ( 1.000000000000000000, 0.000000000000000000, 0.000000000000000000 ) ) ;
#259 = VECTOR ( 'NONE', #699, 1000.000000000000000 ) ;
#260 = DIRECTION ( 'NONE',  ( -1.000000000000000000, 0.000000000000000000, 0.000000000000000000 ) ) ;
#261 = DATE_AND_TIME ( #95, #6 ) ;
#262 = CARTESIAN_POINT ( 'NONE',  ( 45.00000000000000000, 31.22498999199199332, 0.000000000000000000 ) ) ;
#263 = VERTEX_POINT ( 'NONE', #425 ) ;
#264 = DIRECTION ( 'NONE',  ( -0.000000000000000000, -0.000000000000000000, 1.000000000000000000 ) ) ;
#265 = LINE ( 'NONE', #597, #471 ) ;
#266 = DIRECTION ( 'NONE',  ( 1.000000000000000000, 0.000000000000000000, -0.000000000000000000 ) ) ;
#267 = ORIENTED_EDGE ( 'NONE', *, *, #198, .T. ) ;
#268 = CARTESIAN_POINT ( 'NONE',  ( 45.00000000000000000, 31.22498999199199332, 15.00000000000000178 ) ) ;
#269 = DIRECTION ( 'NONE',  ( -0.000000000000000000, -0.000000000000000000, -1.000000000000000000 ) ) ;
#270 = COORDINATED_UNIVERSAL_TIME_OFFSET ( 8, 0, .AHEAD. ) ;
#271 = DIRECTION ( 'NONE',  ( 1.000000000000000000, 0.000000000000000000, 0.000000000000000000 ) ) ;
#272 = EDGE_CURVE ( 'NONE', #385, #301, #93, .T. ) ;
#273 = VERTEX_POINT ( 'NONE', #607 ) ;
#274 = ORIENTED_EDGE ( 'NONE', *, *, #25, .T. ) ;
#275 = CARTESIAN_POINT ( 'NONE',  ( 20.00000000000000000, -7.500000000000001776, 25.00000000000000000 ) ) ;
#276 = CARTESIAN_POINT ( 'NONE',  ( -25.00000000000000000, 38.72498999199198977, 25.00000000000000000 ) ) ;
#277 = AXIS2_PLACEMENT_3D ( 'NONE', #345, #242, #351 ) ;
#278 = CC_DESIGN_APPROVAL ( #134, ( #401 ) ) ;
#279 =( LENGTH_UNIT ( ) NAMED_UNIT ( * ) SI_UNIT ( .MILLI., .METRE. ) );
#280 = CIRCLE ( 'NONE', #201, 7.500000000000000000 ) ;
#281 = VERTEX_POINT ( 'NONE', #104 ) ;
#282 = DIRECTION ( 'NONE',  ( 1.000000000000000000, 0.000000000000000000, 0.000000000000000000 ) ) ;
#283 = AXIS2_PLACEMENT_3D ( 'NONE', #98, #162, #89 ) ;
#284 = ORIENTED_EDGE ( 'NONE', *, *, #272, .F. ) ;
#285 = VERTEX_POINT ( 'NONE', #673 ) ;
#286 = ADVANCED_FACE ( 'NONE', ( #8 ), #495, .T. ) ;
#287 = CARTESIAN_POINT ( 'NONE',  ( 25.85468562349850075, -4.687500000000002665, 25.00000000000000000 ) ) ;
#288 = EDGE_LOOP ( 'NONE', ( #592, #376, #498, #218 ) ) ;
#289 = DIRECTION ( 'NONE',  ( 1.000000000000000000, 0.000000000000000000, 0.000000000000000000 ) ) ;
#290 = EDGE_LOOP ( 'NONE', ( #687, #29, #499, #414 ) ) ;
#291 = CARTESIAN_POINT ( 'NONE',  ( 15.00000000000000000, 6.123233995736766282E-16, 15.00000000000000178 ) ) ;
#292 = PERSON_AND_ORGANIZATION_ROLE ( 'design_owner' ) ;
#293 = CARTESIAN_POINT ( 'NONE',  ( -25.00000000000000000, 38.72498999199198977, 25.00000000000000000 ) ) ;
#294 = ORIENTED_EDGE ( 'NONE', *, *, #467, .T. ) ;
#295 = CYLINDRICAL_SURFACE ( 'NONE', #130, 7.500000000000000000 ) ;
#296 = AXIS2_PLACEMENT_3D ( 'NONE', #262, #217, #266 ) ;
#297 = DIRECTION ( 'NONE',  ( 1.000000000000000000, 0.000000000000000000, -0.000000000000000000 ) ) ;
#298 = APPROVAL_STATUS ( 'not_yet_approved' ) ;
#299 = CARTESIAN_POINT ( 'NONE',  ( -25.00000000000000000, 31.22498999199198977, 0.000000000000000000 ) ) ;
#300 = EDGE_CURVE ( 'NONE', #228, #301, #20, .T. ) ;
#301 = VERTEX_POINT ( 'NONE', #232 ) ;
#302 = ORIENTED_EDGE ( 'NONE', *, *, #672, .T. ) ;
#303 = VERTEX_POINT ( 'NONE', #397 ) ;
#304 = FACE_OUTER_BOUND ( 'NONE', #357, .T. ) ;
#305 = EDGE_CURVE ( 'NONE', #149, #225, #679, .T. ) ;
#306 = AXIS2_PLACEMENT_3D ( 'NONE', #563, #58, #282 ) ;
#307 = DIRECTION ( 'NONE',  ( 1.000000000000000000, 1.982541115402065356E-16, 0.000000000000000000 ) ) ;
#308 = ORIENTED_EDGE ( 'NONE', *, *, #244, .F. ) ;
#309 = CARTESIAN_POINT ( 'NONE',  ( 0.000000000000000000, 0.000000000000000000, 15.00000000000000178 ) ) ;
#310 = AXIS2_PLACEMENT_3D ( 'NONE', #190, #465, #704 ) ;
#311 = ORIENTED_EDGE ( 'NONE', *, *, #364, .F. ) ;
#312 = AXIS2_PLACEMENT_3D ( 'NONE', #220, #439, #656 ) ;
#313 = DIRECTION ( 'NONE',  ( 0.000000000000000000, 0.000000000000000000, 1.000000000000000000 ) ) ;
#314 = CARTESIAN_POINT ( 'NONE',  ( -25.00000000000000000, 31.22498999199198977, 25.00000000000000000 ) ) ;
#315 = ORIENTED_EDGE ( 'NONE', *, *, #174, .F. ) ;
#316 = DIRECTION ( 'NONE',  ( 0.000000000000000000, 0.000000000000000000, 1.000000000000000000 ) ) ;
#317 = AXIS2_PLACEMENT_3D ( 'NONE', #211, #496, #712 ) ;
#318 = DIRECTION ( 'NONE',  ( 1.000000000000000000, 0.000000000000000000, 0.000000000000000000 ) ) ;
#319 = PERSON_AND_ORGANIZATION_ROLE ( 'classification_officer' ) ;
#320 = VERTEX_POINT ( 'NONE', #612 ) ;
#321 = CARTESIAN_POINT ( 'NONE',  ( 20.00000000000000000, 0.000000000000000000, 25.00000000000000000 ) ) ;
#322 = EDGE_LOOP ( 'NONE', ( #267, #514, #257, #390 ) ) ;
#323 = VECTOR ( 'NONE', #452, 1000.000000000000000 ) ;
#324 = DIRECTION ( 'NONE',  ( 1.000000000000000000, 0.000000000000000000, 0.000000000000000000 ) ) ;
#325 = PERSON_AND_ORGANIZATION ( #441, #502 ) ;
#326 = EDGE_LOOP ( 'NONE', ( #102, #395, #241, #550 ) ) ;
#327 = DIRECTION ( 'NONE',  ( 1.000000000000000000, 0.000000000000000000, 0.000000000000000000 ) ) ;
#328 = DIRECTION ( 'NONE',  ( -0.000000000000000000, -0.000000000000000000, -1.000000000000000000 ) ) ;
#329 = PLANE ( 'NONE',  #296 ) ;
#330 = ORIENTED_EDGE ( 'NONE', *, *, #621, .T. ) ;
#331 = DIRECTION ( 'NONE',  ( 1.000000000000000000, 0.000000000000000000, 0.000000000000000000 ) ) ;
#332 = CIRCLE ( 'NONE', #637, 7.500000000000000000 ) ;
#333 = EDGE_CURVE ( 'NONE', #545, #137, #164, .T. ) ;
#334 =( NAMED_UNIT ( * ) SI_UNIT ( $, .STERADIAN. ) SOLID_ANGLE_UNIT ( ) );
#335 = ORIENTED_EDGE ( 'NONE', *, *, #12, .T. ) ;
#336 = DIRECTION ( 'NONE',  ( 0.000000000000000000, 0.000000000000000000, 1.000000000000000000 ) ) ;
#337 = CIRCLE ( 'NONE', #23, 5.000000000000000888 ) ;
#338 = DIRECTION ( 'NONE',  ( 1.000000000000000000, 0.000000000000000000, 0.000000000000000000 ) ) ;
#339 = ORIENTED_EDGE ( 'NONE', *, *, #608, .T. ) ;
#340 = MANIFOLD_SOLID_BREP ( '切除-拉伸1', #567 ) ;
#341 = CARTESIAN_POINT ( 'NONE',  ( 0.000000000000000000, 0.000000000000000000, 25.00000000000000000 ) ) ;
#342 = EDGE_CURVE ( 'NONE', #696, #59, #541, .T. ) ;
#343 = APPROVAL_DATE_TIME ( #516, #707 ) ;
#344 = DIRECTION ( 'NONE',  ( 0.000000000000000000, 0.000000000000000000, 1.000000000000000000 ) ) ;
#345 = CARTESIAN_POINT ( 'NONE',  ( 20.00000000000000000, 0.000000000000000000, 25.00000000000000000 ) ) ;
#346 = AXIS2_PLACEMENT_3D ( 'NONE', #309, #316, #551 ) ;
#347 = PERSON_AND_ORGANIZATION ( #441, #502 ) ;
#348 = FACE_OUTER_BOUND ( 'NONE', #288, .T. ) ;
#349 = EDGE_CURVE ( 'NONE', #488, #150, #280, .T. ) ;
#350 = PLANE ( 'NONE',  #183 ) ;
#351 = DIRECTION ( 'NONE',  ( 1.000000000000000000, 0.000000000000000000, 0.000000000000000000 ) ) ;
#352 = ADVANCED_FACE ( 'NONE', ( #112 ), #732, .T. ) ;
#353 = CIRCLE ( 'NONE', #615, 7.500000000000000000 ) ;
#354 = FACE_OUTER_BOUND ( 'NONE', #380, .T. ) ;
#355 = APPLICATION_PROTOCOL_DEFINITION ( 'international standard', 'config_control_design', 1994, #238 ) ;
#356 = ADVANCED_FACE ( 'NONE', ( #214 ), #55, .T. ) ;
#357 = EDGE_LOOP ( 'NONE', ( #170, #193, #474, #724 ) ) ;
#358 = CARTESIAN_POINT ( 'NONE',  ( 50.85468562349849719, 26.53748999199199332, 25.00000000000000000 ) ) ;
#359 = ORIENTED_EDGE ( 'NONE', *, *, #652, .F. ) ;
#360 = FACE_OUTER_BOUND ( 'NONE', #643, .T. ) ;
#361 = ORIENTED_EDGE ( 'NONE', *, *, #300, .F. ) ;
#362 = VECTOR ( 'NONE', #68, 1000.000000000000000 ) ;
#363 = DIRECTION ( 'NONE',  ( -0.000000000000000000, -0.000000000000000000, 1.000000000000000000 ) ) ;
#364 = EDGE_CURVE ( 'NONE', #273, #650, #396, .T. ) ;
#365 = APPROVAL_ROLE ( '' ) ;
#366 = CIRCLE ( 'NONE', #243, 7.500000000000003553 ) ;
#367 = EDGE_LOOP ( 'NONE', ( #65, #255 ) ) ;
#368 = CARTESIAN_POINT ( 'NONE',  ( 50.00000000000000000, 31.22498999199199332, 25.00000000000000000 ) ) ;
#369 = EDGE_CURVE ( 'NONE', #225, #48, #109, .T. ) ;
#370 = CARTESIAN_POINT ( 'NONE',  ( 20.00000000000000000, 0.000000000000000000, 15.00000000000000178 ) ) ;
#371 = PLANE ( 'NONE',  #445 ) ;
#372 = DIRECTION ( 'NONE',  ( -0.000000000000000000, -0.000000000000000000, -1.000000000000000000 ) ) ;
#373 = PERSON_AND_ORGANIZATION_ROLE ( 'design_supplier' ) ;
#374 = DIRECTION ( 'NONE',  ( 0.000000000000000000, 0.000000000000000000, 1.000000000000000000 ) ) ;
#375 = ORIENTED_EDGE ( 'NONE', *, *, #369, .T. ) ;
#376 = ORIENTED_EDGE ( 'NONE', *, *, #617, .F. ) ;
#377 = DIRECTION ( 'NONE',  ( 0.000000000000000000, 0.000000000000000000, 1.000000000000000000 ) ) ;
#378 = DIRECTION ( 'NONE',  ( 1.000000000000000000, 0.000000000000000000, 0.000000000000000000 ) ) ;
#379 = DIRECTION ( 'NONE',  ( 1.000000000000000000, 0.000000000000000000, 0.000000000000000000 ) ) ;
#380 = EDGE_LOOP ( 'NONE', ( #81, #57, #78, #127 ) ) ;
#381 = EDGE_CURVE ( 'NONE', #320, #48, #230, .T. ) ;
#382 = DIRECTION ( 'NONE',  ( 1.000000000000000000, 0.000000000000000000, 0.000000000000000000 ) ) ;
#383 = SHAPE_DEFINITION_REPRESENTATION ( #506, #233 ) ;
#384 = CARTESIAN_POINT ( 'NONE',  ( 20.00000000000000000, 0.000000000000000000, 15.00000000000000178 ) ) ;
#385 = VERTEX_POINT ( 'NONE', #727 ) ;
#386 = DIRECTION ( 'NONE',  ( 1.000000000000000000, 0.000000000000000000, 0.000000000000000000 ) ) ;
#387 = ADVANCED_FACE ( 'NONE', ( #620 ), #114, .F. ) ;
#388 = DIRECTION ( 'NONE',  ( 1.000000000000000000, 0.000000000000000000, -0.000000000000000000 ) ) ;
#389 =( NAMED_UNIT ( * ) PLANE_ANGLE_UNIT ( ) SI_UNIT ( $, .RADIAN. ) );
#390 = ORIENTED_EDGE ( 'NONE', *, *, #142, .T. ) ;
#391 = ORIENTED_EDGE ( 'NONE', *, *, #490, .T. ) ;
#392 = DIRECTION ( 'NONE',  ( -0.000000000000000000, -0.000000000000000000, -1.000000000000000000 ) ) ;
#393 = CIRCLE ( 'NONE', #436, 5.000000000000004441 ) ;
#394 = CARTESIAN_POINT ( 'NONE',  ( 0.000000000000000000, 0.000000000000000000, 0.000000000000000000 ) ) ;
#395 = ORIENTED_EDGE ( 'NONE', *, *, #180, .T. ) ;
#396 = LINE ( 'NONE', #276, #124 ) ;
#397 = CARTESIAN_POINT ( 'NONE',  ( -30.00000000000000355, 31.22498999199198977, 15.00000000000000178 ) ) ;
#398 = EDGE_CURVE ( 'NONE', #281, #202, #442, .T. ) ;
#399 = DIRECTION ( 'NONE',  ( 1.000000000000000000, 0.000000000000000000, 0.000000000000000000 ) ) ;
#400 = VECTOR ( 'NONE', #525, 1000.000000000000000 ) ;
#401 = PRODUCT_DEFINITION_FORMATION_WITH_SPECIFIED_SOURCE ( '任何', '', #221, .NOT_KNOWN. ) ;
#402 = DIRECTION ( 'NONE',  ( 0.7806247497997997886, 0.6250000000000001110, -0.000000000000000000 ) ) ;
#403 = CC_DESIGN_DATE_AND_TIME_ASSIGNMENT ( #261, #595, ( #453 ) ) ;
#404 = VECTOR ( 'NONE', #651, 1000.000000000000000 ) ;
#405 = FACE_BOUND ( 'NONE', #240, .T. ) ;
#406 = DIRECTION ( 'NONE',  ( 0.000000000000000000, 0.000000000000000000, 1.000000000000000000 ) ) ;
#407 = EDGE_CURVE ( 'NONE', #545, #697, #573, .T. ) ;
#408 = CYLINDRICAL_SURFACE ( 'NONE', #649, 5.000000000000000888 ) ;
#409 = DIRECTION ( 'NONE',  ( 1.000000000000000000, 0.000000000000000000, 0.000000000000000000 ) ) ;
#410 = EDGE_CURVE ( 'NONE', #188, #709, #625, .T. ) ;
#411 = CARTESIAN_POINT ( 'NONE',  ( 25.85468562349850075, -4.687500000000002665, 25.00000000000000000 ) ) ;
#412 = AXIS2_PLACEMENT_3D ( 'NONE', #106, #723, #718 ) ;
#413 = LOCAL_TIME ( 9, 16, 27.00000000000000000, #21 ) ;
#414 = ORIENTED_EDGE ( 'NONE', *, *, #410, .T. ) ;
#415 = DIRECTION ( 'NONE',  ( 1.982541115402065356E-16, -1.000000000000000000, 0.000000000000000000 ) ) ;
#416 = ORIENTED_EDGE ( 'NONE', *, *, #608, .F. ) ;
#417 = CARTESIAN_POINT ( 'NONE',  ( 50.85468562349849719, 26.53748999199199332, 25.00000000000000000 ) ) ;
#418 = ORIENTED_EDGE ( 'NONE', *, *, #381, .T. ) ;
#419 = DIRECTION ( 'NONE',  ( 0.000000000000000000, 0.000000000000000000, 1.000000000000000000 ) ) ;
#420 = APPROVAL_DATE_TIME ( #46, #613 ) ;
#421 = CIRCLE ( 'NONE', #317, 7.500000000000000000 ) ;
#422 = DIRECTION ( 'NONE',  ( 1.000000000000000000, 0.000000000000000000, -0.000000000000000000 ) ) ;
#423 = VERTEX_POINT ( 'NONE', #287 ) ;
#424 = VERTEX_POINT ( 'NONE', #76 ) ;
#425 = CARTESIAN_POINT ( 'NONE',  ( -5.854685623498499858, -4.687499999999997335, 25.00000000000000000 ) ) ;
#426 = EDGE_CURVE ( 'NONE', #650, #488, #39, .T. ) ;
#427 = CYLINDRICAL_SURFACE ( 'NONE', #75, 5.000000000000004441 ) ;
#428 = CALENDAR_DATE ( 2026, 12, 6 ) ;
#429 = DIRECTION ( 'NONE',  ( 0.000000000000000000, 0.000000000000000000, 1.000000000000000000 ) ) ;
#430 = EDGE_LOOP ( 'NONE', ( #729, #53 ) ) ;
#431 = LINE ( 'NONE', #144, #634 ) ;
#432 = LINE ( 'NONE', #147, #14 ) ;
#433 = DATE_AND_TIME ( #184, #66 ) ;
#434 = ORIENTED_EDGE ( 'NONE', *, *, #426, .F. ) ;
#435 = CARTESIAN_POINT ( 'NONE',  ( 50.00000000000000000, 31.22498999199199332, 15.00000000000000178 ) ) ;
#436 = AXIS2_PLACEMENT_3D ( 'NONE', #714, #160, #338 ) ;
#437 = DIRECTION ( 'NONE',  ( 0.000000000000000000, 0.000000000000000000, 1.000000000000000000 ) ) ;
#438 = EDGE_LOOP ( 'NONE', ( #675, #416, #544, #644 ) ) ;
#439 = DIRECTION ( 'NONE',  ( 0.000000000000000000, 0.000000000000000000, 1.000000000000000000 ) ) ;
#440 = AXIS2_PLACEMENT_3D ( 'NONE', #82, #415, #307 ) ;
#441 = PERSON ( '未指定', '未指定', '未指定', ('未指定'), ('未指定'), ('未指定') ) ;
#442 = LINE ( 'NONE', #61, #119 ) ;
#443 = FACE_OUTER_BOUND ( 'NONE', #468, .T. ) ;
#444 = ORIENTED_EDGE ( 'NONE', *, *, #461, .F. ) ;
#445 = AXIS2_PLACEMENT_3D ( 'NONE', #667, #377, #422 ) ;
#446 = DIRECTION ( 'NONE',  ( -0.000000000000000000, -0.000000000000000000, 1.000000000000000000 ) ) ;
#447 = EDGE_CURVE ( 'NONE', #263, #424, #246, .T. ) ;
#448 = CARTESIAN_POINT ( 'NONE',  ( -25.00000000000000000, 31.22498999199198977, 15.00000000000000178 ) ) ;
#449 = ORIENTED_EDGE ( 'NONE', *, *, #254, .T. ) ;
#450 = EDGE_CURVE ( 'NONE', #281, #62, #22, .T. ) ;
#451 = AXIS2_PLACEMENT_3D ( 'NONE', #384, #429, #271 ) ;
#452 = DIRECTION ( 'NONE',  ( -0.000000000000000000, -0.000000000000000000, 1.000000000000000000 ) ) ;
#453 = SECURITY_CLASSIFICATION ( '', '', #713 ) ;
#454 = VECTOR ( 'NONE', #446, 1000.000000000000000 ) ;
#455 = VECTOR ( 'NONE', #173, 1000.000000000000000 ) ;
#456 = CARTESIAN_POINT ( 'NONE',  ( 5.000000000000000888, 0.000000000000000000, 15.00000000000000178 ) ) ;
#457 = EDGE_CURVE ( 'NONE', #565, #188, #458, .T. ) ;
#458 = LINE ( 'NONE', #681, #239 ) ;
#459 = DIRECTION ( 'NONE',  ( -1.000000000000000000, -1.982541115402065110E-16, -0.000000000000000000 ) ) ;
#460 = CIRCLE ( 'NONE', #676, 5.000000000000004441 ) ;
#461 = EDGE_CURVE ( 'NONE', #696, #703, #175, .T. ) ;
#462 = ORIENTED_EDGE ( 'NONE', *, *, #678, .T. ) ;
#463 = CARTESIAN_POINT ( 'NONE',  ( -25.00000000000000000, 31.22498999199198977, 15.00000000000000178 ) ) ;
#464 = LINE ( 'NONE', #411, #259 ) ;
#465 = DIRECTION ( 'NONE',  ( 0.000000000000000000, 1.000000000000000000, 0.000000000000000000 ) ) ;
#466 = CARTESIAN_POINT ( 'NONE',  ( 0.000000000000000000, -7.500000000000000000, 25.00000000000000000 ) ) ;
#467 = EDGE_CURVE ( 'NONE', #589, #263, #691, .T. ) ;
#468 = EDGE_LOOP ( 'NONE', ( #97, #111, #250, #31 ) ) ;
#469 = CARTESIAN_POINT ( 'NONE',  ( 25.00000000000000000, 0.000000000000000000, 15.00000000000000178 ) ) ;
#470 = ADVANCED_FACE ( 'NONE', ( #636 ), #576, .F. ) ;
#471 = VECTOR ( 'NONE', #553, 1000.000000000000000 ) ;
#472 = CC_DESIGN_SECURITY_CLASSIFICATION ( #453, ( #401 ) ) ;
#473 = ORIENTED_EDGE ( 'NONE', *, *, #621, .F. ) ;
#474 = ORIENTED_EDGE ( 'NONE', *, *, #450, .F. ) ;
#475 = ORIENTED_EDGE ( 'NONE', *, *, #538, .F. ) ;
#476 = PRODUCT_DEFINITION ( '未知', '', #401, #159 ) ;
#477 = DIRECTION ( 'NONE',  ( 1.000000000000000000, 0.000000000000000000, 0.000000000000000000 ) ) ;
#478 = EDGE_CURVE ( 'NONE', #320, #149, #460, .T. ) ;
#479 = ORIENTED_EDGE ( 'NONE', *, *, #410, .F. ) ;
#480 = CYLINDRICAL_SURFACE ( 'NONE', #731, 5.000000000000004441 ) ;
#481 = EDGE_LOOP ( 'NONE', ( #444, #252, #335, #605 ) ) ;
#482 = VECTOR ( 'NONE', #459, 1000.000000000000000 ) ;
#483 = DIRECTION ( 'NONE',  ( 1.000000000000000000, 0.000000000000000000, 0.000000000000000000 ) ) ;
#484 = EDGE_CURVE ( 'NONE', #285, #137, #632, .T. ) ;
#485 = CARTESIAN_POINT ( 'NONE',  ( 0.000000000000000000, 0.000000000000000000, 15.00000000000000178 ) ) ;
#486 = DIRECTION ( 'NONE',  ( 1.000000000000000000, 0.000000000000000000, 0.000000000000000000 ) ) ;
#487 = EDGE_LOOP ( 'NONE', ( #3, #462, #539, #556 ) ) ;
#488 = VERTEX_POINT ( 'NONE', #122 ) ;
#489 = CARTESIAN_POINT ( 'NONE',  ( 25.00000000000000000, 0.000000000000000000, 25.00000000000000000 ) ) ;
#490 = EDGE_CURVE ( 'NONE', #703, #140, #588, .T. ) ;
#491 = CARTESIAN_POINT ( 'NONE',  ( 45.00000000000000000, 31.22498999199199332, 15.00000000000000178 ) ) ;
#492 = APPLICATION_PROTOCOL_DEFINITION ( 'international standard', 'config_control_design', 1994, #163 ) ;
#493 = ORIENTED_EDGE ( 'NONE', *, *, #478, .T. ) ;
#494 = LINE ( 'NONE', #547, #404 ) ;
#495 = CYLINDRICAL_SURFACE ( 'NONE', #44, 7.500000000000001776 ) ;
#496 = DIRECTION ( 'NONE',  ( 0.000000000000000000, 0.000000000000000000, 1.000000000000000000 ) ) ;
#497 = DIRECTION ( 'NONE',  ( 1.000000000000000000, 0.000000000000000000, 0.000000000000000000 ) ) ;
#498 = ORIENTED_EDGE ( 'NONE', *, *, #364, .T. ) ;
#499 = ORIENTED_EDGE ( 'NONE', *, *, #457, .T. ) ;
#500 = DIRECTION ( 'NONE',  ( 1.000000000000000000, 0.000000000000000000, 0.000000000000000000 ) ) ;
#501 = AXIS2_PLACEMENT_3D ( 'NONE', #222, #118, #574 ) ;
#502 = ORGANIZATION ( '未指定', '未指定', '' ) ;
#503 = DIRECTION ( 'NONE',  ( 1.000000000000000000, 0.000000000000000000, 0.000000000000000000 ) ) ;
#504 = DIRECTION ( 'NONE',  ( -1.000000000000000000, 0.000000000000000000, 0.000000000000000000 ) ) ;
#505 = ORIENTED_EDGE ( 'NONE', *, *, #51, .F. ) ;
#506 = PRODUCT_DEFINITION_SHAPE ( 'NONE', 'NONE',  #476 ) ;
#507 = AXIS2_PLACEMENT_3D ( 'NONE', #688, #578, #297 ) ;
#508 = CARTESIAN_POINT ( 'NONE',  ( 20.00000000000000000, 0.000000000000000000, 25.00000000000000000 ) ) ;
#509 = CARTESIAN_POINT ( 'NONE',  ( 0.000000000000000000, 0.000000000000000000, 25.00000000000000000 ) ) ;
#510 = EDGE_LOOP ( 'NONE', ( #247, #564, #206, #375 ) ) ;
#511 = EDGE_CURVE ( 'NONE', #697, #273, #575, .T. ) ;
#512 = DIRECTION ( 'NONE',  ( 0.000000000000000000, 0.000000000000000000, 1.000000000000000000 ) ) ;
#513 = CARTESIAN_POINT ( 'NONE',  ( 45.00000000000000000, 31.22498999199199332, 25.00000000000000000 ) ) ;
#514 = ORIENTED_EDGE ( 'NONE', *, *, #447, .F. ) ;
#515 = ADVANCED_FACE ( 'NONE', ( #71 ), #685, .F. ) ;
#516 = DATE_AND_TIME ( #631, #413 ) ;
#517 = DIRECTION ( 'NONE',  ( 1.000000000000000000, 0.000000000000000000, 0.000000000000000000 ) ) ;
#518 = CARTESIAN_POINT ( 'NONE',  ( -25.00000000000000000, 31.22498999199198977, 15.00000000000000178 ) ) ;
#519 = ADVANCED_FACE ( 'NONE', ( #348 ), #295, .T. ) ;
#520 = FACE_OUTER_BOUND ( 'NONE', #557, .T. ) ;
#521 = PERSON_AND_ORGANIZATION ( #441, #502 ) ;
#522 = CARTESIAN_POINT ( 'NONE',  ( -25.00000000000000000, 31.22498999199198977, 25.00000000000000000 ) ) ;
#523 = CIRCLE ( 'NONE', #37, 5.000000000000004441 ) ;
#524 = PLANE ( 'NONE',  #507 ) ;
#525 = DIRECTION ( 'NONE',  ( -0.000000000000000000, -0.000000000000000000, -1.000000000000000000 ) ) ;
#526 = CARTESIAN_POINT ( 'NONE',  ( -25.00000000000000000, 38.72498999199198977, 0.000000000000000000 ) ) ;
#527 = VECTOR ( 'NONE', #208, 1000.000000000000000 ) ;
#528 = ORIENTED_EDGE ( 'NONE', *, *, #617, .T. ) ;
#529 = DIRECTION ( 'NONE',  ( -0.000000000000000000, -0.000000000000000000, 1.000000000000000000 ) ) ;
#530 = AXIS2_PLACEMENT_3D ( 'NONE', #314, #269, #260 ) ;
#531 = APPROVAL_PERSON_ORGANIZATION ( #347, #134, #15 ) ;
#532 = VERTEX_POINT ( 'NONE', #16 ) ;
#533 = ORIENTED_EDGE ( 'NONE', *, *, #461, .T. ) ;
#534 = VECTOR ( 'NONE', #692, 1000.000000000000114 ) ;
#535 = ORIENTED_EDGE ( 'NONE', *, *, #210, .F. ) ;
#536 = CARTESIAN_POINT ( 'NONE',  ( -32.50000000000000000, 31.22498999199198977, 25.00000000000000000 ) ) ;
#537 = PERSON_AND_ORGANIZATION ( #441, #502 ) ;
#538 = EDGE_CURVE ( 'NONE', #423, #285, #464, .T. ) ;
#539 = ORIENTED_EDGE ( 'NONE', *, *, #91, .T. ) ;
#540 = DIRECTION ( 'NONE',  ( -0.000000000000000000, -0.000000000000000000, -1.000000000000000000 ) ) ;
#541 = CIRCLE ( 'NONE', #73, 5.000000000000000888 ) ;
#542 = DIRECTION ( 'NONE',  ( 0.000000000000000000, 0.000000000000000000, 1.000000000000000000 ) ) ;
#543 = CIRCLE ( 'NONE', #451, 5.000000000000000888 ) ;
#544 = ORIENTED_EDGE ( 'NONE', *, *, #407, .F. ) ;
#545 = VERTEX_POINT ( 'NONE', #191 ) ;
#546 = CC_DESIGN_APPROVAL ( #613, ( #453 ) ) ;
#547 = CARTESIAN_POINT ( 'NONE',  ( -30.85468562349850430, 26.53748999199199332, 25.00000000000000000 ) ) ;
#548 = DIRECTION ( 'NONE',  ( 0.000000000000000000, 0.000000000000000000, 1.000000000000000000 ) ) ;
#549 = PERSON_AND_ORGANIZATION ( #441, #502 ) ;
#550 = ORIENTED_EDGE ( 'NONE', *, *, #142, .F. ) ;
#551 = DIRECTION ( 'NONE',  ( 1.000000000000000000, 0.000000000000000000, -0.000000000000000000 ) ) ;
#552 = PRODUCT_RELATED_PRODUCT_CATEGORY ( 'detail', '', ( #221 ) ) ;
#553 = DIRECTION ( 'NONE',  ( -0.000000000000000000, -0.000000000000000000, 1.000000000000000000 ) ) ;
#554 = PERSON_AND_ORGANIZATION_ROLE ( 'creator' ) ;
#555 = CARTESIAN_POINT ( 'NONE',  ( 45.00000000000000000, 31.22498999199199332, 25.00000000000000000 ) ) ;
#556 = ORIENTED_EDGE ( 'NONE', *, *, #457, .F. ) ;
#557 = EDGE_LOOP ( 'NONE', ( #302, #493 ) ) ;
#558 = DIRECTION ( 'NONE',  ( 0.000000000000000000, 0.000000000000000000, 1.000000000000000000 ) ) ;
#559 = CARTESIAN_POINT ( 'NONE',  ( 20.00000000000000000, 0.000000000000000000, 15.00000000000000178 ) ) ;
#560 = CARTESIAN_POINT ( 'NONE',  ( 15.00000000000000000, 6.123233995736765296E-16, 15.00000000000000178 ) ) ;
#561 = ORIENTED_EDGE ( 'NONE', *, *, #450, .T. ) ;
#562 = VECTOR ( 'NONE', #409, 1000.000000000000000 ) ;
#563 = CARTESIAN_POINT ( 'NONE',  ( -25.00000000000000000, 31.22498999199198977, 25.00000000000000000 ) ) ;
#564 = ORIENTED_EDGE ( 'NONE', *, *, #672, .F. ) ;
#565 = VERTEX_POINT ( 'NONE', #251 ) ;
#566 = AXIS2_PLACEMENT_3D ( 'NONE', #593, #596, #36 ) ;
#567 = CLOSED_SHELL ( 'NONE', ( #7, #229, #581, #126, #611, #356, #17, #519, #515, #730, #32, #286, #87, #42, #662, #633, #69, #72, #352, #387, #99, #470, #226 ) ) ;
#568 = AXIS2_PLACEMENT_3D ( 'NONE', #171, #663, #624 ) ;
#569 = CARTESIAN_POINT ( 'NONE',  ( 39.99999999999999289, 31.22498999199199332, 15.00000000000000178 ) ) ;
#570 = DIRECTION ( 'NONE',  ( -0.000000000000000000, -0.000000000000000000, 1.000000000000000000 ) ) ;
#571 = ORIENTED_EDGE ( 'NONE', *, *, #511, .T. ) ;
#572 = CARTESIAN_POINT ( 'NONE',  ( 20.00000000000000000, 0.000000000000000000, 15.00000000000000178 ) ) ;
#573 = CIRCLE ( 'NONE', #599, 7.500000000000007105 ) ;
#574 = DIRECTION ( 'NONE',  ( 1.000000000000000000, 0.000000000000000000, 0.000000000000000000 ) ) ;
#575 = LINE ( 'NONE', #293, #482 ) ;
#576 = CYLINDRICAL_SURFACE ( 'NONE', #658, 5.000000000000000888 ) ;
#577 = CC_DESIGN_PERSON_AND_ORGANIZATION_ASSIGNMENT ( #234, #236, ( #476 ) ) ;
#578 = DIRECTION ( 'NONE',  ( 0.000000000000000000, 0.000000000000000000, 1.000000000000000000 ) ) ;
#579 = CARTESIAN_POINT ( 'NONE',  ( 45.00000000000000000, 31.22498999199199332, 15.00000000000000178 ) ) ;
#580 = AXIS2_PLACEMENT_3D ( 'NONE', #448, #205, #665 ) ;
#581 = ADVANCED_FACE ( 'NONE', ( #360 ), #604, .F. ) ;
#582 = DIRECTION ( 'NONE',  ( 1.000000000000000000, 0.000000000000000000, -0.000000000000000000 ) ) ;
#583 = ORIENTED_EDGE ( 'NONE', *, *, #641, .F. ) ;
#584 = DIRECTION ( 'NONE',  ( -0.7806247497997998996, 0.6250000000000000000, 0.000000000000000000 ) ) ;
#585 = EDGE_CURVE ( 'NONE', #725, #589, #332, .T. ) ;
#586 = ORIENTED_EDGE ( 'NONE', *, *, #484, .F. ) ;
#587 = EDGE_LOOP ( 'NONE', ( #671, #359 ) ) ;
#588 = CIRCLE ( 'NONE', #277, 5.000000000000000888 ) ;
#589 = VERTEX_POINT ( 'NONE', #653 ) ;
#590 = CARTESIAN_POINT ( 'NONE',  ( 20.00000000000000000, -7.500000000000001776, 25.00000000000000000 ) ) ;
#591 = EDGE_CURVE ( 'NONE', #424, #202, #708, .T. ) ;
#592 = ORIENTED_EDGE ( 'NONE', *, *, #180, .F. ) ;
#593 = CARTESIAN_POINT ( 'NONE',  ( 0.000000000000000000, 0.000000000000000000, 25.00000000000000000 ) ) ;
#594 = DIRECTION ( 'NONE',  ( 1.000000000000000000, 0.000000000000000000, 0.000000000000000000 ) ) ;
#595 = DATE_TIME_ROLE ( 'classification_date' ) ;
#596 = DIRECTION ( 'NONE',  ( 0.000000000000000000, 0.000000000000000000, 1.000000000000000000 ) ) ;
#597 = CARTESIAN_POINT ( 'NONE',  ( -5.000000000000000888, 6.123233995736767268E-16, 15.00000000000000178 ) ) ;
#598 = PERSON_AND_ORGANIZATION ( #441, #502 ) ;
#599 = AXIS2_PLACEMENT_3D ( 'NONE', #108, #4, #331 ) ;
#600 = LINE ( 'NONE', #1, #152 ) ;
#601 = ORIENTED_EDGE ( 'NONE', *, *, #145, .T. ) ;
#602 = APPROVAL_PERSON_ORGANIZATION ( #598, #613, #365 ) ;
#603 = CARTESIAN_POINT ( 'NONE',  ( -30.85468562349850430, 26.53748999199199332, 0.000000000000000000 ) ) ;
#604 = CYLINDRICAL_SURFACE ( 'NONE', #143, 5.000000000000000888 ) ;
#605 = ORIENTED_EDGE ( 'NONE', *, *, #641, .T. ) ;
#606 = CARTESIAN_POINT ( 'NONE',  ( 45.00000000000000000, 38.72498999199200398, 0.000000000000000000 ) ) ;
#607 = CARTESIAN_POINT ( 'NONE',  ( -25.00000000000000000, 38.72498999199198977, 25.00000000000000000 ) ) ;
#608 = EDGE_CURVE ( 'NONE', #697, #212, #432, .T. ) ;
#609 = DIRECTION ( 'NONE',  ( 0.000000000000000000, 0.000000000000000000, 1.000000000000000000 ) ) ;
#610 = ORIENTED_EDGE ( 'NONE', *, *, #648, .T. ) ;
#611 = ADVANCED_FACE ( 'NONE', ( #38 ), #100, .T. ) ;
#612 = CARTESIAN_POINT ( 'NONE',  ( 39.99999999999999289, 31.22498999199199332, 15.00000000000000178 ) ) ;
#613 = APPROVAL ( #664, '未指定' ) ;
#614 = ORIENTED_EDGE ( 'NONE', *, *, #244, .T. ) ;
#615 = AXIS2_PLACEMENT_3D ( 'NONE', #509, #374, #674 ) ;
#616 = CARTESIAN_POINT ( 'NONE',  ( -25.00000000000000000, 31.22498999199198977, 0.000000000000000000 ) ) ;
#617 = EDGE_CURVE ( 'NONE', #273, #725, #421, .T. ) ;
#618 = DIRECTION ( 'NONE',  ( 0.000000000000000000, 0.000000000000000000, 1.000000000000000000 ) ) ;
#619 = ORIENTED_EDGE ( 'NONE', *, *, #349, .F. ) ;
#620 = FACE_OUTER_BOUND ( 'NONE', #40, .T. ) ;
#621 = EDGE_CURVE ( 'NONE', #532, #228, #265, .T. ) ;
#622 = EDGE_CURVE ( 'NONE', #532, #385, #28, .T. ) ;
#623 = ORIENTED_EDGE ( 'NONE', *, *, #254, .F. ) ;
#624 = DIRECTION ( 'NONE',  ( -1.000000000000000000, 0.000000000000000000, 0.000000000000000000 ) ) ;
#625 = CIRCLE ( 'NONE', #306, 5.000000000000000888 ) ;
#626 = DIRECTION ( 'NONE',  ( 0.6249999999999998890, 0.7806247497997997886, -0.000000000000000000 ) ) ;
#627 = DATE_TIME_ROLE ( 'creation_date' ) ;
#628 = DIRECTION ( 'NONE',  ( -0.000000000000000000, -0.000000000000000000, 1.000000000000000000 ) ) ;
#629 = CIRCLE ( 'NONE', #283, 5.000000000000000888 ) ;
#630 = FACE_BOUND ( 'NONE', #196, .T. ) ;
#631 = CALENDAR_DATE ( 2026, 12, 6 ) ;
#632 = LINE ( 'NONE', #235, #176 ) ;
#633 = ADVANCED_FACE ( 'NONE', ( #204 ), #427, .F. ) ;
#634 = VECTOR ( 'NONE', #726, 1000.000000000000114 ) ;
#635 = CARTESIAN_POINT ( 'NONE',  ( 20.00000000000000000, 0.000000000000000000, 15.00000000000000178 ) ) ;
#636 = FACE_OUTER_BOUND ( 'NONE', #290, .T. ) ;
#637 = AXIS2_PLACEMENT_3D ( 'NONE', #90, #548, #318 ) ;
#638 = ORIENTED_EDGE ( 'NONE', *, *, #305, .F. ) ;
#639 = LINE ( 'NONE', #526, #245 ) ;
#640 = AXIS2_PLACEMENT_3D ( 'NONE', #341, #67, #289 ) ;
#641 = EDGE_CURVE ( 'NONE', #140, #703, #110, .T. ) ;
#642 = ORIENTED_EDGE ( 'NONE', *, *, #407, .T. ) ;
#643 = EDGE_LOOP ( 'NONE', ( #161, #533, #391, #133 ) ) ;
#644 = ORIENTED_EDGE ( 'NONE', *, *, #333, .T. ) ;
#645 = LINE ( 'NONE', #417, #534 ) ;
#646 = ORIENTED_EDGE ( 'NONE', *, *, #622, .F. ) ;
#647 = CYLINDRICAL_SURFACE ( 'NONE', #43, 5.000000000000000888 ) ;
#648 = EDGE_CURVE ( 'NONE', #263, #281, #353, .T. ) ;
#649 = AXIS2_PLACEMENT_3D ( 'NONE', #635, #529, #131 ) ;
#650 = VERTEX_POINT ( 'NONE', #659 ) ;
#651 = DIRECTION ( 'NONE',  ( -0.000000000000000000, -0.000000000000000000, -1.000000000000000000 ) ) ;
#652 = EDGE_CURVE ( 'NONE', #48, #225, #523, .T. ) ;
#653 = CARTESIAN_POINT ( 'NONE',  ( -30.85468562349850430, 26.53748999199199332, 25.00000000000000000 ) ) ;
#654 = CARTESIAN_POINT ( 'NONE',  ( -30.00000000000000355, 31.22498999199198977, 25.00000000000000000 ) ) ;
#655 = ORIENTED_EDGE ( 'NONE', *, *, #91, .F. ) ;
#656 = DIRECTION ( 'NONE',  ( 1.000000000000000000, 0.000000000000000000, 0.000000000000000000 ) ) ;
#657 = DIRECTION ( 'NONE',  ( 0.000000000000000000, 0.000000000000000000, 1.000000000000000000 ) ) ;
#658 = AXIS2_PLACEMENT_3D ( 'NONE', #518, #132, #517 ) ;
#659 = CARTESIAN_POINT ( 'NONE',  ( -25.00000000000000000, 38.72498999199198977, 0.000000000000000000 ) ) ;
#660 = ORIENTED_EDGE ( 'NONE', *, *, #490, .F. ) ;
#661 = CARTESIAN_POINT ( 'NONE',  ( 0.000000000000000000, 0.000000000000000000, 15.00000000000000178 ) ) ;
#662 = ADVANCED_FACE ( 'NONE', ( #728 ), #329, .F. ) ;
#663 = DIRECTION ( 'NONE',  ( -0.000000000000000000, -0.000000000000000000, -1.000000000000000000 ) ) ;
#664 = APPROVAL_STATUS ( 'not_yet_approved' ) ;
#665 = DIRECTION ( 'NONE',  ( 1.000000000000000000, 0.000000000000000000, 0.000000000000000000 ) ) ;
#666 = EDGE_LOOP ( 'NONE', ( #705, #418, #219, #638 ) ) ;
#667 = CARTESIAN_POINT ( 'NONE',  ( -25.00000000000000000, 31.22498999199198977, 15.00000000000000178 ) ) ;
#668 = DIRECTION ( 'NONE',  ( -0.000000000000000000, -0.000000000000000000, -1.000000000000000000 ) ) ;
#669 = UNCERTAINTY_MEASURE_WITH_UNIT (LENGTH_MEASURE( 1.000000000000000082E-05 ), #279, 'distance_accuracy_value', 'NONE');
#670 = CARTESIAN_POINT ( 'NONE',  ( 0.000000000000000000, 0.000000000000000000, 25.00000000000000000 ) ) ;
#671 = ORIENTED_EDGE ( 'NONE', *, *, #369, .F. ) ;
#672 = EDGE_CURVE ( 'NONE', #149, #320, #393, .T. ) ;
#673 = CARTESIAN_POINT ( 'NONE',  ( 25.85468562349850075, -4.687500000000002665, 0.000000000000000000 ) ) ;
#674 = DIRECTION ( 'NONE',  ( 1.000000000000000000, 0.000000000000000000, 0.000000000000000000 ) ) ;
#675 = ORIENTED_EDGE ( 'NONE', *, *, #210, .T. ) ;
#676 = AXIS2_PLACEMENT_3D ( 'NONE', #579, #237, #399 ) ;
#677 = DIRECTION ( 'NONE',  ( -1.000000000000000000, 0.000000000000000000, 0.000000000000000000 ) ) ;
#678 = EDGE_CURVE ( 'NONE', #303, #709, #600, .T. ) ;
#679 = LINE ( 'NONE', #166, #455 ) ;
#680 = VECTOR ( 'NONE', #540, 1000.000000000000000 ) ;
#681 = CARTESIAN_POINT ( 'NONE',  ( -20.00000000000000000, 31.22498999199198977, 15.00000000000000178 ) ) ;
#682 = VECTOR ( 'NONE', #10, 1000.000000000000114 ) ;
#683 = EDGE_CURVE ( 'NONE', #303, #565, #168, .T. ) ;
#684 = CALENDAR_DATE ( 2026, 12, 6 ) ;
#685 = PLANE ( 'NONE',  #199 ) ;
#686 = EDGE_CURVE ( 'NONE', #59, #696, #543, .T. ) ;
#687 = ORIENTED_EDGE ( 'NONE', *, *, #678, .F. ) ;
#688 = CARTESIAN_POINT ( 'NONE',  ( 45.00000000000000000, 31.22498999199199332, 15.00000000000000178 ) ) ;
#689 = CIRCLE ( 'NONE', #566, 5.000000000000000888 ) ;
#690 = COORDINATED_UNIVERSAL_TIME_OFFSET ( 8, 0, .AHEAD. ) ;
#691 = LINE ( 'NONE', #11, #682 ) ;
#692 = DIRECTION ( 'NONE',  ( 0.6249999999999998890, 0.7806247497997997886, -0.000000000000000000 ) ) ;
#693 = DIRECTION ( 'NONE',  ( 1.000000000000000000, 0.000000000000000000, 0.000000000000000000 ) ) ;
#694 = EDGE_CURVE ( 'NONE', #565, #303, #231, .T. ) ;
#695 = CIRCLE ( 'NONE', #312, 7.500000000000007105 ) ;
#696 = VERTEX_POINT ( 'NONE', #560 ) ;
#697 = VERTEX_POINT ( 'NONE', #52 ) ;
#698 =( GEOMETRIC_REPRESENTATION_CONTEXT ( 3 ) GLOBAL_UNCERTAINTY_ASSIGNED_CONTEXT ( ( #669 ) ) GLOBAL_UNIT_ASSIGNED_CONTEXT ( ( #279, #389, #334 ) ) REPRESENTATION_CONTEXT ( 'NONE', 'WORKASPACE' ) );
#699 = DIRECTION ( 'NONE',  ( -0.000000000000000000, -0.000000000000000000, -1.000000000000000000 ) ) ;
#700 = ORIENTED_EDGE ( 'NONE', *, *, #300, .T. ) ;
#701 = FACE_OUTER_BOUND ( 'NONE', #113, .T. ) ;
#702 = AXIS2_PLACEMENT_3D ( 'NONE', #513, #336, #503 ) ;
#703 = VERTEX_POINT ( 'NONE', #96 ) ;
#704 = DIRECTION ( 'NONE',  ( 0.000000000000000000, -0.000000000000000000, 1.000000000000000000 ) ) ;
#705 = ORIENTED_EDGE ( 'NONE', *, *, #478, .F. ) ;
#706 = LINE ( 'NONE', #536, #680 ) ;
#707 = APPROVAL ( #298, '未指定' ) ;
#708 = CIRCLE ( 'NONE', #64, 7.500000000000000000 ) ;
#709 = VERTEX_POINT ( 'NONE', #654 ) ;
#710 = PLANE ( 'NONE',  #346 ) ;
#711 = VECTOR ( 'NONE', #392, 1000.000000000000000 ) ;
#712 = DIRECTION ( 'NONE',  ( 1.000000000000000000, 0.000000000000000000, 0.000000000000000000 ) ) ;
#713 = SECURITY_CLASSIFICATION_LEVEL ( 'unclassified' ) ;
#714 = CARTESIAN_POINT ( 'NONE',  ( 45.00000000000000000, 31.22498999199199332, 15.00000000000000178 ) ) ;
#715 = EDGE_LOOP ( 'NONE', ( #308, #361 ) ) ;
#716 = CARTESIAN_POINT ( 'NONE',  ( 50.85468562349849719, 26.53748999199199332, 0.000000000000000000 ) ) ;
#717 = DIRECTION ( 'NONE',  ( -0.000000000000000000, -0.000000000000000000, 1.000000000000000000 ) ) ;
#718 = DIRECTION ( 'NONE',  ( 1.000000000000000000, 0.000000000000000000, 0.000000000000000000 ) ) ;
#719 = ORIENTED_EDGE ( 'NONE', *, *, #116, .T. ) ;
#720 = CARTESIAN_POINT ( 'NONE',  ( 0.000000000000000000, -7.500000000000000000, 0.000000000000000000 ) ) ;
#721 = CARTESIAN_POINT ( 'NONE',  ( 50.85468562349849719, 26.53748999199199332, 25.00000000000000000 ) ) ;
#722 = AXIS2_PLACEMENT_3D ( 'NONE', #299, #406, #693 ) ;
#723 = DIRECTION ( 'NONE',  ( 0.000000000000000000, 0.000000000000000000, 1.000000000000000000 ) ) ;
#724 = ORIENTED_EDGE ( 'NONE', *, *, #398, .T. ) ;
#725 = VERTEX_POINT ( 'NONE', #169 ) ;
#726 = DIRECTION ( 'NONE',  ( 0.6250000000000000000, -0.7806247497997996776, 0.000000000000000000 ) ) ;
#727 = CARTESIAN_POINT ( 'NONE',  ( 5.000000000000000888, 0.000000000000000000, 15.00000000000000178 ) ) ;
#728 = FACE_OUTER_BOUND ( 'NONE', #181, .T. ) ;
#729 = ORIENTED_EDGE ( 'NONE', *, *, #694, .T. ) ;
#730 = ADVANCED_FACE ( 'NONE', ( #443 ), #148, .T. ) ;
#731 = AXIS2_PLACEMENT_3D ( 'NONE', #268, #264, #386 ) ;
#732 = PLANE ( 'NONE',  #136 ) ;
ENDSEC;
END-ISO-10303-21;
