ISO-10303-21;
HEADER;
FILE_DESCRIPTION (( 'STEP AP203' ),
    '1' );
FILE_NAME ('link1_column_默认_sldprt.STEP',
    '2026-06-12T01:16:24',
    ( '' ),
    ( '' ),
    'SwSTEP 2.0',
    'SolidWorks 2022',
    '' );
FILE_SCHEMA (( 'CONFIG_CONTROL_DESIGN' ));
ENDSEC;

DATA;
#1 = DIRECTION ( 'NONE',  ( -1.000000000000000000, 0.000000000000000000, 0.000000000000000000 ) ) ;
#2 = DIRECTION ( 'NONE',  ( -0.000000000000000000, -1.000000000000000000, -0.000000000000000000 ) ) ;
#3 = ADVANCED_FACE ( 'NONE', ( #54 ), #477, .T. ) ;
#4 = VECTOR ( 'NONE', #307, 1000.000000000000000 ) ;
#5 = APPROVAL_PERSON_ORGANIZATION ( #455, #127, #273 ) ;
#6 = CARTESIAN_POINT ( 'NONE',  ( -7.499999999999992895, 91.22498999199198977, 12.50000000000000000 ) ) ;
#7 = EDGE_CURVE ( 'NONE', #516, #17, #232, .T. ) ;
#8 = EDGE_LOOP ( 'NONE', ( #559, #116 ) ) ;
#9 = DIRECTION ( 'NONE',  ( 0.000000000000000000, 0.000000000000000000, -1.000000000000000000 ) ) ;
#10 = DIRECTION ( 'NONE',  ( -0.000000000000000000, -0.000000000000000000, 1.000000000000000000 ) ) ;
#11 = CARTESIAN_POINT ( 'NONE',  ( 0.000000000000000000, 0.000000000000000000, 0.000000000000000000 ) ) ;
#12 = SHAPE_DEFINITION_REPRESENTATION ( #186, #240 ) ;
#13 = AXIS2_PLACEMENT_3D ( 'NONE', #231, #99, #402 ) ;
#14 = ORIENTED_EDGE ( 'NONE', *, *, #425, .T. ) ;
#15 = DIRECTION ( 'NONE',  ( 0.000000000000000000, 0.000000000000000000, 1.000000000000000000 ) ) ;
#16 = CALENDAR_DATE ( 2026, 12, 6 ) ;
#17 = VERTEX_POINT ( 'NONE', #524 ) ;
#18 = DIRECTION ( 'NONE',  ( 0.000000000000000000, 0.000000000000000000, 1.000000000000000000 ) ) ;
#19 = COORDINATED_UNIVERSAL_TIME_OFFSET ( 8, 0, .AHEAD. ) ;
#20 = CARTESIAN_POINT ( 'NONE',  ( 0.000000000000000000, 50.00000000000000000, 0.000000000000000000 ) ) ;
#21 = EDGE_CURVE ( 'NONE', #278, #549, #304, .T. ) ;
#22 = ORIENTED_EDGE ( 'NONE', *, *, #488, .F. ) ;
#23 = CARTESIAN_POINT ( 'NONE',  ( 3.469446951953614189E-15, 90.00000000000000000, -12.50000000000000000 ) ) ;
#24 = CALENDAR_DATE ( 2026, 12, 6 ) ;
#25 = DIRECTION ( 'NONE',  ( -0.000000000000000000, -0.000000000000000000, -1.000000000000000000 ) ) ;
#26 = VECTOR ( 'NONE', #2, 1000.000000000000000 ) ;
#27 = PRODUCT_RELATED_PRODUCT_CATEGORY ( 'detail', '', ( #390 ) ) ;
#28 = AXIS2_PLACEMENT_3D ( 'NONE', #187, #355, #525 ) ;
#29 = ORIENTED_EDGE ( 'NONE', *, *, #332, .T. ) ;
#30 =( NAMED_UNIT ( * ) PLANE_ANGLE_UNIT ( ) SI_UNIT ( $, .RADIAN. ) );
#31 = EDGE_LOOP ( 'NONE', ( #39, #160 ) ) ;
#32 = DIRECTION ( 'NONE',  ( -0.000000000000000000, -1.000000000000000000, -0.000000000000000000 ) ) ;
#33 = ORIENTED_EDGE ( 'NONE', *, *, #271, .F. ) ;
#34 = APPROVAL_ROLE ( '' ) ;
#35 = EDGE_CURVE ( 'NONE', #423, #17, #481, .T. ) ;
#36 = VECTOR ( 'NONE', #551, 1000.000000000000000 ) ;
#37 = AXIS2_PLACEMENT_3D ( 'NONE', #414, #450, #18 ) ;
#38 = PERSON ( '未指定', '未指定', '未指定', ('未指定'), ('未指定'), ('未指定') ) ;
#39 = ORIENTED_EDGE ( 'NONE', *, *, #57, .T. ) ;
#40 = CARTESIAN_POINT ( 'NONE',  ( 7.499999999999995559, 60.00000000000000711, -12.50000000000000000 ) ) ;
#41 = ORIENTED_EDGE ( 'NONE', *, *, #235, .F. ) ;
#42 = CARTESIAN_POINT ( 'NONE',  ( -7.499999999999992895, 91.22498999199198977, -25.00000000000000355 ) ) ;
#43 = EDGE_CURVE ( 'NONE', #453, #471, #331, .T. ) ;
#44 = EDGE_CURVE ( 'NONE', #329, #198, #400, .T. ) ;
#45 = ORIENTED_EDGE ( 'NONE', *, *, #35, .F. ) ;
#46 = DIRECTION ( 'NONE',  ( -0.000000000000000000, -0.000000000000000000, 1.000000000000000000 ) ) ;
#47 = AXIS2_PLACEMENT_3D ( 'NONE', #260, #429, #348 ) ;
#48 = ORIENTED_EDGE ( 'NONE', *, *, #271, .T. ) ;
#49 = CARTESIAN_POINT ( 'NONE',  ( 21.65063509461096558, 50.00000000000000000, 12.50000000000000000 ) ) ;
#50 = LINE ( 'NONE', #515, #182 ) ;
#51 = ADVANCED_FACE ( 'NONE', ( #249 ), #209, .T. ) ;
#52 = CARTESIAN_POINT ( 'NONE',  ( 24.99999999999999645, 94.41391782007332267, -4.413917820073319120 ) ) ;
#53 = CARTESIAN_POINT ( 'NONE',  ( -24.99999999999999645, 94.41391782007330846, -4.413917820073306686 ) ) ;
#54 = FACE_OUTER_BOUND ( 'NONE', #212, .T. ) ;
#55 = AXIS2_PLACEMENT_3D ( 'NONE', #135, #427, #561 ) ;
#56 = CYLINDRICAL_SURFACE ( 'NONE', #189, 25.00000000000000000 ) ;
#57 = EDGE_CURVE ( 'NONE', #371, #322, #75, .T. ) ;
#58 = CYLINDRICAL_SURFACE ( 'NONE', #13, 9.999999999999998224 ) ;
#59 =( BOUNDED_CURVE ( )  B_SPLINE_CURVE ( 3, ( #155, #206, #454, #334 ),
 .UNSPECIFIED., .F., .F. ) 
 B_SPLINE_CURVE_WITH_KNOTS ( ( 4, 4 ),
 ( 4.188790204786391413, 4.712388980384689674 ),
 .UNSPECIFIED. ) 
 CURVE ( )  GEOMETRIC_REPRESENTATION_ITEM ( )  RATIONAL_B_SPLINE_CURVE ( ( 1.000000000000000000, 0.9772838841927120601, 0.9772838841927120601, 1.000000000000000000 ) ) 
 REPRESENTATION_ITEM ( '' )  );
#60 = CARTESIAN_POINT ( 'NONE',  ( 17.50000000000000355, 60.00000000000000711, -25.00000000000000355 ) ) ;
#61 = PERSON_AND_ORGANIZATION ( #38, #64 ) ;
#62 = DIRECTION ( 'NONE',  ( 0.000000000000000000, 0.000000000000000000, 1.000000000000000000 ) ) ;
#63 = DATE_AND_TIME ( #360, #387 ) ;
#64 = ORGANIZATION ( '未指定', '未指定', '' ) ;
#65 = ORIENTED_EDGE ( 'NONE', *, *, #448, .T. ) ;
#66 = EDGE_CURVE ( 'NONE', #407, #178, #153, .T. ) ;
#67 = DIRECTION ( 'NONE',  ( 0.000000000000000000, 1.000000000000000000, 0.000000000000000000 ) ) ;
#68 = EDGE_LOOP ( 'NONE', ( #339, #237, #361 ) ) ;
#69 = CARTESIAN_POINT ( 'NONE',  ( 21.65063509461096558, 102.5000000000000142, 12.50000000000000000 ) ) ;
#70 = PERSON_AND_ORGANIZATION_ROLE ( 'creator' ) ;
#71 = DIRECTION ( 'NONE',  ( 1.000000000000000000, 0.000000000000000000, 0.000000000000000000 ) ) ;
#72 = ORIENTED_EDGE ( 'NONE', *, *, #500, .T. ) ;
#73 = DIRECTION ( 'NONE',  ( -0.000000000000000000, -1.000000000000000000, -0.000000000000000000 ) ) ;
#74 = DIRECTION ( 'NONE',  ( 0.000000000000000000, 1.000000000000000000, 0.000000000000000000 ) ) ;
#75 = CIRCLE ( 'NONE', #176, 9.999999999999998224 ) ;
#76 = LINE ( 'NONE', #238, #520 ) ;
#77 =( BOUNDED_CURVE ( )  B_SPLINE_CURVE ( 3, ( #142, #53, #145, #275 ),
 .UNSPECIFIED., .F., .F. ) 
 B_SPLINE_CURVE_WITH_KNOTS ( ( 4, 4 ),
 ( 4.712388980384689674, 5.235987755982987935 ),
 .UNSPECIFIED. ) 
 CURVE ( )  GEOMETRIC_REPRESENTATION_ITEM ( )  RATIONAL_B_SPLINE_CURVE ( ( 1.000000000000000000, 0.9772838841927120601, 0.9772838841927120601, 1.000000000000000000 ) ) 
 REPRESENTATION_ITEM ( '' )  );
#78 = ORIENTED_EDGE ( 'NONE', *, *, #558, .F. ) ;
#79 = COORDINATED_UNIVERSAL_TIME_OFFSET ( 8, 0, .AHEAD. ) ;
#80 = VERTEX_POINT ( 'NONE', #456 ) ;
#81 = FACE_BOUND ( 'NONE', #287, .T. ) ;
#82 = AXIS2_PLACEMENT_3D ( 'NONE', #23, #291, #463 ) ;
#83 = ORIENTED_EDGE ( 'NONE', *, *, #106, .T. ) ;
#84 = CARTESIAN_POINT ( 'NONE',  ( 3.469446951953614189E-15, 90.00000000000000000, -12.50000000000000000 ) ) ;
#85 = ORIENTED_EDGE ( 'NONE', *, *, #313, .F. ) ;
#86 = PLANE ( 'NONE',  #119 ) ;
#87 = AXIS2_PLACEMENT_3D ( 'NONE', #479, #394, #498 ) ;
#88 = ORIENTED_EDGE ( 'NONE', *, *, #531, .T. ) ;
#89 = CARTESIAN_POINT ( 'NONE',  ( 21.65063509461096913, 114.9999999999999858, -12.50000000000000000 ) ) ;
#90 = VECTOR ( 'NONE', #315, 1000.000000000000000 ) ;
#91 = DIRECTION ( 'NONE',  ( 0.000000000000000000, 1.000000000000000000, 0.000000000000000000 ) ) ;
#92 = CARTESIAN_POINT ( 'NONE',  ( 7.499999999999995559, 60.00000000000000711, -25.00000000000000355 ) ) ;
#93 = CARTESIAN_POINT ( 'NONE',  ( 0.000000000000000000, 50.00000000000000000, 0.000000000000000000 ) ) ;
#94 = CARTESIAN_POINT ( 'NONE',  ( 23.85759400464762336, 98.67743503759967894, 8.677435037599687817 ) ) ;
#95 = CLOSED_SHELL ( 'NONE', ( #518, #354, #381, #521, #165, #194, #261, #3, #51, #141, #389, #136, #482, #114, #100 ) ) ;
#96 = CARTESIAN_POINT ( 'NONE',  ( 12.50000000000000000, 60.00000000000000711, 12.50000000000000000 ) ) ;
#97 = EDGE_CURVE ( 'NONE', #236, #80, #268, .T. ) ;
#98 = AXIS2_PLACEMENT_3D ( 'NONE', #399, #148, #350 ) ;
#99 = DIRECTION ( 'NONE',  ( -0.000000000000000000, -1.000000000000000000, -0.000000000000000000 ) ) ;
#100 = ADVANCED_FACE ( 'NONE', ( #289 ), #409, .F. ) ;
#101 = DIRECTION ( 'NONE',  ( 0.000000000000000000, 1.000000000000000000, 0.000000000000000000 ) ) ;
#102 = CARTESIAN_POINT ( 'NONE',  ( 21.65063509461096558, 114.9999999999999858, 12.50000000000000355 ) ) ;
#103 = AXIS2_PLACEMENT_3D ( 'NONE', #478, #215, #386 ) ;
#104 = LOCAL_TIME ( 9, 16, 24.00000000000000000, #19 ) ;
#105 = CARTESIAN_POINT ( 'NONE',  ( 0.000000000000000000, 0.000000000000000000, 0.000000000000000000 ) ) ;
#106 = EDGE_CURVE ( 'NONE', #278, #133, #527, .T. ) ;
#107 = ORIENTED_EDGE ( 'NONE', *, *, #185, .T. ) ;
#108 = MECHANICAL_CONTEXT ( 'NONE', #401, 'mechanical' ) ;
#109 = APPROVAL_STATUS ( 'not_yet_approved' ) ;
#110 = DIRECTION ( 'NONE',  ( 0.000000000000000000, 0.000000000000000000, 1.000000000000000000 ) ) ;
#111 = ORIENTED_EDGE ( 'NONE', *, *, #425, .F. ) ;
#112 = APPLICATION_PROTOCOL_DEFINITION ( 'international standard', 'config_control_design', 1994, #401 ) ;
#113 = APPROVAL_STATUS ( 'not_yet_approved' ) ;
#114 = ADVANCED_FACE ( 'NONE', ( #539 ), #419, .F. ) ;
#115 = UNCERTAINTY_MEASURE_WITH_UNIT (LENGTH_MEASURE( 1.000000000000000082E-05 ), #533, 'distance_accuracy_value', 'NONE');
#116 = ORIENTED_EDGE ( 'NONE', *, *, #43, .F. ) ;
#117 = DIRECTION ( 'NONE',  ( 1.000000000000000000, 0.000000000000000000, 0.000000000000000000 ) ) ;
#118 = DIRECTION ( 'NONE',  ( 0.000000000000000000, 1.000000000000000000, 0.000000000000000000 ) ) ;
#119 = AXIS2_PLACEMENT_3D ( 'NONE', #511, #340, #383 ) ;
#120 = CC_DESIGN_DATE_AND_TIME_ASSIGNMENT ( #403, #328, ( #310 ) ) ;
#121 = ORIENTED_EDGE ( 'NONE', *, *, #552, .T. ) ;
#122 = DIRECTION ( 'NONE',  ( -0.000000000000000000, -0.000000000000000000, 1.000000000000000000 ) ) ;
#123 = ORIENTED_EDGE ( 'NONE', *, *, #448, .F. ) ;
#124 = LINE ( 'NONE', #42, #143 ) ;
#125 = EDGE_CURVE ( 'NONE', #133, #278, #485, .T. ) ;
#126 = ORIENTED_EDGE ( 'NONE', *, *, #393, .T. ) ;
#127 = APPROVAL ( #109, '未指定' ) ;
#128 = CARTESIAN_POINT ( 'NONE',  ( 1.224646799147353059E-15, 50.00000000000000000, 9.999999999999998224 ) ) ;
#129 = VECTOR ( 'NONE', #302, 1000.000000000000000 ) ;
#130 = APPROVAL_PERSON_ORGANIZATION ( #508, #522, #34 ) ;
#131 = EDGE_LOOP ( 'NONE', ( #420, #83, #507, #154 ) ) ;
#132 = DIRECTION ( 'NONE',  ( -0.000000000000000000, -1.000000000000000000, -0.000000000000000000 ) ) ;
#133 = VERTEX_POINT ( 'NONE', #544 ) ;
#134 = FACE_OUTER_BOUND ( 'NONE', #547, .T. ) ;
#135 = CARTESIAN_POINT ( 'NONE',  ( 3.469446951953614189E-15, 90.00000000000000000, 12.50000000000000000 ) ) ;
#136 = ADVANCED_FACE ( 'NONE', ( #286 ), #380, .F. ) ;
#137 = AXIS2_PLACEMENT_3D ( 'NONE', #503, #195, #117 ) ;
#138 = CARTESIAN_POINT ( 'NONE',  ( 24.99999999999999645, 94.41391782007332267, 4.413917820073322673 ) ) ;
#139 = FACE_OUTER_BOUND ( 'NONE', #382, .T. ) ;
#140 = DIRECTION ( 'NONE',  ( 0.000000000000000000, 0.000000000000000000, 1.000000000000000000 ) ) ;
#141 = ADVANCED_FACE ( 'NONE', ( #303, #213 ), #86, .F. ) ;
#142 = CARTESIAN_POINT ( 'NONE',  ( -25.00000000000000000, 90.00000000000000000, 0.000000000000000000 ) ) ;
#143 = VECTOR ( 'NONE', #46, 1000.000000000000000 ) ;
#144 = APPROVAL_PERSON_ORGANIZATION ( #61, #458, #324 ) ;
#145 = CARTESIAN_POINT ( 'NONE',  ( -23.85759400464763047, 98.67743503759965051, -8.677435037599661172 ) ) ;
#146 = COORDINATED_UNIVERSAL_TIME_OFFSET ( 8, 0, .AHEAD. ) ;
#147 = ORIENTED_EDGE ( 'NONE', *, *, #320, .T. ) ;
#148 = DIRECTION ( 'NONE',  ( 0.000000000000000000, 1.000000000000000000, 0.000000000000000000 ) ) ;
#149 = EDGE_CURVE ( 'NONE', #453, #322, #519, .T. ) ;
#150 = ORIENTED_EDGE ( 'NONE', *, *, #219, .F. ) ;
#151 = LINE ( 'NONE', #161, #470 ) ;
#152 = DATE_AND_TIME ( #24, #104 ) ;
#153 = LINE ( 'NONE', #464, #504 ) ;
#154 = ORIENTED_EDGE ( 'NONE', *, *, #313, .T. ) ;
#155 = CARTESIAN_POINT ( 'NONE',  ( -21.65063509461096913, 102.5000000000000000, 12.50000000000000000 ) ) ;
#156 = CIRCLE ( 'NONE', #47, 5.000000000000007994 ) ;
#157 = PERSON_AND_ORGANIZATION_ROLE ( 'classification_officer' ) ;
#158 = PRODUCT_DEFINITION_FORMATION_WITH_SPECIFIED_SOURCE ( '任何', '', #390, .NOT_KNOWN. ) ;
#159 = CARTESIAN_POINT ( 'NONE',  ( 12.50000000000000000, 60.00000000000000711, -25.00000000000000355 ) ) ;
#160 = ORIENTED_EDGE ( 'NONE', *, *, #203, .T. ) ;
#161 = CARTESIAN_POINT ( 'NONE',  ( 3.061616997868383043E-15, 50.00000000000000000, 25.00000000000000000 ) ) ;
#162 = CARTESIAN_POINT ( 'NONE',  ( 12.50000000000000000, 60.00000000000000711, -12.50000000000000000 ) ) ;
#163 = EDGE_LOOP ( 'NONE', ( #502, #123 ) ) ;
#164 = DIRECTION ( 'NONE',  ( 0.000000000000000000, 0.000000000000000000, -1.000000000000000000 ) ) ;
#165 = ADVANCED_FACE ( 'NONE', ( #173, #338, #298 ), #472, .T. ) ;
#166 = ORIENTED_EDGE ( 'NONE', *, *, #44, .F. ) ;
#167 = VERTEX_POINT ( 'NONE', #221 ) ;
#168 = PERSON_AND_ORGANIZATION ( #38, #64 ) ;
#169 = CARTESIAN_POINT ( 'NONE',  ( -17.50000000000000711, 91.22498999199198977, 12.50000000000000000 ) ) ;
#170 = ORIENTED_EDGE ( 'NONE', *, *, #500, .F. ) ;
#171 = DIRECTION ( 'NONE',  ( -0.000000000000000000, -1.000000000000000000, -0.000000000000000000 ) ) ;
#172 = ORIENTED_EDGE ( 'NONE', *, *, #43, .T. ) ;
#173 = FACE_BOUND ( 'NONE', #163, .T. ) ;
#174 = AXIS2_PLACEMENT_3D ( 'NONE', #20, #67, #239 ) ;
#175 = CC_DESIGN_APPROVAL ( #522, ( #305 ) ) ;
#176 = AXIS2_PLACEMENT_3D ( 'NONE', #105, #466, #110 ) ;
#177 = DESIGN_CONTEXT ( 'detailed design', #446, 'design' ) ;
#178 = VERTEX_POINT ( 'NONE', #169 ) ;
#179 = CARTESIAN_POINT ( 'NONE',  ( 0.000000000000000000, 0.000000000000000000, 0.000000000000000000 ) ) ;
#180 = DIRECTION ( 'NONE',  ( 0.000000000000000000, 0.000000000000000000, 1.000000000000000000 ) ) ;
#181 = DIRECTION ( 'NONE',  ( 1.000000000000000000, 0.000000000000000000, 0.000000000000000000 ) ) ;
#182 = VECTOR ( 'NONE', #132, 1000.000000000000000 ) ;
#183 = CARTESIAN_POINT ( 'NONE',  ( 21.65063509461096558, 102.5000000000000142, 12.50000000000000000 ) ) ;
#184 = DIRECTION ( 'NONE',  ( -1.000000000000000000, 0.000000000000000000, 0.000000000000000000 ) ) ;
#185 = EDGE_CURVE ( 'NONE', #555, #293, #124, .T. ) ;
#186 = PRODUCT_DEFINITION_SHAPE ( 'NONE', 'NONE',  #305 ) ;
#187 = CARTESIAN_POINT ( 'NONE',  ( -12.50000000000000000, 91.22498999199198977, -12.50000000000000000 ) ) ;
#188 = DIRECTION ( 'NONE',  ( 0.000000000000000000, 0.000000000000000000, 1.000000000000000000 ) ) ;
#189 = AXIS2_PLACEMENT_3D ( 'NONE', #484, #441, #9 ) ;
#190 = CARTESIAN_POINT ( 'NONE',  ( 21.65063509461096913, 50.00000000000000000, -12.50000000000000000 ) ) ;
#191 = ORIENTED_EDGE ( 'NONE', *, *, #244, .T. ) ;
#192 = CARTESIAN_POINT ( 'NONE',  ( -7.499999999999992895, 91.22498999199198977, -12.50000000000000000 ) ) ;
#193 = APPROVAL_DATE_TIME ( #276, #458 ) ;
#194 = ADVANCED_FACE ( 'NONE', ( #134 ), #509, .T. ) ;
#195 = DIRECTION ( 'NONE',  ( 0.000000000000000000, 0.000000000000000000, 1.000000000000000000 ) ) ;
#196 = COORDINATED_UNIVERSAL_TIME_OFFSET ( 8, 0, .AHEAD. ) ;
#197 = DIRECTION ( 'NONE',  ( -0.000000000000000000, -0.000000000000000000, 1.000000000000000000 ) ) ;
#198 = VERTEX_POINT ( 'NONE', #517 ) ;
#199 = DIRECTION ( 'NONE',  ( 1.000000000000000000, 0.000000000000000000, 0.000000000000000000 ) ) ;
#200 = AXIS2_PLACEMENT_3D ( 'NONE', #159, #325, #71 ) ;
#201 = AXIS2_PLACEMENT_3D ( 'NONE', #365, #122, #375 ) ;
#202 = DIRECTION ( 'NONE',  ( -1.000000000000000000, 0.000000000000000000, 0.000000000000000000 ) ) ;
#203 = EDGE_CURVE ( 'NONE', #322, #371, #227, .T. ) ;
#204 = ORIENTED_EDGE ( 'NONE', *, *, #219, .T. ) ;
#205 = ORIENTED_EDGE ( 'NONE', *, *, #57, .F. ) ;
#206 = CARTESIAN_POINT ( 'NONE',  ( -23.85759400464762336, 98.67743503759966472, 8.677435037599668277 ) ) ;
#207 = ORIENTED_EDGE ( 'NONE', *, *, #203, .F. ) ;
#208 = DATE_AND_TIME ( #252, #541 ) ;
#209 = PLANE ( 'NONE',  #217 ) ;
#210 = ORIENTED_EDGE ( 'NONE', *, *, #335, .F. ) ;
#211 = DIRECTION ( 'NONE',  ( 0.000000000000000000, 0.000000000000000000, 1.000000000000000000 ) ) ;
#212 = EDGE_LOOP ( 'NONE', ( #290, #29, #204 ) ) ;
#213 = FACE_BOUND ( 'NONE', #31, .T. ) ;
#214 = ORIENTED_EDGE ( 'NONE', *, *, #292, .F. ) ;
#215 = DIRECTION ( 'NONE',  ( -0.000000000000000000, -0.000000000000000000, -1.000000000000000000 ) ) ;
#216 = CIRCLE ( 'NONE', #412, 25.00000000000000000 ) ;
#217 = AXIS2_PLACEMENT_3D ( 'NONE', #373, #118, #370 ) ;
#218 = CIRCLE ( 'NONE', #82, 25.00000000000000000 ) ;
#219 = EDGE_CURVE ( 'NONE', #259, #329, #388, .T. ) ;
#220 = CC_DESIGN_PERSON_AND_ORGANIZATION_ASSIGNMENT ( #534, #70, ( #158 ) ) ;
#221 = CARTESIAN_POINT ( 'NONE',  ( -21.65063509461096913, 102.5000000000000000, -12.50000000000000000 ) ) ;
#222 = ORIENTED_EDGE ( 'NONE', *, *, #66, .T. ) ;
#223 = CARTESIAN_POINT ( 'NONE',  ( -21.65063509461096913, 50.00000000000000000, -12.50000000000000000 ) ) ;
#224 = CARTESIAN_POINT ( 'NONE',  ( 25.00000000000000000, 90.00000000000000000, 0.000000000000000000 ) ) ;
#225 = FACE_OUTER_BOUND ( 'NONE', #253, .T. ) ;
#226 = CC_DESIGN_DATE_AND_TIME_ASSIGNMENT ( #63, #243, ( #305 ) ) ;
#227 = CIRCLE ( 'NONE', #297, 9.999999999999998224 ) ;
#228 =( GEOMETRIC_REPRESENTATION_CONTEXT ( 3 ) GLOBAL_UNCERTAINTY_ASSIGNED_CONTEXT ( ( #115 ) ) GLOBAL_UNIT_ASSIGNED_CONTEXT ( ( #533, #30, #405 ) ) REPRESENTATION_CONTEXT ( 'NONE', 'WORKASPACE' ) );
#229 = CARTESIAN_POINT ( 'NONE',  ( 25.00000000000000000, 90.00000000000000000, 0.000000000000000000 ) ) ;
#230 = DIRECTION ( 'NONE',  ( -1.000000000000000000, 0.000000000000000000, 0.000000000000000000 ) ) ;
#231 = CARTESIAN_POINT ( 'NONE',  ( 0.000000000000000000, 50.00000000000000000, 0.000000000000000000 ) ) ;
#232 =( BOUNDED_CURVE ( )  B_SPLINE_CURVE ( 3, ( #183, #94, #138, #229 ),
 .UNSPECIFIED., .F., .F. ) 
 B_SPLINE_CURVE_WITH_KNOTS ( ( 4, 4 ),
 ( 4.188790204786390525, 4.712388980384689674 ),
 .UNSPECIFIED. ) 
 CURVE ( )  GEOMETRIC_REPRESENTATION_ITEM ( )  RATIONAL_B_SPLINE_CURVE ( ( 1.000000000000000000, 0.9772838841927120601, 0.9772838841927120601, 1.000000000000000000 ) ) 
 REPRESENTATION_ITEM ( '' )  );
#233 = CARTESIAN_POINT ( 'NONE',  ( 1.224646799147353059E-15, 0.000000000000000000, 9.999999999999998224 ) ) ;
#234 = PERSON_AND_ORGANIZATION_ROLE ( 'creator' ) ;
#235 = EDGE_CURVE ( 'NONE', #293, #178, #156, .T. ) ;
#236 = VERTEX_POINT ( 'NONE', #344 ) ;
#237 = ORIENTED_EDGE ( 'NONE', *, *, #97, .T. ) ;
#238 = CARTESIAN_POINT ( 'NONE',  ( -21.65063509461096913, 114.9999999999999858, 12.50000000000000000 ) ) ;
#239 = DIRECTION ( 'NONE',  ( 0.000000000000000000, 0.000000000000000000, 1.000000000000000000 ) ) ;
#240 = ADVANCED_BREP_SHAPE_REPRESENTATION ( 'link1_column_\X2\9ed88ba4\X0\_sldprt', ( #312, #137 ), #228 ) ;
#241 = VERTEX_POINT ( 'NONE', #476 ) ;
#242 = PLANE ( 'NONE',  #439 ) ;
#243 = DATE_TIME_ROLE ( 'creation_date' ) ;
#244 = EDGE_CURVE ( 'NONE', #471, #371, #347, .T. ) ;
#245 = ORIENTED_EDGE ( 'NONE', *, *, #282, .T. ) ;
#246 = FACE_OUTER_BOUND ( 'NONE', #8, .T. ) ;
#247 = VECTOR ( 'NONE', #468, 1000.000000000000000 ) ;
#248 = CC_DESIGN_APPROVAL ( #127, ( #158 ) ) ;
#249 = FACE_OUTER_BOUND ( 'NONE', #68, .T. ) ;
#250 = DIRECTION ( 'NONE',  ( 1.000000000000000000, 0.000000000000000000, 0.000000000000000000 ) ) ;
#251 = VERTEX_POINT ( 'NONE', #265 ) ;
#252 = CALENDAR_DATE ( 2026, 12, 6 ) ;
#253 = EDGE_LOOP ( 'NONE', ( #121, #336, #205, #301 ) ) ;
#254 = VECTOR ( 'NONE', #300, 1000.000000000000000 ) ;
#255 = PLANE ( 'NONE',  #55 ) ;
#256 = AXIS2_PLACEMENT_3D ( 'NONE', #316, #15, #199 ) ;
#257 = ORIENTED_EDGE ( 'NONE', *, *, #320, .F. ) ;
#258 = FACE_OUTER_BOUND ( 'NONE', #364, .T. ) ;
#259 = VERTEX_POINT ( 'NONE', #223 ) ;
#260 = CARTESIAN_POINT ( 'NONE',  ( -12.50000000000000000, 91.22498999199198977, 12.50000000000000000 ) ) ;
#261 = ADVANCED_FACE ( 'NONE', ( #81, #433, #258 ), #255, .F. ) ;
#262 = ORIENTED_EDGE ( 'NONE', *, *, #21, .T. ) ;
#263 = DIRECTION ( 'NONE',  ( 0.000000000000000000, 1.000000000000000000, 0.000000000000000000 ) ) ;
#264 = AXIS2_PLACEMENT_3D ( 'NONE', #281, #197, #250 ) ;
#265 = CARTESIAN_POINT ( 'NONE',  ( 0.000000000000000000, 0.000000000000000000, -25.00000000000000000 ) ) ;
#266 = LINE ( 'NONE', #60, #90 ) ;
#267 = CARTESIAN_POINT ( 'NONE',  ( 3.469446951953614189E-15, 90.00000000000000000, 12.50000000000000000 ) ) ;
#268 = CIRCLE ( 'NONE', #174, 25.00000000000000000 ) ;
#269 = AXIS2_PLACEMENT_3D ( 'NONE', #267, #437, #230 ) ;
#270 = CARTESIAN_POINT ( 'NONE',  ( -17.50000000000000711, 91.22498999199198977, -12.50000000000000000 ) ) ;
#271 = EDGE_CURVE ( 'NONE', #198, #251, #50, .T. ) ;
#272 = CARTESIAN_POINT ( 'NONE',  ( 0.000000000000000000, 0.000000000000000000, -9.999999999999998224 ) ) ;
#273 = APPROVAL_ROLE ( '' ) ;
#274 = ORIENTED_EDGE ( 'NONE', *, *, #106, .F. ) ;
#275 = CARTESIAN_POINT ( 'NONE',  ( -21.65063509461096913, 102.5000000000000000, -12.50000000000000000 ) ) ;
#276 = DATE_AND_TIME ( #497, #461 ) ;
#277 = AXIS2_PLACEMENT_3D ( 'NONE', #411, #25, #202 ) ;
#278 = VERTEX_POINT ( 'NONE', #40 ) ;
#279 = CYLINDRICAL_SURFACE ( 'NONE', #201, 5.000000000000007994 ) ;
#280 = EDGE_CURVE ( 'NONE', #423, #329, #349, .T. ) ;
#281 = CARTESIAN_POINT ( 'NONE',  ( -12.50000000000000000, 91.22498999199198977, -25.00000000000000355 ) ) ;
#282 = EDGE_CURVE ( 'NONE', #426, #251, #358, .T. ) ;
#283 = VERTEX_POINT ( 'NONE', #49 ) ;
#284 = CARTESIAN_POINT ( 'NONE',  ( 7.499999999999995559, 60.00000000000000711, 12.50000000000000000 ) ) ;
#285 = COORDINATED_UNIVERSAL_TIME_OFFSET ( 8, 0, .AHEAD. ) ;
#286 = FACE_OUTER_BOUND ( 'NONE', #452, .T. ) ;
#287 = EDGE_LOOP ( 'NONE', ( #41, #78 ) ) ;
#288 = AXIS2_PLACEMENT_3D ( 'NONE', #11, #101, #188 ) ;
#289 = FACE_OUTER_BOUND ( 'NONE', #377, .T. ) ;
#290 = ORIENTED_EDGE ( 'NONE', *, *, #44, .T. ) ;
#291 = DIRECTION ( 'NONE',  ( 0.000000000000000000, 0.000000000000000000, 1.000000000000000000 ) ) ;
#292 = EDGE_CURVE ( 'NONE', #167, #259, #487, .T. ) ;
#293 = VERTEX_POINT ( 'NONE', #6 ) ;
#294 = PERSON_AND_ORGANIZATION ( #38, #64 ) ;
#295 = CARTESIAN_POINT ( 'NONE',  ( -25.00000000000000000, 50.00000000000000000, -12.50000000000000000 ) ) ;
#296 = VERTEX_POINT ( 'NONE', #526 ) ;
#297 = AXIS2_PLACEMENT_3D ( 'NONE', #424, #91, #180 ) ;
#298 = FACE_OUTER_BOUND ( 'NONE', #417, .T. ) ;
#299 = ORIENTED_EDGE ( 'NONE', *, *, #406, .F. ) ;
#300 = DIRECTION ( 'NONE',  ( -0.000000000000000000, -1.000000000000000000, -0.000000000000000000 ) ) ;
#301 = ORIENTED_EDGE ( 'NONE', *, *, #244, .F. ) ;
#302 = DIRECTION ( 'NONE',  ( 1.000000000000000000, 0.000000000000000000, 0.000000000000000000 ) ) ;
#303 = FACE_OUTER_BOUND ( 'NONE', #465, .T. ) ;
#304 = LINE ( 'NONE', #92, #430 ) ;
#305 = PRODUCT_DEFINITION ( '未知', '', #158, #177 ) ;
#306 = CYLINDRICAL_SURFACE ( 'NONE', #385, 5.000000000000004441 ) ;
#307 = DIRECTION ( 'NONE',  ( -0.000000000000000000, -1.000000000000000000, -0.000000000000000000 ) ) ;
#308 = DIRECTION ( 'NONE',  ( 1.000000000000000000, 0.000000000000000000, 0.000000000000000000 ) ) ;
#309 = CIRCLE ( 'NONE', #469, 5.000000000000004441 ) ;
#310 = SECURITY_CLASSIFICATION ( '', '', #445 ) ;
#311 = CARTESIAN_POINT ( 'NONE',  ( 12.50000000000000000, 60.00000000000000711, -25.00000000000000355 ) ) ;
#312 = MANIFOLD_SOLID_BREP ( '切除-拉伸2', #95 ) ;
#313 = EDGE_CURVE ( 'NONE', #241, #549, #309, .T. ) ;
#314 = ORIENTED_EDGE ( 'NONE', *, *, #356, .F. ) ;
#315 = DIRECTION ( 'NONE',  ( -0.000000000000000000, -0.000000000000000000, 1.000000000000000000 ) ) ;
#316 = CARTESIAN_POINT ( 'NONE',  ( -12.50000000000000000, 91.22498999199198977, 12.50000000000000000 ) ) ;
#317 = APPROVAL_DATE_TIME ( #152, #127 ) ;
#318 = DIRECTION ( 'NONE',  ( -0.000000000000000000, -0.000000000000000000, 1.000000000000000000 ) ) ;
#319 = CC_DESIGN_SECURITY_CLASSIFICATION ( #310, ( #158 ) ) ;
#320 = EDGE_CURVE ( 'NONE', #549, #241, #351, .T. ) ;
#321 = CC_DESIGN_PERSON_AND_ORGANIZATION_ASSIGNMENT ( #168, #234, ( #305 ) ) ;
#322 = VERTEX_POINT ( 'NONE', #233 ) ;
#323 = FACE_OUTER_BOUND ( 'NONE', #379, .T. ) ;
#324 = APPROVAL_ROLE ( '' ) ;
#325 = DIRECTION ( 'NONE',  ( -0.000000000000000000, -0.000000000000000000, 1.000000000000000000 ) ) ;
#326 = ORIENTED_EDGE ( 'NONE', *, *, #406, .T. ) ;
#327 = CARTESIAN_POINT ( 'NONE',  ( 0.000000000000000000, 50.00000000000000000, 0.000000000000000000 ) ) ;
#328 = DATE_TIME_ROLE ( 'classification_date' ) ;
#329 = VERTEX_POINT ( 'NONE', #190 ) ;
#330 = CARTESIAN_POINT ( 'NONE',  ( -21.65063509461096913, 102.5000000000000000, 12.50000000000000000 ) ) ;
#331 = CIRCLE ( 'NONE', #87, 9.999999999999998224 ) ;
#332 = EDGE_CURVE ( 'NONE', #198, #259, #343, .T. ) ;
#333 = ORIENTED_EDGE ( 'NONE', *, *, #7, .T. ) ;
#334 = CARTESIAN_POINT ( 'NONE',  ( -25.00000000000000000, 90.00000000000000000, 0.000000000000000000 ) ) ;
#335 = EDGE_CURVE ( 'NONE', #296, #167, #77, .T. ) ;
#336 = ORIENTED_EDGE ( 'NONE', *, *, #149, .T. ) ;
#337 = APPROVAL_STATUS ( 'not_yet_approved' ) ;
#338 = FACE_BOUND ( 'NONE', #553, .T. ) ;
#339 = ORIENTED_EDGE ( 'NONE', *, *, #393, .F. ) ;
#340 = DIRECTION ( 'NONE',  ( 0.000000000000000000, 1.000000000000000000, 0.000000000000000000 ) ) ;
#341 = ORIENTED_EDGE ( 'NONE', *, *, #185, .F. ) ;
#342 = EDGE_CURVE ( 'NONE', #80, #283, #216, .T. ) ;
#343 = CIRCLE ( 'NONE', #98, 25.00000000000000000 ) ;
#344 = CARTESIAN_POINT ( 'NONE',  ( -21.65063509461096913, 50.00000000000000000, 12.50000000000000000 ) ) ;
#345 = AXIS2_PLACEMENT_3D ( 'NONE', #327, #32, #164 ) ;
#346 = EDGE_LOOP ( 'NONE', ( #22, #413, #514, #72, #374, #443, #475, #48, #428 ) ) ;
#347 = LINE ( 'NONE', #432, #247 ) ;
#348 = DIRECTION ( 'NONE',  ( 1.000000000000000000, 0.000000000000000000, 0.000000000000000000 ) ) ;
#349 = LINE ( 'NONE', #89, #254 ) ;
#350 = DIRECTION ( 'NONE',  ( 0.000000000000000000, 0.000000000000000000, 1.000000000000000000 ) ) ;
#351 = CIRCLE ( 'NONE', #367, 5.000000000000004441 ) ;
#352 = CC_DESIGN_APPROVAL ( #458, ( #310 ) ) ;
#353 = CARTESIAN_POINT ( 'NONE',  ( 21.65063509461096913, 102.5000000000000142, -12.50000000000000000 ) ) ;
#354 = ADVANCED_FACE ( 'NONE', ( #139 ), #306, .F. ) ;
#355 = DIRECTION ( 'NONE',  ( -0.000000000000000000, -0.000000000000000000, -1.000000000000000000 ) ) ;
#356 = EDGE_CURVE ( 'NONE', #251, #426, #459, .T. ) ;
#357 = CARTESIAN_POINT ( 'NONE',  ( -21.65063509461096913, 114.9999999999999858, -12.50000000000000000 ) ) ;
#358 = CIRCLE ( 'NONE', #512, 25.00000000000000000 ) ;
#359 = CARTESIAN_POINT ( 'NONE',  ( 12.50000000000000000, 60.00000000000000711, 12.50000000000000000 ) ) ;
#360 = CALENDAR_DATE ( 2026, 12, 6 ) ;
#361 = ORIENTED_EDGE ( 'NONE', *, *, #342, .T. ) ;
#362 = FACE_OUTER_BOUND ( 'NONE', #473, .T. ) ;
#363 = DIRECTION ( 'NONE',  ( 0.000000000000000000, -0.000000000000000000, 1.000000000000000000 ) ) ;
#364 = EDGE_LOOP ( 'NONE', ( #449, #126, #299, #14 ) ) ;
#365 = CARTESIAN_POINT ( 'NONE',  ( -12.50000000000000000, 91.22498999199198977, -25.00000000000000355 ) ) ;
#366 = DIRECTION ( 'NONE',  ( -1.000000000000000000, 0.000000000000000000, 0.000000000000000000 ) ) ;
#367 = AXIS2_PLACEMENT_3D ( 'NONE', #359, #392, #181 ) ;
#368 = CIRCLE ( 'NONE', #28, 5.000000000000007994 ) ;
#369 = ORIENTED_EDGE ( 'NONE', *, *, #282, .F. ) ;
#370 = DIRECTION ( 'NONE',  ( 0.000000000000000000, -0.000000000000000000, 1.000000000000000000 ) ) ;
#371 = VERTEX_POINT ( 'NONE', #272 ) ;
#372 = PERSON_AND_ORGANIZATION_ROLE ( 'design_supplier' ) ;
#373 = CARTESIAN_POINT ( 'NONE',  ( 0.000000000000000000, 50.00000000000000000, 0.000000000000000000 ) ) ;
#374 = ORIENTED_EDGE ( 'NONE', *, *, #335, .T. ) ;
#375 = DIRECTION ( 'NONE',  ( 1.000000000000000000, 0.000000000000000000, 0.000000000000000000 ) ) ;
#376 = LOCAL_TIME ( 9, 16, 24.00000000000000000, #146 ) ;
#377 = EDGE_LOOP ( 'NONE', ( #457, #65, #107, #510 ) ) ;
#378 = APPLICATION_PROTOCOL_DEFINITION ( 'international standard', 'config_control_design', 1994, #446 ) ;
#379 = EDGE_LOOP ( 'NONE', ( #499, #384, #245, #33, #166, #545, #467, #505, #326 ) ) ;
#380 = CYLINDRICAL_SURFACE ( 'NONE', #540, 9.999999999999998224 ) ;
#381 = ADVANCED_FACE ( 'NONE', ( #225 ), #58, .F. ) ;
#382 = EDGE_LOOP ( 'NONE', ( #462, #262, #147, #489 ) ) ;
#383 = DIRECTION ( 'NONE',  ( 0.000000000000000000, -0.000000000000000000, 1.000000000000000000 ) ) ;
#384 = ORIENTED_EDGE ( 'NONE', *, *, #488, .T. ) ;
#385 = AXIS2_PLACEMENT_3D ( 'NONE', #311, #10, #308 ) ;
#386 = DIRECTION ( 'NONE',  ( -1.000000000000000000, 0.000000000000000000, 0.000000000000000000 ) ) ;
#387 = LOCAL_TIME ( 9, 16, 24.00000000000000000, #196 ) ;
#388 = LINE ( 'NONE', #295, #129 ) ;
#389 = ADVANCED_FACE ( 'NONE', ( #490 ), #56, .T. ) ;
#390 = PRODUCT ( 'link1_column_\X2\9ed88ba4\X0\_sldprt', 'link1_column_\X2\9ed88ba4\X0\_sldprt', '', ( #108 ) ) ;
#391 = CARTESIAN_POINT ( 'NONE',  ( 0.000000000000000000, 50.00000000000000000, 0.000000000000000000 ) ) ;
#392 = DIRECTION ( 'NONE',  ( 0.000000000000000000, 0.000000000000000000, 1.000000000000000000 ) ) ;
#393 = EDGE_CURVE ( 'NONE', #236, #283, #530, .T. ) ;
#394 = DIRECTION ( 'NONE',  ( 0.000000000000000000, 1.000000000000000000, 0.000000000000000000 ) ) ;
#395 = DIRECTION ( 'NONE',  ( -0.000000000000000000, -0.000000000000000000, -1.000000000000000000 ) ) ;
#396 = CARTESIAN_POINT ( 'NONE',  ( 3.061616997868383043E-15, 0.000000000000000000, 25.00000000000000000 ) ) ;
#397 = EDGE_CURVE ( 'NONE', #133, #241, #266, .T. ) ;
#398 = CC_DESIGN_PERSON_AND_ORGANIZATION_ASSIGNMENT ( #442, #372, ( #158 ) ) ;
#399 = CARTESIAN_POINT ( 'NONE',  ( 0.000000000000000000, 50.00000000000000000, 0.000000000000000000 ) ) ;
#400 = CIRCLE ( 'NONE', #460, 25.00000000000000000 ) ;
#401 = APPLICATION_CONTEXT ( 'configuration controlled 3d designs of mechanical parts and assemblies' ) ;
#402 = DIRECTION ( 'NONE',  ( 0.000000000000000000, 0.000000000000000000, -1.000000000000000000 ) ) ;
#403 = DATE_AND_TIME ( #16, #376 ) ;
#404 = ORIENTED_EDGE ( 'NONE', *, *, #558, .T. ) ;
#405 =( NAMED_UNIT ( * ) SI_UNIT ( $, .STERADIAN. ) SOLID_ANGLE_UNIT ( ) );
#406 = EDGE_CURVE ( 'NONE', #516, #283, #444, .T. ) ;
#407 = VERTEX_POINT ( 'NONE', #270 ) ;
#408 = DIRECTION ( 'NONE',  ( -0.000000000000000000, -1.000000000000000000, -0.000000000000000000 ) ) ;
#409 = CYLINDRICAL_SURFACE ( 'NONE', #264, 5.000000000000007994 ) ;
#410 = CYLINDRICAL_SURFACE ( 'NONE', #345, 25.00000000000000000 ) ;
#411 = CARTESIAN_POINT ( 'NONE',  ( 12.50000000000000000, 60.00000000000000711, -12.50000000000000000 ) ) ;
#412 = AXIS2_PLACEMENT_3D ( 'NONE', #93, #483, #62 ) ;
#413 = ORIENTED_EDGE ( 'NONE', *, *, #97, .F. ) ;
#414 = CARTESIAN_POINT ( 'NONE',  ( 0.000000000000000000, 50.00000000000000000, 0.000000000000000000 ) ) ;
#415 = DIRECTION ( 'NONE',  ( -0.000000000000000000, -0.000000000000000000, -1.000000000000000000 ) ) ;
#416 = EDGE_CURVE ( 'NONE', #555, #407, #486, .T. ) ;
#417 = EDGE_LOOP ( 'NONE', ( #529, #431, #150, #214 ) ) ;
#418 = DIRECTION ( 'NONE',  ( 0.000000000000000000, 1.000000000000000000, 0.000000000000000000 ) ) ;
#419 = CYLINDRICAL_SURFACE ( 'NONE', #200, 5.000000000000004441 ) ;
#420 = ORIENTED_EDGE ( 'NONE', *, *, #21, .F. ) ;
#421 = PERSON_AND_ORGANIZATION_ROLE ( 'design_owner' ) ;
#422 = VECTOR ( 'NONE', #480, 1000.000000000000000 ) ;
#423 = VERTEX_POINT ( 'NONE', #353 ) ;
#424 = CARTESIAN_POINT ( 'NONE',  ( 0.000000000000000000, 0.000000000000000000, 0.000000000000000000 ) ) ;
#425 = EDGE_CURVE ( 'NONE', #516, #536, #528, .T. ) ;
#426 = VERTEX_POINT ( 'NONE', #396 ) ;
#427 = DIRECTION ( 'NONE',  ( -0.000000000000000000, 0.000000000000000000, -1.000000000000000000 ) ) ;
#428 = ORIENTED_EDGE ( 'NONE', *, *, #356, .T. ) ;
#429 = DIRECTION ( 'NONE',  ( 0.000000000000000000, 0.000000000000000000, 1.000000000000000000 ) ) ;
#430 = VECTOR ( 'NONE', #318, 1000.000000000000000 ) ;
#431 = ORIENTED_EDGE ( 'NONE', *, *, #280, .T. ) ;
#432 = CARTESIAN_POINT ( 'NONE',  ( 0.000000000000000000, 50.00000000000000000, -9.999999999999998224 ) ) ;
#433 = FACE_BOUND ( 'NONE', #535, .T. ) ;
#434 = CARTESIAN_POINT ( 'NONE',  ( 23.85759400464763047, 98.67743503759966472, -8.677435037599678935 ) ) ;
#435 = CARTESIAN_POINT ( 'NONE',  ( -12.50000000000000000, 91.22498999199198977, -12.50000000000000000 ) ) ;
#436 = AXIS2_PLACEMENT_3D ( 'NONE', #391, #447, #363 ) ;
#437 = DIRECTION ( 'NONE',  ( 0.000000000000000000, 0.000000000000000000, 1.000000000000000000 ) ) ;
#438 = AXIS2_PLACEMENT_3D ( 'NONE', #162, #415, #366 ) ;
#439 = AXIS2_PLACEMENT_3D ( 'NONE', #543, #418, #546 ) ;
#440 = DIRECTION ( 'NONE',  ( 1.000000000000000000, 0.000000000000000000, 0.000000000000000000 ) ) ;
#441 = DIRECTION ( 'NONE',  ( -0.000000000000000000, -1.000000000000000000, -0.000000000000000000 ) ) ;
#442 = PERSON_AND_ORGANIZATION ( #38, #64 ) ;
#443 = ORIENTED_EDGE ( 'NONE', *, *, #292, .T. ) ;
#444 = LINE ( 'NONE', #102, #4 ) ;
#445 = SECURITY_CLASSIFICATION_LEVEL ( 'unclassified' ) ;
#446 = APPLICATION_CONTEXT ( 'configuration controlled 3d designs of mechanical parts and assemblies' ) ;
#447 = DIRECTION ( 'NONE',  ( 0.000000000000000000, 1.000000000000000000, 0.000000000000000000 ) ) ;
#448 = EDGE_CURVE ( 'NONE', #407, #555, #368, .T. ) ;
#449 = ORIENTED_EDGE ( 'NONE', *, *, #491, .T. ) ;
#450 = DIRECTION ( 'NONE',  ( 0.000000000000000000, 1.000000000000000000, 0.000000000000000000 ) ) ;
#451 = CARTESIAN_POINT ( 'NONE',  ( 0.000000000000000000, 50.00000000000000000, 0.000000000000000000 ) ) ;
#452 = EDGE_LOOP ( 'NONE', ( #542, #172, #191, #207 ) ) ;
#453 = VERTEX_POINT ( 'NONE', #537 ) ;
#454 = CARTESIAN_POINT ( 'NONE',  ( -24.99999999999999645, 94.41391782007330846, 4.413917820073316456 ) ) ;
#455 = PERSON_AND_ORGANIZATION ( #38, #64 ) ;
#456 = CARTESIAN_POINT ( 'NONE',  ( 3.061616997868383043E-15, 50.00000000000000000, 25.00000000000000000 ) ) ;
#457 = ORIENTED_EDGE ( 'NONE', *, *, #66, .F. ) ;
#458 = APPROVAL ( #113, '未指定' ) ;
#459 = CIRCLE ( 'NONE', #288, 25.00000000000000000 ) ;
#460 = AXIS2_PLACEMENT_3D ( 'NONE', #451, #74, #548 ) ;
#461 = LOCAL_TIME ( 9, 16, 24.00000000000000000, #285 ) ;
#462 = ORIENTED_EDGE ( 'NONE', *, *, #125, .T. ) ;
#463 = DIRECTION ( 'NONE',  ( -1.000000000000000000, 0.000000000000000000, 0.000000000000000000 ) ) ;
#464 = CARTESIAN_POINT ( 'NONE',  ( -17.50000000000000711, 91.22498999199198977, -25.00000000000000355 ) ) ;
#465 = EDGE_LOOP ( 'NONE', ( #314, #369 ) ) ;
#466 = DIRECTION ( 'NONE',  ( 0.000000000000000000, 1.000000000000000000, 0.000000000000000000 ) ) ;
#467 = ORIENTED_EDGE ( 'NONE', *, *, #35, .T. ) ;
#468 = DIRECTION ( 'NONE',  ( -0.000000000000000000, -1.000000000000000000, -0.000000000000000000 ) ) ;
#469 = AXIS2_PLACEMENT_3D ( 'NONE', #96, #140, #440 ) ;
#470 = VECTOR ( 'NONE', #408, 1000.000000000000000 ) ;
#471 = VERTEX_POINT ( 'NONE', #506 ) ;
#472 = PLANE ( 'NONE',  #493 ) ;
#473 = EDGE_LOOP ( 'NONE', ( #532, #222, #404, #341 ) ) ;
#474 = DIRECTION ( 'NONE',  ( 0.000000000000000000, 0.000000000000000000, -1.000000000000000000 ) ) ;
#475 = ORIENTED_EDGE ( 'NONE', *, *, #332, .F. ) ;
#476 = CARTESIAN_POINT ( 'NONE',  ( 17.50000000000000355, 60.00000000000000711, 12.50000000000000000 ) ) ;
#477 = PLANE ( 'NONE',  #436 ) ;
#478 = CARTESIAN_POINT ( 'NONE',  ( 3.469446951953614189E-15, 90.00000000000000000, 12.50000000000000000 ) ) ;
#479 = CARTESIAN_POINT ( 'NONE',  ( 0.000000000000000000, 50.00000000000000000, 0.000000000000000000 ) ) ;
#480 = DIRECTION ( 'NONE',  ( 1.000000000000000000, 0.000000000000000000, 0.000000000000000000 ) ) ;
#481 =( BOUNDED_CURVE ( )  B_SPLINE_CURVE ( 3, ( #495, #434, #52, #224 ),
 .UNSPECIFIED., .F., .F. ) 
 B_SPLINE_CURVE_WITH_KNOTS ( ( 4, 4 ),
 ( 1.047197551196597631, 1.570796326794896558 ),
 .UNSPECIFIED. ) 
 CURVE ( )  GEOMETRIC_REPRESENTATION_ITEM ( )  RATIONAL_B_SPLINE_CURVE ( ( 1.000000000000000000, 0.9772838841927120601, 0.9772838841927120601, 1.000000000000000000 ) ) 
 REPRESENTATION_ITEM ( '' )  );
#482 = ADVANCED_FACE ( 'NONE', ( #246 ), #242, .F. ) ;
#483 = DIRECTION ( 'NONE',  ( 0.000000000000000000, 1.000000000000000000, 0.000000000000000000 ) ) ;
#484 = CARTESIAN_POINT ( 'NONE',  ( 0.000000000000000000, 50.00000000000000000, 0.000000000000000000 ) ) ;
#485 = CIRCLE ( 'NONE', #277, 5.000000000000005329 ) ;
#486 = CIRCLE ( 'NONE', #513, 5.000000000000007994 ) ;
#487 = LINE ( 'NONE', #357, #26 ) ;
#488 = EDGE_CURVE ( 'NONE', #80, #426, #151, .T. ) ;
#489 = ORIENTED_EDGE ( 'NONE', *, *, #397, .F. ) ;
#490 = FACE_OUTER_BOUND ( 'NONE', #346, .T. ) ;
#491 = EDGE_CURVE ( 'NONE', #536, #236, #76, .T. ) ;
#492 = DIRECTION ( 'NONE',  ( -0.000000000000000000, -0.000000000000000000, 1.000000000000000000 ) ) ;
#493 = AXIS2_PLACEMENT_3D ( 'NONE', #84, #556, #1 ) ;
#494 = CIRCLE ( 'NONE', #37, 9.999999999999998224 ) ;
#495 = CARTESIAN_POINT ( 'NONE',  ( 21.65063509461096913, 102.5000000000000142, -12.50000000000000000 ) ) ;
#496 = ORIENTED_EDGE ( 'NONE', *, *, #125, .F. ) ;
#497 = CALENDAR_DATE ( 2026, 12, 6 ) ;
#498 = DIRECTION ( 'NONE',  ( 0.000000000000000000, 0.000000000000000000, 1.000000000000000000 ) ) ;
#499 = ORIENTED_EDGE ( 'NONE', *, *, #342, .F. ) ;
#500 = EDGE_CURVE ( 'NONE', #536, #296, #59, .T. ) ;
#501 = CC_DESIGN_PERSON_AND_ORGANIZATION_ASSIGNMENT ( #294, #421, ( #390 ) ) ;
#502 = ORIENTED_EDGE ( 'NONE', *, *, #416, .F. ) ;
#503 = CARTESIAN_POINT ( 'NONE',  ( 0.000000000000000000, 0.000000000000000000, 0.000000000000000000 ) ) ;
#504 = VECTOR ( 'NONE', #492, 1000.000000000000000 ) ;
#505 = ORIENTED_EDGE ( 'NONE', *, *, #7, .F. ) ;
#506 = CARTESIAN_POINT ( 'NONE',  ( 0.000000000000000000, 50.00000000000000000, -9.999999999999998224 ) ) ;
#507 = ORIENTED_EDGE ( 'NONE', *, *, #397, .T. ) ;
#508 = PERSON_AND_ORGANIZATION ( #38, #64 ) ;
#509 = CYLINDRICAL_SURFACE ( 'NONE', #103, 25.00000000000000000 ) ;
#510 = ORIENTED_EDGE ( 'NONE', *, *, #235, .T. ) ;
#511 = CARTESIAN_POINT ( 'NONE',  ( 0.000000000000000000, 0.000000000000000000, 0.000000000000000000 ) ) ;
#512 = AXIS2_PLACEMENT_3D ( 'NONE', #179, #263, #211 ) ;
#513 = AXIS2_PLACEMENT_3D ( 'NONE', #435, #395, #184 ) ;
#514 = ORIENTED_EDGE ( 'NONE', *, *, #491, .F. ) ;
#515 = CARTESIAN_POINT ( 'NONE',  ( 0.000000000000000000, 50.00000000000000000, -25.00000000000000000 ) ) ;
#516 = VERTEX_POINT ( 'NONE', #69 ) ;
#517 = CARTESIAN_POINT ( 'NONE',  ( 0.000000000000000000, 50.00000000000000000, -25.00000000000000000 ) ) ;
#518 = ADVANCED_FACE ( 'NONE', ( #362 ), #279, .F. ) ;
#519 = LINE ( 'NONE', #128, #36 ) ;
#520 = VECTOR ( 'NONE', #73, 1000.000000000000000 ) ;
#521 = ADVANCED_FACE ( 'NONE', ( #323 ), #410, .T. ) ;
#522 = APPROVAL ( #337, '未指定' ) ;
#523 = CARTESIAN_POINT ( 'NONE',  ( -25.00000000000000000, 50.00000000000000000, 12.50000000000000000 ) ) ;
#524 = CARTESIAN_POINT ( 'NONE',  ( 25.00000000000000000, 90.00000000000000000, 0.000000000000000000 ) ) ;
#525 = DIRECTION ( 'NONE',  ( -1.000000000000000000, 0.000000000000000000, 0.000000000000000000 ) ) ;
#526 = CARTESIAN_POINT ( 'NONE',  ( -25.00000000000000000, 90.00000000000000000, 0.000000000000000000 ) ) ;
#527 = CIRCLE ( 'NONE', #438, 5.000000000000005329 ) ;
#528 = CIRCLE ( 'NONE', #269, 25.00000000000000000 ) ;
#529 = ORIENTED_EDGE ( 'NONE', *, *, #531, .F. ) ;
#530 = LINE ( 'NONE', #523, #422 ) ;
#531 = EDGE_CURVE ( 'NONE', #423, #167, #218, .T. ) ;
#532 = ORIENTED_EDGE ( 'NONE', *, *, #416, .T. ) ;
#533 =( LENGTH_UNIT ( ) NAMED_UNIT ( * ) SI_UNIT ( .MILLI., .METRE. ) );
#534 = PERSON_AND_ORGANIZATION ( #38, #64 ) ;
#535 = EDGE_LOOP ( 'NONE', ( #85, #257 ) ) ;
#536 = VERTEX_POINT ( 'NONE', #330 ) ;
#537 = CARTESIAN_POINT ( 'NONE',  ( 1.224646799147353059E-15, 50.00000000000000000, 9.999999999999998224 ) ) ;
#538 = PERSON_AND_ORGANIZATION ( #38, #64 ) ;
#539 = FACE_OUTER_BOUND ( 'NONE', #131, .T. ) ;
#540 = AXIS2_PLACEMENT_3D ( 'NONE', #554, #171, #474 ) ;
#541 = LOCAL_TIME ( 9, 16, 24.00000000000000000, #79 ) ;
#542 = ORIENTED_EDGE ( 'NONE', *, *, #149, .F. ) ;
#543 = CARTESIAN_POINT ( 'NONE',  ( -25.00000000000000000, 50.00000000000000000, 12.50000000000000000 ) ) ;
#544 = CARTESIAN_POINT ( 'NONE',  ( 17.50000000000000355, 60.00000000000000711, -12.50000000000000000 ) ) ;
#545 = ORIENTED_EDGE ( 'NONE', *, *, #280, .F. ) ;
#546 = DIRECTION ( 'NONE',  ( 0.000000000000000000, -0.000000000000000000, 1.000000000000000000 ) ) ;
#547 = EDGE_LOOP ( 'NONE', ( #45, #88, #210, #170, #111, #333 ) ) ;
#548 = DIRECTION ( 'NONE',  ( 0.000000000000000000, 0.000000000000000000, 1.000000000000000000 ) ) ;
#549 = VERTEX_POINT ( 'NONE', #284 ) ;
#550 = APPROVAL_DATE_TIME ( #208, #522 ) ;
#551 = DIRECTION ( 'NONE',  ( -0.000000000000000000, -1.000000000000000000, -0.000000000000000000 ) ) ;
#552 = EDGE_CURVE ( 'NONE', #471, #453, #494, .T. ) ;
#553 = EDGE_LOOP ( 'NONE', ( #496, #274 ) ) ;
#554 = CARTESIAN_POINT ( 'NONE',  ( 0.000000000000000000, 50.00000000000000000, 0.000000000000000000 ) ) ;
#555 = VERTEX_POINT ( 'NONE', #192 ) ;
#556 = DIRECTION ( 'NONE',  ( -0.000000000000000000, 0.000000000000000000, -1.000000000000000000 ) ) ;
#557 = CIRCLE ( 'NONE', #256, 5.000000000000007994 ) ;
#558 = EDGE_CURVE ( 'NONE', #178, #293, #557, .T. ) ;
#559 = ORIENTED_EDGE ( 'NONE', *, *, #552, .F. ) ;
#560 = CC_DESIGN_PERSON_AND_ORGANIZATION_ASSIGNMENT ( #538, #157, ( #310 ) ) ;
#561 = DIRECTION ( 'NONE',  ( -1.000000000000000000, 0.000000000000000000, 0.000000000000000000 ) ) ;
ENDSEC;
END-ISO-10303-21;
