ISO-10303-21;
HEADER;
FILE_DESCRIPTION (( 'STEP AP203' ),
    '1' );
FILE_NAME ('stamp_head_默认_sldprt.STEP',
    '2026-06-12T01:16:30',
    ( '' ),
    ( '' ),
    'SwSTEP 2.0',
    'SolidWorks 2022',
    '' );
FILE_SCHEMA (( 'CONFIG_CONTROL_DESIGN' ));
ENDSEC;

DATA;
#1 = AXIS2_PLACEMENT_3D ( 'NONE', #238, #196, #192 ) ;
#2 = PRODUCT_DEFINITION_SHAPE ( 'NONE', 'NONE',  #213 ) ;
#3 = CC_DESIGN_SECURITY_CLASSIFICATION ( #67, ( #21 ) ) ;
#4 = VECTOR ( 'NONE', #141, 1000.000000000000000 ) ;
#5 = EDGE_CURVE ( 'NONE', #18, #90, #71, .T. ) ;
#6 = PERSON_AND_ORGANIZATION ( #291, #145 ) ;
#7 = CARTESIAN_POINT ( 'NONE',  ( 0.000000000000000000, 0.000000000000000000, 0.000000000000000000 ) ) ;
#8 = APPROVAL ( #34, '未指定' ) ;
#9 = CC_DESIGN_APPROVAL ( #151, ( #67 ) ) ;
#10 = DIRECTION ( 'NONE',  ( 0.000000000000000000, 0.000000000000000000, -1.000000000000000000 ) ) ;
#11 = DIRECTION ( 'NONE',  ( 0.000000000000000000, -1.000000000000000000, 0.000000000000000000 ) ) ;
#12 = CARTESIAN_POINT ( 'NONE',  ( 0.000000000000000000, 0.000000000000000000, 0.000000000000000000 ) ) ;
#13 = VERTEX_POINT ( 'NONE', #94 ) ;
#14 = DIRECTION ( 'NONE',  ( -1.000000000000000000, -0.000000000000000000, -0.000000000000000000 ) ) ;
#15 = DIRECTION ( 'NONE',  ( -0.000000000000000000, 1.000000000000000000, -0.000000000000000000 ) ) ;
#16 = EDGE_CURVE ( 'NONE', #314, #65, #23, .T. ) ;
#17 = DIRECTION ( 'NONE',  ( 1.000000000000000000, 0.000000000000000000, 0.000000000000000000 ) ) ;
#18 = VERTEX_POINT ( 'NONE', #97 ) ;
#19 = DIRECTION ( 'NONE',  ( 1.000000000000000000, -0.000000000000000000, 0.000000000000000000 ) ) ;
#20 = EDGE_CURVE ( 'NONE', #13, #147, #41, .T. ) ;
#21 = PRODUCT_DEFINITION_FORMATION_WITH_SPECIFIED_SOURCE ( '任何', '', #74, .NOT_KNOWN. ) ;
#22 = EDGE_LOOP ( 'NONE', ( #309, #73 ) ) ;
#23 = LINE ( 'NONE', #91, #188 ) ;
#24 = ORIENTED_EDGE ( 'NONE', *, *, #16, .F. ) ;
#25 = ORIENTED_EDGE ( 'NONE', *, *, #184, .F. ) ;
#26 = FACE_OUTER_BOUND ( 'NONE', #43, .T. ) ;
#27 = FACE_OUTER_BOUND ( 'NONE', #22, .T. ) ;
#28 = AXIS2_PLACEMENT_3D ( 'NONE', #231, #88, #82 ) ;
#29 = APPROVAL_ROLE ( '' ) ;
#30 = CYLINDRICAL_SURFACE ( 'NONE', #239, 17.50000000000000355 ) ;
#31 = FACE_OUTER_BOUND ( 'NONE', #142, .T. ) ;
#32 = CARTESIAN_POINT ( 'NONE',  ( -5.000000000000000888, 0.000000000000000000, -5.000000000000000000 ) ) ;
#33 = CIRCLE ( 'NONE', #257, 17.50000000000000355 ) ;
#34 = APPROVAL_STATUS ( 'not_yet_approved' ) ;
#35 = DIRECTION ( 'NONE',  ( -0.000000000000000000, -1.000000000000000000, -0.000000000000000000 ) ) ;
#36 = EDGE_CURVE ( 'NONE', #314, #13, #133, .T. ) ;
#37 = ORIENTED_EDGE ( 'NONE', *, *, #184, .T. ) ;
#38 = DIRECTION ( 'NONE',  ( 0.000000000000000000, 0.000000000000000000, -1.000000000000000000 ) ) ;
#39 = AXIS2_PLACEMENT_3D ( 'NONE', #187, #15, #132 ) ;
#40 = ORIENTED_EDGE ( 'NONE', *, *, #210, .F. ) ;
#41 = LINE ( 'NONE', #168, #295 ) ;
#42 = CARTESIAN_POINT ( 'NONE',  ( 4.999999999999999112, 80.00000000000000000, -5.000000000000000000 ) ) ;
#43 = EDGE_LOOP ( 'NONE', ( #240, #46, #98, #255 ) ) ;
#44 = DIRECTION ( 'NONE',  ( 0.000000000000000000, 0.000000000000000000, -1.000000000000000000 ) ) ;
#45 = VECTOR ( 'NONE', #288, 1000.000000000000000 ) ;
#46 = ORIENTED_EDGE ( 'NONE', *, *, #316, .F. ) ;
#47 = ADVANCED_FACE ( 'NONE', ( #233 ), #313, .F. ) ;
#48 = ORIENTED_EDGE ( 'NONE', *, *, #277, .T. ) ;
#49 = DATE_AND_TIME ( #51, #61 ) ;
#50 = EDGE_CURVE ( 'NONE', #138, #59, #292, .T. ) ;
#51 = CALENDAR_DATE ( 2026, 12, 6 ) ;
#52 = CARTESIAN_POINT ( 'NONE',  ( -5.000000000000000888, 80.00000000000000000, -5.000000000000000000 ) ) ;
#53 = PERSON_AND_ORGANIZATION ( #291, #145 ) ;
#54 = APPROVAL_ROLE ( '' ) ;
#55 = EDGE_CURVE ( 'NONE', #237, #70, #259, .T. ) ;
#56 = COORDINATED_UNIVERSAL_TIME_OFFSET ( 8, 0, .AHEAD. ) ;
#57 = DIRECTION ( 'NONE',  ( -0.000000000000000000, -1.000000000000000000, -0.000000000000000000 ) ) ;
#58 = LINE ( 'NONE', #159, #176 ) ;
#59 = VERTEX_POINT ( 'NONE', #117 ) ;
#60 = APPLICATION_PROTOCOL_DEFINITION ( 'international standard', 'config_control_design', 1994, #296 ) ;
#61 = LOCAL_TIME ( 9, 16, 30.00000000000000000, #179 ) ;
#62 = DIRECTION ( 'NONE',  ( -1.000000000000000000, 0.000000000000000000, -0.000000000000000000 ) ) ;
#63 = FACE_OUTER_BOUND ( 'NONE', #267, .T. ) ;
#64 = DIRECTION ( 'NONE',  ( -0.000000000000000000, -0.000000000000000000, 1.000000000000000000 ) ) ;
#65 = VERTEX_POINT ( 'NONE', #69 ) ;
#66 = CARTESIAN_POINT ( 'NONE',  ( 4.999999999999999112, 80.00000000000000000, 5.000000000000000000 ) ) ;
#67 = SECURITY_CLASSIFICATION ( '', '', #220 ) ;
#68 = ORIENTED_EDGE ( 'NONE', *, *, #75, .F. ) ;
#69 = CARTESIAN_POINT ( 'NONE',  ( 2.143131898507868643E-15, 0.000000000000000000, -17.50000000000000355 ) ) ;
#70 = VERTEX_POINT ( 'NONE', #66 ) ;
#71 = LINE ( 'NONE', #120, #224 ) ;
#72 = CIRCLE ( 'NONE', #245, 17.50000000000000355 ) ;
#73 = ORIENTED_EDGE ( 'NONE', *, *, #36, .T. ) ;
#74 = PRODUCT ( 'stamp_head_\X2\9ed88ba4\X0\_sldprt', 'stamp_head_\X2\9ed88ba4\X0\_sldprt', '', ( #113 ) ) ;
#75 = EDGE_CURVE ( 'NONE', #70, #18, #140, .T. ) ;
#76 = DATE_TIME_ROLE ( 'creation_date' ) ;
#77 = APPROVAL_PERSON_ORGANIZATION ( #228, #8, #54 ) ;
#78 = AXIS2_PLACEMENT_3D ( 'NONE', #236, #19, #119 ) ;
#79 = PERSON_AND_ORGANIZATION ( #291, #145 ) ;
#80 = CARTESIAN_POINT ( 'NONE',  ( 0.000000000000000000, -10.00000000000000000, 0.000000000000000000 ) ) ;
#81 = LINE ( 'NONE', #134, #209 ) ;
#82 = DIRECTION ( 'NONE',  ( 0.000000000000000000, -0.000000000000000000, -1.000000000000000000 ) ) ;
#83 = ADVANCED_FACE ( 'NONE', ( #315 ), #172, .F. ) ;
#84 = ORIENTED_EDGE ( 'NONE', *, *, #36, .F. ) ;
#85 = COORDINATED_UNIVERSAL_TIME_OFFSET ( 8, 0, .AHEAD. ) ;
#86 = CIRCLE ( 'NONE', #200, 17.50000000000000355 ) ;
#87 = ADVANCED_FACE ( 'NONE', ( #27 ), #242, .T. ) ;
#88 = DIRECTION ( 'NONE',  ( 0.000000000000000000, -1.000000000000000000, 0.000000000000000000 ) ) ;
#89 = CARTESIAN_POINT ( 'NONE',  ( -5.000000000000000888, 80.00000000000000000, 5.000000000000000000 ) ) ;
#90 = VERTEX_POINT ( 'NONE', #52 ) ;
#91 = CARTESIAN_POINT ( 'NONE',  ( 2.143131898507868643E-15, -10.00000000000000000, -17.50000000000000355 ) ) ;
#92 = VECTOR ( 'NONE', #57, 1000.000000000000000 ) ;
#93 = ORIENTED_EDGE ( 'NONE', *, *, #210, .T. ) ;
#94 = CARTESIAN_POINT ( 'NONE',  ( 0.000000000000000000, -10.00000000000000000, 17.50000000000000355 ) ) ;
#95 = UNCERTAINTY_MEASURE_WITH_UNIT (LENGTH_MEASURE( 1.000000000000000082E-05 ), #157, 'distance_accuracy_value', 'NONE');
#96 = ORIENTED_EDGE ( 'NONE', *, *, #75, .T. ) ;
#97 = CARTESIAN_POINT ( 'NONE',  ( 4.999999999999999112, 80.00000000000000000, -5.000000000000000000 ) ) ;
#98 = ORIENTED_EDGE ( 'NONE', *, *, #55, .F. ) ;
#99 = DIRECTION ( 'NONE',  ( 0.000000000000000000, -1.000000000000000000, 0.000000000000000000 ) ) ;
#100 = VECTOR ( 'NONE', #262, 1000.000000000000000 ) ;
#101 = APPROVAL_ROLE ( '' ) ;
#102 = VECTOR ( 'NONE', #14, 1000.000000000000000 ) ;
#103 = ADVANCED_BREP_SHAPE_REPRESENTATION ( 'stamp_head_\X2\9ed88ba4\X0\_sldprt', ( #149, #178 ), #311 ) ;
#104 = PERSON_AND_ORGANIZATION_ROLE ( 'design_supplier' ) ;
#105 = APPROVAL_DATE_TIME ( #225, #151 ) ;
#106 = DIRECTION ( 'NONE',  ( 0.000000000000000000, -1.000000000000000000, 0.000000000000000000 ) ) ;
#107 = CALENDAR_DATE ( 2026, 12, 6 ) ;
#108 = DIRECTION ( 'NONE',  ( 0.000000000000000000, 0.000000000000000000, 1.000000000000000000 ) ) ;
#109 = CC_DESIGN_DATE_AND_TIME_ASSIGNMENT ( #297, #76, ( #213 ) ) ;
#110 = ORIENTED_EDGE ( 'NONE', *, *, #50, .T. ) ;
#111 = CARTESIAN_POINT ( 'NONE',  ( 2.143131898507868643E-15, -10.00000000000000000, -17.50000000000000355 ) ) ;
#112 = DIRECTION ( 'NONE',  ( 0.000000000000000000, 0.000000000000000000, -1.000000000000000000 ) ) ;
#113 = MECHANICAL_CONTEXT ( 'NONE', #296, 'mechanical' ) ;
#114 = AXIS2_PLACEMENT_3D ( 'NONE', #253, #131, #189 ) ;
#115 = DIRECTION ( 'NONE',  ( 0.000000000000000000, 0.000000000000000000, -1.000000000000000000 ) ) ;
#116 = CC_DESIGN_PERSON_AND_ORGANIZATION_ASSIGNMENT ( #79, #274, ( #213 ) ) ;
#117 = CARTESIAN_POINT ( 'NONE',  ( 4.999999999999999112, 0.000000000000000000, -5.000000000000000000 ) ) ;
#118 = DIRECTION ( 'NONE',  ( 1.000000000000000000, 0.000000000000000000, 0.000000000000000000 ) ) ;
#119 = DIRECTION ( 'NONE',  ( 0.000000000000000000, 0.000000000000000000, -1.000000000000000000 ) ) ;
#120 = CARTESIAN_POINT ( 'NONE',  ( -5.000000000000000888, 80.00000000000000000, -5.000000000000000000 ) ) ;
#121 = CC_DESIGN_APPROVAL ( #8, ( #213 ) ) ;
#122 = EDGE_LOOP ( 'NONE', ( #96, #285, #261, #171 ) ) ;
#123 = CARTESIAN_POINT ( 'NONE',  ( 4.999999999999999112, 80.00000000000000000, 5.000000000000000000 ) ) ;
#124 = ORIENTED_EDGE ( 'NONE', *, *, #226, .F. ) ;
#125 = CARTESIAN_POINT ( 'NONE',  ( 0.000000000000000000, -10.00000000000000000, 0.000000000000000000 ) ) ;
#126 = ADVANCED_FACE ( 'NONE', ( #26 ), #219, .F. ) ;
#127 = PERSON_AND_ORGANIZATION ( #291, #145 ) ;
#128 = CALENDAR_DATE ( 2026, 12, 6 ) ;
#129 = AXIS2_PLACEMENT_3D ( 'NONE', #294, #99, #223 ) ;
#130 = PLANE ( 'NONE',  #114 ) ;
#131 = DIRECTION ( 'NONE',  ( -1.000000000000000000, 0.000000000000000000, 0.000000000000000000 ) ) ;
#132 = DIRECTION ( 'NONE',  ( 0.000000000000000000, 0.000000000000000000, 1.000000000000000000 ) ) ;
#133 = CIRCLE ( 'NONE', #218, 17.50000000000000355 ) ;
#134 = CARTESIAN_POINT ( 'NONE',  ( -5.000000000000000888, 0.000000000000000000, 5.000000000000000000 ) ) ;
#135 = CARTESIAN_POINT ( 'NONE',  ( 4.999999999999999112, 80.00000000000000000, 5.000000000000000000 ) ) ;
#136 = LINE ( 'NONE', #276, #183 ) ;
#137 = DIRECTION ( 'NONE',  ( -0.000000000000000000, -1.000000000000000000, -0.000000000000000000 ) ) ;
#138 = VERTEX_POINT ( 'NONE', #310 ) ;
#139 = CYLINDRICAL_SURFACE ( 'NONE', #39, 17.50000000000000355 ) ;
#140 = LINE ( 'NONE', #123, #100 ) ;
#141 = DIRECTION ( 'NONE',  ( -0.000000000000000000, -1.000000000000000000, -0.000000000000000000 ) ) ;
#142 = EDGE_LOOP ( 'NONE', ( #24, #280, #199, #166 ) ) ;
#143 = DIRECTION ( 'NONE',  ( -0.000000000000000000, 1.000000000000000000, -0.000000000000000000 ) ) ;
#144 = CC_DESIGN_DATE_AND_TIME_ASSIGNMENT ( #181, #269, ( #67 ) ) ;
#145 = ORGANIZATION ( '未指定', '未指定', '' ) ;
#146 = EDGE_CURVE ( 'NONE', #147, #65, #86, .T. ) ;
#147 = VERTEX_POINT ( 'NONE', #163 ) ;
#148 = PERSON_AND_ORGANIZATION_ROLE ( 'creator' ) ;
#149 = MANIFOLD_SOLID_BREP ( '凸台-拉伸2', #160 ) ;
#150 = COORDINATED_UNIVERSAL_TIME_OFFSET ( 8, 0, .AHEAD. ) ;
#151 = APPROVAL ( #299, '未指定' ) ;
#152 = VECTOR ( 'NONE', #35, 1000.000000000000000 ) ;
#153 = EDGE_CURVE ( 'NONE', #215, #138, #136, .T. ) ;
#154 = DATE_AND_TIME ( #230, #250 ) ;
#155 = ORIENTED_EDGE ( 'NONE', *, *, #20, .F. ) ;
#156 = PERSON_AND_ORGANIZATION_ROLE ( 'design_owner' ) ;
#157 =( LENGTH_UNIT ( ) NAMED_UNIT ( * ) SI_UNIT ( .MILLI., .METRE. ) );
#158 = ADVANCED_FACE ( 'NONE', ( #211 ), #208, .F. ) ;
#159 = CARTESIAN_POINT ( 'NONE',  ( -5.000000000000000888, 80.00000000000000000, 5.000000000000000000 ) ) ;
#160 = CLOSED_SHELL ( 'NONE', ( #266, #271, #47, #83, #126, #158, #173, #87, #283 ) ) ;
#161 = ORIENTED_EDGE ( 'NONE', *, *, #252, .F. ) ;
#162 = CARTESIAN_POINT ( 'NONE',  ( 0.000000000000000000, 0.000000000000000000, 0.000000000000000000 ) ) ;
#163 = CARTESIAN_POINT ( 'NONE',  ( 0.000000000000000000, 0.000000000000000000, 17.50000000000000355 ) ) ;
#164 = FACE_BOUND ( 'NONE', #287, .T. ) ;
#165 = CC_DESIGN_PERSON_AND_ORGANIZATION_ASSIGNMENT ( #272, #156, ( #74 ) ) ;
#166 = ORIENTED_EDGE ( 'NONE', *, *, #146, .T. ) ;
#167 = CARTESIAN_POINT ( 'NONE',  ( 0.000000000000000000, 0.000000000000000000, 0.000000000000000000 ) ) ;
#168 = CARTESIAN_POINT ( 'NONE',  ( 0.000000000000000000, -10.00000000000000000, 17.50000000000000355 ) ) ;
#169 = CARTESIAN_POINT ( 'NONE',  ( -5.000000000000000888, 80.00000000000000000, 5.000000000000000000 ) ) ;
#170 = CC_DESIGN_PERSON_AND_ORGANIZATION_ASSIGNMENT ( #127, #148, ( #21 ) ) ;
#171 = ORIENTED_EDGE ( 'NONE', *, *, #55, .T. ) ;
#172 = PLANE ( 'NONE',  #78 ) ;
#173 = ADVANCED_FACE ( 'NONE', ( #31 ), #139, .T. ) ;
#174 = ORIENTED_EDGE ( 'NONE', *, *, #153, .F. ) ;
#175 = CARTESIAN_POINT ( 'NONE',  ( -5.000000000000000888, 80.00000000000000000, 5.000000000000000000 ) ) ;
#176 = VECTOR ( 'NONE', #137, 1000.000000000000000 ) ;
#177 = EDGE_LOOP ( 'NONE', ( #110, #191, #68, #293 ) ) ;
#178 = AXIS2_PLACEMENT_3D ( 'NONE', #162, #108, #229 ) ;
#179 = COORDINATED_UNIVERSAL_TIME_OFFSET ( 8, 0, .AHEAD. ) ;
#180 = APPROVAL_DATE_TIME ( #49, #221 ) ;
#181 = DATE_AND_TIME ( #246, #248 ) ;
#182 = EDGE_CURVE ( 'NONE', #13, #314, #33, .T. ) ;
#183 = VECTOR ( 'NONE', #118, 1000.000000000000000 ) ;
#184 = EDGE_CURVE ( 'NONE', #282, #215, #81, .T. ) ;
#185 = DIRECTION ( 'NONE',  ( 0.000000000000000000, -1.000000000000000000, 0.000000000000000000 ) ) ;
#186 = CARTESIAN_POINT ( 'NONE',  ( -5.000000000000000888, 0.000000000000000000, 5.000000000000000000 ) ) ;
#187 = CARTESIAN_POINT ( 'NONE',  ( 0.000000000000000000, -10.00000000000000000, 0.000000000000000000 ) ) ;
#188 = VECTOR ( 'NONE', #143, 1000.000000000000000 ) ;
#189 = DIRECTION ( 'NONE',  ( 0.000000000000000000, 0.000000000000000000, 1.000000000000000000 ) ) ;
#190 = CARTESIAN_POINT ( 'NONE',  ( -5.000000000000000888, 80.00000000000000000, -5.000000000000000000 ) ) ;
#191 = ORIENTED_EDGE ( 'NONE', *, *, #241, .F. ) ;
#192 = DIRECTION ( 'NONE',  ( 1.000000000000000000, 0.000000000000000000, -0.000000000000000000 ) ) ;
#193 = CARTESIAN_POINT ( 'NONE',  ( 4.999999999999999112, 0.000000000000000000, 5.000000000000000000 ) ) ;
#194 = LINE ( 'NONE', #190, #92 ) ;
#195 = ORIENTED_EDGE ( 'NONE', *, *, #235, .F. ) ;
#196 = DIRECTION ( 'NONE',  ( 0.000000000000000000, 0.000000000000000000, 1.000000000000000000 ) ) ;
#197 = EDGE_LOOP ( 'NONE', ( #217, #40, #263, #212 ) ) ;
#198 = DIRECTION ( 'NONE',  ( -1.000000000000000000, -0.000000000000000000, -0.000000000000000000 ) ) ;
#199 = ORIENTED_EDGE ( 'NONE', *, *, #20, .T. ) ;
#200 = AXIS2_PLACEMENT_3D ( 'NONE', #167, #11, #38 ) ;
#201 = APPROVAL_STATUS ( 'not_yet_approved' ) ;
#202 = LOCAL_TIME ( 9, 16, 30.00000000000000000, #150 ) ;
#203 = APPROVAL_PERSON_ORGANIZATION ( #53, #221, #101 ) ;
#204 = COORDINATED_UNIVERSAL_TIME_OFFSET ( 8, 0, .AHEAD. ) ;
#205 = PERSON_AND_ORGANIZATION ( #291, #145 ) ;
#206 = FACE_OUTER_BOUND ( 'NONE', #304, .T. ) ;
#207 = PLANE ( 'NONE',  #279 ) ;
#208 = PLANE ( 'NONE',  #28 ) ;
#209 = VECTOR ( 'NONE', #234, 1000.000000000000000 ) ;
#210 = EDGE_CURVE ( 'NONE', #90, #282, #194, .T. ) ;
#211 = FACE_OUTER_BOUND ( 'NONE', #122, .T. ) ;
#212 = ORIENTED_EDGE ( 'NONE', *, *, #241, .T. ) ;
#213 = PRODUCT_DEFINITION ( '未知', '', #21, #289 ) ;
#214 = DIRECTION ( 'NONE',  ( 0.000000000000000000, -1.000000000000000000, 0.000000000000000000 ) ) ;
#215 = VERTEX_POINT ( 'NONE', #186 ) ;
#216 = DIRECTION ( 'NONE',  ( -0.000000000000000000, 1.000000000000000000, -0.000000000000000000 ) ) ;
#217 = ORIENTED_EDGE ( 'NONE', *, *, #252, .T. ) ;
#218 = AXIS2_PLACEMENT_3D ( 'NONE', #125, #214, #44 ) ;
#219 = PLANE ( 'NONE',  #305 ) ;
#220 = SECURITY_CLASSIFICATION_LEVEL ( 'unclassified' ) ;
#221 = APPROVAL ( #201, '未指定' ) ;
#222 = SHAPE_DEFINITION_REPRESENTATION ( #2, #103 ) ;
#223 = DIRECTION ( 'NONE',  ( 0.000000000000000000, -0.000000000000000000, -1.000000000000000000 ) ) ;
#224 = VECTOR ( 'NONE', #198, 1000.000000000000000 ) ;
#225 = DATE_AND_TIME ( #128, #202 ) ;
#226 = EDGE_CURVE ( 'NONE', #237, #215, #58, .T. ) ;
#227 = DIRECTION ( 'NONE',  ( 0.000000000000000000, 0.000000000000000000, 1.000000000000000000 ) ) ;
#228 = PERSON_AND_ORGANIZATION ( #291, #145 ) ;
#229 = DIRECTION ( 'NONE',  ( 1.000000000000000000, 0.000000000000000000, 0.000000000000000000 ) ) ;
#230 = CALENDAR_DATE ( 2026, 12, 6 ) ;
#231 = CARTESIAN_POINT ( 'NONE',  ( 0.000000000000000000, 80.00000000000000000, 0.000000000000000000 ) ) ;
#232 = VECTOR ( 'NONE', #17, 1000.000000000000000 ) ;
#233 = FACE_OUTER_BOUND ( 'NONE', #197, .T. ) ;
#234 = DIRECTION ( 'NONE',  ( -0.000000000000000000, -0.000000000000000000, 1.000000000000000000 ) ) ;
#235 = EDGE_CURVE ( 'NONE', #90, #237, #308, .T. ) ;
#236 = CARTESIAN_POINT ( 'NONE',  ( -5.000000000000000888, 80.00000000000000000, 5.000000000000000000 ) ) ;
#237 = VERTEX_POINT ( 'NONE', #169 ) ;
#238 = CARTESIAN_POINT ( 'NONE',  ( -5.000000000000000888, 80.00000000000000000, -5.000000000000000000 ) ) ;
#239 = AXIS2_PLACEMENT_3D ( 'NONE', #80, #303, #227 ) ;
#240 = ORIENTED_EDGE ( 'NONE', *, *, #153, .T. ) ;
#241 = EDGE_CURVE ( 'NONE', #18, #59, #260, .T. ) ;
#242 = PLANE ( 'NONE',  #129 ) ;
#243 = APPLICATION_CONTEXT ( 'configuration controlled 3d designs of mechanical parts and assemblies' ) ;
#244 = CC_DESIGN_PERSON_AND_ORGANIZATION_ASSIGNMENT ( #205, #270, ( #67 ) ) ;
#245 = AXIS2_PLACEMENT_3D ( 'NONE', #12, #185, #10 ) ;
#246 = CALENDAR_DATE ( 2026, 12, 6 ) ;
#247 = APPROVAL_DATE_TIME ( #154, #8 ) ;
#248 = LOCAL_TIME ( 9, 16, 30.00000000000000000, #204 ) ;
#249 =( NAMED_UNIT ( * ) SI_UNIT ( $, .STERADIAN. ) SOLID_ANGLE_UNIT ( ) );
#250 = LOCAL_TIME ( 9, 16, 30.00000000000000000, #85 ) ;
#251 = APPLICATION_PROTOCOL_DEFINITION ( 'international standard', 'config_control_design', 1994, #243 ) ;
#252 = EDGE_CURVE ( 'NONE', #59, #282, #286, .T. ) ;
#253 = CARTESIAN_POINT ( 'NONE',  ( 4.999999999999999112, 80.00000000000000000, 5.000000000000000000 ) ) ;
#254 = DIRECTION ( 'NONE',  ( 0.000000000000000000, -1.000000000000000000, 0.000000000000000000 ) ) ;
#255 = ORIENTED_EDGE ( 'NONE', *, *, #226, .T. ) ;
#256 = CARTESIAN_POINT ( 'NONE',  ( -5.000000000000000888, 80.00000000000000000, 5.000000000000000000 ) ) ;
#257 = AXIS2_PLACEMENT_3D ( 'NONE', #284, #254, #112 ) ;
#258 = ORIENTED_EDGE ( 'NONE', *, *, #50, .F. ) ;
#259 = LINE ( 'NONE', #175, #232 ) ;
#260 = LINE ( 'NONE', #42, #4 ) ;
#261 = ORIENTED_EDGE ( 'NONE', *, *, #235, .T. ) ;
#262 = DIRECTION ( 'NONE',  ( 0.000000000000000000, 0.000000000000000000, -1.000000000000000000 ) ) ;
#263 = ORIENTED_EDGE ( 'NONE', *, *, #5, .F. ) ;
#264 = CC_DESIGN_APPROVAL ( #221, ( #21 ) ) ;
#265 = PRODUCT_RELATED_PRODUCT_CATEGORY ( 'detail', '', ( #74 ) ) ;
#266 = ADVANCED_FACE ( 'NONE', ( #63 ), #30, .T. ) ;
#267 = EDGE_LOOP ( 'NONE', ( #84, #317, #48, #155 ) ) ;
#268 = VECTOR ( 'NONE', #64, 1000.000000000000000 ) ;
#269 = DATE_TIME_ROLE ( 'classification_date' ) ;
#270 = PERSON_AND_ORGANIZATION_ROLE ( 'classification_officer' ) ;
#271 = ADVANCED_FACE ( 'NONE', ( #275 ), #130, .F. ) ;
#272 = PERSON_AND_ORGANIZATION ( #291, #145 ) ;
#273 = APPROVAL_PERSON_ORGANIZATION ( #6, #151, #29 ) ;
#274 = PERSON_AND_ORGANIZATION_ROLE ( 'creator' ) ;
#275 = FACE_OUTER_BOUND ( 'NONE', #177, .T. ) ;
#276 = CARTESIAN_POINT ( 'NONE',  ( -5.000000000000000888, 0.000000000000000000, 5.000000000000000000 ) ) ;
#277 = EDGE_CURVE ( 'NONE', #65, #147, #72, .T. ) ;
#278 =( NAMED_UNIT ( * ) PLANE_ANGLE_UNIT ( ) SI_UNIT ( $, .RADIAN. ) );
#279 = AXIS2_PLACEMENT_3D ( 'NONE', #7, #106, #302 ) ;
#280 = ORIENTED_EDGE ( 'NONE', *, *, #182, .F. ) ;
#281 = CARTESIAN_POINT ( 'NONE',  ( -5.000000000000000888, 0.000000000000000000, -5.000000000000000000 ) ) ;
#282 = VERTEX_POINT ( 'NONE', #281 ) ;
#283 = ADVANCED_FACE ( 'NONE', ( #164, #206 ), #207, .F. ) ;
#284 = CARTESIAN_POINT ( 'NONE',  ( 0.000000000000000000, -10.00000000000000000, 0.000000000000000000 ) ) ;
#285 = ORIENTED_EDGE ( 'NONE', *, *, #5, .T. ) ;
#286 = LINE ( 'NONE', #32, #102 ) ;
#287 = EDGE_LOOP ( 'NONE', ( #258, #174, #25, #161 ) ) ;
#288 = DIRECTION ( 'NONE',  ( 0.000000000000000000, 0.000000000000000000, -1.000000000000000000 ) ) ;
#289 = DESIGN_CONTEXT ( 'detailed design', #243, 'design' ) ;
#290 = ORIENTED_EDGE ( 'NONE', *, *, #277, .F. ) ;
#291 = PERSON ( '未指定', '未指定', '未指定', ('未指定'), ('未指定'), ('未指定') ) ;
#292 = LINE ( 'NONE', #193, #45 ) ;
#293 = ORIENTED_EDGE ( 'NONE', *, *, #316, .T. ) ;
#294 = CARTESIAN_POINT ( 'NONE',  ( 0.000000000000000000, -10.00000000000000000, 0.000000000000000000 ) ) ;
#295 = VECTOR ( 'NONE', #216, 1000.000000000000000 ) ;
#296 = APPLICATION_CONTEXT ( 'configuration controlled 3d designs of mechanical parts and assemblies' ) ;
#297 = DATE_AND_TIME ( #107, #298 ) ;
#298 = LOCAL_TIME ( 9, 16, 30.00000000000000000, #56 ) ;
#299 = APPROVAL_STATUS ( 'not_yet_approved' ) ;
#300 = PERSON_AND_ORGANIZATION ( #291, #145 ) ;
#301 = ORIENTED_EDGE ( 'NONE', *, *, #146, .F. ) ;
#302 = DIRECTION ( 'NONE',  ( 0.000000000000000000, -0.000000000000000000, -1.000000000000000000 ) ) ;
#303 = DIRECTION ( 'NONE',  ( -0.000000000000000000, 1.000000000000000000, -0.000000000000000000 ) ) ;
#304 = EDGE_LOOP ( 'NONE', ( #301, #290 ) ) ;
#305 = AXIS2_PLACEMENT_3D ( 'NONE', #256, #115, #62 ) ;
#306 = CC_DESIGN_PERSON_AND_ORGANIZATION_ASSIGNMENT ( #300, #104, ( #21 ) ) ;
#307 = LINE ( 'NONE', #135, #152 ) ;
#308 = LINE ( 'NONE', #89, #268 ) ;
#309 = ORIENTED_EDGE ( 'NONE', *, *, #182, .T. ) ;
#310 = CARTESIAN_POINT ( 'NONE',  ( 4.999999999999999112, 0.000000000000000000, 5.000000000000000000 ) ) ;
#311 =( GEOMETRIC_REPRESENTATION_CONTEXT ( 3 ) GLOBAL_UNCERTAINTY_ASSIGNED_CONTEXT ( ( #95 ) ) GLOBAL_UNIT_ASSIGNED_CONTEXT ( ( #157, #278, #249 ) ) REPRESENTATION_CONTEXT ( 'NONE', 'WORKASPACE' ) );
#312 = EDGE_LOOP ( 'NONE', ( #37, #124, #195, #93 ) ) ;
#313 = PLANE ( 'NONE',  #1 ) ;
#314 = VERTEX_POINT ( 'NONE', #111 ) ;
#315 = FACE_OUTER_BOUND ( 'NONE', #312, .T. ) ;
#316 = EDGE_CURVE ( 'NONE', #70, #138, #307, .T. ) ;
#317 = ORIENTED_EDGE ( 'NONE', *, *, #16, .T. ) ;
ENDSEC;
END-ISO-10303-21;
