ISO-10303-21;
HEADER;
FILE_DESCRIPTION (( 'STEP AP203' ),
    '1' );
FILE_NAME ('stamp_slider_默认_sldprt.STEP',
    '2026-06-12T01:16:31',
    ( '' ),
    ( '' ),
    'SwSTEP 2.0',
    'SolidWorks 2022',
    '' );
FILE_SCHEMA (( 'CONFIG_CONTROL_DESIGN' ));
ENDSEC;

DATA;
#1 = ORIENTED_EDGE ( 'NONE', *, *, #81, .T. ) ;
#2 = DIRECTION ( 'NONE',  ( 1.000000000000000000, 0.000000000000000000, 0.000000000000000000 ) ) ;
#3 = ORIENTED_EDGE ( 'NONE', *, *, #355, .T. ) ;
#4 = CALENDAR_DATE ( 2026, 12, 6 ) ;
#5 = LINE ( 'NONE', #188, #269 ) ;
#6 = CARTESIAN_POINT ( 'NONE',  ( -36.70937124699698018, 21.84998999199201819, 25.00000000000000000 ) ) ;
#7 = PLANE ( 'NONE',  #379 ) ;
#8 = VERTEX_POINT ( 'NONE', #537 ) ;
#9 = CALENDAR_DATE ( 2026, 12, 6 ) ;
#10 = CARTESIAN_POINT ( 'NONE',  ( 19.99999999999998934, 0.000000000000000000, 0.000000000000000000 ) ) ;
#11 = DIRECTION ( 'NONE',  ( -0.000000000000000000, -0.000000000000000000, -1.000000000000000000 ) ) ;
#12 = AXIS2_PLACEMENT_3D ( 'NONE', #694, #640, #395 ) ;
#13 = DIRECTION ( 'NONE',  ( -1.000000000000000000, -0.000000000000000000, -0.000000000000000000 ) ) ;
#14 = DIRECTION ( 'NONE',  ( 0.000000000000000000, 0.000000000000000000, 1.000000000000000000 ) ) ;
#15 = CIRCLE ( 'NONE', #701, 10.00000000000000000 ) ;
#16 = EDGE_CURVE ( 'NONE', #297, #172, #251, .T. ) ;
#17 = CYLINDRICAL_SURFACE ( 'NONE', #420, 10.00000000000000000 ) ;
#18 = EDGE_CURVE ( 'NONE', #711, #179, #417, .T. ) ;
#19 = CC_DESIGN_PERSON_AND_ORGANIZATION_ASSIGNMENT ( #591, #712, ( #612 ) ) ;
#20 = DIRECTION ( 'NONE',  ( -0.000000000000000000, 0.000000000000000000, 1.000000000000000000 ) ) ;
#21 = EDGE_CURVE ( 'NONE', #162, #628, #206, .T. ) ;
#22 = AXIS2_PLACEMENT_3D ( 'NONE', #764, #544, #709 ) ;
#23 = CARTESIAN_POINT ( 'NONE',  ( 10.00000000000000355, 0.000000000000000000, 17.50000000000000000 ) ) ;
#24 = APPROVAL_PERSON_ORGANIZATION ( #422, #371, #708 ) ;
#25 = LINE ( 'NONE', #497, #87 ) ;
#26 = CARTESIAN_POINT ( 'NONE',  ( -30.85468562349849364, 26.53748999199201108, 25.00000000000000000 ) ) ;
#27 = EDGE_CURVE ( 'NONE', #174, #391, #373, .T. ) ;
#28 = CARTESIAN_POINT ( 'NONE',  ( 19.99999999999999289, 26.53748999199201108, 15.00000000000000178 ) ) ;
#29 = DIRECTION ( 'NONE',  ( 0.000000000000000000, 1.000000000000000000, 0.000000000000000000 ) ) ;
#30 = ORIENTED_EDGE ( 'NONE', *, *, #21, .T. ) ;
#31 = EDGE_CURVE ( 'NONE', #531, #66, #744, .T. ) ;
#32 = CARTESIAN_POINT ( 'NONE',  ( 0.000000000000000000, 0.000000000000000000, 0.000000000000000000 ) ) ;
#33 = VECTOR ( 'NONE', #682, 1000.000000000000000 ) ;
#34 = VERTEX_POINT ( 'NONE', #321 ) ;
#35 = AXIS2_PLACEMENT_3D ( 'NONE', #704, #528, #58 ) ;
#36 = DIRECTION ( 'NONE',  ( -0.000000000000000000, 1.000000000000000000, 0.000000000000000000 ) ) ;
#37 = LINE ( 'NONE', #331, #582 ) ;
#38 = EDGE_LOOP ( 'NONE', ( #642, #402, #1, #280 ) ) ;
#39 = CARTESIAN_POINT ( 'NONE',  ( 29.99999999999999645, 0.000000000000000000, 0.000000000000000000 ) ) ;
#40 = CARTESIAN_POINT ( 'NONE',  ( 10.00000000000000355, 0.000000000000000000, 7.500000000000001776 ) ) ;
#41 = EDGE_LOOP ( 'NONE', ( #110, #656, #364, #747 ) ) ;
#42 = CARTESIAN_POINT ( 'NONE',  ( -10.85468562349849542, -4.687499999999991118, 0.000000000000000000 ) ) ;
#43 = ORIENTED_EDGE ( 'NONE', *, *, #44, .T. ) ;
#44 = EDGE_CURVE ( 'NONE', #587, #692, #267, .T. ) ;
#45 = ORIENTED_EDGE ( 'NONE', *, *, #355, .F. ) ;
#46 = AXIS2_PLACEMENT_3D ( 'NONE', #460, #716, #317 ) ;
#47 = DIRECTION ( 'NONE',  ( 1.000000000000000000, 0.000000000000000000, -0.000000000000000000 ) ) ;
#48 = VECTOR ( 'NONE', #90, 1000.000000000000000 ) ;
#49 = ORIENTED_EDGE ( 'NONE', *, *, #282, .T. ) ;
#50 = DIRECTION ( 'NONE',  ( -0.000000000000000000, 1.000000000000000000, -0.000000000000000000 ) ) ;
#51 = ORIENTED_EDGE ( 'NONE', *, *, #221, .F. ) ;
#52 = EDGE_CURVE ( 'NONE', #407, #391, #80, .T. ) ;
#53 = FACE_BOUND ( 'NONE', #679, .T. ) ;
#54 = VERTEX_POINT ( 'NONE', #356 ) ;
#55 = EDGE_CURVE ( 'NONE', #645, #650, #416, .T. ) ;
#56 = ORIENTED_EDGE ( 'NONE', *, *, #227, .F. ) ;
#57 = ADVANCED_FACE ( 'NONE', ( #351 ), #662, .T. ) ;
#58 = DIRECTION ( 'NONE',  ( 1.000000000000000000, 0.000000000000000000, 0.000000000000000000 ) ) ;
#59 = UNCERTAINTY_MEASURE_WITH_UNIT (LENGTH_MEASURE( 1.000000000000000082E-05 ), #234, 'distance_accuracy_value', 'NONE');
#60 = DIRECTION ( 'NONE',  ( -1.000000000000000000, 0.000000000000000000, 0.000000000000000000 ) ) ;
#61 = ORIENTED_EDGE ( 'NONE', *, *, #542, .F. ) ;
#62 = CARTESIAN_POINT ( 'NONE',  ( -36.70937124699698018, 21.84998999199201819, 0.000000000000000000 ) ) ;
#63 = EDGE_LOOP ( 'NONE', ( #92, #543, #749, #739 ) ) ;
#64 = DATE_AND_TIME ( #204, #516 ) ;
#65 = CARTESIAN_POINT ( 'NONE',  ( -30.85468562349849364, 26.53748999199201108, 0.000000000000000000 ) ) ;
#66 = VERTEX_POINT ( 'NONE', #140 ) ;
#67 = AXIS2_PLACEMENT_3D ( 'NONE', #499, #161, #20 ) ;
#68 = LINE ( 'NONE', #536, #699 ) ;
#69 = PRODUCT_DEFINITION_FORMATION_WITH_SPECIFIED_SOURCE ( '任何', '', #93, .NOT_KNOWN. ) ;
#70 = ORIENTED_EDGE ( 'NONE', *, *, #715, .F. ) ;
#71 = COORDINATED_UNIVERSAL_TIME_OFFSET ( 8, 0, .AHEAD. ) ;
#72 = DIRECTION ( 'NONE',  ( 0.000000000000000000, 0.000000000000000000, 1.000000000000000000 ) ) ;
#73 = CARTESIAN_POINT ( 'NONE',  ( 20.00000000000000355, -10.00000000000000000, 7.500000000000001776 ) ) ;
#74 = EDGE_LOOP ( 'NONE', ( #449, #385, #56, #574 ) ) ;
#75 = APPROVAL_DATE_TIME ( #252, #335 ) ;
#76 = DIRECTION ( 'NONE',  ( 1.000000000000000000, 0.000000000000000000, 0.000000000000000000 ) ) ;
#77 = FACE_BOUND ( 'NONE', #38, .T. ) ;
#78 = EDGE_CURVE ( 'NONE', #501, #297, #428, .T. ) ;
#79 = COORDINATED_UNIVERSAL_TIME_OFFSET ( 8, 0, .AHEAD. ) ;
#80 = LINE ( 'NONE', #177, #657 ) ;
#81 = EDGE_CURVE ( 'NONE', #756, #684, #599, .T. ) ;
#82 = AXIS2_PLACEMENT_3D ( 'NONE', #659, #547, #202 ) ;
#83 = CARTESIAN_POINT ( 'NONE',  ( -38.35468562349848298, 26.53748999199201108, 0.000000000000000000 ) ) ;
#84 = DIRECTION ( 'NONE',  ( 1.000000000000000000, 0.000000000000000000, 0.000000000000000000 ) ) ;
#85 = CARTESIAN_POINT ( 'NONE',  ( -0.8546856234984924194, -4.687499999999992006, 25.00000000000000000 ) ) ;
#86 = DIRECTION ( 'NONE',  ( -0.6249999999999998890, 0.7806247497997997886, -0.000000000000000000 ) ) ;
#87 = VECTOR ( 'NONE', #505, 1000.000000000000000 ) ;
#88 = EDGE_CURVE ( 'NONE', #117, #717, #464, .T. ) ;
#89 = DIRECTION ( 'NONE',  ( 0.000000000000000000, 0.000000000000000000, 1.000000000000000000 ) ) ;
#90 = DIRECTION ( 'NONE',  ( 1.000000000000000000, 0.000000000000000000, 0.000000000000000000 ) ) ;
#91 = ADVANCED_FACE ( 'NONE', ( #713 ), #300, .F. ) ;
#92 = ORIENTED_EDGE ( 'NONE', *, *, #16, .F. ) ;
#93 = PRODUCT ( 'stamp_slider_\X2\9ed88ba4\X0\_sldprt', 'stamp_slider_\X2\9ed88ba4\X0\_sldprt', '', ( #368 ) ) ;
#94 = LINE ( 'NONE', #733, #306 ) ;
#95 = DIRECTION ( 'NONE',  ( 1.000000000000000000, 0.000000000000000000, 0.000000000000000000 ) ) ;
#96 = CIRCLE ( 'NONE', #488, 10.00000000000000000 ) ;
#97 = EDGE_LOOP ( 'NONE', ( #350, #228, #314, #243, #276, #256 ) ) ;
#98 = AXIS2_PLACEMENT_3D ( 'NONE', #758, #72, #419 ) ;
#99 = DIRECTION ( 'NONE',  ( 0.000000000000000000, 0.000000000000000000, 1.000000000000000000 ) ) ;
#100 = DIRECTION ( 'NONE',  ( 1.000000000000000000, 0.000000000000000000, 0.000000000000000000 ) ) ;
#101 = ORIENTED_EDGE ( 'NONE', *, *, #490, .T. ) ;
#102 = CC_DESIGN_DATE_AND_TIME_ASSIGNMENT ( #660, #718, ( #198 ) ) ;
#103 = ADVANCED_FACE ( 'NONE', ( #607 ), #474, .F. ) ;
#104 = LINE ( 'NONE', #39, #33 ) ;
#105 = CARTESIAN_POINT ( 'NONE',  ( -5.854685623498494529, -4.687499999999992006, 25.00000000000000000 ) ) ;
#106 = VERTEX_POINT ( 'NONE', #523 ) ;
#107 = ORIENTED_EDGE ( 'NONE', *, *, #250, .F. ) ;
#108 = CARTESIAN_POINT ( 'NONE',  ( -30.85468562349849364, 26.53748999199201108, 0.000000000000000000 ) ) ;
#109 = EDGE_LOOP ( 'NONE', ( #229, #158, #70, #167 ) ) ;
#110 = ORIENTED_EDGE ( 'NONE', *, *, #652, .F. ) ;
#111 = CIRCLE ( 'NONE', #176, 5.000000000000000888 ) ;
#112 = CARTESIAN_POINT ( 'NONE',  ( -30.85468562349849364, 26.53748999199201108, 0.000000000000000000 ) ) ;
#113 = EDGE_LOOP ( 'NONE', ( #301, #584, #632, #508 ) ) ;
#114 = ADVANCED_FACE ( 'NONE', ( #698, #194, #241 ), #366, .T. ) ;
#115 = VERTEX_POINT ( 'NONE', #588 ) ;
#116 = CARTESIAN_POINT ( 'NONE',  ( 20.00000000000000355, 0.000000000000000000, 17.50000000000000000 ) ) ;
#117 = VERTEX_POINT ( 'NONE', #116 ) ;
#118 = DIRECTION ( 'NONE',  ( -0.000000000000000000, 1.000000000000000000, -0.000000000000000000 ) ) ;
#119 = VERTEX_POINT ( 'NONE', #182 ) ;
#120 = APPROVAL_DATE_TIME ( #191, #371 ) ;
#121 =( NAMED_UNIT ( * ) SI_UNIT ( $, .STERADIAN. ) SOLID_ANGLE_UNIT ( ) );
#122 = PLANE ( 'NONE',  #551 ) ;
#123 = ORIENTED_EDGE ( 'NONE', *, *, #18, .T. ) ;
#124 = CARTESIAN_POINT ( 'NONE',  ( -5.854685623498494529, -4.687499999999992006, 0.000000000000000000 ) ) ;
#125 = EDGE_LOOP ( 'NONE', ( #463, #638, #239, #43 ) ) ;
#126 = PERSON_AND_ORGANIZATION ( #138, #598 ) ;
#127 = AXIS2_PLACEMENT_3D ( 'NONE', #28, #274, #447 ) ;
#128 = CARTESIAN_POINT ( 'NONE',  ( -5.854685623498494529, -4.687499999999992006, 0.000000000000000000 ) ) ;
#129 = VECTOR ( 'NONE', #724, 1000.000000000000000 ) ;
#130 = LINE ( 'NONE', #249, #639 ) ;
#131 = LOCAL_TIME ( 9, 16, 31.00000000000000000, #311 ) ;
#132 = VERTEX_POINT ( 'NONE', #647 ) ;
#133 = PERSON_AND_ORGANIZATION ( #138, #598 ) ;
#134 = FACE_OUTER_BOUND ( 'NONE', #125, .T. ) ;
#135 = ADVANCED_FACE ( 'NONE', ( #247 ), #122, .F. ) ;
#136 = CARTESIAN_POINT ( 'NONE',  ( 0.000000000000000000, -10.00000000000000000, 0.000000000000000000 ) ) ;
#137 = CARTESIAN_POINT ( 'NONE',  ( 20.00000000000000355, -10.00000000000000000, 17.50000000000000000 ) ) ;
#138 = PERSON ( '未指定', '未指定', '未指定', ('未指定'), ('未指定'), ('未指定') ) ;
#139 = APPLICATION_PROTOCOL_DEFINITION ( 'international standard', 'config_control_design', 1994, #352 ) ;
#140 = CARTESIAN_POINT ( 'NONE',  ( 19.99999999999999289, -10.00000000000000000, 25.00000000000000000 ) ) ;
#141 = PERSON_AND_ORGANIZATION_ROLE ( 'design_supplier' ) ;
#142 = CARTESIAN_POINT ( 'NONE',  ( 19.99999999999999645, -10.00000000000000000, 0.000000000000000000 ) ) ;
#143 = VECTOR ( 'NONE', #13, 1000.000000000000000 ) ;
#144 = ADVANCED_FACE ( 'NONE', ( #312 ), #534, .T. ) ;
#145 = AXIS2_PLACEMENT_3D ( 'NONE', #624, #608, #84 ) ;
#146 = EDGE_CURVE ( 'NONE', #501, #695, #5, .T. ) ;
#147 = APPROVAL_PERSON_ORGANIZATION ( #133, #335, #425 ) ;
#148 = CARTESIAN_POINT ( 'NONE',  ( -5.854685623498494529, -4.687499999999992006, 25.00000000000000000 ) ) ;
#149 = DIRECTION ( 'NONE',  ( -0.000000000000000000, -0.000000000000000000, -1.000000000000000000 ) ) ;
#150 = LINE ( 'NONE', #738, #597 ) ;
#151 = VECTOR ( 'NONE', #238, 1000.000000000000000 ) ;
#152 = CIRCLE ( 'NONE', #166, 5.000000000000001776 ) ;
#153 = AXIS2_PLACEMENT_3D ( 'NONE', #212, #435, #215 ) ;
#154 = DIRECTION ( 'NONE',  ( 0.000000000000000000, -1.000000000000000000, 0.000000000000000000 ) ) ;
#155 = CARTESIAN_POINT ( 'NONE',  ( 3.479852726768797755, 0.000000000000000000, 25.00000000000000000 ) ) ;
#156 = EDGE_CURVE ( 'NONE', #115, #337, #242, .T. ) ;
#157 = CARTESIAN_POINT ( 'NONE',  ( 20.00000000000000355, -10.00000000000000000, 7.500000000000001776 ) ) ;
#158 = ORIENTED_EDGE ( 'NONE', *, *, #21, .F. ) ;
#159 = ADVANCED_FACE ( 'NONE', ( #134 ), #315, .T. ) ;
#160 = DIRECTION ( 'NONE',  ( 0.000000000000000000, 0.000000000000000000, -1.000000000000000000 ) ) ;
#161 = DIRECTION ( 'NONE',  ( -1.000000000000000000, 0.000000000000000000, -0.000000000000000000 ) ) ;
#162 = VERTEX_POINT ( 'NONE', #10 ) ;
#163 = FACE_BOUND ( 'NONE', #458, .T. ) ;
#164 = ORIENTED_EDGE ( 'NONE', *, *, #466, .F. ) ;
#165 = EDGE_CURVE ( 'NONE', #396, #223, #611, .T. ) ;
#166 = AXIS2_PLACEMENT_3D ( 'NONE', #148, #507, #740 ) ;
#167 = ORIENTED_EDGE ( 'NONE', *, *, #330, .F. ) ;
#168 = ORIENTED_EDGE ( 'NONE', *, *, #542, .T. ) ;
#169 = FACE_OUTER_BOUND ( 'NONE', #665, .T. ) ;
#170 = ORIENTED_EDGE ( 'NONE', *, *, #295, .T. ) ;
#171 = EDGE_CURVE ( 'NONE', #587, #54, #375, .T. ) ;
#172 = VERTEX_POINT ( 'NONE', #569 ) ;
#173 = LINE ( 'NONE', #347, #288 ) ;
#174 = VERTEX_POINT ( 'NONE', #40 ) ;
#175 = ORIENTED_EDGE ( 'NONE', *, *, #88, .T. ) ;
#176 = AXIS2_PLACEMENT_3D ( 'NONE', #302, #232, #189 ) ;
#177 = CARTESIAN_POINT ( 'NONE',  ( 10.00000000000000355, -10.00000000000000000, 17.50000000000000000 ) ) ;
#178 = CIRCLE ( 'NONE', #279, 7.499999999999989342 ) ;
#179 = VERTEX_POINT ( 'NONE', #32 ) ;
#180 = CARTESIAN_POINT ( 'NONE',  ( 20.00000000000000355, -10.00000000000000000, 17.50000000000000000 ) ) ;
#181 = EDGE_LOOP ( 'NONE', ( #339, #700 ) ) ;
#182 = CARTESIAN_POINT ( 'NONE',  ( 20.00000000000000355, -10.00000000000000000, 17.50000000000000000 ) ) ;
#183 = EDGE_CURVE ( 'NONE', #223, #396, #152, .T. ) ;
#184 = ORIENTED_EDGE ( 'NONE', *, *, #78, .T. ) ;
#185 = CARTESIAN_POINT ( 'NONE',  ( 10.00000000000000355, 0.000000000000000000, 7.500000000000001776 ) ) ;
#186 = EDGE_LOOP ( 'NONE', ( #742, #299, #168, #411 ) ) ;
#187 = APPROVAL_ROLE ( '' ) ;
#188 = CARTESIAN_POINT ( 'NONE',  ( -25.85468562349849009, 26.53748999199201108, 0.000000000000000000 ) ) ;
#189 = DIRECTION ( 'NONE',  ( 1.000000000000000000, 0.000000000000000000, 0.000000000000000000 ) ) ;
#190 = ORIENTED_EDGE ( 'NONE', *, *, #27, .F. ) ;
#191 = DATE_AND_TIME ( #9, #390 ) ;
#192 = VECTOR ( 'NONE', #556, 1000.000000000000000 ) ;
#193 = EDGE_CURVE ( 'NONE', #601, #54, #271, .T. ) ;
#194 = FACE_BOUND ( 'NONE', #289, .T. ) ;
#195 = AXIS2_PLACEMENT_3D ( 'NONE', #349, #586, #655 ) ;
#196 = LINE ( 'NONE', #136, #143 ) ;
#197 = DIRECTION ( 'NONE',  ( -0.000000000000000000, 1.000000000000000000, -0.000000000000000000 ) ) ;
#198 = SECURITY_CLASSIFICATION ( '', '', #602 ) ;
#199 = ORIENTED_EDGE ( 'NONE', *, *, #316, .T. ) ;
#200 = APPROVAL_STATUS ( 'not_yet_approved' ) ;
#201 = DIRECTION ( 'NONE',  ( 0.000000000000000000, 0.000000000000000000, -1.000000000000000000 ) ) ;
#202 = DIRECTION ( 'NONE',  ( 0.000000000000000000, -0.000000000000000000, 1.000000000000000000 ) ) ;
#203 = CARTESIAN_POINT ( 'NONE',  ( 10.00000000000000355, 0.000000000000000000, 17.50000000000000000 ) ) ;
#204 = CALENDAR_DATE ( 2026, 12, 6 ) ;
#205 = ADVANCED_FACE ( 'NONE', ( #209 ), #376, .F. ) ;
#206 = LINE ( 'NONE', #142, #619 ) ;
#207 = ADVANCED_FACE ( 'NONE', ( #214 ), #560, .F. ) ;
#208 = AXIS2_PLACEMENT_3D ( 'NONE', #128, #539, #643 ) ;
#209 = FACE_OUTER_BOUND ( 'NONE', #63, .T. ) ;
#210 = DIRECTION ( 'NONE',  ( -0.000000000000000000, -0.000000000000000000, 1.000000000000000000 ) ) ;
#211 = CARTESIAN_POINT ( 'NONE',  ( 0.000000000000000000, -10.00000000000000000, 25.00000000000000000 ) ) ;
#212 = CARTESIAN_POINT ( 'NONE',  ( -25.00000000000000355, 31.22498999199200043, 25.00000000000000000 ) ) ;
#213 = CARTESIAN_POINT ( 'NONE',  ( 3.479852726768797755, 0.000000000000000000, 0.000000000000000000 ) ) ;
#214 = FACE_OUTER_BOUND ( 'NONE', #535, .T. ) ;
#215 = DIRECTION ( 'NONE',  ( 0.6249999999999998890, -0.7806247497997997886, 0.000000000000000000 ) ) ;
#216 = EDGE_CURVE ( 'NONE', #115, #455, #94, .T. ) ;
#217 = VERTEX_POINT ( 'NONE', #220 ) ;
#218 = CARTESIAN_POINT ( 'NONE',  ( -35.85468562349849009, 26.53748999199201108, 0.000000000000000000 ) ) ;
#219 = EDGE_LOOP ( 'NONE', ( #45, #459, #590, #404 ) ) ;
#220 = CARTESIAN_POINT ( 'NONE',  ( 3.479852726768797755, -9.999999999999996447, 0.000000000000000000 ) ) ;
#221 = EDGE_CURVE ( 'NONE', #162, #179, #328, .T. ) ;
#222 = CLOSED_SHELL ( 'NONE', ( #413, #91, #576, #722, #622, #159, #729, #114, #575, #103, #205, #144, #610, #693, #485, #135, #260, #207, #394, #324, #57 ) ) ;
#223 = VERTEX_POINT ( 'NONE', #85 ) ;
#224 = DIRECTION ( 'NONE',  ( 0.000000000000000000, 1.000000000000000000, 0.000000000000000000 ) ) ;
#225 = CIRCLE ( 'NONE', #145, 7.499999999999989342 ) ;
#226 = CARTESIAN_POINT ( 'NONE',  ( -0.8546856234984924194, -4.687499999999992006, 0.000000000000000000 ) ) ;
#227 = EDGE_CURVE ( 'NONE', #54, #34, #15, .T. ) ;
#228 = ORIENTED_EDGE ( 'NONE', *, *, #715, .T. ) ;
#229 = ORIENTED_EDGE ( 'NONE', *, *, #273, .F. ) ;
#230 = LINE ( 'NONE', #467, #440 ) ;
#231 = ORIENTED_EDGE ( 'NONE', *, *, #406, .F. ) ;
#232 = DIRECTION ( 'NONE',  ( 0.000000000000000000, 0.000000000000000000, 1.000000000000000000 ) ) ;
#233 = VERTEX_POINT ( 'NONE', #550 ) ;
#234 =( LENGTH_UNIT ( ) NAMED_UNIT ( * ) SI_UNIT ( .MILLI., .METRE. ) );
#235 = CARTESIAN_POINT ( 'NONE',  ( 10.00000000000000355, -10.00000000000000000, 7.500000000000001776 ) ) ;
#236 = CARTESIAN_POINT ( 'NONE',  ( 30.00000000000000000, -10.00000000000000000, 15.00000000000000000 ) ) ;
#237 = ORIENTED_EDGE ( 'NONE', *, *, #426, .T. ) ;
#238 = DIRECTION ( 'NONE',  ( 1.000000000000000000, 0.000000000000000000, 0.000000000000000000 ) ) ;
#239 = ORIENTED_EDGE ( 'NONE', *, *, #171, .F. ) ;
#240 = VECTOR ( 'NONE', #313, 1000.000000000000000 ) ;
#241 = FACE_BOUND ( 'NONE', #399, .T. ) ;
#242 = CIRCLE ( 'NONE', #761, 7.499999999999989342 ) ;
#243 = ORIENTED_EDGE ( 'NONE', *, *, #18, .F. ) ;
#244 = DIRECTION ( 'NONE',  ( 0.000000000000000000, 0.000000000000000000, 1.000000000000000000 ) ) ;
#245 = ORIENTED_EDGE ( 'NONE', *, *, #27, .T. ) ;
#246 = CARTESIAN_POINT ( 'NONE',  ( 0.000000000000000000, 0.000000000000000000, 0.000000000000000000 ) ) ;
#247 = FACE_OUTER_BOUND ( 'NONE', #342, .T. ) ;
#248 = PRODUCT_RELATED_PRODUCT_CATEGORY ( 'detail', '', ( #93 ) ) ;
#249 = CARTESIAN_POINT ( 'NONE',  ( 20.00000000000000355, -10.00000000000000000, 17.50000000000000000 ) ) ;
#250 = EDGE_CURVE ( 'NONE', #337, #595, #432, .T. ) ;
#251 = LINE ( 'NONE', #751, #615 ) ;
#252 = DATE_AND_TIME ( #4, #131 ) ;
#253 = DIRECTION ( 'NONE',  ( 0.000000000000000000, 0.000000000000000000, 1.000000000000000000 ) ) ;
#254 = CARTESIAN_POINT ( 'NONE',  ( -36.70937124699698018, 21.84998999199201819, 25.00000000000000000 ) ) ;
#255 = FACE_OUTER_BOUND ( 'NONE', #186, .T. ) ;
#256 = ORIENTED_EDGE ( 'NONE', *, *, #671, .T. ) ;
#257 = PERSON_AND_ORGANIZATION_ROLE ( 'classification_officer' ) ;
#258 = CIRCLE ( 'NONE', #735, 5.000000000000001776 ) ;
#259 = DIRECTION ( 'NONE',  ( 1.000000000000000000, 0.000000000000000000, 0.000000000000000000 ) ) ;
#260 = ADVANCED_FACE ( 'NONE', ( #616 ), #565, .F. ) ;
#261 = VECTOR ( 'NONE', #281, 1000.000000000000000 ) ;
#262 = CARTESIAN_POINT ( 'NONE',  ( -11.70937124699698906, -9.374999999999985789, 25.00000000000000000 ) ) ;
#263 = CARTESIAN_POINT ( 'NONE',  ( 10.00000000000000355, -10.00000000000000000, 17.50000000000000000 ) ) ;
#264 = APPLICATION_PROTOCOL_DEFINITION ( 'international standard', 'config_control_design', 1994, #549 ) ;
#265 = EDGE_CURVE ( 'NONE', #179, #455, #378, .T. ) ;
#266 = CARTESIAN_POINT ( 'NONE',  ( 19.99999999999999645, -10.00000000000000000, 10.00000000000000000 ) ) ;
#267 = LINE ( 'NONE', #667, #666 ) ;
#268 = DIRECTION ( 'NONE',  ( 1.000000000000000000, 0.000000000000000000, 0.000000000000000000 ) ) ;
#269 = VECTOR ( 'NONE', #414, 1000.000000000000000 ) ;
#270 = APPROVAL_PERSON_ORGANIZATION ( #304, #429, #187 ) ;
#271 = LINE ( 'NONE', #386, #630 ) ;
#272 = CARTESIAN_POINT ( 'NONE',  ( 0.000000000000000000, 0.000000000000000000, 25.00000000000000000 ) ) ;
#273 = EDGE_CURVE ( 'NONE', #628, #106, #453, .T. ) ;
#274 = DIRECTION ( 'NONE',  ( -0.000000000000000000, 1.000000000000000000, 0.000000000000000000 ) ) ;
#275 = DIRECTION ( 'NONE',  ( -0.000000000000000000, -0.000000000000000000, -1.000000000000000000 ) ) ;
#276 = ORIENTED_EDGE ( 'NONE', *, *, #465, .T. ) ;
#277 = CARTESIAN_POINT ( 'NONE',  ( 0.000000000000000000, 0.000000000000000000, 0.000000000000000000 ) ) ;
#278 = AXIS2_PLACEMENT_3D ( 'NONE', #112, #585, #579 ) ;
#279 = AXIS2_PLACEMENT_3D ( 'NONE', #677, #283, #672 ) ;
#280 = ORIENTED_EDGE ( 'NONE', *, *, #377, .T. ) ;
#281 = DIRECTION ( 'NONE',  ( 0.000000000000000000, 0.000000000000000000, -1.000000000000000000 ) ) ;
#282 = EDGE_CURVE ( 'NONE', #132, #8, #25, .T. ) ;
#283 = DIRECTION ( 'NONE',  ( 0.000000000000000000, 0.000000000000000000, 1.000000000000000000 ) ) ;
#284 = ORIENTED_EDGE ( 'NONE', *, *, #430, .F. ) ;
#285 = CARTESIAN_POINT ( 'NONE',  ( 19.99999999999999289, 0.000000000000000000, 15.00000000000000178 ) ) ;
#286 = EDGE_LOOP ( 'NONE', ( #484, #468, #691, #580, #681, #524 ) ) ;
#287 = ORIENTED_EDGE ( 'NONE', *, *, #465, .F. ) ;
#288 = VECTOR ( 'NONE', #457, 1000.000000000000000 ) ;
#289 = EDGE_LOOP ( 'NONE', ( #308, #61 ) ) ;
#290 = VECTOR ( 'NONE', #434, 1000.000000000000000 ) ;
#291 = FACE_OUTER_BOUND ( 'NONE', #219, .T. ) ;
#292 = ORIENTED_EDGE ( 'NONE', *, *, #81, .F. ) ;
#293 = CARTESIAN_POINT ( 'NONE',  ( 10.00000000000000355, -10.00000000000000000, 17.50000000000000000 ) ) ;
#294 = EDGE_LOOP ( 'NONE', ( #329, #566, #199, #626, #287, #520, #345, #3, #760 ) ) ;
#295 = EDGE_CURVE ( 'NONE', #391, #117, #37, .T. ) ;
#296 = DESIGN_CONTEXT ( 'detailed design', #549, 'design' ) ;
#297 = VERTEX_POINT ( 'NONE', #218 ) ;
#298 = CARTESIAN_POINT ( 'NONE',  ( 10.00000000000000355, -10.00000000000000000, 7.500000000000001776 ) ) ;
#299 = ORIENTED_EDGE ( 'NONE', *, *, #16, .T. ) ;
#300 = CYLINDRICAL_SURFACE ( 'NONE', #35, 5.000000000000001776 ) ;
#301 = ORIENTED_EDGE ( 'NONE', *, *, #318, .T. ) ;
#302 = CARTESIAN_POINT ( 'NONE',  ( -30.85468562349849364, 26.53748999199201108, 0.000000000000000000 ) ) ;
#303 = ORIENTED_EDGE ( 'NONE', *, *, #44, .F. ) ;
#304 = PERSON_AND_ORGANIZATION ( #138, #598 ) ;
#305 = DIRECTION ( 'NONE',  ( -0.000000000000000000, 0.000000000000000000, 1.000000000000000000 ) ) ;
#306 = VECTOR ( 'NONE', #444, 1000.000000000000000 ) ;
#307 = EDGE_CURVE ( 'NONE', #455, #595, #178, .T. ) ;
#308 = ORIENTED_EDGE ( 'NONE', *, *, #439, .F. ) ;
#309 = LINE ( 'NONE', #185, #240 ) ;
#310 = ORIENTED_EDGE ( 'NONE', *, *, #216, .T. ) ;
#311 = COORDINATED_UNIVERSAL_TIME_OFFSET ( 8, 0, .AHEAD. ) ;
#312 = FACE_OUTER_BOUND ( 'NONE', #113, .T. ) ;
#313 = DIRECTION ( 'NONE',  ( -1.000000000000000000, -0.000000000000000000, -0.000000000000000000 ) ) ;
#314 = ORIENTED_EDGE ( 'NONE', *, *, #221, .T. ) ;
#315 = CYLINDRICAL_SURFACE ( 'NONE', #675, 7.499999999999992895 ) ;
#316 = EDGE_CURVE ( 'NONE', #34, #66, #731, .T. ) ;
#317 = DIRECTION ( 'NONE',  ( -1.000000000000000000, 0.000000000000000000, 0.000000000000000000 ) ) ;
#318 = EDGE_CURVE ( 'NONE', #531, #106, #150, .T. ) ;
#319 = CARTESIAN_POINT ( 'NONE',  ( 0.000000000000000000, -9.374999999999987566, 0.000000000000000000 ) ) ;
#320 = FACE_OUTER_BOUND ( 'NONE', #109, .T. ) ;
#321 = CARTESIAN_POINT ( 'NONE',  ( 3.479852726768797755, -10.00000000000000000, 25.00000000000000000 ) ) ;
#322 = DIRECTION ( 'NONE',  ( -1.000000000000000000, 0.000000000000000000, -0.000000000000000000 ) ) ;
#323 = DIRECTION ( 'NONE',  ( -0.000000000000000000, -1.000000000000000000, -0.000000000000000000 ) ) ;
#324 = ADVANCED_FACE ( 'NONE', ( #380 ), #326, .T. ) ;
#325 = AXIS2_PLACEMENT_3D ( 'NONE', #213, #732, #2 ) ;
#326 = CYLINDRICAL_SURFACE ( 'NONE', #127, 10.00000000000000000 ) ;
#327 = ORIENTED_EDGE ( 'NONE', *, *, #437, .F. ) ;
#328 = LINE ( 'NONE', #277, #192 ) ;
#329 = ORIENTED_EDGE ( 'NONE', *, *, #171, .T. ) ;
#330 = EDGE_CURVE ( 'NONE', #106, #393, #382, .T. ) ;
#331 = CARTESIAN_POINT ( 'NONE',  ( 10.00000000000000355, 0.000000000000000000, 17.50000000000000000 ) ) ;
#332 = VECTOR ( 'NONE', #521, 1000.000000000000000 ) ;
#333 = VECTOR ( 'NONE', #201, 1000.000000000000000 ) ;
#334 = ORIENTED_EDGE ( 'NONE', *, *, #629, .F. ) ;
#335 = APPROVAL ( #200, '未指定' ) ;
#336 = DIRECTION ( 'NONE',  ( 0.000000000000000000, 1.000000000000000000, 0.000000000000000000 ) ) ;
#337 = VERTEX_POINT ( 'NONE', #492 ) ;
#338 = CARTESIAN_POINT ( 'NONE',  ( 10.00000000000000355, -10.00000000000000000, 7.500000000000001776 ) ) ;
#339 = ORIENTED_EDGE ( 'NONE', *, *, #510, .T. ) ;
#340 = CC_DESIGN_PERSON_AND_ORGANIZATION_ASSIGNMENT ( #725, #646, ( #93 ) ) ;
#341 = DIRECTION ( 'NONE',  ( 0.000000000000000000, 0.000000000000000000, 1.000000000000000000 ) ) ;
#342 = EDGE_LOOP ( 'NONE', ( #170, #284, #522, #348 ) ) ;
#343 = VECTOR ( 'NONE', #118, 1000.000000000000000 ) ;
#344 = LINE ( 'NONE', #637, #332 ) ;
#345 = ORIENTED_EDGE ( 'NONE', *, *, #156, .T. ) ;
#346 = AXIS2_PLACEMENT_3D ( 'NONE', #369, #479, #259 ) ;
#347 = CARTESIAN_POINT ( 'NONE',  ( 19.99999999999999289, 26.53748999199201108, 25.00000000000000000 ) ) ;
#348 = ORIENTED_EDGE ( 'NONE', *, *, #52, .T. ) ;
#349 = CARTESIAN_POINT ( 'NONE',  ( -5.854685623498494529, -4.687499999999992006, 0.000000000000000000 ) ) ;
#350 = ORIENTED_EDGE ( 'NONE', *, *, #661, .T. ) ;
#351 = FACE_OUTER_BOUND ( 'NONE', #74, .T. ) ;
#352 = APPLICATION_CONTEXT ( 'configuration controlled 3d designs of mechanical parts and assemblies' ) ;
#353 = ORIENTED_EDGE ( 'NONE', *, *, #426, .F. ) ;
#354 = APPROVAL_STATUS ( 'not_yet_approved' ) ;
#355 = EDGE_CURVE ( 'NONE', #337, #132, #225, .T. ) ;
#356 = CARTESIAN_POINT ( 'NONE',  ( 0.000000000000000000, -9.374999999999987566, 25.00000000000000000 ) ) ;
#357 = ORIENTED_EDGE ( 'NONE', *, *, #265, .T. ) ;
#358 = DIRECTION ( 'NONE',  ( 0.000000000000000000, 0.000000000000000000, 1.000000000000000000 ) ) ;
#359 = ORIENTED_EDGE ( 'NONE', *, *, #430, .T. ) ;
#360 = PERSON_AND_ORGANIZATION ( #138, #598 ) ;
#361 = CARTESIAN_POINT ( 'NONE',  ( 3.479852726768797755, 0.000000000000000000, 25.00000000000000000 ) ) ;
#362 = VECTOR ( 'NONE', #36, 1000.000000000000000 ) ;
#363 = CC_DESIGN_SECURITY_CLASSIFICATION ( #198, ( #69 ) ) ;
#364 = ORIENTED_EDGE ( 'NONE', *, *, #518, .T. ) ;
#365 = COORDINATED_UNIVERSAL_TIME_OFFSET ( 8, 0, .AHEAD. ) ;
#366 = PLANE ( 'NONE',  #98 ) ;
#367 = DIRECTION ( 'NONE',  ( 0.7806247497998000107, 0.6249999999999997780, -0.000000000000000000 ) ) ;
#368 = MECHANICAL_CONTEXT ( 'NONE', #352, 'mechanical' ) ;
#369 = CARTESIAN_POINT ( 'NONE',  ( -5.854685623498494529, -4.687499999999992006, 0.000000000000000000 ) ) ;
#370 = LINE ( 'NONE', #254, #503 ) ;
#371 = APPROVAL ( #354, '未指定' ) ;
#372 = VECTOR ( 'NONE', #689, 1000.000000000000000 ) ;
#373 = LINE ( 'NONE', #23, #743 ) ;
#374 = EDGE_CURVE ( 'NONE', #119, #756, #548, .T. ) ;
#375 = CIRCLE ( 'NONE', #533, 7.499999999999993783 ) ;
#376 = CYLINDRICAL_SURFACE ( 'NONE', #727, 5.000000000000000888 ) ;
#377 = EDGE_CURVE ( 'NONE', #684, #407, #605, .T. ) ;
#378 = LINE ( 'NONE', #680, #472 ) ;
#379 = AXIS2_PLACEMENT_3D ( 'NONE', #180, #581, #405 ) ;
#380 = FACE_OUTER_BOUND ( 'NONE', #446, .T. ) ;
#381 = LINE ( 'NONE', #678, #48 ) ;
#382 = LINE ( 'NONE', #563, #362 ) ;
#383 = DIRECTION ( 'NONE',  ( -1.387778780781445676E-16, -0.000000000000000000, -1.000000000000000000 ) ) ;
#384 = CARTESIAN_POINT ( 'NONE',  ( 20.00000000000000355, 0.000000000000000000, 7.500000000000001776 ) ) ;
#385 = ORIENTED_EDGE ( 'NONE', *, *, #443, .F. ) ;
#386 = CARTESIAN_POINT ( 'NONE',  ( 0.000000000000000000, -9.374999999999987566, 25.00000000000000000 ) ) ;
#387 = EDGE_LOOP ( 'NONE', ( #357, #558, #461, #123 ) ) ;
#388 = FACE_OUTER_BOUND ( 'NONE', #97, .T. ) ;
#389 = VECTOR ( 'NONE', #149, 1000.000000000000000 ) ;
#390 = LOCAL_TIME ( 9, 16, 31.00000000000000000, #365 ) ;
#391 = VERTEX_POINT ( 'NONE', #203 ) ;
#392 = LINE ( 'NONE', #456, #372 ) ;
#393 = VERTEX_POINT ( 'NONE', #442 ) ;
#394 = ADVANCED_FACE ( 'NONE', ( #320 ), #17, .T. ) ;
#395 = DIRECTION ( 'NONE',  ( 1.000000000000000000, 0.000000000000000000, 0.000000000000000000 ) ) ;
#396 = VERTEX_POINT ( 'NONE', #491 ) ;
#397 = ORIENTED_EDGE ( 'NONE', *, *, #578, .T. ) ;
#398 = CARTESIAN_POINT ( 'NONE',  ( -5.854685623498494529, -4.687499999999992006, 25.00000000000000000 ) ) ;
#399 = EDGE_LOOP ( 'NONE', ( #762, #754 ) ) ;
#400 = VECTOR ( 'NONE', #702, 1000.000000000000114 ) ;
#401 = LINE ( 'NONE', #73, #664 ) ;
#402 = ORIENTED_EDGE ( 'NONE', *, *, #374, .T. ) ;
#403 = EDGE_CURVE ( 'NONE', #217, #601, #654, .T. ) ;
#404 = ORIENTED_EDGE ( 'NONE', *, *, #282, .F. ) ;
#405 = DIRECTION ( 'NONE',  ( 0.000000000000000000, 0.000000000000000000, -1.000000000000000000 ) ) ;
#406 = EDGE_CURVE ( 'NONE', #692, #601, #515, .T. ) ;
#407 = VERTEX_POINT ( 'NONE', #293 ) ;
#408 = DIRECTION ( 'NONE',  ( -1.000000000000000000, -0.000000000000000000, -0.000000000000000000 ) ) ;
#409 = ORIENTED_EDGE ( 'NONE', *, *, #671, .F. ) ;
#410 = LINE ( 'NONE', #62, #400 ) ;
#411 = ORIENTED_EDGE ( 'NONE', *, *, #146, .F. ) ;
#412 = CALENDAR_DATE ( 2026, 12, 6 ) ;
#413 = ADVANCED_FACE ( 'NONE', ( #255 ), #482, .F. ) ;
#414 = DIRECTION ( 'NONE',  ( -0.000000000000000000, -0.000000000000000000, 1.000000000000000000 ) ) ;
#415 = DIRECTION ( 'NONE',  ( -0.000000000000000000, -0.000000000000000000, 1.000000000000000000 ) ) ;
#416 = CIRCLE ( 'NONE', #346, 5.000000000000001776 ) ;
#417 = LINE ( 'NONE', #730, #571 ) ;
#418 = APPROVAL_DATE_TIME ( #651, #429 ) ;
#419 = DIRECTION ( 'NONE',  ( 1.000000000000000000, 0.000000000000000000, -0.000000000000000000 ) ) ;
#420 = AXIS2_PLACEMENT_3D ( 'NONE', #266, #154, #160 ) ;
#421 = PLANE ( 'NONE',  #82 ) ;
#422 = PERSON_AND_ORGANIZATION ( #138, #598 ) ;
#423 = DIRECTION ( 'NONE',  ( -0.000000000000000000, -0.000000000000000000, -1.000000000000000000 ) ) ;
#424 = PLANE ( 'NONE',  #759 ) ;
#425 = APPROVAL_ROLE ( '' ) ;
#426 = EDGE_CURVE ( 'NONE', #717, #174, #309, .T. ) ;
#427 = AXIS2_PLACEMENT_3D ( 'NONE', #509, #224, #450 ) ;
#428 = CIRCLE ( 'NONE', #487, 5.000000000000000888 ) ;
#429 = APPROVAL ( #532, '未指定' ) ;
#430 = EDGE_CURVE ( 'NONE', #119, #117, #130, .T. ) ;
#431 = DIRECTION ( 'NONE',  ( -0.000000000000000000, -1.000000000000000000, 0.000000000000000000 ) ) ;
#432 = LINE ( 'NONE', #670, #389 ) ;
#433 = DIRECTION ( 'NONE',  ( -0.000000000000000000, -1.000000000000000000, -0.000000000000000000 ) ) ;
#434 = DIRECTION ( 'NONE',  ( 1.000000000000000000, 0.000000000000000000, 0.000000000000000000 ) ) ;
#435 = DIRECTION ( 'NONE',  ( -0.7806247497997998996, -0.6250000000000000000, 0.000000000000000000 ) ) ;
#436 = EDGE_CURVE ( 'NONE', #756, #717, #401, .T. ) ;
#437 = EDGE_CURVE ( 'NONE', #684, #174, #541, .T. ) ;
#438 = ADVANCED_BREP_SHAPE_REPRESENTATION ( 'stamp_slider_\X2\9ed88ba4\X0\_sldprt', ( #555, #620 ), #737 ) ;
#439 = EDGE_CURVE ( 'NONE', #695, #172, #483, .T. ) ;
#440 = VECTOR ( 'NONE', #748, 1000.000000000000000 ) ;
#441 = PRODUCT_DEFINITION_SHAPE ( 'NONE', 'NONE',  #612 ) ;
#442 = CARTESIAN_POINT ( 'NONE',  ( 29.99999999999999645, 0.000000000000000000, 9.999999999999998224 ) ) ;
#443 = EDGE_CURVE ( 'NONE', #34, #217, #344, .T. ) ;
#444 = DIRECTION ( 'NONE',  ( -0.000000000000000000, -0.000000000000000000, -1.000000000000000000 ) ) ;
#445 = DIRECTION ( 'NONE',  ( 0.000000000000000000, 0.000000000000000000, 1.000000000000000000 ) ) ;
#446 = EDGE_LOOP ( 'NONE', ( #688, #511, #409, #478 ) ) ;
#447 = DIRECTION ( 'NONE',  ( 0.000000000000000000, 0.000000000000000000, 1.000000000000000000 ) ) ;
#448 = EDGE_LOOP ( 'NONE', ( #634, #633, #741, #707 ) ) ;
#449 = ORIENTED_EDGE ( 'NONE', *, *, #403, .F. ) ;
#450 = DIRECTION ( 'NONE',  ( 0.000000000000000000, -0.000000000000000000, 1.000000000000000000 ) ) ;
#451 = DIRECTION ( 'NONE',  ( 0.000000000000000000, 0.000000000000000000, 1.000000000000000000 ) ) ;
#452 = ORIENTED_EDGE ( 'NONE', *, *, #307, .F. ) ;
#453 = CIRCLE ( 'NONE', #494, 10.00000000000000000 ) ;
#454 = CC_DESIGN_PERSON_AND_ORGANIZATION_ASSIGNMENT ( #126, #141, ( #69 ) ) ;
#455 = VERTEX_POINT ( 'NONE', #470 ) ;
#456 = CARTESIAN_POINT ( 'NONE',  ( -10.85468562349849542, -4.687499999999991118, 0.000000000000000000 ) ) ;
#457 = DIRECTION ( 'NONE',  ( -0.000000000000000000, 1.000000000000000000, 0.000000000000000000 ) ) ;
#458 = EDGE_LOOP ( 'NONE', ( #570, #687, #190, #353 ) ) ;
#459 = ORIENTED_EDGE ( 'NONE', *, *, #250, .T. ) ;
#460 = CARTESIAN_POINT ( 'NONE',  ( -30.85468562349849364, 26.53748999199201108, 25.00000000000000000 ) ) ;
#461 = ORIENTED_EDGE ( 'NONE', *, *, #493, .F. ) ;
#462 = DIRECTION ( 'NONE',  ( 1.000000000000000000, 0.000000000000000000, 0.000000000000000000 ) ) ;
#463 = ORIENTED_EDGE ( 'NONE', *, *, #406, .T. ) ;
#464 = LINE ( 'NONE', #721, #333 ) ;
#465 = EDGE_CURVE ( 'NONE', #711, #233, #755, .T. ) ;
#466 = EDGE_CURVE ( 'NONE', #8, #692, #410, .T. ) ;
#467 = CARTESIAN_POINT ( 'NONE',  ( 30.00000000000000000, -10.00000000000000000, 15.00000000000000000 ) ) ;
#468 = ORIENTED_EDGE ( 'NONE', *, *, #443, .T. ) ;
#469 = CIRCLE ( 'NONE', #562, 10.00000000000000000 ) ;
#470 = CARTESIAN_POINT ( 'NONE',  ( -25.00000000000000355, 31.22498999199200043, 0.000000000000000000 ) ) ;
#471 = ORIENTED_EDGE ( 'NONE', *, *, #466, .T. ) ;
#472 = VECTOR ( 'NONE', #86, 1000.000000000000114 ) ;
#473 =( NAMED_UNIT ( * ) PLANE_ANGLE_UNIT ( ) SI_UNIT ( $, .RADIAN. ) );
#474 = CYLINDRICAL_SURFACE ( 'NONE', #208, 5.000000000000001776 ) ;
#475 = CC_DESIGN_PERSON_AND_ORGANIZATION_ASSIGNMENT ( #489, #596, ( #69 ) ) ;
#476 = EDGE_LOOP ( 'NONE', ( #245, #697, #705, #641 ) ) ;
#477 = DIRECTION ( 'NONE',  ( -0.6249999999999998890, 0.7806247497997997886, -0.000000000000000000 ) ) ;
#478 = ORIENTED_EDGE ( 'NONE', *, *, #559, .F. ) ;
#479 = DIRECTION ( 'NONE',  ( 0.000000000000000000, 0.000000000000000000, 1.000000000000000000 ) ) ;
#480 = DIRECTION ( 'NONE',  ( -0.000000000000000000, -0.000000000000000000, 1.000000000000000000 ) ) ;
#481 = DIRECTION ( 'NONE',  ( -0.000000000000000000, 1.000000000000000000, -0.000000000000000000 ) ) ;
#482 = CYLINDRICAL_SURFACE ( 'NONE', #714, 5.000000000000000888 ) ;
#483 = CIRCLE ( 'NONE', #609, 5.000000000000000888 ) ;
#484 = ORIENTED_EDGE ( 'NONE', *, *, #316, .F. ) ;
#485 = ADVANCED_FACE ( 'NONE', ( #710 ), #7, .F. ) ;
#486 = DIRECTION ( 'NONE',  ( 1.000000000000000000, 0.000000000000000000, 0.000000000000000000 ) ) ;
#487 = AXIS2_PLACEMENT_3D ( 'NONE', #65, #603, #486 ) ;
#488 = AXIS2_PLACEMENT_3D ( 'NONE', #734, #29, #445 ) ;
#489 = PERSON_AND_ORGANIZATION ( #138, #598 ) ;
#490 = EDGE_CURVE ( 'NONE', #297, #501, #111, .T. ) ;
#491 = CARTESIAN_POINT ( 'NONE',  ( -10.85468562349849542, -4.687499999999991118, 25.00000000000000000 ) ) ;
#492 = CARTESIAN_POINT ( 'NONE',  ( -38.35468562349848298, 26.53748999199201108, 25.00000000000000000 ) ) ;
#493 = EDGE_CURVE ( 'NONE', #711, #115, #696, .T. ) ;
#494 = AXIS2_PLACEMENT_3D ( 'NONE', #627, #323, #553 ) ;
#495 = AXIS2_PLACEMENT_3D ( 'NONE', #26, #275, #617 ) ;
#496 = DIRECTION ( 'NONE',  ( 1.000000000000000000, 0.000000000000000000, 0.000000000000000000 ) ) ;
#497 = CARTESIAN_POINT ( 'NONE',  ( -36.70937124699698018, 21.84998999199201819, 25.00000000000000000 ) ) ;
#498 = PLANE ( 'NONE',  #153 ) ;
#499 = CARTESIAN_POINT ( 'NONE',  ( 10.00000000000000355, -10.00000000000000000, 17.50000000000000000 ) ) ;
#500 = CARTESIAN_POINT ( 'NONE',  ( 30.00000000000000000, 0.000000000000000000, 15.00000000000000000 ) ) ;
#501 = VERTEX_POINT ( 'NONE', #706 ) ;
#502 = CC_DESIGN_PERSON_AND_ORGANIZATION_ASSIGNMENT ( #360, #257, ( #198 ) ) ;
#503 = VECTOR ( 'NONE', #572, 1000.000000000000114 ) ;
#504 = VECTOR ( 'NONE', #408, 1000.000000000000000 ) ;
#505 = DIRECTION ( 'NONE',  ( -0.000000000000000000, -0.000000000000000000, -1.000000000000000000 ) ) ;
#506 = ORIENTED_EDGE ( 'NONE', *, *, #374, .F. ) ;
#507 = DIRECTION ( 'NONE',  ( 0.000000000000000000, 0.000000000000000000, 1.000000000000000000 ) ) ;
#508 = ORIENTED_EDGE ( 'NONE', *, *, #557, .T. ) ;
#509 = CARTESIAN_POINT ( 'NONE',  ( 0.000000000000000000, 0.000000000000000000, 0.000000000000000000 ) ) ;
#510 = EDGE_CURVE ( 'NONE', #650, #645, #258, .T. ) ;
#511 = ORIENTED_EDGE ( 'NONE', *, *, #557, .F. ) ;
#512 = AXIS2_PLACEMENT_3D ( 'NONE', #398, #451, #753 ) ;
#513 = CARTESIAN_POINT ( 'NONE',  ( -11.70937124699698906, -9.374999999999985789, 0.000000000000000000 ) ) ;
#514 = ORIENTED_EDGE ( 'NONE', *, *, #156, .F. ) ;
#515 = CIRCLE ( 'NONE', #195, 7.499999999999993783 ) ;
#516 = LOCAL_TIME ( 9, 16, 31.00000000000000000, #79 ) ;
#517 = ORIENTED_EDGE ( 'NONE', *, *, #567, .F. ) ;
#518 = EDGE_CURVE ( 'NONE', #650, #223, #68, .T. ) ;
#519 = CYLINDRICAL_SURFACE ( 'NONE', #46, 7.499999999999989342 ) ;
#520 = ORIENTED_EDGE ( 'NONE', *, *, #493, .T. ) ;
#521 = DIRECTION ( 'NONE',  ( 0.000000000000000000, 0.000000000000000000, -1.000000000000000000 ) ) ;
#522 = ORIENTED_EDGE ( 'NONE', *, *, #736, .F. ) ;
#523 = CARTESIAN_POINT ( 'NONE',  ( 29.99999999999999645, -10.00000000000000000, 9.999999999999998224 ) ) ;
#524 = ORIENTED_EDGE ( 'NONE', *, *, #31, .T. ) ;
#525 = DIRECTION ( 'NONE',  ( 1.000000000000000000, 0.000000000000000000, 0.000000000000000000 ) ) ;
#526 = ORIENTED_EDGE ( 'NONE', *, *, #403, .T. ) ;
#527 = CC_DESIGN_DATE_AND_TIME_ASSIGNMENT ( #64, #538, ( #612 ) ) ;
#528 = DIRECTION ( 'NONE',  ( -0.000000000000000000, -0.000000000000000000, 1.000000000000000000 ) ) ;
#529 = EDGE_LOOP ( 'NONE', ( #471, #303, #334, #49 ) ) ;
#530 = CARTESIAN_POINT ( 'NONE',  ( -25.00000000000000355, 31.22498999199200043, 25.00000000000000000 ) ) ;
#531 = VERTEX_POINT ( 'NONE', #236 ) ;
#532 = APPROVAL_STATUS ( 'not_yet_approved' ) ;
#533 = AXIS2_PLACEMENT_3D ( 'NONE', #683, #631, #100 ) ;
#534 = PLANE ( 'NONE',  #22 ) ;
#535 = EDGE_LOOP ( 'NONE', ( #237, #327, #292, #593 ) ) ;
#536 = CARTESIAN_POINT ( 'NONE',  ( -0.8546856234984924194, -4.687499999999992006, 0.000000000000000000 ) ) ;
#537 = CARTESIAN_POINT ( 'NONE',  ( -36.70937124699698018, 21.84998999199201819, 0.000000000000000000 ) ) ;
#538 = DATE_TIME_ROLE ( 'creation_date' ) ;
#539 = DIRECTION ( 'NONE',  ( -0.000000000000000000, -0.000000000000000000, 1.000000000000000000 ) ) ;
#540 = FACE_OUTER_BOUND ( 'NONE', #529, .T. ) ;
#541 = LINE ( 'NONE', #298, #343 ) ;
#542 = EDGE_CURVE ( 'NONE', #172, #695, #674, .T. ) ;
#543 = ORIENTED_EDGE ( 'NONE', *, *, #78, .F. ) ;
#544 = DIRECTION ( 'NONE',  ( 1.000000000000000000, 0.000000000000000000, -1.387778780781445676E-16 ) ) ;
#545 = CIRCLE ( 'NONE', #278, 7.499999999999989342 ) ;
#546 = CALENDAR_DATE ( 2026, 12, 6 ) ;
#547 = DIRECTION ( 'NONE',  ( 0.000000000000000000, 1.000000000000000000, 0.000000000000000000 ) ) ;
#548 = LINE ( 'NONE', #137, #261 ) ;
#549 = APPLICATION_CONTEXT ( 'configuration controlled 3d designs of mechanical parts and assemblies' ) ;
#550 = CARTESIAN_POINT ( 'NONE',  ( 19.99999999999999289, 0.000000000000000000, 25.00000000000000000 ) ) ;
#551 = AXIS2_PLACEMENT_3D ( 'NONE', #592, #305, #76 ) ;
#552 = CARTESIAN_POINT ( 'NONE',  ( 19.99999999999999289, -9.999999999999998224, 15.00000000000000178 ) ) ;
#553 = DIRECTION ( 'NONE',  ( 0.000000000000000000, 0.000000000000000000, 1.000000000000000000 ) ) ;
#554 = FACE_OUTER_BOUND ( 'NONE', #636, .T. ) ;
#555 = MANIFOLD_SOLID_BREP ( '圆角2', #222 ) ;
#556 = DIRECTION ( 'NONE',  ( -1.000000000000000000, -0.000000000000000000, -0.000000000000000000 ) ) ;
#557 = EDGE_CURVE ( 'NONE', #703, #531, #230, .T. ) ;
#558 = ORIENTED_EDGE ( 'NONE', *, *, #216, .F. ) ;
#559 = EDGE_CURVE ( 'NONE', #66, #233, #173, .T. ) ;
#560 = PLANE ( 'NONE',  #686 ) ;
#561 = ORIENTED_EDGE ( 'NONE', *, *, #307, .T. ) ;
#562 = AXIS2_PLACEMENT_3D ( 'NONE', #285, #336, #99 ) ;
#563 = CARTESIAN_POINT ( 'NONE',  ( 30.00000000000000000, 0.000000000000000000, 9.999999999999998224 ) ) ;
#564 = AXIS2_PLACEMENT_3D ( 'NONE', #361, #11, #752 ) ;
#565 = PLANE ( 'NONE',  #67 ) ;
#566 = ORIENTED_EDGE ( 'NONE', *, *, #227, .T. ) ;
#567 = EDGE_CURVE ( 'NONE', #595, #8, #545, .T. ) ;
#568 = PLANE ( 'NONE',  #427 ) ;
#569 = CARTESIAN_POINT ( 'NONE',  ( -35.85468562349849009, 26.53748999199201108, 25.00000000000000000 ) ) ;
#570 = ORIENTED_EDGE ( 'NONE', *, *, #88, .F. ) ;
#571 = VECTOR ( 'NONE', #726, 1000.000000000000000 ) ;
#572 = DIRECTION ( 'NONE',  ( 0.6249999999999996669, -0.7806247497997998996, 0.000000000000000000 ) ) ;
#573 = ORIENTED_EDGE ( 'NONE', *, *, #436, .F. ) ;
#574 = ORIENTED_EDGE ( 'NONE', *, *, #193, .F. ) ;
#575 = ADVANCED_FACE ( 'NONE', ( #53, #690, #169 ), #635, .F. ) ;
#576 = ADVANCED_FACE ( 'NONE', ( #291 ), #519, .T. ) ;
#577 = VECTOR ( 'NONE', #477, 1000.000000000000114 ) ;
#578 = EDGE_CURVE ( 'NONE', #628, #217, #196, .T. ) ;
#579 = DIRECTION ( 'NONE',  ( 1.000000000000000000, 0.000000000000000000, 0.000000000000000000 ) ) ;
#580 = ORIENTED_EDGE ( 'NONE', *, *, #273, .T. ) ;
#581 = DIRECTION ( 'NONE',  ( 1.000000000000000000, 0.000000000000000000, 0.000000000000000000 ) ) ;
#582 = VECTOR ( 'NONE', #95, 1000.000000000000000 ) ;
#583 = LOCAL_TIME ( 9, 16, 31.00000000000000000, #71 ) ;
#584 = ORIENTED_EDGE ( 'NONE', *, *, #330, .T. ) ;
#585 = DIRECTION ( 'NONE',  ( 0.000000000000000000, 0.000000000000000000, 1.000000000000000000 ) ) ;
#586 = DIRECTION ( 'NONE',  ( 0.000000000000000000, 0.000000000000000000, 1.000000000000000000 ) ) ;
#587 = VERTEX_POINT ( 'NONE', #262 ) ;
#588 = CARTESIAN_POINT ( 'NONE',  ( -25.00000000000000355, 31.22498999199200043, 25.00000000000000000 ) ) ;
#589 = CARTESIAN_POINT ( 'NONE',  ( -30.85468562349849364, 26.53748999199201108, 0.000000000000000000 ) ) ;
#590 = ORIENTED_EDGE ( 'NONE', *, *, #567, .T. ) ;
#591 = PERSON_AND_ORGANIZATION ( #138, #598 ) ;
#592 = CARTESIAN_POINT ( 'NONE',  ( 10.00000000000000355, -10.00000000000000000, 17.50000000000000000 ) ) ;
#593 = ORIENTED_EDGE ( 'NONE', *, *, #436, .T. ) ;
#594 = DIRECTION ( 'NONE',  ( 1.000000000000000000, 0.000000000000000000, 0.000000000000000000 ) ) ;
#595 = VERTEX_POINT ( 'NONE', #83 ) ;
#596 = PERSON_AND_ORGANIZATION_ROLE ( 'creator' ) ;
#597 = VECTOR ( 'NONE', #383, 1000.000000000000000 ) ;
#598 = ORGANIZATION ( '未指定', '未指定', '' ) ;
#599 = LINE ( 'NONE', #235, #504 ) ;
#600 = DIRECTION ( 'NONE',  ( -0.000000000000000000, -0.000000000000000000, 1.000000000000000000 ) ) ;
#601 = VERTEX_POINT ( 'NONE', #319 ) ;
#602 = SECURITY_CLASSIFICATION_LEVEL ( 'unclassified' ) ;
#603 = DIRECTION ( 'NONE',  ( 0.000000000000000000, 0.000000000000000000, 1.000000000000000000 ) ) ;
#604 = DIRECTION ( 'NONE',  ( -0.6249999999999996669, 0.7806247497997998996, 0.000000000000000000 ) ) ;
#605 = LINE ( 'NONE', #263, #129 ) ;
#606 = SHAPE_DEFINITION_REPRESENTATION ( #441, #438 ) ;
#607 = FACE_OUTER_BOUND ( 'NONE', #41, .T. ) ;
#608 = DIRECTION ( 'NONE',  ( 0.000000000000000000, 0.000000000000000000, 1.000000000000000000 ) ) ;
#609 = AXIS2_PLACEMENT_3D ( 'NONE', #649, #244, #525 ) ;
#610 = ADVANCED_FACE ( 'NONE', ( #77, #723 ), #421, .F. ) ;
#611 = CIRCLE ( 'NONE', #512, 5.000000000000001776 ) ;
#612 = PRODUCT_DEFINITION ( '未知', '', #69, #296 ) ;
#613 = DIRECTION ( 'NONE',  ( 1.040834085586084257E-15, 0.000000000000000000, 1.000000000000000000 ) ) ;
#614 = CARTESIAN_POINT ( 'NONE',  ( 10.00000000000000355, -10.00000000000000000, 7.500000000000001776 ) ) ;
#615 = VECTOR ( 'NONE', #480, 1000.000000000000000 ) ;
#616 = FACE_OUTER_BOUND ( 'NONE', #476, .T. ) ;
#617 = DIRECTION ( 'NONE',  ( -1.000000000000000000, 0.000000000000000000, 0.000000000000000000 ) ) ;
#618 = AXIS2_PLACEMENT_3D ( 'NONE', #108, #341, #47 ) ;
#619 = VECTOR ( 'NONE', #431, 1000.000000000000000 ) ;
#620 = AXIS2_PLACEMENT_3D ( 'NONE', #246, #14, #757 ) ;
#621 = DIRECTION ( 'NONE',  ( 0.000000000000000000, 0.000000000000000000, -1.000000000000000000 ) ) ;
#622 = ADVANCED_FACE ( 'NONE', ( #540 ), #424, .F. ) ;
#623 = CYLINDRICAL_SURFACE ( 'NONE', #495, 7.499999999999989342 ) ;
#624 = CARTESIAN_POINT ( 'NONE',  ( -30.85468562349849364, 26.53748999199201108, 25.00000000000000000 ) ) ;
#625 = DIRECTION ( 'NONE',  ( -0.000000000000000000, -0.000000000000000000, 1.000000000000000000 ) ) ;
#626 = ORIENTED_EDGE ( 'NONE', *, *, #559, .T. ) ;
#627 = CARTESIAN_POINT ( 'NONE',  ( 19.99999999999999645, -10.00000000000000000, 10.00000000000000000 ) ) ;
#628 = VERTEX_POINT ( 'NONE', #663 ) ;
#629 = EDGE_CURVE ( 'NONE', #132, #587, #370, .T. ) ;
#630 = VECTOR ( 'NONE', #728, 1000.000000000000000 ) ;
#631 = DIRECTION ( 'NONE',  ( 0.000000000000000000, 0.000000000000000000, 1.000000000000000000 ) ) ;
#632 = ORIENTED_EDGE ( 'NONE', *, *, #661, .F. ) ;
#633 = ORIENTED_EDGE ( 'NONE', *, *, #652, .T. ) ;
#634 = ORIENTED_EDGE ( 'NONE', *, *, #55, .F. ) ;
#635 = PLANE ( 'NONE',  #618 ) ;
#636 = EDGE_LOOP ( 'NONE', ( #107, #514, #310, #561 ) ) ;
#637 = CARTESIAN_POINT ( 'NONE',  ( 3.479852726768797755, -10.00000000000000000, 0.000000000000000000 ) ) ;
#638 = ORIENTED_EDGE ( 'NONE', *, *, #193, .T. ) ;
#639 = VECTOR ( 'NONE', #197, 1000.000000000000000 ) ;
#640 = DIRECTION ( 'NONE',  ( 0.000000000000000000, 0.000000000000000000, 1.000000000000000000 ) ) ;
#641 = ORIENTED_EDGE ( 'NONE', *, *, #437, .T. ) ;
#642 = ORIENTED_EDGE ( 'NONE', *, *, #736, .T. ) ;
#643 = DIRECTION ( 'NONE',  ( 1.000000000000000000, 0.000000000000000000, 0.000000000000000000 ) ) ;
#644 = EDGE_LOOP ( 'NONE', ( #175, #573, #506, #359 ) ) ;
#645 = VERTEX_POINT ( 'NONE', #42 ) ;
#646 = PERSON_AND_ORGANIZATION_ROLE ( 'design_owner' ) ;
#647 = CARTESIAN_POINT ( 'NONE',  ( -36.70937124699698018, 21.84998999199201819, 25.00000000000000000 ) ) ;
#648 = ORIENTED_EDGE ( 'NONE', *, *, #265, .F. ) ;
#649 = CARTESIAN_POINT ( 'NONE',  ( -30.85468562349849364, 26.53748999199201108, 25.00000000000000000 ) ) ;
#650 = VERTEX_POINT ( 'NONE', #226 ) ;
#651 = DATE_AND_TIME ( #412, #720 ) ;
#652 = EDGE_CURVE ( 'NONE', #645, #396, #392, .T. ) ;
#653 = CARTESIAN_POINT ( 'NONE',  ( -30.85468562349849364, 26.53748999199201108, 25.00000000000000000 ) ) ;
#654 = CIRCLE ( 'NONE', #325, 10.00000000000000000 ) ;
#655 = DIRECTION ( 'NONE',  ( 1.000000000000000000, 0.000000000000000000, 0.000000000000000000 ) ) ;
#656 = ORIENTED_EDGE ( 'NONE', *, *, #510, .F. ) ;
#657 = VECTOR ( 'NONE', #481, 1000.000000000000000 ) ;
#658 = DIRECTION ( 'NONE',  ( 1.000000000000000000, 0.000000000000000000, 0.000000000000000000 ) ) ;
#659 = CARTESIAN_POINT ( 'NONE',  ( 0.000000000000000000, -10.00000000000000000, 0.000000000000000000 ) ) ;
#660 = DATE_AND_TIME ( #546, #583 ) ;
#661 = EDGE_CURVE ( 'NONE', #703, #393, #104, .T. ) ;
#662 = CYLINDRICAL_SURFACE ( 'NONE', #564, 10.00000000000000000 ) ;
#663 = CARTESIAN_POINT ( 'NONE',  ( 19.99999999999998934, -10.00000000000000000, 0.000000000000000000 ) ) ;
#664 = VECTOR ( 'NONE', #50, 1000.000000000000000 ) ;
#665 = EDGE_LOOP ( 'NONE', ( #397, #526, #231, #164, #517, #452, #648, #51, #30 ) ) ;
#666 = VECTOR ( 'NONE', #423, 1000.000000000000000 ) ;
#667 = CARTESIAN_POINT ( 'NONE',  ( -11.70937124699698906, -9.374999999999985789, 25.00000000000000000 ) ) ;
#668 = CC_DESIGN_APPROVAL ( #335, ( #198 ) ) ;
#669 = CARTESIAN_POINT ( 'NONE',  ( -30.85468562349849364, 26.53748999199201108, 0.000000000000000000 ) ) ;
#670 = CARTESIAN_POINT ( 'NONE',  ( -38.35468562349848298, 26.53748999199201108, 25.00000000000000000 ) ) ;
#671 = EDGE_CURVE ( 'NONE', #233, #703, #469, .T. ) ;
#672 = DIRECTION ( 'NONE',  ( 1.000000000000000000, 0.000000000000000000, 0.000000000000000000 ) ) ;
#673 = FACE_OUTER_BOUND ( 'NONE', #387, .T. ) ;
#674 = CIRCLE ( 'NONE', #12, 5.000000000000000888 ) ;
#675 = AXIS2_PLACEMENT_3D ( 'NONE', #105, #745, #60 ) ;
#676 = CC_DESIGN_APPROVAL ( #429, ( #69 ) ) ;
#677 = CARTESIAN_POINT ( 'NONE',  ( -30.85468562349849364, 26.53748999199201108, 0.000000000000000000 ) ) ;
#678 = CARTESIAN_POINT ( 'NONE',  ( 10.00000000000000355, -10.00000000000000000, 17.50000000000000000 ) ) ;
#679 = EDGE_LOOP ( 'NONE', ( #184, #101 ) ) ;
#680 = CARTESIAN_POINT ( 'NONE',  ( -25.00000000000000355, 31.22498999199200043, 0.000000000000000000 ) ) ;
#681 = ORIENTED_EDGE ( 'NONE', *, *, #318, .F. ) ;
#682 = DIRECTION ( 'NONE',  ( -1.387778780781445676E-16, -0.000000000000000000, -1.000000000000000000 ) ) ;
#683 = CARTESIAN_POINT ( 'NONE',  ( -5.854685623498494529, -4.687499999999992006, 25.00000000000000000 ) ) ;
#684 = VERTEX_POINT ( 'NONE', #338 ) ;
#685 = CARTESIAN_POINT ( 'NONE',  ( -25.85468562349849009, 26.53748999199201108, 25.00000000000000000 ) ) ;
#686 = AXIS2_PLACEMENT_3D ( 'NONE', #614, #621, #322 ) ;
#687 = ORIENTED_EDGE ( 'NONE', *, *, #295, .F. ) ;
#688 = ORIENTED_EDGE ( 'NONE', *, *, #31, .F. ) ;
#689 = DIRECTION ( 'NONE',  ( -0.000000000000000000, -0.000000000000000000, 1.000000000000000000 ) ) ;
#690 = FACE_BOUND ( 'NONE', #181, .T. ) ;
#691 = ORIENTED_EDGE ( 'NONE', *, *, #578, .F. ) ;
#692 = VERTEX_POINT ( 'NONE', #513 ) ;
#693 = ADVANCED_FACE ( 'NONE', ( #163, #388 ), #568, .T. ) ;
#694 = CARTESIAN_POINT ( 'NONE',  ( -30.85468562349849364, 26.53748999199201108, 25.00000000000000000 ) ) ;
#695 = VERTEX_POINT ( 'NONE', #685 ) ;
#696 = LINE ( 'NONE', #530, #577 ) ;
#697 = ORIENTED_EDGE ( 'NONE', *, *, #52, .F. ) ;
#698 = FACE_OUTER_BOUND ( 'NONE', #294, .T. ) ;
#699 = VECTOR ( 'NONE', #415, 1000.000000000000000 ) ;
#700 = ORIENTED_EDGE ( 'NONE', *, *, #55, .T. ) ;
#701 = AXIS2_PLACEMENT_3D ( 'NONE', #155, #89, #268 ) ;
#702 = DIRECTION ( 'NONE',  ( 0.6249999999999996669, -0.7806247497997998996, 0.000000000000000000 ) ) ;
#703 = VERTEX_POINT ( 'NONE', #500 ) ;
#704 = CARTESIAN_POINT ( 'NONE',  ( -5.854685623498494529, -4.687499999999992006, 0.000000000000000000 ) ) ;
#705 = ORIENTED_EDGE ( 'NONE', *, *, #377, .F. ) ;
#706 = CARTESIAN_POINT ( 'NONE',  ( -25.85468562349849009, 26.53748999199201108, 0.000000000000000000 ) ) ;
#707 = ORIENTED_EDGE ( 'NONE', *, *, #518, .F. ) ;
#708 = APPROVAL_ROLE ( '' ) ;
#709 = DIRECTION ( 'NONE',  ( -1.387778780781445676E-16, 0.000000000000000000, -1.000000000000000000 ) ) ;
#710 = FACE_OUTER_BOUND ( 'NONE', #644, .T. ) ;
#711 = VERTEX_POINT ( 'NONE', #272 ) ;
#712 = PERSON_AND_ORGANIZATION_ROLE ( 'creator' ) ;
#713 = FACE_OUTER_BOUND ( 'NONE', #448, .T. ) ;
#714 = AXIS2_PLACEMENT_3D ( 'NONE', #589, #600, #462 ) ;
#715 = EDGE_CURVE ( 'NONE', #393, #162, #96, .T. ) ;
#716 = DIRECTION ( 'NONE',  ( -0.000000000000000000, -0.000000000000000000, -1.000000000000000000 ) ) ;
#717 = VERTEX_POINT ( 'NONE', #384 ) ;
#718 = DATE_TIME_ROLE ( 'classification_date' ) ;
#719 = AXIS2_PLACEMENT_3D ( 'NONE', #552, #433, #613 ) ;
#720 = LOCAL_TIME ( 9, 16, 31.00000000000000000, #763 ) ;
#721 = CARTESIAN_POINT ( 'NONE',  ( 20.00000000000000355, 0.000000000000000000, 17.50000000000000000 ) ) ;
#722 = ADVANCED_FACE ( 'NONE', ( #554 ), #623, .T. ) ;
#723 = FACE_OUTER_BOUND ( 'NONE', #286, .T. ) ;
#724 = DIRECTION ( 'NONE',  ( -0.000000000000000000, -0.000000000000000000, 1.000000000000000000 ) ) ;
#725 = PERSON_AND_ORGANIZATION ( #138, #598 ) ;
#726 = DIRECTION ( 'NONE',  ( -0.000000000000000000, -0.000000000000000000, -1.000000000000000000 ) ) ;
#727 = AXIS2_PLACEMENT_3D ( 'NONE', #669, #625, #496 ) ;
#728 = DIRECTION ( 'NONE',  ( 0.000000000000000000, 0.000000000000000000, 1.000000000000000000 ) ) ;
#729 = ADVANCED_FACE ( 'NONE', ( #673 ), #498, .F. ) ;
#730 = CARTESIAN_POINT ( 'NONE',  ( 0.000000000000000000, 0.000000000000000000, 25.00000000000000000 ) ) ;
#731 = LINE ( 'NONE', #211, #290 ) ;
#732 = DIRECTION ( 'NONE',  ( -0.000000000000000000, -0.000000000000000000, -1.000000000000000000 ) ) ;
#733 = CARTESIAN_POINT ( 'NONE',  ( -25.00000000000000355, 31.22498999199200043, 25.00000000000000000 ) ) ;
#734 = CARTESIAN_POINT ( 'NONE',  ( 19.99999999999999645, 0.000000000000000000, 10.00000000000000000 ) ) ;
#735 = AXIS2_PLACEMENT_3D ( 'NONE', #124, #358, #594 ) ;
#736 = EDGE_CURVE ( 'NONE', #407, #119, #381, .T. ) ;
#737 =( GEOMETRIC_REPRESENTATION_CONTEXT ( 3 ) GLOBAL_UNCERTAINTY_ASSIGNED_CONTEXT ( ( #59 ) ) GLOBAL_UNIT_ASSIGNED_CONTEXT ( ( #234, #473, #121 ) ) REPRESENTATION_CONTEXT ( 'NONE', 'WORKASPACE' ) );
#738 = CARTESIAN_POINT ( 'NONE',  ( 29.99999999999999645, -10.00000000000000000, 0.000000000000000000 ) ) ;
#739 = ORIENTED_EDGE ( 'NONE', *, *, #439, .T. ) ;
#740 = DIRECTION ( 'NONE',  ( 1.000000000000000000, 0.000000000000000000, 0.000000000000000000 ) ) ;
#741 = ORIENTED_EDGE ( 'NONE', *, *, #165, .T. ) ;
#742 = ORIENTED_EDGE ( 'NONE', *, *, #490, .F. ) ;
#743 = VECTOR ( 'NONE', #210, 1000.000000000000000 ) ;
#744 = CIRCLE ( 'NONE', #719, 10.00000000000000000 ) ;
#745 = DIRECTION ( 'NONE',  ( -0.000000000000000000, -0.000000000000000000, -1.000000000000000000 ) ) ;
#746 = CC_DESIGN_APPROVAL ( #371, ( #612 ) ) ;
#747 = ORIENTED_EDGE ( 'NONE', *, *, #183, .T. ) ;
#748 = DIRECTION ( 'NONE',  ( -0.000000000000000000, -1.000000000000000000, -0.000000000000000000 ) ) ;
#749 = ORIENTED_EDGE ( 'NONE', *, *, #146, .T. ) ;
#750 = CARTESIAN_POINT ( 'NONE',  ( 0.000000000000000000, 0.000000000000000000, 25.00000000000000000 ) ) ;
#751 = CARTESIAN_POINT ( 'NONE',  ( -35.85468562349849009, 26.53748999199201108, 0.000000000000000000 ) ) ;
#752 = DIRECTION ( 'NONE',  ( -1.000000000000000000, 0.000000000000000000, 0.000000000000000000 ) ) ;
#753 = DIRECTION ( 'NONE',  ( 1.000000000000000000, 0.000000000000000000, 0.000000000000000000 ) ) ;
#754 = ORIENTED_EDGE ( 'NONE', *, *, #165, .F. ) ;
#755 = LINE ( 'NONE', #750, #151 ) ;
#756 = VERTEX_POINT ( 'NONE', #157 ) ;
#757 = DIRECTION ( 'NONE',  ( 1.000000000000000000, 0.000000000000000000, 0.000000000000000000 ) ) ;
#758 = CARTESIAN_POINT ( 'NONE',  ( -30.85468562349849364, 26.53748999199201108, 25.00000000000000000 ) ) ;
#759 = AXIS2_PLACEMENT_3D ( 'NONE', #6, #367, #604 ) ;
#760 = ORIENTED_EDGE ( 'NONE', *, *, #629, .T. ) ;
#761 = AXIS2_PLACEMENT_3D ( 'NONE', #653, #253, #658 ) ;
#762 = ORIENTED_EDGE ( 'NONE', *, *, #183, .F. ) ;
#763 = COORDINATED_UNIVERSAL_TIME_OFFSET ( 8, 0, .AHEAD. ) ;
#764 = CARTESIAN_POINT ( 'NONE',  ( 29.99999999999999645, -10.00000000000000000, 0.000000000000000000 ) ) ;
ENDSEC;
END-ISO-10303-21;
