ISO-10303-21;
HEADER;
FILE_DESCRIPTION (( 'STEP AP203' ),
    '1' );
FILE_NAME ('table_默认_sldprt.STEP',
    '2026-06-12T01:16:33',
    ( '' ),
    ( '' ),
    'SwSTEP 2.0',
    'SolidWorks 2022',
    '' );
FILE_SCHEMA (( 'CONFIG_CONTROL_DESIGN' ));
ENDSEC;

DATA;
#1 = DIRECTION ( 'NONE',  ( 1.665334536937742502E-15, -0.000000000000000000, -1.000000000000000000 ) ) ;
#2 = CC_DESIGN_DATE_AND_TIME_ASSIGNMENT ( #462, #66, ( #92 ) ) ;
#3 = PLANE ( 'NONE',  #494 ) ;
#4 = ORIENTED_EDGE ( 'NONE', *, *, #312, .F. ) ;
#5 = VECTOR ( 'NONE', #273, 1000.000000000000000 ) ;
#6 = EDGE_CURVE ( 'NONE', #36, #555, #145, .T. ) ;
#7 = PLANE ( 'NONE',  #531 ) ;
#8 = SECURITY_CLASSIFICATION ( '', '', #508 ) ;
#9 = CALENDAR_DATE ( 2026, 12, 6 ) ;
#10 = PLANE ( 'NONE',  #495 ) ;
#11 = ORIENTED_EDGE ( 'NONE', *, *, #449, .F. ) ;
#12 = CARTESIAN_POINT ( 'NONE',  ( -299.9999999999998295, -800.0000000000000000, 250.0000000000000568 ) ) ;
#13 = VERTEX_POINT ( 'NONE', #82 ) ;
#14 = DIRECTION ( 'NONE',  ( 0.000000000000000000, 0.000000000000000000, 1.000000000000000000 ) ) ;
#15 = ADVANCED_FACE ( 'NONE', ( #620 ), #419, .T. ) ;
#16 = AXIS2_PLACEMENT_3D ( 'NONE', #38, #184, #235 ) ;
#17 = CARTESIAN_POINT ( 'NONE',  ( 0.000000000000000000, -800.0000000000000000, 0.000000000000000000 ) ) ;
#18 = VERTEX_POINT ( 'NONE', #26 ) ;
#19 = CARTESIAN_POINT ( 'NONE',  ( 300.0000000000001705, 30.00000000000000000, 299.9999999999999432 ) ) ;
#20 = PLANE ( 'NONE',  #202 ) ;
#21 = ORIENTED_EDGE ( 'NONE', *, *, #309, .F. ) ;
#22 = DIRECTION ( 'NONE',  ( 0.000000000000000000, 0.000000000000000000, 1.000000000000000000 ) ) ;
#23 = EDGE_CURVE ( 'NONE', #36, #415, #610, .T. ) ;
#24 = DIRECTION ( 'NONE',  ( -0.000000000000000000, 1.000000000000000000, -0.000000000000000000 ) ) ;
#25 = EDGE_LOOP ( 'NONE', ( #306, #516, #440, #581 ) ) ;
#26 = CARTESIAN_POINT ( 'NONE',  ( -249.9999999999998863, 0.000000000000000000, -249.9999999999999432 ) ) ;
#27 = EDGE_CURVE ( 'NONE', #340, #533, #132, .T. ) ;
#28 = CARTESIAN_POINT ( 'NONE',  ( -299.9999999999998863, 0.000000000000000000, -249.9999999999999432 ) ) ;
#29 = LINE ( 'NONE', #617, #44 ) ;
#30 = ADVANCED_FACE ( 'NONE', ( #327 ), #420, .F. ) ;
#31 = CARTESIAN_POINT ( 'NONE',  ( 0.000000000000000000, -800.0000000000000000, 0.000000000000000000 ) ) ;
#32 = DIRECTION ( 'NONE',  ( 1.000000000000000000, 0.000000000000000000, 0.000000000000000000 ) ) ;
#33 = VECTOR ( 'NONE', #488, 1000.000000000000000 ) ;
#34 = VECTOR ( 'NONE', #79, 1000.000000000000000 ) ;
#35 = DIRECTION ( 'NONE',  ( 0.000000000000000000, 0.000000000000000000, -1.000000000000000000 ) ) ;
#36 = VERTEX_POINT ( 'NONE', #121 ) ;
#37 = CARTESIAN_POINT ( 'NONE',  ( -249.9999999999998295, 0.000000000000000000, 250.0000000000000568 ) ) ;
#38 = CARTESIAN_POINT ( 'NONE',  ( 249.9999999999999716, -800.0000000000000000, -299.9999999999997158 ) ) ;
#39 = ORIENTED_EDGE ( 'NONE', *, *, #572, .F. ) ;
#40 = CARTESIAN_POINT ( 'NONE',  ( 249.9999999999998863, -800.0000000000000000, 299.9999999999998295 ) ) ;
#41 = PLANE ( 'NONE',  #367 ) ;
#42 = VERTEX_POINT ( 'NONE', #527 ) ;
#43 = LINE ( 'NONE', #243, #292 ) ;
#44 = VECTOR ( 'NONE', #186, 1000.000000000000000 ) ;
#45 = ORIENTED_EDGE ( 'NONE', *, *, #575, .F. ) ;
#46 = VECTOR ( 'NONE', #346, 1000.000000000000000 ) ;
#47 = VERTEX_POINT ( 'NONE', #424 ) ;
#48 = LINE ( 'NONE', #192, #183 ) ;
#49 = EDGE_CURVE ( 'NONE', #151, #18, #267, .T. ) ;
#50 = CARTESIAN_POINT ( 'NONE',  ( 249.9999999999999716, -800.0000000000000000, -299.9999999999997158 ) ) ;
#51 = ADVANCED_FACE ( 'NONE', ( #272 ), #473, .F. ) ;
#52 = LINE ( 'NONE', #463, #161 ) ;
#53 = EDGE_CURVE ( 'NONE', #415, #493, #127, .T. ) ;
#54 = VERTEX_POINT ( 'NONE', #428 ) ;
#55 = APPROVAL_DATE_TIME ( #259, #140 ) ;
#56 = AXIS2_PLACEMENT_3D ( 'NONE', #130, #529, #174 ) ;
#57 = LINE ( 'NONE', #308, #609 ) ;
#58 = ORIENTED_EDGE ( 'NONE', *, *, #53, .F. ) ;
#59 = CC_DESIGN_PERSON_AND_ORGANIZATION_ASSIGNMENT ( #469, #303, ( #8 ) ) ;
#60 = COORDINATED_UNIVERSAL_TIME_OFFSET ( 8, 0, .AHEAD. ) ;
#61 = LINE ( 'NONE', #69, #87 ) ;
#62 = VERTEX_POINT ( 'NONE', #523 ) ;
#63 = DATE_AND_TIME ( #9, #294 ) ;
#64 = DIRECTION ( 'NONE',  ( 1.000000000000000000, 0.000000000000000000, 0.000000000000000000 ) ) ;
#65 = VERTEX_POINT ( 'NONE', #324 ) ;
#66 = DATE_TIME_ROLE ( 'creation_date' ) ;
#67 = VECTOR ( 'NONE', #239, 1000.000000000000000 ) ;
#68 = CC_DESIGN_APPROVAL ( #140, ( #92 ) ) ;
#69 = CARTESIAN_POINT ( 'NONE',  ( -249.9999999999998863, -800.0000000000000000, 299.9999999999998295 ) ) ;
#70 = ORIENTED_EDGE ( 'NONE', *, *, #335, .F. ) ;
#71 = APPROVAL_STATUS ( 'not_yet_approved' ) ;
#72 = FACE_OUTER_BOUND ( 'NONE', #141, .T. ) ;
#73 = ORIENTED_EDGE ( 'NONE', *, *, #225, .T. ) ;
#74 = CARTESIAN_POINT ( 'NONE',  ( -299.9999999999998295, -800.0000000000000000, 250.0000000000000568 ) ) ;
#75 = DIRECTION ( 'NONE',  ( 0.000000000000000000, -0.000000000000000000, -1.000000000000000000 ) ) ;
#76 = LINE ( 'NONE', #554, #483 ) ;
#77 = VECTOR ( 'NONE', #177, 1000.000000000000000 ) ;
#78 = DIRECTION ( 'NONE',  ( -0.000000000000000000, 1.000000000000000000, -0.000000000000000000 ) ) ;
#79 = DIRECTION ( 'NONE',  ( 1.665334536937742502E-15, -0.000000000000000000, -1.000000000000000000 ) ) ;
#80 = APPLICATION_CONTEXT ( 'configuration controlled 3d designs of mechanical parts and assemblies' ) ;
#81 = EDGE_CURVE ( 'NONE', #474, #577, #29, .T. ) ;
#82 = CARTESIAN_POINT ( 'NONE',  ( 300.0000000000001705, 30.00000000000000000, -300.0000000000000568 ) ) ;
#83 = CARTESIAN_POINT ( 'NONE',  ( 300.0000000000001705, 0.000000000000000000, 299.9999999999999432 ) ) ;
#84 = LINE ( 'NONE', #482, #411 ) ;
#85 = CARTESIAN_POINT ( 'NONE',  ( -249.9999999999999716, 0.000000000000000000, -299.9999999999997158 ) ) ;
#86 = LINE ( 'NONE', #626, #46 ) ;
#87 = VECTOR ( 'NONE', #112, 1000.000000000000000 ) ;
#88 = VECTOR ( 'NONE', #532, 1000.000000000000000 ) ;
#89 = LINE ( 'NONE', #187, #88 ) ;
#90 = ORIENTED_EDGE ( 'NONE', *, *, #449, .T. ) ;
#91 = LINE ( 'NONE', #285, #33 ) ;
#92 = PRODUCT_DEFINITION ( '未知', '', #149, #278 ) ;
#93 = CARTESIAN_POINT ( 'NONE',  ( -299.9999999999998863, 0.000000000000000000, -249.9999999999999432 ) ) ;
#94 = ORIENTED_EDGE ( 'NONE', *, *, #511, .T. ) ;
#95 = CARTESIAN_POINT ( 'NONE',  ( 300.0000000000001705, 30.00000000000000000, -300.0000000000000568 ) ) ;
#96 = ORIENTED_EDGE ( 'NONE', *, *, #615, .F. ) ;
#97 = ORIENTED_EDGE ( 'NONE', *, *, #283, .F. ) ;
#98 = DIRECTION ( 'NONE',  ( 1.000000000000000000, -0.000000000000000000, -0.000000000000000000 ) ) ;
#99 = ORIENTED_EDGE ( 'NONE', *, *, #147, .F. ) ;
#100 = ORIENTED_EDGE ( 'NONE', *, *, #23, .T. ) ;
#101 = CARTESIAN_POINT ( 'NONE',  ( -299.9999999999998295, -800.0000000000000000, 300.0000000000000568 ) ) ;
#102 = ADVANCED_FACE ( 'NONE', ( #375 ), #570, .F. ) ;
#103 = PLANE ( 'NONE',  #450 ) ;
#104 = APPROVAL_ROLE ( '' ) ;
#105 = DIRECTION ( 'NONE',  ( 1.000000000000000000, -0.000000000000000000, 0.000000000000000000 ) ) ;
#106 = ORIENTED_EDGE ( 'NONE', *, *, #456, .T. ) ;
#107 = APPROVAL_STATUS ( 'not_yet_approved' ) ;
#108 = VECTOR ( 'NONE', #448, 1000.000000000000000 ) ;
#109 = DIRECTION ( 'NONE',  ( -1.000000000000000000, 0.000000000000000000, 1.850371707708594563E-16 ) ) ;
#110 = EDGE_CURVE ( 'NONE', #489, #193, #84, .T. ) ;
#111 = ORIENTED_EDGE ( 'NONE', *, *, #144, .F. ) ;
#112 = DIRECTION ( 'NONE',  ( -1.110223024625161668E-15, -0.000000000000000000, 1.000000000000000000 ) ) ;
#113 = EDGE_LOOP ( 'NONE', ( #342, #255, #348, #73 ) ) ;
#114 = CARTESIAN_POINT ( 'NONE',  ( -299.9999999999998295, 30.00000000000000000, 300.0000000000000568 ) ) ;
#115 = ORIENTED_EDGE ( 'NONE', *, *, #147, .T. ) ;
#116 = AXIS2_PLACEMENT_3D ( 'NONE', #513, #551, #506 ) ;
#117 = APPROVAL_PERSON_ORGANIZATION ( #157, #453, #505 ) ;
#118 = ORIENTED_EDGE ( 'NONE', *, *, #540, .F. ) ;
#119 = DIRECTION ( 'NONE',  ( 1.000000000000000000, 0.000000000000000000, 4.440892098500630106E-15 ) ) ;
#120 = ORIENTED_EDGE ( 'NONE', *, *, #572, .T. ) ;
#121 = CARTESIAN_POINT ( 'NONE',  ( -299.9999999999998863, -800.0000000000000000, -249.9999999999999432 ) ) ;
#122 = PRODUCT_RELATED_PRODUCT_CATEGORY ( 'detail', '', ( #378 ) ) ;
#123 = VECTOR ( 'NONE', #24, 1000.000000000000000 ) ;
#124 = CARTESIAN_POINT ( 'NONE',  ( 300.0000000000001705, 0.000000000000000000, -300.0000000000000568 ) ) ;
#125 = VECTOR ( 'NONE', #477, 1000.000000000000000 ) ;
#126 = EDGE_CURVE ( 'NONE', #295, #489, #377, .T. ) ;
#127 = LINE ( 'NONE', #275, #618 ) ;
#128 = CARTESIAN_POINT ( 'NONE',  ( -299.9999999999998863, -800.0000000000000000, -249.9999999999999432 ) ) ;
#129 = LINE ( 'NONE', #286, #396 ) ;
#130 = CARTESIAN_POINT ( 'NONE',  ( 299.9999999999998295, -800.0000000000000000, 250.0000000000000568 ) ) ;
#131 = DIRECTION ( 'NONE',  ( -1.110223024625161668E-15, 0.000000000000000000, -1.000000000000000000 ) ) ;
#132 = LINE ( 'NONE', #614, #77 ) ;
#133 = LINE ( 'NONE', #624, #213 ) ;
#134 = PLANE ( 'NONE',  #171 ) ;
#135 = VECTOR ( 'NONE', #445, 1000.000000000000000 ) ;
#136 = LINE ( 'NONE', #371, #464 ) ;
#137 = EDGE_LOOP ( 'NONE', ( #392, #99, #118, #538 ) ) ;
#138 = LINE ( 'NONE', #337, #67 ) ;
#139 = VERTEX_POINT ( 'NONE', #369 ) ;
#140 = APPROVAL ( #352, '未指定' ) ;
#141 = EDGE_LOOP ( 'NONE', ( #590, #438, #236, #447, #386, #215, #233, #97 ) ) ;
#142 = FACE_OUTER_BOUND ( 'NONE', #113, .T. ) ;
#143 = ORIENTED_EDGE ( 'NONE', *, *, #144, .T. ) ;
#144 = EDGE_CURVE ( 'NONE', #520, #302, #321, .T. ) ;
#145 = LINE ( 'NONE', #128, #345 ) ;
#146 = DIRECTION ( 'NONE',  ( -0.000000000000000000, 1.000000000000000000, -0.000000000000000000 ) ) ;
#147 = EDGE_CURVE ( 'NONE', #54, #361, #534, .T. ) ;
#148 = VECTOR ( 'NONE', #296, 1000.000000000000000 ) ;
#149 = PRODUCT_DEFINITION_FORMATION_WITH_SPECIFIED_SOURCE ( '任何', '', #378, .NOT_KNOWN. ) ;
#150 = ADVANCED_FACE ( 'NONE', ( #142 ), #3, .F. ) ;
#151 = VERTEX_POINT ( 'NONE', #201 ) ;
#152 = EDGE_CURVE ( 'NONE', #250, #47, #389, .T. ) ;
#153 = DIRECTION ( 'NONE',  ( -1.110223024625161668E-15, 0.000000000000000000, -1.000000000000000000 ) ) ;
#154 = VERTEX_POINT ( 'NONE', #486 ) ;
#155 = PERSON_AND_ORGANIZATION_ROLE ( 'design_owner' ) ;
#156 = DIRECTION ( 'NONE',  ( 0.000000000000000000, -1.000000000000000000, 0.000000000000000000 ) ) ;
#157 = PERSON_AND_ORGANIZATION ( #460, #542 ) ;
#158 = FACE_OUTER_BOUND ( 'NONE', #331, .T. ) ;
#159 = ORIENTED_EDGE ( 'NONE', *, *, #220, .F. ) ;
#160 = SHAPE_DEFINITION_REPRESENTATION ( #476, #338 ) ;
#161 = VECTOR ( 'NONE', #467, 1000.000000000000000 ) ;
#162 = CARTESIAN_POINT ( 'NONE',  ( -299.9999999999998295, -800.0000000000000000, 250.0000000000000568 ) ) ;
#163 = ORIENTED_EDGE ( 'NONE', *, *, #540, .T. ) ;
#164 = FACE_OUTER_BOUND ( 'NONE', #631, .T. ) ;
#165 = DIRECTION ( 'NONE',  ( -1.000000000000000000, 0.000000000000000000, 2.220446049250301248E-15 ) ) ;
#166 = EDGE_LOOP ( 'NONE', ( #592, #207, #195, #594, #625, #365, #222, #21 ) ) ;
#167 = APPROVAL_DATE_TIME ( #605, #245 ) ;
#168 = CARTESIAN_POINT ( 'NONE',  ( -299.9999999999999432, -800.0000000000000000, -299.9999999999999432 ) ) ;
#169 = EDGE_CURVE ( 'NONE', #42, #295, #395, .T. ) ;
#170 = ORIENTED_EDGE ( 'NONE', *, *, #276, .T. ) ;
#171 = AXIS2_PLACEMENT_3D ( 'NONE', #498, #244, #333 ) ;
#172 = VECTOR ( 'NONE', #490, 1000.000000000000000 ) ;
#173 = DIRECTION ( 'NONE',  ( -0.000000000000000000, 1.000000000000000000, -0.000000000000000000 ) ) ;
#174 = DIRECTION ( 'NONE',  ( 1.000000000000000000, 0.000000000000000000, -0.000000000000000000 ) ) ;
#175 = ORIENTED_EDGE ( 'NONE', *, *, #443, .T. ) ;
#176 = CC_DESIGN_PERSON_AND_ORGANIZATION_ASSIGNMENT ( #454, #266, ( #149 ) ) ;
#177 = DIRECTION ( 'NONE',  ( 1.000000000000000000, -0.000000000000000000, -0.000000000000000000 ) ) ;
#178 = ORIENTED_EDGE ( 'NONE', *, *, #264, .F. ) ;
#179 = EDGE_CURVE ( 'NONE', #600, #18, #48, .T. ) ;
#180 = CARTESIAN_POINT ( 'NONE',  ( 300.0000000000000568, -800.0000000000000000, -299.9999999999998295 ) ) ;
#181 = CARTESIAN_POINT ( 'NONE',  ( -249.9999999999998863, -800.0000000000000000, 299.9999999999998295 ) ) ;
#182 = EDGE_CURVE ( 'NONE', #190, #42, #632, .T. ) ;
#183 = VECTOR ( 'NONE', #341, 1000.000000000000000 ) ;
#184 = DIRECTION ( 'NONE',  ( 1.000000000000000000, 0.000000000000000000, 1.665334536937742699E-15 ) ) ;
#185 = AXIS2_PLACEMENT_3D ( 'NONE', #336, #576, #487 ) ;
#186 = DIRECTION ( 'NONE',  ( -3.330669073875478299E-15, 0.000000000000000000, 1.000000000000000000 ) ) ;
#187 = CARTESIAN_POINT ( 'NONE',  ( 300.0000000000000568, -800.0000000000000000, -299.9999999999998295 ) ) ;
#188 = DIRECTION ( 'NONE',  ( -1.110223024625156738E-15, -0.000000000000000000, -1.000000000000000000 ) ) ;
#189 = CARTESIAN_POINT ( 'NONE',  ( 249.9999999999998863, -800.0000000000000000, -249.9999999999999432 ) ) ;
#190 = VERTEX_POINT ( 'NONE', #492 ) ;
#191 = LINE ( 'NONE', #434, #108 ) ;
#192 = CARTESIAN_POINT ( 'NONE',  ( -249.9999999999999716, 0.000000000000000000, -299.9999999999997158 ) ) ;
#193 = VERTEX_POINT ( 'NONE', #37 ) ;
#194 = LINE ( 'NONE', #584, #366 ) ;
#195 = ORIENTED_EDGE ( 'NONE', *, *, #6, .T. ) ;
#196 = EDGE_CURVE ( 'NONE', #402, #415, #582, .T. ) ;
#197 = ORIENTED_EDGE ( 'NONE', *, *, #623, .F. ) ;
#198 = CARTESIAN_POINT ( 'NONE',  ( 299.9999999999998295, -800.0000000000000000, 250.0000000000000568 ) ) ;
#199 = EDGE_LOOP ( 'NONE', ( #496, #349, #315, #90 ) ) ;
#200 = ORIENTED_EDGE ( 'NONE', *, *, #228, .T. ) ;
#201 = CARTESIAN_POINT ( 'NONE',  ( -249.9999999999998863, -800.0000000000000000, -249.9999999999999432 ) ) ;
#202 = AXIS2_PLACEMENT_3D ( 'NONE', #368, #370, #319 ) ;
#203 = FACE_OUTER_BOUND ( 'NONE', #552, .T. ) ;
#204 = EDGE_LOOP ( 'NONE', ( #297, #4, #393, #381 ) ) ;
#205 = CARTESIAN_POINT ( 'NONE',  ( 0.000000000000000000, 0.000000000000000000, 0.000000000000000000 ) ) ;
#206 = DIRECTION ( 'NONE',  ( -0.000000000000000000, 1.000000000000000000, -0.000000000000000000 ) ) ;
#207 = ORIENTED_EDGE ( 'NONE', *, *, #23, .F. ) ;
#208 = COORDINATED_UNIVERSAL_TIME_OFFSET ( 8, 0, .AHEAD. ) ;
#209 = LINE ( 'NONE', #556, #630 ) ;
#210 = ORIENTED_EDGE ( 'NONE', *, *, #283, .T. ) ;
#211 = AXIS2_PLACEMENT_3D ( 'NONE', #522, #322, #75 ) ;
#212 = COORDINATED_UNIVERSAL_TIME_OFFSET ( 8, 0, .AHEAD. ) ;
#213 = VECTOR ( 'NONE', #330, 1000.000000000000000 ) ;
#214 = PLANE ( 'NONE',  #249 ) ;
#215 = ORIENTED_EDGE ( 'NONE', *, *, #81, .F. ) ;
#216 = DIRECTION ( 'NONE',  ( 1.000000000000000000, 0.000000000000000000, 0.000000000000000000 ) ) ;
#217 = DIRECTION ( 'NONE',  ( -0.000000000000000000, -0.000000000000000000, 1.000000000000000000 ) ) ;
#218 = EDGE_CURVE ( 'NONE', #302, #340, #237, .T. ) ;
#219 = EDGE_LOOP ( 'NONE', ( #358, #586, #197, #442 ) ) ;
#220 = EDGE_CURVE ( 'NONE', #558, #361, #43, .T. ) ;
#221 = LINE ( 'NONE', #608, #560 ) ;
#222 = ORIENTED_EDGE ( 'NONE', *, *, #182, .F. ) ;
#223 = CARTESIAN_POINT ( 'NONE',  ( 300.0000000000001705, 30.00000000000000000, -300.0000000000000568 ) ) ;
#224 = EDGE_CURVE ( 'NONE', #154, #558, #138, .T. ) ;
#225 = EDGE_CURVE ( 'NONE', #344, #302, #544, .T. ) ;
#226 = PLANE ( 'NONE',  #251 ) ;
#227 = CARTESIAN_POINT ( 'NONE',  ( 249.9999999999999716, -800.0000000000000000, -299.9999999999997158 ) ) ;
#228 = EDGE_CURVE ( 'NONE', #190, #628, #350, .T. ) ;
#229 = UNCERTAINTY_MEASURE_WITH_UNIT (LENGTH_MEASURE( 1.000000000000000082E-05 ), #238, 'distance_accuracy_value', 'NONE');
#230 = PLANE ( 'NONE',  #16 ) ;
#231 = VECTOR ( 'NONE', #425, 1000.000000000000000 ) ;
#232 = CARTESIAN_POINT ( 'NONE',  ( -249.9999999999999716, -800.0000000000000000, -299.9999999999997158 ) ) ;
#233 = ORIENTED_EDGE ( 'NONE', *, *, #456, .F. ) ;
#234 = CARTESIAN_POINT ( 'NONE',  ( -299.9999999999998295, 30.00000000000000000, -299.9999999999999432 ) ) ;
#235 = DIRECTION ( 'NONE',  ( 1.665334536937742699E-15, 0.000000000000000000, -1.000000000000000000 ) ) ;
#236 = ORIENTED_EDGE ( 'NONE', *, *, #312, .T. ) ;
#237 = LINE ( 'NONE', #391, #541 ) ;
#238 =( LENGTH_UNIT ( ) NAMED_UNIT ( * ) SI_UNIT ( .MILLI., .METRE. ) );
#239 = DIRECTION ( 'NONE',  ( -1.000000000000000000, 0.000000000000000000, 0.000000000000000000 ) ) ;
#240 = AXIS2_PLACEMENT_3D ( 'NONE', #17, #156, #353 ) ;
#241 = ORIENTED_EDGE ( 'NONE', *, *, #443, .F. ) ;
#242 = EDGE_CURVE ( 'NONE', #47, #62, #191, .T. ) ;
#243 = CARTESIAN_POINT ( 'NONE',  ( 249.9999999999999716, 0.000000000000000000, -299.9999999999997158 ) ) ;
#244 = DIRECTION ( 'NONE',  ( 0.000000000000000000, -1.000000000000000000, 0.000000000000000000 ) ) ;
#245 = APPROVAL ( #71, '未指定' ) ;
#246 = EDGE_CURVE ( 'NONE', #577, #65, #86, .T. ) ;
#247 = DIRECTION ( 'NONE',  ( 0.000000000000000000, 0.000000000000000000, -1.000000000000000000 ) ) ;
#248 = ADVANCED_FACE ( 'NONE', ( #439 ), #134, .T. ) ;
#249 = AXIS2_PLACEMENT_3D ( 'NONE', #114, #105, #503 ) ;
#250 = VERTEX_POINT ( 'NONE', #537 ) ;
#251 = AXIS2_PLACEMENT_3D ( 'NONE', #613, #472, #22 ) ;
#252 = CALENDAR_DATE ( 2026, 12, 6 ) ;
#253 = CC_DESIGN_SECURITY_CLASSIFICATION ( #8, ( #149 ) ) ;
#254 = CARTESIAN_POINT ( 'NONE',  ( -299.9999999999998295, 30.00000000000000000, -299.9999999999999432 ) ) ;
#255 = ORIENTED_EDGE ( 'NONE', *, *, #400, .F. ) ;
#256 = CALENDAR_DATE ( 2026, 12, 6 ) ;
#257 = LINE ( 'NONE', #423, #515 ) ;
#258 = ORIENTED_EDGE ( 'NONE', *, *, #603, .F. ) ;
#259 = DATE_AND_TIME ( #601, #262 ) ;
#260 = LINE ( 'NONE', #405, #357 ) ;
#261 = ORIENTED_EDGE ( 'NONE', *, *, #264, .T. ) ;
#262 = LOCAL_TIME ( 9, 16, 33.00000000000000000, #317 ) ;
#263 = FACE_OUTER_BOUND ( 'NONE', #597, .T. ) ;
#264 = EDGE_CURVE ( 'NONE', #139, #193, #91, .T. ) ;
#265 = ORIENTED_EDGE ( 'NONE', *, *, #615, .T. ) ;
#266 = PERSON_AND_ORGANIZATION_ROLE ( 'creator' ) ;
#267 = LINE ( 'NONE', #567, #579 ) ;
#268 = ORIENTED_EDGE ( 'NONE', *, *, #224, .F. ) ;
#269 = LOCAL_TIME ( 9, 16, 33.00000000000000000, #416 ) ;
#270 = VECTOR ( 'NONE', #497, 1000.000000000000000 ) ;
#271 = CARTESIAN_POINT ( 'NONE',  ( 300.0000000000001705, 30.00000000000000000, -300.0000000000000568 ) ) ;
#272 = FACE_OUTER_BOUND ( 'NONE', #561, .T. ) ;
#273 = DIRECTION ( 'NONE',  ( -1.000000000000000000, 0.000000000000000000, 1.850371707708594316E-16 ) ) ;
#274 = LINE ( 'NONE', #284, #172 ) ;
#275 = CARTESIAN_POINT ( 'NONE',  ( -299.9999999999999432, -800.0000000000000000, -299.9999999999999432 ) ) ;
#276 = EDGE_CURVE ( 'NONE', #13, #402, #629, .T. ) ;
#277 = VECTOR ( 'NONE', #441, 1000.000000000000000 ) ;
#278 = DESIGN_CONTEXT ( 'detailed design', #585, 'design' ) ;
#279 = FACE_OUTER_BOUND ( 'NONE', #607, .T. ) ;
#280 = ORIENTED_EDGE ( 'NONE', *, *, #309, .T. ) ;
#281 = AXIS2_PLACEMENT_3D ( 'NONE', #31, #374, #621 ) ;
#282 = CARTESIAN_POINT ( 'NONE',  ( 300.0000000000001705, 0.000000000000000000, 299.9999999999999432 ) ) ;
#283 = EDGE_CURVE ( 'NONE', #628, #13, #194, .T. ) ;
#284 = CARTESIAN_POINT ( 'NONE',  ( 299.9999999999998863, -800.0000000000000000, -249.9999999999999432 ) ) ;
#285 = CARTESIAN_POINT ( 'NONE',  ( -249.9999999999998295, -800.0000000000000000, 250.0000000000000568 ) ) ;
#286 = CARTESIAN_POINT ( 'NONE',  ( -249.9999999999998863, 0.000000000000000000, 299.9999999999998295 ) ) ;
#287 = ORIENTED_EDGE ( 'NONE', *, *, #409, .F. ) ;
#288 = DIRECTION ( 'NONE',  ( -0.000000000000000000, -1.000000000000000000, -0.000000000000000000 ) ) ;
#289 = EDGE_CURVE ( 'NONE', #139, #310, #61, .T. ) ;
#290 = ORIENTED_EDGE ( 'NONE', *, *, #218, .F. ) ;
#291 = ORIENTED_EDGE ( 'NONE', *, *, #246, .T. ) ;
#292 = VECTOR ( 'NONE', #1, 1000.000000000000000 ) ;
#293 = DIRECTION ( 'NONE',  ( -1.110223024625161668E-15, 0.000000000000000000, -1.000000000000000000 ) ) ;
#294 = LOCAL_TIME ( 9, 16, 33.00000000000000000, #212 ) ;
#295 = VERTEX_POINT ( 'NONE', #162 ) ;
#296 = DIRECTION ( 'NONE',  ( 1.000000000000000000, -0.000000000000000000, -1.850371707708594316E-16 ) ) ;
#297 = ORIENTED_EDGE ( 'NONE', *, *, #27, .T. ) ;
#298 = CARTESIAN_POINT ( 'NONE',  ( -249.9999999999998863, -800.0000000000000000, 299.9999999999998295 ) ) ;
#299 = PERSON_AND_ORGANIZATION ( #460, #542 ) ;
#300 = CARTESIAN_POINT ( 'NONE',  ( 249.9999999999998863, 0.000000000000000000, 299.9999999999998295 ) ) ;
#301 = VECTOR ( 'NONE', #98, 1000.000000000000000 ) ;
#302 = VERTEX_POINT ( 'NONE', #300 ) ;
#303 = PERSON_AND_ORGANIZATION_ROLE ( 'classification_officer' ) ;
#304 = CC_DESIGN_APPROVAL ( #245, ( #149 ) ) ;
#305 = CARTESIAN_POINT ( 'NONE',  ( 249.9999999999998863, 0.000000000000000000, -300.0000000000000568 ) ) ;
#306 = ORIENTED_EDGE ( 'NONE', *, *, #436, .T. ) ;
#307 = PERSON_AND_ORGANIZATION_ROLE ( 'design_supplier' ) ;
#308 = CARTESIAN_POINT ( 'NONE',  ( -299.9999999999998295, 0.000000000000000000, 300.0000000000000568 ) ) ;
#309 = EDGE_CURVE ( 'NONE', #402, #190, #593, .T. ) ;
#310 = VERTEX_POINT ( 'NONE', #298 ) ;
#311 = PERSON_AND_ORGANIZATION ( #460, #542 ) ;
#312 = EDGE_CURVE ( 'NONE', #47, #533, #209, .T. ) ;
#313 = CARTESIAN_POINT ( 'NONE',  ( -249.9999999999999716, -800.0000000000000000, -299.9999999999997158 ) ) ;
#314 = LINE ( 'NONE', #514, #231 ) ;
#315 = ORIENTED_EDGE ( 'NONE', *, *, #289, .T. ) ;
#316 = CLOSED_SHELL ( 'NONE', ( #435, #383, #351, #471, #30, #446, #426, #51, #15, #150, #102, #248, #563, #549, #557, #328, #525, #364 ) ) ;
#317 = COORDINATED_UNIVERSAL_TIME_OFFSET ( 8, 0, .AHEAD. ) ;
#318 = VECTOR ( 'NONE', #599, 1000.000000000000000 ) ;
#319 = DIRECTION ( 'NONE',  ( 0.000000000000000000, -0.000000000000000000, 1.000000000000000000 ) ) ;
#320 = ORIENTED_EDGE ( 'NONE', *, *, #276, .F. ) ;
#321 = LINE ( 'NONE', #282, #135 ) ;
#322 = DIRECTION ( 'NONE',  ( 0.000000000000000000, -1.000000000000000000, 0.000000000000000000 ) ) ;
#323 = CARTESIAN_POINT ( 'NONE',  ( 249.9999999999998863, 0.000000000000000000, -249.9999999999999432 ) ) ;
#324 = CARTESIAN_POINT ( 'NONE',  ( 249.9999999999998863, -800.0000000000000000, -249.9999999999999432 ) ) ;
#325 = DIRECTION ( 'NONE',  ( -1.110223024625161668E-15, -0.000000000000000000, 1.000000000000000000 ) ) ;
#326 = FACE_OUTER_BOUND ( 'NONE', #219, .T. ) ;
#327 = FACE_OUTER_BOUND ( 'NONE', #390, .T. ) ;
#328 = ADVANCED_FACE ( 'NONE', ( #263 ), #103, .F. ) ;
#329 = AXIS2_PLACEMENT_3D ( 'NONE', #181, #372, #480 ) ;
#330 = DIRECTION ( 'NONE',  ( -1.000000000000000000, -0.000000000000000000, -0.000000000000000000 ) ) ;
#331 = EDGE_LOOP ( 'NONE', ( #587, #178, #70, #444 ) ) ;
#332 = AXIS2_PLACEMENT_3D ( 'NONE', #205, #14, #216 ) ;
#333 = DIRECTION ( 'NONE',  ( 0.000000000000000000, -0.000000000000000000, -1.000000000000000000 ) ) ;
#334 = LOCAL_TIME ( 9, 16, 33.00000000000000000, #60 ) ;
#335 = EDGE_CURVE ( 'NONE', #295, #139, #260, .T. ) ;
#336 = CARTESIAN_POINT ( 'NONE',  ( -299.9999999999998863, -800.0000000000000000, -249.9999999999999432 ) ) ;
#337 = CARTESIAN_POINT ( 'NONE',  ( 299.9999999999998863, 0.000000000000000000, -249.9999999999999432 ) ) ;
#338 = ADVANCED_BREP_SHAPE_REPRESENTATION ( 'table_\X2\9ed88ba4\X0\_sldprt', ( #571, #332 ), #568 ) ;
#339 = EDGE_CURVE ( 'NONE', #628, #62, #52, .T. ) ;
#340 = VERTEX_POINT ( 'NONE', #451 ) ;
#341 = DIRECTION ( 'NONE',  ( 1.665334536937742502E-15, 0.000000000000000000, 1.000000000000000000 ) ) ;
#342 = ORIENTED_EDGE ( 'NONE', *, *, #218, .T. ) ;
#343 = CC_DESIGN_PERSON_AND_ORGANIZATION_ASSIGNMENT ( #517, #512, ( #92 ) ) ;
#344 = VERTEX_POINT ( 'NONE', #546 ) ;
#345 = VECTOR ( 'NONE', #470, 1000.000000000000000 ) ;
#346 = DIRECTION ( 'NONE',  ( -1.000000000000000000, 0.000000000000000000, 0.000000000000000000 ) ) ;
#347 = VECTOR ( 'NONE', #479, 1000.000000000000000 ) ;
#348 = ORIENTED_EDGE ( 'NONE', *, *, #518, .F. ) ;
#349 = ORIENTED_EDGE ( 'NONE', *, *, #335, .T. ) ;
#350 = LINE ( 'NONE', #578, #148 ) ;
#351 = ADVANCED_FACE ( 'NONE', ( #408 ), #7, .F. ) ;
#352 = APPROVAL_STATUS ( 'not_yet_approved' ) ;
#353 = DIRECTION ( 'NONE',  ( 0.000000000000000000, -0.000000000000000000, -1.000000000000000000 ) ) ;
#354 = ORIENTED_EDGE ( 'NONE', *, *, #49, .F. ) ;
#355 =( NAMED_UNIT ( * ) PLANE_ANGLE_UNIT ( ) SI_UNIT ( $, .RADIAN. ) );
#356 = DIRECTION ( 'NONE',  ( -0.000000000000000000, 0.000000000000000000, 1.000000000000000000 ) ) ;
#357 = VECTOR ( 'NONE', #64, 1000.000000000000000 ) ;
#358 = ORIENTED_EDGE ( 'NONE', *, *, #521, .T. ) ;
#359 = PERSON_AND_ORGANIZATION ( #460, #542 ) ;
#360 = CARTESIAN_POINT ( 'NONE',  ( -299.9999999999998295, 30.00000000000000000, 300.0000000000000568 ) ) ;
#361 = VERTEX_POINT ( 'NONE', #305 ) ;
#362 = PLANE ( 'NONE',  #116 ) ;
#363 = ORIENTED_EDGE ( 'NONE', *, *, #179, .T. ) ;
#364 = ADVANCED_FACE ( 'NONE', ( #203 ), #401, .T. ) ;
#365 = ORIENTED_EDGE ( 'NONE', *, *, #169, .F. ) ;
#366 = VECTOR ( 'NONE', #247, 1000.000000000000000 ) ;
#367 = AXIS2_PLACEMENT_3D ( 'NONE', #376, #566, #484 ) ;
#368 = CARTESIAN_POINT ( 'NONE',  ( 0.000000000000000000, 30.00000000000000000, 0.000000000000000000 ) ) ;
#369 = CARTESIAN_POINT ( 'NONE',  ( -249.9999999999998295, -800.0000000000000000, 250.0000000000000568 ) ) ;
#370 = DIRECTION ( 'NONE',  ( 0.000000000000000000, 1.000000000000000000, 0.000000000000000000 ) ) ;
#371 = CARTESIAN_POINT ( 'NONE',  ( 249.9999999999998863, -800.0000000000000000, 299.9999999999998295 ) ) ;
#372 = DIRECTION ( 'NONE',  ( -1.000000000000000000, 0.000000000000000000, -1.110223024625161668E-15 ) ) ;
#373 = CC_DESIGN_DATE_AND_TIME_ASSIGNMENT ( #63, #413, ( #8 ) ) ;
#374 = DIRECTION ( 'NONE',  ( 0.000000000000000000, -1.000000000000000000, 0.000000000000000000 ) ) ;
#375 = FACE_OUTER_BOUND ( 'NONE', #204, .T. ) ;
#376 = CARTESIAN_POINT ( 'NONE',  ( 299.9999999999998863, -800.0000000000000000, -249.9999999999999432 ) ) ;
#377 = LINE ( 'NONE', #74, #123 ) ;
#378 = PRODUCT ( 'table_\X2\9ed88ba4\X0\_sldprt', 'table_\X2\9ed88ba4\X0\_sldprt', '', ( #458 ) ) ;
#379 = CC_DESIGN_PERSON_AND_ORGANIZATION_ASSIGNMENT ( #359, #307, ( #149 ) ) ;
#380 = CARTESIAN_POINT ( 'NONE',  ( -249.9999999999998863, 0.000000000000000000, 300.0000000000000568 ) ) ;
#381 = ORIENTED_EDGE ( 'NONE', *, *, #400, .T. ) ;
#382 = DIRECTION ( 'NONE',  ( 0.000000000000000000, 0.000000000000000000, -1.000000000000000000 ) ) ;
#383 = ADVANCED_FACE ( 'NONE', ( #548 ), #214, .F. ) ;
#384 = VECTOR ( 'NONE', #382, 1000.000000000000000 ) ;
#385 = LINE ( 'NONE', #189, #452 ) ;
#386 = ORIENTED_EDGE ( 'NONE', *, *, #622, .F. ) ;
#387 = CARTESIAN_POINT ( 'NONE',  ( 249.9999999999998863, -800.0000000000000000, 299.9999999999998295 ) ) ;
#388 = ORIENTED_EDGE ( 'NONE', *, *, #289, .F. ) ;
#389 = LINE ( 'NONE', #198, #301 ) ;
#390 = EDGE_LOOP ( 'NONE', ( #106, #96, #115, #94, #241, #58, #499, #320 ) ) ;
#391 = CARTESIAN_POINT ( 'NONE',  ( 249.9999999999998863, 0.000000000000000000, 299.9999999999998295 ) ) ;
#392 = ORIENTED_EDGE ( 'NONE', *, *, #220, .T. ) ;
#393 = ORIENTED_EDGE ( 'NONE', *, *, #152, .F. ) ;
#394 = VECTOR ( 'NONE', #288, 1000.000000000000000 ) ;
#395 = LINE ( 'NONE', #101, #384 ) ;
#396 = VECTOR ( 'NONE', #325, 1000.000000000000000 ) ;
#397 = EDGE_CURVE ( 'NONE', #555, #489, #57, .T. ) ;
#398 = ORIENTED_EDGE ( 'NONE', *, *, #224, .T. ) ;
#399 = APPLICATION_PROTOCOL_DEFINITION ( 'international standard', 'config_control_design', 1994, #80 ) ;
#400 = EDGE_CURVE ( 'NONE', #250, #340, #509, .T. ) ;
#401 = PLANE ( 'NONE',  #240 ) ;
#402 = VERTEX_POINT ( 'NONE', #254 ) ;
#403 = CALENDAR_DATE ( 2026, 12, 6 ) ;
#404 = CC_DESIGN_PERSON_AND_ORGANIZATION_ASSIGNMENT ( #547, #155, ( #378 ) ) ;
#405 = CARTESIAN_POINT ( 'NONE',  ( -299.9999999999998295, -800.0000000000000000, 250.0000000000000568 ) ) ;
#406 = ORIENTED_EDGE ( 'NONE', *, *, #478, .T. ) ;
#407 = DATE_AND_TIME ( #256, #334 ) ;
#408 = FACE_OUTER_BOUND ( 'NONE', #510, .T. ) ;
#409 = EDGE_CURVE ( 'NONE', #493, #151, #414, .T. ) ;
#410 = VECTOR ( 'NONE', #188, 1000.000000000000000 ) ;
#411 = VECTOR ( 'NONE', #32, 1000.000000000000000 ) ;
#412 = ORIENTED_EDGE ( 'NONE', *, *, #27, .F. ) ;
#413 = DATE_TIME_ROLE ( 'classification_date' ) ;
#414 = LINE ( 'NONE', #313, #611 ) ;
#415 = VERTEX_POINT ( 'NONE', #168 ) ;
#416 = COORDINATED_UNIVERSAL_TIME_OFFSET ( 8, 0, .AHEAD. ) ;
#417 = DIRECTION ( 'NONE',  ( -0.000000000000000000, -0.000000000000000000, 1.000000000000000000 ) ) ;
#418 = ORIENTED_EDGE ( 'NONE', *, *, #623, .T. ) ;
#419 = PLANE ( 'NONE',  #211 ) ;
#420 = PLANE ( 'NONE',  #502 ) ;
#421 = ORIENTED_EDGE ( 'NONE', *, *, #478, .F. ) ;
#422 = VECTOR ( 'NONE', #588, 1000.000000000000000 ) ;
#423 = CARTESIAN_POINT ( 'NONE',  ( 300.0000000000001705, -800.0000000000000000, 299.9999999999997158 ) ) ;
#424 = CARTESIAN_POINT ( 'NONE',  ( 299.9999999999998295, -800.0000000000000000, 250.0000000000000568 ) ) ;
#425 = DIRECTION ( 'NONE',  ( -0.000000000000000000, 1.000000000000000000, -0.000000000000000000 ) ) ;
#426 = ADVANCED_FACE ( 'NONE', ( #158 ), #10, .F. ) ;
#427 = PLANE ( 'NONE',  #185 ) ;
#428 = CARTESIAN_POINT ( 'NONE',  ( 249.9999999999999716, -800.0000000000000000, -299.9999999999997158 ) ) ;
#429 = VECTOR ( 'NONE', #146, 1000.000000000000000 ) ;
#430 = LOCAL_TIME ( 9, 16, 33.00000000000000000, #208 ) ;
#431 = PLANE ( 'NONE',  #281 ) ;
#432 = LINE ( 'NONE', #83, #589 ) ;
#433 = ORIENTED_EDGE ( 'NONE', *, *, #622, .T. ) ;
#434 = CARTESIAN_POINT ( 'NONE',  ( 300.0000000000001705, -800.0000000000000000, 299.9999999999997158 ) ) ;
#435 = ADVANCED_FACE ( 'NONE', ( #164 ), #362, .F. ) ;
#436 = EDGE_CURVE ( 'NONE', #62, #344, #257, .T. ) ;
#437 = DIRECTION ( 'NONE',  ( -0.000000000000000000, 1.000000000000000000, -0.000000000000000000 ) ) ;
#438 = ORIENTED_EDGE ( 'NONE', *, *, #242, .F. ) ;
#439 = FACE_OUTER_BOUND ( 'NONE', #25, .T. ) ;
#440 = ORIENTED_EDGE ( 'NONE', *, *, #152, .T. ) ;
#441 = DIRECTION ( 'NONE',  ( -1.000000000000000000, 0.000000000000000000, 1.850371707708594316E-16 ) ) ;
#442 = ORIENTED_EDGE ( 'NONE', *, *, #49, .T. ) ;
#443 = EDGE_CURVE ( 'NONE', #493, #600, #314, .T. ) ;
#444 = ORIENTED_EDGE ( 'NONE', *, *, #126, .T. ) ;
#445 = DIRECTION ( 'NONE',  ( 1.000000000000000000, -0.000000000000000000, -1.850371707708594316E-16 ) ) ;
#446 = ADVANCED_FACE ( 'NONE', ( #564 ), #20, .T. ) ;
#447 = ORIENTED_EDGE ( 'NONE', *, *, #603, .T. ) ;
#448 = DIRECTION ( 'NONE',  ( 6.661338147750984996E-15, -0.000000000000000000, 1.000000000000000000 ) ) ;
#449 = EDGE_CURVE ( 'NONE', #310, #42, #76, .T. ) ;
#450 = AXIS2_PLACEMENT_3D ( 'NONE', #553, #500, #596 ) ;
#451 = CARTESIAN_POINT ( 'NONE',  ( 249.9999999999998295, 0.000000000000000000, 250.0000000000000568 ) ) ;
#452 = VECTOR ( 'NONE', #437, 1000.000000000000000 ) ;
#453 = APPROVAL ( #107, '未指定' ) ;
#454 = PERSON_AND_ORGANIZATION ( #460, #542 ) ;
#455 = DIRECTION ( 'NONE',  ( 1.665334536937742502E-15, 0.000000000000000000, 1.000000000000000000 ) ) ;
#456 = EDGE_CURVE ( 'NONE', #13, #474, #519, .T. ) ;
#457 = ORIENTED_EDGE ( 'NONE', *, *, #246, .F. ) ;
#458 = MECHANICAL_CONTEXT ( 'NONE', #80, 'mechanical' ) ;
#459 = DIRECTION ( 'NONE',  ( -1.850371707708594563E-16, 0.000000000000000000, -1.000000000000000000 ) ) ;
#460 = PERSON ( '未指定', '未指定', '未指定', ('未指定'), ('未指定'), ('未指定') ) ;
#461 = ORIENTED_EDGE ( 'NONE', *, *, #182, .T. ) ;
#462 = DATE_AND_TIME ( #403, #430 ) ;
#463 = CARTESIAN_POINT ( 'NONE',  ( 300.0000000000001705, 30.00000000000000000, 299.9999999999999432 ) ) ;
#464 = VECTOR ( 'NONE', #131, 1000.000000000000000 ) ;
#465 = ORIENTED_EDGE ( 'NONE', *, *, #409, .T. ) ;
#466 =( NAMED_UNIT ( * ) SI_UNIT ( $, .STERADIAN. ) SOLID_ANGLE_UNIT ( ) );
#467 = DIRECTION ( 'NONE',  ( -0.000000000000000000, -1.000000000000000000, -0.000000000000000000 ) ) ;
#468 = ORIENTED_EDGE ( 'NONE', *, *, #110, .F. ) ;
#469 = PERSON_AND_ORGANIZATION ( #460, #542 ) ;
#470 = DIRECTION ( 'NONE',  ( -0.000000000000000000, 1.000000000000000000, -0.000000000000000000 ) ) ;
#471 = ADVANCED_FACE ( 'NONE', ( #72 ), #226, .F. ) ;
#472 = DIRECTION ( 'NONE',  ( -1.000000000000000000, 0.000000000000000000, 0.000000000000000000 ) ) ;
#473 = PLANE ( 'NONE',  #329 ) ;
#474 = VERTEX_POINT ( 'NONE', #180 ) ;
#475 = VECTOR ( 'NONE', #217, 1000.000000000000000 ) ;
#476 = PRODUCT_DEFINITION_SHAPE ( 'NONE', 'NONE',  #92 ) ;
#477 = DIRECTION ( 'NONE',  ( -0.000000000000000000, -1.000000000000000000, -0.000000000000000000 ) ) ;
#478 = EDGE_CURVE ( 'NONE', #310, #520, #221, .T. ) ;
#479 = DIRECTION ( 'NONE',  ( -1.000000000000000000, -0.000000000000000000, -0.000000000000000000 ) ) ;
#480 = DIRECTION ( 'NONE',  ( -1.110223024625161668E-15, 0.000000000000000000, 1.000000000000000000 ) ) ;
#481 = LINE ( 'NONE', #227, #34 ) ;
#482 = CARTESIAN_POINT ( 'NONE',  ( -299.9999999999998295, 0.000000000000000000, 250.0000000000000568 ) ) ;
#483 = VECTOR ( 'NONE', #524, 1000.000000000000000 ) ;
#484 = DIRECTION ( 'NONE',  ( -1.000000000000000000, 0.000000000000000000, 0.000000000000000000 ) ) ;
#485 = ORIENTED_EDGE ( 'NONE', *, *, #81, .T. ) ;
#486 = CARTESIAN_POINT ( 'NONE',  ( 299.9999999999998863, 0.000000000000000000, -249.9999999999999432 ) ) ;
#487 = DIRECTION ( 'NONE',  ( -1.000000000000000000, 0.000000000000000000, -0.000000000000000000 ) ) ;
#488 = DIRECTION ( 'NONE',  ( -0.000000000000000000, 1.000000000000000000, -0.000000000000000000 ) ) ;
#489 = VERTEX_POINT ( 'NONE', #526 ) ;
#490 = DIRECTION ( 'NONE',  ( -0.000000000000000000, 1.000000000000000000, -0.000000000000000000 ) ) ;
#491 = ORIENTED_EDGE ( 'NONE', *, *, #179, .F. ) ;
#492 = CARTESIAN_POINT ( 'NONE',  ( -299.9999999999998295, 30.00000000000000000, 300.0000000000000568 ) ) ;
#493 = VERTEX_POINT ( 'NONE', #232 ) ;
#494 = AXIS2_PLACEMENT_3D ( 'NONE', #40, #539, #293 ) ;
#495 = AXIS2_PLACEMENT_3D ( 'NONE', #12, #356, #602 ) ;
#496 = ORIENTED_EDGE ( 'NONE', *, *, #169, .T. ) ;
#497 = DIRECTION ( 'NONE',  ( -0.000000000000000000, -1.000000000000000000, -0.000000000000000000 ) ) ;
#498 = CARTESIAN_POINT ( 'NONE',  ( 0.000000000000000000, -800.0000000000000000, 0.000000000000000000 ) ) ;
#499 = ORIENTED_EDGE ( 'NONE', *, *, #196, .F. ) ;
#500 = DIRECTION ( 'NONE',  ( -1.000000000000000000, 0.000000000000000000, 1.665334536937742699E-15 ) ) ;
#501 = APPROVAL_ROLE ( '' ) ;
#502 = AXIS2_PLACEMENT_3D ( 'NONE', #223, #562, #565 ) ;
#503 = DIRECTION ( 'NONE',  ( 0.000000000000000000, 0.000000000000000000, -1.000000000000000000 ) ) ;
#504 = ORIENTED_EDGE ( 'NONE', *, *, #511, .F. ) ;
#505 = APPROVAL_ROLE ( '' ) ;
#506 = DIRECTION ( 'NONE',  ( 0.000000000000000000, -0.000000000000000000, 1.000000000000000000 ) ) ;
#507 = EDGE_LOOP ( 'NONE', ( #280, #200, #210, #170 ) ) ;
#508 = SECURITY_CLASSIFICATION_LEVEL ( 'unclassified' ) ;
#509 = LINE ( 'NONE', #606, #318 ) ;
#510 = EDGE_LOOP ( 'NONE', ( #461, #11, #406, #143, #536, #545, #604, #633 ) ) ;
#511 = EDGE_CURVE ( 'NONE', #361, #600, #573, .T. ) ;
#512 = PERSON_AND_ORGANIZATION_ROLE ( 'creator' ) ;
#513 = CARTESIAN_POINT ( 'NONE',  ( 0.000000000000000000, 0.000000000000000000, 0.000000000000000000 ) ) ;
#514 = CARTESIAN_POINT ( 'NONE',  ( -249.9999999999999716, -800.0000000000000000, -299.9999999999997158 ) ) ;
#515 = VECTOR ( 'NONE', #165, 1000.000000000000000 ) ;
#516 = ORIENTED_EDGE ( 'NONE', *, *, #518, .T. ) ;
#517 = PERSON_AND_ORGANIZATION ( #460, #542 ) ;
#518 = EDGE_CURVE ( 'NONE', #344, #250, #136, .T. ) ;
#519 = LINE ( 'NONE', #271, #125 ) ;
#520 = VERTEX_POINT ( 'NONE', #380 ) ;
#521 = EDGE_CURVE ( 'NONE', #18, #555, #535, .T. ) ;
#522 = CARTESIAN_POINT ( 'NONE',  ( 0.000000000000000000, -800.0000000000000000, 0.000000000000000000 ) ) ;
#523 = CARTESIAN_POINT ( 'NONE',  ( 300.0000000000001705, -800.0000000000000000, 299.9999999999997158 ) ) ;
#524 = DIRECTION ( 'NONE',  ( -1.000000000000000000, -0.000000000000000000, 4.440892098500632473E-15 ) ) ;
#525 = ADVANCED_FACE ( 'NONE', ( #326 ), #427, .F. ) ;
#526 = CARTESIAN_POINT ( 'NONE',  ( -299.9999999999998295, 0.000000000000000000, 250.0000000000000568 ) ) ;
#527 = CARTESIAN_POINT ( 'NONE',  ( -299.9999999999998295, -800.0000000000000000, 300.0000000000000568 ) ) ;
#528 = CARTESIAN_POINT ( 'NONE',  ( 299.9999999999998863, -800.0000000000000000, -249.9999999999999432 ) ) ;
#529 = DIRECTION ( 'NONE',  ( 0.000000000000000000, 0.000000000000000000, 1.000000000000000000 ) ) ;
#530 = CARTESIAN_POINT ( 'NONE',  ( 300.0000000000001705, 0.000000000000000000, 250.0000000000000568 ) ) ;
#531 = AXIS2_PLACEMENT_3D ( 'NONE', #19, #459, #109 ) ;
#532 = DIRECTION ( 'NONE',  ( 1.000000000000000000, -0.000000000000000000, -2.220446049250309925E-15 ) ) ;
#533 = VERTEX_POINT ( 'NONE', #530 ) ;
#534 = LINE ( 'NONE', #50, #422 ) ;
#535 = LINE ( 'NONE', #28, #347 ) ;
#536 = ORIENTED_EDGE ( 'NONE', *, *, #225, .F. ) ;
#537 = CARTESIAN_POINT ( 'NONE',  ( 249.9999999999998295, -800.0000000000000000, 250.0000000000000568 ) ) ;
#538 = ORIENTED_EDGE ( 'NONE', *, *, #575, .T. ) ;
#539 = DIRECTION ( 'NONE',  ( 1.000000000000000000, 0.000000000000000000, -1.110223024625161668E-15 ) ) ;
#540 = EDGE_CURVE ( 'NONE', #65, #54, #481, .T. ) ;
#541 = VECTOR ( 'NONE', #153, 1000.000000000000000 ) ;
#542 = ORGANIZATION ( '未指定', '未指定', '' ) ;
#543 = EDGE_LOOP ( 'NONE', ( #398, #45, #457, #433 ) ) ;
#544 = LINE ( 'NONE', #387, #429 ) ;
#545 = ORIENTED_EDGE ( 'NONE', *, *, #436, .F. ) ;
#546 = CARTESIAN_POINT ( 'NONE',  ( 249.9999999999998863, -800.0000000000000000, 299.9999999999998295 ) ) ;
#547 = PERSON_AND_ORGANIZATION ( #460, #542 ) ;
#548 = FACE_OUTER_BOUND ( 'NONE', #166, .T. ) ;
#549 = ADVANCED_FACE ( 'NONE', ( #616 ), #230, .F. ) ;
#550 = ORIENTED_EDGE ( 'NONE', *, *, #53, .T. ) ;
#551 = DIRECTION ( 'NONE',  ( 0.000000000000000000, 1.000000000000000000, 0.000000000000000000 ) ) ;
#552 = EDGE_LOOP ( 'NONE', ( #550, #465, #418, #100 ) ) ;
#553 = CARTESIAN_POINT ( 'NONE',  ( -249.9999999999999716, -800.0000000000000000, -299.9999999999997158 ) ) ;
#554 = CARTESIAN_POINT ( 'NONE',  ( -299.9999999999998295, -800.0000000000000000, 300.0000000000000568 ) ) ;
#555 = VERTEX_POINT ( 'NONE', #93 ) ;
#556 = CARTESIAN_POINT ( 'NONE',  ( 299.9999999999998295, -800.0000000000000000, 250.0000000000000568 ) ) ;
#557 = ADVANCED_FACE ( 'NONE', ( #279 ), #431, .T. ) ;
#558 = VERTEX_POINT ( 'NONE', #323 ) ;
#559 = APPROVAL_PERSON_ORGANIZATION ( #299, #245, #501 ) ;
#560 = VECTOR ( 'NONE', #173, 1000.000000000000000 ) ;
#561 = EDGE_LOOP ( 'NONE', ( #120, #421, #388, #261 ) ) ;
#562 = DIRECTION ( 'NONE',  ( 1.850371707708594563E-16, -0.000000000000000000, 1.000000000000000000 ) ) ;
#563 = ADVANCED_FACE ( 'NONE', ( #569 ), #41, .F. ) ;
#564 = FACE_OUTER_BOUND ( 'NONE', #507, .T. ) ;
#565 = DIRECTION ( 'NONE',  ( 1.000000000000000000, 0.000000000000000000, -1.850371707708594563E-16 ) ) ;
#566 = DIRECTION ( 'NONE',  ( -0.000000000000000000, 0.000000000000000000, -1.000000000000000000 ) ) ;
#567 = CARTESIAN_POINT ( 'NONE',  ( -249.9999999999998863, -800.0000000000000000, -249.9999999999999432 ) ) ;
#568 =( GEOMETRIC_REPRESENTATION_CONTEXT ( 3 ) GLOBAL_UNCERTAINTY_ASSIGNED_CONTEXT ( ( #229 ) ) GLOBAL_UNIT_ASSIGNED_CONTEXT ( ( #238, #355, #466 ) ) REPRESENTATION_CONTEXT ( 'NONE', 'WORKASPACE' ) );
#569 = FACE_OUTER_BOUND ( 'NONE', #543, .T. ) ;
#570 = PLANE ( 'NONE',  #56 ) ;
#571 = MANIFOLD_SOLID_BREP ( '凸台-拉伸2', #316 ) ;
#572 = EDGE_CURVE ( 'NONE', #193, #520, #129, .T. ) ;
#573 = LINE ( 'NONE', #124, #5 ) ;
#574 = CARTESIAN_POINT ( 'NONE',  ( -299.9999999999999432, -800.0000000000000000, -299.9999999999999432 ) ) ;
#575 = EDGE_CURVE ( 'NONE', #65, #558, #385, .T. ) ;
#576 = DIRECTION ( 'NONE',  ( 0.000000000000000000, 0.000000000000000000, -1.000000000000000000 ) ) ;
#577 = VERTEX_POINT ( 'NONE', #528 ) ;
#578 = CARTESIAN_POINT ( 'NONE',  ( 300.0000000000001705, 30.00000000000000000, 299.9999999999999432 ) ) ;
#579 = VECTOR ( 'NONE', #78, 1000.000000000000000 ) ;
#580 = CC_DESIGN_APPROVAL ( #453, ( #8 ) ) ;
#581 = ORIENTED_EDGE ( 'NONE', *, *, #242, .T. ) ;
#582 = LINE ( 'NONE', #234, #394 ) ;
#583 = ORIENTED_EDGE ( 'NONE', *, *, #397, .F. ) ;
#584 = CARTESIAN_POINT ( 'NONE',  ( 300.0000000000001705, 30.00000000000000000, 299.9999999999999432 ) ) ;
#585 = APPLICATION_CONTEXT ( 'configuration controlled 3d designs of mechanical parts and assemblies' ) ;
#586 = ORIENTED_EDGE ( 'NONE', *, *, #6, .F. ) ;
#587 = ORIENTED_EDGE ( 'NONE', *, *, #110, .T. ) ;
#588 = DIRECTION ( 'NONE',  ( -0.000000000000000000, 1.000000000000000000, -0.000000000000000000 ) ) ;
#589 = VECTOR ( 'NONE', #35, 1000.000000000000000 ) ;
#590 = ORIENTED_EDGE ( 'NONE', *, *, #339, .T. ) ;
#591 = CARTESIAN_POINT ( 'NONE',  ( -299.9999999999998295, 30.00000000000000000, 300.0000000000000568 ) ) ;
#592 = ORIENTED_EDGE ( 'NONE', *, *, #196, .T. ) ;
#593 = LINE ( 'NONE', #360, #475 ) ;
#594 = ORIENTED_EDGE ( 'NONE', *, *, #397, .T. ) ;
#595 = APPLICATION_PROTOCOL_DEFINITION ( 'international standard', 'config_control_design', 1994, #585 ) ;
#596 = DIRECTION ( 'NONE',  ( 1.665334536937742699E-15, 0.000000000000000000, 1.000000000000000000 ) ) ;
#597 = EDGE_LOOP ( 'NONE', ( #363, #354, #287, #175 ) ) ;
#598 = APPROVAL_DATE_TIME ( #407, #453 ) ;
#599 = DIRECTION ( 'NONE',  ( -0.000000000000000000, 1.000000000000000000, -0.000000000000000000 ) ) ;
#600 = VERTEX_POINT ( 'NONE', #85 ) ;
#601 = CALENDAR_DATE ( 2026, 12, 6 ) ;
#602 = DIRECTION ( 'NONE',  ( 1.000000000000000000, 0.000000000000000000, 0.000000000000000000 ) ) ;
#603 = EDGE_CURVE ( 'NONE', #533, #154, #432, .T. ) ;
#604 = ORIENTED_EDGE ( 'NONE', *, *, #339, .F. ) ;
#605 = DATE_AND_TIME ( #252, #269 ) ;
#606 = CARTESIAN_POINT ( 'NONE',  ( 249.9999999999998295, -800.0000000000000000, 250.0000000000000568 ) ) ;
#607 = EDGE_LOOP ( 'NONE', ( #485, #291, #163, #265 ) ) ;
#608 = CARTESIAN_POINT ( 'NONE',  ( -249.9999999999998863, -800.0000000000000000, 299.9999999999998295 ) ) ;
#609 = VECTOR ( 'NONE', #417, 1000.000000000000000 ) ;
#610 = LINE ( 'NONE', #574, #410 ) ;
#611 = VECTOR ( 'NONE', #455, 1000.000000000000000 ) ;
#612 = ORIENTED_EDGE ( 'NONE', *, *, #521, .F. ) ;
#613 = CARTESIAN_POINT ( 'NONE',  ( 300.0000000000001705, 30.00000000000000000, 299.9999999999999432 ) ) ;
#614 = CARTESIAN_POINT ( 'NONE',  ( 299.9999999999998295, 0.000000000000000000, 250.0000000000000568 ) ) ;
#615 = EDGE_CURVE ( 'NONE', #54, #474, #89, .T. ) ;
#616 = FACE_OUTER_BOUND ( 'NONE', #137, .T. ) ;
#617 = CARTESIAN_POINT ( 'NONE',  ( 300.0000000000000568, -800.0000000000000000, -299.9999999999998295 ) ) ;
#618 = VECTOR ( 'NONE', #119, 1000.000000000000000 ) ;
#619 = APPROVAL_PERSON_ORGANIZATION ( #311, #140, #104 ) ;
#620 = FACE_OUTER_BOUND ( 'NONE', #199, .T. ) ;
#621 = DIRECTION ( 'NONE',  ( 0.000000000000000000, -0.000000000000000000, -1.000000000000000000 ) ) ;
#622 = EDGE_CURVE ( 'NONE', #577, #154, #274, .T. ) ;
#623 = EDGE_CURVE ( 'NONE', #151, #36, #133, .T. ) ;
#624 = CARTESIAN_POINT ( 'NONE',  ( -299.9999999999998863, -800.0000000000000000, -249.9999999999999432 ) ) ;
#625 = ORIENTED_EDGE ( 'NONE', *, *, #126, .F. ) ;
#626 = CARTESIAN_POINT ( 'NONE',  ( 299.9999999999998863, -800.0000000000000000, -249.9999999999999432 ) ) ;
#627 = CARTESIAN_POINT ( 'NONE',  ( 300.0000000000001705, 30.00000000000000000, 299.9999999999999432 ) ) ;
#628 = VERTEX_POINT ( 'NONE', #627 ) ;
#629 = LINE ( 'NONE', #95, #277 ) ;
#630 = VECTOR ( 'NONE', #206, 1000.000000000000000 ) ;
#631 = EDGE_LOOP ( 'NONE', ( #491, #504, #159, #268, #258, #412, #290, #111, #39, #468, #583, #612 ) ) ;
#632 = LINE ( 'NONE', #591, #270 ) ;
#633 = ORIENTED_EDGE ( 'NONE', *, *, #228, .F. ) ;
ENDSEC;
END-ISO-10303-21;
